<svg width="34" height="34" viewBox="0 0 34 34" fill="none" xmlns="http://www.w3.org/2000/svg">
<path d="M27.0938 23.9062H28.1562V24.9688C29.0349 24.9688 29.75 25.6838 29.75 26.5625C29.75 27.4412 29.0349 28.1562 28.1562 28.1562H27.0938C26.8005 28.1562 26.5625 28.3948 26.5625 28.6875C26.5625 28.9802 26.8005 29.2188 27.0938 29.2188H28.6875V28.6875H29.75V30.2812H28.1562V31.3438H27.0938V30.2812C26.2151 30.2812 25.5 29.5662 25.5 28.6875C25.5 27.8088 26.2151 27.0938 27.0938 27.0938H28.1562C28.4495 27.0938 28.6875 26.8552 28.6875 26.5625C28.6875 26.2698 28.4495 26.0312 28.1562 26.0312H26.5625V26.5625H25.5V24.9688H27.0938V23.9062Z" fill="white"/>
<path d="M6.90625 15.4062H5.84375V14.3438C4.96506 14.3438 4.25 13.6287 4.25 12.75C4.25 11.8713 4.96506 11.1562 5.84375 11.1562H6.90625C7.1995 11.1562 7.4375 10.9177 7.4375 10.625C7.4375 10.3323 7.1995 10.0938 6.90625 10.0938H5.3125V10.625H4.25V9.03125H5.84375V7.96875H6.90625V9.03125C7.78494 9.03125 8.5 9.74631 8.5 10.625C8.5 11.5037 7.78494 12.2188 6.90625 12.2188H5.84375C5.5505 12.2188 5.3125 12.4573 5.3125 12.75C5.3125 13.0427 5.5505 13.2812 5.84375 13.2812H7.4375V12.75H8.5V14.3438H6.90625V15.4062Z" fill="white"/>
<path d="M6.375 17.5312C3.15297 17.5312 0.53125 14.9095 0.53125 11.6875C0.53125 8.46547 3.15297 5.84375 6.375 5.84375C9.59703 5.84375 12.2188 8.46547 12.2188 11.6875C12.2188 14.9095 9.59703 17.5312 6.375 17.5312ZM6.375 6.90625C3.73841 6.90625 1.59375 9.05144 1.59375 11.6875C1.59375 14.3236 3.73841 16.4688 6.375 16.4688C9.01159 16.4688 11.1562 14.3236 11.1562 11.6875C11.1562 9.05144 9.01159 6.90625 6.375 6.90625Z" fill="white"/>
<path d="M6.375 19.6562H2.34494L9.03125 26.3426L11.6875 23.6863L15.4503 27.4492L20.2072 23.7495L22.1924 25.4867C22.6158 24.4147 23.3458 23.4982 24.276 22.8443H14.3438V20.451C14.3438 18.487 15.5752 16.6935 17.4085 15.9885L21.3334 14.4792L21.6617 13.1654C20.7506 12.5954 20.0722 11.6923 19.7965 10.6255H19.6562C18.4843 10.6255 17.5312 9.67247 17.5312 8.50053C17.5312 8.08084 17.6577 7.69144 17.8686 7.361C17.6481 6.48922 17.5312 5.59459 17.5312 4.69519V3.86697L18.828 3.43453L17.7884 1.87478L19.1356 1.33663C20.4707 0.802188 21.8769 0.53125 23.3155 0.53125H24.9432C26.1072 0.53125 27.2345 0.872844 28.2046 1.51831C29.5051 2.38531 30.2812 3.83616 30.2812 5.39962C30.2812 6.04191 30.1389 6.68153 29.8818 7.26909C30.1309 7.61706 30.2812 8.04047 30.2812 8.5C30.2812 9.67194 29.3282 10.625 28.1562 10.625H28.0165C27.7403 11.6912 27.0624 12.5949 26.1513 13.1644L26.4796 14.4782L30.4045 15.9874C32.2373 16.6924 33.4688 18.4859 33.4688 20.4505V22.8438H30.9745C32.4801 23.902 33.4688 25.6488 33.4688 27.625C33.4688 30.847 30.847 33.4688 27.625 33.4688H0.53125V32.4062H3.71875V22.5324L1.59375 20.4074V24.4375H0.53125V18.5938H6.375V19.6562ZM7.96875 26.7824V32.4062H10.0938V26.7824L9.03125 27.8449L7.96875 26.7824ZM11.1562 25.7199V32.4062H13.2812V26.7824L11.6875 25.1887L11.1562 25.7199ZM15.3622 28.8639L14.3438 27.8449V32.4062H16.4688V28.0027L15.3622 28.8639ZM19.6562 25.5239L17.5312 27.1766V32.4062H19.6562V25.5239ZM19.6562 9.5625V7.4375C19.0703 7.4375 18.5938 7.91403 18.5938 8.5C18.5938 9.08597 19.0703 9.5625 19.6562 9.5625ZM28.1562 9.5625C28.7422 9.5625 29.2188 9.08597 29.2188 8.5C29.2188 7.91403 28.7422 7.4375 28.1562 7.4375V9.5625ZM28.0234 6.375H28.1562C28.4649 6.375 28.7566 6.44459 29.0217 6.56359C29.1497 6.18906 29.2188 5.79434 29.2188 5.39962C29.2188 4.19262 28.619 3.07222 27.6149 2.40284C26.8207 1.87319 25.8968 1.59375 24.9432 1.59375H23.3155C22.0129 1.59375 20.7389 1.83919 19.5298 2.32316L19.3991 2.37522L20.4845 4.00297L18.5938 4.63303V4.69519C18.5938 5.32525 18.6575 5.95319 18.7776 6.5705C19.0464 6.44778 19.3423 6.375 19.6562 6.375H19.7891C19.9033 6.03819 20.0844 5.72634 20.3432 5.46762C20.7862 5.02509 21.3748 4.78125 22.0012 4.78125H25.8113C26.4377 4.78125 27.0263 5.02509 27.4693 5.46762C27.7281 5.72634 27.9092 6.03819 28.0234 6.375ZM27.0938 9.5625V7.12672C27.0938 6.78406 26.9604 6.46213 26.7182 6.21988C26.4759 5.97709 26.1534 5.84375 25.8113 5.84375H22.0012C21.6585 5.84375 21.3366 5.97709 21.0943 6.21988C20.8521 6.46159 20.7188 6.78353 20.7188 7.12619V9.5625C20.7188 11.3199 22.1483 12.75 23.9057 12.75C25.6636 12.75 27.0938 11.3199 27.0938 9.5625ZM23.9057 13.8125C23.4658 13.8125 23.0414 13.745 22.6419 13.6207L22.3359 14.8447C22.5813 15.4998 23.2023 15.9375 23.9062 15.9375C24.6096 15.9375 25.2307 15.4998 25.4761 14.8437L25.1706 13.6202C24.7706 13.745 24.3461 13.8125 23.9057 13.8125ZM32.4062 21.7812V20.4505C32.4062 18.9231 31.4484 17.5281 30.0225 16.9793L26.3197 15.555C25.8485 16.4342 24.9294 17 23.9062 17C22.8825 17 21.9635 16.4337 21.4922 15.555L17.79 16.9793C16.3641 17.5275 15.4062 18.9226 15.4062 20.4505V21.7812H32.4062ZM32.4062 27.625C32.4062 24.9889 30.2616 22.8438 27.625 22.8438C24.9884 22.8438 22.8438 24.9889 22.8438 27.625C22.8438 30.2611 24.9884 32.4062 27.625 32.4062C30.2616 32.4062 32.4062 30.2611 32.4062 27.625ZM21.7812 27.625C21.7812 27.2813 21.8168 26.9466 21.8742 26.6193L20.7188 25.6078V32.4062H24.2755C22.7699 31.348 21.7812 29.6012 21.7812 27.625ZM4.78125 32.4062H6.90625V25.7199L4.78125 23.5949V32.4062Z" fill="white"/>
</svg>
