<svg width="52" height="52" viewBox="0 0 52 52" fill="none" xmlns="http://www.w3.org/2000/svg">
<path d="M47.9375 6.5H47.125V4.0625C47.125 3.41603 46.8682 2.79605 46.4111 2.33893C45.954 1.88181 45.334 1.625 44.6875 1.625H7.3125C6.66603 1.625 6.04605 1.88181 5.58893 2.33893C5.13181 2.79605 4.875 3.41603 4.875 4.0625V6.5H4.0625C3.41603 6.5 2.79605 6.75681 2.33893 7.21393C1.88181 7.67105 1.625 8.29103 1.625 8.9375V39.8125C1.625 40.459 1.88181 41.079 2.33893 41.5361C2.79605 41.9932 3.41603 42.25 4.0625 42.25H20.033L18.083 48.75H15.4375C15.222 48.75 15.0153 48.8356 14.863 48.988C14.7106 49.1403 14.625 49.347 14.625 49.5625C14.625 49.778 14.7106 49.9847 14.863 50.137C15.0153 50.2894 15.222 50.375 15.4375 50.375H36.5625C36.778 50.375 36.9847 50.2894 37.137 50.137C37.2894 49.9847 37.375 49.778 37.375 49.5625C37.375 49.347 37.2894 49.1403 37.137 48.988C36.9847 48.8356 36.778 48.75 36.5625 48.75H33.917L31.967 42.25H47.9375C48.584 42.25 49.204 41.9932 49.6611 41.5361C50.1182 41.079 50.375 40.459 50.375 39.8125V20.2605H48.75V35.75H3.25V8.9375C3.25 8.72201 3.3356 8.51535 3.48798 8.36298C3.64035 8.2106 3.84701 8.125 4.0625 8.125H4.875V33.3125C4.875 33.528 4.9606 33.7347 5.11298 33.887C5.26535 34.0394 5.47201 34.125 5.6875 34.125H46.3125C46.528 34.125 46.7347 34.0394 46.887 33.887C47.0394 33.7347 47.125 33.528 47.125 33.3125V8.125H47.9375C48.153 8.125 48.3597 8.2106 48.512 8.36298C48.6644 8.51535 48.75 8.72201 48.75 8.9375V15.3855H50.375V8.9375C50.375 8.29103 50.1182 7.67105 49.6611 7.21393C49.204 6.75681 48.584 6.5 47.9375 6.5ZM32.2205 48.75H19.7795L21.7295 42.25H30.2705L32.2205 48.75ZM48.75 37.375V39.8125C48.75 40.028 48.6644 40.2347 48.512 40.387C48.3597 40.5394 48.153 40.625 47.9375 40.625H4.0625C3.84701 40.625 3.64035 40.5394 3.48798 40.387C3.3356 40.2347 3.25 40.028 3.25 39.8125V37.375H48.75ZM6.5 4.0625C6.5 3.84701 6.5856 3.64035 6.73798 3.48798C6.89035 3.3356 7.09701 3.25 7.3125 3.25H44.6875C44.903 3.25 45.1097 3.3356 45.262 3.48798C45.4144 3.64035 45.5 3.84701 45.5 4.0625V8.125H6.5V4.0625ZM45.5 32.5H6.5V9.75H45.5V32.5Z" fill="#5E72E4"/>
<path d="M48.75 17.0105H50.375V18.6355H48.75V17.0105Z" fill="#5E72E4"/>
<path d="M25.1875 38.1875H26.8125V39.8125H25.1875V38.1875Z" fill="#5E72E4"/>
<path d="M8.125 4.875H9.75V6.5H8.125V4.875Z" fill="#5E72E4"/>
<path d="M11.375 4.875H13V6.5H11.375V4.875Z" fill="#5E72E4"/>
<path d="M14.625 4.875H16.25V6.5H14.625V4.875Z" fill="#5E72E4"/>
<path d="M21.3054 23.0938L22.4543 21.9449L18.2935 17.7841L22.4543 13.6225L21.3054 12.4736L16.5702 17.2097C16.4178 17.3621 16.3323 17.5687 16.3323 17.7841C16.3323 17.9996 16.4178 18.2062 16.5702 18.3586L21.3054 23.0938Z" fill="#5E72E4"/>
<path d="M30.7768 23.0937L35.5121 18.3625C35.6644 18.2101 35.7499 18.0035 35.7499 17.788C35.7499 17.5726 35.6644 17.366 35.5121 17.2136L30.7768 12.4775L29.6279 13.6264L33.7887 17.788L29.6279 21.9489L30.7768 23.0937Z" fill="#5E72E4"/>
<path d="M23.3547 22.2666L27.1776 12.7044L28.6863 13.3076L24.8635 22.8698L23.3547 22.2666Z" fill="#5E72E4"/>
<path d="M11.375 25.1875H14.625V26.8125H11.375V25.1875Z" fill="#5E72E4"/>
<path d="M37.375 28.4375H40.625V30.0625H37.375V28.4375Z" fill="#5E72E4"/>
<path d="M16.25 25.1875H40.625V26.8125H16.25V25.1875Z" fill="#5E72E4"/>
<path d="M11.375 28.4375H35.75V30.0625H11.375V28.4375Z" fill="#5E72E4"/>
</svg>
