<svg width="2036" height="1041" viewBox="0 0 2036 1041" fill="none" xmlns="http://www.w3.org/2000/svg">
<path d="M21.45 578.345C166.153 641.586 182.36 444.642 307.961 403.378C410.997 369.528 451.612 427.357 559.744 403.378C643.729 384.754 676.202 322.423 786.176 303.407C885.389 286.252 957.556 375.044 1046.35 338.531C1157.25 292.931 1236.41 219.483 1346.93 207.331C1500.31 190.467 1494.74 278.674 1592.92 268.464C1653.29 262.187 1719.08 150.441 1783.93 97.7136C1908.37 -3.47195 1891.01 110.362 2020.53 9.51468C2025.85 5.36758 2030.74 3.2503 2035.22 3.00293C2035.22 68.1685 2035.22 1040.55 2035.22 1040.55H0.152344L0.152577 571.042C0.152577 571.042 13.6403 574.932 21.45 578.345Z" fill="url(#paint0_linear)"/>
<path d="M2035.22 4.95902C2031.6 5.15908 2027.25 6.90667 2022.11 10.9079C1989.61 36.2093 1966.1 48.2339 1947.07 53.4633C1927.94 58.7181 1913.56 57.0371 1899.83 55.4307L1899.79 55.4269C1886.13 53.8289 1873.13 52.3176 1855.86 57.2694C1838.49 62.2539 1816.55 73.8671 1785.55 99.0764C1761.81 118.38 1737.97 145.615 1714.17 172.8C1705.64 182.544 1697.12 192.281 1688.61 201.645C1672.54 219.318 1656.53 235.638 1640.7 247.945C1624.92 260.209 1609 268.753 1593.08 270.408C1548.43 275.051 1524.48 259.686 1498.83 243.234C1495.57 241.141 1492.28 239.031 1488.92 236.942C1473.98 227.666 1457.51 218.705 1435.34 213.071C1413.17 207.439 1385.15 205.09 1347.1 209.273C1292.44 215.284 1245.42 236.462 1198.02 262.006C1185.44 268.782 1172.83 275.872 1160.05 283.06L1160.05 283.063C1124.77 302.899 1088.16 323.482 1047.33 340.269C1001.73 359.02 960.41 345.463 918.941 330.001C916.394 329.051 913.845 328.094 911.295 327.136C872.012 312.384 832.19 297.429 786.539 305.323C732.119 314.733 696.871 334.84 664.594 355.074C661.519 357.001 658.469 358.932 655.43 360.856L655.412 360.867C626.605 379.101 598.758 396.726 560.247 405.266C507.939 416.866 471.132 409.536 436.093 402.557C434.448 402.229 432.808 401.903 431.169 401.579C394.781 394.382 359.515 388.51 308.747 405.189C277.973 415.299 253.743 435 232.403 458.166C218.656 473.09 206.26 489.265 194.098 505.137C187.324 513.977 180.622 522.722 173.799 531.104C154.876 554.353 135.065 574.733 110.62 585.212C85.8926 595.811 56.8348 596.125 20.0772 580.06C16.3091 578.413 11.0999 576.624 6.76627 575.229C4.61305 574.536 2.70071 573.949 1.32719 573.535C0.64071 573.328 0.151509 573.182 0.151509 573.182L0.148438 568.937L0.879455 569.16L0.997656 569.195C1.1009 569.225 1.25228 569.269 1.44711 569.326C1.83673 569.441 2.40031 569.608 3.10032 569.819C4.4998 570.241 6.44748 570.839 8.64241 571.545C13.0051 572.949 18.4445 574.811 22.4863 576.578C58.0799 592.133 85.3116 591.544 108.246 581.714C131.463 571.762 150.686 552.185 169.601 528.945C176.266 520.757 182.9 512.103 189.646 503.302L189.646 503.302C201.896 487.321 214.516 470.857 228.369 455.818C249.916 432.427 274.812 412.037 306.837 401.516C359.106 384.344 395.665 390.462 432.377 397.722C433.986 398.04 435.595 398.361 437.205 398.681C472.189 405.646 507.885 412.752 558.904 401.438C596.385 393.126 623.444 376.009 652.349 357.723L652.352 357.721C655.376 355.808 658.42 353.883 661.498 351.953C693.947 331.612 729.923 311.045 785.476 301.439C832.853 293.247 874.169 308.78 913.144 323.433C915.794 324.43 918.434 325.422 921.064 326.403C962.682 341.92 1001.84 354.502 1045.04 336.74C1085.53 320.089 1121.71 299.744 1156.91 279.956L1156.91 279.954C1169.75 272.733 1182.47 265.585 1195.21 258.717C1242.74 233.1 1290.56 211.478 1346.42 205.337C1385.06 201.088 1413.86 203.441 1436.86 209.285C1459.85 215.128 1476.88 224.419 1492 233.81C1495.42 235.94 1498.75 238.069 1502.02 240.164L1502.03 240.168C1527.67 256.587 1549.99 270.88 1592.43 266.468C1606.69 264.984 1621.63 257.206 1637.2 245.104C1652.71 233.046 1668.52 216.956 1684.55 199.318C1692.92 190.112 1701.35 180.479 1709.83 170.797L1709.83 170.796C1733.7 143.521 1757.92 115.859 1781.97 96.2983C1813.19 70.9149 1835.75 58.8127 1854.17 53.5312C1872.64 48.2342 1886.69 49.878 1900.39 51.4794L1900.52 51.4951C1914.18 53.092 1927.52 54.6297 1945.43 49.7071C1963.46 44.755 1986.35 33.1912 2018.61 8.069C2024.12 3.77607 2029.89 1.22437 2035.22 0.929688V4.95902Z" fill="url(#paint1_linear)"/>
<defs>
<linearGradient id="paint0_linear" x1="1250.31" y1="1040.55" x2="1234.67" y2="224.41" gradientUnits="userSpaceOnUse">
<stop stop-color="white"/>
<stop offset="1" stop-color="#D8DDF8"/>
</linearGradient>
<linearGradient id="paint1_linear" x1="872.658" y1="197.89" x2="925.291" y2="577.351" gradientUnits="userSpaceOnUse">
<stop stop-color="#BBC5FB"/>
<stop offset="1" stop-color="#E2E6FA"/>
</linearGradient>
</defs>
</svg>
