<svg width="2036" height="1999" viewBox="0 0 2036 1999" fill="none" xmlns="http://www.w3.org/2000/svg">
<path d="M21.4523 727.391C166.155 806.956 182.363 559.176 307.963 507.261C410.999 464.673 451.615 537.43 559.746 507.261C643.731 483.829 676.204 405.41 786.178 381.485C885.391 359.901 957.559 471.613 1046.36 425.675C1157.25 368.305 1236.41 275.897 1346.93 260.609C1500.31 239.392 1494.74 350.367 1592.92 337.522C1653.3 329.624 1719.08 189.034 1783.93 122.696C1908.38 -4.60764 1891.01 138.61 2020.53 11.7312C2025.86 6.5136 2030.74 3.8498 2035.22 3.53857C2035.22 85.5251 2035.22 1998.13 2035.22 1998.13H0.154297L0.154861 718.203C0.154861 718.203 13.6425 723.097 21.4523 727.391Z" fill="url(#paint0_linear)"/>
<path d="M2035.23 5.99928C2031.6 6.25098 2027.25 8.44966 2022.11 13.4838C1989.62 45.316 1966.1 60.4445 1947.07 67.0237C1927.94 73.6349 1913.56 71.52 1899.83 69.4991L1899.79 69.4943C1886.13 67.4837 1873.13 65.5823 1855.87 71.8123C1838.49 78.0835 1816.55 92.6943 1785.55 124.411C1761.81 148.697 1737.97 182.962 1714.17 217.164C1705.64 229.423 1697.12 241.674 1688.61 253.455C1672.54 275.69 1656.53 296.222 1640.7 311.706C1624.92 327.135 1609 337.885 1593.08 339.968C1548.43 345.809 1524.48 326.478 1498.83 305.779C1495.57 303.146 1492.28 300.491 1488.92 297.863C1473.98 286.193 1457.51 274.918 1435.34 267.83C1413.17 260.744 1385.15 257.79 1347.1 263.052C1292.44 270.614 1245.42 297.259 1198.02 329.397C1185.44 337.923 1172.83 346.843 1160.05 355.887L1160.05 355.889C1124.77 380.846 1088.16 406.741 1047.34 427.862C1001.74 451.452 960.411 434.396 918.942 414.943C916.395 413.748 913.846 412.544 911.296 411.339C872.013 392.779 832.19 373.963 786.54 383.895C732.12 395.734 696.872 421.031 664.595 446.488C661.517 448.915 658.464 451.347 655.421 453.77L655.413 453.776C626.606 476.716 598.759 498.892 560.248 509.636C507.939 524.23 471.133 515.007 436.094 506.227C434.449 505.815 432.809 505.404 431.17 504.997C394.782 495.942 359.516 488.555 308.748 509.538C277.974 522.258 253.744 547.045 232.404 576.19C218.657 594.966 206.261 615.318 194.099 635.286C187.325 646.407 180.623 657.41 173.8 667.956C154.876 697.206 135.066 722.847 110.621 736.03C85.8936 749.365 56.8358 749.76 20.0781 729.549C16.3101 727.477 11.1008 725.225 6.76724 723.471C4.61403 722.599 2.70168 721.86 1.32817 721.339C0.641687 721.079 0.152486 720.895 0.152486 720.895L0.149414 715.554L0.880432 715.835L0.998633 715.879C1.10188 715.917 1.25326 715.972 1.44809 716.044C1.8377 716.189 2.40128 716.399 3.1013 716.664C4.50078 717.195 6.44846 717.948 8.64338 718.836C13.0061 720.602 18.4455 722.945 22.4872 725.167C58.0809 744.738 85.3126 743.998 108.247 731.629C131.464 719.109 150.687 694.478 169.602 665.24C176.267 654.938 182.901 644.05 189.647 632.978C201.897 612.872 214.517 592.157 228.37 573.237C249.917 543.808 274.813 518.155 306.838 504.918C359.107 483.313 395.666 491.01 432.378 500.145C433.987 500.545 435.595 500.948 437.206 501.351C472.19 510.114 507.886 519.054 558.905 504.82C596.386 494.363 623.445 472.827 652.35 449.821C655.375 447.414 658.42 444.99 661.499 442.562C693.948 416.97 729.924 391.095 785.477 379.009C832.854 368.702 874.17 388.245 913.145 406.68C915.795 407.934 918.435 409.182 921.065 410.416C962.683 429.939 1001.84 445.768 1045.04 423.421C1085.53 402.472 1121.71 376.877 1156.91 351.98L1156.91 351.98L1156.91 351.979C1169.76 342.892 1182.47 333.899 1195.21 325.259C1242.74 293.029 1290.56 265.826 1346.42 258.1C1385.06 252.754 1413.86 255.715 1436.86 263.068C1459.85 270.419 1476.88 282.107 1492 293.923C1495.42 296.602 1498.75 299.281 1502.02 301.917L1502.03 301.921C1527.67 322.579 1549.99 340.562 1592.43 335.01C1606.69 333.144 1621.63 323.358 1637.2 308.132C1652.71 292.961 1668.52 272.719 1684.55 250.527C1692.92 238.946 1701.35 226.826 1709.83 214.644L1709.83 214.643C1733.7 180.327 1757.92 145.525 1781.97 120.916C1813.19 88.98 1835.76 73.754 1854.17 67.1092C1872.64 60.4449 1886.69 62.513 1900.39 64.5278L1900.52 64.5475C1914.18 66.5566 1927.52 68.4912 1945.43 62.298C1963.46 56.0677 1986.35 41.519 2018.61 9.91202C2024.12 4.51098 2029.89 1.30062 2035.23 0.929871V5.99928Z" fill="url(#paint1_linear)"/>
<defs>
<linearGradient id="paint0_linear" x1="1250.31" y1="1955.94" x2="1209.96" y2="282.692" gradientUnits="userSpaceOnUse">
<stop stop-color="white"/>
<stop offset="1" stop-color="#D8DDF8"/>
</linearGradient>
<linearGradient id="paint1_linear" x1="872.659" y1="248.731" x2="955.065" y2="720.945" gradientUnits="userSpaceOnUse">
<stop stop-color="#BBC5FB"/>
<stop offset="1" stop-color="#E2E6FA"/>
</linearGradient>
</defs>
</svg>
