<svg width="1920" height="1039" viewBox="0 0 1920 1039" fill="none" xmlns="http://www.w3.org/2000/svg">
<path opacity="0.1" d="M1553.8 -470C1339.1 -470 1165 -295.9 1165 -81.2C1165 133.5 1339.1 307.6 1553.8 307.6C1768.5 307.6 1942.6 133.5 1942.6 -81.2C1942.6 -295.9 1768.6 -470 1553.8 -470ZM1553.8 185.1C1406.8 185.1 1287.6 65.9 1287.6 -81.1C1287.6 -228.1 1406.8 -347.3 1553.8 -347.3C1700.8 -347.3 1820 -228.1 1820 -81.1C1820 65.9 1700.9 185.1 1553.8 185.1Z" fill="#5E72E4"/>
<path opacity="0.1" d="M182 331C-13.4761 331 -172 489.524 -172 685C-172 880.476 -13.4761 1039 182 1039C377.476 1039 536 880.476 536 685C536 489.524 377.476 331 182 331ZM182 861.107C84.7427 861.107 5.89288 782.257 5.89288 685C5.89288 587.743 84.7427 508.893 182 508.893C279.257 508.893 358.107 587.743 358.107 685C358.107 782.257 279.257 861.107 182 861.107Z" fill="#5E72E4"/>
</svg>
