<svg width="2982" height="1742" viewBox="0 0 2982 1742" fill="none" xmlns="http://www.w3.org/2000/svg">
<path d="M1487.6 587.122L1453.9 586.352C1464.73 600.382 1467.16 613.312 1460.42 624.252C1453.68 635.412 1437.55 644.582 1413.46 651.542C1431.69 603.032 1440.86 551.872 1440.86 499.392C1440.86 440.612 1429.37 383.592 1406.61 330.002C1384.73 278.182 1353.35 231.552 1313.35 191.662C1273.35 151.662 1226.83 120.282 1175.01 98.2923C1121.31 75.6423 1064.29 64.1523 1005.62 64.1523C946.84 64.1523 889.82 75.6423 836.12 98.2923C829.71 101.052 823.3 103.932 817.12 106.912C817.1 106.922 817.08 106.932 817.06 106.942C798.34 101.232 780.11 96.5523 762.51 92.9823C673.7 74.9623 610.68 87.4123 585.08 128.052C560.72 166.702 573.98 224.882 622.32 292.732C622.31 292.742 622.31 292.752 622.3 292.762C615.78 304.802 609.92 317.182 604.51 330.002C600.42 339.612 596.78 349.232 593.46 359.062C502.63 364.472 454.01 380.462 436.33 409.412C415.78 443.112 443.84 488.342 533.68 532.322C546.06 538.402 559.32 544.362 573.24 550.332C577.88 591.102 588.38 630.772 604.51 668.782C626.39 720.602 657.77 767.232 697.77 807.232C737.77 847.122 784.29 878.502 836.11 900.492C889.81 923.142 946.83 934.632 1005.61 934.632C1064.28 934.632 1121.3 923.142 1175 900.492C1226.82 878.502 1273.34 847.122 1313.34 807.232C1352.24 768.332 1383.06 723.032 1404.83 672.872C1449.14 663.702 1478.31 649.332 1489.91 630.332C1497.99 617.182 1496.99 602.592 1487.6 587.122ZM1383.62 658.392C1354.12 663.692 1317.32 666.792 1274.34 667.232C1207.64 668.042 1131.04 662.782 1050.32 652.142C1057.11 637.352 1063.77 622.162 1070.27 606.622C1095.32 615.002 1119.63 621.642 1142.82 626.342C1169.38 631.732 1193.62 634.392 1215.26 634.392C1265.97 634.392 1302.31 619.752 1320.25 591.262C1323.2 586.572 1325.61 581.592 1327.47 576.342H1301.62C1301.19 577.132 1300.74 577.902 1300.26 578.662C1286.93 599.822 1257.14 610.752 1215.32 610.742C1195.32 610.742 1172.54 608.242 1147.52 603.162C1125.71 598.742 1102.83 592.522 1079.24 584.692C1085.46 569.122 1091.52 553.242 1097.36 537.132C1113.12 493.682 1126.61 450.612 1137.52 409.252C1187.26 416.582 1240.64 420.262 1297.36 420.262C1332.68 420.262 1369.29 418.832 1407.11 415.982C1412.73 443.212 1415.56 471.072 1415.56 499.382C1415.55 554.532 1404.84 608.012 1383.62 658.392ZM845.02 874.172C832.45 869.612 826.06 851.562 822.92 837.232C817.96 814.572 817.06 782.752 820.33 745.212C821.98 726.222 824.64 706.032 828.21 684.912C879.75 698.642 930.78 716.312 980.48 737.602C969.29 756.902 957.97 774.802 946.65 791.022C925.09 821.932 904 845.782 885.67 859.982C874.06 868.972 857.6 878.722 845.02 874.172ZM991.86 717.392C939.84 694.982 886.36 676.452 832.35 662.152C834.25 652.352 836.34 642.372 838.61 632.252C853.63 635.672 868.86 638.972 884.29 642.152C929.42 651.382 974.45 659.222 1018.53 665.562C1009.79 683.622 1000.88 700.932 991.86 717.392ZM894.23 625.802C876.79 622.212 859.6 618.462 842.72 614.572C850.67 581.482 860.44 546.992 871.84 511.842C931.12 548.282 991.4 577.922 1048.48 598.952C1041.32 616.052 1033.96 632.722 1026.45 648.852C983.09 642.632 938.74 634.922 894.23 625.802ZM749.45 179.192C753.23 186.932 758.44 196.522 765.47 207.392C795.44 253.702 835.01 287.272 862.94 307.282C878.98 318.772 896.09 329.422 914.23 339.212C897.68 375.282 881.91 413.782 867.41 453.762C864.71 461.212 862.08 468.652 859.51 476.082C772.91 419.712 699.6 355.032 651.5 292.442C651.49 292.432 651.49 292.422 651.48 292.412C663.52 271.872 677.33 252.432 692.79 234.212C699.2 226.702 705.83 219.402 712.79 212.332C713.78 211.342 714.67 210.452 715.66 209.462C726.42 198.692 737.7 188.612 749.45 179.192ZM1119.74 116.722C1132.31 121.282 1138.7 139.332 1141.84 153.662C1146.8 176.322 1147.7 208.142 1144.43 245.682C1140.86 286.782 1132.63 333.462 1120.38 383.162C1105.59 380.622 1091.14 377.742 1077.07 374.502C1028.46 363.322 984.14 348.032 944.56 328.822C968.18 279.572 993.15 235.652 1018.11 199.862C1039.67 168.952 1060.76 145.102 1079.09 130.892C1088.66 123.482 1101.53 115.542 1112.8 115.542C1115.2 115.562 1117.53 115.922 1119.74 116.722ZM1070.32 396.622C1084.72 399.962 1099.52 402.932 1114.65 405.572C1104.02 445.572 1090.93 487.222 1075.67 529.282C1069.79 545.492 1063.7 561.452 1057.44 577.092C1000.14 556.052 939.32 525.962 879.52 488.792C882.61 479.762 885.8 470.692 889.09 461.612C903.26 422.532 918.64 384.922 934.77 349.702C975.42 369.402 1020.74 385.112 1070.32 396.622ZM1295.45 209.442C1333.13 247.122 1362.74 290.992 1383.41 339.832C1390.78 357.282 1396.89 375.112 1401.74 393.262C1307.24 400.172 1220.64 398.002 1143.23 386.802C1155.51 336.612 1163.78 289.392 1167.41 247.692C1171.42 201.642 1170.93 147.092 1152.26 116.392C1156.59 118.052 1160.9 119.792 1165.18 121.602C1214.01 142.262 1257.88 171.762 1295.45 209.442ZM1005.61 89.3323C1034.01 89.3323 1061.95 92.1923 1089.25 97.8623C1057.04 111.882 1024.16 150.902 999.2 186.682C973.65 223.302 948.14 268.122 924.05 318.292C907.8 309.462 892.42 299.922 877.98 289.672C809.46 241.052 779.26 188.642 768.28 164.962C785.09 153.012 802.76 142.332 821.24 133.012C821.25 133.012 821.25 133.012 821.26 133.022C828.79 129.222 836.46 125.672 844.25 122.332C844.82 122.092 845.38 121.842 845.95 121.602C846.08 121.542 846.22 121.492 846.35 121.432C848.01 120.732 849.68 120.052 851.35 119.372C851.8 119.192 852.25 119.012 852.7 118.832C901.19 99.2823 952.68 89.3323 1005.61 89.3323ZM605.07 140.642C618.4 119.482 648.19 108.562 690.01 108.562C710.01 108.562 732.79 111.062 757.81 116.142C767.31 118.062 777.02 120.332 786.89 122.932C786.9 122.932 786.91 122.932 786.92 122.942C754.44 141.722 724.62 164.702 697.78 191.652C692.15 197.172 686.73 202.922 681.43 208.892C674.8 216.182 668.5 223.812 662.42 231.542C652.7 243.922 643.75 256.842 635.46 270.102C635.45 270.112 635.45 270.122 635.44 270.132C598.47 215.272 587.36 168.742 605.07 140.642ZM627.71 339.832C631.36 331.432 635.11 323.142 639.2 315.082C639.2 315.072 639.21 315.072 639.21 315.062C689.85 378.362 764.5 443.072 851.71 499.192C839.34 536.832 828.79 573.822 820.28 609.272C756.83 593.922 698.03 576.552 646.49 557.952C635.66 554.082 625.16 550.102 615.11 546.132C609.14 543.812 603.29 541.382 597.54 538.952C596.66 530.112 595.99 521.162 595.77 512.212C595.66 507.902 595.55 503.702 595.55 499.392C595.55 494.422 595.66 489.332 595.77 484.362C597.21 447.122 603.5 410.772 614.55 375.632C616.43 369.662 618.42 363.812 620.63 357.952C622.85 351.872 625.17 345.802 627.71 339.832ZM553.79 519.282C475.45 481.052 439.65 444.142 455.67 417.952C468.6 396.732 515.67 382.372 587.71 377.072C578.87 406.902 573.46 437.732 571.36 469.002C570.7 478.282 570.37 487.562 570.26 496.962V499.392C570.26 508.782 570.59 518.172 571.14 527.462C565.17 524.802 559.42 522.042 553.79 519.282ZM613.24 566.242C623.85 570.222 634.68 574.202 645.84 578.062C697.14 595.842 754.65 612.362 816.17 627.022C813.94 636.992 811.88 646.812 809.98 656.482C804.95 655.262 799.92 654.072 794.89 652.922C709.85 633.562 646.03 629.632 616.44 628.962C609.11 606.892 603.72 584.312 600.31 561.272C604.62 562.922 608.93 564.582 613.24 566.242ZM627.71 658.952C626.79 656.762 625.89 654.562 625 652.352C656.55 653.622 715.04 658.402 789.76 675.402C795.11 676.622 800.45 677.892 805.79 679.192C801.94 701.622 799.11 723.052 797.36 743.202C794.04 781.362 793.81 825.352 804.44 856.772C772.05 838.532 742.33 815.992 715.67 789.322C677.99 751.652 648.37 707.792 627.71 658.952ZM1165.17 877.182C1114.56 898.622 1060.97 909.442 1005.61 909.442C962.96 909.442 921.3 903.012 881.28 890.262C911.61 874.362 942.08 837.852 965.55 804.212C977.65 786.862 989.75 767.662 1001.69 746.932C1070.54 778.112 1136.73 816.422 1198.92 861.042C1187.96 866.902 1176.71 872.302 1165.17 877.182ZM1295.45 789.332C1272.78 812.072 1247.8 831.802 1220.84 848.442C1155.52 800.702 1085.74 759.822 1013.03 726.742C1023.03 708.422 1032.88 689.072 1042.5 668.872C1109.06 677.692 1173.06 682.982 1231.48 684.352C1246.73 684.792 1261.54 684.792 1275.9 684.682C1313.14 684.242 1346.29 682.032 1374.68 678.052C1354.78 719.282 1328.15 756.622 1295.45 789.332Z" fill="#588FE0"/>
<path d="M2366.69 1565.47C2357.4 1529.46 2294.64 1557.35 2242.95 1587.57C2240.54 1583.76 2238.04 1579.99 2235.47 1576.25C2272.47 1553.29 2324.44 1515.12 2304.66 1491.88C2285.12 1468.93 2246.93 1520.9 2223.05 1559.22C2159.06 1476.17 2064.17 1417.07 2064.17 1417.07C2064.17 1417.07 2460.15 1088.05 2164.25 914.482C1868.35 740.902 1643.55 1351.65 1643.55 1351.65C1643.55 1351.65 1441.35 1164.41 1248.29 1233.56C1050.03 1304.57 1173.93 1436.18 1001.75 1471.77C981.48 1394.15 944 1284.69 892.76 1278.27C825.09 1269.79 853.56 1354.49 956.39 1478.22C936.46 1480.01 913.75 1480.92 887.81 1480.85C611.65 1480.03 682.52 1678.86 682.52 1678.86L2279.18 1682.54C2277.02 1662.97 2271.32 1643.73 2263.13 1625.11C2317.82 1616.53 2375.44 1599.38 2366.69 1565.47Z" fill="#ACD29A"/>
<path d="M1540.6 801.402L1470.97 1629.3C1470.97 1629.3 1463.68 1679.49 1501 1679.57C1562.38 1679.72 1806.5 1679.57 1806.5 1679.57C1806.5 1679.57 1760.31 1669.12 1760.87 1645.62C1761.53 1617.91 1842.25 793.562 1842.25 793.562L1540.6 801.402Z" fill="#D86713"/>
<path d="M1826.31 1664.55C1814.24 1664.59 1581.07 1665.32 1521.3 1664.55C1495.25 1664.23 1490.68 1641.39 1490.47 1626.61C1490.36 1619.52 1491.26 1614.29 1491.26 1614.29L1493.07 1592.77L1497.69 1537.92L1501.77 1489.47L1507.01 1427.2L1511.42 1374.65L1560.89 786.373L1862.54 778.543C1862.54 778.543 1828.54 1123.53 1804.49 1374.65C1801.8 1402.63 1799.25 1429.46 1796.89 1454.5C1796.12 1462.5 1795.39 1470.31 1794.67 1477.92C1792.44 1501.68 1790.4 1523.5 1788.63 1542.76C1787.7 1552.91 1786.83 1562.35 1786.05 1570.99C1782.98 1604.86 1781.18 1626.48 1781.16 1630.59C1781.15 1632.99 1781.35 1635.22 1781.75 1637.29C1786.7 1663.69 1821.78 1664.55 1826.31 1664.55Z" fill="#EE9849"/>
<path d="M808.031 350.883L977.63 1032.14L1000.85 1125.45L1079.84 1442.76H2547.4L2256.25 350.883H808.031Z" fill="#F1A34F"/>
<path d="M808.021 350.883L784.521 358.723L1048.59 1466.46L1079.85 1442.76L808.021 350.883Z" fill="#EE9849"/>
<path d="M1048.59 1466.46H2507.12L2547.4 1442.76H1079.85L1048.59 1466.46Z" fill="#D86713"/>
<path d="M1876.58 1664.88H1560.79V1679.89H1876.58V1664.88Z" fill="#F1A34F"/>
<path d="M1796.3 1466.45L1794.67 1477.92L1497.68 1537.92L1501.76 1489.47L1503.7 1466.45H1796.3Z" fill="#D86713"/>
<path opacity="0.4" d="M1826.31 1664.55C1814.24 1664.59 1581.07 1665.32 1521.3 1664.55C1495.25 1664.23 1490.68 1641.39 1490.47 1626.61L1786.05 1571C1782.98 1604.87 1781.18 1626.49 1781.16 1630.6C1781.15 1633 1781.35 1635.23 1781.75 1637.3C1786.7 1663.69 1821.78 1664.55 1826.31 1664.55Z" fill="#D86713"/>
<path opacity="0.4" d="M1724.52 1221.72L1079.85 1442.76L1000.85 1125.45L1724.52 1221.72Z" fill="#D86713"/>
<path d="M808.021 350.883H2256.25L2491.22 1228.41H1026.48L808.021 350.883Z" fill="#699DEE"/>
<path d="M1852.53 1339.34C1848.35 1317.82 1827.51 1300.37 1805.99 1300.37C1784.47 1300.37 1770.41 1317.82 1774.6 1339.34C1778.78 1360.86 1799.62 1378.31 1821.14 1378.31C1842.66 1378.3 1856.71 1360.86 1852.53 1339.34Z" fill="#D86713"/>
<path d="M2422.92 1190.38H1066.94L913.38 578.643L901.61 531.733L891.56 491.713L868.01 397.893H2204.45L2230.31 491.713L2241.34 531.733L2254.27 578.643L2422.92 1190.38Z" fill="#E9F3FE"/>
<path d="M2230.31 491.713H891.56L868.01 397.893H2204.45L2230.31 491.713Z" fill="#AFCDFB"/>
<path d="M932.11 428.562C925.63 428.562 921.69 433.812 923.31 440.292C924.93 446.772 931.49 452.022 937.96 452.022C944.43 452.022 948.38 446.772 946.76 440.292C945.14 433.812 938.58 428.562 932.11 428.562Z" fill="#E9F3FE"/>
<path d="M971.08 428.562C964.6 428.562 960.66 433.812 962.28 440.292C963.9 446.772 970.45 452.022 976.93 452.022C983.41 452.022 987.35 446.772 985.73 440.292C984.11 433.812 977.55 428.562 971.08 428.562Z" fill="#E9F3FE"/>
<path d="M1027.69 440.292C1026.07 433.812 1019.51 428.562 1013.04 428.562C1006.57 428.562 1002.62 433.812 1004.24 440.292C1005.86 446.772 1012.42 452.022 1018.89 452.022C1025.36 452.022 1029.31 446.772 1027.69 440.292Z" fill="#E9F3FE"/>
<path d="M353.771 581.782C353.771 581.782 357.921 568.722 351.411 556.972C344.901 545.222 355.421 537.072 352.761 533.522C350.111 529.972 332.781 530.332 326.871 547.392C320.961 564.452 330.951 583.702 330.951 583.702L353.771 581.782Z" fill="#FCA56B"/>
<path d="M281.091 675.662C293.381 679.322 306.041 671.162 307.761 658.722L325.011 583.692C325.011 583.692 328.611 577.882 341.041 578.392C354.581 578.942 358.241 585.652 358.241 585.652C358.241 585.652 366.611 717.732 327.511 736.372C288.401 755.012 244.131 664.632 281.091 675.662Z" fill="#E58638"/>
<path d="M362.151 1678.74H252.021C244.191 1671.65 241.611 1629.95 241.611 1629.95C241.611 1629.95 275.761 1599.18 286.911 1623.53C297.521 1646.67 326.831 1658.97 344.331 1662.02C359.411 1664.65 361.791 1675.71 362.151 1678.74Z" fill="#163560"/>
<path d="M228.75 1678.74H118.62C110.79 1671.65 108.19 1629.95 108.19 1629.95C108.19 1629.95 142.34 1599.18 153.49 1623.53C164.1 1646.67 193.41 1658.97 210.91 1662.02C226 1664.65 228.39 1675.71 228.75 1678.74Z" fill="#163560"/>
<path d="M307.941 1102.2C307.941 1102.2 292.271 1202.39 233.831 1380.25C175.391 1558.11 167.431 1635.13 167.431 1635.13L104.741 1633.37C104.741 1633.37 104.201 1438.99 131.141 1349.55C158.071 1260.11 136.951 1027.11 136.951 1027.11L307.941 1102.2Z" fill="#163560"/>
<path d="M338.451 1032.61C338.451 1032.61 340.671 1183.59 314.541 1368.98C288.421 1554.36 297.271 1633.06 297.271 1633.06L234.701 1635.14C234.701 1635.14 197.311 1449.69 208.031 1356.9C218.751 1264.11 156.831 1038.5 156.831 1038.5L338.451 1032.61Z" fill="#1C468A"/>
<path d="M217.331 679.281L246.841 701.141L289.491 692.161C288.901 688.271 286.081 672.151 283.521 657.551C283.371 656.691 283.211 655.831 283.071 654.991C280.871 642.571 278.981 631.901 278.981 631.901L239.151 612.051L224.301 604.651C224.341 604.911 225.451 618.441 225.611 620.411C228.381 655.461 217.331 679.281 217.331 679.281Z" fill="#FFB27D"/>
<path d="M286.501 668.252C285.561 667.862 228.481 651.012 222.281 653.062C216.081 655.112 212.411 667.112 212.411 667.112L305.771 688.222C305.781 688.222 298.431 673.272 286.501 668.252Z" fill="#EE9849"/>
<path d="M132.801 1051.25C142.481 1095.39 303.501 1100.62 345.011 1060.56C349.731 1055.99 349.961 1034.75 348.181 1006.1C344.701 950.131 333.511 865.941 333.081 822.921C332.871 802.151 330.011 780.901 326.211 761.611C318.121 720.491 305.791 688.221 305.791 688.221C305.791 688.221 227.141 662.791 212.421 667.121C141.511 687.941 123.121 1007.11 132.801 1051.25Z" fill="#EE9849"/>
<path d="M348.181 1006.09C344.701 950.122 333.511 865.932 333.081 822.912C332.871 802.142 330.011 780.892 326.211 761.602L278.901 753.252C278.891 753.252 232.641 942.192 348.181 1006.09Z" fill="#E58638"/>
<path d="M228.58 621.022C237.33 637.762 269.92 652.232 283.52 657.552C283.37 656.692 283.21 655.832 283.07 654.992C280.87 642.572 278.98 631.902 278.98 631.902L239.15 612.052C230.33 611.902 224.97 614.132 228.58 621.022Z" fill="#FCA56B"/>
<path d="M298.331 629.561C298.331 629.561 226.471 651.981 213.201 607.011C199.931 562.041 181.721 534.651 227.041 518.441C272.361 502.231 286.381 516.741 294.461 530.671C302.531 544.601 316.681 622.571 298.331 629.561Z" fill="#FFB27D"/>
<path d="M288.041 530.992C288.041 530.992 283.461 583.322 272.641 581.052C261.821 578.782 252.001 577.092 253.591 592.872C255.171 608.642 270.181 626.862 236.831 629.652C203.481 632.442 155.541 546.432 164.701 530.152C191.131 483.152 326.251 473.672 288.041 530.992Z" fill="#163560"/>
<path d="M389.111 519.752L319.481 538.352L321.641 567.052L392.631 566.552C398.251 566.132 402.021 555.312 401.051 542.382C400.081 529.472 394.731 519.332 389.111 519.752Z" fill="#ADCBF9"/>
<path d="M326.801 552.241C326.201 544.311 322.931 538.101 319.481 538.361C316.031 538.621 313.721 545.251 314.321 553.181C314.921 561.111 318.191 567.321 321.641 567.061C325.091 566.801 327.401 560.161 326.801 552.241Z" fill="#699DEE"/>
<path d="M352.621 551.302L331.091 551.702C330.411 556.232 331.581 558.172 331.581 558.172L353.051 559.612L352.621 551.302Z" fill="#699DEE"/>
<path d="M429.661 518.742L349.721 540.092L352.201 573.042L433.701 572.472C440.151 571.982 444.481 559.562 443.361 544.722C442.251 529.892 436.111 518.262 429.661 518.742Z" fill="#ADCBF9"/>
<path d="M358.131 556.042C357.451 546.942 353.681 539.802 349.731 540.102C345.771 540.402 343.121 548.022 343.801 557.122C344.481 566.222 348.251 573.362 352.201 573.062C356.161 572.752 358.811 565.142 358.131 556.042Z" fill="#699DEE"/>
<path d="M370.541 581.661C370.541 581.661 363.001 570.221 366.071 557.141C369.141 544.061 356.801 539.081 358.391 534.941C359.981 530.801 376.751 526.451 387.071 541.251C397.391 556.061 393.011 577.301 393.011 577.301L370.541 581.661Z" fill="#FFB27D"/>
<path d="M272.231 691.342C272.231 691.342 313.971 683.732 352.541 684.302C365.361 684.492 375.331 673.192 373.601 660.752L366.861 585.302C366.861 585.302 371.691 577.292 383.791 574.402C396.971 571.252 401.201 578.362 401.201 578.362C401.201 578.362 446.271 701.552 413.701 730.112C381.141 758.672 257.821 776.592 257.821 776.592L272.231 691.342Z" fill="#EE9849"/>
<path d="M2925.32 179.492C2921.02 278.692 2897.95 400.132 2824.58 497.832C2821.88 501.422 2819.17 504.972 2816.45 508.492C2808.22 519.122 2799.84 529.462 2791.34 539.492C2781.86 550.662 2765.28 552.462 2753.56 543.662L2427.89 299.082C2424.17 296.282 2421.41 292.652 2419.73 288.622C2418.59 285.912 2417.93 283.022 2417.77 280.092C2417.5 274.872 2418.84 269.542 2421.91 264.882C2429.55 253.282 2437.55 241.732 2445.92 230.252C2448.54 226.652 2451.2 223.062 2453.89 219.472C2527.26 121.772 2637.45 65.7617 2731.52 33.9717C2781.2 17.1917 2826.38 7.1517 2859.27 1.3117C2864.73 0.341704 2870.05 0.141704 2875.13 0.641704C2882.82 1.3917 2889.96 3.7517 2896.22 7.4517C2909.74 15.4417 2919.14 29.7117 2921.07 47.7217C2924.64 80.9217 2927.6 127.102 2925.32 179.492Z" fill="#EE9849"/>
<path d="M2445.71 230.543C2436.2 243.593 2427.17 256.733 2418.6 269.903C2413.02 278.483 2415.08 289.923 2423.27 296.073L2757.19 546.843C2766.75 554.023 2780.23 552.523 2788.01 543.443C2797.58 532.273 2807 520.713 2816.23 508.793L2445.71 230.543Z" fill="#588FE0"/>
<path d="M2735.13 329.482C2713.89 329.482 2693.31 322.652 2676.02 309.672C2654.92 293.832 2641.26 270.722 2637.54 244.602C2633.83 218.482 2640.5 192.482 2656.35 171.382C2672.19 150.282 2695.3 136.622 2721.42 132.902C2747.54 129.192 2773.54 135.862 2794.64 151.712C2815.74 167.552 2829.4 190.662 2833.11 216.782C2836.82 242.902 2830.15 268.902 2814.3 290.002C2798.46 311.102 2775.35 324.762 2749.23 328.472C2744.53 329.142 2739.81 329.482 2735.13 329.482ZM2735.5 154.852C2731.91 154.852 2728.29 155.102 2724.67 155.622C2704.62 158.472 2686.88 168.962 2674.72 185.152C2662.56 201.342 2657.43 221.302 2660.28 241.352C2663.13 261.402 2673.62 279.142 2689.81 291.302C2706 303.462 2725.96 308.592 2746.02 305.742C2766.07 302.892 2783.81 292.402 2795.97 276.212C2808.13 260.022 2813.26 240.062 2810.41 220.012C2807.56 199.962 2797.07 182.222 2780.88 170.062C2767.6 160.092 2751.8 154.852 2735.5 154.852Z" fill="#B74B42"/>
<path d="M2903.7 30.3228C2902.79 21.7628 2900.18 14.0428 2896.24 7.44281C2889.98 3.74281 2882.84 1.38281 2875.15 0.632812C2875.2 1.06281 2875.26 1.50281 2875.3 1.93281C2878.86 35.1428 2881.82 81.3328 2879.55 133.713C2875.25 232.923 2852.17 354.353 2778.8 452.053C2776.11 455.643 2773.4 459.193 2770.67 462.713C2768.86 465.053 2767.03 467.383 2765.2 469.693L2797.06 493.673C2797.73 492.813 2798.4 491.973 2799.06 491.113C2801.79 487.593 2804.49 484.033 2807.19 480.453C2880.56 382.753 2903.64 261.323 2907.94 162.113C2910.22 109.723 2907.25 63.5328 2903.7 30.3228Z" fill="#FFC08D"/>
<path d="M2921.08 47.7125C2917.67 15.8425 2890.84 -4.30752 2859.28 1.30248C2826.39 7.14248 2781.21 17.1725 2731.53 33.9625L2925.32 179.502C2927.6 127.112 2924.64 80.9225 2921.08 47.7125Z" fill="#588FE0"/>
<path d="M2472.82 364.292C2441.07 343.202 2391.08 362.602 2361.18 407.622C2331.28 452.642 2364.53 527.332 2364.53 527.332C2364.53 527.332 2446.27 529.022 2476.17 484.002C2506.07 438.982 2504.57 385.382 2472.82 364.292Z" fill="#B74B42"/>
<path d="M2651.33 495.411C2619.58 474.321 2569.59 493.721 2539.69 538.741C2509.79 583.761 2543.04 658.451 2543.04 658.451C2543.04 658.451 2624.78 660.141 2654.68 615.121C2684.58 570.101 2683.08 516.501 2651.33 495.411Z" fill="#B74B42"/>
<path d="M2439.07 414.773C2417.15 400.213 2382.65 413.603 2362.02 444.683C2341.38 475.753 2364.33 527.303 2364.33 527.303C2364.33 527.303 2420.75 528.473 2441.39 497.393C2462.02 466.323 2460.98 429.333 2439.07 414.773Z" fill="#EE9849"/>
<path d="M2617.95 545.743C2596.03 531.183 2561.53 544.573 2540.89 575.653C2520.25 606.723 2543.2 658.273 2543.2 658.273C2543.2 658.273 2599.62 659.443 2620.25 628.363C2640.9 597.293 2639.87 560.303 2617.95 545.743Z" fill="#EE9849"/>
<path d="M2691.04 279.832L2793.44 261.732C2782.07 282.332 2760.13 296.292 2734.94 296.292C2718.13 296.292 2702.78 290.072 2691.04 279.832Z" fill="#FFE6D2"/>
<path d="M2801.69 227.273L2671.99 251.843C2669.51 244.853 2668.16 237.343 2668.16 229.503C2668.16 192.623 2698.06 162.723 2734.94 162.723C2771.08 162.723 2800.51 191.423 2801.69 227.273Z" fill="#FFE6D2"/>
<path d="M735.86 1161.26C735.86 1161.26 757.58 1166.84 771.38 1162.68C785.18 1158.52 808.94 1165.35 812.77 1170.39C816.6 1175.42 815.19 1177.42 808.36 1179.16C801.53 1180.9 777.34 1191.21 761.45 1185.24C745.55 1179.27 724.82 1179.05 724.82 1179.05L735.86 1161.26Z" fill="#FFB27D"/>
<path d="M548.18 972.633C548.18 972.633 572.57 1146.01 612.97 1161.54C632.9 1169.2 720.99 1186.57 747.05 1188.32C747.05 1188.32 753.43 1183.14 751.88 1162.06C751.88 1162.06 659.59 1128.18 646.48 1109.75C626.97 1082.33 658.59 997.723 634.11 971.963C609.61 946.213 568.37 935.143 548.18 972.633Z" fill="#4A75CB"/>
<path d="M585.031 1639.95V1602.15H644.551C646.161 1602.15 647.471 1600.84 647.471 1599.23V1593.17C647.471 1591.56 646.161 1590.25 644.551 1590.25H585.031V1375.06C585.031 1369.02 580.091 1364.08 574.051 1364.08H562.271C556.231 1364.08 551.291 1369.02 551.291 1375.06V1590.25H491.771C490.161 1590.25 488.851 1591.56 488.851 1593.17V1599.23C488.851 1600.84 490.161 1602.15 491.771 1602.15H551.291V1639.95C508.231 1643.21 473.731 1658.71 464.051 1678.74H672.271C662.591 1658.71 628.091 1643.21 585.031 1639.95Z" fill="#2B478B"/>
<path d="M556.401 1337.91C563.521 1349.98 571.751 1361.29 580.231 1372.01C606.451 1405.11 634.991 1432.4 639.961 1458.2C640.951 1463.34 642.521 1468.88 644.571 1474.71C646.651 1480.62 649.211 1486.83 652.181 1493.26C663.311 1517.43 679.941 1544.51 696.561 1569.12C725.281 1611.67 752.281 1647.18 752.281 1647.18L801.801 1645.07C799.821 1640.11 778.221 1581.35 749.321 1509.55C737.591 1480.4 725.111 1449.4 713.071 1419.5C711.471 1415.51 709.861 1411.53 708.281 1407.59C704.601 1398.44 700.981 1389.43 697.441 1380.66C670.311 1313.24 648.701 1259.55 648.701 1259.55C648.701 1259.55 540.261 1218.47 529.001 1245.09C519.711 1267.03 527.271 1288.53 556.401 1337.91Z" fill="#163560"/>
<path d="M753.821 1637.21C753.821 1637.21 756.351 1678.08 764.261 1678.66C765.311 1678.74 804.361 1678.74 804.361 1678.74H854.211C854.211 1678.74 853.881 1666.44 839.311 1663.9C824.741 1661.36 800.351 1651.12 791.521 1631.86C782.241 1611.6 753.821 1637.21 753.821 1637.21Z" fill="#163560"/>
<path d="M639.15 1521.42C639.15 1521.42 604.7 1543.55 608.05 1550.74C608.49 1551.7 627.53 1585.79 627.53 1585.79L652.08 1629.17C652.08 1629.17 662.41 1623.03 657.52 1609.07C652.63 1595.11 649.69 1568.82 662.2 1551.73C675.36 1533.76 639.15 1521.42 639.15 1521.42Z" fill="#163560"/>
<path d="M685.6 1239.95C685.6 1239.95 821.87 1324.83 837.06 1381.81C852.25 1438.79 656 1560.34 656 1560.34C656 1560.34 634.48 1541.35 630.68 1527.42C630.68 1527.42 719.39 1421.14 738.63 1397.32C750.45 1382.69 563.89 1346.67 541.1 1311.22C518.31 1275.77 526.47 1245.94 526.47 1245.94L685.6 1239.95Z" fill="#1C468A"/>
<path d="M707.44 1348.91H428.87C423.3 1348.91 418.74 1353.47 418.74 1359.04V1414.75C418.74 1420.32 423.3 1424.88 428.87 1424.88H707.44C713.01 1424.88 717.57 1420.32 717.57 1414.75V1359.04C717.57 1353.47 713.02 1348.91 707.44 1348.91Z" fill="#EE9849"/>
<path d="M643.55 961.693C610.95 970.133 556.88 939.913 556.88 939.913C556.88 939.913 577.87 925.813 585.65 894.823C586.04 893.263 586.4 891.653 586.71 890.023C590.13 889.293 596.57 887.933 603.46 886.473L628.37 908.783C628.37 908.783 627.81 918.053 624.68 933.973C624.14 936.753 623.52 939.733 622.81 942.913C636.18 951.183 643.55 961.693 643.55 961.693Z" fill="#FFB27D"/>
<path d="M689.86 1235.51C689.8 1235.84 689.69 1236.18 689.57 1236.53C686.42 1245.34 657.16 1257.22 630.3 1265.53C620.67 1268.52 611.34 1271.03 603.65 1272.8C582.85 1277.56 530.75 1286.05 526.18 1271.77C520.89 1255.23 527.03 1159.68 522.35 1096.86C516.83 1020.07 538.1 950.173 567.67 927.353C569.9 925.713 574.32 930.073 587.13 936.153C598.96 941.753 612.03 943.363 623.09 940.933L633.01 949.433C646.71 961.763 661.77 978.583 668.6 1004.37C672.78 1020.19 675.93 1045.21 678.27 1073.35C679.17 1084.25 679.96 1095.64 680.63 1107.12C681.69 1125.41 682.62 1143.86 683.06 1161.41C683.07 1161.75 683.08 1162.08 683.08 1162.42L683.09 1163.06C683.28 1164.82 683.31 1166.76 683.33 1168.53C683.8 1184.26 683.71 1198.89 684.24 1211.32C684.25 1211.67 684.27 1212.01 684.29 1212.34C684.96 1222.75 688.77 1227.45 689.79 1231.8C690.08 1233.03 690.15 1234.23 689.86 1235.51Z" fill="#739AF0"/>
<path d="M689.861 1235.51C689.801 1235.84 689.691 1236.18 689.571 1236.53C686.421 1245.34 657.161 1257.22 630.301 1265.53C575.751 1197.19 581.591 1115.41 581.591 1115.41L683.051 1161.43C683.061 1161.77 683.071 1162.1 683.071 1162.44L683.081 1163.08C683.271 1164.84 683.301 1166.78 683.321 1168.55C683.791 1184.28 683.701 1198.91 684.231 1211.34C684.241 1211.69 684.261 1212.03 684.281 1212.36C684.951 1222.77 688.761 1227.47 689.781 1231.82C690.081 1233.03 690.151 1234.23 689.861 1235.51Z" fill="#4A75CB"/>
<path d="M628.37 908.782C628.37 908.782 627.81 918.052 624.68 933.972C600.36 926.122 589.33 904.152 585.65 894.832C586.04 893.272 586.4 891.662 586.71 890.032C590.13 889.302 596.57 887.942 603.46 886.482L628.37 908.782Z" fill="#E2915A"/>
<path d="M638.221 908.542C638.221 908.542 584.781 914.572 581.541 881.232C578.301 847.902 569.221 826.222 603.201 820.972C637.181 815.712 645.061 827.792 648.841 838.652C652.631 849.512 652.031 906.112 638.221 908.542Z" fill="#FFB27D"/>
<path d="M581.771 883.532C581.771 883.532 585.161 839.283 633.801 834.703C667.121 831.563 648.541 802.892 644.991 798.312C644.991 798.312 619.461 801.813 593.301 806.133C538.381 815.213 576.381 876.642 581.771 883.532Z" fill="#2B478B"/>
<path d="M880.221 1082.24L842.581 1198.1L710.161 1195.27L709.99 1203.35L845.101 1206.24L884.901 1083.76L880.221 1082.24Z" fill="#4A75CB"/>
<path d="M724.68 1187.92C724.68 1187.92 745.651 1195.86 759.831 1193.25C774.011 1190.64 796.87 1200.05 800.12 1205.47C803.37 1210.89 801.751 1212.73 794.771 1213.7C787.791 1214.67 762.611 1222.26 747.471 1214.58C732.331 1206.89 711.74 1204.39 711.74 1204.39L724.68 1187.92Z" fill="#FFB27D"/>
<path d="M558.94 979.743C558.94 979.743 564.07 1154.76 602.51 1174.64C621.47 1184.45 707.11 1211.43 732.82 1216.04C732.82 1216.04 739.74 1211.6 740.51 1190.48C740.51 1190.48 652.52 1146.63 641.52 1126.87C625.15 1097.46 665.91 1016.86 644.42 988.563C622.92 960.263 583.15 944.713 558.94 979.743Z" fill="#739AF0"/>
<path d="M2948.76 1114.51L2955.2 1124.94C2958.54 1128.78 2959.44 1130.93 2962.09 1132.23C2968.48 1135.38 2980.29 1143.45 2981.18 1160.41C2981.18 1160.41 2980.98 1170.01 2974.54 1166.9C2968.1 1163.79 2970.91 1164.08 2961.77 1159.89C2952.62 1155.7 2949.23 1142.37 2948.43 1137.82L2940.97 1128.02L2948.76 1114.51Z" fill="#FFB27D"/>
<path d="M2759.54 1670.68C2759.19 1674.44 2757.1 1676.86 2753.8 1678.31C2753.79 1678.32 2753.77 1678.33 2753.75 1678.33C2747.64 1681.01 2737.39 1680.4 2726.31 1678.91C2724.89 1678.72 2723.62 1678.57 2722.47 1678.46C2722.17 1678.43 2721.87 1678.41 2721.58 1678.39C2721.35 1678.37 2721.11 1678.36 2720.89 1678.34C2709.86 1677.61 2710.72 1681.01 2689.64 1680.91C2665.61 1680.78 2657.49 1672.69 2656.39 1669.24C2655.46 1666.31 2665.98 1664.04 2677.75 1661.43C2678.32 1661.31 2678.89 1661.17 2679.47 1661.05C2681.03 1660.7 2682.61 1660.34 2684.18 1659.98C2698.2 1656.69 2712.09 1652.54 2716.68 1639.07C2721.55 1624.78 2720.4 1582.39 2720.4 1582.39H2762.95C2762.95 1582.39 2751.78 1629.23 2752.95 1642.73C2753.59 1649.94 2757.03 1651.99 2758.36 1658.23C2758.46 1658.67 2758.54 1659.11 2758.62 1659.54C2759.26 1663.18 2759.89 1666.92 2759.54 1670.68Z" fill="#FFB27D"/>
<path d="M2809.06 1212.45C2805.47 1232.61 2800.35 1253.44 2795.89 1275.11C2788.74 1309.95 2783.35 1346.96 2788.87 1386.82C2789.58 1391.95 2789.96 1397.61 2790.05 1403.7C2791.12 1474.14 2759.65 1601.79 2759.65 1601.79C2759.65 1601.79 2751.1 1605.48 2736.77 1604.77C2729.39 1604.4 2718.08 1599.65 2718.08 1599.65C2718.08 1599.65 2715.1 1520.5 2714.92 1414.07C2714.79 1336.92 2699.64 1235.33 2696.58 1175.64C2694.73 1139.51 2698.75 1091.39 2698.75 1091.39C2698.75 1091.39 2761.49 1040.94 2784.02 1066.75C2806.28 1092.24 2822.49 1137.03 2809.06 1212.45Z" fill="#80BDCC"/>
<path d="M2788.87 1386.82C2789.58 1391.95 2789.96 1397.61 2790.05 1403.7C2743.06 1335.63 2732.67 1187.18 2732.67 1187.18L2784.28 1212.23C2784.28 1212.23 2789.94 1240.07 2795.9 1275.12C2788.74 1309.95 2783.35 1346.96 2788.87 1386.82Z" fill="#5F9AA8"/>
<path d="M2895.28 1670.68C2894.93 1674.44 2892.85 1676.86 2889.54 1678.31C2889.53 1678.32 2889.51 1678.33 2889.49 1678.33C2883.38 1681.01 2873.13 1680.4 2862.05 1678.91C2860.63 1678.72 2859.35 1678.57 2858.21 1678.46C2857.91 1678.43 2857.61 1678.41 2857.32 1678.39C2857.09 1678.37 2856.85 1678.36 2856.63 1678.34C2845.6 1677.61 2846.46 1681.01 2825.38 1680.91C2801.35 1680.78 2793.23 1672.69 2792.13 1669.24C2791.2 1666.31 2801.72 1664.04 2813.49 1661.43C2814.06 1661.31 2814.63 1661.17 2815.2 1661.05C2816.77 1660.7 2818.34 1660.34 2819.91 1659.98C2833.93 1656.69 2847.82 1652.54 2852.41 1639.07C2857.28 1624.78 2850.32 1583.04 2850.32 1583.04L2889.74 1579.75C2889.74 1579.75 2887.29 1627.31 2888.46 1640.81C2889.09 1648.02 2892.75 1651.98 2894.08 1658.23C2894.18 1658.67 2894.26 1659.11 2894.34 1659.54C2895 1663.18 2895.63 1666.92 2895.28 1670.68Z" fill="#FFB27D"/>
<path d="M2889.73 1605.39C2889.73 1605.39 2879.6 1610.19 2872.3 1611.64C2865.01 1613.1 2849.85 1610.25 2849.85 1610.25C2847.12 1579.6 2840.76 1531.67 2828.42 1477.58C2814.36 1416 2793.45 1343.24 2764.29 1274.34C2758.06 1259.63 2732.38 1189.97 2728.02 1172.39C2714.84 1119.28 2728.07 1125 2728.07 1125L2843.27 1111.48C2843.27 1111.48 2857.46 1118.77 2864 1193.77C2865.96 1216.23 2866.2 1313.21 2869.14 1331.6C2871.93 1349.01 2875.2 1363.49 2879.03 1372.89C2900.43 1425.43 2889.73 1605.39 2889.73 1605.39Z" fill="#80BDCC"/>
<path d="M2895.28 1670.68C2894.93 1674.44 2892.85 1676.86 2889.54 1678.31C2889.53 1678.32 2889.51 1678.33 2889.49 1678.33C2883.03 1680.63 2872.94 1680.14 2862.07 1678.84C2860.65 1678.67 2859.37 1678.55 2858.21 1678.46C2857.91 1678.43 2857.61 1678.41 2857.32 1678.39C2857.09 1678.37 2856.85 1678.36 2856.63 1678.34C2845.6 1677.61 2846.46 1681.01 2825.38 1680.91C2801.35 1680.78 2793.23 1672.69 2792.13 1669.24C2791.2 1666.31 2801.72 1664.04 2813.49 1661.43C2816.58 1662.96 2831.39 1669.66 2849.79 1667.87C2865.97 1666.32 2882.49 1659.84 2894.09 1658.22C2894.19 1658.66 2894.27 1659.1 2894.35 1659.53C2895 1663.18 2895.63 1666.92 2895.28 1670.68Z" fill="#B84C42"/>
<path d="M2759.54 1670.68C2759.19 1674.44 2757.1 1676.86 2753.8 1678.31C2753.79 1678.32 2753.77 1678.33 2753.75 1678.33C2747.29 1680.63 2737.2 1680.14 2726.34 1678.84C2724.92 1678.67 2723.64 1678.55 2722.48 1678.46C2722.18 1678.43 2721.88 1678.41 2721.59 1678.39C2721.36 1678.37 2721.12 1678.36 2720.9 1678.34C2709.87 1677.61 2710.73 1681.01 2689.65 1680.91C2665.62 1680.78 2657.5 1672.69 2656.4 1669.24C2655.47 1666.31 2665.99 1664.04 2677.76 1661.43C2680.85 1662.96 2695.66 1669.66 2714.06 1667.87C2730.24 1666.32 2746.76 1659.84 2758.36 1658.22C2758.46 1658.66 2758.54 1659.1 2758.62 1659.53C2759.26 1663.18 2759.89 1666.92 2759.54 1670.68Z" fill="#B84C42"/>
<path d="M2713.46 766.553C2709.57 734.773 2719.49 683.923 2782.92 692.053C2846.35 700.183 2866.33 762.513 2853.54 790.223C2840.75 817.933 2871.95 824.623 2881.75 854.423C2890.17 880.023 2893.1 911.813 2906.72 926.083C2950.63 972.083 2864.57 1042.81 2812.69 1027.9C2718.19 1000.73 2706.02 996.683 2709.37 922.433C2711.09 884.393 2740.69 869.653 2721.89 858.643C2676.49 832.053 2722.26 838.463 2713.46 766.553Z" fill="#B74B42"/>
<path d="M2806.68 849.732L2789.21 894.882L2751.5 896.722L2732.69 868.632C2744.56 859.602 2749.58 846.052 2751.42 833.932C2752.92 824.232 2752.51 815.452 2752.09 810.682C2751.84 808.262 2751.59 806.832 2751.59 806.832L2798.58 792.532L2798.75 792.452C2799.34 804.912 2800 814.692 2800.76 822.302C2803.42 849.142 2806.68 849.732 2806.68 849.732Z" fill="#FFB27D"/>
<path d="M2732.53 848.143C2734.96 848.143 2776.14 839.763 2845.7 857.553C2845.7 857.553 2807.61 1032.08 2820.55 1064.98C2833.49 1097.87 2838.41 1127.07 2838.41 1127.07L2698.02 1128.81C2698.02 1128.81 2699.98 1015.9 2693.51 975.943C2687.04 935.983 2732.53 848.143 2732.53 848.143Z" fill="#FFB27D"/>
<path d="M2911.68 1030.78C2904.65 982.263 2878.59 882.643 2861.08 866.343C2845.6 851.933 2812.2 850.613 2812.2 850.613C2805.26 861.483 2781.52 888.473 2752.06 883.613C2736.16 880.993 2732.93 852.403 2732.57 848.573L2732.68 848.143C2732.68 848.143 2732.63 848.153 2732.54 848.163V848.143C2732.42 848.163 2732.32 848.193 2732.2 848.213C2727.56 848.903 2690.61 854.913 2679.65 873.773C2663.46 901.623 2645.84 985.213 2628.52 983.983C2620.57 983.413 2540.57 953.343 2540.57 953.343C2540.57 953.343 2527.24 965.833 2529.8 981.143C2529.8 981.143 2569.3 1007.59 2602.7 1024.47C2607.33 1026.81 2611.84 1028.96 2616.11 1030.84C2628.15 1036.13 2638.3 1039.19 2643.84 1037.88C2645.43 1037.5 2647.12 1036.79 2648.87 1035.77C2656.11 1031.58 2664.57 1022.39 2672.68 1011.92C2678.07 1004.95 2683.3 997.423 2687.92 990.413C2688.02 990.263 2688.11 990.123 2688.21 989.973C2690.19 1016.55 2692.18 1045.46 2690.12 1068.12C2688.55 1085.36 2687.41 1122.7 2690.37 1132.35C2696.54 1152.46 2741.86 1157.77 2784.16 1155.67C2804.1 1154.68 2818.19 1153.54 2828.44 1151.18C2843.31 1147.77 2850.11 1141.78 2855.01 1129.97C2859.68 1118.72 2838.09 1065.93 2836.04 1042.83C2834.17 1021.88 2837.38 1004.84 2842.66 988.093C2857.6 1022.58 2872.79 1047.25 2874.78 1052.59C2878.97 1063.84 2942.72 1135 2942.72 1135C2942.72 1135 2947.88 1133.94 2951.96 1131.27C2956.18 1128.51 2958.28 1124.87 2958.28 1124.87C2947.02 1098.13 2911.68 1030.78 2911.68 1030.78Z" fill="#FFB93E"/>
<path d="M2855 1129.96C2850.11 1141.77 2843.31 1147.75 2828.43 1151.17C2808.55 1147.35 2795.43 1110.76 2788.68 1092.76C2780.9 1072.01 2821.43 965.332 2832.62 966.302C2840.94 967.022 2842.37 981.142 2842.65 988.082C2837.27 1005 2834.14 1021.67 2836.03 1042.82C2838.08 1065.92 2859.66 1118.71 2855 1129.96Z" fill="#E58638"/>
<path d="M2541.13 961.732C2541.13 961.732 2534.3 945.012 2526.8 944.322C2519.29 943.642 2495.4 939.882 2493.69 943.302C2491.98 946.712 2493.69 959.002 2498.81 963.442C2503.93 967.882 2535.67 975.042 2535.67 975.042L2541.13 961.732Z" fill="#FFB27D"/>
<path d="M2687.91 990.403C2683.29 997.413 2678.06 1004.94 2672.67 1011.91C2664.94 1021.42 2656.41 1030.62 2648.86 1035.76C2647.11 1036.78 2645.42 1037.5 2643.83 1037.87C2638.29 1039.18 2628.15 1036.12 2616.1 1030.83C2623.27 1031.36 2630.3 1031.1 2637.22 1030.52C2649.34 1029.49 2652.86 1016.37 2672.02 996.693C2683.48 984.943 2686.96 986.753 2687.91 990.403Z" fill="#E58638"/>
<path d="M2798.57 792.543C2791.46 804.163 2774.32 828.083 2751.41 833.933C2752.91 824.233 2752.5 815.453 2752.08 810.683C2751.83 808.263 2751.58 806.833 2751.58 806.833L2798.57 792.543Z" fill="#E2915A"/>
<path d="M2739.25 810.033C2739.25 810.033 2795.74 821.383 2802.27 786.093C2808.79 750.803 2820.48 728.503 2784.69 719.763C2748.9 711.023 2739.38 723.193 2734.34 734.443C2729.28 745.693 2724.72 806.173 2739.25 810.033Z" fill="#FFB27D"/>
<path d="M2766.86 710.952C2766.86 710.952 2765.87 722.922 2784.45 743.232C2803.03 763.542 2799.41 804.612 2799.41 804.612C2799.41 804.612 2829.91 740.892 2813.21 722.102C2796.5 703.302 2766.86 710.952 2766.86 710.952Z" fill="#B74B42"/>
<path d="M2789.57 695.373C2789.57 695.373 2761.48 685.973 2733.61 713.433C2721.61 725.263 2723.42 748.523 2729.85 762.013C2729.85 762.013 2739.73 733.093 2757.7 726.783C2775.68 720.493 2789.57 695.373 2789.57 695.373Z" fill="#B74B42"/>
<path d="M2756.85 792.663C2756.85 792.663 2755.34 796.853 2744.7 794.953C2744.7 794.953 2735.77 793.363 2736.59 788.663C2736.59 788.663 2745.7 786.303 2756.85 792.663Z" fill="white"/>
<path d="M1883.75 806.173C1899.07 893.063 1848.35 963.493 1770.47 963.493C1765.4 963.493 1760.21 959.993 1755.17 959.403C1824.52 951.053 1868.06 887.403 1853.74 806.183C1839.42 724.963 1772.45 658.113 1700.15 649.763C1704.98 649.173 1709.92 648.873 1715 648.873C1792.88 648.863 1868.43 719.293 1883.75 806.173Z" fill="#699DEE"/>
<path d="M1946.03 851.573C1968.2 851.573 1982.57 831.073 1978.11 805.793C1973.65 780.513 1952.06 760.013 1929.89 760.013C1928.78 760.013 1927.7 760.113 1926.63 760.203C1923.29 750.863 1919.46 741.743 1915.21 732.883C1926.39 725.143 1932.25 710.003 1929.17 692.593C1924.84 668.053 1904.39 648.033 1882.93 646.863L1856.82 647.183C1855.5 647.183 1854.22 647.263 1852.97 647.403C1850.33 644.923 1847.66 642.493 1844.95 640.123C1848.54 632.513 1849.85 623.133 1848.05 612.953C1843.59 587.673 1822 567.173 1799.83 567.173C1799.66 567.173 1799.48 567.173 1799.31 567.183V567.173L1777.55 567.593C1776.93 567.563 1776.31 567.543 1775.69 567.543C1774.59 567.543 1773.52 567.593 1772.45 567.693L1772.43 567.703C1766.3 568.273 1760.87 570.473 1756.38 573.923C1751.89 577.383 1748.36 582.093 1746.03 587.673C1745.5 587.553 1744.99 587.413 1744.46 587.293C1744.33 585.763 1744.12 584.203 1743.84 582.623C1739.38 557.343 1717.8 536.843 1695.63 536.843L1671.81 537.233C1671.7 537.233 1671.6 537.223 1671.49 537.223C1671.11 537.223 1670.74 537.243 1670.37 537.253L1669.92 537.263H1669.91C1668.17 537.343 1666.49 537.543 1664.87 537.883C1664.87 537.883 1664.86 537.883 1664.85 537.893C1663.8 538.263 1628.79 550.973 1640.75 595.083L1638.3 596.153C1638.3 596.153 1631.35 582.093 1618.9 574.473C1603.49 565.033 1593.45 567.263 1592.11 567.433L1571.34 567.533L1571.35 567.563C1549.7 568.113 1535.79 588.373 1540.18 613.313C1542.26 625.103 1548.09 635.823 1555.93 643.933C1555.21 644.903 1554.49 645.893 1553.78 646.883L1546.56 646.963C1545.49 646.863 1544.42 646.813 1543.35 646.813C1542 646.813 1540.67 646.893 1539.38 647.043L1521.01 647.233C1520.9 647.233 1520.79 647.223 1520.69 647.213C1520.19 647.203 1519.69 647.193 1519.21 647.193C1518.34 647.193 1517.49 647.223 1516.65 647.293H1516.6C1515.89 647.343 1515.17 647.413 1514.48 647.513C1495.04 650.213 1483.01 669.533 1487.14 692.983C1490.6 712.593 1504.4 729.293 1520.75 735.803C1519.83 743.773 1519.34 751.963 1519.29 760.303L1511.26 760.433C1510.91 760.423 1510.56 760.403 1510.22 760.403C1509.38 760.403 1508.56 760.443 1507.75 760.503L1506.22 760.523C1506.22 760.523 1506.24 760.563 1506.25 760.633C1486.36 762.923 1473.95 782.433 1478.14 806.183C1482.6 831.463 1504.18 851.963 1526.36 851.963L1535.37 851.823C1537.49 857.723 1539.79 863.543 1542.28 869.263C1526.76 874.933 1517.78 892.393 1521.43 913.103C1525.72 937.413 1545.84 957.283 1567.1 958.773V958.783H1567.15C1567.98 958.833 1568.81 958.883 1569.64 958.883C1570.74 958.883 1571.82 958.823 1572.88 958.723L1593.26 958.503L1593.25 958.483C1593.42 958.493 1593.6 958.503 1593.78 958.503C1596.59 958.503 1599.26 958.173 1601.8 957.543C1605.1 960.883 1608.46 964.143 1611.9 967.293C1607.49 975.233 1605.78 985.443 1607.75 996.593C1612.21 1021.88 1633.8 1042.37 1655.97 1042.37L1679.59 1042L1679.58 1041.98C1679.75 1041.99 1679.93 1042 1680.11 1042C1693.63 1042 1704.22 1034.35 1709.42 1022.67C1712.1 1023.39 1714.79 1024.07 1717.49 1024.69C1717.63 1026.21 1717.83 1027.77 1718.11 1029.34C1722.57 1054.62 1744.16 1075.12 1766.34 1075.12L1790.45 1074.74C1790.46 1074.74 1790.46 1074.74 1790.47 1074.74H1790.54L1792.08 1074.72C1792.08 1074.72 1792.08 1074.71 1792.08 1074.7C1813.32 1073.73 1826.89 1053.63 1822.54 1028.96C1822.26 1027.39 1821.93 1025.84 1821.51 1024.31C1822.29 1024.11 1823.05 1023.9 1823.82 1023.69C1833.11 1035 1846.14 1042.36 1859.4 1042.36L1882.63 1041.95C1882.93 1041.96 1883.23 1041.99 1883.53 1041.99C1905.7 1041.99 1920.07 1021.49 1915.61 996.213C1913.93 986.673 1909.8 977.823 1904.13 970.493C1907.13 966.643 1909.96 962.643 1912.64 958.493H1939.89V958.483C1940.06 958.483 1940.24 958.493 1940.41 958.493C1962.58 958.493 1976.95 937.993 1972.49 912.713C1969.23 894.243 1956.82 878.373 1941.72 871.133C1942.32 864.663 1942.64 858.093 1942.68 851.393C1943.81 851.493 1944.91 851.573 1946.03 851.573ZM1769.49 960.163C1691.39 960.163 1615.79 890.463 1600.63 804.473C1585.47 718.483 1636.48 648.773 1714.59 648.773C1792.69 648.773 1868.29 718.483 1883.45 804.473C1898.62 890.463 1847.6 960.163 1769.49 960.163Z" fill="#699DEE"/>
<path d="M1945.51 851.583C1967.68 851.583 1982.04 831.083 1977.58 805.803C1973.12 780.523 1951.53 760.023 1929.36 760.023C1928.25 760.023 1927.17 760.113 1926.1 760.213C1922.75 750.873 1918.93 741.753 1914.68 732.893C1925.87 725.153 1931.73 710.013 1928.65 692.603C1924.19 667.323 1902.61 646.823 1880.43 646.823C1872.24 646.823 1865.12 649.633 1859.62 654.443C1854.71 649.463 1849.64 644.683 1844.42 640.143C1848.01 632.533 1849.32 623.163 1847.52 612.973C1843.06 587.693 1821.47 567.193 1799.3 567.193C1783 567.193 1770.96 578.283 1767.47 594.193C1759.72 591.413 1751.86 589.113 1743.93 587.313C1743.8 585.783 1743.59 584.223 1743.32 582.653C1738.86 557.373 1717.27 536.873 1695.1 536.873C1672.93 536.873 1658.57 557.373 1663.03 582.653C1663.31 584.223 1663.65 585.783 1664.06 587.313C1655.08 589.533 1646.48 592.503 1638.3 596.183C1629.43 579.213 1612.83 567.193 1595.87 567.193C1573.7 567.193 1559.34 587.693 1563.8 612.973C1565.88 624.763 1571.71 635.473 1579.56 643.583C1576.26 647.973 1573.16 652.563 1570.27 657.333C1562.17 650.773 1552.56 646.823 1542.83 646.823C1520.66 646.823 1506.3 667.323 1510.76 692.603C1514.22 712.223 1528.01 728.913 1544.37 735.423C1543.41 743.803 1542.9 752.393 1542.89 761.183C1539.91 760.453 1536.88 760.033 1533.83 760.033C1511.66 760.033 1497.3 780.533 1501.76 805.813C1506.22 831.093 1527.81 851.593 1549.98 851.593C1553.03 851.593 1555.91 851.173 1558.63 850.443C1560.84 856.693 1563.28 862.853 1565.91 868.903C1550.38 874.573 1541.41 892.043 1545.06 912.733C1549.52 938.013 1571.11 958.513 1593.28 958.513C1602.94 958.513 1611.11 954.623 1616.9 948.133C1622.86 954.723 1629.08 961.003 1635.54 966.923C1631.13 974.863 1629.42 985.073 1631.39 996.233C1635.85 1021.51 1657.44 1042.01 1679.61 1042.01C1695.87 1042.01 1707.9 1030.96 1711.41 1015.11C1721.16 1018.95 1731.09 1022.04 1741.14 1024.32C1741.27 1025.85 1741.48 1027.4 1741.76 1028.98C1746.22 1054.26 1767.81 1074.76 1789.98 1074.76C1812.15 1074.76 1826.51 1054.26 1822.05 1028.98C1821.77 1027.41 1821.43 1025.85 1821.02 1024.32C1828.61 1022.45 1835.93 1020.03 1842.96 1017.1C1852.22 1031.88 1867.48 1042.01 1883.05 1042.01C1905.22 1042.01 1919.58 1021.51 1915.12 996.233C1913.44 986.693 1909.31 977.843 1903.64 970.513C1908.4 964.423 1912.77 957.933 1916.72 951.083C1923.85 955.773 1931.84 958.513 1939.92 958.513C1962.09 958.513 1976.45 938.013 1971.99 912.733C1968.73 894.263 1956.32 878.383 1941.23 871.153C1941.82 864.693 1942.15 858.113 1942.18 851.413C1943.29 851.493 1944.4 851.583 1945.51 851.583ZM1769.5 960.173C1691.4 960.173 1615.8 890.463 1600.64 804.483C1585.48 718.493 1636.5 648.793 1714.6 648.793C1792.7 648.793 1868.3 718.503 1883.46 804.483C1898.62 890.463 1847.6 960.173 1769.5 960.173Z" fill="#AFCDFB"/>
<path d="M2146.29 812.412C2158 878.842 2119.23 932.682 2059.69 932.682C2055.81 932.682 2051.84 930.002 2047.99 929.552C2101.01 923.172 2134.3 874.512 2123.35 812.412C2112.4 750.312 2061.2 699.212 2005.93 692.832C2009.62 692.382 2013.4 692.152 2017.28 692.152C2076.81 692.152 2134.58 746.002 2146.29 812.412Z" fill="#D86713"/>
<path d="M2193.9 847.122C2210.85 847.122 2221.83 831.452 2218.43 812.122C2215.02 792.792 2198.51 777.122 2181.56 777.122C2180.71 777.122 2179.89 777.192 2179.07 777.272C2176.51 770.132 2173.59 763.163 2170.34 756.383C2178.89 750.463 2183.36 738.882 2181.02 725.582C2177.71 706.822 2162.08 691.512 2145.67 690.622L2125.71 690.872C2124.7 690.872 2123.72 690.932 2122.77 691.042C2120.75 689.142 2118.71 687.282 2116.64 685.472C2119.39 679.652 2120.39 672.483 2119.01 664.703C2115.6 645.373 2099.09 629.703 2082.14 629.703C2082.01 629.703 2081.88 629.702 2081.74 629.712V629.703L2065.1 630.022C2064.62 630.002 2064.15 629.982 2063.68 629.982C2062.84 629.982 2062.02 630.022 2061.21 630.102L2061.19 630.112C2056.5 630.552 2052.35 632.232 2048.92 634.872C2045.49 637.512 2042.79 641.113 2041.01 645.383C2040.61 645.293 2040.22 645.182 2039.81 645.092C2039.71 643.922 2039.55 642.732 2039.34 641.522C2035.93 622.192 2019.43 606.522 2002.48 606.522L1984.27 606.823C1984.19 606.823 1984.11 606.812 1984.03 606.812C1983.74 606.812 1983.45 606.832 1983.18 606.832L1982.83 606.842H1982.82C1981.49 606.902 1980.21 607.053 1978.96 607.312C1978.96 607.312 1978.95 607.313 1978.95 607.323C1978.15 607.603 1951.38 617.322 1960.53 651.052L1958.66 651.872C1958.66 651.872 1953.35 641.122 1943.83 635.292C1932.05 628.082 1924.37 629.782 1923.35 629.912L1907.47 629.982V630.003C1890.92 630.423 1880.28 645.912 1883.64 664.972C1885.23 673.992 1889.69 682.183 1895.68 688.383C1895.13 689.123 1894.58 689.873 1894.04 690.633L1888.52 690.693C1887.71 690.623 1886.88 690.573 1886.06 690.573C1885.03 690.573 1884.02 690.632 1883.03 690.742L1868.99 690.893C1868.91 690.893 1868.82 690.882 1868.75 690.872C1868.37 690.862 1867.99 690.852 1867.62 690.852C1866.95 690.852 1866.3 690.872 1865.66 690.922H1865.62C1865.07 690.962 1864.53 691.012 1864 691.092C1849.14 693.152 1839.94 707.922 1843.1 725.852C1845.74 740.842 1856.29 753.612 1868.79 758.592C1868.09 764.682 1867.72 770.943 1867.68 777.323L1861.54 777.422C1861.27 777.412 1861.01 777.402 1860.74 777.402C1860.1 777.402 1859.47 777.432 1858.85 777.472L1857.68 777.492C1857.68 777.492 1857.69 777.523 1857.7 777.573C1842.5 779.323 1833.01 794.242 1836.21 812.402C1839.62 831.732 1856.12 847.402 1873.08 847.402L1879.97 847.292C1881.59 851.802 1883.35 856.252 1885.25 860.622C1873.38 864.952 1866.52 878.303 1869.31 894.133C1872.59 912.713 1887.97 927.912 1904.22 929.052V929.062H1904.26C1904.9 929.102 1905.53 929.143 1906.17 929.143C1907.01 929.143 1907.84 929.093 1908.65 929.013L1924.23 928.842L1924.22 928.823C1924.35 928.833 1924.49 928.842 1924.63 928.842C1926.78 928.842 1928.82 928.582 1930.76 928.112C1933.28 930.662 1935.85 933.153 1938.48 935.573C1935.11 941.643 1933.8 949.452 1935.3 957.972C1938.71 977.312 1955.22 992.972 1972.17 992.972L1990.23 992.693L1990.22 992.672C1990.35 992.682 1990.49 992.693 1990.63 992.693C2000.97 992.693 2009.06 986.842 2013.04 977.912C2015.09 978.462 2017.14 978.983 2019.21 979.453C2019.32 980.613 2019.47 981.803 2019.68 983.013C2023.09 1002.34 2039.6 1018.01 2056.55 1018.01L2074.98 1017.72C2074.99 1017.72 2074.99 1017.72 2075 1017.72H2075.06L2076.24 1017.7C2076.24 1017.7 2076.24 1017.69 2076.24 1017.68C2092.48 1016.94 2102.85 1001.57 2099.52 982.722C2099.31 981.522 2099.05 980.332 2098.74 979.162C2099.33 979.012 2099.91 978.853 2100.51 978.693C2107.61 987.343 2117.57 992.972 2127.71 992.972L2145.47 992.662C2145.7 992.672 2145.93 992.693 2146.16 992.693C2163.11 992.693 2174.09 977.023 2170.68 957.693C2169.4 950.403 2166.24 943.632 2161.9 938.022C2164.2 935.082 2166.36 932.022 2168.41 928.852H2189.24V928.842C2189.37 928.842 2189.51 928.852 2189.64 928.852C2206.59 928.852 2217.57 913.182 2214.17 893.852C2211.68 879.732 2202.19 867.602 2190.65 862.062C2191.11 857.113 2191.35 852.092 2191.38 846.972C2192.2 847.062 2193.05 847.122 2193.9 847.122ZM2058.94 930.143C1999.23 930.143 1941.44 876.853 1929.85 811.122C1918.26 745.382 1957.26 692.092 2016.97 692.092C2076.68 692.092 2134.48 745.382 2146.07 811.122C2157.65 876.853 2118.65 930.143 2058.94 930.143Z" fill="#D86713"/>
<path d="M2193.5 847.133C2210.45 847.133 2221.43 831.463 2218.02 812.133C2214.61 792.803 2198.11 777.133 2181.16 777.133C2180.31 777.133 2179.49 777.202 2178.66 777.282C2176.1 770.142 2173.18 763.173 2169.93 756.393C2178.48 750.473 2182.96 738.902 2180.61 725.592C2177.2 706.262 2160.7 690.592 2143.75 690.592C2137.49 690.592 2132.05 692.742 2127.84 696.412C2124.08 692.602 2120.21 688.952 2116.22 685.472C2118.97 679.662 2119.96 672.493 2118.59 664.703C2115.18 645.373 2098.68 629.703 2081.73 629.703C2069.27 629.703 2060.06 638.182 2057.4 650.342C2051.47 648.222 2045.47 646.462 2039.4 645.082C2039.3 643.912 2039.14 642.722 2038.93 641.522C2035.52 622.192 2019.02 606.522 2002.07 606.522C1985.12 606.522 1974.14 622.192 1977.55 641.522C1977.76 642.722 1978.03 643.912 1978.34 645.082C1971.47 646.772 1964.9 649.052 1958.65 651.862C1951.87 638.892 1939.18 629.693 1926.21 629.693C1909.26 629.693 1898.28 645.363 1901.69 664.693C1903.28 673.703 1907.74 681.892 1913.74 688.092C1911.22 691.452 1908.85 694.962 1906.64 698.602C1900.44 693.582 1893.1 690.573 1885.66 690.573C1868.71 690.573 1857.73 706.243 1861.14 725.573C1863.79 740.573 1874.33 753.332 1886.84 758.312C1886.1 764.713 1885.72 771.283 1885.71 778.003C1883.43 777.443 1881.11 777.122 1878.79 777.122C1861.84 777.122 1850.86 792.792 1854.27 812.122C1857.68 831.452 1874.18 847.122 1891.13 847.122C1893.46 847.122 1895.66 846.802 1897.74 846.242C1899.43 851.022 1901.3 855.722 1903.31 860.352C1891.44 864.682 1884.58 878.042 1887.37 893.862C1890.78 913.192 1907.28 928.862 1924.23 928.862C1931.61 928.862 1937.86 925.882 1942.28 920.932C1946.83 925.972 1951.59 930.772 1956.53 935.292C1953.16 941.362 1951.86 949.173 1953.36 957.703C1956.77 977.033 1973.27 992.703 1990.22 992.703C2002.65 992.703 2011.84 984.263 2014.53 972.143C2021.98 975.073 2029.57 977.442 2037.26 979.182C2037.36 980.352 2037.52 981.542 2037.73 982.742C2041.14 1002.07 2057.64 1017.74 2074.59 1017.74C2091.54 1017.74 2102.52 1002.07 2099.11 982.742C2098.9 981.542 2098.63 980.352 2098.32 979.182C2104.12 977.752 2109.72 975.902 2115.09 973.662C2122.17 984.962 2133.84 992.703 2145.74 992.703C2162.69 992.703 2173.67 977.033 2170.26 957.703C2168.97 950.413 2165.82 943.642 2161.49 938.032C2165.13 933.372 2168.47 928.412 2171.49 923.172C2176.94 926.752 2183.05 928.852 2189.23 928.852C2206.18 928.852 2217.16 913.182 2213.75 893.852C2211.26 879.732 2201.77 867.593 2190.23 862.062C2190.68 857.122 2190.93 852.092 2190.96 846.972C2191.8 847.062 2192.65 847.133 2193.5 847.133ZM2058.94 930.143C1999.23 930.143 1941.43 876.852 1929.84 811.112C1918.25 745.372 1957.25 692.082 2016.96 692.082C2076.67 692.082 2134.46 745.372 2146.06 811.112C2157.65 876.852 2118.65 930.143 2058.94 930.143Z" fill="#F1A34F"/>
<path d="M1044.23 863.412L1117.8 1137.98H1183.15L1109.58 863.412H1044.23Z" fill="#AFCDFB"/>
<path d="M1131.74 835.372L1212.82 1137.98H1278.17L1197.09 835.372H1131.74Z" fill="#AFCDFB"/>
<path d="M1212.82 787.093L1306.85 1137.98H1372.19L1278.17 787.093H1212.82Z" fill="#AFCDFB"/>
<path d="M1367.62 751.532H1302.27L1396.29 1102.42H1461.64L1367.62 751.532Z" fill="#AFCDFB"/>
<path d="M1053.9 836.573L1123.93 782.743L1129.22 802.503C1130.09 805.763 1132.75 808.753 1136.05 810.193C1139.36 811.663 1142.77 811.312 1144.83 809.342L1219.63 737.852L1230.1 747.263C1231.36 748.403 1233.08 747.882 1232.91 746.412L1229.55 716.472C1229.43 715.442 1228.41 714.502 1227.35 714.472L1196.29 713.482C1194.77 713.432 1194.4 715.192 1195.67 716.332L1205.01 724.732L1141.74 785.203L1136.89 767.112C1136.05 763.972 1133.57 761.092 1130.41 759.582C1127.28 758.082 1123.94 758.203 1121.75 759.873L1040.78 822.112C1037.46 824.662 1037.71 829.962 1041.32 833.962C1043.65 836.532 1046.8 837.933 1049.64 837.933C1051.24 837.913 1052.72 837.483 1053.9 836.573Z" fill="#AFCDFB"/>
<path d="M1033.61 1062.89L1036.37 1073.58C1034.81 1070.47 1033.95 1066.85 1033.61 1062.89Z" fill="#CAE0FF"/>
<path d="M2422.99 1190.31H1066.88L1036.36 1073.58C1064.46 1133.93 1292.93 1067.89 1344.14 1031.16C1437.77 963.572 1438.45 897.012 1535.36 851.842C1666.57 790.632 1797.79 886.502 1903.31 860.292C2226.95 780.112 2495.24 517.862 2503.52 509.582C2412.65 719.942 2191.26 830.632 2361.44 899.602C2538 971.162 2422.99 1190.31 2422.99 1190.31Z" fill="#CAE0FF"/>
<path d="M1062.53 596.623C1058.61 594.233 1050.65 590.963 1038.67 586.803C1033.03 584.863 1029.04 583.263 1026.71 582.023C1023.74 580.433 1021.8 578.133 1020.88 575.123C1019.77 571.493 1020.17 568.693 1022.09 566.703C1024.01 564.713 1026.78 563.713 1030.41 563.713C1032.89 563.713 1036.29 564.493 1040.62 566.043C1044.95 567.593 1047.91 568.373 1049.5 568.373C1051.71 568.373 1053.36 567.733 1054.43 566.463C1055.5 565.183 1055.7 563.453 1055.03 561.253C1054.22 558.613 1052.18 556.283 1048.9 554.263C1042.99 550.563 1035.56 548.723 1026.61 548.723C1017.93 548.723 1011.32 551.023 1006.8 555.623C1001.85 560.573 1000.66 567.253 1003.22 575.653C1005.98 584.673 1011.91 591.483 1021.03 596.083C1029.1 599.003 1037.17 601.923 1045.23 604.843C1053.91 608.023 1059.12 612.453 1060.85 618.113C1062.04 622.003 1061.62 625.343 1059.59 628.133C1057.56 630.923 1054.6 632.313 1050.7 632.313C1047.07 632.313 1043.41 631.783 1039.72 630.713C1039.51 630.623 1037.04 629.783 1032.3 628.193C1028.82 626.953 1026.59 626.333 1025.62 626.333C1023.32 626.333 1021.62 626.993 1020.52 628.323C1019.42 629.653 1019.22 631.473 1019.93 633.773C1021.37 638.473 1026.33 642.103 1034.82 644.673C1041.08 646.623 1047.18 647.593 1053.12 647.593C1062.95 647.593 1070.25 644.943 1075 639.633C1080.09 633.973 1081.16 626.323 1078.21 616.683C1075.6 608.083 1070.37 601.403 1062.53 596.623Z" fill="#AFCDFB"/>
<path d="M1104.57 565.052H1118.2C1125.24 565.052 1127.97 562.482 1126.4 557.342C1124.8 552.112 1120.42 549.502 1113.24 549.502H1069.66C1062.48 549.502 1059.7 552.112 1061.29 557.342C1062.86 562.482 1067.19 565.052 1074.28 565.052H1087.7L1109.6 636.672C1111.82 643.932 1115.7 647.572 1121.24 647.572C1126.95 647.572 1128.7 643.942 1126.48 636.672L1104.57 565.052Z" fill="#AFCDFB"/>
<path d="M1222.45 635.073L1171.07 558.273C1166.65 551.633 1161.47 548.303 1155.53 548.303C1149.77 548.303 1146.66 551.893 1146.2 559.063L1141.18 635.203C1141.08 636.623 1141.3 638.213 1141.85 639.983C1142.55 642.283 1143.89 644.123 1145.87 645.493C1147.84 646.863 1149.99 647.553 1152.29 647.553C1156.02 647.553 1158.01 645.213 1158.27 640.523L1158.9 624.563H1198.06L1208.15 640.073C1211.35 645.053 1214.97 647.553 1219.03 647.553C1221.32 647.553 1223.07 646.863 1224.28 645.493C1225.49 644.123 1225.76 642.323 1225.08 640.113C1224.62 638.713 1223.75 637.023 1222.45 635.073ZM1159.44 609.703L1161.01 568.783C1161.07 568.163 1161.14 567.723 1161.23 567.453L1188.51 609.703H1159.44Z" fill="#AFCDFB"/>
<path d="M1292.3 631.493L1259.95 604.783C1277.02 603.543 1283.05 594.733 1278.04 578.343C1275.14 568.863 1269.69 561.603 1261.68 556.553C1254.31 551.863 1245.8 549.513 1236.14 549.513H1217.14C1210.14 549.513 1207.77 553.203 1210.02 560.573L1233.36 636.923C1235.59 644.203 1239.47 647.843 1245.01 647.843C1250.72 647.843 1252.47 644.233 1250.27 637.013L1240.54 605.193L1241.41 605.853L1283.44 642.663C1287.43 646.123 1290.84 647.843 1293.69 647.843C1295.91 647.843 1297.56 647.153 1298.65 645.783C1299.74 644.413 1299.95 642.613 1299.27 640.403C1298.41 637.563 1296.09 634.593 1292.3 631.493ZM1248.25 594.153C1243.09 594.153 1239.31 593.883 1236.92 593.353L1228.19 564.793H1240.61C1251.11 564.793 1257.82 569.553 1260.73 579.073C1263.81 589.123 1259.65 594.153 1248.25 594.153Z" fill="#AFCDFB"/>
<path d="M1318.76 565.052H1332.39C1339.43 565.052 1342.16 562.482 1340.59 557.342C1338.99 552.112 1334.61 549.502 1327.43 549.502H1283.85C1276.68 549.502 1273.89 552.112 1275.48 557.342C1277.05 562.482 1281.38 565.052 1288.47 565.052H1301.89L1323.79 636.672C1326.01 643.932 1329.89 647.572 1335.43 647.572C1341.14 647.572 1342.89 643.942 1340.67 636.672L1318.76 565.052Z" fill="#AFCDFB"/>
<path d="M1421.57 635.982C1420.8 633.472 1419.23 631.302 1416.85 629.482C1414.47 627.662 1412.03 626.752 1409.52 626.752C1407.01 626.752 1405.12 627.662 1403.85 629.482C1402.59 631.302 1402.34 633.472 1403.11 635.982C1403.88 638.492 1405.45 640.662 1407.83 642.482C1410.21 644.302 1412.65 645.212 1415.16 645.212C1417.67 645.212 1419.56 644.302 1420.82 642.482C1422.09 640.662 1422.34 638.492 1421.57 635.982Z" fill="#AFCDFB"/>
<path d="M1411.22 605.952L1396.4 557.472C1394.25 550.452 1390.45 546.942 1384.99 546.942C1379.62 546.942 1378 550.452 1380.15 557.472L1394.97 605.952C1397.19 613.232 1401.04 616.872 1406.5 616.872C1411.87 616.872 1413.44 613.232 1411.22 605.952Z" fill="#AFCDFB"/>
<path d="M2230.22 1190.31H1571.91C1600.02 1167.21 1638.46 1127.2 1658.81 1069.79C1693.3 972.893 1811.06 1012.89 1915.03 996.163C2019.17 979.443 2229.24 767.413 2236.43 791.843C2240.28 804.923 2193.32 977.203 2262.29 996.683C2330.4 1015.82 2356.44 1123.41 2230.22 1190.31Z" fill="#AFCDFB"/>
<path d="M2949.28 1742H31.7164C14.2037 1742 0 1728.12 0 1711C0 1693.88 14.2037 1680 31.7164 1680H2949.28C2966.8 1680 2981 1693.88 2981 1711C2981 1728.12 2966.81 1742 2949.28 1742Z" fill="#95A6DB"/>
</svg>
