<svg width="48" height="48" viewBox="0 0 48 48" fill="none" xmlns="http://www.w3.org/2000/svg">
<path d="M10 8.5C10.2761 8.5 10.5 8.27614 10.5 8C10.5 7.72386 10.2761 7.5 10 7.5C9.72386 7.5 9.5 7.72386 9.5 8C9.5 8.27614 9.72386 8.5 10 8.5Z" fill="#5E72E4"/>
<path d="M46.5 33H42.707L40.8535 31.1465C40.76 31.0525 40.633 31 40.5 31H39.053C38.05 26.5655 35.382 22.6835 31.6175 20.158C32.1495 19.7985 32.5 19.1895 32.5 18.5C32.5 17.9 32.229 17.367 31.809 17C32.229 16.633 32.5 16.1 32.5 15.5C32.5 14.9 32.229 14.367 31.809 14C32.229 13.633 32.5 13.1 32.5 12.5C32.5 11.9 32.229 11.367 31.809 11C32.229 10.633 32.5 10.1 32.5 9.5C32.5 8.397 31.603 7.5 30.5 7.5H29V5.707L31.1465 3.5605C31.5835 3.1235 31.708 2.497 31.4715 1.926C31.235 1.3545 30.704 1 30.086 1H17.914C17.296 1 16.765 1.3545 16.5285 1.926C16.292 2.497 16.4165 3.1235 16.8535 3.5605L18.293 5H15.5C15.367 5 15.24 5.0525 15.1465 5.1465L13.793 6.5H12.5V6C12.5 5.724 12.2765 5.5 12 5.5H2C1.7235 5.5 1.5 5.724 1.5 6V20C1.5 20.276 1.7235 20.5 2 20.5H12C12.2765 20.5 12.5 20.276 12.5 20V19.809L13.7765 20.447C13.8455 20.482 13.9225 20.5 14 20.5H17C17.2765 20.5 17.5 20.276 17.5 20C17.5 19.724 17.2765 19.5 17 19.5H14.118L12.2235 18.5525C12.068 18.4755 11.8845 18.4835 11.737 18.5745C11.5895 18.6655 11.5 18.8265 11.5 19V19.5H8.5V6.5H11.5V17C11.5 17.276 11.7235 17.5 12 17.5C12.2765 17.5 12.5 17.276 12.5 17V7.5H14C14.133 7.5 14.26 7.4475 14.3535 7.3535L15.707 6H19V7.5H18.5C18.2235 7.5 18 7.724 18 8C18 8.276 18.2235 8.5 18.5 8.5H30.5C31.0515 8.5 31.5 8.9485 31.5 9.5C31.5 10.0515 31.0515 10.5 30.5 10.5H20.5C20.2235 10.5 20 10.724 20 11C20 11.276 20.2235 11.5 20.5 11.5H30.5C31.0515 11.5 31.5 11.9485 31.5 12.5C31.5 13.0515 31.0515 13.5 30.5 13.5H20.5C20.2235 13.5 20 13.724 20 14C20 14.276 20.2235 14.5 20.5 14.5H30.5C31.0515 14.5 31.5 14.9485 31.5 15.5C31.5 16.0515 31.0515 16.5 30.5 16.5H20.5C20.2235 16.5 20 16.724 20 17C20 17.276 20.2235 17.5 20.5 17.5H30.5C31.0515 17.5 31.5 17.9485 31.5 18.5C31.5 19.0515 31.0515 19.5 30.5 19.5H20C19.989 19.5 19.9795 19.5055 19.9685 19.5065C19.9355 19.5085 19.9045 19.5175 19.8725 19.526C19.8395 19.535 19.8075 19.543 19.7775 19.5585C19.768 19.5635 19.7575 19.563 19.748 19.5685C12.593 23.742 9.246 32.4925 11.789 40.375L12.173 41.566C12.3315 42.0575 12.2035 42.59 11.8385 42.955C11.148 43.6455 10.951 44.635 11.325 45.5375C11.698 46.4395 12.537 47 13.5135 47H22.5C22.7765 47 23 46.776 23 46.5C23 46.224 22.7765 46 22.5 46H13.5135C12.8385 46 12.418 45.563 12.2485 45.1545C12.079 44.746 12.0685 44.139 12.5455 43.662C13.1775 43.03 13.399 42.1095 13.125 41.259L12.741 40.068C10.354 32.6705 13.4665 24.4645 20.141 20.5H30.288C34.182 22.8145 36.972 26.6105 38.027 31H33.5C32.397 31 31.5 31.897 31.5 33C31.5 33.358 31.601 33.698 31.777 34H25.5C24.967 34 24.4645 34.2085 24.0865 34.5865C23.708 34.9645 23.5 35.4665 23.5 36C23.5 36.6 23.771 37.133 24.191 37.5C23.771 37.867 23.5 38.4 23.5 39C23.5 39.5335 23.708 40.0355 24.0865 40.4135C24.119 40.446 24.157 40.47 24.1915 40.5C23.7715 40.867 23.5 41.4 23.5 42C23.5 42.5335 23.708 43.0355 24.0865 43.4135C24.119 43.446 24.157 43.47 24.1915 43.5C23.7715 43.867 23.5 44.4 23.5 45C23.5 45.5335 23.708 46.0355 24.0865 46.4135C24.4645 46.7915 24.967 47 25.5 47H42.5C42.5775 47 42.6545 46.982 42.7235 46.9475L44.618 46H46.5C46.7765 46 47 45.776 47 45.5V33.5C47 33.224 46.7765 33 46.5 33ZM7.5 19.5H2.5V6.5H7.5V19.5ZM28 7.5H20V6.5H28V7.5ZM28 5.5H20C20 5.435 19.987 5.37 19.9615 5.309C19.936 5.2475 19.8995 5.1925 19.853 5.146L17.5605 2.8535C17.3415 2.6345 17.4225 2.381 17.452 2.3085C17.4825 2.2365 17.604 2 17.914 2H30.086C30.396 2 30.5175 2.2365 30.548 2.3085C30.578 2.381 30.659 2.634 30.4395 2.8535L28.1465 5.1465C28.0525 5.24 28 5.3675 28 5.5ZM46 45H44.5C44.4225 45 44.3455 45.018 44.2765 45.0525L42.382 46H25.5C25.234 46 24.983 45.896 24.7935 45.7065C24.604 45.517 24.5 45.2665 24.5 45C24.5 44.4485 24.9485 44 25.5 44H36C36.2765 44 36.5 43.776 36.5 43.5C36.5 43.224 36.2765 43 36 43H25.5C25.234 43 24.983 42.896 24.7935 42.7065C24.604 42.517 24.5 42.2665 24.5 42C24.5 41.4485 24.9485 41 25.5 41H36C36.2765 41 36.5 40.776 36.5 40.5C36.5 40.224 36.2765 40 36 40H25.5C25.234 40 24.983 39.896 24.7935 39.7065C24.604 39.517 24.5 39.2665 24.5 39C24.5 38.4485 24.9485 38 25.5 38H36C36.2765 38 36.5 37.776 36.5 37.5C36.5 37.224 36.2765 37 36 37H25.5C24.9485 37 24.5 36.5515 24.5 36C24.5 35.7335 24.604 35.4825 24.7935 35.2935C24.983 35.1045 25.234 35 25.5 35H38C38.2765 35 38.5 34.776 38.5 34.5C38.5 34.224 38.2765 34 38 34H33.5C33.234 34 32.983 33.896 32.7935 33.7065C32.604 33.517 32.5 33.2665 32.5 33C32.5 32.4485 32.9485 32 33.5 32H40.293L42.1465 33.8535C42.24 33.9475 42.367 34 42.5 34H46V45Z" fill="#5E72E4"/>
<path d="M25.5 30.5H24.5C24.224 30.5 24 30.2755 24 30C24 29.724 23.7765 29.5 23.5 29.5C23.2235 29.5 23 29.724 23 30C23 30.827 23.673 31.5 24.5 31.5V32C24.5 32.276 24.7235 32.5 25 32.5C25.2765 32.5 25.5 32.276 25.5 32V31.5C26.327 31.5 27 30.827 27 30V29C27 28.173 26.327 27.5 25.5 27.5H24.5C24.224 27.5 24 27.2755 24 27V26C24 25.7245 24.224 25.5 24.5 25.5H25.5C25.776 25.5 26 25.7245 26 26C26 26.276 26.2235 26.5 26.5 26.5C26.7765 26.5 27 26.276 27 26C27 25.173 26.327 24.5 25.5 24.5V24C25.5 23.724 25.2765 23.5 25 23.5C24.7235 23.5 24.5 23.724 24.5 24V24.5C23.673 24.5 23 25.173 23 26V27C23 27.827 23.673 28.5 24.5 28.5H25.5C25.776 28.5 26 28.7245 26 29V30C26 30.2755 25.776 30.5 25.5 30.5Z" fill="#5E72E4"/>
<path d="M29 28.5C29.2761 28.5 29.5 28.2761 29.5 28C29.5 27.7239 29.2761 27.5 29 27.5C28.7239 27.5 28.5 27.7239 28.5 28C28.5 28.2761 28.7239 28.5 29 28.5Z" fill="#5E72E4"/>
<path d="M21 28.5C21.2761 28.5 21.5 28.2761 21.5 28C21.5 27.7239 21.2761 27.5 21 27.5C20.7239 27.5 20.5 27.7239 20.5 28C20.5 28.2761 20.7239 28.5 21 28.5Z" fill="#5E72E4"/>
<path d="M41 20.5C41 20.776 41.2235 21 41.5 21C41.7765 21 42 20.776 42 20.5C42 18.57 43.5705 17 45.5 17C45.7765 17 46 16.776 46 16.5C46 16.224 45.7765 16 45.5 16C43.5705 16 42 14.43 42 12.5C42 12.224 41.7765 12 41.5 12C41.2235 12 41 12.224 41 12.5C41 14.43 39.4295 16 37.5 16C37.2235 16 37 16.224 37 16.5C37 16.776 37.2235 17 37.5 17C39.4295 17 41 18.57 41 20.5ZM41.5 14.5605C41.929 15.3905 42.6095 16.071 43.4395 16.5C42.6095 16.929 41.929 17.6095 41.5 18.4395C41.071 17.6095 40.3905 16.929 39.5605 16.5C40.3905 16.071 41.071 15.3905 41.5 14.5605Z" fill="#5E72E4"/>
<path d="M5 46.5C5 46.776 5.2235 47 5.5 47C5.7765 47 6 46.776 6 46.5C6 44.57 7.5705 43 9.5 43C9.7765 43 10 42.776 10 42.5C10 42.224 9.7765 42 9.5 42C7.5705 42 6 40.43 6 38.5C6 38.224 5.7765 38 5.5 38C5.2235 38 5 38.224 5 38.5C5 40.43 3.4295 42 1.5 42C1.2235 42 1 42.224 1 42.5C1 42.776 1.2235 43 1.5 43C3.4295 43 5 44.57 5 46.5ZM5.5 40.5605C5.929 41.3905 6.6095 42.071 7.4395 42.5C6.6095 42.929 5.929 43.6095 5.5 44.4395C5.071 43.6095 4.3905 42.929 3.5605 42.5C4.3905 42.071 5.071 41.3905 5.5 40.5605Z" fill="#5E72E4"/>
<path d="M29.5 32.5C29.7765 32.5 30 32.276 30 32C30 30.6215 31.1215 29.5 32.5 29.5C32.7765 29.5 33 29.276 33 29C33 28.724 32.7765 28.5 32.5 28.5C30.5705 28.5 29 30.07 29 32C29 32.276 29.2235 32.5 29.5 32.5Z" fill="#5E72E4"/>
<path d="M18.5 45C18.7761 45 19 44.7761 19 44.5C19 44.2239 18.7761 44 18.5 44C18.2239 44 18 44.2239 18 44.5C18 44.7761 18.2239 45 18.5 45Z" fill="#5E72E4"/>
<path d="M16.5 45C16.7761 45 17 44.7761 17 44.5C17 44.2239 16.7761 44 16.5 44C16.2239 44 16 44.2239 16 44.5C16 44.7761 16.2239 45 16.5 45Z" fill="#5E72E4"/>
<path d="M14.5 45C14.7761 45 15 44.7761 15 44.5C15 44.2239 14.7761 44 14.5 44C14.2239 44 14 44.2239 14 44.5C14 44.7761 14.2239 45 14.5 45Z" fill="#5E72E4"/>
</svg>
