<svg width="3001" height="1909" viewBox="0 0 3001 1909" fill="none" xmlns="http://www.w3.org/2000/svg">
<g clip-path="url(#clip0)">
<path d="M2539.03 1801.91C2538 1801.86 2537.31 1801.8 2537.31 1801.8C2537.31 1801.8 2538 1801.86 2539.03 1801.91Z" stroke="#5A8FED" stroke-miterlimit="10"/>
<path d="M1546.6 1578.78H1201.85C1161.4 1578.78 1128.61 1546.01 1128.61 1505.57V1406.67C1128.61 1366.24 1161.4 1333.46 1201.85 1333.46H1546.6C1587.05 1333.46 1619.84 1366.24 1619.84 1406.67V1505.57C1619.84 1546.01 1587.05 1578.78 1546.6 1578.78Z" fill="#0A1A57"/>
<path d="M1469.87 1415.43L1524 1751.18C1525.48 1760.28 1533.32 1766.91 1542.48 1766.91V1415.37H1469.87V1415.43Z" fill="#0A1A57"/>
<path d="M1278.53 1415.43L1224.4 1751.18C1222.91 1760.28 1215.07 1766.91 1205.92 1766.91V1415.37H1278.53V1415.43Z" fill="#0A1A57"/>
<path d="M2502.67 1075.78H1921.5V1095H2502.67V1075.78Z" fill="#37AB00"/>
<path d="M2481.16 1095H1943.01V1264.65H2481.16V1095Z" fill="#2A8001"/>
<path d="M2452.53 1236.04V1123.59H1971.6V1236.04H2452.53Z" fill="#37AB00"/>
<path d="M2232.2 1179.83C2232.2 1190.92 2223.21 1199.9 2212.11 1199.9C2201.01 1199.9 2192.03 1190.92 2192.03 1179.83C2192.03 1168.73 2201.01 1159.75 2212.11 1159.75C2223.15 1159.75 2232.2 1168.73 2232.2 1179.83Z" fill="#2A8001"/>
<path d="M2348.75 1264.65L2426.11 1744.43C2428.23 1757.41 2439.39 1766.91 2452.55 1766.91V1264.59H2348.75V1264.65Z" fill="#2A8001"/>
<path d="M2075.42 1264.65L1998.06 1744.43C1995.94 1757.41 1984.78 1766.91 1971.62 1766.91V1264.59H2075.42V1264.65Z" fill="#2A8001"/>
<path d="M2451.8 602.81H1972.36L2007.32 199.677H2416.78L2451.8 602.81Z" fill="#E1F3F3"/>
<path d="M2083.94 199.677C2062.83 426.296 2193.92 567.061 2443.96 512.265L2451.8 602.81H1972.36L2007.38 199.677H2083.94V199.677Z" fill="#CFE8E7"/>
<path d="M2309.78 997.306H2117.64V1020.24H2309.78V997.306Z" fill="#0A1A57"/>
<path d="M2173.2 602.812L2090.86 1020.3H2117.64L2199.98 602.812H2173.2Z" fill="#0A1A57"/>
<path d="M2254.22 602.811L2336.56 1020.3H2309.78L2227.45 602.811H2254.22Z" fill="#0A1A57"/>
<path d="M2356.76 1020.3H2070.67V1075.78H2356.76V1020.3Z" fill="#0A1A57"/>
<path d="M1852.83 473.428H1514.5V811.641H1852.83V473.428Z" fill="white"/>
<path d="M1452.47 473.427H1114.14V811.64H1452.47V473.427Z" fill="white"/>
<path d="M940.303 1194.58C931.148 956.01 981.272 715.949 1083.24 500.255" stroke="#37AB00" stroke-miterlimit="10"/>
<path d="M1049.13 708.398C1053.65 704.509 1065.56 696.615 1077.69 691.296C1166.38 651.772 1176.73 713.432 1136.22 605.67C1126.89 580.96 1115.97 542.008 1113.56 514.496C1074.82 603.382 976.866 692.955 952.262 932.1C977.038 781.44 1168.32 783.728 1163.4 692.497C1129.24 688.55 1075.51 690.095 1049.13 708.398Z" fill="#37AB00"/>
<path d="M949.459 956.354C948.601 964.533 948.143 972.769 947.399 986.669C948.486 976.545 948.887 966.42 949.459 956.354Z" fill="#1C887B"/>
<path d="M1066.41 405.42C1087.24 390.948 1119.68 389.061 1145.32 387.974C1148.58 340.9 1138.51 288.163 1126.55 263.11C1066.76 421.149 919.247 387.23 940.017 738.256C960.158 1081.22 932.98 956.696 978.984 793.509C1036.66 582.791 1120.31 583.592 1144.12 401.816C1116.37 395.753 1084.21 398.155 1066.41 405.42Z" fill="#2A8001"/>
<path d="M885.545 1255.44C937.042 953.666 884.344 635.816 743.528 364.124" stroke="#37AB00" stroke-miterlimit="10"/>
<path d="M886.002 600.634C887.833 588.565 893.727 571.291 897.16 560.938C942.249 430.183 1002.27 522.158 799.03 368.066C739.579 322.479 783.352 317.96 849.382 706.679C909.92 976.598 870.553 965.844 915.527 789.846C948.428 670.072 1020.3 581.129 961.36 497.849C917.759 532.968 891.553 578.269 886.002 600.634Z" fill="#37AB00"/>
<path d="M901.738 950.688C902.711 960.926 902.482 962.013 904.027 989.525C903.626 976.541 903.34 963.557 901.738 950.688Z" fill="#1C887B"/>
<path d="M646.542 309.669C643.051 284.788 653.122 249.668 661.476 221.298C609.979 186.349 555.392 174.109 526.782 176.683C595.388 236.341 607.289 298.572 628.003 357.773C702.158 586.508 867.407 694.213 901.795 950.747C877.306 693.755 852.701 644.393 827.983 509.348C804.695 401.93 764.069 297.543 675.666 231.422C660.045 255.159 647.858 288.563 646.542 309.669Z" fill="#2A8001"/>
<path d="M660.903 853.052C640.533 831.832 602.826 818.276 573.015 813.757C521.232 806.379 536.338 827.656 535.708 763.137C533.877 711.83 524.493 663.841 486.214 626.433C407.652 550.588 481.636 484.581 459.836 433.961C512.134 504.2 586.576 429.042 673.148 540.006C708.452 585.822 679.671 553.906 668.113 636.385C676.295 618.254 689.684 599.035 702.273 583.592C717.951 610.989 720.125 619.398 741.525 656.691C810.016 785.33 858.194 809.868 891.839 843.615C851.957 873.987 821.689 907.162 809.272 938.449C831.015 902.186 865.347 873.415 899.964 851.851C997.408 953.836 832.789 1034.94 798.858 1139.73C780.72 1193.44 815.91 1189.32 768.303 1116.62C660.045 952.749 519.286 1043.98 533.534 828.686C585.718 820.792 637.329 835.664 660.903 853.052Z" fill="#2A8001"/>
<path d="M809.157 1392.2C814.021 1058.11 694.319 736.254 495.826 478.977" stroke="#37AB00" stroke-miterlimit="10"/>
<path d="M762.01 1014.07C750.394 971.51 691.287 902.929 581.141 895.036" stroke="#37AB00" stroke-miterlimit="10"/>
<path d="M745.015 955.381C726.991 896.18 752.281 829.602 797.656 790.421" stroke="#37AB00" stroke-miterlimit="10"/>
<path d="M680.014 784.929C662.162 745.347 598.649 729.618 556.421 729.789" stroke="#37AB00" stroke-miterlimit="10"/>
<path d="M693.288 815.127C675.665 775.146 700.727 726.985 734.715 697.871" stroke="#37AB00" stroke-miterlimit="10"/>
<path d="M599.336 630.894C575.532 591.885 519.801 570.607 479.519 578.557" stroke="#37AB00" stroke-miterlimit="10"/>
<path d="M600.479 632.836C583.771 605.209 601.166 564.084 622.108 539.146" stroke="#37AB00" stroke-miterlimit="10"/>
<path d="M1094.11 1908.81C1119.97 1908.81 1155.68 1908.81 1170.84 1908.81C1186 1908.81 1229.32 1865.63 1222.45 1852.24C1215.64 1838.86 1184.52 1844.87 1182.23 1838.8C1179.94 1832.74 1222.45 1839.72 1227.03 1831.31C1231.61 1822.9 1233.09 1800.14 1203.51 1803.17C1173.93 1806.2 1146.24 1799.39 1121 1821.36C1095.65 1843.38 1094.11 1908.81 1094.11 1908.81Z" fill="#FBB1B2"/>
<path d="M1186.57 1722.18C1179.82 1764.1 1174.16 1767.42 1171.47 1785.95C1168.78 1804.49 1169.64 1834.34 1146.52 1864.32L1142.8 1863.06C1136.97 1861.11 1130.61 1861.17 1124.78 1863.11C1101.32 1871.01 1036.66 1888.4 1007.71 1851.73L1186.57 1722.18Z" fill="#2C3360"/>
<path d="M1180.45 1852.87C1188.35 1859.28 1181.65 1874.49 1168.21 1887.48C1168.04 1887.59 1167.92 1887.76 1167.81 1887.88C1166.78 1888.85 1165.75 1889.77 1164.66 1890.74C1164.6 1890.79 1164.55 1890.79 1164.49 1890.79C1152.82 1900.92 1137.14 1908.81 1121.69 1908.81H944.424C925.771 1908.81 896.818 1899.26 893.328 1874.89L1054.86 1800.25C1064.01 1811.35 1076.66 1817.07 1090.22 1819.47C1117.97 1824.44 1149.67 1815.75 1163.69 1811.12C1169.52 1809.17 1175.76 1809.4 1181.37 1811.98C1188.41 1815.24 1196.59 1821.01 1197.1 1830.68C1198.19 1847.84 1180.45 1852.87 1180.45 1852.87Z" fill="#FFC7C8"/>
<path d="M1164.49 1890.79C1152.82 1900.92 1137.14 1908.81 1121.69 1908.81H944.424C925.771 1908.81 896.818 1899.26 893.328 1874.89L1054.86 1800.25C1064.01 1811.35 1076.66 1817.07 1090.22 1819.47C1042.33 1826.62 973.263 1873.06 988.197 1882.16C1003.19 1891.2 1129.13 1885.19 1140.28 1887.19C1149.95 1888.91 1156.82 1895.83 1164.49 1890.79Z" fill="#FBB1B2"/>
<path d="M865.405 1654.17C853.732 1655.77 843.433 1657.71 834.22 1660.12C834.106 1660.17 833.934 1660.23 833.763 1660.23C831.817 1660.69 829.929 1661.2 828.041 1661.77C827.297 1661.95 826.439 1662.17 825.58 1662.46C769.22 1679.68 753.828 1715.25 689.113 1793.44C602.197 1898.4 455.145 1839.78 455.145 1839.78C375.21 1696.49 479.234 1434.75 524.666 1322.65C524.666 1322.65 614.271 1207.91 739.523 1152.14C864.718 1096.31 892.698 1166.55 892.698 1166.55C892.698 1166.55 896.875 1197.15 901.567 1243.08C915.471 1377.9 934.067 1644.67 865.405 1654.17Z" fill="#709CFC"/>
<path d="M865.405 1654.17C853.732 1655.77 839.599 1658.23 825.58 1662.46C803.208 1668.47 746.275 1684.31 728.136 1694.61C705.363 1707.59 620.336 1800.37 580.454 1800.25C566.378 1800.19 564.547 1762.67 570.784 1745.06C576.964 1727.5 728.136 1667.21 728.136 1667.21C683.62 1665.15 584.288 1631 587.378 1613.44C590.467 1595.83 678.47 1435.5 678.47 1435.5C678.47 1435.5 702.273 1360 701.301 1308.92L901.567 1243.08C915.471 1377.9 934.067 1644.67 865.405 1654.17Z" fill="#5A8FED"/>
<path d="M1067.96 1256.58C1067.96 1269.74 1067.96 1302.4 1049.31 1399.92C1043.64 1429.72 1034.32 1453.29 1024.07 1471.76C1014.75 1462.61 1006.05 1452.09 998.44 1441.28C998.325 1441.05 998.153 1440.88 998.039 1440.65C981.56 1417.02 970.459 1391.86 969.258 1375.84C969.258 1375.84 1010.68 1292.9 1004.33 1280.66C998.897 1270.14 969.258 1244.51 969.258 1244.51L982.189 1160.26L1005.42 1184.28L1016.41 1146.93L1027.11 1137.67L1027.39 1176.56C1051.71 1191.95 1067.96 1243.43 1067.96 1256.58Z" fill="#FFC7C8"/>
<path d="M1027.28 1161C1027.28 1161 1012.23 1161.29 1010.86 1165.92C1009.48 1170.56 1016.41 1146.93 1016.41 1146.93L1027.11 1137.67L1027.28 1161Z" fill="#FBB1B2"/>
<path d="M998.039 1440.65C981.56 1417.02 970.459 1391.86 969.258 1375.84C969.258 1375.84 1010.68 1293.99 1004.33 1280.66C999.241 1269.97 969.258 1244.51 969.258 1244.51V1181.54L982.189 1160.26L1005.42 1184.28C992.088 1180.17 983.391 1211.91 996.78 1241.08C1014.23 1279.23 1047.53 1267.62 1048.11 1285.58C1048.68 1303.43 972.577 1400.61 998.039 1440.65Z" fill="#FBB1B2"/>
<path d="M1094.57 1019.56C1094.57 1019.56 1076.03 1075.9 1047.02 1117.48C1027.57 1145.34 1003.88 1167.87 983.392 1177.2L983.335 1177.25C969.545 1183.49 957.243 1183.77 948.717 1175.77C907.92 1137.44 906.604 1071.72 913.585 1040.38C918.735 1016.98 944.311 966.706 982.705 943.941C995.866 936.105 1010.57 931.529 1026.42 932.387C1067.33 934.56 1113.51 974.771 1094.57 1019.56Z" fill="#FFC7C8"/>
<path d="M1038.61 1058.85C996.436 1098.95 977.897 1149.34 983.391 1177.2L983.333 1177.25C969.544 1183.49 957.241 1183.77 948.716 1175.77C907.919 1137.44 906.603 1071.72 913.583 1040.38C918.733 1016.98 944.31 966.707 982.704 943.942C1014.29 972.313 1069.56 1029.4 1038.61 1058.85Z" fill="#FBB1B2"/>
<path d="M1089.36 985.121C1069.39 1039.8 1039.01 1056.96 977.439 1114.05C977.439 1114.05 957.069 1132.06 981.959 1222.15C1009.6 1322.19 911.98 1353.19 911.98 1353.19C911.98 1353.19 904.427 1192.52 853.388 1151.97C853.388 1151.97 805.61 1104.15 684.535 1206.48C592.126 1284.55 569.754 1336.15 524.722 1322.65C524.722 1322.65 494.396 1227.76 586.977 1187.6C649.917 1160.26 608.033 1117.08 737.405 1070.52C771.794 1045.81 796.684 1003.2 837.023 939.877C863.516 898.294 929.718 873.985 975.951 894.691C1022.13 915.339 1136.97 968.305 1098.91 1002.51C1098.8 1002.45 1095.31 990.211 1089.36 985.121Z" fill="#0A1A57"/>
<path d="M1024.07 1471.77C1012.97 1491.78 1000.67 1505.86 990.371 1515.52C978.985 1526.33 970.173 1531.71 968.171 1533.71C962.677 1539.14 955.01 1553.39 936.357 1546.87C917.703 1540.29 906.774 1498.59 906.774 1498.59C880.454 1404.33 969.258 1375.84 969.258 1375.84C970.059 1385.85 974.579 1399.29 981.903 1413.77C991.859 1433.44 1006.79 1454.89 1024.07 1471.77Z" fill="#709CFC"/>
<path d="M990.371 1515.52C978.985 1526.33 970.173 1531.71 968.17 1533.71C962.677 1539.14 955.01 1553.39 936.357 1546.87C917.703 1540.29 906.774 1498.59 906.774 1498.59C880.454 1404.33 969.258 1375.84 969.258 1375.84C970.059 1385.85 974.579 1399.29 981.903 1413.77L981.731 1414.45C960.732 1445.45 958.272 1494.36 990.371 1515.52Z" fill="#5A8FED"/>
<path d="M1289 1723.03C1293.06 1731.04 1314.8 1743.62 1325.5 1769.71C1336.2 1795.79 1350.62 1786.29 1350.22 1769.71C1349.82 1753.12 1332.54 1724.98 1332.14 1723.03C1331.74 1721.09 1289 1723.03 1289 1723.03Z" fill="#FBB1B2"/>
<path d="M1377 1776.91C1377 1782.8 1377.63 1791.96 1390.27 1793.44C1392.22 1793.67 1393.99 1792.18 1393.99 1790.18V1751.23L1377 1776.91Z" fill="#FBB1B2"/>
<path d="M1389.53 1844.92H1389.65V1838.29C1389.65 1835.26 1387.53 1832.74 1384.67 1832.11C1383.81 1831.94 1383.18 1831.14 1383.06 1830.28L1382.26 1825.76C1381.92 1823.7 1380.95 1821.76 1379.46 1820.33C1373.97 1815.01 1370.88 1809.58 1370.88 1801.51V1792.36C1370.88 1791.04 1371.56 1789.9 1372.54 1789.1C1376.71 1785.55 1378.89 1779.83 1377.29 1773.66C1375.97 1768.56 1371.85 1764.45 1366.76 1763.13C1356.69 1760.56 1347.7 1768.05 1347.7 1777.66C1347.7 1782.24 1349.76 1786.3 1352.97 1789.04C1354 1789.9 1354.68 1791.1 1354.68 1792.42V1801.51C1354.68 1809.58 1351.59 1815.01 1346.1 1820.33C1344.61 1821.76 1343.7 1823.7 1343.3 1825.76L1342.5 1830.28C1342.32 1831.14 1341.75 1831.94 1340.89 1832.11C1338.03 1832.74 1335.92 1835.26 1335.92 1838.29V1844.92H1336.03C1334.31 1844.92 1332.88 1846.3 1332.88 1848.07C1332.88 1849.84 1334.26 1851.22 1336.03 1851.22H1389.59C1391.3 1851.22 1392.73 1849.84 1392.73 1848.07C1392.73 1846.3 1391.25 1844.92 1389.53 1844.92Z" fill="#353968"/>
<path d="M1399.03 1743.62L1357.2 1806.89C1357.2 1806.89 1346.04 1803.17 1350.16 1793.27C1354.28 1783.38 1362.58 1773.48 1362.58 1773.48V1764.39L1350.16 1769.76H1308.91C1304.79 1766.05 1310.97 1755.29 1310.97 1755.29L1300.21 1752.03C1301.47 1740.48 1321.73 1746.66 1321.73 1746.66H1329.97V1734.24C1322.93 1737.16 1319.21 1727.27 1319.21 1727.27C1314.69 1726.92 1310.45 1726.52 1306.45 1726.01H1306.39C1249 1718.92 1245.91 1695.69 1245.91 1695.69C994.606 1693.58 951.634 1658.17 940.877 1652.79C986.366 1650.85 1061.95 1624.94 1087.19 1582.38C1092.74 1585.53 1097.26 1587.76 1100.63 1588.62C1119.17 1593.48 1239.56 1629.86 1265.14 1636.49C1285.85 1641.81 1349.25 1660.69 1372.71 1667.67C1378.26 1669.32 1382.66 1673.56 1384.5 1679.05L1401.03 1728.07C1402.81 1733.27 1402.06 1738.99 1399.03 1743.62Z" fill="#FFC7C8"/>
<path d="M1306.39 1726.01C1249 1718.92 1245.91 1695.69 1245.91 1695.69C994.606 1693.58 951.634 1658.17 940.877 1652.79C986.366 1650.85 1061.95 1624.94 1087.19 1582.38C1063.61 1632.09 1038.61 1666.75 1109.5 1669.95C1180.4 1673.16 1239.22 1669.15 1248.09 1680.42C1256.95 1691.69 1265.65 1720.06 1306.39 1726.01Z" fill="#FBB1B2"/>
<path d="M1087.19 1582.39C1061.95 1624.94 986.366 1650.85 940.877 1652.8C931.493 1648.11 919.649 1653.26 898.134 1647.42C895.044 1646.56 891.783 1645.48 888.293 1644.16C860.37 1633.46 670.231 1310.29 690.658 1238.34C711.028 1166.44 805.84 1116.34 853.332 1151.97C861.228 1157.92 868.151 1166.33 874.159 1177.19H874.217C893.499 1211.86 904.257 1271.29 911.924 1353.19C921.48 1455.81 955.639 1521.81 955.639 1521.81C987.854 1529.42 1015.78 1541.95 1038.61 1554.13C1059.09 1565.11 1075.46 1575.81 1087.19 1582.39Z" fill="#709CFC"/>
<path d="M1038.61 1554.13V1554.19C1014.97 1540.74 960.216 1559.39 940.876 1560.42C921.536 1561.51 898.992 1525.01 874.159 1436.99C849.326 1348.96 886.347 1205.33 874.159 1177.19H874.216C893.499 1211.85 904.256 1271.28 911.923 1353.19C921.479 1455.8 955.639 1521.81 955.639 1521.81C987.853 1529.42 1015.78 1541.95 1038.61 1554.13Z" fill="#5A8FED"/>
<path d="M1178.85 1740.2C1161.57 1757.47 1141.49 1813.3 1082.78 1820.85C986.365 1833.2 846.122 1908.82 701.815 1908.82H631.55C522.834 1908.82 475.8 1882.51 455.202 1839.84C455.259 1839.84 455.373 1839.84 455.545 1839.89C455.717 1839.95 456.003 1840.07 456.403 1840.18C457.433 1840.47 459.093 1840.92 461.324 1841.44C462.182 1841.72 463.155 1841.95 464.185 1842.18H464.242C488.331 1848.02 556.594 1860.37 620.793 1833.72C621.194 1833.6 621.537 1833.43 621.938 1833.26C644.139 1823.94 665.367 1809.46 683.391 1787.73C740.095 1719.49 764.813 1689.81 806.068 1669.9C829.7 1658.52 852.931 1656.57 880.052 1647.31C927.887 1633.24 976.066 1620.14 1027.28 1607.73C1106.24 1588.51 1132.73 1617.34 1157.74 1653.77C1160.37 1657.6 1162.89 1661.44 1165.17 1665.15C1169.87 1672.59 1173.99 1679.85 1177.3 1686.77C1178.11 1688.49 1178.85 1690.15 1179.59 1691.81C1179.65 1691.87 1179.65 1691.92 1179.65 1691.98C1188.41 1712.23 1189.72 1729.33 1178.85 1740.2Z" fill="#353968"/>
<path d="M1178.85 1740.19C1161.57 1757.47 1141.49 1813.29 1082.78 1820.84C986.365 1833.2 846.122 1908.81 701.815 1908.81H631.55C522.834 1908.81 475.8 1882.5 455.202 1839.83C455.259 1839.83 455.373 1839.83 455.545 1839.89C455.717 1839.95 456.003 1840.06 456.403 1840.18C457.433 1840.46 459.093 1840.92 461.324 1841.43C462.182 1841.66 463.155 1841.89 464.185 1842.18H464.242C488.331 1848.01 556.594 1860.37 620.793 1833.71C681.732 1848.07 933.38 1767.82 969.257 1754.09C1006.96 1739.62 1053.2 1726.18 1063.78 1731.96C1074.37 1737.73 1136.91 1741.74 1153.27 1730.58C1168.26 1720.35 1186.12 1710.22 1179.65 1691.98C1188.41 1712.22 1189.72 1729.33 1178.85 1740.19Z" fill="#2C3360"/>
<path d="M2774.52 1864.49C2763.53 1851.16 2719.59 1849.9 2694.87 1841.9C2670.15 1833.95 2608.35 1811.18 2579.51 1793.45C2569.1 1787.04 2555.77 1770.46 2540.66 1747.86C2518 1767.31 2478.81 1788.76 2448.94 1799.74C2456.09 1809.24 2461.64 1817.99 2465.53 1825.77C2480.64 1855.85 2433.95 1874.21 2455.92 1908.82C2455.92 1908.82 2732 1908.82 2756.72 1908.82C2781.38 1908.82 2808.28 1905.39 2774.52 1864.49Z" fill="#FBB1B2"/>
<path d="M1671.79 1428.46C1671.79 1428.46 1670.19 1598.06 1654.46 1636.55C1651.25 1644.39 1646.05 1657.89 1639.87 1674.36H1510.61L1524.34 1610.35L1533.32 1568.43L1507 1377.33L1503.23 1333.46L1629.11 1404.38L1671.79 1428.46Z" fill="#E9AB00"/>
<path d="M1671.79 1428.46C1671.79 1428.46 1670.19 1598.06 1654.46 1636.55C1651.25 1644.39 1646.05 1657.88 1639.87 1674.36H1510.61L1524.34 1610.35C1521.54 1623.57 1587 1594.68 1590.54 1524.21C1594.09 1453.8 1537.1 1377.5 1537.1 1377.5L1629.11 1404.38L1671.79 1428.46Z" fill="#D89A00"/>
<path d="M1575.61 1848.13C1575.61 1848.13 1615.61 1738.48 1639.87 1674.36H1510.67L1505.06 1700.5L1473.36 1848.13L1455.33 1867.57C1455.33 1867.57 1373.97 1890.28 1362.81 1894.68C1351.65 1899.03 1350.22 1908.87 1350.22 1908.87C1350.22 1908.87 1547.92 1908.87 1575.67 1908.87C1603.36 1908.81 1569.94 1860.14 1575.61 1848.13Z" fill="#FBB1B2"/>
<path d="M1962.01 1081.56L1975.91 1100.72C1971.51 1093.91 1966.87 1087.45 1962.01 1081.56Z" fill="#709CFC"/>
<path d="M1780.8 1471.7C1809.81 1469.59 1828.06 1368.12 1819.48 1314.69C1810.89 1261.27 2021.69 1171.18 1962.01 1081.55C1961.95 1081.55 1961.95 1081.5 1961.95 1081.5C1957.83 1076.46 1953.54 1071.77 1949.13 1067.48C1873.72 994.555 1784.69 1039.06 1689.02 1043.69C1689.02 1043.69 1612.8 1046.43 1554.67 1055.13C1496.53 1063.77 1395.31 1073.89 1451.5 1231.93C1477.82 1305.83 1518.68 1360.51 1564.16 1406.95C1620.18 1459.41 1751.79 1473.88 1780.8 1471.7Z" fill="#E9AB00"/>
<path d="M2074.04 1384.48C2056.76 1336.49 2032.04 1186.63 1975.91 1100.72L1962.01 1081.56C2021.69 1171.19 1810.89 1261.27 1819.48 1314.7C1828.06 1368.12 1809.81 1469.59 1780.8 1471.71C1751.79 1473.88 1620.18 1459.41 1564.16 1406.96C1596.95 1440.48 1632.2 1469.76 1665.96 1498.87C1713.62 1539.94 1707.61 1596 1721.63 1628.31C1739.2 1669.04 1769.87 1681.39 1769.87 1681.39C1769.87 1681.39 2050.93 1694.66 2091.67 1529.19C2106.26 1512.2 2118.96 1486.92 2129.72 1460.27C2109.29 1441.39 2084.68 1414.11 2074.04 1384.48Z" fill="#D89A00"/>
<path d="M1667.96 1117.82C1663.89 1124.86 1659.32 1131.09 1654.45 1136.64C1628.76 1166.21 1595.46 1175.53 1584.42 1173.36L1575.26 989.296C1586.53 998.848 1598.78 1006.91 1610.91 1013.61C1650.56 1035.68 1689.01 1043.69 1689.01 1043.69C1689.01 1043.69 1693.93 1073.32 1667.96 1117.82Z" fill="#FFC7C8"/>
<path d="M1654.45 1136.64C1628.76 1166.21 1595.46 1175.53 1584.42 1173.36L1575.26 989.296C1586.53 998.848 1598.78 1006.91 1610.91 1013.61C1600.32 1048.72 1610.74 1103.01 1654.45 1136.64Z" fill="#FBB1B2"/>
<path d="M1366.24 1085.96C1339.35 1088.59 1323.73 1055.53 1336.66 1036.89C1343.36 1027.16 1356.8 1021.56 1358.63 1009.89C1359.95 1001.48 1354.51 993.702 1352.05 985.637C1347.19 969.679 1355.31 950.746 1370.25 943.253C1362.35 936.39 1363.15 923.234 1369.16 914.654C1376.94 903.501 1390.68 897.895 1419.11 883.596C1448.92 868.667 1456.93 885.884 1454.76 893.377C1467.23 873.014 1520.1 865.006 1544.71 896.465C1555.24 909.964 1546.37 917.629 1587.34 981.805C1554.44 1028.65 1568.11 1059.82 1481.02 1069.38C1358.92 1082.7 1383.41 1084.3 1366.24 1085.96Z" fill="#0A1A57"/>
<path d="M1392.96 1075.55C1419.69 1143.68 1538.36 1214.94 1572.17 1187.66C1605.99 1160.38 1602.04 1085.79 1598.15 1069.2C1594.26 1052.62 1580.76 1033.63 1580.76 1033.63C1580.76 1033.63 1592.32 1038.55 1595.23 1018.3C1598.15 998.049 1585.11 950.517 1558.38 959.383C1531.61 968.249 1551.23 1004.74 1547.57 1012.35C1543.91 1020.01 1529.83 1032.88 1529.83 1032.88C1529.83 1032.88 1511.87 1028.71 1491.72 1041.81C1471.58 1054.9 1469.58 1009.83 1462.66 1012.35C1446.18 1018.35 1392.96 1075.55 1392.96 1075.55Z" fill="#FFC7C8"/>
<path d="M1478.85 1828.45C1490.01 1832.57 1503.68 1818.55 1503.22 1790.35L1473.13 1774.45L1478.85 1828.45Z" fill="#FBB1B2"/>
<path d="M1508.95 1874.21H1509.06V1867.57C1509.06 1864.54 1506.94 1862.03 1504.08 1861.4C1503.23 1861.22 1502.6 1860.42 1502.48 1859.57L1501.68 1855.05C1501.34 1852.99 1500.36 1851.04 1498.88 1849.61C1493.38 1844.29 1490.29 1838.86 1490.29 1830.79V1821.64C1490.29 1820.33 1490.98 1819.18 1491.95 1818.38C1496.13 1814.84 1498.3 1809.12 1496.7 1802.94C1495.39 1797.85 1491.27 1793.73 1486.17 1792.41C1476.1 1789.84 1467.12 1797.33 1467.12 1806.94C1467.12 1811.52 1469.18 1815.58 1472.38 1818.33C1473.41 1819.18 1474.1 1820.38 1474.1 1821.7V1830.79C1474.1 1838.86 1471.01 1844.29 1465.52 1849.61C1464.03 1851.04 1463.12 1852.99 1462.71 1855.05L1461.91 1859.57C1461.74 1860.42 1461.17 1861.22 1460.31 1861.4C1457.45 1862.03 1455.33 1864.54 1455.33 1867.57V1874.21H1455.45C1453.73 1874.21 1452.3 1875.58 1452.3 1877.35C1452.3 1879.13 1453.67 1880.5 1455.45 1880.5H1509C1510.72 1880.5 1512.15 1879.13 1512.15 1877.35C1512.15 1875.58 1510.66 1874.21 1508.95 1874.21Z" fill="#353968"/>
<path d="M1872.23 1659.43C1846.37 1669.9 1820.33 1677.73 1798.48 1681.39C1736.51 1691.75 1666.99 1675.73 1621.5 1695.75L1608.28 1714.85C1606.16 1717.89 1603.24 1720.23 1599.81 1721.55L1576.69 1730.75V1752.72C1576.69 1761.41 1570.69 1769.13 1562.1 1770.91C1560.16 1771.37 1557.93 1771.59 1555.52 1771.71C1555.52 1771.71 1551.92 1783.83 1531.66 1782.52C1531.66 1782.52 1527.6 1794.65 1512.72 1792.87C1498.36 1791.1 1474.67 1775.43 1473.19 1774.45C1473.93 1776.46 1493.5 1826.33 1471.3 1835.2C1468.04 1836.51 1464.26 1834.97 1462.66 1831.82L1454.53 1815.58C1453.5 1813.52 1453.22 1812.66 1452.99 1811.75L1442.4 1767.25C1442.17 1766.33 1442.06 1765.36 1442.06 1764.39V1693.75C1442.06 1686.25 1446.52 1679.56 1453.45 1676.7C1482.34 1664.81 1558.38 1632.83 1590.2 1613.73C1629.79 1589.88 1680.89 1571.57 1713.1 1558.7C1732.16 1551.1 1752.3 1530.79 1775.7 1513C1806.66 1532.96 1844.82 1572.32 1862.79 1610.35C1870.97 1627.63 1874.98 1644.67 1872.23 1659.43Z" fill="#FFC7C8"/>
<path d="M1872.23 1659.43C1846.37 1669.89 1820.33 1677.73 1798.47 1681.39C1736.5 1691.74 1666.98 1675.73 1621.49 1695.75L1608.28 1714.85C1606.16 1717.88 1603.24 1720.23 1599.81 1721.54L1576.69 1730.75C1576.69 1715.31 1576.98 1714.39 1587.39 1712.96C1597.81 1711.53 1614.34 1687.17 1618.58 1681.39C1622.87 1675.61 1719.85 1671.32 1782.28 1648.16C1844.71 1624.99 1862.79 1610.35 1862.79 1610.35C1870.97 1627.62 1874.97 1644.67 1872.23 1659.43Z" fill="#FBB1B2"/>
<path d="M2002.92 1501.96C2000.57 1538.69 1995.37 1568.43 1985.35 1583.47C1966.3 1612.01 1919.61 1640.21 1872.23 1659.43C1874.98 1644.67 1870.97 1627.63 1862.79 1610.36H1862.73C1844.82 1572.32 1806.66 1532.97 1775.7 1513C1792.01 1500.59 1809.92 1489.38 1830.17 1484.52C1838.19 1468.45 1824.8 1352.11 1819.47 1314.7C1814.1 1277.23 1790.01 1267.05 1783.37 1240.05C1776.67 1213.06 1791.38 1105.01 1878.3 1081.5C1965.27 1057.93 1992.05 1167.58 1997.37 1267.85C2000.92 1334.03 2007.32 1430.98 2002.92 1501.96Z" fill="#E9AB00"/>
<path d="M2002.92 1501.97C2000.57 1538.69 1995.37 1568.43 1985.35 1583.47C1966.3 1612.02 1919.61 1640.21 1872.23 1659.43C1874.98 1644.68 1870.97 1627.63 1862.79 1610.36C1932.25 1570.49 2001.43 1545.95 2002.86 1501.85C2002.86 1501.85 2002.86 1501.91 2002.92 1501.97Z" fill="#D89A00"/>
<path d="M2540.61 1747.86C2517.95 1767.31 2478.75 1788.76 2448.88 1799.74C2436.18 1782.81 2418.21 1763.48 2394.87 1742.71C2359.05 1710.85 2310.47 1675.79 2248.5 1641.36C2123.48 1572.03 2157.81 1508.89 2132.63 1471.94C2107.46 1434.93 2039.83 1367.49 2094.64 1309.78C2157.81 1243.32 2245.76 1305.66 2288.33 1355.6C2366.95 1421.26 2392.07 1488.3 2431.2 1562.02C2431.26 1562.2 2431.38 1562.37 2431.49 1562.54C2436.98 1572.89 2442.76 1583.36 2449 1594C2461.7 1615.68 2474.46 1637.93 2486.88 1659.32C2486.88 1659.38 2486.93 1659.38 2486.93 1659.43C2506.05 1692.55 2524.41 1723.67 2540.61 1747.86Z" fill="#243E9F"/>
<path d="M2540.6 1747.86C2517.95 1767.31 2478.75 1788.76 2448.88 1799.74C2436.18 1782.81 2418.21 1763.48 2394.87 1742.71C2333.64 1651.66 2269.33 1440.25 2262.23 1381.62C2256.45 1333.98 2347.38 1428.87 2431.2 1562.03C2431.26 1562.2 2431.37 1562.37 2431.49 1562.54C2450.71 1593.2 2469.65 1625.92 2486.88 1659.32C2486.88 1659.38 2486.93 1659.38 2486.93 1659.43C2506.04 1692.55 2524.41 1723.67 2540.6 1747.86Z" fill="#183284"/>
<path d="M1785.66 1641.35C1785.66 1641.35 1920.29 1666.24 1937.8 1661.55C1955.37 1656.86 2032.67 1632.15 2069.58 1578.72L2085.03 1730.7L1804.31 1666.12L1785.66 1641.35Z" fill="#183284"/>
<path d="M2181.21 1908.81C2115.3 1908.81 2086.92 1872.15 2083.65 1841.89C2082.4 1830.11 2077.3 1768.28 2071.24 1693.98C2061.74 1577.81 2049.78 1431.15 2046.23 1397.69C2040.45 1342.78 2069.92 1322.19 2110.32 1296.22C2110.32 1296.22 2144.88 1339.58 2185.33 1401.07C2234.14 1475.42 2291.65 1576.32 2307.21 1659.43C2335.65 1811.35 2247.13 1908.81 2181.21 1908.81Z" fill="#243E9F"/>
<path d="M2181.21 1908.82C2115.3 1908.82 2086.92 1872.15 2083.66 1841.9C2082.4 1830.11 2077.3 1768.28 2071.24 1693.98C2091.61 1703.53 2128.06 1719.72 2132.64 1714.8C2139.04 1707.94 2112.49 1574.78 2112.49 1540.35C2112.49 1505.86 2112.67 1444.94 2102.08 1430.24L2185.33 1401.07C2234.14 1475.43 2291.65 1576.32 2307.21 1659.43C2335.65 1811.35 2247.13 1908.82 2181.21 1908.82Z" fill="#183284"/>
<path d="M2655.39 1835.66C2655.33 1836.11 2655.22 1836.57 2655.1 1836.97C2648.81 1864.88 2622.66 1908.81 2604.23 1908.81H2348.75C2361.4 1908.81 2372.38 1890.17 2376.44 1870.03C2380.56 1849.96 2377.76 1828.39 2362.66 1822.44C2376.79 1826.68 2387.66 1829.19 2394.07 1829.19C2435.27 1829.19 2550.62 1762.9 2579.46 1749.17C2608.35 1735.39 2628.95 1743.62 2638.56 1774.4C2646.98 1801.34 2617.51 1802.14 2610.01 1801.91C2616.71 1802.31 2641.77 1804.6 2653.67 1816.44C2656.99 1819.75 2657.28 1826.79 2655.39 1835.66Z" fill="#FFC7C8"/>
<path d="M2376.44 1870.03C2372.38 1890.17 2361.4 1908.81 2348.75 1908.81H1961.49C1859.87 1908.81 1763.11 1868.66 1732.44 1817.81C1725.98 1807.12 1720.31 1795.56 1716.08 1783.32C1715.62 1782.06 1715.22 1780.86 1714.82 1779.55C1705.04 1749.35 1704.01 1715.48 1721.06 1681.62C1729.07 1665.72 1767.06 1625.45 1810.89 1648.16C1875.55 1681.62 1869.43 1651.65 2016.19 1694.61C2109.69 1722.01 2281.92 1797.51 2360.08 1821.64C2360.31 1821.7 2360.48 1821.76 2360.71 1821.82C2361.34 1822.04 2362.02 1822.22 2362.65 1822.45C2377.76 1828.39 2380.56 1849.96 2376.44 1870.03Z" fill="#243E9F"/>
<path d="M2604.23 1908.81H2348.75C2361.4 1908.81 2372.38 1890.17 2376.44 1870.03H2475.09C2505.3 1870.03 2575.34 1830.22 2608.35 1835.66C2639.48 1840.86 2622.66 1908.81 2604.23 1908.81Z" fill="#FBB1B2"/>
<path d="M2376.45 1870.04C2372.38 1890.17 2361.4 1908.82 2348.75 1908.82H1961.49C1859.87 1908.82 1763.12 1868.66 1732.45 1817.81C1725.98 1807.12 1720.32 1795.56 1716.08 1783.32C1730.33 1820.62 1769.64 1772.57 1784.29 1775.09C1799.39 1777.72 1850.2 1776.63 1868.05 1806.89C1885.91 1837.15 1942.21 1901.55 2052.07 1878.21C2161.93 1854.88 2291.07 1870.04 2376.45 1870.04Z" fill="#183284"/>
<path d="M1671.79 1908.82H1257.76V1885.71C1257.76 1882.79 1260.1 1880.45 1263.02 1880.45H1666.47C1669.39 1880.45 1671.73 1882.79 1671.73 1885.71V1908.82H1671.79Z" fill="#353968"/>
</g>
<defs>
<clipPath id="clip0">
<rect width="3000" height="1908.3" fill="white" transform="translate(0.735352 0.570312)"/>
</clipPath>
</defs>
</svg>
