<?xml version="1.0" encoding="UTF-8" standalone="no"?>
<svg
   xmlns:dc="http://purl.org/dc/elements/1.1/"
   xmlns:cc="http://creativecommons.org/ns#"
   xmlns:rdf="http://www.w3.org/1999/02/22-rdf-syntax-ns#"
   xmlns:svg="http://www.w3.org/2000/svg"
   xmlns="http://www.w3.org/2000/svg"
   xmlns:sodipodi="http://sodipodi.sourceforge.net/DTD/sodipodi-0.dtd"
   xmlns:inkscape="http://www.inkscape.org/namespaces/inkscape"
   sodipodi:docname="cke.svg"
   inkscape:version="1.0 (6e3e5246a0, 2020-05-07)"
   id="svg8"
   version="1.1"
   viewBox="0 0 4.4979168 3.1750001"
   height="12"
   width="17">
  <defs
     id="defs2">
    <clipPath
       id="clipPath105"
       clipPathUnits="userSpaceOnUse">
      <path
         d="M 9.4540946e-5,0.03093023 V 12.784991 C 0.48961335,12.77433 0.97907315,12.761077 1.4688446,12.763074 c 0.248876,0.001 0.4986617,-0.0235 0.7460937,0.0066 1.9897328,0.241735 1.7467514,0.20551 3.0859374,0.591785 0.408032,0.101817 0.8021142,0.225798 1.1914063,0.359454 1.4401169,2e-6 2.8801958,-3e-6 4.320313,0 1.029962,-3.31e-4 2.059882,8.9e-5 3.089844,0 0.698863,5.4e-5 1.398317,1.9e-5 2.097656,0 V 0.03093023 Z"
         style="fill-opacity:1;fill-rule:nonzero;stroke:none;stroke-width:1"
         id="path107" />
    </clipPath>
  </defs>
  <sodipodi:namedview
     inkscape:window-maximized="0"
     inkscape:window-y="123"
     inkscape:window-x="199"
     inkscape:window-height="801"
     inkscape:window-width="1522"
     units="px"
     showgrid="false"
     inkscape:document-rotation="0"
     inkscape:current-layer="layer1"
     inkscape:document-units="mm"
     inkscape:cy="59.786126"
     inkscape:cx="44.560467"
     inkscape:zoom="3.959798"
     inkscape:pageshadow="2"
     inkscape:pageopacity="0.0"
     borderopacity="1.0"
     bordercolor="#666666"
     pagecolor="#ffffff"
     id="base" />
  <metadata
     id="metadata5">
    <rdf:RDF>
      <cc:Work
         rdf:about="">
        <dc:format>image/svg+xml</dc:format>
        <dc:type
           rdf:resource="http://purl.org/dc/dcmitype/StillImage" />
        <dc:title></dc:title>
      </cc:Work>
    </rdf:RDF>
  </metadata>
  <g
     id="layer1"
     inkscape:groupmode="layer"
     inkscape:label="Слой 1">
    <g
       transform="matrix(0.26458333,0,0,0.2357721,0.28057802,0.25574055)"
       id="g21"
       style="fill:none">
      <path
         clip-path="url(#clipPath105)"
         d="M 5.4375,11.7188 0.21875,6.53125 C 0.0729167,6.38542 0,6.19792 0,5.96875 0,5.73958 0.0729167,5.55208 0.21875,5.40625 L 1.375,4.28125 c 0.14583,-0.16667 0.32292,-0.25 0.53125,-0.25 0.22917,0 0.42708,0.08333 0.59375,0.25 l 3.5,3.5 7.5,-7.5 c 0.1667,-0.166667 0.3542,-0.25 0.5625,-0.25 0.2292,0 0.4167,0.083333 0.5625,0.25 l 1.1562,1.125 C 15.9271,1.55208 16,1.73958 16,1.96875 16,2.19792 15.9271,2.38542 15.7812,2.53125 L 6.5625,11.7188 c -0.14583,0.1666 -0.33333,0.25 -0.5625,0.25 -0.22917,0 -0.41667,-0.0834 -0.5625,-0.25 z m 0,35 -5.21875,-5.1876 C 0.0729167,41.3854 0,41.1979 0,40.9688 0,40.7396 0.0729167,40.5521 0.21875,40.4062 L 1.375,39.2812 c 0.14583,-0.1666 0.32292,-0.25 0.53125,-0.25 0.22917,0 0.42708,0.0834 0.59375,0.25 l 3.5,3.5 7.5,-7.5 c 0.1667,-0.1666 0.3542,-0.25 0.5625,-0.25 0.2292,0 0.4167,0.0834 0.5625,0.25 l 1.1562,1.125 C 15.9271,36.5521 16,36.7396 16,36.9688 c 0,0.2291 -0.0729,0.4166 -0.2188,0.5624 l -9.2187,9.1876 c -0.14583,0.1666 -0.33333,0.25 -0.5625,0.25 -0.22917,0 -0.41667,-0.0834 -0.5625,-0.25 z m 0,35 -5.21875,-5.1876 C 0.0729167,76.3854 0,76.1979 0,75.9688 0,75.7396 0.0729167,75.5521 0.21875,75.4062 L 1.375,74.2812 c 0.14583,-0.1666 0.32292,-0.25 0.53125,-0.25 0.22917,0 0.42708,0.0834 0.59375,0.25 l 3.5,3.5 7.5,-7.5 c 0.1667,-0.1666 0.3542,-0.25 0.5625,-0.25 0.2292,0 0.4167,0.0834 0.5625,0.25 l 1.1562,1.125 C 15.9271,71.5521 16,71.7396 16,71.9688 c 0,0.2291 -0.0729,0.4166 -0.2188,0.5624 l -9.2187,9.1876 c -0.14583,0.1666 -0.33333,0.25 -0.5625,0.25 -0.22917,0 -0.41667,-0.0834 -0.5625,-0.25 z m 0,35.0002 -5.21875,-5.188 C 0.0729167,111.385 0,111.198 0,110.969 0,110.74 0.0729167,110.552 0.21875,110.406 L 1.375,109.281 c 0.14583,-0.166 0.32292,-0.25 0.53125,-0.25 0.22917,0 0.42708,0.084 0.59375,0.25 l 3.5,3.5 7.5,-7.5 c 0.1667,-0.166 0.3542,-0.25 0.5625,-0.25 0.2292,0 0.4167,0.084 0.5625,0.25 l 1.1562,1.125 c 0.1459,0.146 0.2188,0.334 0.2188,0.563 0,0.229 -0.0729,0.416 -0.2188,0.562 l -9.2187,9.188 c -0.14583,0.166 -0.33333,0.25 -0.5625,0.25 -0.22917,0 -0.41667,-0.084 -0.5625,-0.25 z m 0,35 -5.21875,-5.188 C 0.0729167,146.385 0,146.198 0,145.969 0,145.74 0.0729167,145.552 0.21875,145.406 L 1.375,144.281 c 0.14583,-0.166 0.32292,-0.25 0.53125,-0.25 0.22917,0 0.42708,0.084 0.59375,0.25 l 3.5,3.5 7.5,-7.5 c 0.1667,-0.166 0.3542,-0.25 0.5625,-0.25 0.2292,0 0.4167,0.084 0.5625,0.25 l 1.1562,1.125 c 0.1459,0.146 0.2188,0.334 0.2188,0.563 0,0.229 -0.0729,0.416 -0.2188,0.562 l -9.2187,9.188 c -0.14583,0.166 -0.33333,0.25 -0.5625,0.25 -0.22917,0 -0.41667,-0.084 -0.5625,-0.25 z"
         fill="#000"
         id="path10" />
    </g>
  </g>
</svg>
