<svg width="16" height="17" viewBox="0 0 16 17" fill="none" xmlns="http://www.w3.org/2000/svg">
<path d="M10.3926 8.625L15.6172 13.8984C16.0078 14.2565 16.0078 14.6146 15.6172 14.9727L14.3965 16.1934C14.0384 16.584 13.6803 16.584 13.3223 16.1934L8.04883 10.9688L2.77539 16.1934C2.41732 16.584 2.05924 16.584 1.70117 16.1934L0.480469 14.9727C0.0898438 14.6146 0.0898438 14.2565 0.480469 13.8984L5.70508 8.625L0.480469 3.35156C0.0898438 2.99349 0.0898438 2.63542 0.480469 2.27734L1.70117 1.05664C2.05924 0.666016 2.41732 0.666016 2.77539 1.05664L8.04883 6.28125L13.3223 1.05664C13.6803 0.666016 14.0384 0.666016 14.3965 1.05664L15.6172 2.27734C16.0078 2.63542 16.0078 2.99349 15.6172 3.35156L10.3926 8.625Z" fill="#5E72E4"/>
</svg>
