<svg width="34" height="34" viewBox="0 0 34 34" fill="none" xmlns="http://www.w3.org/2000/svg">
<g clip-path="url(#clip0)">
<path d="M33.7313 14.5561C33.481 14.2886 33.104 14.1801 32.7501 14.2734C31.3942 14.6308 29.9533 14.6399 28.5832 14.2997C26.2746 13.7266 24.3736 12.2628 23.2304 10.178C22.0858 8.09062 21.874 5.69601 22.634 3.43528C22.7507 3.08811 22.6674 2.70481 22.4172 2.43739C22.1669 2.16991 21.7899 2.06147 21.4359 2.1547C17.7517 3.12569 14.8933 6.02373 13.9761 9.71791C13.6702 10.9497 13.5908 12.1964 13.737 13.4355C12.937 13.6051 12.1814 13.9621 11.5422 14.482C11.0522 14.8806 10.6409 15.3653 10.3272 15.906C9.65049 15.4868 8.86198 15.2549 8.05063 15.2549C6.95851 15.2549 5.91607 15.6634 5.11534 16.4053C4.55255 16.9266 4.14435 17.5793 3.92248 18.2981C1.72596 18.4995 0 20.3521 0 22.6003C0 23.8382 0.53198 25.0181 1.45954 25.8374C2.14904 26.4464 3.0092 26.8141 3.91027 26.9005C4.44543 28.69 6.11289 29.9868 8.05063 29.9868C8.86942 29.9868 9.66443 29.7507 10.3448 29.3248C10.6597 29.8589 11.07 30.3374 11.5572 30.7306C12.4739 31.4706 13.6286 31.8781 14.8086 31.8781C15.9886 31.8781 17.1432 31.4706 18.06 30.7306C18.5472 30.3374 18.9575 29.8589 19.2724 29.3248C19.9528 29.7508 20.7478 29.9868 21.5666 29.9868C23.5043 29.9868 25.1718 28.69 25.7069 26.9005C26.6079 26.8141 27.4682 26.4463 28.1576 25.8374C29.0852 25.018 29.6172 23.8382 29.6172 22.6003C29.6172 22.1149 29.5343 21.639 29.3791 21.1897C31.5159 19.9233 33.1538 17.9172 33.9481 15.554C34.0648 15.2068 33.9815 14.8236 33.7313 14.5561ZM26.8388 24.3442C26.338 24.7865 25.6697 24.993 25.0055 24.9102C24.7341 24.8767 24.4605 24.9559 24.2492 25.1299C24.038 25.3039 23.9076 25.5571 23.8888 25.8301C23.805 27.0438 22.785 27.9946 21.5666 27.9946C20.8182 27.9946 20.134 27.6481 19.6897 27.0439C19.4588 26.73 19.0661 26.5797 18.6847 26.6588C18.3033 26.738 18.003 27.0323 17.9162 27.4121C17.5833 28.8687 16.3055 29.8859 14.8086 29.8859C13.3117 29.8859 12.0338 28.8687 11.701 27.4122C11.6142 27.0324 11.3139 26.738 10.9325 26.6588C10.8649 26.6448 10.7971 26.638 10.7299 26.638C10.4171 26.638 10.1175 26.7856 9.92754 27.0438C9.48308 27.648 8.79896 27.9945 8.05063 27.9945C6.83221 27.9945 5.81214 27.0438 5.7284 25.8301C5.70954 25.5571 5.57919 25.3038 5.36795 25.1298C5.15671 24.9557 4.88332 24.8765 4.61165 24.9101C3.94739 24.993 3.27927 24.7865 2.77837 24.3441C2.27143 23.8964 1.99219 23.277 1.99219 22.6003C1.99219 21.3166 3.03656 20.2722 4.32026 20.2722C4.41821 20.2722 4.51689 20.2784 4.61364 20.2904C4.88318 20.3242 5.15498 20.2465 5.36589 20.0751C5.57673 19.9037 5.70848 19.6536 5.73046 19.3828C5.82781 18.1852 6.84695 17.247 8.05056 17.247C8.79571 17.247 9.4781 17.5911 9.92262 18.191C10.155 18.5046 10.5493 18.6537 10.931 18.5721C11.3128 18.4905 11.6117 18.1935 11.6957 17.8123C12.0146 16.365 13.3238 15.3144 14.8085 15.3144C16.2932 15.3144 17.6024 16.3649 17.9213 17.8123C18.0053 18.1935 18.3042 18.4905 18.686 18.5721C19.0676 18.6536 19.4619 18.5046 19.6944 18.191C20.139 17.591 20.8213 17.247 21.5664 17.247C22.77 17.247 23.7892 18.1851 23.8865 19.3828C23.9086 19.6536 24.0403 19.9037 24.2511 20.075C24.462 20.2464 24.7337 20.3243 25.0033 20.2904C25.6678 20.207 26.3366 20.4131 26.838 20.8556C27.3454 21.3034 27.6249 21.923 27.6249 22.6002C27.625 23.277 27.3458 23.8964 26.8388 24.3442ZM28.3104 19.5055C28.2602 19.4566 28.209 19.4085 28.1562 19.3619C27.4638 18.7508 26.5997 18.383 25.6949 18.2988C25.4731 17.5797 25.0648 16.9268 24.5019 16.4053C23.7012 15.6635 22.6587 15.2549 21.5666 15.2549C20.7553 15.2549 19.9667 15.4869 19.29 15.906C18.9762 15.3654 18.565 14.8807 18.075 14.4821C17.3993 13.9325 16.5935 13.5652 15.7427 13.4086C15.5899 12.3402 15.6452 11.2626 15.9095 10.198C16.5082 7.78661 18.1298 5.79469 20.3001 4.70304C19.999 6.90295 20.4042 9.16747 21.4836 11.1359C22.8769 13.6768 25.2896 15.5348 28.1032 16.2333C29.1588 16.4954 30.2488 16.5897 31.3266 16.5163C30.5963 17.7461 29.5561 18.7797 28.3104 19.5055Z" fill="#DFE4FF"/>
</g>
<defs>
<clipPath id="clip0">
<rect width="34" height="34" fill="white"/>
</clipPath>
</defs>
</svg>
