<svg width="34" height="34" viewBox="0 0 34 34" fill="none" xmlns="http://www.w3.org/2000/svg">
<path d="M20.329 6.16867H20.3384C20.8885 6.16363 21.3304 5.71351 21.3253 5.16345L21.3005 2.46694C21.2955 1.91994 20.8506 1.47998 20.3047 1.47998C20.3015 1.47998 20.2983 1.47998 20.2953 1.47998C19.7452 1.48503 19.3033 1.93514 19.3084 2.4852L19.3332 5.18171C19.3381 5.72872 19.7831 6.16867 20.329 6.16867Z" fill="#5E72E4"/>
<path d="M33.0041 13.9482C33.001 13.9482 32.9979 13.9482 32.9947 13.9482L30.2982 13.973C29.7481 13.9781 29.3062 14.4281 29.3113 14.9782C29.3163 15.5252 29.7612 15.9652 30.3072 15.9652H30.3165L33.0131 15.9404C33.5632 15.9354 34.0051 15.4853 34 14.9352C33.995 14.3882 33.55 13.9482 33.0041 13.9482Z" fill="#5E72E4"/>
<path d="M27.3471 9.00044C27.6051 9.00044 27.863 8.90082 28.058 8.70219L29.9472 6.77795C30.3327 6.38534 30.3268 5.75466 29.9343 5.36929C29.5417 4.98386 28.9111 4.9897 28.5256 5.38224L26.6364 7.30649C26.2509 7.6991 26.2568 8.32978 26.6493 8.71514C26.8433 8.90554 27.0953 9.00044 27.3471 9.00044Z" fill="#5E72E4"/>
<path d="M12.6665 8.8435C12.8604 9.03389 13.1124 9.12879 13.3643 9.12879C13.6223 9.12879 13.8802 9.02917 14.0752 8.83055C14.4607 8.43794 14.4548 7.80726 14.0623 7.4219L12.138 5.53265C11.7455 5.14721 11.1147 5.15299 10.7294 5.5456C10.344 5.9382 10.3498 6.56888 10.7423 6.95425L12.6665 8.8435Z" fill="#5E72E4"/>
<path d="M23.7568 6.81816C23.8793 6.86777 24.0058 6.89121 24.1303 6.89121C24.5241 6.89121 24.8971 6.65606 25.0539 6.26863L26.0659 3.76909C26.2723 3.25914 26.0263 2.6784 25.5164 2.47194C25.0067 2.26561 24.4257 2.51152 24.2193 3.02147L23.2074 5.52101C23.0008 6.03096 23.247 6.6117 23.7568 6.81816Z" fill="#5E72E4"/>
<path d="M32.4586 18.8591L29.959 17.8472C29.4495 17.6408 28.8684 17.8867 28.6619 18.3967C28.4555 18.9067 28.7015 19.4874 29.2114 19.6939L31.7109 20.7058C31.8334 20.7554 31.9599 20.7789 32.0844 20.7789C32.4782 20.7789 32.8512 20.5437 33.008 20.1563C33.2146 19.6464 32.9685 19.0656 32.4586 18.8591Z" fill="#5E72E4"/>
<path d="M8.38163 11.2606L10.8812 12.2725C11.0036 12.3222 11.1302 12.3456 11.2547 12.3456C11.6485 12.3456 12.0214 12.1105 12.1783 11.723C12.3848 11.2131 12.1387 10.6323 11.6288 10.4259L9.12925 9.41387C8.61944 9.20747 8.03863 9.45338 7.8321 9.9634C7.62564 10.4733 7.87168 11.0541 8.38163 11.2606Z" fill="#5E72E4"/>
<path d="M28.6072 11.5913C28.7681 11.9711 29.1369 12.1992 29.5249 12.1992C29.6544 12.1992 29.7862 12.1737 29.9129 12.12L32.396 11.0682C32.9026 10.8536 33.1393 10.269 32.9247 9.7624C32.7102 9.25583 32.1255 9.01909 31.619 9.23372L29.1359 10.2856C28.6293 10.5001 28.3927 11.0848 28.6072 11.5913Z" fill="#5E72E4"/>
<path d="M15.646 6.34405C15.8068 6.72383 16.1757 6.95188 16.5636 6.95188C16.6932 6.95188 16.8249 6.92645 16.9517 6.87272C17.4583 6.65816 17.695 6.0735 17.4804 5.56694L16.4285 3.08393C16.2139 2.57737 15.6293 2.34055 15.1227 2.55532C14.6161 2.76988 14.3794 3.35454 14.5941 3.8611L15.646 6.34405Z" fill="#5E72E4"/>
<path d="M28.1571 20.0039C27.7198 19.6179 27.2137 19.3293 26.6724 19.1475C27.4755 17.9189 27.9044 16.4734 27.8908 14.9913C27.8533 10.8951 24.5091 7.58887 20.4212 7.58887C20.398 7.58887 20.3747 7.58893 20.3515 7.58913C16.5296 7.62426 13.3689 10.539 12.9878 14.2968C12.4674 14.4922 11.9779 14.7699 11.5426 15.1239C11.0526 15.5225 10.6413 16.0072 10.3276 16.5478C9.65092 16.1287 8.86226 15.8967 8.05095 15.8967C6.95879 15.8967 5.91632 16.3052 5.11557 17.0471C4.55275 17.5685 4.14454 18.2212 3.92267 18.94C1.72602 19.1415 0 20.9941 0 23.2423C0 24.4803 0.531997 25.6602 1.45952 26.4795C2.14904 27.0885 3.00929 27.4563 3.91039 27.5428C4.44557 29.3323 6.11308 30.6291 8.05088 30.6291C8.86976 30.6291 9.66467 30.3932 10.3451 29.9671C10.66 30.5013 11.0703 30.9798 11.5576 31.373C12.4743 32.113 13.629 32.5205 14.8091 32.5205C15.9891 32.5205 17.1438 32.113 18.0605 31.373C18.5478 30.9797 18.9581 30.5013 19.2731 29.9671C19.9534 30.3932 20.7483 30.6291 21.5672 30.6291C23.5051 30.6291 25.1725 29.3323 25.7078 27.5428C26.6087 27.4563 27.4691 27.0885 28.1586 26.4796C29.0861 25.6602 29.6181 24.4803 29.6181 23.2423C29.6181 22.0036 29.0856 20.8232 28.1571 20.0039ZM20.3697 9.58132C20.387 9.58118 20.4042 9.58105 20.4214 9.58105C21.8655 9.58105 23.2264 10.1372 24.2584 11.1504C25.3027 12.1756 25.8852 13.5462 25.8986 15.0096C25.9076 15.9995 25.6482 16.9672 25.1571 17.8125C24.9711 17.5354 24.7521 17.2784 24.5026 17.0472C23.7018 16.3054 22.6593 15.8967 21.5672 15.8967C20.7559 15.8967 19.9673 16.1288 19.2906 16.5479C18.9768 16.0072 18.5656 15.5225 18.0755 15.124C17.2183 14.4267 16.152 14.0219 15.0498 13.9702C15.5526 11.4752 17.749 9.60536 20.3697 9.58132ZM26.8397 24.9863C26.3389 25.4287 25.6707 25.6351 25.0063 25.5523C24.7342 25.5184 24.4611 25.598 24.2499 25.772C24.0387 25.946 23.9083 26.1993 23.8895 26.4723C23.8057 27.686 22.7857 28.6368 21.5672 28.6368C20.8188 28.6368 20.1347 28.2903 19.6902 27.686C19.4593 27.3722 19.0667 27.2219 18.6852 27.301C18.3037 27.3802 18.0034 27.6745 17.9167 28.0544C17.5838 29.5109 16.3059 30.5282 14.809 30.5282C13.3121 30.5282 12.0341 29.5109 11.7013 28.0544C11.6145 27.6746 11.3142 27.3802 10.9327 27.301C10.8652 27.287 10.7973 27.2801 10.7301 27.2801C10.4174 27.2801 10.1178 27.4278 9.92778 27.686C9.48331 28.2903 8.79917 28.6368 8.05081 28.6368C6.83235 28.6368 5.81225 27.686 5.72851 26.4723C5.70965 26.1993 5.57929 25.946 5.36812 25.772C5.15687 25.5979 4.88334 25.5186 4.61179 25.5523C3.94744 25.6351 3.27931 25.4287 2.77839 24.9862C2.27143 24.5385 1.99225 23.9191 1.99225 23.2423C1.99225 21.9586 3.03665 20.9142 4.32039 20.9142C4.41834 20.9142 4.51716 20.9203 4.61412 20.9324C4.88353 20.966 5.15534 20.8883 5.36619 20.7169C5.57697 20.5455 5.70866 20.2955 5.73071 20.0247C5.82806 18.827 6.84723 17.8889 8.05088 17.8889C8.79605 17.8889 9.47846 18.233 9.923 18.8329C10.1554 19.1466 10.5496 19.2957 10.9314 19.214C11.3132 19.1324 11.6122 18.8354 11.6962 18.4542C12.0151 17.0068 13.3243 15.9563 14.8091 15.9563C16.2939 15.9563 17.6031 17.0068 17.922 18.4542C18.006 18.8354 18.305 19.1325 18.6868 19.214C19.0687 19.2956 19.4628 19.1465 19.6952 18.8329C20.1397 18.2329 20.8221 17.8888 21.5672 17.8888C22.7709 17.8888 23.7901 18.8269 23.8875 20.0246C23.9095 20.2954 24.0411 20.5455 24.252 20.7169C24.4629 20.8883 24.7348 20.966 25.0041 20.9322C25.6689 20.8489 26.3375 21.0549 26.8389 21.4974C27.3463 21.9455 27.6259 22.5651 27.6259 23.2423C27.6259 23.9192 27.3467 24.5385 26.8397 24.9863Z" fill="#5E72E4"/>
</svg>
