<svg width="55" height="63" viewBox="0 0 55 63" fill="none" xmlns="http://www.w3.org/2000/svg">
<path fill-rule="evenodd" clip-rule="evenodd" d="M31.2527 49.0012C31.3005 49.0086 31.3495 49.0124 31.3995 49.0124C33.2158 49.0387 34.5126 49.0566 35.29 49.0661L27.2861 63L19.8332 50.022H23.8039L27.2487 56.322L31.2527 49.0012ZM36.4558 43.9054C37.7893 43.9054 37.9095 44.3161 37.7292 45.9828C37.543 47.6676 37.3208 48.0541 35.9993 48.0541C34.6779 48.0541 34.5637 47.6193 34.7439 45.9828C34.9361 44.298 35.1584 43.9054 36.4558 43.9054ZM8.2475 43.8934C8.2475 43.8934 8.92625 43.8753 9.52092 43.9658L9.44884 44.5999C8.80012 44.5456 8.29555 44.5697 8.21747 44.5697C7.74294 44.5697 7.72492 44.8716 7.58076 46.1941L7.56274 46.3451C7.46663 47.2207 7.64083 47.3717 8.09733 47.3717H8.20545L8.29555 46.5866H7.81502L7.8871 45.9586H9.34071L9.13048 47.897C8.74005 48.0118 8.29555 48.048 7.91713 48.048C6.83593 48.048 6.34338 47.8487 6.52358 46.17C6.7158 44.4369 6.96207 43.8934 8.2475 43.8934ZM27.6215 47.0154C28.06 47.0154 28.1141 47.0697 28.066 47.5045C28.024 47.9152 27.9699 48.0178 27.5134 48.0178C27.0569 48.0178 27.0269 47.9212 27.0689 47.5045C27.117 47.0879 27.165 47.0154 27.6215 47.0154ZM33.3088 43.9658C34.0597 43.9658 34.6483 44.1772 34.5582 45.0166L34.5102 45.4695C34.4801 45.7714 34.33 46.019 34.0597 46.2485L34.1618 47.9937H33.1467L33.0806 46.5383H32.54L32.3838 47.9937H31.3867L31.8252 43.9658H33.3088ZM30.1799 43.9658C30.9367 43.9658 31.5254 44.1772 31.4292 45.0166L31.3812 45.4695C31.3151 46.0311 30.8526 46.4236 30.306 46.5142C30.1965 46.5351 30.1006 46.5379 29.6531 46.5383L29.423 46.5383L29.2668 47.9937H28.2697L28.7082 43.9658H30.1799ZM27.6701 43.9658L27.598 44.6784H26.5829L26.2225 47.9937H25.2194L25.5798 44.6784H24.5766L24.6487 43.9658H27.6701ZM24.6012 43.9598L24.5171 44.6844H22.9553L22.8592 45.5782H24.2888L24.2107 46.3089H22.7751L22.667 47.2751H24.2288L24.1567 47.9937H21.6098L22.0543 43.9598H24.6012ZM20.1808 43.9598C20.9616 43.9598 21.6464 44.0504 21.5383 45.0166L21.5142 45.2762C21.4782 45.5721 21.328 45.7895 21.1358 45.9465C21.304 46.1639 21.3761 46.484 21.3581 46.7014L21.328 46.9429C21.2379 47.7763 20.7574 47.9937 19.7423 47.9937H18.589L19.0335 43.9598H20.1808ZM16.6674 43.9598L17.0578 45.6446L17.8447 43.9598H18.9199L17.4302 46.8342L17.3101 47.9937H16.3009L16.4271 46.8342L15.5922 43.9598H16.6674ZM15.2022 43.9658L15.8089 47.9937H14.8598L14.7097 46.9248H13.5924L13.2441 47.9937H12.277L13.7246 43.9658H15.2022ZM11.3705 43.9658C12.1213 43.9658 12.71 44.1772 12.6199 45.0166L12.5718 45.4695C12.5418 45.7714 12.3916 46.019 12.1213 46.2485L12.2234 47.9937H11.2083L11.1422 46.5383H10.6016L10.4454 47.9937H9.44833L9.88682 43.9658H11.3705ZM5.65188 38.4093C5.98245 39.4539 6.48411 40.3883 7.18041 41.2176C7.32087 41.3849 7.46709 41.5453 7.61893 41.6987L6.87831 42.988C6.37428 43.1145 5.98005 43.372 5.68066 43.8009C5.34546 44.2811 5.19605 44.8545 5.07333 45.88L5.06653 45.9374L5.05071 46.0765C4.99015 46.6412 4.98962 47.1096 5.06932 47.5038L0.428514 47.5038L5.65188 38.4093ZM47.687 34.7732L55 47.5038L39.0687 47.5038L40.9954 44.1476L49.2157 44.1477L45.205 37.1653C45.4847 36.953 45.7718 36.7195 46.0869 36.4634C46.7034 35.9622 47.2372 35.3963 47.687 34.7732ZM36.3998 44.5879L36.3838 44.5878C35.9032 44.5878 35.8552 44.8294 35.723 45.9828C35.5969 47.1181 35.5969 47.3656 36.0714 47.3656C36.5579 47.3656 36.624 47.1664 36.7562 45.9828C36.8823 44.8052 36.8703 44.5878 36.3838 44.5878L36.3998 44.5879ZM20.1387 46.3632H19.7483L19.6402 47.3294H19.8324C20.1387 47.3294 20.3069 47.2267 20.3429 46.9007L20.367 46.6953C20.397 46.4176 20.2889 46.3632 20.1387 46.3632ZM14.3973 44.6844L13.8748 46.17H14.6016L14.3973 44.6844ZM33.2187 44.6422H32.7562L32.6181 45.8378L33.0927 45.8378C33.2979 45.8361 33.4777 45.7893 33.5131 45.4695L33.5671 45.0226C33.6152 44.6844 33.411 44.6422 33.2187 44.6422ZM30.1018 44.6422H29.6393L29.5011 45.8378L29.9761 45.8378C30.187 45.8361 30.3668 45.7893 30.4021 45.4695L30.4502 45.0226C30.4922 44.6844 30.3 44.6422 30.1018 44.6422ZM11.2804 44.6422H10.8179L10.6797 45.8378L11.1543 45.8378C11.3596 45.8361 11.5393 45.7893 11.5747 45.4695L11.6288 45.0226C11.6768 44.6844 11.4726 44.6422 11.2804 44.6422ZM20.1267 44.6301H19.9405L19.8324 45.5903H20.2228C20.373 45.5903 20.4991 45.5299 20.5231 45.2581L20.5472 45.0649C20.5892 44.6603 20.427 44.6301 20.1267 44.6301ZM21.6861 20.745C21.8489 20.7635 22.0092 20.7833 22.1671 20.8045L27.5407 20.8046C28.2226 20.8052 29.5388 20.8129 31.4893 20.8278H39.7044C41.7924 20.8278 43.4914 21.1861 44.869 22.1509C46.6842 23.4221 47.4886 25.4817 47.2397 27.9534L47.0467 29.795C46.8263 31.7879 46.0394 33.4017 44.7031 34.5478C43.6241 35.4734 42.3319 35.994 40.7807 36.2731L40.567 36.3108C40.1842 36.3769 39.8754 36.4063 39.1473 36.4194L39.0683 36.4207L38.4675 42.0864H29.1738C27.817 42.0838 26.7071 42.0838 25.8441 42.0863L25.7575 42.0864L18.6359 42.0865C17.6776 42.2189 16.7598 42.2951 15.9866 42.2951L15.841 42.2948C14.5432 42.2894 13.5827 42.2103 12.6914 41.9935C11.3732 41.673 10.2793 41.0449 9.46278 40.0186C8.67549 39.029 8.25719 37.8088 8.10518 36.3307C7.98105 35.1236 8.02758 33.6826 8.22916 31.8662L8.29648 31.2676C8.49061 29.5667 8.64052 28.4947 8.83364 27.5159L8.84821 27.4426C9.14769 25.9485 9.54131 24.7879 10.1513 23.7974C10.8976 22.5857 11.9367 21.7092 13.2638 21.1823C14.3739 20.7415 15.639 20.5558 17.199 20.5497L17.2412 20.5496L17.3864 20.547C18.666 20.5283 20.1887 20.5748 21.6861 20.745ZM17.9319 23.4419H17.7133C17.4384 23.4431 17.2786 23.4474 17.2786 23.4474C12.3182 23.4474 11.8337 25.5339 11.0954 32.1874C10.3873 38.5677 11.8048 39.3814 15.8628 39.397L15.9866 39.3972L16.0563 39.397C16.7656 39.3918 17.6206 39.309 18.4895 39.1799L18.6342 39.158C19.2824 39.058 19.9342 38.9334 20.5351 38.797L20.6471 38.7713L21.4777 31.1905H16.2635L16.0097 33.416H18.0169L17.6708 36.7312L17.2761 36.746C16.8155 36.7623 16.3796 36.7724 16.0558 36.7544C14.8224 36.6626 14.2221 36.0709 14.5684 32.9549L14.5792 32.8597L14.6254 32.2801L14.7236 31.4163C15.214 27.1309 15.399 26.2024 17.0635 26.1833L17.165 26.1826C17.3552 26.1796 17.8211 26.1633 18.4848 26.1625L18.6452 26.1626C19.026 26.1636 19.4646 26.17 19.9479 26.1865L20.0573 26.1904C20.5808 26.2097 21.1544 26.2409 21.7623 26.2901L21.8699 26.2989L22.1237 23.7256L22.0558 23.7153C21.5362 23.6375 21.0012 23.5814 20.4858 23.5411L20.3141 23.5281L20.1405 23.5161C19.2583 23.4576 18.4598 23.4432 17.9319 23.4419ZM39.7044 23.7256H34.0749L32.3907 39.1886H35.8745L36.4744 33.532L37.8151 33.5313C39.3904 33.5286 39.7555 33.5142 40.1659 33.4392C40.9033 33.3143 41.5901 33.1177 42.1815 32.7913L42.2386 32.7592L42.2508 32.7522C43.2595 32.1705 43.9779 31.1947 44.1746 29.5257L44.1804 29.475L44.3649 27.7131L44.3746 27.6185C44.6642 24.5518 42.5343 23.7417 39.7878 23.7259L39.7044 23.7256ZM27.5524 23.7024H23.1965L21.4892 39.1886H25.7575L25.8718 39.1883C27.3876 39.1816 28.5794 39.0389 29.4842 38.6654L29.5515 38.637C30.8298 38.0842 31.5185 37.0507 31.7269 35.2557L31.7331 35.2011L31.8485 34.2738L31.8521 34.2365C31.9325 33.3348 31.631 32.0845 30.9256 31.3528C31.7128 30.7652 32.2807 30.0013 32.4371 28.8035L32.443 28.7567L32.5637 27.7131L32.5753 27.6042C32.9242 24.0789 30.439 23.7096 27.5524 23.7024ZM27.3264 32.8133C28.0416 32.8133 28.5261 33.0683 28.4108 34.2506L28.2954 35.062C28.1801 36.3139 27.534 36.7544 26.3112 36.7544H26.1267L25.2038 36.7312L25.6191 32.8133H27.3264ZM39.4045 26.1366C40.2812 26.1366 41.1349 26.3221 40.9503 27.7362L40.7657 29.475C40.6287 30.8291 39.7906 31.0244 38.9008 31.0282L36.7743 31.0282L37.305 26.1366H39.4045ZM29.0799 27.8985L29.0106 28.6636C28.8722 29.7995 28.3646 30.1009 27.6263 30.1009H25.919L26.3574 26.0903H27.3033C28.5723 26.0903 29.2644 26.2062 29.0799 27.8985ZM15.9282 15.4962L13.9999 18.8552L5.78515 18.8553L7.90747 22.5492C7.8232 22.6641 7.74183 22.7818 7.66353 22.9023C7.01908 23.8938 6.56185 24.9901 6.21494 26.3169L0 15.4962L15.9282 15.4962ZM30.7573 15.4914L30.7574 15.498H38.5251L38.525 15.4962L54.5736 15.4962L49.2425 24.7782C48.8556 23.5529 48.1866 22.4542 47.2468 21.54L48.7889 18.8559L40.2206 18.8559C39.9482 18.8433 39.6701 18.8365 39.3862 18.8353L39.2959 18.8351H28.6209L28.6198 18.8435L28.5318 18.8394C28.124 18.8215 27.6863 18.8134 27.199 18.8134C26.0123 18.7973 24.8946 18.7864 23.846 18.7809L25.7344 15.4914H30.7573ZM27.715 0L35.167 12.978H31.149L27.7147 6.71552L24.2048 13.1157L20.9532 18.7798C19.4013 18.7881 18.0489 18.8117 16.8959 18.8505L20.003 13.4383L19.9973 13.4351L27.715 0Z" fill="#3D3D3D"/>
</svg>
