<svg width="503" height="408" viewBox="0 0 503 408" fill="none" xmlns="http://www.w3.org/2000/svg">
<path d="M250.479 47.1998L260.389 44.6998C266.039 40.0098 269.639 32.9198 269.639 24.9998C269.639 12.7798 261.069 2.55976 249.619 0.00976562C236.199 0.469766 225.469 11.4798 225.469 24.9998C225.469 31.9398 228.299 38.2298 232.869 42.7598L250.479 47.1998Z" fill="#CBE2FF"/>
<path d="M269.119 25C269.119 33.19 265.179 40.47 259.079 45.03L268.069 42.76C272.639 38.23 275.469 31.95 275.469 25C275.469 11.19 264.279 0 250.469 0C249.389 0 248.329 0.07 247.289 0.2C259.599 1.76 269.119 12.27 269.119 25Z" fill="#BED8FB"/>
<path d="M256.69 9.47016C256.69 8.19016 255.65 7.16016 254.38 7.16016H246.41C243.47 7.16016 241.09 9.54016 241.09 12.4802V18.3902H259.86V12.5702C259.86 11.2902 258.82 10.2602 257.55 10.2602H257.47C257.04 10.2502 256.69 9.90016 256.69 9.47016Z" fill="#365E7D"/>
<path d="M257.54 10.2502H257.46C257.03 10.2502 256.68 9.90016 256.68 9.47016C256.68 8.19016 255.64 7.16016 254.37 7.16016H253.5V18.3902H259.86V12.5702C259.86 11.2802 258.82 10.2502 257.54 10.2502Z" fill="#2B4D66"/>
<path d="M266.979 36.3601C266.369 35.7601 265.609 35.2901 264.749 35.0201L257.919 32.8601L250.459 32.6001L242.999 32.8601L236.169 35.0201C233.859 35.7501 232.289 37.8901 232.289 40.3201V42.1801C236.659 46.8001 242.779 49.7601 249.589 49.9801C257.239 48.2901 263.589 43.1901 266.979 36.3601Z" fill="#4A80AA"/>
<path d="M268.631 42.18V40.32C268.631 38.61 267.841 37.04 266.571 36C262.951 43.39 255.791 48.72 247.301 49.8C248.321 49.93 249.371 50 250.431 50C251.451 50 252.451 49.94 253.441 49.83C259.401 49.12 264.721 46.32 268.631 42.18Z" fill="#407093"/>
<path d="M251.038 49.6301C252.548 46.6301 256.488 38.1001 255.368 32.7701L250.478 30.8701L245.578 32.7701C244.418 38.2601 248.638 47.1501 250.038 49.8901C250.368 49.8101 250.708 49.7201 251.038 49.6301Z" fill="#E4F6FF"/>
<path d="M253.62 47.2502L251.64 39.4502H249.32L247.34 47.2302L249.79 49.9502C250.41 49.8102 251.02 49.6402 251.63 49.4602L253.62 47.2502Z" fill="#E28086"/>
<path d="M249.82 49.9901C250.02 50.0001 250.23 50.0001 250.43 50.0001C250.67 50.0001 250.9 50.0001 251.14 49.9901L252.4 48.6001C251.41 48.9501 250.39 49.2401 249.34 49.4601L249.82 49.9901Z" fill="#DD636E"/>
<path d="M254.649 32.0499V27.6499H246.289V32.0499C246.289 34.3599 250.469 36.8799 250.469 36.8799C250.469 36.8799 254.649 34.3599 254.649 32.0499Z" fill="#FFDDCE"/>
<path d="M259.86 17.6102H258.26C257.37 17.6102 256.65 16.8902 256.65 16.0002V15.1202C256.65 13.9602 255.52 13.1402 254.42 13.5102C251.86 14.3602 249.09 14.3602 246.53 13.5102C245.43 13.1502 244.3 13.9702 244.3 15.1202V16.0002C244.3 16.8902 243.58 17.6102 242.69 17.6102H241.09V20.2402C241.09 20.9102 241.63 21.4602 242.31 21.4602C242.52 21.4602 242.69 21.6302 242.71 21.8402C242.97 25.9102 246.35 29.1302 250.48 29.1302C254.61 29.1302 257.99 25.9102 258.25 21.8402C258.26 21.6302 258.44 21.4602 258.65 21.4602C259.32 21.4602 259.87 20.9202 259.87 20.2402L259.86 17.6102Z" fill="#FFDDCE"/>
<path d="M258.261 17.6102C257.371 17.6102 256.651 16.8902 256.651 16.0002V15.1202C256.651 13.9602 255.521 13.1402 254.421 13.5102C254.121 13.6102 253.811 13.7002 253.501 13.7702V22.4602C253.461 25.2902 251.911 27.7502 249.621 29.0802C249.901 29.1102 250.181 29.1302 250.471 29.1302C254.601 29.1302 257.981 25.9102 258.241 21.8402C258.251 21.6302 258.431 21.4602 258.641 21.4602C259.311 21.4602 259.861 20.9202 259.861 20.2402V17.6102H258.261Z" fill="#FFCBBE"/>
<path d="M246.288 30.8701L243.008 33.5301L246.448 37.7801C246.868 38.1901 247.528 38.2101 247.968 37.8401L250.548 35.6801L246.288 30.8701Z" fill="#F4FBFF"/>
<path d="M254.649 30.8701L250.559 35.6801L252.989 37.7601C253.439 38.1401 254.099 38.1201 254.519 37.7201L257.929 33.5401L254.649 30.8701Z" fill="#F4FBFF"/>
<path d="M246.287 30.8701L241.477 33.2301C241.107 33.4101 240.967 33.8601 241.147 34.2201L242.087 36.0501C242.327 36.5201 242.237 37.1001 241.867 37.4801C241.677 37.6701 241.467 37.8801 241.277 38.0701C240.947 38.4001 240.837 38.8801 240.977 39.3101C242.117 42.7801 247.587 48.0801 249.667 50.0001C249.807 50.0001 249.947 50.0101 250.087 50.0101C248.587 47.0801 243.267 35.9701 246.287 30.8701Z" fill="#365E7D"/>
<path d="M259.068 37.4699C258.688 37.0899 258.598 36.5199 258.848 36.0399L259.788 34.2099C259.978 33.8499 259.828 33.3999 259.458 33.2199L254.648 30.8599C257.678 35.9599 252.348 47.0599 250.848 49.9899C250.988 49.9899 251.128 49.9799 251.268 49.9799C253.348 48.0599 258.808 42.7599 259.948 39.2899C260.088 38.8499 259.978 38.3699 259.648 38.0499C259.468 37.8699 259.258 37.6599 259.068 37.4699Z" fill="#365E7D"/>
<path d="M250.56 35.6802L248.02 37.8102L249.32 39.4502H251.64L252.94 37.7102L250.56 35.6802Z" fill="#DD636E"/>
<path d="M202.75 122.54C216.557 122.54 227.75 111.347 227.75 97.54C227.75 83.7329 216.557 72.54 202.75 72.54C188.943 72.54 177.75 83.7329 177.75 97.54C177.75 111.347 188.943 122.54 202.75 122.54Z" fill="#5E72E4"/>
<path d="M296.75 122.54C310.557 122.54 321.75 111.347 321.75 97.54C321.75 83.7329 310.557 72.54 296.75 72.54C282.943 72.54 271.75 83.7329 271.75 97.54C271.75 111.347 282.943 122.54 296.75 122.54Z" fill="#5E72E4"/>
<path d="M250.75 194.54C264.557 194.54 275.75 183.347 275.75 169.54C275.75 155.733 264.557 144.54 250.75 144.54C236.943 144.54 225.75 155.733 225.75 169.54C225.75 183.347 236.943 194.54 250.75 194.54Z" fill="#5E72E4"/>
<path d="M340.75 194.54C354.557 194.54 365.75 183.347 365.75 169.54C365.75 155.733 354.557 144.54 340.75 144.54C326.943 144.54 315.75 155.733 315.75 169.54C315.75 183.347 326.943 194.54 340.75 194.54Z" fill="#5E72E4"/>
<path d="M160.75 194.54C174.557 194.54 185.75 183.347 185.75 169.54C185.75 155.733 174.557 144.54 160.75 144.54C146.943 144.54 135.75 155.733 135.75 169.54C135.75 183.347 146.943 194.54 160.75 194.54Z" fill="#5E72E4"/>
<path d="M204.75 267.54C218.557 267.54 229.75 256.347 229.75 242.54C229.75 228.733 218.557 217.54 204.75 217.54C190.943 217.54 179.75 228.733 179.75 242.54C179.75 256.347 190.943 267.54 204.75 267.54Z" fill="#5E72E4"/>
<path d="M116.75 267.54C130.557 267.54 141.75 256.347 141.75 242.54C141.75 228.733 130.557 217.54 116.75 217.54C102.943 217.54 91.75 228.733 91.75 242.54C91.75 256.347 102.943 267.54 116.75 267.54Z" fill="#5E72E4"/>
<path d="M380.75 267.54C394.557 267.54 405.75 256.347 405.75 242.54C405.75 228.733 394.557 217.54 380.75 217.54C366.943 217.54 355.75 228.733 355.75 242.54C355.75 256.347 366.943 267.54 380.75 267.54Z" fill="#5E72E4"/>
<path d="M292.75 267.54C306.557 267.54 317.75 256.347 317.75 242.54C317.75 228.733 306.557 217.54 292.75 217.54C278.943 217.54 267.75 228.733 267.75 242.54C267.75 256.347 278.943 267.54 292.75 267.54Z" fill="#5E72E4"/>
<path d="M162.25 336.54C176.057 336.54 187.25 325.347 187.25 311.54C187.25 297.733 176.057 286.54 162.25 286.54C148.443 286.54 137.25 297.733 137.25 311.54C137.25 325.347 148.443 336.54 162.25 336.54Z" fill="#5E72E4"/>
<path d="M73.75 336.54C87.5571 336.54 98.75 325.347 98.75 311.54C98.75 297.733 87.5571 286.54 73.75 286.54C59.9429 286.54 48.75 297.733 48.75 311.54C48.75 325.347 59.9429 336.54 73.75 336.54Z" fill="#5E72E4"/>
<path d="M339.25 336.54C353.057 336.54 364.25 325.347 364.25 311.54C364.25 297.733 353.057 286.54 339.25 286.54C325.443 286.54 314.25 297.733 314.25 311.54C314.25 325.347 325.443 336.54 339.25 336.54Z" fill="#5E72E4"/>
<path d="M427.75 336.54C441.557 336.54 452.75 325.347 452.75 311.54C452.75 297.733 441.557 286.54 427.75 286.54C413.943 286.54 402.75 297.733 402.75 311.54C402.75 325.347 413.943 336.54 427.75 336.54Z" fill="#5E72E4"/>
<path d="M250.75 336.54C264.557 336.54 275.75 325.347 275.75 311.54C275.75 297.733 264.557 286.54 250.75 286.54C236.943 286.54 225.75 297.733 225.75 311.54C225.75 325.347 236.943 336.54 250.75 336.54Z" fill="#5E72E4"/>
<path d="M114.801 407.54C128.608 407.54 139.801 396.347 139.801 382.54C139.801 368.733 128.608 357.54 114.801 357.54C100.994 357.54 89.8008 368.733 89.8008 382.54C89.8008 396.347 100.994 407.54 114.801 407.54Z" fill="#5E72E4"/>
<path d="M25 407.54C38.8071 407.54 50 396.347 50 382.54C50 368.733 38.8071 357.54 25 357.54C11.1929 357.54 0 368.733 0 382.54C0 396.347 11.1929 407.54 25 407.54Z" fill="#5E72E4"/>
<path d="M292.898 407.54C306.706 407.54 317.898 396.347 317.898 382.54C317.898 368.733 306.706 357.54 292.898 357.54C279.091 357.54 267.898 368.733 267.898 382.54C267.898 396.347 279.091 407.54 292.898 407.54Z" fill="#5E72E4"/>
<path d="M387.02 407.54C400.827 407.54 412.02 396.347 412.02 382.54C412.02 368.733 400.827 357.54 387.02 357.54C373.212 357.54 362.02 368.733 362.02 382.54C362.02 396.347 373.212 407.54 387.02 407.54Z" fill="#5E72E4"/>
<path d="M477.75 407.54C491.557 407.54 502.75 396.347 502.75 382.54C502.75 368.733 491.557 357.54 477.75 357.54C463.943 357.54 452.75 368.733 452.75 382.54C452.75 396.347 463.943 407.54 477.75 407.54Z" fill="#5E72E4"/>
<path d="M204.102 407.54C217.909 407.54 229.102 396.347 229.102 382.54C229.102 368.733 217.909 357.54 204.102 357.54C190.294 357.54 179.102 368.733 179.102 382.54C179.102 396.347 190.294 407.54 204.102 407.54Z" fill="#5E72E4"/>
<path d="M296.75 60.04H202.75V61.04H296.75V60.04Z" fill="#5E72E4"/>
<path d="M250.75 49.54H249.75V60.54H250.75V49.54Z" fill="#5E72E4"/>
<path d="M296.75 60.54H295.75V73.04H296.75V60.54Z" fill="#5E72E4"/>
<path d="M203.75 60.54H202.75V73.04H203.75V60.54Z" fill="#5E72E4"/>
<path d="M380.75 205.54H379.75V218.04H380.75V205.54Z" fill="#5E72E4"/>
<path d="M116.75 205.54H115.75V218.04H116.75V205.54Z" fill="#5E72E4"/>
<path d="M205.75 205.54H204.75V218.04H205.75V205.54Z" fill="#5E72E4"/>
<path d="M293.75 205.54H292.75V218.04H293.75V205.54Z" fill="#5E72E4"/>
<path d="M338.75 276.54H337.75V289.04H338.75V276.54Z" fill="#5E72E4"/>
<path d="M427.75 276.54H426.75V289.04H427.75V276.54Z" fill="#5E72E4"/>
<path d="M73.75 276.54H72.75V289.04H73.75V276.54Z" fill="#5E72E4"/>
<path d="M163.75 276.54H162.75V289.04H163.75V276.54Z" fill="#5E72E4"/>
<path d="M251.75 276.54H250.75V289.04H251.75V276.54Z" fill="#5E72E4"/>
<path d="M293.398 346.54H292.398V359.04H293.398V346.54Z" fill="#5E72E4"/>
<path d="M387.52 346.54H386.52V359.04H387.52V346.54Z" fill="#5E72E4"/>
<path d="M477.52 346.54H476.52V359.04H477.52V346.54Z" fill="#5E72E4"/>
<path d="M25.5 346.54H24.5V359.04H25.5V346.54Z" fill="#5E72E4"/>
<path d="M115.301 346.54H114.301V359.04H115.301V346.54Z" fill="#5E72E4"/>
<path d="M204.602 346.54H203.602V359.04H204.602V346.54Z" fill="#5E72E4"/>
<path d="M160.75 133.54H159.75V146.04H160.75V133.54Z" fill="#5E72E4"/>
<path d="M250.75 133.54H249.75V146.04H250.75V133.54Z" fill="#5E72E4"/>
<path d="M340.75 133.54H339.75V146.04H340.75V133.54Z" fill="#5E72E4"/>
<path d="M340.25 133.54H160.25V134.54H340.25V133.54Z" fill="#5E72E4"/>
<path d="M380.25 205.54H116.25V206.54H380.25V205.54Z" fill="#5E72E4"/>
<path d="M427.25 276.54H73.25V277.54H427.25V276.54Z" fill="#5E72E4"/>
<path d="M477.25 346.54H24.25V347.54H477.25V346.54Z" fill="#5E72E4"/>
<path d="M200.142 92.2098H195.182C195.072 93.1598 194.782 94.9598 194.662 95.5898C195.162 95.0298 195.942 94.6398 197.142 94.6398C199.312 94.6398 200.712 96.1498 200.712 98.5698C200.712 100.88 199.502 102.9 196.632 102.9C194.512 102.9 192.982 101.73 192.672 99.7098H194.272C194.542 100.79 195.322 101.59 196.682 101.59C198.292 101.59 199.092 100.44 199.092 98.6898C199.092 97.1598 198.452 95.9898 196.812 95.9898C195.382 95.9898 194.792 96.5898 194.372 97.5398L192.902 97.2698C193.252 95.7198 193.712 92.3298 193.882 90.8398H200.372L200.142 92.2098Z" fill="white"/>
<path d="M208.073 93.9901C208.073 95.9001 207.043 97.3901 205.033 97.3901C203.143 97.3901 202.062 96.0501 202.062 94.0101C202.062 92.1801 203.082 90.6201 205.062 90.6201C206.913 90.6201 208.073 91.8901 208.073 93.9901ZM203.402 93.9901C203.402 95.3301 203.982 96.2401 205.092 96.2401C206.152 96.2401 206.762 95.4001 206.762 93.9901C206.762 92.5801 206.133 91.7801 205.062 91.7801C204.053 91.7801 203.402 92.5601 203.402 93.9901ZM204.803 102.68L212.512 90.8301H213.863L206.163 102.68H204.803ZM216.613 99.5101C216.613 101.41 215.593 102.91 213.573 102.91C211.653 102.91 210.603 101.51 210.603 99.5301C210.603 97.7001 211.613 96.1401 213.603 96.1401C215.473 96.1501 216.613 97.4201 216.613 99.5101ZM211.932 99.5101C211.932 100.84 212.512 101.76 213.622 101.76C214.682 101.76 215.292 100.92 215.292 99.5101C215.292 98.1101 214.662 97.3001 213.592 97.3001C212.612 97.3001 211.932 98.1301 211.932 99.5101Z" fill="white"/>
<path d="M165.342 165.99C165.342 167.9 164.312 169.39 162.302 169.39C160.412 169.39 159.332 168.05 159.332 166.01C159.332 164.18 160.352 162.62 162.332 162.62C164.182 162.62 165.342 163.89 165.342 165.99ZM160.672 165.99C160.672 167.33 161.252 168.24 162.362 168.24C163.422 168.24 164.032 167.4 164.032 165.99C164.032 164.58 163.402 163.78 162.332 163.78C161.322 163.78 160.672 164.56 160.672 165.99ZM162.072 174.68L169.782 162.83H171.132L163.432 174.68H162.072ZM173.882 171.51C173.882 173.41 172.862 174.91 170.842 174.91C168.922 174.91 167.872 173.51 167.872 171.53C167.872 169.7 168.882 168.14 170.872 168.14C172.742 168.15 173.882 169.42 173.882 171.51ZM169.202 171.51C169.202 172.84 169.782 173.76 170.892 173.76C171.952 173.76 172.562 172.92 172.562 171.51C172.562 170.11 171.932 169.3 170.862 169.3C169.882 169.3 169.202 170.13 169.202 171.51Z" fill="white"/>
<path d="M155.691 170.706H157.368V171.959H155.691V174.765H154.147V171.959H148.644V171.055L154.056 162.679H155.691V170.706ZM150.387 170.706H154.147V164.779L153.965 165.111L150.387 170.706Z" fill="white"/>
<path d="M245.237 170.706H246.914V171.959H245.237V174.765H243.693V171.959H238.19V171.055L243.602 162.679H245.237V170.706ZM239.933 170.706H243.693V164.779L243.511 165.111L239.933 170.706Z" fill="white"/>
<path d="M335.691 170.706H337.368V171.959H335.691V174.765H334.147V171.959H328.644V171.055L334.056 162.679H335.691V170.706ZM330.387 170.706H334.147V164.779L333.965 165.111L330.387 170.706Z" fill="white"/>
<path d="M255.342 165.99C255.342 167.9 254.312 169.39 252.302 169.39C250.412 169.39 249.332 168.05 249.332 166.01C249.332 164.18 250.352 162.62 252.332 162.62C254.182 162.62 255.342 163.89 255.342 165.99ZM250.672 165.99C250.672 167.33 251.252 168.24 252.362 168.24C253.422 168.24 254.032 167.4 254.032 165.99C254.032 164.58 253.402 163.78 252.332 163.78C251.322 163.78 250.672 164.56 250.672 165.99ZM252.072 174.68L259.782 162.83H261.132L253.432 174.68H252.072ZM263.882 171.51C263.882 173.41 262.862 174.91 260.842 174.91C258.922 174.91 257.872 173.51 257.872 171.53C257.872 169.7 258.882 168.14 260.872 168.14C262.742 168.15 263.882 169.42 263.882 171.51ZM259.202 171.51C259.202 172.84 259.782 173.76 260.892 173.76C261.952 173.76 262.562 172.92 262.562 171.51C262.562 170.11 261.932 169.3 260.862 169.3C259.882 169.3 259.202 170.13 259.202 171.51Z" fill="white"/>
<path d="M345.342 165.99C345.342 167.9 344.312 169.39 342.302 169.39C340.412 169.39 339.332 168.05 339.332 166.01C339.332 164.18 340.352 162.62 342.332 162.62C344.182 162.62 345.342 163.89 345.342 165.99ZM340.672 165.99C340.672 167.33 341.252 168.24 342.362 168.24C343.422 168.24 344.032 167.4 344.032 165.99C344.032 164.58 343.402 163.78 342.332 163.78C341.322 163.78 340.672 164.56 340.672 165.99ZM342.072 174.68L349.782 162.83H351.132L343.432 174.68H342.072ZM353.882 171.51C353.882 173.41 352.862 174.91 350.842 174.91C348.922 174.91 347.872 173.51 347.872 171.53C347.872 169.7 348.882 168.14 350.872 168.14C352.742 168.15 353.882 169.42 353.882 171.51ZM349.202 171.51C349.202 172.84 349.782 173.76 350.892 173.76C351.952 173.76 352.562 172.92 352.562 171.51C352.562 170.11 351.932 169.3 350.862 169.3C349.882 169.3 349.202 170.13 349.202 171.51Z" fill="white"/>
<path d="M106.531 247.68V247.58C106.531 245.87 107.661 244.09 110.101 242.25C112.001 240.8 112.521 240.34 112.521 239.03C112.521 237.84 111.891 236.94 110.471 236.94C109.031 236.94 108.361 237.69 108.111 239.14H106.561C106.771 237.13 108.051 235.62 110.471 235.62C113.131 235.62 114.161 237.33 114.161 238.99C114.161 240.78 113.401 241.48 111.211 243.18C109.581 244.44 108.711 245.39 108.411 246.3H114.631L114.401 247.69H106.531V247.68Z" fill="white"/>
<path d="M122.002 238.99C122.002 240.9 120.972 242.39 118.962 242.39C117.072 242.39 115.992 241.05 115.992 239.01C115.992 237.18 117.012 235.62 118.992 235.62C120.842 235.62 122.002 236.89 122.002 238.99ZM117.322 238.99C117.322 240.33 117.902 241.24 119.012 241.24C120.072 241.24 120.682 240.4 120.682 238.99C120.682 237.58 120.052 236.78 118.982 236.78C117.982 236.78 117.322 237.56 117.322 238.99ZM118.732 247.68L126.442 235.83H127.792L120.092 247.68H118.732ZM130.542 244.51C130.542 246.41 129.522 247.91 127.502 247.91C125.582 247.91 124.532 246.51 124.532 244.53C124.532 242.7 125.542 241.14 127.532 241.14C129.402 241.15 130.542 242.42 130.542 244.51ZM125.862 244.51C125.862 245.84 126.442 246.76 127.552 246.76C128.612 246.76 129.222 245.92 129.222 244.51C129.222 243.11 128.592 242.3 127.522 242.3C126.542 242.3 125.862 243.13 125.862 244.51Z" fill="white"/>
<path d="M195.531 247.68V247.58C195.531 245.87 196.661 244.09 199.101 242.25C201.001 240.8 201.521 240.34 201.521 239.03C201.521 237.84 200.891 236.94 199.471 236.94C198.031 236.94 197.361 237.69 197.111 239.14H195.561C195.771 237.13 197.051 235.62 199.471 235.62C202.131 235.62 203.161 237.33 203.161 238.99C203.161 240.78 202.401 241.48 200.211 243.18C198.581 244.44 197.711 245.39 197.411 246.3H203.631L203.401 247.69H195.531V247.68Z" fill="white"/>
<path d="M211.002 238.99C211.002 240.9 209.972 242.39 207.962 242.39C206.072 242.39 204.992 241.05 204.992 239.01C204.992 237.18 206.012 235.62 207.992 235.62C209.842 235.62 211.002 236.89 211.002 238.99ZM206.322 238.99C206.322 240.33 206.902 241.24 208.012 241.24C209.072 241.24 209.682 240.4 209.682 238.99C209.682 237.58 209.052 236.78 207.982 236.78C206.982 236.78 206.322 237.56 206.322 238.99ZM207.732 247.68L215.442 235.83H216.792L209.092 247.68H207.732ZM219.542 244.51C219.542 246.41 218.522 247.91 216.502 247.91C214.582 247.91 213.532 246.51 213.532 244.53C213.532 242.7 214.542 241.14 216.532 241.14C218.402 241.15 219.542 242.42 219.542 244.51ZM214.862 244.51C214.862 245.84 215.442 246.76 216.552 246.76C217.612 246.76 218.222 245.92 218.222 244.51C218.222 243.11 217.592 242.3 216.522 242.3C215.542 242.3 214.862 243.13 214.862 244.51Z" fill="white"/>
<path d="M283.531 247.68V247.58C283.531 245.87 284.661 244.09 287.101 242.25C289.001 240.8 289.521 240.34 289.521 239.03C289.521 237.84 288.891 236.94 287.471 236.94C286.031 236.94 285.361 237.69 285.111 239.14H283.561C283.771 237.13 285.051 235.62 287.471 235.62C290.131 235.62 291.161 237.33 291.161 238.99C291.161 240.78 290.401 241.48 288.211 243.18C286.581 244.44 285.711 245.39 285.411 246.3H291.631L291.401 247.69H283.531V247.68Z" fill="white"/>
<path d="M299.002 238.99C299.002 240.9 297.972 242.39 295.962 242.39C294.072 242.39 292.992 241.05 292.992 239.01C292.992 237.18 294.012 235.62 295.992 235.62C297.842 235.62 299.002 236.89 299.002 238.99ZM294.322 238.99C294.322 240.33 294.902 241.24 296.012 241.24C297.072 241.24 297.682 240.4 297.682 238.99C297.682 237.58 297.052 236.78 295.982 236.78C294.982 236.78 294.322 237.56 294.322 238.99ZM295.732 247.68L303.442 235.83H304.792L297.092 247.68H295.732ZM307.542 244.51C307.542 246.41 306.522 247.91 304.502 247.91C302.582 247.91 301.532 246.51 301.532 244.53C301.532 242.7 302.542 241.14 304.532 241.14C306.402 241.15 307.542 242.42 307.542 244.51ZM302.862 244.51C302.862 245.84 303.442 246.76 304.552 246.76C305.612 246.76 306.222 245.92 306.222 244.51C306.222 243.11 305.592 242.3 304.522 242.3C303.542 242.3 302.862 243.13 302.862 244.51Z" fill="white"/>
<path d="M370.531 247.68V247.58C370.531 245.87 371.661 244.09 374.101 242.25C376.001 240.8 376.521 240.34 376.521 239.03C376.521 237.84 375.891 236.94 374.471 236.94C373.031 236.94 372.361 237.69 372.111 239.14H370.561C370.771 237.13 372.051 235.62 374.471 235.62C377.131 235.62 378.161 237.33 378.161 238.99C378.161 240.78 377.401 241.48 375.211 243.18C373.581 244.44 372.711 245.39 372.411 246.3H378.631L378.401 247.69H370.531V247.68Z" fill="white"/>
<path d="M386.002 238.99C386.002 240.9 384.972 242.39 382.962 242.39C381.072 242.39 379.992 241.05 379.992 239.01C379.992 237.18 381.012 235.62 382.992 235.62C384.842 235.62 386.002 236.89 386.002 238.99ZM381.322 238.99C381.322 240.33 381.902 241.24 383.012 241.24C384.072 241.24 384.682 240.4 384.682 238.99C384.682 237.58 384.052 236.78 382.982 236.78C381.982 236.78 381.322 237.56 381.322 238.99ZM382.732 247.68L390.442 235.83H391.792L384.092 247.68H382.732ZM394.542 244.51C394.542 246.41 393.522 247.91 391.502 247.91C389.582 247.91 388.532 246.51 388.532 244.53C388.532 242.7 389.542 241.14 391.532 241.14C393.402 241.15 394.542 242.42 394.542 244.51ZM389.862 244.51C389.862 245.84 390.442 246.76 391.552 246.76C392.612 246.76 393.222 245.92 393.222 244.51C393.222 243.11 392.592 242.3 391.522 242.3C390.542 242.3 389.862 243.13 389.862 244.51Z" fill="white"/>
<path d="M65.8992 317.68V307.71C65.3092 308.13 64.0992 308.63 63.4492 308.75V307.47C64.3592 307.22 65.5092 306.55 66.3192 305.78H67.5192V317.69H65.8992V317.68Z" fill="white"/>
<path d="M75.9905 308.99C75.9905 310.9 74.9605 312.39 72.9505 312.39C71.0605 312.39 69.9805 311.05 69.9805 309.01C69.9805 307.18 71.0005 305.62 72.9805 305.62C74.8305 305.62 75.9905 306.89 75.9905 308.99ZM71.3205 308.99C71.3205 310.33 71.9005 311.24 73.0105 311.24C74.0705 311.24 74.6805 310.4 74.6805 308.99C74.6805 307.58 74.0505 306.78 72.9805 306.78C71.9705 306.78 71.3205 307.56 71.3205 308.99ZM72.7205 317.68L80.4305 305.83H81.7805L74.0805 317.68H72.7205ZM84.5305 314.51C84.5305 316.41 83.5105 317.91 81.4905 317.91C79.5705 317.91 78.5205 316.51 78.5205 314.53C78.5205 312.7 79.5305 311.14 81.5205 311.14C83.3905 311.15 84.5305 312.42 84.5305 314.51ZM79.8605 314.51C79.8605 315.84 80.4405 316.76 81.5505 316.76C82.6105 316.76 83.2205 315.92 83.2205 314.51C83.2205 313.11 82.5905 312.3 81.5205 312.3C80.5305 312.3 79.8605 313.13 79.8605 314.51Z" fill="white"/>
<path d="M154.899 317.68V307.71C154.309 308.13 153.099 308.63 152.449 308.75V307.47C153.359 307.22 154.509 306.55 155.319 305.78H156.519V317.69H154.899V317.68Z" fill="white"/>
<path d="M164.99 308.99C164.99 310.9 163.96 312.39 161.95 312.39C160.06 312.39 158.98 311.05 158.98 309.01C158.98 307.18 160 305.62 161.98 305.62C163.83 305.62 164.99 306.89 164.99 308.99ZM160.32 308.99C160.32 310.33 160.9 311.24 162.01 311.24C163.07 311.24 163.68 310.4 163.68 308.99C163.68 307.58 163.05 306.78 161.98 306.78C160.97 306.78 160.32 307.56 160.32 308.99ZM161.72 317.68L169.43 305.83H170.78L163.08 317.68H161.72ZM173.53 314.51C173.53 316.41 172.51 317.91 170.49 317.91C168.57 317.91 167.52 316.51 167.52 314.53C167.52 312.7 168.53 311.14 170.52 311.14C172.39 311.15 173.53 312.42 173.53 314.51ZM168.86 314.51C168.86 315.84 169.44 316.76 170.55 316.76C171.61 316.76 172.22 315.92 172.22 314.51C172.22 313.11 171.59 312.3 170.52 312.3C169.53 312.3 168.86 313.13 168.86 314.51Z" fill="white"/>
<path d="M243.899 317.68V307.71C243.309 308.13 242.099 308.63 241.449 308.75V307.47C242.359 307.22 243.509 306.55 244.319 305.78H245.519V317.69H243.899V317.68Z" fill="white"/>
<path d="M253.99 308.99C253.99 310.9 252.96 312.39 250.95 312.39C249.06 312.39 247.98 311.05 247.98 309.01C247.98 307.18 249 305.62 250.98 305.62C252.83 305.62 253.99 306.89 253.99 308.99ZM249.32 308.99C249.32 310.33 249.9 311.24 251.01 311.24C252.07 311.24 252.68 310.4 252.68 308.99C252.68 307.58 252.05 306.78 250.98 306.78C249.97 306.78 249.32 307.56 249.32 308.99ZM250.72 317.68L258.43 305.83H259.78L252.08 317.68H250.72ZM262.53 314.51C262.53 316.41 261.51 317.91 259.49 317.91C257.57 317.91 256.52 316.51 256.52 314.53C256.52 312.7 257.53 311.14 259.52 311.14C261.39 311.15 262.53 312.42 262.53 314.51ZM257.86 314.51C257.86 315.84 258.44 316.76 259.55 316.76C260.61 316.76 261.22 315.92 261.22 314.51C261.22 313.11 260.59 312.3 259.52 312.3C258.53 312.3 257.86 313.13 257.86 314.51Z" fill="white"/>
<path d="M331.899 317.68V307.71C331.309 308.13 330.099 308.63 329.449 308.75V307.47C330.359 307.22 331.509 306.55 332.319 305.78H333.519V317.69H331.899V317.68Z" fill="white"/>
<path d="M341.99 308.99C341.99 310.9 340.96 312.39 338.95 312.39C337.06 312.39 335.98 311.05 335.98 309.01C335.98 307.18 337 305.62 338.98 305.62C340.83 305.62 341.99 306.89 341.99 308.99ZM337.32 308.99C337.32 310.33 337.9 311.24 339.01 311.24C340.07 311.24 340.68 310.4 340.68 308.99C340.68 307.58 340.05 306.78 338.98 306.78C337.97 306.78 337.32 307.56 337.32 308.99ZM338.72 317.68L346.43 305.83H347.78L340.08 317.68H338.72ZM350.53 314.51C350.53 316.41 349.51 317.91 347.49 317.91C345.57 317.91 344.52 316.51 344.52 314.53C344.52 312.7 345.53 311.14 347.52 311.14C349.39 311.15 350.53 312.42 350.53 314.51ZM345.86 314.51C345.86 315.84 346.44 316.76 347.55 316.76C348.61 316.76 349.22 315.92 349.22 314.51C349.22 313.11 348.59 312.3 347.52 312.3C346.53 312.3 345.86 313.13 345.86 314.51Z" fill="white"/>
<path d="M420.899 317.68V307.71C420.309 308.13 419.099 308.63 418.449 308.75V307.47C419.359 307.22 420.509 306.55 421.319 305.78H422.519V317.69H420.899V317.68Z" fill="white"/>
<path d="M430.99 308.99C430.99 310.9 429.96 312.39 427.95 312.39C426.06 312.39 424.98 311.05 424.98 309.01C424.98 307.18 426 305.62 427.98 305.62C429.83 305.62 430.99 306.89 430.99 308.99ZM426.32 308.99C426.32 310.33 426.9 311.24 428.01 311.24C429.07 311.24 429.68 310.4 429.68 308.99C429.68 307.58 429.05 306.78 427.98 306.78C426.97 306.78 426.32 307.56 426.32 308.99ZM427.72 317.68L435.43 305.83H436.78L429.08 317.68H427.72ZM439.53 314.51C439.53 316.41 438.51 317.91 436.49 317.91C434.57 317.91 433.52 316.51 433.52 314.53C433.52 312.7 434.53 311.14 436.52 311.14C438.39 311.15 439.53 312.42 439.53 314.51ZM434.86 314.51C434.86 315.84 435.44 316.76 436.55 316.76C437.61 316.76 438.22 315.92 438.22 314.51C438.22 313.11 437.59 312.3 436.52 312.3C435.53 312.3 434.86 313.13 434.86 314.51Z" fill="white"/>
<path d="M18.8992 387.68V377.71C18.3092 378.13 17.0992 378.63 16.4492 378.75V377.47C17.3592 377.22 18.5092 376.55 19.3192 375.78H20.5192V387.69H18.8992V387.68Z" fill="white"/>
<path d="M28.9905 378.99C28.9905 380.9 27.9605 382.39 25.9505 382.39C24.0605 382.39 22.9805 381.05 22.9805 379.01C22.9805 377.18 24.0005 375.62 25.9805 375.62C27.8305 375.62 28.9905 376.89 28.9905 378.99ZM24.3205 378.99C24.3205 380.33 24.9005 381.24 26.0105 381.24C27.0705 381.24 27.6805 380.4 27.6805 378.99C27.6805 377.58 27.0505 376.78 25.9805 376.78C24.9705 376.78 24.3205 377.56 24.3205 378.99ZM25.7205 387.68L33.4305 375.83H34.7805L27.0805 387.68H25.7205ZM37.5305 384.51C37.5305 386.41 36.5105 387.91 34.4905 387.91C32.5705 387.91 31.5205 386.51 31.5205 384.53C31.5205 382.7 32.5305 381.14 34.5205 381.14C36.3905 381.15 37.5305 382.42 37.5305 384.51ZM32.8605 384.51C32.8605 385.84 33.4405 386.76 34.5505 386.76C35.6105 386.76 36.2205 385.92 36.2205 384.51C36.2205 383.11 35.5905 382.3 34.5205 382.3C33.5305 382.3 32.8605 383.13 32.8605 384.51Z" fill="white"/>
<path d="M107.899 387.68V377.71C107.309 378.13 106.099 378.63 105.449 378.75V377.47C106.359 377.22 107.509 376.55 108.319 375.78H109.519V387.69H107.899V387.68Z" fill="white"/>
<path d="M117.99 378.99C117.99 380.9 116.96 382.39 114.95 382.39C113.06 382.39 111.98 381.05 111.98 379.01C111.98 377.18 113 375.62 114.98 375.62C116.83 375.62 117.99 376.89 117.99 378.99ZM113.32 378.99C113.32 380.33 113.9 381.24 115.01 381.24C116.07 381.24 116.68 380.4 116.68 378.99C116.68 377.58 116.05 376.78 114.98 376.78C113.97 376.78 113.32 377.56 113.32 378.99ZM114.72 387.68L122.43 375.83H123.78L116.08 387.68H114.72ZM126.53 384.51C126.53 386.41 125.51 387.91 123.49 387.91C121.57 387.91 120.52 386.51 120.52 384.53C120.52 382.7 121.53 381.14 123.52 381.14C125.39 381.15 126.53 382.42 126.53 384.51ZM121.86 384.51C121.86 385.84 122.44 386.76 123.55 386.76C124.61 386.76 125.22 385.92 125.22 384.51C125.22 383.11 124.59 382.3 123.52 382.3C122.53 382.3 121.86 383.13 121.86 384.51Z" fill="white"/>
<path d="M196.899 387.68V377.71C196.309 378.13 195.099 378.63 194.449 378.75V377.47C195.359 377.22 196.509 376.55 197.319 375.78H198.519V387.69H196.899V387.68Z" fill="white"/>
<path d="M206.99 378.99C206.99 380.9 205.96 382.39 203.95 382.39C202.06 382.39 200.98 381.05 200.98 379.01C200.98 377.18 202 375.62 203.98 375.62C205.83 375.62 206.99 376.89 206.99 378.99ZM202.32 378.99C202.32 380.33 202.9 381.24 204.01 381.24C205.07 381.24 205.68 380.4 205.68 378.99C205.68 377.58 205.05 376.78 203.98 376.78C202.97 376.78 202.32 377.56 202.32 378.99ZM203.72 387.68L211.43 375.83H212.78L205.08 387.68H203.72ZM215.53 384.51C215.53 386.41 214.51 387.91 212.49 387.91C210.57 387.91 209.52 386.51 209.52 384.53C209.52 382.7 210.53 381.14 212.52 381.14C214.39 381.15 215.53 382.42 215.53 384.51ZM210.86 384.51C210.86 385.84 211.44 386.76 212.55 386.76C213.61 386.76 214.22 385.92 214.22 384.51C214.22 383.11 213.59 382.3 212.52 382.3C211.53 382.3 210.86 383.13 210.86 384.51Z" fill="white"/>
<path d="M284.899 387.68V377.71C284.309 378.13 283.099 378.63 282.449 378.75V377.47C283.359 377.22 284.509 376.55 285.319 375.78H286.519V387.69H284.899V387.68Z" fill="white"/>
<path d="M294.99 378.99C294.99 380.9 293.96 382.39 291.95 382.39C290.06 382.39 288.98 381.05 288.98 379.01C288.98 377.18 290 375.62 291.98 375.62C293.83 375.62 294.99 376.89 294.99 378.99ZM290.32 378.99C290.32 380.33 290.9 381.24 292.01 381.24C293.07 381.24 293.68 380.4 293.68 378.99C293.68 377.58 293.05 376.78 291.98 376.78C290.97 376.78 290.32 377.56 290.32 378.99ZM291.72 387.68L299.43 375.83H300.78L293.08 387.68H291.72ZM303.53 384.51C303.53 386.41 302.51 387.91 300.49 387.91C298.57 387.91 297.52 386.51 297.52 384.53C297.52 382.7 298.53 381.14 300.52 381.14C302.39 381.15 303.53 382.42 303.53 384.51ZM298.86 384.51C298.86 385.84 299.44 386.76 300.55 386.76C301.61 386.76 302.22 385.92 302.22 384.51C302.22 383.11 301.59 382.3 300.52 382.3C299.53 382.3 298.86 383.13 298.86 384.51Z" fill="white"/>
<path d="M378.899 387.68V377.71C378.309 378.13 377.099 378.63 376.449 378.75V377.47C377.359 377.22 378.509 376.55 379.319 375.78H380.519V387.69H378.899V387.68Z" fill="white"/>
<path d="M388.99 378.99C388.99 380.9 387.96 382.39 385.95 382.39C384.06 382.39 382.98 381.05 382.98 379.01C382.98 377.18 384 375.62 385.98 375.62C387.83 375.62 388.99 376.89 388.99 378.99ZM384.32 378.99C384.32 380.33 384.9 381.24 386.01 381.24C387.07 381.24 387.68 380.4 387.68 378.99C387.68 377.58 387.05 376.78 385.98 376.78C384.97 376.78 384.32 377.56 384.32 378.99ZM385.72 387.68L393.43 375.83H394.78L387.08 387.68H385.72ZM397.53 384.51C397.53 386.41 396.51 387.91 394.49 387.91C392.57 387.91 391.52 386.51 391.52 384.53C391.52 382.7 392.53 381.14 394.52 381.14C396.39 381.15 397.53 382.42 397.53 384.51ZM392.86 384.51C392.86 385.84 393.44 386.76 394.55 386.76C395.61 386.76 396.22 385.92 396.22 384.51C396.22 383.11 395.59 382.3 394.52 382.3C393.53 382.3 392.86 383.13 392.86 384.51Z" fill="white"/>
<path d="M469.899 387.68V377.71C469.309 378.13 468.099 378.63 467.449 378.75V377.47C468.359 377.22 469.509 376.55 470.319 375.78H471.519V387.69H469.899V387.68Z" fill="white"/>
<path d="M479.99 378.99C479.99 380.9 478.96 382.39 476.95 382.39C475.06 382.39 473.98 381.05 473.98 379.01C473.98 377.18 475 375.62 476.98 375.62C478.83 375.62 479.99 376.89 479.99 378.99ZM475.32 378.99C475.32 380.33 475.9 381.24 477.01 381.24C478.07 381.24 478.68 380.4 478.68 378.99C478.68 377.58 478.05 376.78 476.98 376.78C475.97 376.78 475.32 377.56 475.32 378.99ZM476.72 387.68L484.43 375.83H485.78L478.08 387.68H476.72ZM488.53 384.51C488.53 386.41 487.51 387.91 485.49 387.91C483.57 387.91 482.52 386.51 482.52 384.53C482.52 382.7 483.53 381.14 485.52 381.14C487.39 381.15 488.53 382.42 488.53 384.51ZM483.86 384.51C483.86 385.84 484.44 386.76 485.55 386.76C486.61 386.76 487.22 385.92 487.22 384.51C487.22 383.11 486.59 382.3 485.52 382.3C484.53 382.3 483.86 383.13 483.86 384.51Z" fill="white"/>
<path d="M294.142 92.2098H289.182C289.072 93.1598 288.782 94.9598 288.662 95.5898C289.162 95.0298 289.942 94.6398 291.142 94.6398C293.312 94.6398 294.712 96.1498 294.712 98.5698C294.712 100.88 293.502 102.9 290.632 102.9C288.512 102.9 286.982 101.73 286.672 99.7098H288.272C288.542 100.79 289.322 101.59 290.682 101.59C292.292 101.59 293.092 100.44 293.092 98.6898C293.092 97.1598 292.452 95.9898 290.812 95.9898C289.382 95.9898 288.792 96.5898 288.372 97.5398L286.902 97.2698C287.252 95.7198 287.712 92.3298 287.882 90.8398H294.372L294.142 92.2098Z" fill="white"/>
<path d="M302.073 93.9901C302.073 95.9001 301.043 97.3901 299.033 97.3901C297.143 97.3901 296.062 96.0501 296.062 94.0101C296.062 92.1801 297.082 90.6201 299.062 90.6201C300.913 90.6201 302.073 91.8901 302.073 93.9901ZM297.402 93.9901C297.402 95.3301 297.982 96.2401 299.092 96.2401C300.152 96.2401 300.763 95.4001 300.763 93.9901C300.763 92.5801 300.133 91.7801 299.062 91.7801C298.053 91.7801 297.402 92.5601 297.402 93.9901ZM298.802 102.68L306.513 90.8301H307.862L300.163 102.68H298.802ZM310.612 99.5101C310.612 101.41 309.593 102.91 307.573 102.91C305.653 102.91 304.603 101.51 304.603 99.5301C304.603 97.7001 305.613 96.1401 307.603 96.1401C309.473 96.1501 310.612 97.4201 310.612 99.5101ZM305.932 99.5101C305.932 100.84 306.512 101.76 307.622 101.76C308.682 101.76 309.293 100.92 309.293 99.5101C309.293 98.1101 308.662 97.3001 307.592 97.3001C306.612 97.3001 305.932 98.1301 305.932 99.5101Z" fill="white"/>
</svg>
