<svg width="47" height="47" viewBox="0 0 47 47" fill="none" xmlns="http://www.w3.org/2000/svg">
<g clip-path="url(#clip0)">
<path d="M38.493 16.1273C38.1169 16.1757 37.7873 16.4026 37.6078 16.7367C37.1645 17.5561 36.5895 18.0261 36.0333 18.0261C35.062 18.0261 34.1251 16.6599 33.804 14.7705C33.7092 14.2414 33.3756 13.7856 32.9 13.5352V3.91667C32.9 2.6188 31.8479 1.56667 30.55 1.56667H28.9833V0.783333C28.9833 0.35071 28.6326 0 28.2 0C27.7674 0 27.4167 0.35071 27.4167 0.783333V1.56667H24.2833V0.783333C24.2833 0.35071 23.9326 0 23.5 0C23.0674 0 22.7167 0.35071 22.7167 0.783333V1.56667H19.5833V0.783333C19.5833 0.35071 19.2326 0 18.8 0C18.3674 0 18.0167 0.35071 18.0167 0.783333V1.56667H14.8833V0.783333C14.8833 0.35071 14.5326 0 14.1 0C13.6674 0 13.3167 0.35071 13.3167 0.783333V1.56667H10.1833V0.783333C10.1833 0.35071 9.83262 0 9.4 0C8.96738 0 8.61667 0.35071 8.61667 0.783333V1.56667H5.48333V0.783333C5.48333 0.35071 5.13262 0 4.7 0C4.26738 0 3.91667 0.35071 3.91667 0.783333V1.56667H2.35C1.05213 1.56667 0 2.6188 0 3.91667V32.1167C0 33.4145 1.05213 34.4667 2.35 34.4667H18.8901C18.9835 35.3054 19.1497 36.1344 19.3867 36.9443C20.9527 42.2592 25.5033 46.1521 30.9965 46.8762C31.6141 46.9575 32.2363 46.9989 32.8593 47C36.6059 47.0108 40.2027 45.5301 42.8558 42.8846C45.5089 40.2392 47 36.6466 47 32.9C47 27.4707 43.2228 20.5359 39.4925 16.4923C39.2393 16.2142 38.8659 16.0778 38.493 16.1273ZM2.35 3.13333H3.91667V3.91667C3.91667 4.34929 4.26738 4.7 4.7 4.7C5.13262 4.7 5.48333 4.34929 5.48333 3.91667V3.13333H8.61667V3.91667C8.61667 4.34929 8.96738 4.7 9.4 4.7C9.83262 4.7 10.1833 4.34929 10.1833 3.91667V3.13333H13.3167V3.91667C13.3167 4.34929 13.6674 4.7 14.1 4.7C14.5326 4.7 14.8833 4.34929 14.8833 3.91667V3.13333H18.0167V3.91667C18.0167 4.34929 18.3674 4.7 18.8 4.7C19.2326 4.7 19.5833 4.34929 19.5833 3.91667V3.13333H22.7167V3.91667C22.7167 4.34929 23.0674 4.7 23.5 4.7C23.9326 4.7 24.2833 4.34929 24.2833 3.91667V3.13333H27.4167V3.91667C27.4167 4.34929 27.7674 4.7 28.2 4.7C28.6326 4.7 28.9833 4.34929 28.9833 3.91667V3.13333H30.55C30.9826 3.13333 31.3333 3.48404 31.3333 3.91667V7.05H1.56667V3.91667C1.56667 3.48404 1.91738 3.13333 2.35 3.13333ZM1.56667 32.1167V8.61667H31.3333V13.5101C31.2401 13.5543 31.1509 13.6068 31.067 13.6668C27.0845 16.6451 18.7624 23.9559 18.7929 32.9H2.35C1.91738 32.9 1.56667 32.5493 1.56667 32.1167ZM41.1665 42.3204C38.4422 44.7289 34.8007 45.8256 31.1994 45.3221C26.339 44.64 22.3163 41.1992 20.8892 36.5033C17.9125 26.4273 28.6442 17.4347 32.0078 14.9178C32.056 14.8856 32.1178 14.8814 32.1699 14.9069C32.222 14.9324 32.2566 14.9837 32.2608 15.0416C32.7238 17.7652 34.2395 19.5951 36.0333 19.5951C37.1403 19.5316 38.1411 18.9158 38.6967 17.9564C42.1042 21.8166 45.4333 28.0433 45.4333 32.9C45.4332 36.5079 43.8784 39.9407 41.1665 42.3204Z" fill="#5E72E4"/>
<path d="M32.9 21.9333C26.8433 21.9333 21.9333 26.8433 21.9333 32.9C21.9333 38.9567 26.8433 43.8667 32.9 43.8667C38.9567 43.8667 43.8667 38.9567 43.8667 32.9C43.8443 26.8526 38.9475 21.9557 32.9 21.9333ZM38.2572 40.6135L37.8867 39.9704C37.6704 39.5955 37.1912 39.467 36.8163 39.6833C36.4414 39.8996 36.3129 40.3788 36.5292 40.7537L36.8989 41.3945C35.8879 41.8745 34.7986 42.1683 33.6833 42.2616V41.5167C33.6833 41.0841 33.3326 40.7334 32.9 40.7334C32.4674 40.7334 32.1167 41.0841 32.1167 41.5167V42.2601C31.0012 42.1673 29.9117 41.8741 28.9003 41.3945L29.2701 40.7537C29.4864 40.3788 29.3578 39.8996 28.983 39.6833C28.6081 39.467 28.1288 39.5955 27.9125 39.9704L27.542 40.6135C26.624 39.9736 25.8265 39.1761 25.1865 38.258L25.8289 37.8867C26.2003 37.6689 26.3264 37.1922 26.1111 36.8193C25.8958 36.4464 25.4199 36.3172 25.0455 36.53L24.4055 36.8997C23.9257 35.8884 23.632 34.7988 23.5384 33.6833H24.2833C24.716 33.6833 25.0667 33.3326 25.0667 32.9C25.0667 32.4674 24.716 32.1167 24.2833 32.1167H23.5392C23.6326 31.0029 23.9258 29.915 24.4048 28.905L25.0447 29.2748C25.2872 29.4169 25.5873 29.4182 25.8311 29.2782C26.0748 29.1382 26.2249 28.8784 26.2242 28.5973C26.2236 28.3162 26.0724 28.0569 25.8281 27.918L25.1858 27.5467C25.8255 26.6285 26.623 25.831 27.5412 25.1912L27.9117 25.8343C28.1281 26.2092 28.6073 26.3378 28.9822 26.1214C29.357 25.9051 29.4856 25.4259 29.2693 25.051L28.8995 24.4103C29.9109 23.9295 31.0008 23.6352 32.1167 23.5415V24.2833C32.1167 24.716 32.4674 25.0667 32.9 25.0667C33.3326 25.0667 33.6833 24.716 33.6833 24.2833V23.54C34.7972 23.6333 35.8851 23.9265 36.895 24.4055L36.5253 25.0463C36.309 25.4212 36.4375 25.9004 36.8124 26.1167C37.1872 26.3331 37.6665 26.2045 37.8828 25.8296L38.2533 25.1865C39.1715 25.8263 39.9691 26.6238 40.6088 27.542L39.9665 27.9133C39.7221 28.0522 39.5709 28.3115 39.5703 28.5926C39.5697 28.8737 39.7197 29.1335 39.9635 29.2735C40.2072 29.4135 40.5073 29.4122 40.7498 29.2701L41.3898 28.9003C41.8706 29.9115 42.1651 31.001 42.2593 32.1167H41.5167C41.0841 32.1167 40.7334 32.4674 40.7334 32.9C40.7334 33.3326 41.0841 33.6833 41.5167 33.6833H42.2601C42.1667 34.7988 41.8733 35.8883 41.3937 36.8997L40.7537 36.53C40.5112 36.3878 40.2111 36.3865 39.9674 36.5265C39.7236 36.6665 39.5736 36.9264 39.5742 37.2075C39.5748 37.4886 39.726 37.7478 39.9704 37.8867L40.6127 38.258C39.9727 39.1767 39.1749 39.9747 38.2565 40.6151L38.2572 40.6135Z" fill="#5E72E4"/>
<path d="M33.7953 32.69L35.2053 28.449C35.2937 28.1832 35.2336 27.8903 35.0476 27.6808C34.8616 27.4713 34.5779 27.3769 34.3034 27.4333C34.029 27.4896 33.8054 27.6881 33.717 27.954L32.1503 32.654C32.0567 32.9354 32.13 33.2456 32.3399 33.4553L34.6899 35.8053C34.9947 36.1127 35.4909 36.1148 35.7983 35.81C36.1057 35.5052 36.1078 35.009 35.803 34.7016L33.7953 32.69Z" fill="#5E72E4"/>
<path d="M8.61667 10.1833H5.49587C4.63062 10.1833 3.9292 10.8848 3.9292 11.75V14.1C3.9292 14.9653 4.63062 15.6667 5.49587 15.6667H8.61667C9.48191 15.6667 10.1833 14.9653 10.1833 14.1V11.75C10.1833 10.8848 9.48191 10.1833 8.61667 10.1833ZM5.49587 14.1V11.75H8.61667V14.1H5.49587Z" fill="#5E72E4"/>
<path d="M14.8833 15.6667H18.0041C18.8694 15.6667 19.5708 14.9653 19.5708 14.1V11.75C19.5708 10.8848 18.8694 10.1833 18.0041 10.1833H14.8833C14.0181 10.1833 13.3167 10.8848 13.3167 11.75V14.1C13.3167 14.9653 14.0181 15.6667 14.8833 15.6667ZM14.8833 11.75H18.0041V14.1H14.8833V11.75Z" fill="#5E72E4"/>
<path d="M24.2708 15.6667H25.85C26.2826 15.6667 26.6333 15.316 26.6333 14.8833C26.6333 14.4507 26.2826 14.1 25.85 14.1H24.2708V11.75H27.4166V12.5333C27.4166 12.966 27.7673 13.3167 28.2 13.3167C28.6326 13.3167 28.9833 12.966 28.9833 12.5333V11.75C28.9833 10.8848 28.2819 10.1833 27.4166 10.1833H24.2708C23.4055 10.1833 22.7041 10.8848 22.7041 11.75V14.1C22.7041 14.9653 23.4055 15.6667 24.2708 15.6667Z" fill="#5E72E4"/>
<path d="M8.61667 17.2334H5.49587C4.63062 17.2334 3.9292 17.9348 3.9292 18.8001V21.1501C3.9292 22.0153 4.63062 22.7167 5.49587 22.7167H8.61667C9.48191 22.7167 10.1833 22.0153 10.1833 21.1501V18.8001C10.1833 17.9348 9.48191 17.2334 8.61667 17.2334ZM5.49587 21.1501V18.8001H8.61667V21.1501H5.49587Z" fill="#5E72E4"/>
<path d="M14.8833 22.7167H18.0041C18.8694 22.7167 19.5708 22.0153 19.5708 21.1501V18.8001C19.5708 17.9348 18.8694 17.2334 18.0041 17.2334H14.8833C14.0181 17.2334 13.3167 17.9348 13.3167 18.8001V21.1501C13.3167 22.0153 14.0181 22.7167 14.8833 22.7167ZM14.8833 18.8001H18.0041V21.1501H14.8833V18.8001Z" fill="#5E72E4"/>
<path d="M8.61667 24.2834H5.49587C4.63062 24.2834 3.9292 24.9849 3.9292 25.8501V28.2001C3.9292 29.0654 4.63062 29.7668 5.49587 29.7668H8.61667C9.48191 29.7668 10.1833 29.0654 10.1833 28.2001V25.8501C10.1833 24.9849 9.48191 24.2834 8.61667 24.2834ZM5.49587 28.2001V25.8501H8.61667V28.2001H5.49587Z" fill="#5E72E4"/>
<path d="M18.0041 25.8501C18.4367 25.8501 18.7874 25.4994 18.7874 25.0668C18.7874 24.6342 18.4367 24.2834 18.0041 24.2834H14.8833C14.0181 24.2834 13.3167 24.9849 13.3167 25.8501V28.2001C13.3167 29.0654 14.0181 29.7668 14.8833 29.7668H17.2333C17.6659 29.7668 18.0167 29.4161 18.0167 28.9834C18.0167 28.5508 17.6659 28.2001 17.2333 28.2001H14.8833V25.8501H18.0041Z" fill="#5E72E4"/>
</g>
<defs>
<clipPath id="clip0">
<rect width="47" height="47" fill="white"/>
</clipPath>
</defs>
</svg>
