<?xml version="1.0" encoding="utf-8"?>
<!-- Generator: Adobe Illustrator 24.2.1, SVG Export Plug-In . SVG Version: 6.00 Build 0)  -->
<svg version="1.1" id="_x3C_Layer_x3E_" xmlns="http://www.w3.org/2000/svg" xmlns:xlink="http://www.w3.org/1999/xlink" x="0px"
	 y="0px" viewBox="0 0 2827.73 1682.22" style="enable-background:new 0 0 2827.73 1682.22;" xml:space="preserve">
<style type="text/css">
	.st0{fill:#E3EAFF;}
	.st1{fill:url(#SVGID_1_);}
	.st2{fill:url(#SVGID_2_);}
	.st3{fill:url(#SVGID_3_);}
	.st4{fill:url(#SVGID_4_);}
	.st5{fill:url(#SVGID_5_);}
	.st6{fill:url(#SVGID_6_);}
	.st7{fill:url(#SVGID_7_);}
	.st8{fill:url(#SVGID_8_);}
	.st9{fill:url(#SVGID_9_);}
	.st10{fill:url(#SVGID_10_);}
	.st11{fill:url(#SVGID_11_);}
	.st12{fill:url(#SVGID_12_);}
	.st13{fill:url(#SVGID_13_);}
	.st14{fill:url(#SVGID_14_);}
	.st15{fill:url(#SVGID_15_);}
	.st16{fill:url(#SVGID_16_);}
	.st17{fill:url(#SVGID_17_);}
	.st18{fill:url(#SVGID_18_);}
	.st19{fill:url(#SVGID_19_);}
	.st20{fill:url(#SVGID_20_);}
	.st21{fill:url(#SVGID_21_);}
	.st22{fill:url(#SVGID_22_);}
	.st23{fill:url(#SVGID_23_);}
	.st24{fill:url(#SVGID_24_);}
	.st25{fill:url(#SVGID_25_);}
	.st26{fill:url(#SVGID_26_);}
	.st27{fill:url(#SVGID_27_);}
	.st28{fill:#FAFAFA;}
	.st29{fill:url(#SVGID_28_);}
	.st30{fill:#E7E7E7;}
	.st31{fill:#95A6DB;}
	.st32{fill:#FFFFFF;}
	.st33{fill:url(#SVGID_29_);}
	.st34{fill:#B8D6FF;}
	.st35{opacity:0.44;}
	.st36{fill:url(#SVGID_30_);}
	.st37{fill:url(#SVGID_31_);}
	.st38{fill:url(#SVGID_32_);}
	.st39{fill:url(#SVGID_33_);}
	.st40{fill:url(#SVGID_34_);}
	.st41{fill:#FF9F55;}
	.st42{fill:#EFF7FE;}
	.st43{fill:url(#SVGID_35_);}
	.st44{fill:#5284FC;}
	.st45{fill:url(#SVGID_36_);}
	.st46{fill:url(#SVGID_37_);}
	.st47{fill:url(#SVGID_38_);}
	.st48{fill:#8DBDE3;}
	.st49{fill:#706865;}
	.st50{fill:#C9C9C9;}
	.st51{fill:#FFAA55;}
	.st52{fill:#CCBDB7;}
	.st53{fill:#B59074;}
	.st54{fill:#D44040;}
	.st55{fill:#EAD8CF;}
	.st56{fill:#DA9B5B;}
	.st57{fill:#424773;}
	.st58{fill:#292C47;}
	.st59{fill:#EEA886;}
	.st60{fill:#3A3F47;}
	.st61{fill:#E2D2CA;}
	.st62{fill:#323657;}
	.st63{fill:#918783;}
	.st64{fill:#5E5854;}
	.st65{fill:#BFB2AC;}
	.st66{fill:#254380;}
	.st67{fill:url(#SVGID_39_);}
	.st68{fill:#F5F7FF;}
	.st69{fill:#FFC655;}
	.st70{fill:#DFE1E8;}
	.st71{fill:#36572B;}
	.st72{fill:#45613C;}
	.st73{fill:#925E2E;}
	.st74{fill:#48753A;}
	.st75{fill:#538742;}
	.st76{fill:#877670;}
	.st77{fill:#876455;}
	.st78{fill:#715346;}
	.st79{fill:#9E633A;}
	.st80{fill:#97A43C;}
	.st81{fill:#82522F;}
	.st82{fill:#C67B47;}
	.st83{fill:#1A2F59;}
	.st84{fill:url(#SVGID_40_);}
	.st85{fill:url(#SVGID_41_);}
	.st86{fill:#F08533;}
	.st87{fill:#FAE6DE;}
	.st88{fill:url(#SVGID_42_);}
	.st89{fill:#495DA1;}
	.st90{fill:#DECCC5;}
	.st91{fill:url(#SVGID_43_);}
	.st92{fill:url(#SVGID_44_);}
	.st93{fill:url(#SVGID_45_);}
	.st94{fill:url(#SVGID_46_);}
	.st95{fill:url(#SVGID_47_);}
</style>
<path class="st0" d="M126.12,1652.1c0,0-244.03-237.42-44.12-474.05c50.69-60,156.03-86.27,160.84-164.51
	c10.01-162.93-94.77-284.29,16.99-451.01c150.05-223.85,298.3-166.22,512.58-191.03c151.18-17.51,182.71-125.43,302.04-219.43
	c432.6-340.75,790.74-33.18,1013.28,187.57c166.79,165.44,320.15-94.22,566.92,243.21c151.69,207.41,8.57,318.99-2.68,458.19
	c-12.13,150.21,145.87,222.7,165.77,320.01c35.42,173.26-34.76,287.9-34.76,287.9L126.12,1652.1z"/>
<linearGradient id="SVGID_1_" gradientUnits="userSpaceOnUse" x1="1763.1348" y1="235.4591" x2="2794.9297" y2="235.4591" gradientTransform="matrix(1 0 0 -1 0 1493.0894)">
	<stop  offset="0" style="stop-color:#DBDBE6"/>
	<stop  offset="1" style="stop-color:#FFFFFF"/>
</linearGradient>
<polygon class="st1" points="1763.13,1026.11 1763.13,1197.53 1829.91,1197.53 1829.91,1312.17 1907.83,1312.17 1907.83,1216.45 
	1967.94,1216.45 1967.94,1353.35 1955.69,1353.35 1955.69,1375.61 2093.71,1375.61 2093.71,1352.24 2080.35,1352.24 2080.35,1220.9 
	2112.64,1220.9 2112.64,1189.73 2171.62,1189.73 2171.62,1430.15 2230.62,1489.15 2250.65,1469.11 2270.25,1469.11 2270.25,1135.19 
	2337.47,1135.19 2337.47,1161.91 2388.67,1213.11 2429.85,1213.11 2429.85,1135.19 2472.15,1135.19 2472.15,1335.55 
	2540.04,1335.55 2540.04,1190.85 2595.69,1190.85 2595.69,1081.77 2669.15,1081.77 2669.15,1201.98 2794.93,1201.98 
	2794.93,1026.11 "/>
<g>
	
		<linearGradient id="SVGID_2_" gradientUnits="userSpaceOnUse" x1="1892.8062" y1="11984.5801" x2="1892.8062" y2="11584.0625" gradientTransform="matrix(1 0 0 1 0 -10798.6748)">
		<stop  offset="0" style="stop-color:#FCFCFC"/>
		<stop  offset="1" style="stop-color:#FDFDFD"/>
	</linearGradient>
	<rect x="1877.78" y="1026.11" class="st2" width="30.05" height="286.06"/>
	
		<linearGradient id="SVGID_3_" gradientUnits="userSpaceOnUse" x1="2000.7722" y1="11984.5791" x2="2000.7722" y2="11584.0645" gradientTransform="matrix(1 0 0 1 0 -10798.6748)">
		<stop  offset="0" style="stop-color:#FCFCFC"/>
		<stop  offset="1" style="stop-color:#FDFDFD"/>
	</linearGradient>
	<polygon class="st3" points="2031.74,1375.61 2031.74,1124.81 1965.71,1124.81 1965.71,1064.7 1907.83,1064.7 1907.83,1026.11 
		2080.35,1026.11 2080.35,1352.24 2093.71,1352.24 2093.71,1375.61 	"/>
	
		<linearGradient id="SVGID_4_" gradientUnits="userSpaceOnUse" x1="2175.3008" y1="763.9617" x2="2175.3008" y2="-40.2928" gradientTransform="matrix(1 0 0 -1 0 1493.0894)">
		<stop  offset="0" style="stop-color:#FCFCFC"/>
		<stop  offset="1" style="stop-color:#FDFDFD"/>
	</linearGradient>
	<polygon class="st4" points="2230.62,1489.15 2230.62,1094.01 2172.74,1094.01 2172.74,1189.73 2140.46,1189.73 2140.46,1105.14 
		2080.35,1105.14 2080.35,1026.11 2270.25,1026.11 2270.25,1469.11 2250.65,1469.11 	"/>
	
		<linearGradient id="SVGID_5_" gradientUnits="userSpaceOnUse" x1="2350.0508" y1="763.9626" x2="2350.0508" y2="-40.2944" gradientTransform="matrix(1 0 0 -1 0 1493.0894)">
		<stop  offset="0" style="stop-color:#FCFCFC"/>
		<stop  offset="1" style="stop-color:#FDFDFD"/>
	</linearGradient>
	<polygon class="st5" points="2388.67,1213.11 2388.67,1107.37 2351.66,1070.36 2323,1070.36 2323,1051.16 2270.25,1051.16 
		2270.25,1026.11 2429.85,1026.11 2429.85,1213.11 	"/>
	
		<linearGradient id="SVGID_6_" gradientUnits="userSpaceOnUse" x1="2525.8542" y1="763.9633" x2="2525.8542" y2="-40.2943" gradientTransform="matrix(1 0 0 -1 0 1493.0894)">
		<stop  offset="0" style="stop-color:#FCFCFC"/>
		<stop  offset="1" style="stop-color:#FDFDFD"/>
	</linearGradient>
	<rect x="2511.66" y="1026.11" class="st6" width="28.38" height="309.43"/>
	
		<linearGradient id="SVGID_7_" gradientUnits="userSpaceOnUse" x1="2667.4863" y1="763.962" x2="2667.4863" y2="-40.2948" gradientTransform="matrix(1 0 0 -1 0 1493.0894)">
		<stop  offset="0" style="stop-color:#FCFCFC"/>
		<stop  offset="1" style="stop-color:#FDFDFD"/>
	</linearGradient>
	<polygon class="st7" points="2794.93,1201.98 2742.62,1201.98 2742.62,1070.64 2704.77,1070.64 2704.77,1044.67 2540.04,1044.67 
		2540.04,1026.11 2794.93,1026.11 	"/>
	
		<linearGradient id="SVGID_8_" gradientUnits="userSpaceOnUse" x1="2569.6746" y1="763.9599" x2="2569.6746" y2="-40.2926" gradientTransform="matrix(1 0 0 -1 0 1493.0894)">
		<stop  offset="0" style="stop-color:#FCFCFC"/>
		<stop  offset="1" style="stop-color:#FDFDFD"/>
	</linearGradient>
	<polygon class="st8" points="2595.69,1190.85 2573.99,1190.85 2573.99,1066.74 2543.66,1036.41 2595.69,1036.41 	"/>
	
		<linearGradient id="SVGID_9_" gradientUnits="userSpaceOnUse" x1="1814.3326" y1="11984.5791" x2="1814.3326" y2="11584.0635" gradientTransform="matrix(1 0 0 1 0 -10798.6748)">
		<stop  offset="0" style="stop-color:#FCFCFC"/>
		<stop  offset="1" style="stop-color:#FDFDFD"/>
	</linearGradient>
	<rect x="1798.75" y="1026.11" class="st9" width="31.16" height="171.41"/>
</g>
<linearGradient id="SVGID_10_" gradientUnits="userSpaceOnUse" x1="1287.4218" y1="1071.035" x2="1287.4218" y2="246.5574" gradientTransform="matrix(1 0 0 -1 0 1493.0894)">
	<stop  offset="0" style="stop-color:#DBDBE6"/>
	<stop  offset="1" style="stop-color:#FFFFFF"/>
</linearGradient>
<polygon class="st10" points="771.52,1011.37 771.52,839.97 838.31,839.97 838.31,725.32 916.22,725.32 916.22,821.04 
	976.33,821.04 976.33,684.14 964.09,684.14 964.09,661.88 1102.1,661.88 1102.1,685.25 1088.74,685.25 1088.74,816.59 
	1121.02,816.59 1121.02,847.76 1180.02,847.76 1180.02,607.34 1239.01,548.34 1259.05,568.37 1278.65,568.37 1278.65,902.3 
	1345.86,902.3 1345.86,875.58 1397.06,824.38 1438.24,824.38 1438.24,902.3 1480.55,902.3 1480.55,701.94 1548.43,701.94 
	1548.43,846.64 1604.09,846.64 1604.09,955.72 1677.56,955.72 1677.56,835.51 1803.32,835.51 1803.32,1011.37 "/>
<g>
	
		<linearGradient id="SVGID_11_" gradientUnits="userSpaceOnUse" x1="901.1957" y1="290.2718" x2="901.1957" y2="1139.5833" gradientTransform="matrix(1 0 0 -1 0 1493.0894)">
		<stop  offset="0" style="stop-color:#FCFCFC"/>
		<stop  offset="1" style="stop-color:#FDFDFD"/>
	</linearGradient>
	<rect x="886.17" y="725.32" class="st11" width="30.05" height="286.06"/>
	
		<linearGradient id="SVGID_12_" gradientUnits="userSpaceOnUse" x1="1009.1618" y1="12.721" x2="1009.1618" y2="997.1952" gradientTransform="matrix(1 0 0 -1 0 1493.0894)">
		<stop  offset="0" style="stop-color:#FCFCFC"/>
		<stop  offset="1" style="stop-color:#FDFDFD"/>
	</linearGradient>
	<polygon class="st12" points="1040.15,661.88 1040.15,912.69 974.1,912.69 974.1,972.79 916.22,972.79 916.22,1011.37 
		1088.74,1011.37 1088.74,685.25 1102.1,685.25 1102.1,661.88 	"/>
	
		<linearGradient id="SVGID_13_" gradientUnits="userSpaceOnUse" x1="1183.6958" y1="12.7244" x2="1183.6958" y2="997.1967" gradientTransform="matrix(1 0 0 -1 0 1493.0894)">
		<stop  offset="0" style="stop-color:#FCFCFC"/>
		<stop  offset="1" style="stop-color:#FDFDFD"/>
	</linearGradient>
	<polygon class="st13" points="1239.01,548.34 1239.01,943.48 1181.13,943.48 1181.13,847.76 1148.85,847.76 1148.85,932.35 
		1088.74,932.35 1088.74,1011.37 1278.65,1011.37 1278.65,568.37 1259.05,568.37 	"/>
	
		<linearGradient id="SVGID_14_" gradientUnits="userSpaceOnUse" x1="1358.4459" y1="12.7228" x2="1358.4459" y2="997.1946" gradientTransform="matrix(1 0 0 -1 0 1493.0894)">
		<stop  offset="0" style="stop-color:#FCFCFC"/>
		<stop  offset="1" style="stop-color:#FDFDFD"/>
	</linearGradient>
	<polygon class="st14" points="1397.06,824.38 1397.06,930.12 1360.05,967.13 1331.39,967.13 1331.39,986.33 1278.65,986.33 
		1278.65,1011.37 1438.24,1011.37 1438.24,824.38 	"/>
	
		<linearGradient id="SVGID_15_" gradientUnits="userSpaceOnUse" x1="1534.2435" y1="12.7217" x2="1534.2435" y2="997.1967" gradientTransform="matrix(1 0 0 -1 0 1493.0894)">
		<stop  offset="0" style="stop-color:#FCFCFC"/>
		<stop  offset="1" style="stop-color:#FDFDFD"/>
	</linearGradient>
	<rect x="1520.05" y="701.94" class="st15" width="28.38" height="309.43"/>
	
		<linearGradient id="SVGID_16_" gradientUnits="userSpaceOnUse" x1="1675.8761" y1="12.7237" x2="1675.8761" y2="997.1948" gradientTransform="matrix(1 0 0 -1 0 1493.0894)">
		<stop  offset="0" style="stop-color:#FCFCFC"/>
		<stop  offset="1" style="stop-color:#FDFDFD"/>
	</linearGradient>
	<polygon class="st16" points="1803.32,835.51 1733.28,835.51 1733.28,966.85 1713.17,966.85 1713.17,992.82 1548.43,992.82 
		1548.43,1011.37 1803.32,1011.37 	"/>
	
		<linearGradient id="SVGID_17_" gradientUnits="userSpaceOnUse" x1="1578.0752" y1="12.719" x2="1578.0752" y2="997.1972" gradientTransform="matrix(1 0 0 -1 0 1493.0894)">
		<stop  offset="0" style="stop-color:#FCFCFC"/>
		<stop  offset="1" style="stop-color:#FDFDFD"/>
	</linearGradient>
	<polygon class="st17" points="1604.09,846.64 1582.39,846.64 1582.39,970.75 1552.06,1001.08 1604.09,1001.08 	"/>
	
		<linearGradient id="SVGID_18_" gradientUnits="userSpaceOnUse" x1="822.7222" y1="290.272" x2="822.7222" y2="1139.5851" gradientTransform="matrix(1 0 0 -1 0 1493.0894)">
		<stop  offset="0" style="stop-color:#FCFCFC"/>
		<stop  offset="1" style="stop-color:#FDFDFD"/>
	</linearGradient>
	<rect x="807.14" y="839.97" class="st18" width="31.16" height="171.41"/>
</g>
<linearGradient id="SVGID_19_" gradientUnits="userSpaceOnUse" x1="2279.0322" y1="1071.035" x2="2279.0322" y2="246.5574" gradientTransform="matrix(1 0 0 -1 0 1493.0894)">
	<stop  offset="0" style="stop-color:#DBDBE6"/>
	<stop  offset="1" style="stop-color:#FFFFFF"/>
</linearGradient>
<polygon class="st19" points="1763.13,1011.37 1763.13,839.97 1829.91,839.97 1829.91,725.32 1907.83,725.32 1907.83,821.04 
	1967.94,821.04 1967.94,684.14 1955.69,684.14 1955.69,661.88 2093.71,661.88 2093.71,685.25 2080.35,685.25 2080.35,816.59 
	2112.64,816.59 2112.64,847.76 2171.62,847.76 2171.62,607.34 2230.62,548.34 2250.65,568.37 2270.25,568.37 2270.25,902.3 
	2337.47,902.3 2337.47,875.58 2388.67,824.38 2429.85,824.38 2429.85,902.3 2472.15,902.3 2472.15,701.94 2540.04,701.94 
	2540.04,846.64 2595.69,846.64 2595.69,955.72 2669.15,955.72 2669.15,835.51 2794.93,835.51 2794.93,1011.37 "/>
<g>
	
		<linearGradient id="SVGID_20_" gradientUnits="userSpaceOnUse" x1="1892.8062" y1="12.7225" x2="1892.8062" y2="997.1943" gradientTransform="matrix(1 0 0 -1 0 1493.0894)">
		<stop  offset="0" style="stop-color:#FCFCFC"/>
		<stop  offset="1" style="stop-color:#FDFDFD"/>
	</linearGradient>
	<rect x="1877.78" y="725.32" class="st20" width="30.05" height="286.06"/>
	
		<linearGradient id="SVGID_21_" gradientUnits="userSpaceOnUse" x1="2000.7722" y1="12.721" x2="2000.7722" y2="997.1952" gradientTransform="matrix(1 0 0 -1 0 1493.0894)">
		<stop  offset="0" style="stop-color:#FCFCFC"/>
		<stop  offset="1" style="stop-color:#FDFDFD"/>
	</linearGradient>
	<polygon class="st21" points="2031.74,661.88 2031.74,912.69 1965.71,912.69 1965.71,972.79 1907.83,972.79 1907.83,1011.37 
		2080.35,1011.37 2080.35,685.25 2093.71,685.25 2093.71,661.88 	"/>
	
		<linearGradient id="SVGID_22_" gradientUnits="userSpaceOnUse" x1="2175.3008" y1="12.7244" x2="2175.3008" y2="997.1967" gradientTransform="matrix(1 0 0 -1 0 1493.0894)">
		<stop  offset="0" style="stop-color:#FCFCFC"/>
		<stop  offset="1" style="stop-color:#FDFDFD"/>
	</linearGradient>
	<polygon class="st22" points="2230.62,548.34 2230.62,943.48 2172.74,943.48 2172.74,847.76 2140.46,847.76 2140.46,932.35 
		2080.35,932.35 2080.35,1011.37 2270.25,1011.37 2270.25,568.37 2250.65,568.37 	"/>
	
		<linearGradient id="SVGID_23_" gradientUnits="userSpaceOnUse" x1="2350.0508" y1="12.7228" x2="2350.0508" y2="997.1946" gradientTransform="matrix(1 0 0 -1 0 1493.0894)">
		<stop  offset="0" style="stop-color:#FCFCFC"/>
		<stop  offset="1" style="stop-color:#FDFDFD"/>
	</linearGradient>
	<polygon class="st23" points="2388.67,824.38 2388.67,930.12 2351.66,967.13 2323,967.13 2323,986.33 2270.25,986.33 
		2270.25,1011.37 2429.85,1011.37 2429.85,824.38 	"/>
	
		<linearGradient id="SVGID_24_" gradientUnits="userSpaceOnUse" x1="2525.8542" y1="12.7217" x2="2525.8542" y2="997.1967" gradientTransform="matrix(1 0 0 -1 0 1493.0894)">
		<stop  offset="0" style="stop-color:#FCFCFC"/>
		<stop  offset="1" style="stop-color:#FDFDFD"/>
	</linearGradient>
	<rect x="2511.66" y="701.94" class="st24" width="28.38" height="309.43"/>
	
		<linearGradient id="SVGID_25_" gradientUnits="userSpaceOnUse" x1="2667.4863" y1="12.7237" x2="2667.4863" y2="997.1948" gradientTransform="matrix(1 0 0 -1 0 1493.0894)">
		<stop  offset="0" style="stop-color:#FCFCFC"/>
		<stop  offset="1" style="stop-color:#FDFDFD"/>
	</linearGradient>
	<polygon class="st25" points="2794.93,835.51 2742.62,835.51 2742.62,966.85 2704.77,966.85 2704.77,992.82 2540.04,992.82 
		2540.04,1011.37 2794.93,1011.37 	"/>
	
		<linearGradient id="SVGID_26_" gradientUnits="userSpaceOnUse" x1="2569.6746" y1="12.719" x2="2569.6746" y2="997.1972" gradientTransform="matrix(1 0 0 -1 0 1493.0894)">
		<stop  offset="0" style="stop-color:#FCFCFC"/>
		<stop  offset="1" style="stop-color:#FDFDFD"/>
	</linearGradient>
	<polygon class="st26" points="2595.69,846.64 2573.99,846.64 2573.99,970.75 2543.66,1001.08 2595.69,1001.08 	"/>
	
		<linearGradient id="SVGID_27_" gradientUnits="userSpaceOnUse" x1="1814.3326" y1="12.723" x2="1814.3326" y2="997.1981" gradientTransform="matrix(1 0 0 -1 0 1493.0894)">
		<stop  offset="0" style="stop-color:#FCFCFC"/>
		<stop  offset="1" style="stop-color:#FDFDFD"/>
	</linearGradient>
	<rect x="1798.75" y="839.97" class="st27" width="31.16" height="171.41"/>
</g>
<path class="st28" d="M1065.63,1001.34c0,0,88.33-40.15,106.39-28.1c18.07,12.05,100.37-14.54,158.59-2.25
	c58.21,12.29,92.34,40.83,148.54,13.51c56.2-27.31,122.45-16.84,132.48,0c10.03,16.84,24.09,9.26,88.33,0
	c64.24-9.26,60.23-5.23,144.53,16.84c84.3,22.08,139.73,22.08,139.73,22.08h-918.59V1001.34z"/>
<path class="st28" d="M943.2,1048.85c0,0,20.08-73.61,124.46-37.47c104.38,36.14,127.14,80.29,278.35,74.94
	s218.14,66.91,279.7,65.57c61.56-1.34,64.85,28.1,64.85,28.1H916.44L943.2,1048.85z"/>
<linearGradient id="SVGID_28_" gradientUnits="userSpaceOnUse" x1="2097.7126" y1="20.9333" x2="2097.7126" y2="766.4492" gradientTransform="matrix(1 0 0 -1 0 1493.0894)">
	<stop  offset="0" style="stop-color:#DBDBE6"/>
	<stop  offset="1" style="stop-color:#FFFFFF"/>
</linearGradient>
<path class="st29" d="M2586.79,1023.44c-8.88,0.27-114.72,3.76-248.24,18.39c-4.03,0.44-8.09,0.9-12.21,1.37
	c-103.67,11.76-222.37,30.24-324.85,59.02c-4.09,1.13-8.15,2.29-12.18,3.47c-31.7,9.3-61.69,19.6-88.98,31.05
	c-98.83,41.48-162.43,97.84-144.96,174.41c25.35,111.03,156.2,231.32,325.67,345.35h-295.43c-76-82.09-136.61-169-163.14-254.8
	c-39.16-126.64,7.21-209.87,108.84-264.97c65.66-35.65,154.39-59.56,258-75.88c4.04-0.64,8.09-1.25,12.18-1.86
	c97.78-14.71,208.28-22.92,324.85-28.05c4.06-0.19,8.13-0.35,12.21-0.52C2419.26,1027.03,2502.74,1025.07,2586.79,1023.44z"/>
<path class="st28" d="M1597.79,1007.36c0,0,62.22,19.07,104.38-14.56c42.16-33.62,146.54-30.62,192.71,0
	c46.17,30.62,102.37,13.4,130.47-2.08s82.3-11.03,150.55,4.81c68.25,15.84,68.25-6.88,136.51-4.81
	c68.25,2.08,275.01,32.69,275.01,32.69H1569.67L1597.79,1007.36z"/>
<path class="st28" d="M2333.73,1023.42c0,0,77.55-61.68,117.82-44.62s76.87,38.36,104.31,20.82c27.45-17.54,71.38-19.08,84.18-3.55
	c12.81,15.53,58.65,6.26,82.61,3.55c64.48-7.33,90.33,23.8,90.33,23.8H2333.73z"/>
<path class="st30" d="M1755.42,1656.5H963.91v-87.4c0,0,37.87-68.96,99.96-83.91c14.61-3.51,30.6-4.06,47.71,0
	c11.38,2.69,23.3,7.44,35.69,14.69c110.04,64.38,204.53-14.57,279.21,79.09c74.73,93.7,153.37-29.82,285.65,46.98
	C1729.76,1636.17,1743.9,1646.39,1755.42,1656.5z"/>
<path class="st31" d="M2783.1,1682.22H33.9c-16.51,0-29.89-13.49-29.89-30.12l0,0c0-16.64,13.38-30.12,29.89-30.12H2783.1
	c16.51,0,29.89,13.49,29.89,30.12l0,0C2812.99,1668.73,2799.61,1682.22,2783.1,1682.22z"/>
<circle class="st32" cx="2112.29" cy="266.37" r="7.01"/>
<path class="st32" d="M2436.86,661.88c0,3.87-3.14,7.01-7.01,7.01c-3.87,0-7.01-3.14-7.01-7.01c0-3.87,3.14-7.01,7.01-7.01
	C2433.72,654.87,2436.86,658.01,2436.86,661.88z"/>
<path class="st32" d="M1967.65,96.26c0,3.87-3.14,7.01-7.01,7.01s-7.01-3.14-7.01-7.01c0-3.87,3.14-7.01,7.01-7.01
	S1967.65,92.39,1967.65,96.26z"/>
<path class="st32" d="M2018.07,440.2c0,7.31-5.93,13.24-13.24,13.24c-7.31,0-13.24-5.93-13.24-13.24c0-7.32,5.93-13.24,13.24-13.24
	C2012.13,426.97,2018.07,432.9,2018.07,440.2z"/>
<path class="st32" d="M2073.17,15.82c-0.64,2.7-3.37,4.37-6.06,3.71c-2.7-0.64-4.37-3.37-3.71-6.06c0.64-2.7,3.36-4.37,6.06-3.71
	C2072.15,10.4,2073.81,13.12,2073.17,15.82z"/>
<path class="st32" d="M1912.23,218.34c-1.39,5.75-7.16,9.29-12.91,7.91c-5.75-1.39-9.29-7.16-7.91-12.91
	c1.39-5.75,7.16-9.29,12.91-7.91C1910.07,206.81,1913.61,212.6,1912.23,218.34z"/>
<path class="st32" d="M1906.71,589.6c-0.64,2.7-3.36,4.37-6.06,3.71c-2.7-0.64-4.37-3.37-3.71-6.06c0.64-2.7,3.37-4.37,6.06-3.71
	C1905.69,584.18,1907.36,586.9,1906.71,589.6z"/>
<path class="st32" d="M2329.25,466.68c0,7.31-5.93,13.24-13.24,13.24c-7.31,0-13.24-5.93-13.24-13.24s5.93-13.24,13.24-13.24
	C2323.33,453.44,2329.25,459.37,2329.25,466.68z"/>
<path class="st32" d="M2239.54,90.43c-0.64,2.7-3.37,4.37-6.06,3.71c-2.7-0.65-4.37-3.37-3.71-6.06c0.64-2.7,3.36-4.37,6.06-3.71
	C2238.52,85.02,2240.18,87.73,2239.54,90.43z"/>
<path class="st32" d="M2574.57,589.6c-0.65,2.7-3.37,4.37-6.06,3.71c-2.7-0.64-4.37-3.37-3.71-6.06c0.65-2.7,3.37-4.37,6.06-3.71
	C2573.55,584.18,2575.22,586.9,2574.57,589.6z"/>
<path class="st32" d="M1325.18,371.71c-0.64,2.7-3.37,4.37-6.06,3.71c-2.69-0.65-4.37-3.37-3.71-6.06c0.65-2.7,3.37-4.37,6.06-3.71
	C1324.18,366.29,1325.84,369,1325.18,371.71z"/>
<path class="st32" d="M1655.81,412.54c0,7.31-5.93,13.24-13.24,13.24c-7.31,0-13.24-5.93-13.24-13.24c0-7.32,5.93-13.24,13.24-13.24
	C1649.88,399.3,1655.81,405.23,1655.81,412.54z"/>
<path class="st32" d="M1660.69,165.52c-0.64,2.7-3.37,4.37-6.06,3.71c-2.7-0.65-4.37-3.37-3.71-6.06c0.64-2.7,3.37-4.37,6.06-3.71
	C1659.69,160.1,1661.35,162.83,1660.69,165.52z"/>
<g>
	
		<linearGradient id="SVGID_29_" gradientUnits="userSpaceOnUse" x1="2573.5713" y1="1944.5696" x2="2986.5754" y2="1944.5696" gradientTransform="matrix(0.9184 0.3957 0.3957 -0.9184 -2471.947 906.727)">
		<stop  offset="0" style="stop-color:#FF9F55"/>
		<stop  offset="1" style="stop-color:#FFD255"/>
	</linearGradient>
	<path class="st33" d="M1026.74,248.11c2.58-16.56,2.73-33.18,0.67-49.4l29.16-18.99l-13.97-35.13l-13.97-35.13l-34.24,6.23
		c-9.65-13.2-21.18-25.18-34.42-35.45l7.19-34.03l-34.73-14.96L897.72,16.3l-19.79,28.59c-16.56-2.58-33.18-2.73-49.4-0.67
		l-18.99-29.16L774.4,29.02l-35.13,13.97l6.23,34.24c-13.2,9.65-25.18,21.18-35.45,34.42l-34-7.17l-14.96,34.73l-14.96,34.73
		l28.59,19.79c-2.58,16.56-2.73,33.18-0.67,49.4l-29.16,18.99l13.97,35.13l13.97,35.13l34.24-6.23
		c9.65,13.2,21.18,25.18,34.42,35.44l-7.19,34.03l34.73,14.96l34.72,14.96l19.79-28.59c16.56,2.58,33.18,2.73,49.4,0.67l18.99,29.16
		l35.13-13.97l35.13-13.98l-6.23-34.24c13.2-9.65,25.18-21.18,35.45-34.42l34.01,7.19l14.96-34.73l14.96-34.73L1026.74,248.11z
		 M798.3,342.57c-67.19-28.95-98.2-106.89-69.23-174.08c28.95-67.19,106.89-98.2,174.08-69.23
		c67.19,28.95,98.18,106.89,69.23,174.08C943.42,340.53,865.49,371.52,798.3,342.57z"/>
</g>
<g>
	<polygon class="st34" points="223.48,490.21 217.4,490.21 235.97,452.7 242.04,452.7 	"/>
	<rect x="27.82" y="486.77" class="st34" width="294.44" height="4.67"/>
	<rect x="27.82" y="501.91" class="st34" width="157.29" height="27"/>
	<rect x="217.4" y="437.85" class="st34" width="81.95" height="14.84"/>
	<rect x="217.4" y="430.93" class="st34" width="81.95" height="2.79"/>
</g>
<g class="st35">
	<rect x="1692.02" y="615.44" class="st34" width="91.85" height="6.86"/>
	<rect x="1692.02" y="625.3" class="st34" width="91.85" height="18.57"/>
	<polygon class="st34" points="1707.31,471.45 1707.31,533.57 1555.05,533.57 1555.05,544.47 1707.31,544.47 1707.31,554.13 
		1555.05,554.13 1555.05,600.01 1707.31,600.01 1710.75,600.01 1714.17,600.01 1714.17,471.45 	"/>
</g>
<g>
	
		<linearGradient id="SVGID_30_" gradientUnits="userSpaceOnUse" x1="3059.5813" y1="2243.5662" x2="3248.9407" y2="2243.5662" gradientTransform="matrix(0.9184 0.3957 0.3957 -0.9184 -2471.947 906.727)">
		<stop  offset="0" style="stop-color:#FF9F55"/>
		<stop  offset="1" style="stop-color:#FFD255"/>
	</linearGradient>
	<path class="st36" d="M1393.4,106.83c1.18-7.59,1.26-15.21,0.3-22.65l13.37-8.71l-6.4-16.1l-6.41-16.1l-15.69,2.86
		c-4.43-6.06-9.71-11.54-15.78-16.25l3.3-15.59l-15.92-6.86l-15.92-6.86l-9.08,13.1c-7.59-1.18-15.21-1.26-22.65-0.3L1293.8,0
		l-16.1,6.4l-16.1,6.4l2.86,15.69c-6.06,4.42-11.54,9.71-16.25,15.78l-15.59-3.3l-6.86,15.92l-6.86,15.92l13.1,9.08
		c-1.18,7.59-1.26,15.21-0.3,22.65l-13.37,8.71l6.4,16.11l6.4,16.1l15.69-2.86c4.42,6.06,9.71,11.54,15.78,16.25l-3.3,15.6
		l15.92,6.86l15.92,6.86l9.08-13.1c7.59,1.18,15.21,1.26,22.65,0.3l8.71,13.37l16.11-6.4l16.1-6.41l-2.86-15.69
		c6.06-4.42,11.54-9.71,16.25-15.78l15.6,3.3l6.86-15.92l6.86-15.92L1393.4,106.83z M1288.68,150.12
		c-30.8-13.27-45.01-49.01-31.74-79.81s49.01-45.01,79.81-31.74c30.8,13.27,45.02,49.01,31.74,79.81
		C1355.21,149.18,1319.48,163.4,1288.68,150.12z"/>
</g>
<g>
	<g>
		<g>
			
				<linearGradient id="SVGID_31_" gradientUnits="userSpaceOnUse" x1="1269.4666" y1="902.9913" x2="1293.3396" y2="829.4311" gradientTransform="matrix(1 0 0 -1 0 1493.0894)">
				<stop  offset="0" style="stop-color:#FF9F55"/>
				<stop  offset="1" style="stop-color:#FFD255"/>
			</linearGradient>
			<path class="st37" d="M1266.95,672.22l-53.85-46.95c-4.41-3.85-4.88-10.55-1.02-14.97c3.85-4.41,10.55-4.88,14.97-1.03
				l38.08,33.2l54.31-60.57c3.91-4.37,10.62-4.72,14.98-0.82c4.36,3.91,4.72,10.62,0.82,14.98L1266.95,672.22z"/>
		</g>
	</g>
</g>
<g>
	<g>
		
			<linearGradient id="SVGID_32_" gradientUnits="userSpaceOnUse" x1="1579.2576" y1="1264.3859" x2="1630.8125" y2="1105.5293" gradientTransform="matrix(1 0 0 -1 0 1493.0894)">
			<stop  offset="0" style="stop-color:#FF9F55"/>
			<stop  offset="1" style="stop-color:#FFD255"/>
		</linearGradient>
		<path class="st38" d="M1605.04,395.36c-6.08,0-11.02-4.94-11.02-11.02V231.93c0-6.08,4.93-11.02,11.02-11.02
			c6.08,0,11.02,4.94,11.02,11.02v152.41C1616.06,390.42,1611.12,395.36,1605.04,395.36z"/>
	</g>
	<g>
		
			<linearGradient id="SVGID_33_" gradientUnits="userSpaceOnUse" x1="1594.3713" y1="1217.8159" x2="1615.6993" y2="1152.0979" gradientTransform="matrix(1 0 0 -1 0 1493.0894)">
			<stop  offset="0" style="stop-color:#FF9F55"/>
			<stop  offset="1" style="stop-color:#FFD255"/>
		</linearGradient>
		<path class="st39" d="M1681.24,319.15h-152.41c-6.08,0-11.02-4.94-11.02-11.02c0-6.08,4.94-11.02,11.02-11.02h152.41
			c6.08,0,11.02,4.94,11.02,11.02C1692.26,314.21,1687.32,319.15,1681.24,319.15z"/>
	</g>
</g>
<g>
	
		<linearGradient id="SVGID_34_" gradientUnits="userSpaceOnUse" x1="453.909" y1="-114.8066" x2="453.909" y2="83.5196" gradientTransform="matrix(1 0 0 -1 0 1493.0894)">
		<stop  offset="0" style="stop-color:#FF9F55"/>
		<stop  offset="1" style="stop-color:#FFD255"/>
	</linearGradient>
	<path class="st40" d="M829.15,1624.29H129.71c-28.19,0-51.04-22.85-51.04-51.04v-82.85c0-28.19,22.85-51.04,51.04-51.04h699.44
		V1624.29z"/>
	<path class="st41" d="M949.27,1458.41v146.86h12.26v19.03H454.56c-28.19,0-51.04-22.85-51.04-51.04v-82.84
		c0-28.19,22.85-51.04,51.04-51.04h506.97v19.03L949.27,1458.41L949.27,1458.41z"/>
	<path class="st42" d="M949.26,1605.26H491.98c-28.19,0-51.04-22.85-51.04-51.04v-44.78c0-28.19,22.85-51.04,51.04-51.04h457.28
		V1605.26z"/>
	
		<linearGradient id="SVGID_35_" gradientUnits="userSpaceOnUse" x1="446.9131" y1="332.3717" x2="446.9131" y2="57.8241" gradientTransform="matrix(1 0 0 -1 0 1493.0894)">
		<stop  offset="0" style="stop-color:#40D5E6"/>
		<stop  offset="1" style="stop-color:#5577FF"/>
	</linearGradient>
	<path class="st43" d="M861.82,1439.37H96.13c-35.41,0-64.13-28.71-64.13-64.13v-86.81c0-35.41,28.71-64.13,64.13-64.13h765.7
		v215.07H861.82z"/>
	<path class="st44" d="M997.65,1246.46v170.78h10.56v22.14H591.76c-35.41,0-64.13-28.71-64.13-64.13v-86.81
		c0-35.41,28.71-64.13,64.13-64.13h416.45v22.14L997.65,1246.46L997.65,1246.46z"/>
	<path class="st42" d="M997.63,1417.24H623.99c-35.41,0-64.13-28.71-64.13-64.13v-42.53c0-35.41,28.71-64.13,64.13-64.13h373.65
		L997.63,1417.24L997.63,1417.24z"/>
	
		<linearGradient id="SVGID_36_" gradientUnits="userSpaceOnUse" x1="635.8505" y1="319.1995" x2="635.8505" y2="524.4574" gradientTransform="matrix(1 0 0 -1 0 1493.0894)">
		<stop  offset="0" style="stop-color:#FF9F55"/>
		<stop  offset="1" style="stop-color:#FFD255"/>
	</linearGradient>
	<path class="st45" d="M310.16,1224.28h581.97c38.33,0,69.4-31.07,69.4-69.4v-124.86c0-38.33-31.07-69.4-69.4-69.4H310.16V1224.28z"
		/>
	<path class="st41" d="M205.91,987.77v209.39h-10.65v27.15h414.92c38.33,0,69.4-31.07,69.4-69.4v-124.87
		c0-38.33-31.07-69.4-69.4-69.4H195.26v27.15h10.65V987.77z"/>
	<path class="st42" d="M205.93,1197.13h366.9c38.1,0,68.98-30.89,68.98-68.98v-71.42c0-38.1-30.88-68.98-68.98-68.98h-366.9V1197.13
		z"/>
	
		<linearGradient id="SVGID_37_" gradientUnits="userSpaceOnUse" x1="400.9389" y1="871.0656" x2="400.9389" y2="640.4727" gradientTransform="matrix(1 0 0 -1 0 1493.0894)">
		<stop  offset="0" style="stop-color:#40D5E6"/>
		<stop  offset="1" style="stop-color:#5577FF"/>
	</linearGradient>
	<path class="st46" d="M745.96,960.56H128.87c-40.3,0-72.95-32.67-72.95-72.95V769.86c0-40.3,32.67-72.95,72.95-72.95h617.09V960.56
		z"/>
	<path class="st44" d="M856.41,724.03v209.39h11.27v27.15H427.57c-40.3,0-72.95-32.67-72.95-72.95V769.87
		c0-40.3,32.67-72.95,72.95-72.95H867.7v27.13h-11.29V724.03z"/>
	<path class="st42" d="M856.41,933.41H465.56c-40.12,0-72.65-32.53-72.65-72.65v-64.08c0-40.12,32.53-72.65,72.65-72.65H856.4
		v209.38H856.41z"/>
	
		<linearGradient id="SVGID_38_" gradientUnits="userSpaceOnUse" x1="574.9896" y1="984.7672" x2="574.9896" y2="800.3282" gradientTransform="matrix(1 0 0 -1 0 1493.0894)">
		<stop  offset="0" style="stop-color:#40D5E6"/>
		<stop  offset="1" style="stop-color:#5577FF"/>
	</linearGradient>
	<path class="st47" d="M920.01,696.82H275.25c-25.01,0-45.29-20.28-45.29-45.29V542.57c0-25.01,20.28-45.29,45.29-45.29h644.77
		v199.54H920.01z"/>
	<path class="st44" d="M1030.47,517.83v158.45h11.27v20.54H573.95c-25.01,0-45.29-20.28-45.29-45.29V542.57
		c0-25.01,20.28-45.29,45.29-45.29h467.8v20.54H1030.47z"/>
	<path class="st42" d="M1030.45,676.28h-422.1c-25.01,0-45.29-20.28-45.29-45.29V563.1c0-25.01,20.28-45.29,45.29-45.29h422.1
		V676.28z"/>
</g>
<g>
	<g>
		<path class="st48" d="M1968.66,910.8l-649.48,3.34c-27.03,0.14-49.06-21.66-49.2-48.69l-2.2-427.51
			c-0.14-27.03,21.66-49.06,48.69-49.2l649.48-3.34c27.03-0.14,49.06,21.66,49.2,48.69l2.21,427.51
			C2017.5,888.64,1995.7,910.66,1968.66,910.8z"/>
		
			<rect x="1551.47" y="379.55" transform="matrix(1 -5.150344e-03 5.150344e-03 1 -2.039 8.4652)" class="st49" width="182.25" height="41.15"/>
		<g>
			<g>
				<path class="st32" d="M1460.5,490.8c0,0,0.2,119.42-12.76,167.28l-28.08,17.78l-99.33,0.51
					c18.61-50.32,18.36-184.94,18.36-184.94L1460.5,490.8z"/>
				<polygon class="st50" points="1419.65,675.85 1419.56,657.82 1447.74,657.67 				"/>
			</g>
		</g>
		<g>
			<g>
				<path class="st32" d="M1580.59,461.39c0,0,0.14,82.62-8.84,115.73l-19.43,12.3l-68.71,0.36c12.87-34.8,12.7-127.94,12.7-127.94
					L1580.59,461.39z"/>
				<polygon class="st50" points="1552.34,589.41 1552.28,576.93 1571.77,576.83 				"/>
			</g>
		</g>
		<g>
			<g>
				<path class="st32" d="M1749.13,482.52c0,0,0.19,113.16-12.1,158.53l-26.61,16.85l-94.12,0.48
					c17.64-47.68,17.39-175.26,17.39-175.26L1749.13,482.52z"/>
				<polygon class="st50" points="1710.42,657.88 1710.34,640.79 1737.03,640.66 				"/>
			</g>
		</g>
		<g>
			<g>
				<path class="st32" d="M1869.19,626.6c0,0,0.13,76.45-8.16,107.08l-17.98,11.38l-63.57,0.33
					c11.91-32.2,11.74-118.38,11.74-118.38L1869.19,626.6z"/>
				<polygon class="st50" points="1843.04,745.06 1842.98,733.5 1861.02,733.42 				"/>
			</g>
		</g>
		<g>
			<g>
				<path class="st32" d="M1869.19,469.84c0,0,0.13,76.43-8.16,107.07l-17.98,11.38l-63.57,0.33
					c11.91-32.21,11.74-118.38,11.74-118.38L1869.19,469.84z"/>
				<polygon class="st50" points="1843.04,588.28 1842.98,576.74 1861.02,576.65 				"/>
			</g>
		</g>
		<g>
			<g>
				<path class="st32" d="M1967.93,545.34c0,0,0.1,58.68-6.27,82.21l-13.8,8.74l-48.81,0.25c9.14-24.72,9.01-90.89,9.01-90.89
					L1967.93,545.34z"/>
				<polygon class="st50" points="1947.85,636.29 1947.82,627.43 1961.66,627.35 				"/>
			</g>
		</g>
		<g>
			<g>
				<path class="st32" d="M1576.26,641.14c0,0,0.08,60.92-7.48,85.35l-16.32,9.08l-57.67,0.29c10.83-25.67,10.73-94.35,10.73-94.35
					L1576.26,641.14z"/>
				<polygon class="st50" points="1552.48,735.56 1552.43,726.36 1568.8,726.27 				"/>
			</g>
		</g>
		<g>
			<g>
				<rect x="1325" y="782.72" class="st32" width="173.74" height="9.03"/>
			</g>
			<g>
				<rect x="1325" y="845.37" class="st32" width="200.36" height="9.03"/>
			</g>
			<g>
				<rect x="1325" y="814.04" class="st32" width="123.41" height="9.03"/>
			</g>
		</g>
	</g>
	<g>
		<g>
			<rect x="1175.59" y="1049.15" class="st51" width="200.01" height="11.87"/>
		</g>
		<g>
			<rect x="1202.41" y="1091.93" class="st49" width="17.52" height="539.95"/>
		</g>
		<g>
			<rect x="1344.3" y="1045.78" class="st52" width="139.03" height="16.95"/>
		</g>
		<g>
			<rect x="1387.48" y="901.12" class="st51" width="52.64" height="159.9"/>
		</g>
		<g>
			<rect x="1103.84" y="1061.22" class="st53" width="770.29" height="30.7"/>
		</g>
		<g>
			<path class="st54" d="M956.01,875.4c0,0-8.43,118.14,14.65,132.29c14.46,8.86,72.12,38.74,70.42,44.34
				c-1.71,5.6-32.55,49.85-32.55,49.85s-110.75-72.93-114.32-95.92c-3.49-22.46,5.45-172.99,20.67-179.92
				c11.4-5.19,17.42-0.9,31.79,9.76C966.83,850.77,956.01,875.4,956.01,875.4z"/>
		</g>
		<g>
			<g>
				<g>
					<path class="st55" d="M1157.86,909.14l9.76-3.61c0,0-12.18-28.58-17.48-27.88c-6.12,0.8-13.76,2.82-13.76,2.82L1157.86,909.14z
						"/>
				</g>
			</g>
		</g>
		<g>
			<g>
				<g>
					<path class="st56" d="M1160.08,914.06c-1.24-0.93-20.75-38.34-20.75-38.34l-41.67,5.66l22.51,44.31L1160.08,914.06z"/>
				</g>
			</g>
		</g>
		<g>
			<g>
				<g>
					<path class="st57" d="M1092.27,1558.15c0,0-3.44,23.91-3.87,27.5c-0.43,3.59-38.32-2.12-38.32-2.12l-3.07-28.47
						C1047.02,1555.06,1087.54,1554.77,1092.27,1558.15z"/>
				</g>
			</g>
		</g>
		<g>
			<g>
				<g>
					<path class="st58" d="M1088.81,1582.6c0,0,12,14.41,23.62,20.68c11.6,6.27,29.85,8.76,36.72,15.26
						c4.95,4.7,18.04,24.89-30.17,24.48c-48.21-0.41-71.46,2.86-76.62-4.89c-5.17-7.74,7.48-57.16,7.48-57.16
						S1061.23,1585.09,1088.81,1582.6z"/>
				</g>
			</g>
		</g>
		<g>
			<g>
				<g>
					<path class="st57" d="M1334.97,1558.37c0,0-3.44,23.91-3.87,27.5c-0.43,3.59-38.32-2.12-38.32-2.12l-3.07-28.47
						C1289.72,1555.29,1330.23,1555,1334.97,1558.37z"/>
				</g>
			</g>
		</g>
		<g>
			<g>
				<g>
					<path class="st58" d="M1331.5,1582.83c0,0,12,14.4,23.62,20.68c11.6,6.28,54.33,11.44,61.2,17.94
						c4.95,4.68,13.19,23.58-54.65,21.81c-48.2-1.26-71.46,2.86-76.62-4.89c-5.17-7.74,7.48-57.16,7.48-57.16
						S1303.28,1585.6,1331.5,1582.83z"/>
				</g>
			</g>
		</g>
		<g>
			<g>
				<g>
					<path class="st58" d="M970.09,1145.22c0,0,137.72,23.3,168.83,28.19c31.11,4.89,199.77,46.85,220.86,59.65
						c16.78,10.18-8.81,254.67-14.79,347.94h-66.43l-4.81-279.81c-79.72,1.99-136.6-18.65-194.65-9.83
						c-58.05,8.81-106.45,21.34-143.33-28.14C935.75,1263.22,934.38,1156.02,970.09,1145.22z"/>
				</g>
			</g>
		</g>
		<g>
			<g>
				<g>
					<path class="st58" d="M1105.83,1581.2l-64.74-4l-6.31-276.02c-34.32,0.85-46.08-1.32-73.86-4.68L908.65,1175
						c45.81,9.15,192.58,46.18,212.15,58.05C1137.6,1243.22,1111.81,1487.93,1105.83,1581.2z"/>
				</g>
			</g>
		</g>
		<g>
			<g>
				<g>
					<path class="st59" d="M1033.49,628.97c0,0,50.48-13.95,69.74,25.24c19.26,39.19,10.53,113.49-14.92,120.48
						c-25.44,7-62.04-1.05-72.6-25.46c-10.56-24.39-18.99-59.05-16.45-81.5C1001.78,645.3,1020.08,634.34,1033.49,628.97z"/>
				</g>
			</g>
		</g>
		<g>
			<g>
				<g>
					<path class="st59" d="M1075.13,766.87c0,0-0.56,29.81,2.73,36.16c3.29,6.35-70.3,4.76-70.3,4.76s11.59-35.79,5.02-66.29
						C1006.06,711.32,1075.13,766.87,1075.13,766.87z"/>
				</g>
			</g>
		</g>
		<g>
			<g>
				<g>
					<path class="st60" d="M1008.61,730.23c0,0,3.94,8,22.98,6.7c19.04-1.3,44.17-24.28,52.26-26.32c8.09-2.06,8.57-6.65,8.57-6.65
						l4.28,7.61l8.29,1.26c0,0-1.68-19.01,6.64-31.14c3.64-5.32-5.52-73.42-67.63-57.67c0,0-47.4,8.68-48.03,35.14
						C995.31,685.63,999.41,716.2,1008.61,730.23z"/>
				</g>
			</g>
		</g>
		<g>
			<g>
				<g>
					<path class="st61" d="M1081.72,802.27c0,0-0.2-12.14-5.71-13.31c-5.5-1.17-57.85-8.37-64.6-5.71l-2.89,16.04
						C1008.53,799.29,1021.54,807.3,1081.72,802.27z"/>
				</g>
			</g>
		</g>
		<g>
			<g>
				<g>
					<path class="st59" d="M1096.87,698.53c-1.41-9.95-12.72-21.38-19.21-5.88c-6.48,15.5,4.38,38.06,11.64,36.86
						C1096.58,728.3,1098.79,712.02,1096.87,698.53z"/>
				</g>
			</g>
		</g>
		<g>
			<g>
				<g>
					<path class="st62" d="M1300.97,945.72c-0.03-0.01-0.05-0.01-0.09,0C1301.24,945.88,1301.3,945.89,1300.97,945.72z"/>
				</g>
			</g>
		</g>
		<g>
			<g>
				<g>
					<path class="st60" d="M1018.76,636.08c0,0-61.55-2.89-10.74,93.19L1018.76,636.08z"/>
				</g>
			</g>
		</g>
		<g>
			<g>
				<polygon class="st63" points="881.61,1613.95 886.18,1626.83 1079.66,1566.88 1070.4,1540.8 				"/>
			</g>
		</g>
		<g>
			<g>
				<rect x="1064.31" y="1347.36" class="st63" width="21.99" height="210.36"/>
			</g>
		</g>
		<g>
			<g>
				<rect x="1010.46" y="1336.17" class="st64" width="129.71" height="12.39"/>
			</g>
		</g>
		<g>
			<g>
				<polygon class="st63" points="1270.71,1613.95 1266.14,1626.83 1072.66,1566.88 1081.15,1539.16 				"/>
			</g>
		</g>
		<g>
			<g>
				<polygon class="st63" points="1134.39,1625.45 1134.39,1640.45 1072.66,1566.88 1081.15,1539.16 				"/>
			</g>
		</g>
		<g>
			<g>
				<path class="st65" d="M1288.79,1631.86c0,9.99-8.1,18.08-18.08,18.08s-18.08-8.1-18.08-18.08c0-9.99,8.1-18.08,18.08-18.08
					C1280.7,1613.78,1288.79,1621.88,1288.79,1631.86z"/>
			</g>
		</g>
		<g>
			<g>
				<path class="st65" d="M1135.92,1631.86c0,9.99-8.1,18.08-18.08,18.08c-9.99,0-18.08-8.1-18.08-18.08
					c0-9.99,8.1-18.08,18.08-18.08C1127.84,1613.78,1135.92,1621.88,1135.92,1631.86z"/>
			</g>
		</g>
		<g>
			<g>
				<path class="st65" d="M899.69,1631.86c0,9.99-8.1,18.08-18.08,18.08c-9.98,0-18.08-8.1-18.08-18.08
					c0-9.99,8.1-18.08,18.08-18.08C891.59,1613.78,899.69,1621.88,899.69,1631.86z"/>
			</g>
		</g>
		<g>
			<path class="st66" d="M1206.62,1336.17H945.69c-12.8,0-23.17-10.37-23.17-23.18v-0.6c0-12.8,10.37-23.18,23.17-23.18h260.93
				c12.8,0,23.17,10.37,23.17,23.18v0.6C1229.8,1325.8,1219.43,1336.17,1206.62,1336.17z"/>
		</g>
		<g>
			<rect x="1758.04" y="1091.92" class="st49" width="17.52" height="539.95"/>
		</g>
		<g>
			
				<linearGradient id="SVGID_39_" gradientUnits="userSpaceOnUse" x1="-2944.5417" y1="675.292" x2="-2489.9546" y2="675.292" gradientTransform="matrix(-1 0 0 -1 -1303.4355 1493.0894)">
				<stop  offset="0" style="stop-color:#FF9F55"/>
				<stop  offset="1" style="stop-color:#FFD255"/>
			</linearGradient>
			<path class="st67" d="M1617.99,978.14h-408.35c-12.77,0-23.12-10.35-23.12-23.12V680.57c0-12.77,10.35-23.12,23.12-23.12h408.35
				c12.77,0,23.12,10.35,23.12,23.12v274.45C1641.11,967.79,1630.76,978.14,1617.99,978.14z"/>
		</g>
		<g>
			<rect x="1204.32" y="674.78" class="st68" width="418.99" height="253.11"/>
		</g>
		<g>
			<path class="st69" d="M1507.92,1061.63v-5.7c0,0-8.02-35.5-64.77-35.5c-56.75,0-55.6,41.2-55.6,41.2H1507.92z"/>
		</g>
		<g>
			<g>
				<path class="st59" d="M1386.86,1025.7c0,0,12.33-0.95,16.85-3.68c4.52-2.73,31.54-20.9,37.89-17.99
					c6.35,2.91,48.59,15.85,47.12,22.03c-1.46,6.18-5.37,5.59-8.35,4.49c-2.98-1.09-33.66-7.53-36.36-6.45c0,0,30.13,11,30.26,19.01
					c0.13,8.02-6.31,9.98-9.17,13.01c-2.86,3.03-6.28,10.56-14.06,11.15c-7.77,0.58-45.66-12.61-53.45-13.2
					c-7.8-0.6-22.23,0.48-23.21-0.79S1386.86,1025.7,1386.86,1025.7z"/>
			</g>
		</g>
		<g>
			<g>
				<g>
					<path class="st54" d="M1162.41,819.09c-39.31-6.91-80.69-16.82-80.69-16.82l-73.21-2.98c0,0-67.19,14.79-93.65,26.74
						c-2.51,1.13-2.53,59.94-9.41,75.35l21.94,46.28c0,0,12.67,91.68,15.3,132.45c1.21,18.71-3.42,180.9-3.42,180.9
						s6.58,3.25,56.54,8.75c49.96,5.51,174.81-1.99,175.58-7.88c0.79-5.9-24.17-219.74-25.28-230.81c-1.7-17,4.91-95.53,4.91-95.53
						c9.41,12.65,33.42,69.75,58.43,96.91c14.72,15.98,87.58,25.79,101.31,26.24c29.9,1,84.43,6.94,86.03,4.04
						c1.27-1.75,4.75-48.41,1.33-49.54c-3-1-104.26-6.83-130.2-20.59c-9.5-5.04-37.86-66.91-37.86-66.91
						S1184.09,828.84,1162.41,819.09z"/>
				</g>
			</g>
		</g>
		<g>
			<path class="st66" d="M1018.14,1256.34h-122.9c-24.58,0-44.5-19.92-44.5-44.5v-204.48c0-24.58,19.92-44.5,44.5-44.5h122.9
				c24.58,0,44.5,19.92,44.5,44.5v204.48C1062.64,1236.42,1042.72,1256.34,1018.14,1256.34z"/>
		</g>
		<g>
			<path class="st66" d="M1025.1,1324.49c-31.23,0-56.58-10.49-75.32-31.18c-42.36-46.76-34.75-128.98-34.41-132.46
				c0.65-6.48,6.42-11.21,12.9-10.56c6.48,0.65,11.21,6.41,10.58,12.89c-0.09,0.94-6.84,75.46,28.47,114.36
				c14.28,15.73,33.19,23.39,57.79,23.39c6.51,0,11.8,5.28,11.8,11.8S1031.61,1324.49,1025.1,1324.49z"/>
		</g>
		<g>
			<g>
				<g>
					<path class="st70" d="M1353.44,708.32h-116.1c-1.83,0-3.31-1.49-3.31-3.31v-6.74c0-1.83,1.49-3.31,3.31-3.31h116.1
						c1.83,0,3.31,1.49,3.31,3.31V705C1356.75,706.83,1355.27,708.32,1353.44,708.32z"/>
				</g>
			</g>
		</g>
		<g>
			<g>
				<g>
					<path class="st70" d="M1353.44,737h-116.1c-1.83,0-3.31-1.49-3.31-3.31v-6.74c0-1.83,1.49-3.31,3.31-3.31h116.1
						c1.83,0,3.31,1.49,3.31,3.31v6.74C1356.75,735.51,1355.27,737,1353.44,737z"/>
				</g>
			</g>
		</g>
		<g>
			<g>
				<g>
					<path class="st70" d="M1345.61,907.73h-100.44c-6.16,0-11.15-4.99-11.15-11.15V767.66c0-6.16,4.99-11.15,11.15-11.15h100.44
						c6.16,0,11.15,4.99,11.15,11.15v128.92C1356.75,902.74,1351.76,907.73,1345.61,907.73z"/>
				</g>
			</g>
		</g>
		<g>
			<g>
				<g>
					<path class="st70" d="M1582.45,907.73h-183.27c-9.74,0-17.65-7.9-17.65-17.65v-177.5c0-9.74,7.9-17.65,17.65-17.65h183.27
						c9.74,0,17.65,7.9,17.65,17.65v177.5C1600.1,899.83,1592.19,907.73,1582.45,907.73z"/>
				</g>
			</g>
		</g>
	</g>
	<g>
		<path class="st71" d="M1779.59,890.51c-27.39,0-49.59-22.21-49.59-49.59c0-7.39,1.61-14.4,4.52-20.71
			c7.85-17.05,25.08-28.88,45.07-28.88c27.39,0,49.59,22.21,49.59,49.59c0,9.41-2.62,18.21-7.17,25.7
			C1813.32,880.94,1797.58,890.51,1779.59,890.51z"/>
		<path class="st72" d="M1729.22,886.07c-19.16,0-34.7-15.54-34.7-34.7c0-1.1,0.05-2.2,0.15-3.28
			c1.65-17.62,16.49-31.42,34.55-31.42c19.16,0,34.7,15.54,34.7,34.7c0,12.15-6.25,22.84-15.71,29.05
			C1742.77,883.98,1736.23,886.07,1729.22,886.07z"/>
		<path class="st73" d="M1780.4,843.52c0,0,2.77,23.03,3.68,54.35c0.91,31.32-23.96,31.32-23.96,31.32v114.75h-17.27
			c0,0,0.41-117.04-8.19-126.46c-8.6-9.42-8.6-54.05-8.6-54.05l4.91-2.87c0,0-7.38,52.83,26.21,60.6
			c33.58,7.78,20.89-75.35,20.89-75.35L1780.4,843.52z"/>
		<path class="st74" d="M1791.88,848.9c-28.47-5.32-47.23-17.64-57.36-28.69c7.85-17.05,25.08-28.88,45.07-28.88
			c27.39,0,49.59,22.21,49.59,49.59c0,9.41-2.62,18.21-7.17,25.7C1820.65,859.86,1813.27,852.89,1791.88,848.9z"/>
		<path class="st75" d="M1719.09,860.88c-11.5-3.31-19.3-7.87-24.42-12.8c1.65-17.62,16.49-31.42,34.55-31.42
			c19.16,0,34.7,15.54,34.7,34.7c0,12.15-6.25,22.84-15.71,29.05C1744.71,873.75,1736.75,865.97,1719.09,860.88z"/>
		<polygon class="st76" points="1699.55,990.61 1816.26,990.61 1810.24,1012.27 1706.76,1012.27 		"/>
		<polygon class="st77" points="1714.12,1012.27 1800.74,1012.27 1788.72,1061.27 1722.55,1061.27 		"/>
		<path class="st75" d="M1726.07,821.01l-3,0.93c0,0-4.71-12.8-5.02-14.54C1717.76,805.65,1726.07,821.01,1726.07,821.01z"/>
		<path class="st75" d="M1697.8,821.92l14.84,4.51c0,0-0.1,1.33-2.04,1.33C1708.64,827.76,1697.8,821.92,1697.8,821.92z"/>
		<path class="st75" d="M1702.91,853.06h3.78c0,0-0.71,5.62-3.78,9.22C1699.84,865.85,1702.91,853.06,1702.91,853.06z"/>
		<path class="st74" d="M1794.02,782.01c1.54,1.13-5.42,18.12-5.42,18.12h-3.48C1785.12,800.12,1792.49,780.88,1794.02,782.01z"/>
		<path class="st74" d="M1777.85,795.92c-0.61-4.61,2.97-12.39,2.97-12.39v11.67C1780.82,795.21,1778.46,800.53,1777.85,795.92z"/>
		<path class="st74" d="M1805.29,862.9c-2.15-1.76-2.25-17.22-2.25-17.22l3.38,1.23C1806.42,846.91,1807.43,864.66,1805.29,862.9z"
			/>
		<path class="st78" d="M1742.82,1012.27h57.92l-12.02,49h-18.97C1780.46,1021.84,1742.82,1012.27,1742.82,1012.27z"/>
	</g>
	<g>
		<path class="st79" d="M1785.67,1061.27c-4.75-1.98-12.43-24.42-16.12-36.03c-1.31-4.13-2.12-6.88-2.12-6.88h43.46
			c-3.76,26.83-12.87,42.93-12.87,42.93h-12.34V1061.27z"/>
		<path class="st80" d="M1782.18,1004.97c0-1.56-6.97-8.1-10.46-12.37c-3.49-4.27,1.35-12.37,1.35-12.37
			c15.55,6.44,12.87,24.73,12.87,24.73S1782.18,1006.53,1782.18,1004.97z"/>
		<path class="st80" d="M1791.04,1005.67h-1.88c0,0-1.35-31.59,10.2-35.88c11.53-4.29,11.53-12.87,11.53-12.87
			s3.49,11.81-2.15,17.98c-5.64,6.17-12.07,13.41-11,19.31C1798.81,1000.09,1791.04,1005.67,1791.04,1005.67z"/>
		<path class="st81" d="M1769.54,1025.22c-1.31-4.13-2.12-6.88-2.12-6.88h43.46c-3.76,26.83-12.87,42.93-12.87,42.93h-2.83
			C1795.7,1036.14,1779.16,1027.89,1769.54,1025.22z"/>
		<polygon class="st82" points="1767.44,1004.97 1811.21,1004.97 1813.7,1018.34 1765.66,1018.34 		"/>
	</g>
	<path class="st66" d="M1113.69,675.56c0,0-12.59,37.76-105.67,53.72l-9.21-12.54c0,0,82.29-9,112.73-55.99L1113.69,675.56z"/>
	<g>
		<path class="st66" d="M949.53,752.22c-9.12,5.13-7.97,29.65-7.97,29.65h7.97h7.99C957.5,781.87,958.64,757.35,949.53,752.22z"/>
		<g>
			<rect x="948.05" y="682.68" class="st66" width="2.95" height="76.81"/>
		</g>
		<polygon class="st83" points="920.09,687.72 1047.38,735.21 1162.13,632.01 1030.47,598.13 		"/>
	</g>
</g>
<g>
	
		<linearGradient id="SVGID_40_" gradientUnits="userSpaceOnUse" x1="-7947.2813" y1="153.5463" x2="-8256.9102" y2="153.5463" gradientTransform="matrix(-1 0 0 -1 -5903.7983 1493.0894)">
		<stop  offset="0" style="stop-color:#FF9F55"/>
		<stop  offset="1" style="stop-color:#FFD255"/>
	</linearGradient>
	<path class="st84" d="M1936.28,1417.39h439.36c15.86,0,28.72-12.85,28.72-28.71v-98.27c0-15.86-12.86-28.72-28.72-28.72h-439.36
		L1936.28,1417.39L1936.28,1417.39z"/>
	
		<linearGradient id="SVGID_41_" gradientUnits="userSpaceOnUse" x1="-7801.8315" y1="-104.3015" x2="-8108.4604" y2="-104.3015" gradientTransform="matrix(-1 0 0 -1 -5903.7983 1493.0894)">
		<stop  offset="0" style="stop-color:#FF9F55"/>
		<stop  offset="1" style="stop-color:#FFD255"/>
	</linearGradient>
	<path class="st85" d="M1797.67,1650.67h535.44c11.4,0,20.63-9.24,20.63-20.63v-65.29c0-11.4-9.24-20.63-20.63-20.63h-535.44
		V1650.67z"/>
	<path class="st86" d="M1740.62,1555.76v83.26h-14.13v11.64h251.21c7.86,0,14.26-6.39,14.26-14.26v-78.03
		c0-7.87-6.4-14.26-14.26-14.26h-251.21v11.64L1740.62,1555.76L1740.62,1555.76z"/>
	<path class="st87" d="M1740.62,1639.02h224.89c7.57,0,13.7-6.13,13.7-13.7v-55.85c0-7.57-6.13-13.7-13.7-13.7h-224.89V1639.02z"/>
	<path class="st86" d="M1861.35,1277.72v123.65h-7.66v16.02h318.35c16.39,0,29.68-13.28,29.68-29.68v-96.35
		c0-16.39-13.29-29.67-29.68-29.67H1853.7v16.02h7.66V1277.72z"/>
	<path class="st87" d="M1861.37,1401.37h294.41c16.39,0,29.68-13.28,29.68-29.68v-64.3c0-16.39-13.29-29.68-29.68-29.68h-294.41
		V1401.37z"/>
	
		<linearGradient id="SVGID_42_" gradientUnits="userSpaceOnUse" x1="-8482.2607" y1="12.3225" x2="-7897.415" y2="12.3225" gradientTransform="matrix(-1 0 0 -1 -5903.7983 1493.0894)">
		<stop  offset="0" style="stop-color:#609FF0"/>
		<stop  offset="1" style="stop-color:#5A3F9E"/>
	</linearGradient>
	<path class="st88" d="M2031.17,1544.12h431.39c20.26,0,36.68-16.43,36.68-36.68v-53.34c0-20.26-16.43-36.68-36.68-36.68h-431.39
		L2031.17,1544.12L2031.17,1544.12z"/>
	<path class="st89" d="M1956.25,1430.44v100.63h-7.66v13.04h311.34c20.26,0,36.69-16.43,36.69-36.69v-53.34
		c0-20.26-16.43-36.69-36.69-36.69h-311.34v13.04h7.66V1430.44z"/>
	<path class="st87" d="M1956.25,1531.06h288.4c20.26,0,36.68-16.43,36.68-36.69v-27.26c0-20.26-16.43-36.69-36.68-36.69h-288.4
		V1531.06z"/>
	<rect x="2007.12" y="1462.52" class="st90" width="123.54" height="3.19"/>
	<rect x="2056.65" y="1472.19" class="st90" width="131.92" height="3.19"/>
	<rect x="1770.34" y="1577.3" class="st90" width="123.54" height="3.17"/>
	<rect x="1819.86" y="1586.97" class="st90" width="131.92" height="3.19"/>
	<rect x="1910.41" y="1595.8" class="st90" width="54.57" height="3.19"/>
	<rect x="2005.77" y="1361.32" class="st90" width="131.92" height="3.19"/>
	<rect x="1994.93" y="1370.14" class="st90" width="54.57" height="3.19"/>
</g>
<g>
	
		<linearGradient id="SVGID_43_" gradientUnits="userSpaceOnUse" x1="2151.0251" y1="236.6015" x2="2151.0251" y2="299.466" gradientTransform="matrix(1 0 0 -1 0 1493.0894)">
		<stop  offset="0" style="stop-color:#FF9F55"/>
		<stop  offset="1" style="stop-color:#FFD255"/>
	</linearGradient>
	<path class="st91" d="M2269.97,1261.68h-221.71c-8.94,0-16.18-7.24-16.18-16.18v-26.26c0-8.94,7.24-16.18,16.18-16.18h221.71
		V1261.68z"/>
	<path class="st41" d="M2308.04,1209.1v46.55h3.89v6.03h-160.7c-8.94,0-16.18-7.24-16.18-16.18v-26.26
		c0-8.94,7.25-16.18,16.18-16.18h160.7v6.03H2308.04z"/>
	<path class="st42" d="M2308.03,1255.65h-144.94c-8.94,0-16.18-7.24-16.18-16.18v-14.19c0-8.94,7.25-16.18,16.18-16.18h144.94
		V1255.65z"/>
	
		<linearGradient id="SVGID_44_" gradientUnits="userSpaceOnUse" x1="2148.8096" y1="378.3443" x2="2148.8096" y2="291.3201" gradientTransform="matrix(1 0 0 -1 0 1493.0894)">
		<stop  offset="0" style="stop-color:#40D5E6"/>
		<stop  offset="1" style="stop-color:#5577FF"/>
	</linearGradient>
	<path class="st92" d="M2280.33,1203.07h-242.71c-11.22,0-20.33-9.1-20.33-20.33v-27.51c0-11.22,9.1-20.33,20.33-20.33h242.71
		V1203.07z"/>
	<path class="st44" d="M2323.37,1141.93v54.14h3.35v7.02h-132.01c-11.22,0-20.33-9.1-20.33-20.33v-27.51
		c0-11.22,9.1-20.33,20.33-20.33h132.01v7.02h-3.35V1141.93z"/>
	<path class="st42" d="M2323.37,1196.05h-118.43c-11.22,0-20.33-9.1-20.33-20.33v-13.48c0-11.22,9.1-20.33,20.33-20.33h118.43
		V1196.05z"/>
	
		<linearGradient id="SVGID_45_" gradientUnits="userSpaceOnUse" x1="2208.7056" y1="374.1694" x2="2208.7056" y2="439.231" gradientTransform="matrix(1 0 0 -1 0 1493.0894)">
		<stop  offset="0" style="stop-color:#FF9F55"/>
		<stop  offset="1" style="stop-color:#FFD255"/>
	</linearGradient>
	<path class="st93" d="M2105.47,1134.89h184.47c12.15,0,22-9.85,22-22v-39.58c0-12.15-9.85-22-22-22h-184.47V1134.89z"/>
	<path class="st41" d="M2072.42,1059.92v66.36h-3.38v8.61h131.52c12.15,0,22-9.85,22-22v-39.58c0-12.15-9.85-22-22-22h-131.52v8.61
		L2072.42,1059.92L2072.42,1059.92z"/>
	<path class="st42" d="M2072.42,1126.29h116.3c12.07,0,21.86-9.79,21.86-21.86v-22.64c0-12.07-9.79-21.86-21.86-21.86h-116.3
		V1126.29z"/>
	
		<linearGradient id="SVGID_46_" gradientUnits="userSpaceOnUse" x1="2134.2341" y1="549.0944" x2="2134.2341" y2="476.0039" gradientTransform="matrix(1 0 0 -1 0 1493.0894)">
		<stop  offset="0" style="stop-color:#40D5E6"/>
		<stop  offset="1" style="stop-color:#5577FF"/>
	</linearGradient>
	<path class="st94" d="M2243.6,1051.3h-195.6c-12.77,0-23.12-10.35-23.12-23.12v-37.32c0-12.77,10.35-23.12,23.12-23.12h195.6
		L2243.6,1051.3L2243.6,1051.3z"/>
	<path class="st44" d="M2278.61,976.33v66.36h3.57v8.61h-139.51c-12.77,0-23.12-10.36-23.12-23.12v-37.33
		c0-12.77,10.36-23.12,23.12-23.12h139.51v8.61h-3.57V976.33z"/>
	<path class="st42" d="M2278.6,1042.69h-123.88c-12.72,0-23.03-10.31-23.03-23.03v-20.31c0-12.72,10.31-23.03,23.03-23.03h123.88
		V1042.69z"/>
	
		<linearGradient id="SVGID_47_" gradientUnits="userSpaceOnUse" x1="2189.394" y1="585.135" x2="2189.394" y2="526.6743" gradientTransform="matrix(1 0 0 -1 0 1493.0894)">
		<stop  offset="0" style="stop-color:#40D5E6"/>
		<stop  offset="1" style="stop-color:#5577FF"/>
	</linearGradient>
	<path class="st95" d="M2298.76,967.71h-204.38c-7.92,0-14.36-6.42-14.36-14.35v-34.53c0-7.92,6.42-14.36,14.36-14.36h204.38V967.71
		z"/>
	<path class="st44" d="M2333.78,910.96v50.23h3.58v6.51h-148.28c-7.92,0-14.36-6.42-14.36-14.36v-34.53
		c0-7.92,6.42-14.35,14.36-14.35h148.28v6.51h-3.58V910.96z"/>
	<path class="st42" d="M2333.77,961.19h-133.8c-7.92,0-14.36-6.42-14.36-14.35v-21.52c0-7.92,6.42-14.35,14.36-14.35h133.8V961.19z"
		/>
</g>
</svg>
