<?xml version="1.0" encoding="utf-8"?>
<!-- Generator: Adobe Illustrator 24.2.1, SVG Export Plug-In . SVG Version: 6.00 Build 0)  -->
<svg version="1.1" id="Layer_1" xmlns="http://www.w3.org/2000/svg" xmlns:xlink="http://www.w3.org/1999/xlink" x="0px" y="0px"
	 viewBox="0 0 2828 1693.48" style="enable-background:new 0 0 2828 1693.48;" xml:space="preserve">
<style type="text/css">
	.st0{fill:#E3EAFF;}
	.st1{clip-path:url(#SVGID_2_);}
	.st2{fill:url(#SVGID_3_);}
	.st3{fill:url(#SVGID_4_);}
	.st4{fill:url(#SVGID_5_);}
	.st5{fill:url(#SVGID_6_);}
	.st6{fill:url(#SVGID_7_);}
	.st7{fill:url(#SVGID_8_);}
	.st8{fill:url(#SVGID_9_);}
	.st9{fill:url(#SVGID_10_);}
	.st10{fill:url(#SVGID_11_);}
	.st11{fill:url(#SVGID_12_);}
	.st12{fill:url(#SVGID_13_);}
	.st13{fill:url(#SVGID_14_);}
	.st14{fill:url(#SVGID_15_);}
	.st15{fill:url(#SVGID_16_);}
	.st16{fill:url(#SVGID_17_);}
	.st17{fill:url(#SVGID_18_);}
	.st18{fill:url(#SVGID_19_);}
	.st19{fill:url(#SVGID_20_);}
	.st20{fill:url(#SVGID_21_);}
	.st21{fill:url(#SVGID_22_);}
	.st22{fill:url(#SVGID_23_);}
	.st23{fill:url(#SVGID_24_);}
	.st24{fill:url(#SVGID_25_);}
	.st25{fill:url(#SVGID_26_);}
	.st26{fill:url(#SVGID_27_);}
	.st27{fill:url(#SVGID_28_);}
	.st28{fill:url(#SVGID_29_);}
	.st29{fill:#FAFAFA;}
	.st30{fill:#FFFFFF;}
	.st31{fill:url(#SVGID_30_);}
	.st32{fill:#B8D6FF;}
	.st33{opacity:0.44;}
	.st34{opacity:0.44;fill:#B8D6FF;enable-background:new    ;}
	.st35{fill:url(#SVGID_31_);}
	.st36{fill:#D0E5F5;}
	.st37{fill:#78B0DE;}
	.st38{fill:#98C3E6;}
	.st39{fill:#B5D2EB;}
	.st40{fill:url(#SVGID_32_);}
	.st41{fill:url(#SVGID_33_);}
	.st42{fill:url(#SVGID_34_);}
	.st43{fill:url(#SVGID_35_);}
	.st44{fill:#FF9F55;}
	.st45{fill:#EFF7FE;}
	.st46{fill:url(#SVGID_36_);}
	.st47{fill:#5284FC;}
	.st48{fill:url(#SVGID_37_);}
	.st49{fill:url(#SVGID_38_);}
	.st50{fill:url(#SVGID_39_);}
	.st51{fill:#8DBDE3;}
	.st52{fill:#706865;}
	.st53{fill:#C9C9C9;}
	.st54{fill:#FFAA55;}
	.st55{fill:#CCBDB7;}
	.st56{fill:#B59074;}
	.st57{fill:#D44040;}
	.st58{fill:#EAD8CF;}
	.st59{fill:#DA9B5B;}
	.st60{fill:#424773;}
	.st61{fill:#292C47;}
	.st62{fill:#EEA886;}
	.st63{fill:#3A3F47;}
	.st64{fill:#E2D2CA;}
	.st65{fill:#323657;}
	.st66{fill:#918783;}
	.st67{fill:#5E5854;}
	.st68{fill:#BFB2AC;}
	.st69{fill:#254380;}
	.st70{fill:url(#SVGID_40_);}
	.st71{fill:#F5F7FF;}
	.st72{fill:#FFC655;}
	.st73{fill:#DFE1E8;}
	.st74{fill:#36572B;}
	.st75{fill:#45613C;}
	.st76{fill:#925E2E;}
	.st77{fill:#48753A;}
	.st78{fill:#538742;}
	.st79{fill:#877670;}
	.st80{fill:#876455;}
	.st81{fill:#715346;}
	.st82{fill:#9E633A;}
	.st83{fill:#97A43C;}
	.st84{fill:#82522F;}
	.st85{fill:#C67B47;}
	.st86{fill:#1A2F59;}
	.st87{fill:url(#SVGID_41_);}
	.st88{fill:url(#SVGID_42_);}
	.st89{fill:#F08533;}
	.st90{fill:#FAE6DE;}
	.st91{fill:url(#SVGID_43_);}
	.st92{fill:#495DA1;}
	.st93{fill:#DECCC5;}
	.st94{fill:url(#SVGID_44_);}
	.st95{fill:url(#SVGID_45_);}
	.st96{fill:url(#SVGID_46_);}
	.st97{fill:url(#SVGID_47_);}
	.st98{fill:url(#SVGID_48_);}
</style>
<g>
	<g>
		<path class="st0" d="M48.43,1081.71c-75.23,128.2-56.7,300.31,31.7,419.81c88.4,119.5,237.69,186.64,386.27,190.74
			c246.7,6.8,478.04-144,724.62-133.88c94.67,3.89,187.89,31.61,282.55,27.55c87.65-3.76,172.35-34.66,259.96-39.39
			c169.44-9.14,328.78,79.38,497.36,98.79c183.58,21.14,379.41-48.62,494.63-193.09c95.58-119.84,127.8-290.71,77.27-436.1
			c-55.25-158.98-214.55-259.81-280.58-418.74c-36.41-87.65-51.47-183.57-93.75-268.55c-91.43-183.77-302.69-288.1-507.93-290.95
			c-205.24-2.85-403.25,82.18-573.18,197.32c-85.11,57.67-175.3,126.37-277.81,118.57c-118.89-9.04-204.93-117.24-316.54-159.18
			c-134.3-50.46-301.35,13.28-367.89,140.38c-72.89,139.21-28.05,317.15-98.07,457.83c-20,40.19-48.13,74.76-78.91,107.56
			C152.92,959.19,89.18,1012.28,48.43,1081.71z"/>
	</g>
</g>
<g>
	<defs>
		<rect id="SVGID_1_" x="0.14" y="-127.52" width="2827.73" height="1820.01"/>
	</defs>
	<clipPath id="SVGID_2_">
		<use xlink:href="#SVGID_1_"  style="overflow:visible;"/>
	</clipPath>
	<g class="st1">
		
			<linearGradient id="SVGID_3_" gradientUnits="userSpaceOnUse" x1="1657.135" y1="260.1118" x2="2626.7351" y2="260.1118" gradientTransform="matrix(1 0 0 -1 0 1566.9639)">
			<stop  offset="0" style="stop-color:#DBDBE6"/>
			<stop  offset="1" style="stop-color:#FFFFFF"/>
		</linearGradient>
		<path class="st2" d="M1657.14,1089.29v161.08h62.75v107.73h73.22v-89.95h56.49v128.65h-11.52v20.92h129.71v-21.96h-12.55v-123.42
			h30.33v-29.3h55.43v225.93l55.44,55.44l18.82-18.83h18.42v-313.79h63.17v25.11l48.12,48.11h38.7v-73.22h39.74v188.28h63.8V1244.1
			h52.3v-102.51h69.03v112.96h118.2v-165.26H1657.14z"/>
		
			<linearGradient id="SVGID_4_" gradientUnits="userSpaceOnUse" x1="1778.985" y1="327.5119" x2="1778.985" y2="703.89" gradientTransform="matrix(1 0 0 -1 0 1566.9639)">
			<stop  offset="0" style="stop-color:#FCFCFC"/>
			<stop  offset="1" style="stop-color:#FDFDFD"/>
		</linearGradient>
		<path class="st3" d="M1793.1,1089.29h-28.24v268.81h28.24V1089.29z"/>
		
			<linearGradient id="SVGID_5_" gradientUnits="userSpaceOnUse" x1="1880.4449" y1="327.5119" x2="1880.4449" y2="703.8879" gradientTransform="matrix(1 0 0 -1 0 1566.9639)">
			<stop  offset="0" style="stop-color:#FCFCFC"/>
			<stop  offset="1" style="stop-color:#FDFDFD"/>
		</linearGradient>
		<path class="st4" d="M1909.56,1417.72v-235.69h-62.06v-56.48h-54.39v-36.26h162.13v306.47h12.55v21.96H1909.56z"/>
		
			<linearGradient id="SVGID_6_" gradientUnits="userSpaceOnUse" x1="2044.4551" y1="756.7579" x2="2044.4551" y2="0.9819" gradientTransform="matrix(1 0 0 -1 0 1566.9639)">
			<stop  offset="0" style="stop-color:#FCFCFC"/>
			<stop  offset="1" style="stop-color:#FDFDFD"/>
		</linearGradient>
		<path class="st5" d="M2096.44,1524.41v-371.32h-54.39v89.95h-30.33v-79.49h-56.48v-74.26h178.44v416.29h-18.42L2096.44,1524.41z"
			/>
		
			<linearGradient id="SVGID_7_" gradientUnits="userSpaceOnUse" x1="2208.6702" y1="756.7599" x2="2208.6702" y2="0.9819" gradientTransform="matrix(1 0 0 -1 0 1566.9639)">
			<stop  offset="0" style="stop-color:#FCFCFC"/>
			<stop  offset="1" style="stop-color:#FDFDFD"/>
		</linearGradient>
		<path class="st6" d="M2244.97,1265.01v-99.37l-34.79-34.77h-26.92v-18.04h-49.58v-23.54h149.99v175.72H2244.97z"/>
		
			<linearGradient id="SVGID_8_" gradientUnits="userSpaceOnUse" x1="2373.875" y1="756.7599" x2="2373.875" y2="0.9819" gradientTransform="matrix(1 0 0 -1 0 1566.9639)">
			<stop  offset="0" style="stop-color:#FCFCFC"/>
			<stop  offset="1" style="stop-color:#FDFDFD"/>
		</linearGradient>
		<path class="st7" d="M2387.21,1089.29h-26.66v290.77h26.66V1089.29z"/>
		
			<linearGradient id="SVGID_9_" gradientUnits="userSpaceOnUse" x1="2506.9702" y1="756.7589" x2="2506.9702" y2="0.9819" gradientTransform="matrix(1 0 0 -1 0 1566.9639)">
			<stop  offset="0" style="stop-color:#FCFCFC"/>
			<stop  offset="1" style="stop-color:#FDFDFD"/>
		</linearGradient>
		<path class="st8" d="M2626.74,1254.55h-49.16v-123.42h-35.57v-24.41h-154.8v-17.43h239.53V1254.55z"/>
		
			<linearGradient id="SVGID_10_" gradientUnits="userSpaceOnUse" x1="2415.0552" y1="756.757" x2="2415.0552" y2="0.9819" gradientTransform="matrix(1 0 0 -1 0 1566.9639)">
			<stop  offset="0" style="stop-color:#FCFCFC"/>
			<stop  offset="1" style="stop-color:#FDFDFD"/>
		</linearGradient>
		<path class="st9" d="M2439.51,1244.1h-20.4v-116.63l-28.5-28.51h48.9V1244.1z"/>
		
			<linearGradient id="SVGID_11_" gradientUnits="userSpaceOnUse" x1="1705.245" y1="327.5119" x2="1705.245" y2="703.8879" gradientTransform="matrix(1 0 0 -1 0 1566.9639)">
			<stop  offset="0" style="stop-color:#FCFCFC"/>
			<stop  offset="1" style="stop-color:#FDFDFD"/>
		</linearGradient>
		<path class="st10" d="M1719.89,1089.29h-29.28v161.08h29.28V1089.29z"/>
		
			<linearGradient id="SVGID_12_" gradientUnits="userSpaceOnUse" x1="1210.097" y1="1045.3209" x2="1210.097" y2="270.542" gradientTransform="matrix(1 0 0 -1 0 1566.9639)">
			<stop  offset="0" style="stop-color:#DBDBE6"/>
			<stop  offset="1" style="stop-color:#FFFFFF"/>
		</linearGradient>
		<path class="st11" d="M725.3,1075.43V914.36h62.76V806.63h73.21v89.95h56.48V767.93h-11.5V747h129.69v21.97h-12.55v123.42h30.34
			v29.28h55.44V695.76l55.43-55.44l18.83,18.82h18.42v313.79h63.16v-25.1l48.11-48.11h38.7v73.21h39.75V784.66h63.8v135.97h52.3
			v102.51h69.04V910.17h118.18v165.26H725.3z"/>
		
			<linearGradient id="SVGID_13_" gradientUnits="userSpaceOnUse" x1="847.1535" y1="311.6219" x2="847.1535" y2="1109.736" gradientTransform="matrix(1 0 0 -1 0 1566.9639)">
			<stop  offset="0" style="stop-color:#FCFCFC"/>
			<stop  offset="1" style="stop-color:#FDFDFD"/>
		</linearGradient>
		<path class="st12" d="M861.27,806.63h-28.24v268.81h28.24V806.63z"/>
		
			<linearGradient id="SVGID_14_" gradientUnits="userSpaceOnUse" x1="948.6096" y1="50.8019" x2="948.6096" y2="975.9329" gradientTransform="matrix(1 0 0 -1 0 1566.9639)">
			<stop  offset="0" style="stop-color:#FCFCFC"/>
			<stop  offset="1" style="stop-color:#FDFDFD"/>
		</linearGradient>
		<path class="st13" d="M977.73,747v235.7h-62.07v56.47h-54.39v36.26h162.12V768.97h12.55V747H977.73z"/>
		
			<linearGradient id="SVGID_15_" gradientUnits="userSpaceOnUse" x1="1112.625" y1="50.8019" x2="1112.625" y2="975.934" gradientTransform="matrix(1 0 0 -1 0 1566.9639)">
			<stop  offset="0" style="stop-color:#FCFCFC"/>
			<stop  offset="1" style="stop-color:#FDFDFD"/>
		</linearGradient>
		<path class="st14" d="M1164.6,640.32v371.31h-54.39v-89.96h-30.34v79.5h-56.48v74.26h178.46V659.14h-18.42L1164.6,640.32z"/>
		
			<linearGradient id="SVGID_16_" gradientUnits="userSpaceOnUse" x1="1276.84" y1="50.8019" x2="1276.84" y2="975.9329" gradientTransform="matrix(1 0 0 -1 0 1566.9639)">
			<stop  offset="0" style="stop-color:#FCFCFC"/>
			<stop  offset="1" style="stop-color:#FDFDFD"/>
		</linearGradient>
		<path class="st15" d="M1313.13,899.71v99.37l-34.78,34.78h-26.93v18.04h-49.56v23.53h149.97V899.71H1313.13z"/>
		
			<linearGradient id="SVGID_17_" gradientUnits="userSpaceOnUse" x1="1442.0399" y1="50.8019" x2="1442.0399" y2="975.934" gradientTransform="matrix(1 0 0 -1 0 1566.9639)">
			<stop  offset="0" style="stop-color:#FCFCFC"/>
			<stop  offset="1" style="stop-color:#FDFDFD"/>
		</linearGradient>
		<path class="st16" d="M1455.38,784.66h-26.67v290.77h26.67V784.66z"/>
		
			<linearGradient id="SVGID_18_" gradientUnits="userSpaceOnUse" x1="1575.135" y1="50.8019" x2="1575.135" y2="975.9309" gradientTransform="matrix(1 0 0 -1 0 1566.9639)">
			<stop  offset="0" style="stop-color:#FCFCFC"/>
			<stop  offset="1" style="stop-color:#FDFDFD"/>
		</linearGradient>
		<path class="st17" d="M1694.9,910.18h-65.81v123.42h-18.9v24.41h-154.81v17.42h239.52V910.18z"/>
		
			<linearGradient id="SVGID_19_" gradientUnits="userSpaceOnUse" x1="1483.23" y1="50.8019" x2="1483.23" y2="975.9349" gradientTransform="matrix(1 0 0 -1 0 1566.9639)">
			<stop  offset="0" style="stop-color:#FCFCFC"/>
			<stop  offset="1" style="stop-color:#FDFDFD"/>
		</linearGradient>
		<path class="st18" d="M1507.68,920.63h-20.39v116.62l-28.5,28.51h48.89V920.63z"/>
		
			<linearGradient id="SVGID_20_" gradientUnits="userSpaceOnUse" x1="773.4105" y1="311.6219" x2="773.4105" y2="1109.7379" gradientTransform="matrix(1 0 0 -1 0 1566.9639)">
			<stop  offset="0" style="stop-color:#FCFCFC"/>
			<stop  offset="1" style="stop-color:#FDFDFD"/>
		</linearGradient>
		<path class="st19" d="M788.05,914.36h-29.28v161.08h29.28V914.36z"/>
		
			<linearGradient id="SVGID_21_" gradientUnits="userSpaceOnUse" x1="2141.9351" y1="1045.3209" x2="2141.9351" y2="270.542" gradientTransform="matrix(1 0 0 -1 0 1566.9639)">
			<stop  offset="0" style="stop-color:#DBDBE6"/>
			<stop  offset="1" style="stop-color:#FFFFFF"/>
		</linearGradient>
		<path class="st20" d="M1657.14,1075.43V914.36h62.75V806.63h73.22v89.95h56.49V767.93h-11.52V747h129.71v21.97h-12.55v123.42
			h30.33v29.28h55.43V695.76l55.44-55.44l18.82,18.82h18.42v313.79h63.17v-25.1l48.12-48.11h38.7v73.21h39.74V784.66h63.8v135.97
			h52.3v102.51h69.03V910.17h118.2v165.26H1657.14z"/>
		
			<linearGradient id="SVGID_22_" gradientUnits="userSpaceOnUse" x1="1778.985" y1="50.8019" x2="1778.985" y2="975.9309" gradientTransform="matrix(1 0 0 -1 0 1566.9639)">
			<stop  offset="0" style="stop-color:#FCFCFC"/>
			<stop  offset="1" style="stop-color:#FDFDFD"/>
		</linearGradient>
		<path class="st21" d="M1793.1,806.63h-28.24v268.81h28.24V806.63z"/>
		
			<linearGradient id="SVGID_23_" gradientUnits="userSpaceOnUse" x1="1880.4449" y1="50.8019" x2="1880.4449" y2="975.9329" gradientTransform="matrix(1 0 0 -1 0 1566.9639)">
			<stop  offset="0" style="stop-color:#FCFCFC"/>
			<stop  offset="1" style="stop-color:#FDFDFD"/>
		</linearGradient>
		<path class="st22" d="M1909.56,747v235.7h-62.06v56.47h-54.39v36.26h162.13V768.97h12.55V747H1909.56z"/>
		
			<linearGradient id="SVGID_24_" gradientUnits="userSpaceOnUse" x1="2044.455" y1="50.8019" x2="2044.455" y2="975.934" gradientTransform="matrix(1 0 0 -1 0 1566.9639)">
			<stop  offset="0" style="stop-color:#FCFCFC"/>
			<stop  offset="1" style="stop-color:#FDFDFD"/>
		</linearGradient>
		<path class="st23" d="M2096.44,640.32v371.31h-54.39v-89.96h-30.33v79.5h-56.48v74.26h178.44V659.14h-18.42L2096.44,640.32z"/>
		
			<linearGradient id="SVGID_25_" gradientUnits="userSpaceOnUse" x1="2208.6699" y1="50.8019" x2="2208.6699" y2="975.9329" gradientTransform="matrix(1 0 0 -1 0 1566.9639)">
			<stop  offset="0" style="stop-color:#FCFCFC"/>
			<stop  offset="1" style="stop-color:#FDFDFD"/>
		</linearGradient>
		<path class="st24" d="M2244.97,899.71v99.37l-34.79,34.78h-26.92v18.04h-49.58v23.53h149.99V899.71H2244.97z"/>
		
			<linearGradient id="SVGID_26_" gradientUnits="userSpaceOnUse" x1="2373.875" y1="50.8019" x2="2373.875" y2="975.934" gradientTransform="matrix(1 0 0 -1 0 1566.9639)">
			<stop  offset="0" style="stop-color:#FCFCFC"/>
			<stop  offset="1" style="stop-color:#FDFDFD"/>
		</linearGradient>
		<path class="st25" d="M2387.21,784.66h-26.66v290.77h26.66V784.66z"/>
		
			<linearGradient id="SVGID_27_" gradientUnits="userSpaceOnUse" x1="2506.97" y1="50.8019" x2="2506.97" y2="975.9309" gradientTransform="matrix(1 0 0 -1 0 1566.9639)">
			<stop  offset="0" style="stop-color:#FCFCFC"/>
			<stop  offset="1" style="stop-color:#FDFDFD"/>
		</linearGradient>
		<path class="st26" d="M2626.74,910.18h-49.16v123.42h-35.57v24.41h-154.8v17.42h239.53V910.18z"/>
		
			<linearGradient id="SVGID_28_" gradientUnits="userSpaceOnUse" x1="2415.0549" y1="50.8019" x2="2415.0549" y2="975.9349" gradientTransform="matrix(1 0 0 -1 0 1566.9639)">
			<stop  offset="0" style="stop-color:#FCFCFC"/>
			<stop  offset="1" style="stop-color:#FDFDFD"/>
		</linearGradient>
		<path class="st27" d="M2439.51,920.63h-20.4v116.62l-28.5,28.51h48.9V920.63z"/>
		
			<linearGradient id="SVGID_29_" gradientUnits="userSpaceOnUse" x1="1705.245" y1="50.8019" x2="1705.245" y2="975.934" gradientTransform="matrix(1 0 0 -1 0 1566.9639)">
			<stop  offset="0" style="stop-color:#FCFCFC"/>
			<stop  offset="1" style="stop-color:#FDFDFD"/>
		</linearGradient>
		<path class="st28" d="M1719.89,914.36h-29.28v161.08h29.28V914.36z"/>
		<path class="st29" d="M1001.67,1066c0,0,83.01-37.73,99.97-26.41c16.98,11.33,94.32-13.66,149.03-2.11
			c54.7,11.55,86.78,38.37,139.59,12.7c52.82-25.67,115.07-15.83,124.5,0c9.42,15.82,22.63,8.7,83,0
			c60.37-8.7,56.6-4.92,135.82,15.82c79.22,20.75,131.31,20.75,131.31,20.75h-863.22V1066z"/>
		<path class="st29" d="M886.63,1110.64c0,0,18.87-69.17,116.96-35.21c98.09,33.96,119.47,75.45,261.57,70.42
			s204.99,62.88,262.84,61.62c57.84-1.26,60.94,26.4,60.94,26.4H861.48L886.63,1110.64z"/>
		<path class="st29" d="M1501.76,1071.66c0,0,58.47,17.91,98.08-13.68c39.62-31.6,137.71-28.77,181.1,0
			c43.38,28.77,96.2,12.59,122.61-1.96c26.4-14.55,77.33-10.36,141.47,4.52c64.14,14.89,64.14-6.47,128.28-4.52
			c64.14,1.96,258.43,30.72,258.43,30.72h-956.39L1501.76,1071.66z"/>
		<path class="st29" d="M2193.33,1086.76c0,0,72.88-57.97,110.71-41.93c37.84,16.03,72.24,36.04,98.03,19.56s67.08-17.93,79.11-3.33
			c12.04,14.59,55.11,5.88,77.63,3.33c60.59-6.89,84.88,22.37,84.88,22.37H2193.33z"/>
		<path class="st30" d="M1985.24,381.93c3.63,0,6.58-2.95,6.58-6.58c0-3.64-2.95-6.58-6.58-6.58c-3.64,0-6.59,2.95-6.59,6.58
			C1978.66,378.98,1981.6,381.93,1985.24,381.93z"/>
		<path class="st30" d="M2290.25,747c0,3.64-2.95,6.58-6.58,6.58c-3.64,0-6.59-2.95-6.59-6.58c0-3.64,2.95-6.58,6.59-6.58
			C2287.29,740.42,2290.25,743.37,2290.25,747z"/>
		<path class="st30" d="M1849.32,215.49c0,3.64-2.94,6.58-6.58,6.58c-3.63,0-6.58-2.95-6.58-6.58c0-3.64,2.95-6.58,6.58-6.58
			C1846.38,208.9,1849.32,211.85,1849.32,215.49z"/>
		<path class="st30" d="M1896.7,538.7c0,6.86-5.57,12.44-12.44,12.44c-6.86,0-12.43-5.57-12.43-12.44c0-6.88,5.57-12.44,12.43-12.44
			C1891.13,526.26,1896.7,531.82,1896.7,538.7z"/>
		<path class="st30" d="M1797.24,330.21c-1.3,5.41-6.73,8.73-12.14,7.44c-5.4-1.3-8.73-6.73-7.43-12.14
			c1.3-5.41,6.73-8.73,12.13-7.44C1795.21,319.38,1798.54,324.81,1797.24,330.21z"/>
		<path class="st30" d="M1792.06,679.09c-0.6,2.54-3.15,4.1-5.7,3.49c-2.54-0.6-4.1-3.17-3.49-5.7c0.61-2.54,3.17-4.1,5.7-3.49
			C1791.09,674,1792.67,676.55,1792.06,679.09z"/>
		<path class="st30" d="M2189.13,563.57c0,6.86-5.57,12.44-12.44,12.44c-6.86,0-12.43-5.57-12.43-12.44s5.57-12.44,12.43-12.44
			C2183.56,551.14,2189.13,556.71,2189.13,563.57z"/>
		<path class="st30" d="M2104.82,210c-0.61,2.54-3.17,4.1-5.7,3.49c-2.54-0.61-4.11-3.17-3.49-5.7c0.6-2.54,3.15-4.1,5.7-3.49
			C2103.86,204.91,2105.43,207.46,2104.82,210z"/>
		<path class="st30" d="M2419.66,679.09c-0.61,2.54-3.16,4.1-5.7,3.49c-2.54-0.6-4.1-3.17-3.48-5.7c0.61-2.54,3.16-4.1,5.69-3.49
			C2418.7,674,2420.26,676.55,2419.66,679.09z"/>
		<path class="st30" d="M1245.58,474.33c-0.61,2.54-3.17,4.1-5.7,3.49c-2.54-0.6-4.1-3.17-3.49-5.7c0.62-2.54,3.17-4.1,5.7-3.49
			C1244.64,469.24,1246.2,471.79,1245.58,474.33z"/>
		<path class="st30" d="M2653.03,634.84c-0.62,2.54-3.17,4.1-5.7,3.49c-2.54-0.61-4.1-3.17-3.49-5.7c0.62-2.54,3.17-4.1,5.7-3.49
			C2652.08,629.74,2653.65,632.3,2653.03,634.84z"/>
		<path class="st30" d="M1556.28,512.7c0,6.86-5.57,12.44-12.44,12.44c-6.86,0-12.44-5.57-12.44-12.44
			c0-6.88,5.58-12.44,12.44-12.44C1550.7,500.26,1556.28,505.82,1556.28,512.7z"/>
		<path class="st30" d="M1560.86,280.57c-0.6,2.54-3.16,4.1-5.69,3.49c-2.55-0.61-4.11-3.17-3.49-5.7c0.6-2.54,3.16-4.1,5.69-3.49
			C1559.93,275.48,1561.48,278.03,1560.86,280.57z"/>
		
			<linearGradient id="SVGID_30_" gradientUnits="userSpaceOnUse" x1="722.1265" y1="1100.2131" x2="1033.3354" y2="966.1247" gradientTransform="matrix(1 0 0 -1 0 1566.9639)">
			<stop  offset="0" style="stop-color:#FF9F55"/>
			<stop  offset="1" style="stop-color:#FFD255"/>
		</linearGradient>
		<path class="st31" d="M1022.14,556.11c2.12-13.58,2.24-27.22,0.55-40.53l23.93-15.58l-11.46-28.83l-11.46-28.82l-28.09,5.11
			c-7.92-10.83-17.38-20.66-28.24-29.07l5.9-27.92l-28.49-12.27l-28.49-12.27l-16.24,23.46c-13.58-2.11-27.22-2.24-40.53-0.55
			l-15.58-23.93l-28.82,11.46l-28.82,11.46l5.11,28.1c-10.83,7.92-20.66,17.38-29.08,28.24l-27.9-5.9l-12.27,28.49l-12.27,28.49
			l23.46,16.24c-2.11,13.58-2.24,27.22-0.55,40.53l-23.93,15.58l11.46,28.82l11.46,28.82l28.1-5.11
			c7.92,10.83,17.38,20.66,28.24,29.07l-5.9,27.92l28.49,12.27l28.49,12.27l16.24-23.46c13.58,2.11,27.22,2.24,40.53,0.55
			l15.58,23.93l28.82-11.46l28.82-11.47l-5.11-28.09c10.83-7.92,20.66-17.38,29.09-28.24l27.91,5.9l12.27-28.49l12.27-28.49
			L1022.14,556.11z M834.71,633.61c-55.13-23.75-80.57-87.7-56.8-142.83c23.75-55.13,87.7-80.57,142.83-56.8
			c55.13,23.75,80.56,87.7,56.81,142.83C953.78,631.93,889.84,657.36,834.71,633.61z"/>
		<path class="st32" d="M210.3,585.69h-5.72l17.45-35.25h5.71L210.3,585.69z"/>
		<path class="st32" d="M303.11,582.46H26.42v4.39h276.69V582.46z"/>
		<path class="st32" d="M174.23,596.68H26.42v25.38h147.81V596.68z"/>
		<path class="st32" d="M281.59,536.49h-77.01v13.95h77.01V536.49z"/>
		<path class="st32" d="M281.59,529.97h-77.01v2.63h77.01V529.97z"/>
		<g class="st33">
			<path class="st34" d="M1676.63,703.37h-86.32v6.45h86.32V703.37z"/>
			<path class="st34" d="M1676.63,712.63h-86.32v17.45h86.32V712.63z"/>
			<path class="st34" d="M1604.68,568.06v58.36h-143.08v10.26h143.08v9.07h-143.08v43.12h143.08h3.23h3.22V568.06H1604.68z"/>
		</g>
		
			<linearGradient id="SVGID_31_" gradientUnits="userSpaceOnUse" x1="1022.5903" y1="1265.6158" x2="1165.2865" y2="1204.1356" gradientTransform="matrix(1 0 0 -1 0 1566.9639)">
			<stop  offset="0" style="stop-color:#FF9F55"/>
			<stop  offset="1" style="stop-color:#FFD255"/>
		</linearGradient>
		<path class="st35" d="M1160.15,342.3c0.97-6.23,1.03-12.48,0.25-18.58l10.97-7.15l-5.25-13.21l-5.26-13.21l-12.88,2.34
			c-3.64-4.97-7.97-9.47-12.95-13.33l2.71-12.79l-13.06-5.63l-13.07-5.63l-7.44,10.75c-6.23-0.97-12.48-1.03-18.59-0.25l-7.15-10.97
			l-13.2,5.25l-13.21,5.25l2.34,12.88c-4.97,3.63-9.47,7.97-13.33,12.95l-12.8-2.71l-5.62,13.06l-5.63,13.06l10.75,7.45
			c-0.96,6.23-1.03,12.48-0.25,18.58l-10.96,7.15l5.25,13.22l5.25,13.21l12.87-2.34c3.63,4.97,7.97,9.47,12.95,13.33l-2.71,12.8
			l13.06,5.63l13.07,5.63l7.45-10.75c6.23,0.97,12.48,1.03,18.58,0.25l7.15,10.97l13.22-5.25l13.2-5.25l-2.34-12.88
			c4.97-3.62,9.47-7.97,13.33-12.95l12.81,2.71l5.62-13.06l5.63-13.06L1160.15,342.3z M1074.22,377.84
			c-25.28-10.89-36.93-40.21-26.05-65.48c10.89-25.27,40.21-36.93,65.49-26.04c25.27,10.89,36.93,40.21,26.04,65.48
			C1128.81,377.07,1099.49,388.72,1074.22,377.84z"/>
		<path class="st36" d="M718.98,280.14H587.45c-5.56,0-10.06-4.51-10.06-10.06v-20.31c0-5.56,4.51-10.06,10.06-10.06h131.53
			c5.56,0,10.06,4.51,10.06,10.06v20.31C729.04,275.63,724.53,280.14,718.98,280.14z"/>
		<path class="st36" d="M718.98,355.85H587.45c-5.56,0-10.06-4.51-10.06-10.06v-20.31c0-5.55,4.51-10.06,10.06-10.06h131.53
			c5.56,0,10.06,4.51,10.06,10.06v20.31C729.04,351.34,724.53,355.85,718.98,355.85z"/>
		<path class="st36" d="M718.98,431.57H587.45c-5.56,0-10.06-4.51-10.06-10.06v-20.31c0-5.56,4.51-10.06,10.06-10.06h131.53
			c5.56,0,10.06,4.51,10.06,10.06v20.31C729.04,427.06,724.53,431.57,718.98,431.57z"/>
		<path class="st36" d="M504.06,149.49C470.33,55.17,380.18-2.76,285.16,0.09c-23,0.69-46.28,4.95-69.14,13.11
			c-69.2,24.75-118.83,79.88-139.21,145c-14.13,45.14-14.22,95.07,2.94,143.04c1.7,4.77,3.56,9.46,5.54,14.04
			c9.02,20.77,20.87,39.57,34.93,56.09c58.96,69.32,156.8,98.61,247.56,66.16C484.95,395.62,545.97,266.66,504.06,149.49z
			 M348.79,384.43c-68.05,24.33-141.39,2.37-185.6-49.58c-10.53-12.39-19.42-26.48-26.18-42.05c-1.49-3.44-2.89-6.96-4.17-10.53
			c-12.86-35.96-12.79-73.4-2.2-107.23c15.28-48.84,52.48-90.16,104.37-108.71c17.13-6.12,34.59-9.31,51.84-9.84
			c71.22-2.15,138.82,41.29,164.11,112.02C482.39,256.32,436.64,353,348.79,384.43z"/>
		<path class="st37" d="M130.65,175.02L76.81,158.2c20.39-65.13,70.01-120.25,139.21-145c22.85-8.17,46.14-12.43,69.14-13.12
			l1.69,56.38c-17.25,0.52-34.71,3.71-51.84,9.84C183.13,84.86,145.93,126.18,130.65,175.02z"/>
		<path class="st38" d="M137.01,292.78L85.3,315.29c-1.99-4.58-3.84-9.28-5.54-14.04c-17.16-47.96-17.06-97.9-2.94-143.04
			l53.84,16.81c-10.6,33.83-10.67,71.27,2.2,107.23C134.13,285.82,135.52,289.34,137.01,292.78z"/>
		<path class="st39" d="M120.23,371.37c-14.06-16.52-25.91-35.31-34.93-56.08l51.71-22.51c6.76,15.58,15.65,29.67,26.18,42.05
			L120.23,371.37z"/>
		
			<linearGradient id="SVGID_32_" gradientUnits="userSpaceOnUse" x1="1193.2224" y1="887.4105" x2="1215.6616" y2="818.2842" gradientTransform="matrix(1 0 0 -1 0 1566.9639)">
			<stop  offset="0" style="stop-color:#FF9F55"/>
			<stop  offset="1" style="stop-color:#FFD255"/>
		</linearGradient>
		<path class="st40" d="M1190.86,756.73l-50.61-44.12c-4.15-3.61-4.58-9.92-0.96-14.06c3.62-4.15,9.92-4.58,14.07-0.97l35.78,31.2
			l51.03-56.92c3.68-4.11,9.98-4.44,14.08-0.77c4.09,3.68,4.43,9.98,0.77,14.07L1190.86,756.73z"/>
		
			<linearGradient id="SVGID_33_" gradientUnits="userSpaceOnUse" x1="1312.6346" y1="1124.6528" x2="1354.9349" y2="994.3171" gradientTransform="matrix(1 0 0 -1 0 1566.9639)">
			<stop  offset="0" style="stop-color:#FF9F55"/>
			<stop  offset="1" style="stop-color:#FFD255"/>
		</linearGradient>
		<path class="st41" d="M1333.79,579.04c-4.99,0-9.04-4.05-9.04-9.04V444.96c0-4.99,4.04-9.04,9.04-9.04c4.99,0,9.04,4.05,9.04,9.04
			V570C1342.82,574.99,1338.78,579.04,1333.79,579.04z"/>
		
			<linearGradient id="SVGID_34_" gradientUnits="userSpaceOnUse" x1="1325.035" y1="1086.4446" x2="1342.5349" y2="1032.5253" gradientTransform="matrix(1 0 0 -1 0 1566.9639)">
			<stop  offset="0" style="stop-color:#FF9F55"/>
			<stop  offset="1" style="stop-color:#FFD255"/>
		</linearGradient>
		<path class="st42" d="M1396.31,516.52h-125.04c-4.99,0-9.05-4.05-9.05-9.04c0-4.99,4.06-9.04,9.05-9.04h125.04
			c4.99,0,9.05,4.05,9.05,9.04C1405.35,512.47,1401.3,516.52,1396.31,516.52z"/>
		
			<linearGradient id="SVGID_35_" gradientUnits="userSpaceOnUse" x1="389.3196" y1="-6.9281" x2="389.3196" y2="155.792" gradientTransform="matrix(1 0 0 -1 0 1566.9639)">
			<stop  offset="0" style="stop-color:#FF9F55"/>
			<stop  offset="1" style="stop-color:#FFD255"/>
		</linearGradient>
		<path class="st43" d="M697.19,1587.35H123.32c-23.13,0-41.88-18.75-41.88-41.88v-67.97c0-23.12,18.75-41.88,41.88-41.88h573.87
			V1587.35z"/>
		<path class="st44" d="M795.75,1451.25v120.49h10.06v15.62H389.86c-23.13,0-41.88-18.75-41.88-41.88v-67.97
			c0-23.12,18.75-41.88,41.88-41.88h415.96v15.62H795.75z"/>
		<path class="st45" d="M795.74,1571.73H420.56c-23.13,0-41.88-18.75-41.88-41.87v-36.74c0-23.13,18.75-41.88,41.88-41.88h375.18
			V1571.73z"/>
		
			<linearGradient id="SVGID_36_" gradientUnits="userSpaceOnUse" x1="383.5799" y1="359.9619" x2="383.5799" y2="134.7119" gradientTransform="matrix(1 0 0 -1 0 1566.9639)">
			<stop  offset="0" style="stop-color:#40D5E6"/>
			<stop  offset="1" style="stop-color:#5577FF"/>
		</linearGradient>
		<path class="st46" d="M724,1435.62H95.77c-29.05,0-52.62-23.55-52.62-52.61v-71.23c0-29.05,23.55-52.61,52.62-52.61h628.24v176.45
			H724z"/>
		<path class="st47" d="M835.44,1277.34v140.13h8.67v18.16H502.42c-29.05,0-52.62-23.55-52.62-52.61v-71.23
			c0-29.05,23.55-52.61,52.62-52.61h341.68v18.16H835.44z"/>
		<path class="st45" d="M835.43,1417.47H528.86c-29.05,0-52.62-23.56-52.62-52.62v-34.9c0-29.05,23.55-52.61,52.62-52.61h306.57
			V1417.47L835.43,1417.47z"/>
		
			<linearGradient id="SVGID_37_" gradientUnits="userSpaceOnUse" x1="538.5975" y1="349.162" x2="538.5975" y2="517.5719" gradientTransform="matrix(1 0 0 -1 0 1566.9639)">
			<stop  offset="0" style="stop-color:#FF9F55"/>
			<stop  offset="1" style="stop-color:#FFD255"/>
		</linearGradient>
		<path class="st48" d="M271.38,1259.15h477.49c31.45,0,56.94-25.49,56.94-56.94v-102.45c0-31.45-25.49-56.94-56.94-56.94H271.38
			V1259.15z"/>
		<path class="st44" d="M185.85,1065.09v171.79h-8.74v22.28h340.43c31.45,0,56.94-25.49,56.94-56.94v-102.46
			c0-31.45-25.49-56.94-56.94-56.94H177.11v22.28h8.74V1065.09z"/>
		<path class="st45" d="M185.86,1236.88h301.03c31.26,0,56.6-25.35,56.6-56.6v-58.6c0-31.26-25.33-56.59-56.6-56.59H185.86V1236.88z
			"/>
		
			<linearGradient id="SVGID_38_" gradientUnits="userSpaceOnUse" x1="345.8593" y1="801.947" x2="345.8593" y2="612.752" gradientTransform="matrix(1 0 0 -1 0 1566.9639)">
			<stop  offset="0" style="stop-color:#40D5E6"/>
			<stop  offset="1" style="stop-color:#5577FF"/>
		</linearGradient>
		<path class="st49" d="M628.94,1042.76h-506.3c-33.06,0-59.86-26.8-59.86-59.85V886.3c0-33.07,26.8-59.86,59.86-59.86h506.3
			V1042.76z"/>
		<path class="st47" d="M719.56,848.71v171.8h9.25v22.27h-361.1c-33.06,0-59.86-26.8-59.86-59.85v-96.61
			c0-33.07,26.8-59.86,59.86-59.86h361.11v22.26h-9.26V848.71z"/>
		<path class="st45" d="M719.56,1020.5H398.88c-32.92,0-59.61-26.69-59.61-59.61v-52.57c0-32.92,26.69-59.61,59.61-59.61h320.67
			v171.79H719.56z"/>
		
			<linearGradient id="SVGID_39_" gradientUnits="userSpaceOnUse" x1="488.663" y1="895.2369" x2="488.663" y2="743.9099" gradientTransform="matrix(1 0 0 -1 0 1566.9639)">
			<stop  offset="0" style="stop-color:#40D5E6"/>
			<stop  offset="1" style="stop-color:#5577FF"/>
		</linearGradient>
		<path class="st50" d="M771.74,826.38h-529c-20.52,0-37.16-16.64-37.16-37.16v-89.39c0-20.52,16.64-37.16,37.16-37.16h529.01
			v163.71H771.74z"/>
		<path class="st47" d="M862.37,679.53v130.01h9.25v16.85H487.81c-20.52,0-37.16-16.64-37.16-37.16v-89.4
			c0-20.52,16.64-37.16,37.16-37.16h383.82v16.86H862.37z"/>
		<path class="st45" d="M862.36,809.53H516.04c-20.52,0-37.16-16.64-37.16-37.16v-55.7c0-20.52,16.64-37.16,37.16-37.16h346.32
			V809.53L862.36,809.53z"/>
		<path class="st51" d="M1632.14,1001.95l-532.88,2.74c-22.18,0.11-40.25-17.77-40.37-39.95l-1.8-350.76
			c-0.11-22.18,17.77-40.25,39.95-40.37l532.88-2.74c22.18-0.11,40.25,17.77,40.37,39.95l1.81,350.76
			C1672.2,983.76,1654.32,1001.83,1632.14,1001.95z"/>
		<path class="st52" d="M1439.28,565.69l-149.53,0.77l0.18,33.76l149.52-0.77L1439.28,565.69z"/>
		<path class="st30" d="M1215.2,657.35c0,0,0.17,97.98-10.47,137.25l-23.04,14.58l-81.49,0.42
			c15.27-41.28,15.06-151.74,15.06-151.74L1215.2,657.35z"/>
		<path class="st53" d="M1181.69,809.18l-0.07-14.8l23.11-0.11L1181.69,809.18z"/>
		<path class="st30" d="M1313.73,633.22c0,0,0.11,67.78-7.25,94.95l-15.94,10.09l-56.38,0.29c10.56-28.55,10.42-104.97,10.42-104.97
			L1313.73,633.22z"/>
		<path class="st53" d="M1290.56,738.26l-0.05-10.24l15.99-0.08L1290.56,738.26z"/>
		<path class="st30" d="M1452.01,650.56c0,0,0.16,92.85-9.92,130.07l-21.84,13.82l-77.22,0.4c14.47-39.12,14.27-143.8,14.27-143.8
			L1452.01,650.56z"/>
		<path class="st53" d="M1420.24,794.44l-0.06-14.02l21.9-0.12L1420.24,794.44z"/>
		<path class="st30" d="M1550.52,768.77c0,0,0.1,62.72-6.7,87.86l-14.75,9.33l-52.16,0.27c9.77-26.42,9.64-97.13,9.64-97.13
			L1550.52,768.77z"/>
		<path class="st53" d="M1529.07,865.95l-0.05-9.47l14.8-0.07L1529.07,865.95z"/>
		<path class="st30" d="M1550.52,640.14c0,0,0.1,62.72-6.7,87.85l-14.75,9.33l-52.16,0.27c9.77-26.43,9.64-97.13,9.64-97.13
			L1550.52,640.14z"/>
		<path class="st53" d="M1529.07,737.33l-0.05-9.47l14.8-0.08L1529.07,737.33z"/>
		<path class="st30" d="M1631.53,702.1c0,0,0.09,48.15-5.14,67.45l-11.33,7.17l-40.04,0.21c7.5-20.28,7.4-74.58,7.4-74.58
			L1631.53,702.1z"/>
		<path class="st53" d="M1615.06,776.72l-0.03-7.27l11.36-0.06L1615.06,776.72z"/>
		<path class="st30" d="M1310.18,780.7c0,0,0.07,49.98-6.13,70.02l-13.39,7.45l-47.31,0.24c8.88-21.06,8.8-77.41,8.8-77.41
			L1310.18,780.7z"/>
		<path class="st53" d="M1290.67,858.17l-0.04-7.55l13.43-0.07L1290.67,858.17z"/>
		<path class="st30" d="M1246.57,896.86h-142.55v7.41h142.55V896.86z"/>
		<path class="st30" d="M1268.42,948.27h-164.39v7.4h164.39V948.27z"/>
		<path class="st30" d="M1205.28,922.56h-101.25v7.4h101.25V922.56z"/>
		<path class="st54" d="M1145.54,1115.45h-164.1v9.74h164.1V1115.45z"/>
		<path class="st52" d="M1003.43,1593.56h14.38v-443.01h-14.38V1593.56z"/>
		<path class="st55" d="M1233.93,1112.69h-114.07v13.91h114.07V1112.69z"/>
		<path class="st54" d="M1198.47,994h-43.19v131.19h43.19V994z"/>
		<path class="st56" d="M1554.57,1125.36h-632v25.19h632V1125.36z"/>
		<path class="st57" d="M801.28,972.9c0,0-6.92,96.94,12.02,108.54c11.86,7.27,59.17,31.78,57.77,36.38
			c-1.41,4.59-26.71,40.89-26.71,40.89s-90.87-59.83-93.8-78.7c-2.86-18.43,4.47-141.93,16.96-147.62
			c9.35-4.26,14.29-0.74,26.08,8.01C810.16,952.69,801.28,972.9,801.28,972.9z"/>
		<path class="st58" d="M966.89,1000.57l8.01-2.96c0,0-9.99-23.44-14.34-22.87c-5.02,0.65-11.29,2.31-11.29,2.31L966.89,1000.57z"/>
		<path class="st59" d="M968.72,1004.63c-1.02-0.77-17.02-31.46-17.02-31.46l-34.19,4.64l18.47,36.36L968.72,1004.63z"/>
		<path class="st60" d="M913.08,1533.08c0,0-2.82,19.61-3.18,22.56c-0.35,2.95-31.44-1.74-31.44-1.74l-2.52-23.35
			C875.95,1530.55,909.19,1530.31,913.08,1533.08z"/>
		<path class="st61" d="M910.23,1553.14c0,0,9.84,11.82,19.38,16.97c9.52,5.15,24.49,7.19,30.13,12.52
			c4.06,3.85,14.8,20.42-24.75,20.08c-39.55-0.33-58.63,2.35-62.87-4.01c-4.24-6.35,6.14-46.89,6.14-46.89
			S887.61,1555.18,910.23,1553.14z"/>
		<path class="st60" d="M1112.2,1533.26c0,0-2.83,19.62-3.18,22.57c-0.35,2.95-31.44-1.74-31.44-1.74l-2.52-23.35
			C1075.07,1530.73,1108.32,1530.49,1112.2,1533.26z"/>
		<path class="st61" d="M1109.35,1553.33c0,0,9.85,11.81,19.38,16.97c9.52,5.15,44.57,9.38,50.21,14.72
			c4.06,3.84,10.82,19.34-44.84,17.89c-39.54-1.03-58.62,2.35-62.86-4.01c-4.24-6.35,6.13-46.89,6.13-46.89
			S1086.2,1555.6,1109.35,1553.33z"/>
		<path class="st61" d="M812.83,1194.28c0,0,112.99,19.11,138.52,23.12c25.52,4.02,163.9,38.44,181.2,48.94
			c13.77,8.36-7.23,208.95-12.13,285.48h-54.51l-3.94-229.58c-65.41,1.64-112.08-15.3-159.71-8.06
			c-47.63,7.23-87.34,17.51-117.6-23.08C784.66,1291.1,783.53,1203.14,812.83,1194.28z"/>
		<path class="st61" d="M924.2,1551.99l-53.12-3.28l-5.18-226.47c-28.16,0.7-37.8-1.08-60.6-3.84l-42.89-99.69
			c37.58,7.51,158.01,37.88,174.06,47.62C950.27,1274.69,929.11,1475.46,924.2,1551.99z"/>
		<path class="st62" d="M864.85,770.72c0,0,41.42-11.45,57.22,20.71c15.8,32.16,8.64,93.12-12.24,98.85
			c-20.88,5.74-50.9-0.87-59.57-20.89c-8.67-20.01-15.58-48.45-13.5-66.87C838.85,784.11,853.85,775.13,864.85,770.72z"/>
		<path class="st62" d="M899.02,883.86c0,0-0.46,24.46,2.24,29.67c2.7,5.22-57.68,3.9-57.68,3.9s9.51-29.36,4.11-54.38
			C842.35,838.28,899.02,883.86,899.02,883.86z"/>
		<path class="st63" d="M844.44,853.8c0,0,3.23,6.56,18.85,5.5c15.63-1.06,36.24-19.92,42.88-21.6c6.64-1.69,7.03-5.46,7.03-5.46
			l3.51,6.24l6.8,1.03c0,0-1.38-15.6,5.45-25.55c2.99-4.36-4.53-60.24-55.49-47.31c0,0-38.89,7.13-39.41,28.83
			C833.52,817.2,836.89,842.29,844.44,853.8z"/>
		<path class="st64" d="M904.42,912.9c0,0-0.17-9.96-4.69-10.91c-4.51-0.96-47.46-6.87-53-4.69l-2.38,13.16
			C844.37,910.46,855.04,917.03,904.42,912.9z"/>
		<path class="st62" d="M916.85,827.78c-1.16-8.17-10.44-17.54-15.76-4.82c-5.31,12.72,3.59,31.23,9.55,30.24
			C916.61,852.2,918.42,838.86,916.85,827.78z"/>
		<path class="st65" d="M1084.31,1030.59c-0.02-0.01-0.04-0.01-0.07,0C1084.54,1030.73,1084.57,1030.74,1084.31,1030.59z"/>
		<path class="st63" d="M852.76,776.55c0,0-50.5-2.38-8.81,76.46L852.76,776.55z"/>
		<path class="st66" d="M740.24,1578.86l3.75,10.57l158.75-49.19l-7.6-21.39L740.24,1578.86z"/>
		<path class="st66" d="M908.18,1360.12h-18.04v172.59h18.04V1360.12z"/>
		<path class="st67" d="M952.37,1350.95H845.95v10.17h106.42V1350.95z"/>
		<path class="st66" d="M1059.48,1578.86l-3.75,10.57l-158.75-49.19l6.97-22.74L1059.48,1578.86z"/>
		<path class="st66" d="M947.63,1588.3v12.29l-50.65-60.35l6.97-22.74L947.63,1588.3z"/>
		<path class="st68" d="M1074.32,1593.56c0,8.19-6.65,14.83-14.83,14.83c-8.19,0-14.84-6.65-14.84-14.83
			c0-8.2,6.65-14.84,14.84-14.84C1067.68,1578.72,1074.32,1585.37,1074.32,1593.56z"/>
		<path class="st68" d="M948.89,1593.56c0,8.19-6.65,14.83-14.83,14.83c-8.2,0-14.83-6.65-14.83-14.83c0-8.2,6.65-14.84,14.83-14.84
			C942.26,1578.72,948.89,1585.37,948.89,1593.56z"/>
		<path class="st68" d="M755.07,1593.56c0,8.19-6.65,14.83-14.83,14.83s-14.83-6.65-14.83-14.83c0-8.2,6.65-14.84,14.83-14.84
			S755.07,1585.37,755.07,1593.56z"/>
		<path class="st69" d="M1006.9,1350.95H792.81c-10.5,0-19.01-8.51-19.01-19.02v-0.49c0-10.5,8.51-19.02,19.01-19.02h214.08
			c10.5,0,19.01,8.51,19.01,19.02v0.49C1025.92,1342.44,1017.41,1350.95,1006.9,1350.95z"/>
		<path class="st52" d="M1473.7,1150.55h-14.37v443.01h14.37V1150.55z"/>
		
			<linearGradient id="SVGID_40_" gradientUnits="userSpaceOnUse" x1="1363.385" y1="641.3199" x2="990.405" y2="641.3199" gradientTransform="matrix(1 0 0 -1 0 1566.9639)">
			<stop  offset="0" style="stop-color:#FF9F55"/>
			<stop  offset="1" style="stop-color:#FFD255"/>
		</linearGradient>
		<path class="st70" d="M1344.42,1057.2h-335.04c-10.48,0-18.97-8.49-18.97-18.97V813.05c0-10.48,8.49-18.97,18.97-18.97h335.04
			c10.48,0,18.97,8.49,18.97,18.97v225.18C1363.39,1048.71,1354.9,1057.2,1344.42,1057.2z"/>
		<path class="st71" d="M1348.78,808.31h-343.77v207.67h343.77V808.31z"/>
		<path class="st72" d="M1254.1,1125.69v-4.68c0,0-6.58-29.12-53.14-29.12c-46.56,0-45.62,33.8-45.62,33.8H1254.1z"/>
		<path class="st62" d="M1154.78,1096.22c0,0,10.12-0.78,13.83-3.02c3.7-2.24,25.87-17.14,31.08-14.76
			c5.21,2.39,39.87,13,38.66,18.07c-1.2,5.08-4.41,4.59-6.86,3.69c-2.44-0.89-27.61-6.18-29.83-5.29c0,0,24.72,9.02,24.82,15.59
			c0.11,6.59-5.17,8.19-7.52,10.68c-2.34,2.49-5.15,8.67-11.53,9.15c-6.37,0.47-37.46-10.35-43.86-10.84
			c-6.39-0.48-18.24,0.4-19.04-0.64C1143.72,1117.81,1154.78,1096.22,1154.78,1096.22z"/>
		<path class="st57" d="M970.62,926.7c-32.25-5.66-66.2-13.8-66.2-13.8l-60.07-2.45c0,0-55.13,12.14-76.84,21.94
			c-2.06,0.93-2.07,49.18-7.72,61.83l18,37.97c0,0,10.4,75.22,12.55,108.67c0.99,15.35-2.8,148.42-2.8,148.42s5.4,2.67,46.39,7.18
			c40.99,4.52,143.42-1.64,144.06-6.47c0.65-4.84-19.83-180.29-20.74-189.37c-1.4-13.95,4.03-78.38,4.03-78.38
			c7.72,10.37,27.42,57.23,47.94,79.51c12.08,13.12,71.86,21.16,83.12,21.54c24.53,0.82,69.28,5.69,70.59,3.31
			c1.04-1.44,3.89-39.72,1.09-40.65c-2.46-0.82-85.54-5.6-106.83-16.9c-7.79-4.13-31.06-54.89-31.06-54.89
			S988.42,934.7,970.62,926.7z"/>
		<path class="st69" d="M852.25,1285.45H751.42c-20.17,0-36.51-16.34-36.51-36.51v-167.77c0-20.17,16.34-36.51,36.51-36.51h100.84
			c20.17,0,36.51,16.34,36.51,36.51v167.77C888.77,1269.11,872.42,1285.45,852.25,1285.45z"/>
		<path class="st69" d="M857.96,1341.37c-25.63,0-46.42-8.6-61.79-25.58c-34.75-38.37-28.51-105.83-28.23-108.69
			c0.53-5.31,5.27-9.19,10.58-8.66c5.31,0.53,9.2,5.26,8.68,10.57c-0.07,0.77-5.61,61.91,23.36,93.83
			c11.72,12.9,27.23,19.19,47.42,19.19c5.34,0,9.68,4.33,9.68,9.67C867.63,1337.04,863.3,1341.37,857.96,1341.37z"/>
		<path class="st73" d="M1127.35,835.82h-95.25c-1.5,0-2.72-1.22-2.72-2.72v-5.53c0-1.5,1.22-2.72,2.72-2.72h95.25
			c1.5,0,2.72,1.22,2.72,2.72v5.53C1130.07,834.6,1128.85,835.82,1127.35,835.82z"/>
		<path class="st73" d="M1127.35,859.35h-95.25c-1.5,0-2.72-1.22-2.72-2.72v-5.53c0-1.5,1.22-2.72,2.72-2.72h95.25
			c1.5,0,2.72,1.22,2.72,2.72v5.53C1130.07,858.13,1128.85,859.35,1127.35,859.35z"/>
		<path class="st73" d="M1120.94,999.43h-82.41c-5.06,0-9.15-4.1-9.15-9.15V884.51c0-5.06,4.09-9.15,9.15-9.15h82.41
			c5.05,0,9.14,4.09,9.14,9.15v105.77C1130.07,995.33,1125.98,999.43,1120.94,999.43z"/>
		<path class="st73" d="M1315.26,999.43h-150.37c-7.99,0-14.48-6.48-14.48-14.48V839.32c0-7.99,6.48-14.48,14.48-14.48h150.37
			c7.99,0,14.48,6.48,14.48,14.48v145.63C1329.73,992.95,1323.24,999.43,1315.26,999.43z"/>
		<path class="st74" d="M1477.01,985.3c-22.47,0-40.69-18.22-40.69-40.69c0-6.06,1.32-11.81,3.7-16.99
			c6.44-13.99,20.58-23.7,36.99-23.7c22.46,0,40.68,18.22,40.68,40.69c0,7.72-2.14,14.94-5.88,21.09
			C1504.68,977.44,1491.77,985.3,1477.01,985.3z"/>
		<path class="st75" d="M1435.68,981.65c-15.72,0-28.47-12.75-28.47-28.47c0-0.91,0.04-1.81,0.13-2.69
			c1.35-14.46,13.53-25.78,28.34-25.78c15.72,0,28.47,12.75,28.47,28.47c0,9.97-5.12,18.74-12.89,23.83
			C1446.8,979.94,1441.43,981.65,1435.68,981.65z"/>
		<path class="st76" d="M1477.67,946.75c0,0,2.27,18.9,3.02,44.6c0.75,25.69-19.65,25.69-19.65,25.69v94.15h-14.17
			c0,0,0.33-96.02-6.72-103.75s-7.05-44.35-7.05-44.35l4.03-2.35c0,0-6.05,43.35,21.5,49.72c27.55,6.39,17.14-61.83,17.14-61.83
			L1477.67,946.75z"/>
		<path class="st77" d="M1487.08,951.15c-23.36-4.36-38.75-14.47-47.07-23.54c6.44-13.99,20.58-23.7,36.99-23.7
			c22.46,0,40.68,18.22,40.68,40.69c0,7.72-2.14,14.94-5.88,21.09C1510.69,960.15,1504.64,954.43,1487.08,951.15z"/>
		<path class="st78" d="M1427.36,960.99c-9.44-2.72-15.84-6.46-20.03-10.5c1.35-14.46,13.53-25.78,28.34-25.78
			c15.72,0,28.47,12.75,28.47,28.47c0,9.97-5.12,18.74-12.89,23.83C1448.39,971.55,1441.85,965.16,1427.36,960.99z"/>
		<path class="st79" d="M1411.33,1067.43h95.75l-4.94,17.77h-84.9L1411.33,1067.43z"/>
		<path class="st80" d="M1423.29,1085.2h71.07l-9.86,40.19h-54.29L1423.29,1085.2z"/>
		<path class="st78" d="M1433.09,928.28l-2.46,0.76c0,0-3.87-10.5-4.12-11.93C1426.27,915.67,1433.09,928.28,1433.09,928.28z"/>
		<path class="st78" d="M1409.9,929.03l12.18,3.7c0,0-0.09,1.09-1.68,1.09C1418.79,933.82,1409.9,929.03,1409.9,929.03z"/>
		<path class="st78" d="M1414.09,954.57h3.1c0,0-0.58,4.62-3.1,7.56C1411.57,965.06,1414.09,954.57,1414.09,954.57z"/>
		<path class="st77" d="M1488.84,896.28c1.26,0.92-4.45,14.86-4.45,14.86h-2.85C1481.55,911.14,1487.58,895.35,1488.84,896.28z"/>
		<path class="st77" d="M1475.57,907.69c-0.5-3.78,2.44-10.16,2.44-10.16v9.57C1478.02,907.11,1476.07,911.48,1475.57,907.69z"/>
		<path class="st77" d="M1498.08,962.64c-1.76-1.44-1.84-14.12-1.84-14.12l2.77,1.01C1499.02,949.53,1499.84,964.09,1498.08,962.64z
			"/>
		<path class="st81" d="M1446.83,1085.2h47.52l-9.86,40.2h-15.57C1477.71,1093.05,1446.83,1085.2,1446.83,1085.2z"/>
		<path class="st82" d="M1481.98,1125.39c-3.89-1.62-10.19-20.03-13.22-29.56c-1.08-3.39-1.74-5.65-1.74-5.65h35.65
			c-3.08,22.01-10.56,35.22-10.56,35.22h-10.13V1125.39z"/>
		<path class="st83" d="M1479.13,1079.21c0-1.28-5.72-6.65-8.58-10.15c-2.87-3.5,1.1-10.14,1.1-10.14
			c12.76,5.28,10.56,20.29,10.56,20.29S1479.13,1080.49,1479.13,1079.21z"/>
		<path class="st83" d="M1486.4,1079.78h-1.54c0,0-1.1-25.91,8.36-29.43c9.46-3.53,9.46-10.57,9.46-10.57s2.87,9.69-1.76,14.75
			c-4.62,5.07-9.9,11-9.02,15.85C1492.78,1075.21,1486.4,1079.78,1486.4,1079.78z"/>
		<path class="st84" d="M1468.77,1095.83c-1.08-3.39-1.74-5.65-1.74-5.65h35.65c-3.08,22.01-10.56,35.22-10.56,35.22h-2.32
			C1490.21,1104.79,1476.65,1098.01,1468.77,1095.83z"/>
		<path class="st85" d="M1467.04,1079.21h35.91l2.05,10.97h-39.42L1467.04,1079.21z"/>
		<path class="st69" d="M930.65,808.94c0,0-10.33,30.98-86.7,44.07l-7.55-10.29c0,0,67.51-7.39,92.49-45.94L930.65,808.94z"/>
		<path class="st69" d="M795.96,871.84c-7.48,4.21-6.54,24.33-6.54,24.33h6.54h6.55C802.5,896.15,803.44,876.04,795.96,871.84z"/>
		<path class="st69" d="M797.17,814.78h-2.42v63.03h2.42V814.78z"/>
		<path class="st86" d="M771.81,818.92l104.43,38.96l94.15-84.67l-108.03-27.79L771.81,818.92z"/>
		
			<linearGradient id="SVGID_41_" gradientUnits="userSpaceOnUse" x1="1693.515" y1="213.2419" x2="1947.5551" y2="213.2419" gradientTransform="matrix(1 0 0 -1 0 1566.9639)">
			<stop  offset="0" style="stop-color:#FF9F55"/>
			<stop  offset="1" style="stop-color:#FFD255"/>
		</linearGradient>
		<path class="st87" d="M1605.56,1417.59h360.49c13.01,0,23.56-10.54,23.56-23.55v-80.63c0-13.01-10.55-23.56-23.56-23.56h-360.49
			V1417.59z"/>
		
			<linearGradient id="SVGID_42_" gradientUnits="userSpaceOnUse" x1="1574.1851" y1="1.6919" x2="1825.765" y2="1.6919" gradientTransform="matrix(1 0 0 -1 0 1566.9639)">
			<stop  offset="0" style="stop-color:#FF9F55"/>
			<stop  offset="1" style="stop-color:#FFD255"/>
		</linearGradient>
		<path class="st88" d="M1491.83,1608.98h439.31c9.36,0,16.93-7.58,16.93-16.92v-53.57c0-9.35-7.58-16.93-16.93-16.93h-439.31
			V1608.98z"/>
		<path class="st89" d="M1445.04,1531.12v68.31h-11.6v9.55h206.11c6.45,0,11.7-5.24,11.7-11.69v-64.03c0-6.46-5.25-11.7-11.7-11.7
			h-206.11v9.56H1445.04z"/>
		<path class="st90" d="M1445.04,1599.43h184.51c6.21,0,11.24-5.03,11.24-11.24v-45.82c0-6.21-5.03-11.24-11.24-11.24h-184.51
			V1599.43z"/>
		<path class="st89" d="M1544.08,1302.99v101.45h-6.28v13.15h261.2c13.45,0,24.36-10.89,24.36-24.35v-79.06
			c0-13.45-10.91-24.34-24.36-24.34h-261.2v13.14h6.28V1302.99z"/>
		<path class="st90" d="M1544.09,1404.43h241.56c13.44,0,24.35-10.89,24.35-24.35v-52.75c0-13.45-10.91-24.36-24.35-24.36h-241.56
			V1404.43z"/>
		
			<linearGradient id="SVGID_43_" gradientUnits="userSpaceOnUse" x1="2132.4551" y1="97.3819" x2="1652.605" y2="97.3819" gradientTransform="matrix(1 0 0 -1 0 1566.9639)">
			<stop  offset="0" style="stop-color:#609FF0"/>
			<stop  offset="1" style="stop-color:#5A3F9E"/>
		</linearGradient>
		<path class="st91" d="M1683.42,1521.56h353.94c16.63,0,30.1-13.48,30.1-30.1v-43.76c0-16.63-13.48-30.1-30.1-30.1h-353.94V1521.56
			L1683.42,1521.56z"/>
		<path class="st92" d="M1621.95,1428.3v82.57h-6.28v10.69h255.45c16.62,0,30.1-13.47,30.1-30.1v-43.76
			c0-16.63-13.48-30.11-30.1-30.11h-255.45v10.7L1621.95,1428.3L1621.95,1428.3z"/>
		<path class="st90" d="M1621.95,1510.86h236.63c16.62,0,30.09-13.48,30.09-30.11v-22.37c0-16.62-13.48-30.1-30.09-30.1h-236.63
			V1510.86z"/>
		<path class="st93" d="M1663.69,1457.23h101.35v-2.62h-101.35V1457.23z"/>
		<path class="st93" d="M1704.32,1465.17h108.23v-2.62h-108.23V1465.17z"/>
		<path class="st93" d="M1469.42,1551.4h101.36v-2.6h-101.36V1551.4z"/>
		<path class="st93" d="M1510.05,1559.34h108.23v-2.62h-108.23V1559.34z"/>
		<path class="st93" d="M1584.33,1566.58h44.78v-2.62h-44.78V1566.58z"/>
		<path class="st93" d="M1662.57,1374.2h108.24v-2.62h-108.24V1374.2z"/>
		<path class="st93" d="M1653.68,1381.45h44.78v-2.62h-44.78V1381.45z"/>
		
			<linearGradient id="SVGID_44_" gradientUnits="userSpaceOnUse" x1="1781.755" y1="281.3919" x2="1781.755" y2="332.9719" gradientTransform="matrix(1 0 0 -1 0 1566.9639)">
			<stop  offset="0" style="stop-color:#FF9F55"/>
			<stop  offset="1" style="stop-color:#FFD255"/>
		</linearGradient>
		<path class="st94" d="M1879.34,1289.84h-181.91c-7.33,0-13.27-5.94-13.27-13.28v-21.54c0-7.33,5.94-13.27,13.27-13.27h181.91
			V1289.84z"/>
		<path class="st44" d="M1910.58,1246.7v38.19h3.19v4.95h-131.85c-7.34,0-13.28-5.94-13.28-13.28v-21.54
			c0-7.33,5.95-13.27,13.28-13.27h131.85v4.95H1910.58z"/>
		<path class="st45" d="M1910.57,1284.89h-118.92c-7.34,0-13.28-5.94-13.28-13.27v-11.65c0-7.33,5.95-13.27,13.28-13.27h118.92
			V1284.89z"/>
		
			<linearGradient id="SVGID_45_" gradientUnits="userSpaceOnUse" x1="1779.9401" y1="397.6819" x2="1779.9401" y2="326.282" gradientTransform="matrix(1 0 0 -1 0 1566.9639)">
			<stop  offset="0" style="stop-color:#40D5E6"/>
			<stop  offset="1" style="stop-color:#5577FF"/>
		</linearGradient>
		<path class="st95" d="M1887.84,1241.75H1688.7c-9.21,0-16.67-7.47-16.67-16.68v-22.57c0-9.21,7.46-16.68,16.67-16.68h199.14
			V1241.75z"/>
		<path class="st47" d="M1923.16,1191.57v44.42h2.75v5.76h-108.31c-9.2,0-16.67-7.47-16.67-16.68v-22.57
			c0-9.21,7.47-16.68,16.67-16.68h108.31v5.76h-2.75V1191.57z"/>
		<path class="st45" d="M1923.16,1235.99h-97.17c-9.21,0-16.68-7.47-16.68-16.68v-11.06c0-9.21,7.47-16.68,16.68-16.68h97.17
			V1235.99z"/>
		
			<linearGradient id="SVGID_46_" gradientUnits="userSpaceOnUse" x1="1829.08" y1="394.2619" x2="1829.08" y2="447.6419" gradientTransform="matrix(1 0 0 -1 0 1566.9639)">
			<stop  offset="0" style="stop-color:#FF9F55"/>
			<stop  offset="1" style="stop-color:#FFD255"/>
		</linearGradient>
		<path class="st96" d="M1744.38,1185.81h151.35c9.97,0,18.06-8.08,18.06-18.05v-32.47c0-9.97-8.09-18.06-18.06-18.06h-151.35
			V1185.81z"/>
		<path class="st44" d="M1717.27,1124.3v54.45h-2.77v7.06h107.91c9.97,0,18.05-8.08,18.05-18.05v-32.47
			c0-9.97-8.08-18.06-18.05-18.06h-107.91v7.07H1717.27z"/>
		<path class="st45" d="M1717.27,1178.75h95.42c9.9,0,17.94-8.03,17.94-17.94v-18.58c0-9.9-8.04-17.93-17.94-17.93h-95.42V1178.75z"
			/>
		
			<linearGradient id="SVGID_47_" gradientUnits="userSpaceOnUse" x1="1767.975" y1="537.782" x2="1767.975" y2="477.8119" gradientTransform="matrix(1 0 0 -1 0 1566.9639)">
			<stop  offset="0" style="stop-color:#40D5E6"/>
			<stop  offset="1" style="stop-color:#5577FF"/>
		</linearGradient>
		<path class="st97" d="M1857.7,1117.22h-160.49c-10.48,0-18.97-8.49-18.97-18.97v-30.61c0-10.48,8.49-18.97,18.97-18.97h160.49
			V1117.22z"/>
		<path class="st47" d="M1886.44,1055.71v54.45h2.93v7.06H1774.9c-10.47,0-18.96-8.5-18.96-18.97v-30.62
			c0-10.48,8.5-18.97,18.96-18.97h114.47v7.06h-2.93V1055.71z"/>
		<path class="st45" d="M1886.43,1110.16h-101.64c-10.44,0-18.9-8.46-18.9-18.9v-16.66c0-10.44,8.46-18.9,18.9-18.9h101.64V1110.16z
			"/>
		
			<linearGradient id="SVGID_48_" gradientUnits="userSpaceOnUse" x1="1813.235" y1="567.3519" x2="1813.235" y2="519.382" gradientTransform="matrix(1 0 0 -1 0 1566.9639)">
			<stop  offset="0" style="stop-color:#40D5E6"/>
			<stop  offset="1" style="stop-color:#5577FF"/>
		</linearGradient>
		<path class="st98" d="M1902.96,1048.64h-167.68c-6.5,0-11.78-5.27-11.78-11.77v-28.34c0-6.5,5.27-11.78,11.78-11.78h167.68
			V1048.64z"/>
		<path class="st47" d="M1931.7,1002.08v41.21h2.94v5.35h-121.66c-6.5,0-11.78-5.27-11.78-11.78v-28.34
			c0-6.5,5.27-11.77,11.78-11.77h121.66v5.34h-2.94V1002.08z"/>
		<path class="st45" d="M1931.69,1043.3h-109.77c-6.5,0-11.78-5.28-11.78-11.78v-17.65c0-6.5,5.27-11.77,11.78-11.77h109.77V1043.3z
			"/>
	</g>
</g>
</svg>
