<svg width="48" height="48" viewBox="0 0 48 48" fill="none" xmlns="http://www.w3.org/2000/svg">
<path d="M46.5 21.75H1.5C1.30109 21.75 1.11032 21.829 0.96967 21.9697C0.829018 22.1103 0.75 22.3011 0.75 22.5V46.5C0.75 46.6989 0.829018 46.8897 0.96967 47.0303C1.11032 47.171 1.30109 47.25 1.5 47.25H46.5C46.6989 47.25 46.8897 47.171 47.0303 47.0303C47.171 46.8897 47.25 46.6989 47.25 46.5V22.5C47.25 22.3011 47.171 22.1103 47.0303 21.9697C46.8897 21.829 46.6989 21.75 46.5 21.75ZM45.75 45.75H2.25V23.25H45.75V45.75Z" fill="#5E72E4"/>
<path d="M24 38.25C23.6022 38.25 23.2206 38.092 22.9393 37.8107C22.658 37.5294 22.5 37.1478 22.5 36.75H21C21.0022 37.4134 21.2242 38.0574 21.6313 38.5812C22.0384 39.105 22.6076 39.4791 23.25 39.645V41.25H24.75V39.645C25.4486 39.4554 26.0551 39.0195 26.4576 38.4178C26.86 37.8162 27.0314 37.0893 26.9401 36.3712C26.8487 35.6531 26.5008 34.9922 25.9604 34.5105C25.4201 34.0288 24.7238 33.7587 24 33.75C23.7033 33.75 23.4133 33.662 23.1666 33.4972C22.92 33.3324 22.7277 33.0981 22.6142 32.824C22.5006 32.5499 22.4709 32.2483 22.5288 31.9574C22.5867 31.6664 22.7296 31.3991 22.9393 31.1893C23.1491 30.9796 23.4164 30.8367 23.7074 30.7788C23.9983 30.7209 24.2999 30.7506 24.574 30.8642C24.8481 30.9777 25.0824 31.17 25.2472 31.4166C25.412 31.6633 25.5 31.9533 25.5 32.25H27C26.9978 31.5866 26.7758 30.9426 26.3687 30.4188C25.9616 29.895 25.3924 29.5209 24.75 29.355V27.75H23.25V29.355C22.5514 29.5446 21.9449 29.9805 21.5424 30.5822C21.14 31.1838 20.9686 31.9107 21.0599 32.6288C21.1513 33.3469 21.4992 34.0078 22.0396 34.4895C22.5799 34.9712 23.2762 35.2413 24 35.25C24.3978 35.25 24.7794 35.408 25.0607 35.6893C25.342 35.9706 25.5 36.3522 25.5 36.75C25.5 37.1478 25.342 37.5294 25.0607 37.8107C24.7794 38.092 24.3978 38.25 24 38.25Z" fill="#5E72E4"/>
<path d="M24 44.25C25.9284 44.25 27.8134 43.6782 29.4168 42.6068C31.0202 41.5355 32.2699 40.0128 33.0078 38.2312C33.7458 36.4496 33.9389 34.4892 33.5626 32.5979C33.1864 30.7066 32.2578 28.9693 30.8943 27.6057C29.5307 26.2422 27.7934 25.3136 25.9021 24.9373C24.0108 24.5611 22.0504 24.7542 20.2688 25.4922C18.4873 26.2301 16.9645 27.4798 15.8932 29.0832C14.8218 30.6866 14.25 32.5716 14.25 34.5C14.25 37.0859 15.2772 39.5658 17.1057 41.3943C18.9342 43.2228 21.4141 44.25 24 44.25ZM24 26.25C25.6317 26.25 27.2267 26.7339 28.5834 27.6404C29.9401 28.5469 30.9976 29.8354 31.622 31.3429C32.2464 32.8504 32.4098 34.5092 32.0915 36.1095C31.7731 37.7099 30.9874 39.1799 29.8336 40.3336C28.6798 41.4874 27.2098 42.2732 25.6095 42.5915C24.0091 42.9098 22.3503 42.7464 20.8429 42.122C19.3354 41.4976 18.0469 40.4402 17.1404 39.0835C16.2339 37.7268 15.75 36.1317 15.75 34.5C15.75 32.312 16.6192 30.2136 18.1664 28.6664C19.7135 27.1192 21.812 26.25 24 26.25Z" fill="#5E72E4"/>
<path d="M36 34.5001H37.5V40.5001C37.5 40.699 37.579 40.8897 37.7196 41.0304C37.8603 41.171 38.051 41.2501 38.25 41.2501H41.25C41.4489 41.2501 41.6396 41.171 41.7803 41.0304C41.9209 40.8897 42 40.699 42 40.5001V34.5001H43.5C43.6374 34.4994 43.772 34.4611 43.8891 34.3891C44.0061 34.3172 44.1012 34.2145 44.1639 34.0922C44.2266 33.9699 44.2545 33.8328 44.2445 33.6957C44.2346 33.5587 44.1872 33.427 44.1075 33.3151L40.3575 28.0651C40.2879 27.969 40.1966 27.8908 40.091 27.8369C39.9854 27.783 39.8685 27.7549 39.75 27.7549C39.6314 27.7549 39.5145 27.783 39.4089 27.8369C39.3033 27.8908 39.212 27.969 39.1425 28.0651L35.3925 33.3151C35.3128 33.427 35.2653 33.5587 35.2554 33.6957C35.2454 33.8328 35.2733 33.9699 35.336 34.0922C35.3987 34.2145 35.4938 34.3172 35.6109 34.3891C35.728 34.4611 35.8625 34.4994 36 34.5001ZM39.75 29.7901L42.045 33.0001H41.25C41.051 33.0001 40.8603 33.0791 40.7196 33.2197C40.579 33.3604 40.5 33.5511 40.5 33.7501V39.7501H39V33.7501C39 33.5511 38.9209 33.3604 38.7803 33.2197C38.6396 33.0791 38.4489 33.0001 38.25 33.0001H37.455L39.75 29.7901Z" fill="#5E72E4"/>
<path d="M7.64246 40.935C7.712 41.031 7.80331 41.1092 7.90891 41.1631C8.01451 41.2171 8.13139 41.2452 8.24996 41.2452C8.36853 41.2452 8.48541 41.2171 8.59102 41.1631C8.69662 41.1092 8.78793 41.031 8.85746 40.935L12.6075 35.685C12.6872 35.5731 12.7346 35.4414 12.7445 35.3043C12.7545 35.1673 12.7266 35.0301 12.6639 34.9078C12.6012 34.7856 12.5061 34.6829 12.3891 34.6109C12.272 34.539 12.1374 34.5006 12 34.5H10.5V28.5C10.5 28.3011 10.4209 28.1103 10.2803 27.9697C10.1396 27.829 9.94888 27.75 9.74996 27.75H6.74996C6.55105 27.75 6.36028 27.829 6.21963 27.9697C6.07898 28.1103 5.99996 28.3011 5.99996 28.5V34.5H4.49996C4.36255 34.5006 4.22795 34.539 4.11087 34.6109C3.99378 34.6829 3.8987 34.7856 3.83601 34.9078C3.77332 35.0301 3.74543 35.1673 3.75539 35.3043C3.76534 35.4414 3.81276 35.5731 3.89246 35.685L7.64246 40.935ZM6.74996 36C6.94887 36 7.13964 35.921 7.28029 35.7803C7.42094 35.6397 7.49996 35.4489 7.49996 35.25V29.25H8.99996V35.25C8.99996 35.4489 9.07898 35.6397 9.21963 35.7803C9.36029 35.921 9.55105 36 9.74996 36H10.545L8.24996 39.21L5.95496 36H6.74996Z" fill="#5E72E4"/>
<path d="M13.5 20.25H16.5C16.6989 20.25 16.8897 20.171 17.0303 20.0303C17.171 19.8897 17.25 19.6989 17.25 19.5V13.5C17.25 13.3011 17.171 13.1103 17.0303 12.9697C16.8897 12.829 16.6989 12.75 16.5 12.75H13.5C13.3011 12.75 13.1103 12.829 12.9697 12.9697C12.829 13.1103 12.75 13.3011 12.75 13.5V19.5C12.75 19.6989 12.829 19.8897 12.9697 20.0303C13.1103 20.171 13.3011 20.25 13.5 20.25ZM14.25 14.25H15.75V18.75H14.25V14.25Z" fill="#5E72E4"/>
<path d="M19.5 11.25C19.3011 11.25 19.1103 11.329 18.9697 11.4697C18.829 11.6103 18.75 11.8011 18.75 12V19.5C18.75 19.6989 18.829 19.8897 18.9697 20.0303C19.1103 20.171 19.3011 20.25 19.5 20.25H22.5C22.6989 20.25 22.8897 20.171 23.0303 20.0303C23.171 19.8897 23.25 19.6989 23.25 19.5V12C23.25 11.8011 23.171 11.6103 23.0303 11.4697C22.8897 11.329 22.6989 11.25 22.5 11.25H19.5ZM21.75 18.75H20.25V12.75H21.75V18.75Z" fill="#5E72E4"/>
<path d="M25.5 9.75C25.3011 9.75 25.1103 9.82902 24.9697 9.96967C24.829 10.1103 24.75 10.3011 24.75 10.5V19.5C24.75 19.6989 24.829 19.8897 24.9697 20.0303C25.1103 20.171 25.3011 20.25 25.5 20.25H28.5C28.6989 20.25 28.8897 20.171 29.0303 20.0303C29.171 19.8897 29.25 19.6989 29.25 19.5V10.5C29.25 10.3011 29.171 10.1103 29.0303 9.96967C28.8897 9.82902 28.6989 9.75 28.5 9.75H25.5ZM27.75 18.75H26.25V11.25H27.75V18.75Z" fill="#5E72E4"/>
<path d="M31.5 8.25C31.3011 8.25 31.1103 8.32902 30.9697 8.46967C30.829 8.61032 30.75 8.80109 30.75 9V19.5C30.75 19.6989 30.829 19.8897 30.9697 20.0303C31.1103 20.171 31.3011 20.25 31.5 20.25H34.5C34.6989 20.25 34.8897 20.171 35.0303 20.0303C35.171 19.8897 35.25 19.6989 35.25 19.5V9C35.25 8.80109 35.171 8.61032 35.0303 8.46967C34.8897 8.32902 34.6989 8.25 34.5 8.25H31.5ZM33.75 18.75H32.25V9.75H33.75V18.75Z" fill="#5E72E4"/>
<path d="M19.7775 7.5H28.5C28.5987 7.50057 28.6965 7.48165 28.7879 7.44433C28.8793 7.40701 28.9624 7.35201 29.0324 7.2825L33 3.3075V4.5H34.5V1.5C34.5 1.30109 34.4209 1.11032 34.2803 0.96967C34.1396 0.829018 33.9489 0.75 33.75 0.75H30.75V2.25H31.9425L28.1925 6H19.5C19.3212 5.99999 19.1483 6.06382 19.0125 6.18L13.7625 10.68L14.7375 11.82L19.7775 7.5Z" fill="#5E72E4"/>
</svg>
