<svg width="3001" height="1909" viewBox="0 0 3001 1909" fill="none" xmlns="http://www.w3.org/2000/svg">
<g clip-path="url(#clip0)">
<path d="M1889.45 1425.73L1921.56 1431.01C1924.12 1431.42 1926.38 1432.51 1928.16 1433.99C1930.04 1435.56 1931.38 1437.61 1931.95 1439.84C1932.14 1440.52 1932.25 1441.22 1932.26 1441.93C1932.29 1442.57 1932.25 1443.22 1932.15 1443.87L1858.28 1891.6C1857.32 1897.37 1851.31 1901.27 1844.76 1900.49C1844.55 1900.46 1844.33 1900.44 1844.12 1900.39L1812.01 1895.11C1811.8 1895.07 1811.59 1895.05 1811.37 1895C1804.91 1893.64 1800.46 1888.03 1801.42 1882.25L1875.3 1434.52C1875.41 1433.87 1875.57 1433.24 1875.81 1432.65C1876.06 1431.99 1876.38 1431.35 1876.77 1430.77C1878.03 1428.84 1879.95 1427.34 1882.24 1426.45C1884.41 1425.6 1886.9 1425.31 1889.45 1425.73Z" fill="#FFB93E"/>
<path d="M1897.66 1652.9L1858.08 1892.77C1857.23 1897.92 1851.3 1901.3 1844.74 1900.49C1844.53 1900.46 1844.31 1900.44 1844.1 1900.39L1812 1895.11C1811.79 1895.07 1811.58 1895.05 1811.36 1895C1804.88 1893.67 1800.37 1888.57 1801.21 1883.42L1835.93 1673.01C1853.23 1672.41 1877.69 1668.38 1897.66 1652.9Z" fill="#FFA412"/>
<path d="M1868.17 1478.26L1867.33 1483.34L1924.17 1492.74L1925.01 1487.65L1868.17 1478.26Z" fill="#FFA412"/>
<path d="M1865.3 1495.4L1864.46 1500.48L1921.31 1509.85L1922.15 1504.77L1865.3 1495.4Z" fill="#FFA412"/>
<path d="M1861.86 1516.21L1861.02 1521.29L1917.87 1530.68L1918.71 1525.59L1861.86 1516.21Z" fill="#FFA412"/>
<path d="M1856.69 1547.63L1855.85 1552.72L1912.7 1562.1L1913.54 1557.01L1856.69 1547.63Z" fill="#FFA412"/>
<path d="M1851.12 1581.05L1850.28 1586.14L1907.13 1595.52L1907.97 1590.43L1851.12 1581.05Z" fill="#FFA412"/>
<path d="M1842.63 1632.5L1841.79 1637.59L1898.64 1646.95L1899.48 1641.87L1842.63 1632.5Z" fill="#FFA412"/>
<path d="M1834.75 1680.67L1833.91 1685.75L1890.76 1695.15L1891.6 1690.06L1834.75 1680.67Z" fill="#FFA412"/>
<path d="M1827.7 1723.4L1826.86 1728.49L1883.71 1737.87L1884.55 1732.78L1827.7 1723.4Z" fill="#FFA412"/>
<path d="M1870.81 1461.75L1869.97 1466.83L1926.82 1476.2L1927.66 1471.12L1870.81 1461.75Z" fill="#FFA412"/>
<path d="M1872.6 1450.81L1871.76 1455.9L1928.61 1465.28L1929.45 1460.19L1872.6 1450.81Z" fill="#FFA412"/>
<path d="M1874.31 1440.45L1873.48 1445.54L1930.33 1454.91L1931.17 1449.82L1874.31 1440.45Z" fill="#FFA412"/>
<path d="M1874.77 1437.7L1931.62 1447.05L1932.15 1443.87C1932.26 1443.22 1932.29 1442.57 1932.26 1441.93L1875.8 1432.65C1875.56 1433.24 1875.39 1433.87 1875.28 1434.52L1874.77 1437.7Z" fill="#FFA412"/>
<path d="M1876.77 1430.77L1931.96 1439.84C1931.39 1437.62 1930.04 1435.58 1928.16 1433.99L1882.23 1426.44C1879.96 1427.34 1878.03 1428.85 1876.77 1430.77Z" fill="#FFA412"/>
<path d="M1947.71 1425.73L1979.82 1431.01C1982.38 1431.42 1984.64 1432.51 1986.42 1433.99C1988.29 1435.56 1989.64 1437.61 1990.21 1439.84C1990.39 1440.52 1990.49 1441.22 1990.52 1441.93C1990.54 1442.57 1990.5 1443.22 1990.41 1443.87L1916.53 1891.6C1915.57 1897.37 1909.57 1901.27 1903.01 1900.49C1902.81 1900.46 1902.58 1900.44 1902.38 1900.39L1870.27 1895.11C1870.06 1895.07 1869.85 1895.05 1869.63 1895C1863.17 1893.64 1858.72 1888.03 1859.68 1882.25L1933.55 1434.52C1933.66 1433.87 1933.83 1433.24 1934.07 1432.65C1934.32 1431.99 1934.64 1431.35 1935.03 1430.77C1936.29 1428.84 1938.21 1427.34 1940.5 1426.45C1942.67 1425.6 1945.15 1425.31 1947.71 1425.73Z" fill="#FFB93E"/>
<path d="M1955.92 1652.9L1916.34 1892.77C1915.49 1897.92 1909.56 1901.3 1903 1900.49C1902.79 1900.46 1902.57 1900.44 1902.36 1900.39L1870.25 1895.11C1870.04 1895.07 1869.84 1895.05 1869.61 1895C1863.14 1893.67 1858.62 1888.57 1859.47 1883.42L1894.19 1673.01C1911.49 1672.41 1935.93 1668.38 1955.92 1652.9Z" fill="#FFA412"/>
<path d="M1926.42 1478.25L1925.58 1483.34L1982.43 1492.73L1983.27 1487.65L1926.42 1478.25Z" fill="#FFA412"/>
<path d="M1923.6 1495.46L1922.76 1500.54L1979.61 1509.91L1980.45 1504.82L1923.6 1495.46Z" fill="#FFA412"/>
<path d="M1920.1 1516.2L1919.26 1521.29L1976.1 1530.67L1976.94 1525.59L1920.1 1516.2Z" fill="#FFA412"/>
<path d="M1914.89 1547.57L1914.05 1552.66L1970.9 1562.04L1971.74 1556.95L1914.89 1547.57Z" fill="#FFA412"/>
<path d="M1909.37 1581.06L1908.53 1586.14L1965.38 1595.52L1966.22 1590.44L1909.37 1581.06Z" fill="#FFA412"/>
<path d="M1900.88 1632.67L1900.04 1637.76L1956.88 1647.14L1957.72 1642.06L1900.88 1632.67Z" fill="#FFA412"/>
<path d="M1892.96 1680.43L1892.12 1685.51L1948.97 1694.89L1949.81 1689.81L1892.96 1680.43Z" fill="#FFA412"/>
<path d="M1885.9 1723.36L1885.06 1728.44L1941.91 1737.82L1942.75 1732.74L1885.9 1723.36Z" fill="#FFA412"/>
<path d="M1929.06 1461.93L1928.22 1467.02L1985.07 1476.4L1985.91 1471.32L1929.06 1461.93Z" fill="#FFA412"/>
<path d="M1930.93 1451L1930.09 1456.08L1986.94 1465.45L1987.78 1460.37L1930.93 1451Z" fill="#FFA412"/>
<path d="M1932.56 1440.46L1931.72 1445.55L1988.58 1454.92L1989.41 1449.83L1932.56 1440.46Z" fill="#FFA412"/>
<path d="M1933.02 1437.7L1989.88 1447.05L1990.4 1443.87C1990.52 1443.22 1990.54 1442.57 1990.52 1441.93L1934.05 1432.65C1933.82 1433.24 1933.65 1433.87 1933.54 1434.52L1933.02 1437.7Z" fill="#FFA412"/>
<path d="M1935.02 1430.77L1990.21 1439.84C1989.64 1437.62 1988.29 1435.58 1986.42 1433.99L1940.49 1426.44C1938.21 1427.34 1936.29 1428.85 1935.02 1430.77Z" fill="#FFA412"/>
<path d="M1734.68 1855.56L1734.62 1888.1C1734.62 1890.7 1733.93 1893.1 1732.73 1895.1C1731.48 1897.2 1729.67 1898.85 1727.58 1899.78C1726.94 1900.07 1726.26 1900.28 1725.56 1900.42C1724.94 1900.55 1724.28 1900.62 1723.63 1900.62L1269.85 1899.53C1264 1899.52 1259.19 1894.21 1258.9 1887.61C1258.9 1887.39 1258.88 1887.18 1258.88 1886.97L1258.94 1854.43C1258.94 1854.22 1258.94 1854 1258.95 1853.79C1259.26 1847.19 1264.09 1841.91 1269.94 1841.93L1723.73 1843.01C1724.38 1843.01 1725.03 1843.08 1725.66 1843.22C1726.35 1843.36 1727.02 1843.58 1727.67 1843.87C1729.77 1844.8 1731.58 1846.47 1732.81 1848.58C1733.99 1850.56 1734.69 1852.97 1734.68 1855.56Z" fill="#FFB93E"/>
<path d="M1511.76 1900.12L1268.65 1899.53C1263.43 1899.52 1259.13 1894.21 1258.88 1887.61C1258.88 1887.39 1258.87 1887.18 1258.87 1886.97L1258.93 1854.43C1258.93 1854.23 1258.93 1854 1258.94 1853.79C1259.22 1847.2 1263.52 1841.92 1268.75 1841.93L1482 1842.43C1485.39 1859.39 1493.29 1882.87 1511.76 1900.12Z" fill="#FFA412"/>
<path d="M1674.35 1842.87L1674.22 1900.49L1679.37 1900.5L1679.51 1842.88L1674.35 1842.87Z" fill="#FFA412"/>
<path d="M1656.89 1842.84L1656.76 1900.45L1661.91 1900.47L1662.05 1842.85L1656.89 1842.84Z" fill="#FFA412"/>
<path d="M1635.96 1842.79L1635.81 1900.4L1640.96 1900.42L1641.12 1842.8L1635.96 1842.79Z" fill="#FFA412"/>
<path d="M1603.87 1842.71L1603.73 1900.32L1608.89 1900.34L1609.02 1842.72L1603.87 1842.71Z" fill="#FFA412"/>
<path d="M1569.93 1842.63L1569.8 1900.25L1574.95 1900.26L1575.09 1842.65L1569.93 1842.63Z" fill="#FFA412"/>
<path d="M1517.91 1842.51L1517.77 1900.13L1522.93 1900.14L1523.07 1842.52L1517.91 1842.51Z" fill="#FFA412"/>
<path d="M1469.21 1842.4L1469.07 1900.01L1474.23 1900.03L1474.36 1842.41L1469.21 1842.4Z" fill="#FFA412"/>
<path d="M1425.71 1842.29L1425.56 1899.9L1430.72 1899.92L1430.87 1842.3L1425.71 1842.29Z" fill="#FFA412"/>
<path d="M1690.97 1842.91L1690.84 1900.53L1695.99 1900.54L1696.13 1842.93L1690.97 1842.91Z" fill="#FFA412"/>
<path d="M1701.94 1842.94L1701.82 1900.56L1706.98 1900.57L1707.1 1842.95L1701.94 1842.94Z" fill="#FFA412"/>
<path d="M1712.54 1842.97L1712.41 1900.58L1717.56 1900.6L1717.7 1842.98L1712.54 1842.97Z" fill="#FFA412"/>
<path d="M1720.5 1842.98L1720.39 1900.6L1723.62 1900.61C1724.28 1900.61 1724.92 1900.55 1725.55 1900.42L1725.66 1843.21C1725.03 1843.07 1724.38 1843 1723.73 1843L1720.5 1842.98Z" fill="#FFA412"/>
<path d="M1727.67 1843.85L1727.58 1899.78C1729.69 1898.85 1731.48 1897.21 1732.73 1895.1L1732.82 1848.56C1731.56 1846.44 1729.77 1844.78 1727.67 1843.85Z" fill="#FFA412"/>
<path d="M1686.27 1797.83L1686.22 1830.37C1686.22 1832.97 1685.52 1835.37 1684.33 1837.37C1683.08 1839.47 1681.27 1841.13 1679.17 1842.06C1678.53 1842.35 1677.85 1842.56 1677.16 1842.69C1676.53 1842.82 1675.88 1842.89 1675.23 1842.89L1221.44 1841.81C1215.59 1841.79 1210.78 1836.48 1210.49 1829.88C1210.49 1829.66 1210.48 1829.45 1210.48 1829.25L1210.53 1796.71C1210.53 1796.5 1210.53 1796.28 1210.55 1796.07C1210.85 1789.47 1215.69 1784.19 1221.54 1784.2L1675.32 1785.29C1675.61 1785.29 1675.91 1785.3 1676.18 1785.33C1676.31 1785.33 1676.43 1785.34 1676.56 1785.37C1676.7 1785.38 1676.84 1785.41 1676.96 1785.42C1677.06 1785.44 1677.16 1785.47 1677.25 1785.48C1677.95 1785.62 1678.62 1785.84 1679.25 1786.13C1679.35 1786.18 1679.45 1786.22 1679.55 1786.27C1679.64 1786.31 1679.74 1786.36 1679.82 1786.41C1680.01 1786.51 1680.2 1786.62 1680.38 1786.72C1680.48 1786.79 1680.59 1786.86 1680.7 1786.93C1680.8 1786.98 1680.88 1787.04 1680.98 1787.12C1681.16 1787.23 1681.32 1787.36 1681.49 1787.49C1681.69 1787.65 1681.87 1787.81 1682.06 1787.98C1682.2 1788.11 1682.35 1788.25 1682.49 1788.38C1682.49 1788.38 1682.51 1788.4 1682.52 1788.41C1682.62 1788.51 1682.7 1788.61 1682.8 1788.7C1683.08 1789 1683.34 1789.32 1683.59 1789.63C1683.67 1789.73 1683.74 1789.83 1683.81 1789.93C1683.88 1790.02 1683.95 1790.12 1684.02 1790.23C1684.16 1790.44 1684.3 1790.65 1684.42 1790.87C1685.59 1792.83 1686.27 1795.23 1686.27 1797.83Z" fill="#FFB93E"/>
<path d="M1463.36 1842.37L1220.25 1841.79C1215.02 1841.78 1210.73 1836.47 1210.48 1829.87C1210.48 1829.65 1210.46 1829.44 1210.46 1829.23L1210.52 1796.69C1210.52 1796.48 1210.52 1796.26 1210.53 1796.05C1210.81 1789.45 1215.12 1784.17 1220.34 1784.17L1433.59 1784.69C1433.68 1785.16 1433.78 1785.63 1433.88 1786.1C1437.43 1802.94 1445.38 1825.62 1463.36 1842.37Z" fill="#FFA412"/>
<path d="M1625.94 1785.14L1625.8 1842.76L1630.96 1842.77L1631.09 1785.15L1625.94 1785.14Z" fill="#FFA412"/>
<path d="M1608.48 1785.09L1608.34 1842.71L1613.5 1842.72L1613.63 1785.1L1608.48 1785.09Z" fill="#FFA412"/>
<path d="M1587.55 1785.04L1587.42 1842.66L1592.57 1842.67L1592.71 1785.06L1587.55 1785.04Z" fill="#FFA412"/>
<path d="M1555.45 1784.97L1555.32 1842.59L1560.47 1842.6L1560.61 1784.99L1555.45 1784.97Z" fill="#FFA412"/>
<path d="M1521.51 1784.89L1521.39 1842.51L1526.54 1842.52L1526.66 1784.9L1521.51 1784.89Z" fill="#FFA412"/>
<path d="M1469.5 1784.76L1469.35 1842.38L1474.51 1842.39L1474.66 1784.77L1469.5 1784.76Z" fill="#FFA412"/>
<path d="M1420.79 1784.65L1420.66 1842.27L1425.81 1842.28L1425.95 1784.66L1420.79 1784.65Z" fill="#FFA412"/>
<path d="M1377.3 1784.56L1377.17 1842.17L1382.33 1842.19L1382.45 1784.57L1377.3 1784.56Z" fill="#FFA412"/>
<path d="M1642.56 1785.18L1642.42 1842.8L1647.58 1842.81L1647.71 1785.19L1642.56 1785.18Z" fill="#FFA412"/>
<path d="M1653.54 1785.21L1653.4 1842.83L1658.56 1842.84L1658.69 1785.22L1653.54 1785.21Z" fill="#FFA412"/>
<path d="M1664.14 1785.24L1664 1842.85L1669.16 1842.87L1669.3 1785.25L1664.14 1785.24Z" fill="#FFA412"/>
<path d="M1672.09 1785.24L1671.98 1842.86H1675.2C1675.87 1842.86 1676.51 1842.79 1677.13 1842.67L1677.24 1785.45C1676.62 1785.31 1675.96 1785.24 1675.31 1785.24H1672.09Z" fill="#FFA412"/>
<path d="M1679.26 1786.12L1679.16 1842.04C1681.27 1841.11 1683.06 1839.47 1684.31 1837.36L1684.4 1790.81C1683.16 1788.7 1681.37 1787.05 1679.26 1786.12Z" fill="#FFA412"/>
<path d="M1709.82 1741.68L1709.77 1774.22C1709.77 1776.82 1709.07 1779.23 1707.88 1781.23C1706.63 1783.32 1704.82 1784.99 1702.72 1785.91C1702.08 1786.2 1701.4 1786.41 1700.71 1786.55C1700.07 1786.67 1699.43 1786.74 1698.78 1786.74L1244.99 1785.66C1243.17 1785.66 1241.45 1785.13 1239.93 1784.23C1236.72 1782.3 1234.43 1778.6 1234.08 1774.29C1234.07 1774.11 1234.06 1773.92 1234.04 1773.74C1234.04 1773.53 1234.03 1773.31 1234.03 1773.1L1234.08 1740.56C1234.08 1740.35 1234.08 1740.13 1234.1 1739.92C1234.4 1733.32 1239.24 1728.04 1245.09 1728.05L1698.87 1729.12C1699.54 1729.12 1700.18 1729.19 1700.8 1729.33C1701.5 1729.47 1702.17 1729.69 1702.82 1729.99C1704.92 1730.92 1706.71 1732.58 1707.96 1734.7C1709.13 1736.68 1709.82 1739.09 1709.82 1741.68Z" fill="#FFB93E"/>
<path d="M1486.91 1786.23L1243.8 1785.64C1242.17 1785.64 1240.63 1785.12 1239.28 1784.21C1236.42 1782.28 1234.38 1778.6 1234.06 1774.29C1234.04 1774.11 1234.03 1773.92 1234.01 1773.74C1234.01 1773.53 1234 1773.31 1234 1773.1L1234.06 1740.56C1234.06 1740.35 1234.06 1740.13 1234.07 1739.92C1234.35 1733.32 1238.66 1728.04 1243.88 1728.05L1457.14 1728.55C1460.41 1745.06 1467.97 1767.72 1485.4 1784.82C1485.91 1785.28 1486.4 1785.76 1486.91 1786.23Z" fill="#FFA412"/>
<path d="M1720.8 1684.08L1720.74 1716.62C1720.74 1719.22 1720.05 1721.62 1718.85 1723.62C1717.6 1725.72 1715.8 1727.39 1713.7 1728.31C1713.06 1728.6 1712.38 1728.81 1711.68 1728.95C1711.04 1729.07 1710.41 1729.14 1709.75 1729.14L1255.97 1728.06C1250.12 1728.04 1245.31 1722.74 1245.02 1716.14C1245.02 1715.91 1245 1715.71 1245 1715.5L1245.06 1682.96C1245.06 1682.75 1245.06 1682.53 1245.07 1682.32C1245.35 1676.21 1249.51 1671.23 1254.76 1670.54C1255.19 1670.48 1255.62 1670.45 1256.06 1670.45L1709.85 1671.54C1710.52 1671.54 1711.16 1671.61 1711.78 1671.75C1712.48 1671.88 1713.14 1672.11 1713.8 1672.4C1715.89 1673.33 1717.7 1675 1718.94 1677.11C1720.1 1679.08 1720.8 1681.48 1720.8 1684.08Z" fill="#FFB93E"/>
<path d="M1497.89 1728.64L1254.77 1728.06C1249.55 1728.04 1245.26 1722.74 1245.01 1716.14C1245.01 1715.91 1244.99 1715.71 1244.99 1715.5L1245.05 1682.96C1245.05 1682.75 1245.05 1682.53 1245.06 1682.32C1245.31 1676.22 1249.02 1671.23 1253.72 1670.54C1254.09 1670.48 1254.48 1670.45 1254.87 1670.45L1468.13 1670.95C1468.13 1670.98 1468.14 1671.02 1468.14 1671.05C1471.53 1687.99 1479.44 1711.43 1497.89 1728.64Z" fill="#FFA412"/>
<path d="M1687.54 1626.46L1687.48 1659C1687.48 1661.6 1686.79 1664.01 1685.59 1666.01C1684.34 1668.1 1682.53 1669.76 1680.44 1670.69C1679.8 1670.98 1679.12 1671.19 1678.42 1671.33C1678.21 1671.37 1677.99 1671.41 1677.78 1671.44C1677.67 1671.45 1677.55 1671.47 1677.42 1671.48C1677.31 1671.49 1677.18 1671.51 1677.06 1671.51C1676.87 1671.52 1676.67 1671.52 1676.48 1671.52L1222.69 1670.44C1216.84 1670.42 1212.03 1665.12 1211.74 1658.52C1211.74 1658.31 1211.73 1658.09 1211.73 1657.88L1211.78 1625.34C1211.78 1625.12 1211.78 1624.91 1211.8 1624.7C1211.8 1624.52 1211.81 1624.35 1211.83 1624.17C1212.27 1618.86 1215.66 1614.49 1220.08 1613.21C1220.19 1613.17 1220.3 1613.15 1220.41 1613.11C1221.18 1612.92 1221.97 1612.82 1222.79 1612.82L1676.57 1613.9C1676.91 1613.9 1677.24 1613.93 1677.56 1613.96C1677.71 1613.99 1677.85 1614 1678 1614.02C1678.17 1614.04 1678.34 1614.08 1678.52 1614.11C1679.21 1614.25 1679.88 1614.47 1680.53 1614.77C1682.63 1615.7 1684.44 1617.36 1685.67 1619.48C1686.85 1621.48 1687.54 1623.88 1687.54 1626.46Z" fill="#FFB93E"/>
<path d="M1464.62 1671.02L1221.51 1670.44C1216.29 1670.42 1211.99 1665.12 1211.74 1658.52C1211.74 1658.31 1211.73 1658.09 1211.73 1657.88L1211.78 1625.34C1211.78 1625.12 1211.78 1624.91 1211.8 1624.7C1211.8 1624.52 1211.81 1624.35 1211.83 1624.17C1212.23 1618.74 1215.38 1614.31 1219.45 1613.13C1219.59 1613.07 1219.73 1613.04 1219.87 1613.01C1220.44 1612.89 1221.01 1612.82 1221.61 1612.82L1434.86 1613.32C1434.89 1613.46 1434.92 1613.58 1434.95 1613.72C1438.36 1630.63 1446.26 1653.82 1464.51 1670.92C1464.55 1670.97 1464.6 1670.99 1464.62 1671.02Z" fill="#FFA412"/>
<path d="M1686.69 1569.25L1686.63 1601.79C1686.63 1604.39 1685.94 1606.79 1684.74 1608.79C1683.49 1610.9 1681.69 1612.54 1679.57 1613.47C1679.07 1613.7 1678.55 1613.88 1678 1614.02H1677.99C1677.84 1614.06 1677.7 1614.08 1677.56 1614.11C1676.93 1614.24 1676.28 1614.31 1675.63 1614.31L1221.84 1613.24C1221.37 1613.24 1220.88 1613.2 1220.43 1613.13C1220.25 1613.11 1220.07 1613.07 1219.88 1613.03C1214.95 1612 1211.15 1607.17 1210.9 1601.32C1210.9 1601.09 1210.88 1600.89 1210.88 1600.68L1210.94 1568.14C1210.94 1567.92 1210.94 1567.71 1210.95 1567.5C1211.26 1560.9 1216.09 1555.62 1221.94 1555.63L1675.73 1556.72C1676.02 1556.72 1676.31 1556.73 1676.59 1556.76C1676.71 1556.77 1676.84 1556.79 1676.96 1556.8C1677.1 1556.81 1677.24 1556.84 1677.37 1556.87C1677.46 1556.88 1677.56 1556.91 1677.66 1556.93C1678.35 1557.06 1679.02 1557.29 1679.67 1557.58C1679.77 1557.62 1679.85 1557.66 1679.96 1557.72C1680.06 1557.76 1680.14 1557.8 1680.24 1557.86C1680.42 1557.95 1680.62 1558.07 1680.8 1558.16C1680.99 1558.29 1681.2 1558.41 1681.39 1558.55C1681.58 1558.68 1681.74 1558.8 1681.91 1558.93C1682.1 1559.08 1682.28 1559.25 1682.46 1559.41C1682.62 1559.54 1682.76 1559.66 1682.89 1559.82C1682.89 1559.82 1682.91 1559.83 1682.92 1559.84C1683.02 1559.93 1683.12 1560.04 1683.2 1560.14C1683.48 1560.43 1683.74 1560.75 1683.99 1561.07C1684.08 1561.16 1684.15 1561.26 1684.21 1561.36C1684.28 1561.47 1684.35 1561.55 1684.42 1561.66C1684.56 1561.87 1684.7 1562.08 1684.83 1562.3C1686.01 1564.25 1686.69 1566.67 1686.69 1569.25Z" fill="#FFB93E"/>
<path d="M1463.78 1613.81L1220.66 1613.22C1220.47 1613.22 1220.27 1613.21 1220.08 1613.19C1219.87 1613.18 1219.66 1613.15 1219.45 1613.11C1214.79 1612.36 1211.12 1607.37 1210.9 1601.29C1210.9 1601.07 1210.88 1600.86 1210.88 1600.65L1210.94 1568.11C1210.94 1567.89 1210.94 1567.68 1210.95 1567.47C1211.23 1560.87 1215.54 1555.59 1220.76 1555.59L1434 1556.09C1434.1 1556.56 1434.2 1557.04 1434.29 1557.51C1437.79 1574.21 1445.64 1596.65 1463.32 1613.38C1463.48 1613.54 1463.62 1613.67 1463.78 1613.81Z" fill="#FFA412"/>
<path d="M1710.24 1513.1L1710.18 1545.64C1710.18 1548.24 1709.49 1550.65 1708.29 1552.65C1707.04 1554.74 1705.24 1556.4 1703.14 1557.33C1702.5 1557.62 1701.82 1557.83 1701.12 1557.97C1700.5 1558.09 1699.85 1558.16 1699.19 1558.16L1245.41 1557.08C1243.59 1557.08 1241.86 1556.55 1240.35 1555.65C1237.14 1553.72 1234.86 1550.02 1234.5 1545.71C1234.49 1545.53 1234.47 1545.34 1234.46 1545.16C1234.46 1544.95 1234.45 1544.73 1234.45 1544.52L1234.5 1511.98C1234.5 1511.77 1234.51 1511.55 1234.51 1511.34C1234.82 1504.74 1239.66 1499.46 1245.5 1499.47L1699.29 1500.54C1699.96 1500.54 1700.6 1500.61 1701.22 1500.75C1701.92 1500.89 1702.58 1501.11 1703.24 1501.41C1705.33 1502.34 1707.14 1504 1708.38 1506.12C1709.54 1508.1 1710.24 1510.52 1710.24 1513.1Z" fill="#FFB93E"/>
<path d="M1487.33 1557.66L1244.21 1557.09C1242.59 1557.09 1241.06 1556.56 1239.7 1555.66C1236.84 1553.73 1234.79 1550.05 1234.47 1545.74C1234.46 1545.56 1234.45 1545.37 1234.43 1545.18C1234.43 1544.98 1234.42 1544.75 1234.42 1544.55L1234.47 1512.01C1234.47 1511.8 1234.49 1511.58 1234.49 1511.37C1234.77 1504.77 1239.09 1499.49 1244.3 1499.49L1457.55 1499.99C1460.83 1516.49 1468.39 1539.17 1485.81 1556.26C1486.33 1556.72 1486.81 1557.19 1487.33 1557.66Z" fill="#FFA412"/>
<path d="M1747.42 1455.57L1747.36 1488.11C1747.36 1490.71 1746.67 1493.11 1745.47 1495.11C1744.22 1497.21 1742.42 1498.86 1740.32 1499.79C1739.68 1500.08 1739 1500.29 1738.3 1500.43C1737.68 1500.56 1737.03 1500.63 1736.37 1500.63L1282.59 1499.54C1276.74 1499.53 1271.93 1494.22 1271.64 1487.62C1271.64 1487.41 1271.62 1487.19 1271.62 1486.98L1271.68 1454.44C1271.68 1454.24 1271.68 1454.01 1271.69 1453.8C1271.97 1447.71 1276.13 1442.72 1281.38 1442.02C1281.81 1441.97 1282.24 1441.94 1282.67 1441.94L1736.46 1443.02C1737.12 1443.02 1737.76 1443.09 1738.39 1443.23C1739.08 1443.37 1739.75 1443.59 1740.39 1443.88C1742.49 1444.82 1744.29 1446.48 1745.53 1448.59C1746.74 1450.57 1747.42 1452.98 1747.42 1455.57Z" fill="#FFB93E"/>
<path d="M1524.51 1500.13L1281.39 1499.54C1276.17 1499.53 1271.87 1494.22 1271.62 1487.62C1271.62 1487.41 1271.61 1487.19 1271.61 1486.98L1271.67 1454.44C1271.67 1454.24 1271.67 1454.01 1271.68 1453.8C1271.93 1447.71 1275.64 1442.72 1280.34 1442.02C1280.71 1441.97 1281.1 1441.94 1281.49 1441.94L1494.75 1442.44C1494.75 1442.47 1494.76 1442.5 1494.76 1442.54C1498.16 1459.49 1506.05 1482.91 1524.51 1500.13Z" fill="#FFA412"/>
<path d="M1687.95 1397.9L1687.9 1430.44C1687.9 1433.03 1687.2 1435.44 1686.01 1437.44C1684.76 1439.54 1682.95 1441.19 1680.85 1442.12C1680.21 1442.41 1679.53 1442.62 1678.84 1442.76C1678.63 1442.8 1678.41 1442.84 1678.2 1442.87C1678.03 1442.9 1677.85 1442.91 1677.68 1442.93C1677.6 1442.93 1677.52 1442.94 1677.43 1442.95C1677.25 1442.95 1677.09 1442.97 1676.91 1442.97L1223.12 1441.88C1217.27 1441.87 1212.46 1436.56 1212.17 1429.96C1212.17 1429.76 1212.16 1429.53 1212.16 1429.32L1212.21 1396.79C1212.21 1396.58 1212.23 1396.35 1212.23 1396.15C1212.53 1389.55 1217.37 1384.27 1223.22 1384.28L1677 1385.36C1677.2 1385.36 1677.39 1385.36 1677.59 1385.39C1678.05 1385.42 1678.5 1385.49 1678.93 1385.57C1679.63 1385.71 1680.3 1385.93 1680.95 1386.23C1681.28 1386.38 1681.6 1386.53 1681.89 1386.71C1682.09 1386.82 1682.28 1386.93 1682.46 1387.06C1682.48 1387.06 1682.51 1387.07 1682.52 1387.1C1682.7 1387.23 1682.89 1387.37 1683.08 1387.5C1683.12 1387.52 1683.14 1387.55 1683.17 1387.57C1683.34 1387.7 1683.51 1387.84 1683.66 1387.99C1684.05 1388.32 1684.41 1388.69 1684.76 1389.09C1684.87 1389.21 1684.96 1389.32 1685.06 1389.45C1685.08 1389.46 1685.1 1389.49 1685.12 1389.52C1685.19 1389.59 1685.24 1389.67 1685.31 1389.76C1685.33 1389.77 1685.34 1389.78 1685.35 1389.81C1685.46 1389.95 1685.58 1390.1 1685.67 1390.27C1685.83 1390.49 1685.97 1390.71 1686.1 1390.95C1687.27 1392.9 1687.95 1395.31 1687.95 1397.9Z" fill="#FFB93E"/>
<path d="M1465.04 1442.46L1221.93 1441.87C1216.7 1441.86 1212.41 1436.55 1212.16 1429.95C1212.16 1429.74 1212.15 1429.52 1212.15 1429.31L1212.2 1396.77C1212.2 1396.56 1212.22 1396.34 1212.22 1396.13C1212.49 1389.53 1216.81 1384.25 1222.02 1384.25L1435.28 1384.77C1435.36 1385.2 1435.46 1385.64 1435.56 1386.1C1439.06 1402.93 1446.99 1425.59 1464.93 1442.37C1464.97 1442.39 1465.01 1442.43 1465.04 1442.46Z" fill="#FFA412"/>
<path d="M1721.41 1341.68L1721.35 1374.22C1721.35 1376.82 1720.66 1379.22 1719.46 1381.22C1718.21 1383.32 1716.41 1384.97 1714.31 1385.91C1713.67 1386.2 1712.99 1386.41 1712.29 1386.54C1711.66 1386.67 1711.02 1386.74 1710.36 1386.74L1256.58 1385.66C1254.81 1385.66 1253.15 1385.17 1251.67 1384.31C1248.37 1382.4 1246 1378.64 1245.66 1374.23C1245.64 1374.07 1245.63 1373.9 1245.63 1373.72C1245.63 1373.51 1245.62 1373.29 1245.62 1373.08L1245.67 1340.54C1245.67 1340.32 1245.67 1340.11 1245.69 1339.9C1245.96 1333.79 1250.12 1328.82 1255.37 1328.12C1255.8 1328.07 1256.23 1328.04 1256.68 1328.04L1710.46 1329.12C1711.13 1329.12 1711.77 1329.19 1712.39 1329.33C1713.09 1329.47 1713.75 1329.69 1714.41 1329.98C1716.5 1330.91 1718.3 1332.58 1719.55 1334.69C1720.73 1336.68 1721.42 1339.1 1721.41 1341.68Z" fill="#FFB93E"/>
<path d="M1498.5 1386.24L1255.38 1385.66C1253.81 1385.66 1252.33 1385.17 1251.01 1384.31C1248.06 1382.41 1245.95 1378.64 1245.64 1374.25C1245.63 1374.08 1245.62 1373.92 1245.62 1373.74C1245.62 1373.53 1245.6 1373.3 1245.6 1373.1L1245.66 1340.56C1245.66 1340.33 1245.66 1340.13 1245.67 1339.92C1245.92 1333.82 1249.63 1328.83 1254.33 1328.14C1254.7 1328.08 1255.09 1328.05 1255.48 1328.05L1468.74 1328.55C1468.74 1328.58 1468.75 1328.62 1468.75 1328.65C1472.04 1345.18 1479.63 1367.84 1497.09 1384.92C1497.57 1385.36 1498.02 1385.8 1498.5 1386.24Z" fill="#FFA412"/>
<path d="M1688.16 1284.08L1688.1 1316.62C1688.1 1319.22 1687.41 1321.62 1686.22 1323.62C1684.97 1325.73 1683.16 1327.37 1681.06 1328.3C1680.42 1328.59 1679.74 1328.8 1679.05 1328.94C1678.84 1328.98 1678.62 1329.03 1678.41 1329.05C1678.3 1329.07 1678.17 1329.08 1678.05 1329.09C1677.93 1329.11 1677.81 1329.11 1677.68 1329.12C1677.49 1329.14 1677.3 1329.14 1677.1 1329.14L1223.32 1328.05C1217.47 1328.04 1212.66 1322.73 1212.37 1316.13C1212.37 1315.91 1212.35 1315.7 1212.35 1315.49L1212.41 1282.95C1212.41 1282.75 1212.41 1282.52 1212.42 1282.31C1212.73 1275.72 1217.56 1270.44 1223.41 1270.45L1677.2 1271.53C1677.87 1271.53 1678.5 1271.6 1679.13 1271.74C1679.82 1271.88 1680.49 1272.1 1681.14 1272.39C1683.24 1273.33 1685.05 1274.99 1686.28 1277.1C1687.48 1279.08 1688.16 1281.48 1688.16 1284.08Z" fill="#FFB93E"/>
<path d="M1465.25 1328.62L1222.14 1328.05C1216.91 1328.04 1212.62 1322.73 1212.37 1316.13C1212.37 1315.91 1212.35 1315.7 1212.35 1315.49L1212.41 1282.95C1212.41 1282.75 1212.41 1282.52 1212.42 1282.31C1212.7 1275.72 1217.01 1270.44 1222.23 1270.45L1435.49 1270.95C1438.85 1287.9 1446.73 1311.31 1465.14 1328.55C1465.18 1328.57 1465.22 1328.59 1465.25 1328.62Z" fill="#FFA412"/>
<path d="M1649.48 1728.99L1649.35 1786.61L1654.5 1786.62L1654.64 1729.01L1649.48 1728.99Z" fill="#FFA412"/>
<path d="M1632.02 1728.95L1631.9 1786.56L1637.05 1786.58L1637.17 1728.96L1632.02 1728.95Z" fill="#FFA412"/>
<path d="M1611.09 1728.9L1610.97 1786.52L1616.12 1786.53L1616.25 1728.91L1611.09 1728.9Z" fill="#FFA412"/>
<path d="M1579 1728.83L1578.87 1786.45L1584.02 1786.46L1584.16 1728.84L1579 1728.83Z" fill="#FFA412"/>
<path d="M1545.07 1728.74L1544.93 1786.36L1550.08 1786.37L1550.22 1728.75L1545.07 1728.74Z" fill="#FFA412"/>
<path d="M1493.04 1728.61L1492.91 1786.23L1498.06 1786.24L1498.2 1728.63L1493.04 1728.61Z" fill="#FFA412"/>
<path d="M1444.33 1728.5L1444.21 1786.12L1449.36 1786.13L1449.49 1728.52L1444.33 1728.5Z" fill="#FFA412"/>
<path d="M1400.85 1728.41L1400.72 1786.03L1405.87 1786.04L1406.01 1728.42L1400.85 1728.41Z" fill="#FFA412"/>
<path d="M1666.11 1729.03L1665.97 1786.65L1671.12 1786.66L1671.26 1729.05L1666.11 1729.03Z" fill="#FFA412"/>
<path d="M1677.08 1729.07L1676.95 1786.68L1682.11 1786.69L1682.23 1729.08L1677.08 1729.07Z" fill="#FFA412"/>
<path d="M1687.69 1729.09L1687.55 1786.7L1692.71 1786.72L1692.84 1729.1L1687.69 1729.09Z" fill="#FFA412"/>
<path d="M1695.64 1729.1L1695.54 1786.71L1698.76 1786.73C1699.43 1786.73 1700.07 1786.66 1700.69 1786.53L1700.8 1729.32C1700.18 1729.18 1699.53 1729.11 1698.87 1729.11L1695.64 1729.1Z" fill="#FFA412"/>
<path d="M1702.8 1729.96L1702.71 1785.89C1704.82 1784.96 1706.61 1783.32 1707.86 1781.21L1707.95 1734.67C1706.7 1732.56 1704.9 1730.9 1702.8 1729.96Z" fill="#FFA412"/>
<path d="M1504.03 1671.03L1503.89 1728.65L1509.04 1728.66L1509.18 1671.04L1504.03 1671.03Z" fill="#FFA412"/>
<path d="M1455.31 1670.9L1455.17 1728.52L1460.33 1728.53L1460.46 1670.92L1455.31 1670.9Z" fill="#FFA412"/>
<path d="M1411.82 1670.81L1411.68 1728.43L1416.84 1728.44L1416.98 1670.82L1411.82 1670.81Z" fill="#FFA412"/>
<path d="M1682.1 1729.07L1682.21 1671.45L1677.68 1671.44C1677.92 1671.41 1678.17 1671.38 1678.41 1671.33L1678.52 1614.11C1678.2 1614.04 1677.88 1614 1677.56 1613.96L1677.66 1558.12H1679.67L1679.57 1613.47C1681.69 1612.54 1683.48 1610.9 1684.73 1608.79L1684.81 1562.25C1683.78 1560.51 1682.37 1559.09 1680.73 1558.12H1682.53L1682.64 1500.5L1677.49 1500.49L1677.39 1556.84C1676.85 1556.74 1676.31 1556.69 1675.74 1556.69L1672.52 1556.67L1672.41 1614.29H1673.36L1673.25 1671.51L1676.48 1671.52C1676.67 1671.52 1676.87 1671.51 1677.06 1671.49L1676.95 1729.05L1682.1 1729.07Z" fill="#FFA412"/>
<path d="M1688.05 1671.46L1687.92 1729.08L1693.07 1729.09L1693.21 1671.47L1688.05 1671.46Z" fill="#FFA412"/>
<path d="M1698.67 1671.49L1698.51 1729.1L1703.67 1729.12L1703.82 1671.5L1698.67 1671.49Z" fill="#FFA412"/>
<path d="M1706.61 1671.51L1706.5 1729.13L1709.72 1729.14C1710.39 1729.14 1711.03 1729.07 1711.66 1728.94L1711.75 1671.73C1711.13 1671.59 1710.47 1671.52 1709.82 1671.52L1706.61 1671.51Z" fill="#FFA412"/>
<path d="M1713.78 1672.37L1713.68 1728.3C1715.8 1727.37 1717.59 1725.73 1718.84 1723.62L1718.92 1677.08C1717.67 1674.97 1715.88 1673.3 1713.78 1672.37Z" fill="#FFA412"/>
<path d="M1632.24 1671.42L1632.34 1613.79H1631.39L1631.49 1556.58H1626.33L1626.22 1614.19H1627.18L1627.08 1671.31L1622.04 1671.3L1621.94 1728.93L1627.1 1728.94L1627.21 1671.41L1632.24 1671.42Z" fill="#FFA412"/>
<path d="M1593.95 1613.71H1592.99L1593.1 1556.49L1587.95 1556.48L1587.83 1614.1H1588.79L1588.68 1671.31H1589.96L1589.85 1728.85L1595.02 1728.86L1595.11 1671.24H1593.85L1593.95 1613.71Z" fill="#FFA412"/>
<path d="M1680.52 1614.75L1680.42 1670.69C1682.53 1669.76 1684.33 1668.1 1685.58 1666.01L1685.66 1619.46C1684.42 1617.35 1682.63 1615.7 1680.52 1614.75Z" fill="#FFA412"/>
<path d="M1561 1556.41H1555.85L1555.74 1614.03H1556.7L1556.6 1671.15H1556.02L1555.92 1728.76L1561.07 1728.78L1561.19 1671.24L1561.76 1671.26L1561.85 1613.63H1560.91L1561 1556.41Z" fill="#FFA412"/>
<path d="M1527.08 1556.34L1521.92 1556.33L1521.81 1613.95H1522.77L1522.66 1671.16L1527.81 1671.17L1527.92 1613.54H1526.96L1527.08 1556.34Z" fill="#FFA412"/>
<path d="M1475.06 1556.22L1469.89 1556.2L1469.79 1613.82H1470.74L1470.64 1671.03L1475.79 1671.05L1475.9 1613.43L1474.95 1613.42L1475.06 1556.22Z" fill="#FFA412"/>
<path d="M1426.35 1556.09L1421.19 1556.08L1421.08 1613.71H1422.04L1421.93 1670.92L1427.1 1670.94L1427.19 1613.31H1426.23L1426.35 1556.09Z" fill="#FFA412"/>
<path d="M1382.86 1555.99L1377.69 1555.98L1377.59 1613.6L1378.54 1613.61L1378.44 1670.81L1383.59 1670.83L1383.71 1613.21H1382.75L1382.86 1555.99Z" fill="#FFA412"/>
<path d="M1648.1 1556.62L1642.95 1556.61L1642.85 1614.24H1643.8L1643.7 1671.35H1642.98L1642.88 1728.97L1648.03 1728.99L1648.13 1671.45H1648.85L1648.95 1613.83H1648.01L1648.1 1556.62Z" fill="#FFA412"/>
<path d="M1659.08 1556.65L1654.94 1556.63L1655.04 1500.43H1649.88L1649.77 1558.05L1653.93 1558.06L1653.83 1614.27H1654.77L1654.68 1671.47L1659.83 1671.48L1659.94 1613.86H1658.98L1659.08 1556.65Z" fill="#FFA412"/>
<path d="M1632.44 1500.38L1632.31 1558L1637.46 1558.01L1637.6 1500.39L1632.44 1500.38Z" fill="#FFA412"/>
<path d="M1611.38 1556.54H1608.87L1608.77 1614.15H1609.73L1609.62 1671.37L1614.77 1671.38L1614.89 1613.75H1613.93L1614.02 1557.97H1616.54L1616.65 1500.35L1611.5 1500.33L1611.38 1556.54Z" fill="#FFA412"/>
<path d="M1579.43 1500.26L1579.28 1557.88L1584.43 1557.89L1584.58 1500.27L1579.43 1500.26Z" fill="#FFA412"/>
<path d="M1545.48 1500.17L1545.35 1557.79L1550.5 1557.8L1550.64 1500.19L1545.48 1500.17Z" fill="#FFA412"/>
<path d="M1493.46 1500.06L1493.32 1557.68L1498.48 1557.69L1498.61 1500.07L1493.46 1500.06Z" fill="#FFA412"/>
<path d="M1444.75 1499.94L1444.63 1557.56L1449.78 1557.57L1449.9 1499.95L1444.75 1499.94Z" fill="#FFA412"/>
<path d="M1401.27 1499.84L1401.13 1557.46L1406.29 1557.47L1406.42 1499.85L1401.27 1499.84Z" fill="#FFA412"/>
<path d="M1666.4 1556.66H1664.53L1664.43 1614.28L1665.37 1614.29L1665.28 1671.41L1660.44 1671.4L1660.33 1729.01L1665.49 1729.03L1665.6 1671.49L1670.43 1671.51L1670.54 1613.89H1669.58L1669.68 1558.09L1671.56 1558.11L1671.66 1500.47L1666.5 1500.46L1666.4 1556.66Z" fill="#FFA412"/>
<path d="M1688.1 1500.52L1687.97 1558.14L1693.12 1558.15L1693.26 1500.53L1688.1 1500.52Z" fill="#FFA412"/>
<path d="M1701.11 1557.97L1701.22 1500.75C1700.58 1500.61 1699.94 1500.54 1699.29 1500.54L1696.07 1500.53L1695.96 1558.15L1699.18 1558.16C1699.83 1558.16 1700.47 1558.09 1701.11 1557.97Z" fill="#FFA412"/>
<path d="M1708.28 1552.64L1708.36 1506.1C1707.11 1503.99 1705.32 1502.34 1703.22 1501.39L1703.12 1557.33C1705.22 1556.41 1707.03 1554.76 1708.28 1552.64Z" fill="#FFA412"/>
<path d="M1687.09 1442.88L1686.96 1500.5L1692.11 1500.51L1692.25 1442.9L1687.09 1442.88Z" fill="#FFA412"/>
<path d="M1616.61 1442.72L1616.47 1500.33L1621.63 1500.35L1621.76 1442.73L1616.61 1442.72Z" fill="#FFA412"/>
<path d="M1582.67 1442.65L1582.54 1500.26L1587.69 1500.28L1587.83 1442.66L1582.67 1442.65Z" fill="#FFA412"/>
<path d="M1530.65 1442.52L1530.51 1500.14L1535.67 1500.15L1535.81 1442.53L1530.65 1442.52Z" fill="#FFA412"/>
<path d="M1481.95 1442.41L1481.81 1500.03L1486.97 1500.04L1487.1 1442.42L1481.95 1442.41Z" fill="#FFA412"/>
<path d="M1438.44 1442.3L1438.32 1499.92L1443.47 1499.93L1443.59 1442.31L1438.44 1442.3Z" fill="#FFA412"/>
<path d="M1703.71 1442.93L1703.58 1500.54L1708.73 1500.56L1708.87 1442.94L1703.71 1442.93Z" fill="#FFA412"/>
<path d="M1714.69 1442.95L1714.56 1500.57L1719.71 1500.58L1719.85 1442.97L1714.69 1442.95Z" fill="#FFA412"/>
<path d="M1725.28 1442.98L1725.15 1500.6L1730.3 1500.61L1730.44 1442.99L1725.28 1442.98Z" fill="#FFA412"/>
<path d="M1733.25 1442.99L1733.15 1500.61L1736.37 1500.63C1737.04 1500.63 1737.68 1500.56 1738.3 1500.43L1738.41 1443.22C1737.79 1443.09 1737.14 1443.01 1736.48 1443.01L1733.25 1442.99Z" fill="#FFA412"/>
<path d="M1740.42 1443.86L1740.32 1499.79C1742.43 1498.86 1744.22 1497.21 1745.47 1495.11L1745.56 1448.57C1744.31 1446.45 1742.51 1444.79 1740.42 1443.86Z" fill="#FFA412"/>
<path d="M1627.5 1442.84L1632.66 1442.86L1632.75 1385.22L1627.72 1385.21L1627.82 1329.01L1632.86 1329.02L1632.96 1271.41L1627.81 1271.39L1627.7 1328.93L1622.67 1328.91L1622.57 1386.53L1627.6 1386.54L1627.5 1442.84Z" fill="#FFA412"/>
<path d="M1610.17 1385.17L1610.02 1442.78L1615.17 1442.8L1615.32 1385.18L1610.17 1385.17Z" fill="#FFA412"/>
<path d="M1523.2 1384.97L1523.06 1442.58L1528.22 1442.6L1528.35 1384.98L1523.2 1384.97Z" fill="#FFA412"/>
<path d="M1471.18 1384.84L1471.04 1442.46L1476.2 1442.47L1476.33 1384.85L1471.18 1384.84Z" fill="#FFA412"/>
<path d="M1422.48 1384.73L1422.34 1442.35L1427.49 1442.36L1427.63 1384.74L1422.48 1384.73Z" fill="#FFA412"/>
<path d="M1378.97 1384.62L1378.84 1442.24L1383.99 1442.25L1384.13 1384.63L1378.97 1384.62Z" fill="#FFA412"/>
<path d="M1644.12 1442.88H1648.67L1648.58 1500.42L1653.73 1500.43L1653.84 1442.81L1649.27 1442.8L1649.37 1385.27H1648.66L1648.76 1329.07H1649.48L1649.58 1271.45L1644.42 1271.43L1644.31 1328.97L1643.6 1328.95L1643.51 1386.59H1644.21L1644.12 1442.88Z" fill="#FFA412"/>
<path d="M1655.2 1385.29L1655.1 1442.91L1660.25 1442.92L1660.36 1385.3L1655.2 1385.29Z" fill="#FFA412"/>
<path d="M1681.83 1386.67H1682.73L1682.84 1329.05L1678.31 1329.04C1678.55 1329.01 1678.8 1328.98 1679.03 1328.93L1679.14 1271.71C1678.52 1271.57 1677.87 1271.51 1677.21 1271.51L1673.99 1271.49L1673.88 1329.11H1677.1C1677.3 1329.11 1677.49 1329.09 1677.68 1329.08L1677.59 1385.35C1677.39 1385.34 1677.2 1385.32 1677 1385.32H1673.78L1673.67 1442.86H1670.85L1670.96 1385.32L1666.12 1385.31L1666.22 1329.11L1671.06 1329.12L1671.17 1271.51L1666.01 1271.49L1665.9 1329.03L1661.07 1329.01L1660.96 1386.63L1665.79 1386.64L1665.69 1442.94L1669.61 1442.95L1669.5 1500.49L1674.66 1500.5L1674.77 1442.97H1676.88C1677.55 1442.97 1678.18 1442.9 1678.81 1442.77L1678.91 1386.68H1680.92L1680.82 1442.13C1682.94 1441.22 1684.73 1439.56 1685.98 1437.45L1686.06 1390.91C1685.02 1389.09 1683.53 1387.64 1681.83 1386.67Z" fill="#FFA412"/>
<path d="M1504.63 1328.64L1504.51 1386.25L1509.67 1386.27L1509.79 1328.65L1504.63 1328.64Z" fill="#FFA412"/>
<path d="M1455.94 1328.51L1455.8 1386.13L1460.96 1386.14L1461.09 1328.52L1455.94 1328.51Z" fill="#FFA412"/>
<path d="M1412.44 1328.42L1412.3 1386.03L1417.45 1386.05L1417.59 1328.43L1412.44 1328.42Z" fill="#FFA412"/>
<path d="M1688.68 1329.07L1688.55 1386.69L1693.7 1386.7L1693.84 1329.08L1688.68 1329.07Z" fill="#FFA412"/>
<path d="M1699.29 1329.09L1699.15 1386.71L1704.31 1386.72L1704.44 1329.11L1699.29 1329.09Z" fill="#FFA412"/>
<path d="M1707.24 1329.11L1707.13 1386.72H1710.35C1711.02 1386.72 1711.66 1386.66 1712.28 1386.53L1712.38 1329.32C1711.75 1329.18 1711.1 1329.11 1710.45 1329.11H1707.24Z" fill="#FFA412"/>
<path d="M1719.46 1381.22L1719.55 1334.68C1718.3 1332.57 1716.5 1330.91 1714.41 1329.97L1714.31 1385.91C1716.41 1384.98 1718.21 1383.34 1719.46 1381.22Z" fill="#FFA412"/>
<path d="M1610.36 1271.34L1610.22 1328.96L1615.38 1328.97L1615.52 1271.36L1610.36 1271.34Z" fill="#FFA412"/>
<path d="M1594.57 1271.31L1589.42 1271.3L1589.31 1328.93H1590.58L1590.47 1385.13H1589.21L1589.1 1442.75L1594.25 1442.76L1594.36 1386.46L1595.63 1386.48L1595.74 1328.84H1594.46L1594.57 1271.31Z" fill="#FFA412"/>
<path d="M1557.23 1328.76H1556.64L1556.54 1386.38H1557.11L1557 1442.68L1562.17 1442.69L1562.27 1385.06H1561.7L1561.81 1328.86H1562.38L1562.48 1271.24L1557.32 1271.23L1557.23 1328.76Z" fill="#FFA412"/>
<path d="M1523.41 1271.14L1523.28 1328.76L1528.43 1328.77L1528.57 1271.15L1523.41 1271.14Z" fill="#FFA412"/>
<path d="M1471.39 1271.01L1471.25 1328.63L1476.41 1328.64L1476.55 1271.03L1471.39 1271.01Z" fill="#FFA412"/>
<path d="M1422.68 1270.9L1422.53 1328.52L1427.69 1328.53L1427.84 1270.91L1422.68 1270.9Z" fill="#FFA412"/>
<path d="M1379.18 1270.81L1379.06 1328.43L1384.21 1328.44L1384.33 1270.82L1379.18 1270.81Z" fill="#FFA412"/>
<path d="M1655.43 1271.46L1655.28 1329.08L1660.43 1329.09L1660.58 1271.47L1655.43 1271.46Z" fill="#FFA412"/>
<path d="M1681.14 1272.37L1681.05 1328.3C1683.16 1327.39 1684.95 1325.73 1686.2 1323.62L1686.28 1277.08C1685.05 1274.96 1683.24 1273.3 1681.14 1272.37Z" fill="#FFA412"/>
<path d="M1832.34 1425.99L1864.38 1431.68C1866.93 1432.13 1869.18 1433.23 1870.93 1434.75C1872.8 1436.34 1874.1 1438.4 1874.66 1440.64C1874.84 1441.32 1874.92 1442.03 1874.94 1442.72C1874.95 1443.36 1874.91 1444.01 1874.8 1444.67L1795.2 1891.41C1794.17 1897.17 1788.11 1900.98 1781.57 1900.12C1781.36 1900.09 1781.14 1900.06 1780.93 1900.02L1748.89 1894.32C1748.68 1894.28 1748.47 1894.24 1748.25 1894.2C1741.81 1892.75 1737.44 1887.09 1738.46 1881.32L1818.05 1434.58C1818.11 1434.29 1818.17 1434.01 1818.25 1433.73C1818.28 1433.61 1818.32 1433.5 1818.36 1433.37C1818.4 1433.25 1818.44 1433.11 1818.5 1432.98C1818.53 1432.88 1818.57 1432.8 1818.61 1432.7C1818.87 1432.05 1819.19 1431.42 1819.6 1430.84C1819.65 1430.76 1819.71 1430.67 1819.78 1430.58C1819.83 1430.49 1819.9 1430.41 1819.96 1430.33C1820.08 1430.16 1820.22 1429.99 1820.36 1429.84C1820.44 1429.74 1820.53 1429.66 1820.61 1429.56C1820.69 1429.48 1820.76 1429.4 1820.85 1429.33C1821 1429.17 1821.15 1429.04 1821.31 1428.88C1821.49 1428.72 1821.68 1428.56 1821.88 1428.41C1822.03 1428.28 1822.18 1428.17 1822.33 1428.06C1822.35 1428.06 1822.35 1428.05 1822.36 1428.05C1822.47 1427.98 1822.58 1427.9 1822.69 1427.83C1823.03 1427.6 1823.39 1427.4 1823.75 1427.2C1823.86 1427.15 1823.97 1427.09 1824.07 1427.03C1824.18 1426.98 1824.29 1426.94 1824.4 1426.88C1824.64 1426.78 1824.86 1426.69 1825.1 1426.59C1827.29 1425.8 1829.78 1425.53 1832.34 1425.99Z" fill="#FFB93E"/>
<path d="M1837.64 1653.25L1795 1892.59C1794.09 1897.73 1788.11 1901.03 1781.57 1900.14C1781.36 1900.12 1781.14 1900.09 1780.93 1900.05L1748.89 1894.35C1748.68 1894.31 1748.47 1894.27 1748.25 1894.23C1741.81 1892.81 1737.35 1887.65 1738.26 1882.5L1775.66 1672.56C1776.15 1672.55 1776.62 1672.54 1777.12 1672.52C1794.31 1671.97 1818.01 1668.05 1837.64 1653.25Z" fill="#FFA412"/>
<path d="M1810.2 1478.19L1809.29 1483.26L1866.01 1493.38L1866.92 1488.31L1810.2 1478.19Z" fill="#FFA412"/>
<path d="M1807.14 1495.35L1806.24 1500.42L1862.96 1510.52L1863.86 1505.44L1807.14 1495.35Z" fill="#FFA412"/>
<path d="M1803.5 1515.86L1802.59 1520.94L1859.32 1531.04L1860.22 1525.97L1803.5 1515.86Z" fill="#FFA412"/>
<path d="M1797.87 1547.45L1796.97 1552.53L1853.69 1562.63L1854.6 1557.56L1797.87 1547.45Z" fill="#FFA412"/>
<path d="M1791.89 1580.96L1790.98 1586.03L1847.71 1596.13L1848.61 1591.05L1791.89 1580.96Z" fill="#FFA412"/>
<path d="M1782.96 1632.19L1782.06 1637.26L1838.78 1647.37L1839.69 1642.3L1782.96 1632.19Z" fill="#FFA412"/>
<path d="M1774.22 1680.13L1773.32 1685.2L1830.04 1695.3L1830.95 1690.22L1774.22 1680.13Z" fill="#FFA412"/>
<path d="M1766.66 1723.05L1765.75 1728.12L1822.47 1738.25L1823.38 1733.17L1766.66 1723.05Z" fill="#FFA412"/>
<path d="M1813.15 1461.7L1812.25 1466.77L1868.97 1476.88L1869.87 1471.8L1813.15 1461.7Z" fill="#FFA412"/>
<path d="M1815.25 1451L1814.34 1456.08L1871.07 1466.19L1871.97 1461.12L1815.25 1451Z" fill="#FFA412"/>
<path d="M1816.93 1440.46L1816.03 1445.54L1872.75 1455.64L1873.66 1450.57L1816.93 1440.46Z" fill="#FFA412"/>
<path d="M1817.5 1437.78L1874.23 1447.85L1874.8 1444.68C1874.91 1444.03 1874.96 1443.39 1874.94 1442.74L1818.6 1432.73C1818.36 1433.33 1818.18 1433.96 1818.05 1434.61L1817.5 1437.78Z" fill="#FFA412"/>
<path d="M1819.58 1430.87L1874.66 1440.65C1874.12 1438.41 1872.8 1436.36 1870.93 1434.76L1825.11 1426.62C1822.82 1427.48 1820.87 1428.97 1819.58 1430.87Z" fill="#FFA412"/>
<path d="M2913.86 1900.09H2718.86C2708.41 1891.22 2726.1 1871.09 2744.56 1869.74C2752.59 1869.13 2762.73 1870.81 2774.32 1873.27C2777 1837.64 2792.33 1677.41 2850.08 1683.85C2915.02 1691.06 2850.08 1754.41 2831.73 1791.91C2818.13 1819.7 2803.79 1859.53 2797.23 1878.33C2802.5 1879.47 2807.96 1880.6 2813.53 1881.62C2822.14 1855.2 2854.17 1766.31 2894.89 1771.47C2942.71 1777.55 2923.49 1813.18 2889.6 1834.34C2864.73 1849.9 2834.2 1872.01 2819.68 1882.69C2831.98 1884.69 2844.81 1886.06 2857.82 1885.75C2891.22 1884.94 2907.54 1894.8 2913.86 1900.09Z" fill="#82B378"/>
<path d="M371.238 1893.62C363.499 1881.44 340.186 1849.88 309.147 1854.05C275.315 1858.6 346.507 1880.9 368.293 1893.7C363.458 1893.77 359.289 1893.38 356.233 1892.3C341.658 1887.1 316.719 1897.06 308.73 1900.56H447.432C446.473 1897.24 443.972 1891.82 437.512 1887.88C435.233 1886.49 430.662 1886.29 424.743 1886.74C432.996 1877.01 438.72 1845.96 415.754 1853.95C398.984 1859.78 399.026 1878.76 400.679 1889.99C397.108 1890.55 393.496 1891.12 389.911 1891.63C383.006 1856.44 358.581 1753.29 309.077 1750.54C258.893 1747.75 351.634 1857.51 382.52 1892.62C378.574 1893.09 374.767 1893.45 371.238 1893.62Z" fill="#82B378"/>
<path d="M1746.54 1017.57C1824.54 939.57 1824.54 813.104 1746.54 735.103C1668.54 657.101 1542.08 657.101 1464.07 735.103C1386.07 813.104 1386.07 939.57 1464.07 1017.57C1542.08 1095.57 1668.54 1095.57 1746.54 1017.57Z" fill="#E2810E"/>
<path d="M1783.21 935.447C1811.23 828.753 1747.45 719.547 1640.76 691.528C1534.06 663.509 1424.86 727.287 1396.84 833.98C1368.82 940.674 1432.6 1049.88 1539.29 1077.9C1645.98 1105.92 1755.19 1042.14 1783.21 935.447Z" fill="#FFB93E"/>
<path d="M1591.52 1068.76C1527.3 1068.76 1464.97 1034.76 1431.83 974.654C1408.37 932.083 1402.88 882.927 1416.4 836.23C1429.9 789.533 1460.79 750.894 1503.36 727.428C1545.93 703.961 1595.09 698.473 1641.78 711.978C1688.48 725.482 1727.12 756.368 1750.59 798.939C1799.03 886.817 1766.95 997.717 1679.07 1046.16C1651.29 1061.49 1621.19 1068.76 1591.52 1068.76ZM1590.97 715.604C1562.46 715.604 1534.26 722.801 1508.61 736.945C1468.58 759.008 1439.55 795.34 1426.83 839.259C1414.13 883.163 1419.29 929.402 1441.35 969.43C1472.5 1025.94 1531.13 1057.92 1591.5 1057.92C1619.41 1057.92 1647.7 1051.08 1673.82 1036.69C1756.46 991.132 1786.63 886.845 1741.07 804.218C1719.01 764.19 1682.67 735.152 1638.75 722.44C1623 717.855 1606.94 715.604 1590.97 715.604Z" fill="#FFA412"/>
<path d="M1638.64 920.966C1637.16 917.298 1635.34 914.297 1633.17 911.922C1631 909.546 1628.29 907.712 1625.03 906.392C1621.76 905.086 1617.89 904.211 1613.4 903.808C1608.91 903.391 1603.63 903.363 1597.53 903.696C1587.03 904.211 1577.3 904.211 1568.35 903.738C1559.41 903.252 1551.33 901.793 1544.1 899.334C1536.87 896.888 1530.52 893.165 1525.05 888.177C1519.57 883.189 1515.11 876.423 1511.64 867.878C1508.64 860.473 1507.19 853.179 1507.35 846.009C1507.5 838.84 1509.1 832.005 1512.13 825.488C1515.17 818.972 1519.52 812.914 1525.17 807.315C1530.83 801.716 1537.72 796.812 1545.85 792.602L1534.48 764.62L1557 755.478L1568.52 783.849C1577.01 781.626 1585.21 780.778 1593.08 781.334C1600.96 781.89 1608.24 783.807 1614.94 787.086C1621.62 790.365 1627.64 795.005 1632.97 801.021C1638.31 807.037 1642.75 814.401 1646.28 823.112L1605.6 839.632C1601.35 829.17 1595.85 822.293 1589.1 818.986C1582.34 815.693 1575.08 815.61 1567.28 818.778C1563.06 820.487 1559.66 822.557 1557.09 824.974C1554.52 827.392 1552.65 830.018 1551.51 832.866C1550.38 835.714 1549.9 838.729 1550.1 841.897C1550.29 845.065 1551.04 848.26 1552.35 851.497C1553.65 854.721 1555.31 857.458 1557.31 859.681C1559.31 861.918 1561.91 863.682 1565.12 864.974C1568.31 866.267 1572.22 867.114 1576.81 867.531C1581.41 867.948 1586.96 868.059 1593.43 867.864C1603.91 867.573 1613.62 867.698 1622.53 868.239C1631.43 868.781 1639.52 870.31 1646.76 872.797C1653.99 875.284 1660.36 879.035 1665.83 884.023C1671.31 889.011 1675.75 895.735 1679.18 904.197C1682.3 911.866 1683.76 919.299 1683.56 926.482C1683.37 933.679 1681.73 940.487 1678.66 946.906C1675.59 953.339 1671.14 959.299 1665.35 964.801C1659.55 970.303 1652.58 975.166 1644.45 979.376L1655.02 1005.4L1632.64 1014.49L1622.12 988.587C1614.01 990.963 1605.8 992.325 1597.46 992.658C1589.12 992.992 1581.14 991.853 1573.51 989.213C1565.88 986.573 1558.85 982.196 1552.43 976.069C1546.01 969.942 1540.68 961.647 1536.43 951.185L1577.12 934.666C1579.64 940.862 1582.59 945.67 1586.01 949.101C1589.43 952.533 1593.1 954.909 1597.02 956.215C1600.93 957.521 1604.95 957.924 1609.06 957.41C1613.18 956.91 1617.16 955.868 1621.01 954.312C1625.42 952.519 1629.07 950.38 1631.93 947.893C1634.81 945.406 1636.96 942.696 1638.39 939.779C1639.84 936.861 1640.56 933.804 1640.56 930.595C1640.6 927.399 1639.96 924.19 1638.64 920.966Z" fill="#FFA412"/>
<path d="M1788.83 768.83C1780.48 762.925 1761.53 749.948 1760.55 752.838C1759.84 754.922 1760.85 758.451 1763.12 762.133C1751.66 757.854 1740.01 755.047 1712.5 760.327C1706.99 761.383 1702 764.523 1698.97 769.233C1696.16 773.595 1695.12 779.069 1702.14 783.432C1716.18 792.171 1712.11 786.933 1731.63 799.646C1751.16 812.359 1775.05 815.61 1789.32 806.69L1808.48 803.495L1810.86 771.984C1810.84 771.984 1799.92 770.691 1788.83 768.83Z" fill="#FFB27D"/>
<path d="M2290.92 504.501C2290.92 504.501 2245.75 558.09 2188.23 535.679C2188.23 535.679 2175.85 505.752 2175.68 483.688C2175.67 480.965 2175.62 478.339 2175.58 475.838C2175.28 450.996 2174.44 437.047 2174.44 437.047C2174.44 437.047 2174.46 437.047 2174.5 437.033C2177.11 435.935 2262.43 400.909 2262.36 403.827C2260.89 471.017 2290.92 504.501 2290.92 504.501Z" fill="#FFB27D"/>
<path d="M2253.79 419.847C2245.57 435.102 2217.33 464.932 2175.58 475.825C2175.28 450.983 2174.44 437.033 2174.44 437.033C2174.44 437.033 2174.46 437.033 2174.5 437.019C2176.86 436.394 2256.24 415.345 2253.79 419.847Z" fill="#ED975D"/>
<path d="M2156.56 434.461C2156.56 434.461 2252.51 457.024 2265.64 397.045C2278.77 337.079 2299.99 299.608 2239.29 282.671C2178.58 265.735 2161.63 286.006 2152.38 304.957C2143.13 323.908 2131.94 427.041 2156.56 434.461Z" fill="#FFB27D"/>
<path d="M2262.36 413.385C2263.67 414.219 2284.32 420.568 2323.41 342.68C2329.55 330.453 2333.74 303.999 2319.43 280.63C2305.11 257.261 2254.39 238.879 2212.23 230.89C2170.09 222.887 2159.97 246.604 2150.05 270.446C2139.63 295.469 2109.53 316.059 2109.53 316.059C2145.88 336.358 2189.66 307.32 2204.82 312.099C2219.99 316.879 2225.34 340.776 2226.48 348.432C2227.61 356.087 2229.37 362.464 2248.43 355.615C2267.5 348.779 2257.06 382.638 2254 389.113C2254.01 389.127 2251.42 406.383 2262.36 413.385Z" fill="#A9453D"/>
<path d="M2509.53 1908.87H2567.64C2579.82 1908.87 2593.35 1896.67 2596.73 1874.34C2600.12 1852 2625.16 1839.82 2630.58 1821.55C2635.99 1803.26 2608.23 1777.55 2608.23 1777.55L2603.59 1771.59L2598.77 1765.38L2552.76 1776.2C2552.76 1776.2 2551.62 1787.16 2550.91 1801.11C2550.42 1811.18 2550.15 1822.84 2550.73 1833.05C2552.08 1857.42 2543.91 1883.67 2522.26 1888.4C2500.57 1893.14 2509.53 1908.87 2509.53 1908.87Z" fill="#2C3A64"/>
<path d="M2105.07 1908.87H2259.07C2260.54 1908.58 2261.67 1908.26 2262.34 1907.93C2272.62 1902.77 2269.39 1863.41 2268.16 1851.25C2267.92 1849 2267.75 1847.68 2267.75 1847.68C2267.75 1847.68 2213.6 1804.38 2206.15 1837.54C2205.91 1838.57 2205.63 1839.6 2205.36 1840.6V1840.61C2195.95 1871.64 2153.94 1885.74 2129.66 1889.67C2111.12 1892.66 2106.31 1903.47 2105.07 1908.87Z" fill="#2C3A64"/>
<path d="M2136.11 1020.78C2136.11 1020.78 2144.34 1123.38 2154.01 1246.73C2167.15 1414.28 2182.95 1620.09 2184.5 1659.09C2187.21 1726.79 2198.05 1835.08 2198.05 1835.08C2198.05 1835.08 2223.75 1860.81 2275.21 1849.96C2275.21 1849.96 2321.06 1695.36 2334.17 1531.79C2334.37 1529.11 2334.57 1526.41 2334.78 1523.71C2346.96 1357.19 2365.91 1006.55 2365.91 1006.55L2136.11 1020.78Z" fill="#2B478B"/>
<path d="M2136.11 1020.78C2136.11 1020.78 2144.34 1123.38 2154.01 1246.73L2334.17 1531.81C2334.37 1529.12 2334.57 1526.43 2334.78 1523.72C2346.96 1357.2 2365.91 1006.57 2365.91 1006.57L2136.11 1020.78Z" fill="#233862"/>
<path d="M2173.67 1032.96C2173.67 1032.96 2321.9 1404.58 2419.38 1579.21C2516.86 1753.84 2547.31 1802.58 2547.31 1802.58C2547.31 1802.58 2603.15 1780.24 2608.24 1765.01C2608.24 1765.01 2570.96 1427.87 2505.69 1345.69C2468.8 1299.24 2425.48 1159.88 2423.45 1111.14C2421.42 1062.4 2410.25 965.954 2410.25 965.954L2173.67 1032.96Z" fill="#2B478B"/>
<path d="M2511.73 965.441L2513.3 989.339C2513.3 989.339 2497.54 1031.8 2541.7 1053.57C2541.7 1053.57 2560.61 1061.2 2561.37 1046.48C2562.14 1031.77 2559.72 1037.3 2561.26 1016.58C2562.8 995.855 2554.65 976.278 2540.93 969.679L2529.68 956.702L2511.73 965.441Z" fill="#FFB27D"/>
<path d="M2528.98 982.85C2512.58 988.116 2509.95 986.921 2509.95 986.921C2509.95 986.921 2430.09 841.523 2422 828.212C2413.92 814.902 2252.44 665.169 2252.44 665.169L2293.94 510.434C2293.94 510.434 2477.59 748.254 2497.43 782.377C2530.21 838.772 2549.41 969.734 2549.41 969.734C2549.41 969.734 2541.86 978.71 2528.98 982.85Z" fill="#1E3D70"/>
<path d="M2104.82 725.926C2105.39 757.701 2107.24 793.422 2109.74 829.713C2109.89 831.866 2110.05 834.02 2110.2 836.173C2111.8 858.654 2113.52 881.175 2115.51 903.141C2116.3 911.95 2117.15 920.661 2118.03 929.206L2118.17 930.359C2118.24 933.555 2118.63 937.028 2118.98 940.196C2127.08 1022.49 2135.55 1087.5 2137.14 1088.5C2139.01 1089.75 2141.14 1090.37 2143.46 1090.11C2165.04 1087.4 2229.42 1092.29 2282.13 1080.83C2326.61 1071.45 2364.91 1053.65 2405.5 1029.67C2410.89 1026.49 2423.17 1018.06 2422.17 1011.75C2421.18 1004.82 2419.38 994.813 2417.07 982.225C2409.08 938.459 2395.27 863.169 2390.56 775.055C2389.64 758.646 2388.31 742.432 2386.57 726.496C2382.04 684.981 2374.81 645.551 2365.08 610.524C2347 545.446 2320.45 495.609 2287.14 476.116C2282.79 473.671 2259.36 488.579 2237.84 502.389C2217.97 515.13 2197.05 518.645 2176.71 516.866L2158.8 536.665C2137.12 561.868 2114.03 595.422 2107.73 643.119C2107.25 646.648 2106.85 650.386 2106.5 654.359C2104.75 673.783 2104.32 698.375 2104.82 725.926Z" fill="#2A4E96"/>
<path d="M2104.82 725.926C2105.39 757.701 2107.24 793.422 2109.74 829.712C2109.89 831.866 2110.05 834.019 2110.2 836.173C2233.46 759.021 2252.44 617.832 2252.44 617.832C2191.8 620.486 2143.63 634.435 2106.5 654.373C2104.75 673.782 2104.32 698.374 2104.82 725.926Z" fill="#1E3D70"/>
<path d="M1793.38 786.697C1792.11 768.413 1801.58 765.37 1801.58 765.37C1801.58 765.37 1987.42 731.691 2003.22 726.717C2019.01 721.743 2154.1 581.222 2154.1 581.222C2154.1 581.222 2205.88 522.826 2248.29 535.719C2285.13 546.932 2299.53 575.664 2304.43 603.049C2310.28 635.671 2295.24 668.502 2266.98 685.828C2203.55 724.731 2076.58 801.369 2046.68 810.136C1980.12 829.642 1801.3 811.706 1801.3 811.706C1801.3 811.706 1794.38 801.063 1793.38 786.697Z" fill="#2A4E96"/>
<path opacity="0.2" d="M2012.05 1143.66V1834.45C2012.05 1874.75 1979.08 1907.73 1938.79 1907.73H1228.71C1222.55 1907.73 1216.55 1906.97 1210.81 1905.55C1198.52 1902.51 1187.39 1896.41 1178.29 1888.1C1171.78 1882.17 1166.34 1875.11 1162.24 1867.26C1162.02 1866.84 1161.81 1866.42 1161.6 1865.98C1157.35 1857.43 1154.68 1847.97 1154 1838C1153.88 1836.29 1153.82 1834.58 1153.82 1832.84V1148.09C1153.82 1109.34 1173.84 1073.51 1206.5 1052.65C1206.5 1052.65 1206.53 1052.64 1206.59 1052.61C1233.79 1035.2 1251.83 1004.69 1251.83 969.997C1251.83 959.702 1250.24 949.795 1247.3 940.473H1918.56C1915.62 949.795 1914.03 959.702 1914.03 969.997C1914.03 1003.27 1930.61 1032.67 1955.95 1050.39C1955.96 1050.39 1955.96 1050.4 1955.98 1050.4C1957.67 1051.58 1959.4 1052.71 1961.16 1053.78C1961.17 1053.79 1961.17 1053.79 1961.17 1053.79C1992.63 1072.92 2012.05 1106.84 2012.05 1143.66Z" fill="#ED9F4A"/>
<path opacity="0.2" d="M2012.05 1143.66V1834.46C2012.05 1873.01 1981.86 1904.87 1943.96 1907.54C1942.25 1907.66 1940.53 1907.72 1938.79 1907.72H1626.12C1584.93 1907.72 1551.24 1874.01 1551.24 1832.83V1148.09C1551.24 1109.34 1571.26 1073.51 1603.92 1052.65C1631.18 1035.26 1649.26 1004.73 1649.26 969.984C1649.26 959.689 1647.67 949.783 1644.73 940.46H1918.56C1915.62 949.783 1914.03 959.689 1914.03 969.984C1914.03 997.258 1925.16 1021.92 1943.14 1039.68C1948.57 1045.05 1954.62 1049.79 1961.17 1053.76C1992.63 1072.92 2012.05 1106.84 2012.05 1143.66Z" fill="#ED9F4A"/>
<path opacity="0.6" d="M1955.96 1050.37C1934.04 1037.24 1839.05 990.713 1597.5 992.686C1320.82 994.95 1209.99 1050.87 1206.6 1052.61C1233.81 1035.2 1251.84 1004.69 1251.84 969.997C1251.84 959.702 1250.26 949.795 1247.31 940.473H1918.58C1915.63 949.795 1914.05 959.702 1914.05 969.997C1914.05 1003.24 1930.62 1032.66 1955.96 1050.37Z" fill="#ED9F4A"/>
<path d="M1933.78 935.624V966.954C1933.78 970.053 1931.26 972.567 1928.18 972.567H1237.71C1234.61 972.567 1232.1 970.053 1232.1 966.954V935.624C1232.1 932.539 1234.61 930.011 1237.71 930.011H1928.18C1931.26 930.011 1933.78 932.539 1933.78 935.624Z" fill="#2B478B"/>
<path d="M1933.78 935.624V966.954C1933.78 970.053 1931.26 972.567 1928.18 972.567H1666.82C1663.74 972.567 1661.21 970.053 1661.21 966.954V935.624C1661.21 932.539 1663.74 930.011 1666.82 930.011H1928.18C1931.26 930.011 1933.78 932.539 1933.78 935.624Z" fill="#233862"/>
<path d="M1473.11 1090.76C1473.11 1090.76 1455.32 1115.81 1439 1116.16C1422.69 1116.51 1397.86 1104.55 1397.86 1104.55C1397.86 1104.55 1382.89 1071.16 1393.04 1058.1C1393.04 1058.1 1403.23 1053.63 1413.88 1061.53C1415.72 1062.89 1417.57 1064.6 1419.4 1066.81C1421.98 1069.92 1424.89 1071.69 1427.96 1072.62C1439.6 1076.16 1453.43 1067.82 1458.58 1075.87C1461.6 1080.54 1464.87 1084.05 1467.58 1086.53C1470.79 1089.37 1473.11 1090.76 1473.11 1090.76Z" fill="#F9DDBF"/>
<path d="M1241.1 1271.48C1241.1 1271.48 1304 1119.06 1417.22 1116.16C1417.22 1116.16 1521.73 1127.78 1527.54 1271.48H1241.1Z" fill="#F9DDBF"/>
<path d="M1386.21 1120.83C1386.21 1120.83 1431.59 1130.92 1445.59 1124.98C1445.59 1124.98 1447.7 1106 1428.6 1108.67C1415.51 1110.49 1406.99 1104.21 1401.98 1101.65C1394.89 1098.04 1384.33 1112.88 1386.21 1120.83Z" fill="#F1A34F"/>
<path d="M1425.71 1092.22C1422.8 1094.4 1413.88 1061.53 1413.88 1061.53C1415.72 1062.89 1417.57 1064.6 1419.4 1066.81C1421.98 1069.92 1424.89 1071.69 1427.96 1072.62C1428 1073.58 1428.53 1090.1 1425.71 1092.22Z" fill="#E5C1A1"/>
<path d="M1467.6 1086.52C1466.96 1086.9 1445.96 1099.47 1443.13 1099.47C1440.23 1099.47 1458.61 1075.87 1458.61 1075.87C1461.62 1080.55 1464.9 1084.05 1467.6 1086.52Z" fill="#E5C1A1"/>
<path d="M1302.55 1228.91C1301.39 1227.92 1347.07 1161.65 1359.64 1161.18C1372.22 1160.69 1400.49 1175.7 1420.96 1177.63C1441.42 1179.56 1461.26 1173.75 1465.12 1185.85C1469 1197.95 1479.64 1240.83 1473.11 1247.69C1466.58 1254.56 1327.67 1250.36 1302.55 1228.91Z" fill="#E5C1A1"/>
<path opacity="0.5" d="M1251.69 1859.7C1248.05 1861.62 1244.38 1863.42 1240.7 1865.17C1237.18 1867.2 1233.61 1869.2 1229.97 1871.11C1213.19 1879.93 1195.89 1886.96 1178.29 1892.27C1171.78 1886.33 1166.34 1879.28 1162.24 1871.43C1159.43 1872.93 1156.64 1874.36 1153.82 1875.76V1354.54C1166.75 1356.26 1179.56 1358.84 1192.11 1362.23C1262.52 1381.27 1325.23 1426.06 1363.37 1491.96C1439.13 1622.88 1389.12 1787.52 1251.69 1859.7Z" fill="#E2810E"/>
<path d="M1299.3 1471.44C1223.54 1334 1050.71 1284.01 913.275 1359.78C775.838 1435.54 725.848 1608.36 801.597 1745.8C877.36 1883.24 1050.18 1933.23 1187.62 1857.48C1325.07 1781.7 1375.06 1608.88 1299.3 1471.44Z" fill="#E2810E"/>
<path d="M1176.6 1863.23C1173.1 1865.37 1169.55 1867.43 1165.92 1869.43C1164.7 1870.11 1163.48 1870.78 1162.24 1871.41C1159.43 1872.92 1156.64 1874.35 1153.82 1875.75C1018.51 1942.2 853.449 1891.2 779.895 1757.76C709.732 1630.48 747.44 1472.84 862.577 1390.06C871.761 1383.46 881.417 1377.34 891.574 1371.74C895.214 1369.72 898.896 1367.81 902.578 1365.99C906.162 1364.19 909.775 1362.5 913.401 1360.89C924.516 1355.93 935.825 1351.75 947.246 1348.33C964.21 1343.21 981.439 1339.77 998.695 1337.95C1052.23 1332.28 1106.08 1342.06 1153.82 1365.42C1204.49 1390.19 1248.3 1430.26 1277.6 1483.4C1351.36 1617.23 1305.91 1784.58 1176.6 1863.23Z" fill="#FFB93E"/>
<path d="M1030.75 1882.53C1006.59 1882.53 982.286 1879.11 958.431 1872.22C892.005 1853.01 837.027 1809.07 803.654 1748.51C770.267 1687.95 762.473 1618.01 781.688 1551.58C800.903 1485.15 844.835 1430.18 905.398 1396.8C965.961 1363.42 1035.89 1355.62 1102.33 1374.84C1168.75 1394.05 1223.73 1437.98 1257.12 1498.55C1290.51 1559.11 1298.3 1629.04 1279.09 1695.48C1259.87 1761.9 1215.94 1816.88 1155.38 1850.25C1116.54 1871.65 1073.87 1882.53 1030.75 1882.53ZM817.173 1741.05C848.559 1798 900.257 1839.31 962.724 1857.38C1025.19 1875.46 1090.95 1868.12 1147.9 1836.72C1204.85 1805.34 1246.16 1753.64 1264.23 1691.17C1282.31 1628.7 1274.97 1562.94 1243.57 1505.99C1212.17 1449.04 1160.49 1407.74 1098.02 1389.66C1035.56 1371.6 969.796 1378.92 912.845 1410.32C855.895 1441.71 814.588 1493.41 796.512 1555.87C778.437 1618.34 785.773 1684.1 817.173 1741.05Z" fill="#FFA412"/>
<path d="M1155.58 1648.25C1155.03 1646.85 1154.43 1645.5 1153.82 1644.17C1149.21 1634.04 1143.47 1625.83 1136.58 1619.55C1128.8 1612.45 1119.75 1607.13 1109.44 1603.58C1099.13 1600.04 1087.64 1597.87 1074.97 1597.11C1062.29 1596.33 1048.49 1596.15 1033.57 1596.57C1024.34 1596.84 1016.47 1596.68 1009.92 1596.09C1003.39 1595.5 997.834 1594.29 993.276 1592.45C988.719 1590.62 985.01 1588.12 982.161 1584.92C979.313 1581.76 976.965 1577.87 975.103 1573.28C973.242 1568.7 972.172 1564.14 971.894 1559.62C971.616 1555.12 972.297 1550.84 973.909 1546.77C975.534 1542.73 978.174 1538.98 981.828 1535.55C985.482 1532.1 990.317 1529.17 996.319 1526.72C1007.41 1522.22 1017.76 1522.32 1027.36 1527.01C1036.96 1531.71 1044.78 1541.51 1050.82 1556.39L1108.72 1532.88C1103.68 1520.48 1097.37 1510.01 1089.77 1501.45C1082.18 1492.91 1073.62 1486.31 1064.11 1481.64C1054.6 1476.98 1044.24 1474.25 1033.01 1473.45C1021.81 1472.66 1010.16 1473.86 998.07 1477.02L981.675 1436.65L949.636 1449.65L965.795 1489.47C954.235 1495.48 944.426 1502.45 936.381 1510.41C928.337 1518.39 922.154 1527 917.833 1536.25C913.498 1545.54 911.248 1555.26 911.025 1565.46C910.817 1575.66 912.845 1586.04 917.125 1596.57C922.057 1608.72 928.42 1618.35 936.201 1625.45C943.981 1632.55 953.012 1637.85 963.294 1641.32C973.575 1644.81 985.065 1646.89 997.792 1647.57C1010.52 1648.27 1024.36 1648.25 1039.31 1647.53C1047.98 1647.04 1055.51 1647.08 1061.88 1647.68C1068.26 1648.27 1073.78 1649.49 1078.43 1651.36C1083.07 1653.24 1086.93 1655.85 1090.02 1659.23C1093.1 1662.6 1095.7 1666.9 1097.81 1672.09C1099.68 1676.69 1100.61 1681.25 1100.58 1685.82C1100.56 1690.38 1099.54 1694.74 1097.48 1698.89C1095.44 1703.05 1092.37 1706.9 1088.28 1710.44C1084.2 1713.97 1079.02 1717.01 1072.74 1719.57C1067.26 1721.79 1061.61 1723.25 1055.74 1723.97C1049.89 1724.68 1044.18 1724.11 1038.6 1722.26C1033.03 1720.4 1027.8 1717.04 1022.95 1712.15C1018.09 1707.27 1013.87 1700.42 1010.3 1691.61L952.415 1715.12C958.445 1730 966.045 1741.81 975.187 1750.51C984.329 1759.22 994.319 1765.47 1005.18 1769.21C1016.05 1772.96 1027.4 1774.62 1039.26 1774.13C1051.12 1773.66 1062.83 1771.73 1074.36 1768.34L1089.31 1805.18L1121.15 1792.25L1106.12 1755.23C1117.68 1749.23 1127.59 1742.31 1135.84 1734.49C1143.48 1727.24 1149.46 1719.44 1153.78 1711.07C1154.12 1710.38 1154.46 1709.72 1154.79 1709.02C1159.15 1699.88 1161.49 1690.2 1161.77 1679.97C1162.1 1669.73 1160.02 1659.16 1155.58 1648.25Z" fill="#FFA412"/>
<path d="M817.618 620.209C818.479 616.722 741.938 654.805 738.048 659.112C702.146 698.931 712.386 750.908 732.921 751.408C746.092 751.728 743.55 773.638 743.55 773.638L890.324 711.547C890.324 711.547 872.665 608.497 817.618 620.209Z" fill="#2C3A64"/>
<path d="M835.694 628.253C835.694 628.253 840.946 571.08 777.048 571.08C777.048 571.08 796.402 576.332 806.42 586.836C806.42 586.836 765.669 562.911 721.334 599.673C676.985 636.436 704.55 728.622 691.06 746.128C677.583 763.634 625.064 767.135 631.483 823.725C637.902 880.314 798.139 951.2 787.844 998.036C787.844 998.036 850.644 905.726 805.739 863.6C805.739 863.6 827.622 884.218 829.858 908.727C829.858 908.727 835.805 860.877 805.35 845.58C778.41 832.033 756.333 782.516 758.681 773.665C761.015 764.787 835.694 628.253 835.694 628.253Z" fill="#2C3A64"/>
<path d="M777.687 897.252C767.836 849.819 706.329 835.105 677.221 873.841C671.983 880.802 668.301 889.041 667.106 898.767C660.465 952.619 746.565 1171.95 758.889 1191.8C781.341 1227.95 913.513 1351.9 913.513 1351.9L937.868 1337.13C937.868 1337.13 844.113 1178.41 829.594 1163.55C812.811 1146.38 796.388 987.325 777.687 897.252Z" fill="#ED985F"/>
<path d="M904.246 1337.2C904.246 1337.2 939.8 1313.86 953.263 1315.36C966.726 1316.86 1005.68 1328.07 1006.16 1333.79C1006.63 1339.52 962.752 1343.09 959.807 1346.23C956.861 1349.35 927.059 1369.25 916.264 1363.01C905.454 1356.77 904.246 1337.2 904.246 1337.2Z" fill="#ED985F"/>
<path d="M656.241 1864.61L624.48 1859.94C624.48 1859.94 517.678 1775.07 501.784 1616.7C500.158 1600.58 499.825 1584.23 501.02 1567.74C501.159 1565.83 500.95 1563.93 499.908 1562.33C499.908 1562.32 499.894 1562.3 499.867 1562.29C496.449 1557.05 487.946 1543.92 476.428 1525.25C465.077 1506.85 445.639 1472.08 424.271 1433.06C385.757 1362.79 340.936 1278.75 325.555 1251.99C276.552 1166.68 300.171 1109.31 300.171 1109.31C300.171 1109.31 436.858 1095.79 474.316 1063.03L487.807 1083.83C487.807 1083.83 517.428 1214.95 516.025 1215.56C517.484 1220.02 518.971 1224.56 520.471 1229.17C543.841 1301.31 570.725 1391.48 585.383 1464.91C593.622 1506.23 597.985 1542.23 595.637 1566.75C594.831 1575.17 595.817 1588.09 598.054 1604.06C611.295 1698.16 656.241 1864.61 656.241 1864.61Z" fill="#2B478B"/>
<path d="M722.876 1904.79H590.357C590.357 1904.79 587.175 1884.59 594.108 1869.27C600.736 1854.57 610.197 1854.1 595.317 1831.05C603.737 1839.72 630.802 1843.31 649.962 1840.74C652.31 1844.54 665.092 1870.08 672.942 1875.71C681.584 1881.92 720.208 1879.71 722.876 1904.79Z" fill="#233862"/>
<path d="M520.471 1229.16C508.898 1293 481.555 1399.25 424.271 1433.06C385.757 1362.79 340.936 1278.75 325.555 1251.99C276.552 1166.68 300.171 1109.31 300.171 1109.31C300.171 1109.31 436.858 1095.79 474.316 1063.03L487.807 1083.83C487.807 1083.83 517.428 1214.95 516.025 1215.56C517.484 1220 518.971 1224.53 520.471 1229.16Z" fill="#233862"/>
<path d="M763.502 867.823C763.502 867.823 782.244 887.302 790.789 910.644C790.789 910.644 760.904 996.48 691.046 1007.23C691.06 1007.25 746.329 867.795 763.502 867.823Z" fill="#ED7D2B"/>
<path d="M427.536 1119.16L427.98 1094.38C378.602 1100.6 257.712 1035.37 257.712 1035.37C257.712 1035.37 206.055 1069.73 198.983 1167.86C195.537 1215.75 173.696 1418.31 171.279 1478.79C170.403 1500.71 170.112 1516.36 170.001 1522.61C170.014 1522.64 170.014 1522.65 170.001 1522.67C169.973 1524.57 169.07 1526.25 167.903 1527.76C157.691 1540.75 148.826 1554.51 141.143 1568.78C65.7971 1708.97 105.2 1899.46 105.2 1899.46L122.692 1895.02C122.692 1895.02 186.409 1697.55 228.049 1612.13C235.121 1597.64 241.54 1586.37 246.903 1579.85C262.561 1560.83 279.067 1528.54 295.336 1489.68C326.097 1416.2 355.955 1319.25 377.254 1244.16C378.796 1244.43 427.536 1119.16 427.536 1119.16Z" fill="#2B478B"/>
<path d="M716.513 953.743C635.79 935.222 687.364 821.779 692.032 823.78C703.216 821.501 727.781 801.856 749.761 763.509L752.734 766.079L802.307 809.553C802.307 809.553 790.845 826.462 781.202 843.023C773.672 855.986 767.267 868.768 768.281 873.145C772.269 876.285 738.034 958.703 716.513 953.743Z" fill="#FFB27D"/>
<path d="M802.306 809.567C802.306 809.567 790.844 826.448 781.201 843.037C750.371 824.031 750.343 785.878 752.719 766.107L802.306 809.567Z" fill="#ED985F"/>
<path d="M803.682 831.338C803.682 831.338 728.837 789.685 755.485 743.474C782.133 697.263 790.428 660.764 839.348 685.398C888.268 710.032 887.295 732.984 882.154 750.56C877 768.163 823.842 840.98 803.682 831.338Z" fill="#FFB27D"/>
<path d="M894.784 723.62C891.352 703.099 880.932 701.14 873.665 702.515C846.016 656.804 800.862 674.644 800.862 674.644C776.742 704.919 741.869 710.073 741.869 710.073C741.869 710.073 750.552 726.232 786.343 736.235C797.277 739.292 809.684 737.444 821.647 733.415C796.819 747.253 770.851 752.56 770.851 752.56C818.007 756.881 862.883 713.769 867.538 709.156C869.719 715.839 873.526 729.83 871.248 740.056C868.149 753.95 855.812 779.125 863.342 782.377C863.342 782.377 899.938 754.394 894.784 723.62Z" fill="#2C3A64"/>
<path d="M210.598 1904.79H78.0793C78.0793 1904.79 74.8976 1884.59 81.8306 1869.27C88.458 1854.57 98.8505 1847.89 96.3635 1830.09C104.783 1838.76 118.51 1848.48 137.67 1845.89C140.018 1849.7 152.828 1870.07 160.664 1875.69C169.32 1881.92 207.931 1879.71 210.598 1904.79Z" fill="#233862"/>
<path d="M726.002 1043.68C708.955 1049.62 685.016 1052.89 660.535 1055.54C625.689 1059.35 589.718 1061.95 570.864 1069.46C563.987 1072.2 559.388 1075.59 557.957 1079.91C549.787 1104.48 513.789 1142.38 513.789 1142.38C283.041 1131.87 257.712 1035.35 257.712 1035.35C412.961 854.832 675.818 802.577 675.818 802.577C675.818 802.577 694.589 794.616 741.869 832.199C773.422 857.291 769.268 866.919 769.268 866.919C769.268 866.919 776.187 1026.17 726.002 1043.68Z" fill="#F99746"/>
<path d="M660.535 1055.54C625.689 1059.35 589.718 1061.95 570.864 1069.46C563.167 954.382 617.464 867.823 617.464 867.823C617.464 867.823 652.907 1012 660.535 1055.54Z" fill="#ED7D2B"/>
<path d="M696.409 845.552C696.409 845.552 609.072 854.18 602.084 910.922C595.081 967.664 685.808 1198.79 698.798 1219.73C722.46 1257.82 861.745 1388.42 861.745 1388.42L887.42 1372.86C887.42 1372.86 788.622 1205.61 773.325 1189.95C749.302 1165.39 725.975 865.211 696.409 845.552Z" fill="#FFB27D"/>
<path d="M604.598 945.073C604.82 946.365 685.196 971.332 736.909 945.073C736.909 945.073 747.982 825.739 686.224 832.213C624.48 838.688 587.912 858.139 586.355 887.705C584.813 917.257 604.598 945.073 604.598 945.073Z" fill="#F99746"/>
<path d="M853.798 1371.84C853.798 1371.84 885.128 1343.06 898.647 1342.38C912.18 1341.7 952.43 1346.48 953.819 1352.05C955.209 1357.62 912.485 1368.22 910.082 1371.79C907.678 1375.37 881.474 1399.79 869.817 1395.37C858.147 1390.97 853.798 1371.84 853.798 1371.84Z" fill="#FFB27D"/>
</g>
<defs>
<clipPath id="clip0">
<rect width="3000" height="1908.3" fill="white" transform="translate(0.453125 0.570312)"/>
</clipPath>
</defs>
</svg>
