<svg width="57" height="57" viewBox="0 0 57 57" fill="none" xmlns="http://www.w3.org/2000/svg">
<g clip-path="url(#clip0)">
<path d="M52.0605 1.00879H5.9043C3.19038 1.00879 0.982422 3.21674 0.982422 5.93066V51.8682C0.982422 54.5821 3.19038 56.79 5.9043 56.79H52.0605C54.7745 56.79 56.9824 54.5821 56.9824 51.8682V5.93066C56.9824 3.21674 54.7745 1.00879 52.0605 1.00879ZM5.9043 4.29004H52.0605C52.9652 4.29004 53.7012 5.02602 53.7012 5.93066V14.1338H4.26367V5.93066C4.26367 5.02602 4.99966 4.29004 5.9043 4.29004ZM52.0605 53.5088H5.9043C4.99966 53.5088 4.26367 52.7728 4.26367 51.8682V17.415H53.7012V51.8682C53.7012 52.7728 52.9652 53.5088 52.0605 53.5088Z" fill="white"/>
<path d="M34.551 22.47C33.7183 22.1131 32.7537 22.4988 32.3968 23.3316L22.553 46.3004C22.196 47.1331 22.5819 48.0977 23.4147 48.4546C24.2478 48.8116 25.2122 48.4255 25.5689 47.593L35.4127 24.6242C35.7697 23.7913 35.3838 22.8269 34.551 22.47Z" fill="white"/>
<path d="M20.4194 27.8745C19.8532 27.167 18.8206 27.0524 18.1134 27.6184L9.91028 34.1809C9.09008 34.8368 9.08953 36.0866 9.91028 36.7431L18.1134 43.3056C18.821 43.8717 19.8536 43.7569 20.4194 43.0495C20.9854 42.3419 20.8707 41.3094 20.1631 40.7435L13.5614 35.462L20.1631 30.1806C20.8707 29.6146 20.9854 28.5822 20.4194 27.8745Z" fill="white"/>
<path d="M48.0542 34.1809L39.8511 27.6184C39.1435 27.0523 38.111 27.167 37.5451 27.8746C36.9791 28.5821 37.0937 29.6146 37.8014 30.1805L44.4031 35.462L37.8014 40.7434C37.0937 41.3094 36.9791 42.3418 37.5451 43.0494C38.1119 43.7577 39.1445 43.871 39.8511 43.3055L48.0542 36.743C48.8744 36.0871 48.875 34.8374 48.0542 34.1809Z" fill="white"/>
<path d="M9.29492 10.8525C10.201 10.8525 10.9355 10.118 10.9355 9.21191C10.9355 8.30582 10.201 7.57129 9.29492 7.57129C8.38883 7.57129 7.6543 8.30582 7.6543 9.21191C7.6543 10.118 8.38883 10.8525 9.29492 10.8525Z" fill="white"/>
<path d="M15.8574 10.8525C16.7635 10.8525 17.498 10.118 17.498 9.21191C17.498 8.30582 16.7635 7.57129 15.8574 7.57129C14.9513 7.57129 14.2168 8.30582 14.2168 9.21191C14.2168 10.118 14.9513 10.8525 15.8574 10.8525Z" fill="white"/>
<path d="M22.4199 10.8525C23.326 10.8525 24.0605 10.118 24.0605 9.21191C24.0605 8.30582 23.326 7.57129 22.4199 7.57129C21.5138 7.57129 20.7793 8.30582 20.7793 9.21191C20.7793 10.118 21.5138 10.8525 22.4199 10.8525Z" fill="white"/>
<path d="M38.8262 10.8525H48.6699C49.576 10.8525 50.3105 10.118 50.3105 9.21191C50.3105 8.30585 49.576 7.57129 48.6699 7.57129H38.8262C37.9201 7.57129 37.1855 8.30585 37.1855 9.21191C37.1855 10.118 37.9201 10.8525 38.8262 10.8525Z" fill="white"/>
</g>
<defs>
<clipPath id="clip0">
<rect width="56" height="56" fill="white" transform="translate(0.982422 0.899414)"/>
</clipPath>
</defs>
</svg>
