<svg width="31" height="31" viewBox="0 0 31 31" fill="none" xmlns="http://www.w3.org/2000/svg">
<g clip-path="url(#clip0)">
<path d="M17.7852 18.8594C18.4324 18.8594 18.957 18.3347 18.957 17.6875C18.957 17.0403 18.4324 16.5156 17.7852 16.5156C17.1379 16.5156 16.6133 17.0403 16.6133 17.6875C16.6133 18.3347 17.1379 18.8594 17.7852 18.8594Z" fill="white"/>
<path d="M17.7852 13.7617C18.4324 13.7617 18.957 13.2371 18.957 12.5898C18.957 11.9426 18.4324 11.418 17.7852 11.418C17.1379 11.418 16.6133 11.9426 16.6133 12.5898C16.6133 13.2371 17.1379 13.7617 17.7852 13.7617Z" fill="white"/>
<path d="M12.6875 18.8594C13.3347 18.8594 13.8594 18.3347 13.8594 17.6875C13.8594 17.0403 13.3347 16.5156 12.6875 16.5156C12.0403 16.5156 11.5156 17.0403 11.5156 17.6875C11.5156 18.3347 12.0403 18.8594 12.6875 18.8594Z" fill="white"/>
<path d="M12.6875 13.7617C13.3347 13.7617 13.8594 13.2371 13.8594 12.5898C13.8594 11.9426 13.3347 11.418 12.6875 11.418C12.0403 11.418 11.5156 11.9426 11.5156 12.5898C11.5156 13.2371 12.0403 13.7617 12.6875 13.7617Z" fill="white"/>
<path d="M12.6875 23.957C13.3347 23.957 13.8594 23.4324 13.8594 22.7852C13.8594 22.1379 13.3347 21.6133 12.6875 21.6133C12.0403 21.6133 11.5156 22.1379 11.5156 22.7852C11.5156 23.4324 12.0403 23.957 12.6875 23.957Z" fill="white"/>
<path d="M22.8828 13.7617C23.53 13.7617 24.0547 13.2371 24.0547 12.5898C24.0547 11.9426 23.53 11.418 22.8828 11.418C22.2356 11.418 21.7109 11.9426 21.7109 12.5898C21.7109 13.2371 22.2356 13.7617 22.8828 13.7617Z" fill="white"/>
<path d="M7.58984 13.7617C8.23705 13.7617 8.76172 13.2371 8.76172 12.5898C8.76172 11.9426 8.23705 11.418 7.58984 11.418C6.94264 11.418 6.41797 11.9426 6.41797 12.5898C6.41797 13.2371 6.94264 13.7617 7.58984 13.7617Z" fill="white"/>
<path d="M7.58984 23.957C8.23705 23.957 8.76172 23.4324 8.76172 22.7852C8.76172 22.1379 8.23705 21.6133 7.58984 21.6133C6.94264 21.6133 6.41797 22.1379 6.41797 22.7852C6.41797 23.4324 6.94264 23.957 7.58984 23.957Z" fill="white"/>
<path d="M25.5781 2.62891H24.0547V1.45703C24.0547 0.809805 23.53 0.285156 22.8828 0.285156C22.2356 0.285156 21.7109 0.809805 21.7109 1.45703V2.62891H16.3789V1.45703C16.3789 0.809805 15.8543 0.285156 15.207 0.285156C14.5598 0.285156 14.0352 0.809805 14.0352 1.45703V2.62891H8.76172V1.45703C8.76172 0.809805 8.23707 0.285156 7.58984 0.285156C6.94262 0.285156 6.41797 0.809805 6.41797 1.45703V2.62891H4.95312C2.36844 2.62891 0.265625 4.73172 0.265625 7.31641V25.5977C0.265625 28.1823 2.36844 30.2852 4.95312 30.2852H17.6289C18.2761 30.2852 18.8008 29.7605 18.8008 29.1133C18.8008 28.4661 18.2761 27.9414 17.6289 27.9414H4.95312C3.66078 27.9414 2.60938 26.89 2.60938 25.5977V7.31641C2.60938 6.02406 3.66078 4.97266 4.95312 4.97266H6.41797V6.14453C6.41797 6.79176 6.94262 7.31641 7.58984 7.31641C8.23707 7.31641 8.76172 6.79176 8.76172 6.14453V4.97266H14.0352V6.14453C14.0352 6.79176 14.5598 7.31641 15.207 7.31641C15.8543 7.31641 16.3789 6.79176 16.3789 6.14453V4.97266H21.7109V6.14453C21.7109 6.79176 22.2356 7.31641 22.8828 7.31641C23.53 7.31641 24.0547 6.79176 24.0547 6.14453V4.97266H25.5781C26.8705 4.97266 27.9219 6.02406 27.9219 7.31641L27.8265 12.6527C27.8265 13.2999 28.3512 13.8246 28.9984 13.8246C29.6456 13.8246 30.1703 13.2999 30.1703 12.6527L30.2656 7.31641C30.2656 4.73172 28.1628 2.62891 25.5781 2.62891Z" fill="white"/>
<path d="M7.58984 18.8594C8.23705 18.8594 8.76172 18.3347 8.76172 17.6875C8.76172 17.0403 8.23705 16.5156 7.58984 16.5156C6.94264 16.5156 6.41797 17.0403 6.41797 17.6875C6.41797 18.3347 6.94264 18.8594 7.58984 18.8594Z" fill="white"/>
<path d="M28.1415 23.5425C27.4861 23.3108 26.7639 23.033 26.376 22.7287C26.3571 22.7139 26.3263 22.6442 26.3251 22.5369C26.3265 22.3034 26.4584 22.043 26.7018 21.9696C27.1277 21.8406 27.532 21.9254 27.7972 22.1218C28.216 22.5031 28.8645 22.4741 29.2473 22.0563C29.6298 21.6389 29.6025 20.9914 29.1876 20.6073C29.1807 20.6013 29.1814 20.6044 29.1889 20.5963C28.9584 20.3837 28.5543 20.1268 28.03 19.9742V19.8875C28.03 19.3197 27.5697 18.8594 27.0018 18.8594C26.4481 18.8594 25.9737 19.3016 25.9737 19.8978V20.0364C24.1205 20.7099 23.6933 23.2486 25.1069 24.3569C25.7519 24.8626 26.6736 25.2142 27.456 25.4911C27.8757 25.6396 28.033 25.9344 27.9713 26.3014C27.9199 26.6074 27.6562 27.1266 26.9949 27.1309C26.308 27.1359 26.1472 27.1101 25.6461 26.7823C25.1708 26.4714 24.5337 26.6045 24.2228 27.0798C23.9185 27.5449 24.033 28.1943 24.5201 28.5131C25.0667 28.8709 25.4996 29.0481 25.9736 29.1311V29.23C25.9736 29.7979 26.434 30.2582 27.0018 30.2582C27.5555 30.2582 28.0299 29.816 28.0299 29.2198V29.0149C30.5367 28.1091 30.8354 24.4947 28.1415 23.5425Z" fill="white"/>
</g>
<defs>
<clipPath id="clip0">
<rect width="30" height="30" fill="white" transform="translate(0.265625 0.285156)"/>
</clipPath>
</defs>
</svg>
