<svg fill="none" height="33" viewBox="0 0 33 33" width="33" xmlns="http://www.w3.org/2000/svg" xmlns:xlink="http://www.w3.org/1999/xlink"><clipPath id="a"><path d="m.931641.798828h32v32h-32z"/></clipPath><g clip-path="url(#a)" fill="#fff"><path d="m26.4863 22.0301-3.048-3.0449c-1.4722-1.4709-3.7457-1.5928-5.0679-.2717l-1.0376 1.0365c-.4199.4195-1.2323.3164-1.7741-.225l-2.8551-2.8523c-.616-.6154-.5907-1.4048-.2252-1.7699l1.0376-1.0366c1.3778-1.3763 1.1491-3.6457-.272-5.06557l-3.0479-3.04504c-1.47229-1.47077-3.74576-1.59272-5.06801-.27165l-2.27459 2.27234c-2.203649 2.20152-2.545744 5.44492-.85133 8.07082 1.42057 2.2017 9.90833 10.7043 14.22443 13.7416 2.6822 1.8872 6.1377 1.9167 8.2572-.2006l2.2746-2.2723c1.3776-1.3763 1.1491-3.6458-.2721-5.0657zm-1.0533 3.7391-2.2746 2.2723c-1.4218 1.4207-3.8286 1.4179-5.8527-.0063-4.0861-2.8754-12.40594-11.1757-13.72794-13.2247-1.22206-1.8938-.9861-4.142.60099-5.72753l2.27459-2.27241c.642-.64137 1.74236-.40266 2.41736.27172l3.0479 3.04502c.8163.8155.7937 1.8911.272 2.4125l-1.0376 1.0365c-1.19488 1.1937-1.026 3.1731.2253 4.4231l2.855 2.8523c1.2666 1.2654 3.2536 1.3952 4.4248.225l1.0376-1.0366c.5915-.5909 1.6759-.4689 2.4174.2719l3.048 3.0449c.8194.8185.7907 1.894.2719 2.4123z"/><path d="m19.026 6.20498c.5081.09951 1.0007-.23215 1.1-.74039.1089-.55755.598-.96221 1.1629-.96221.6366 0 1.1576.50905 1.1841 1.14479l-.026.20446c-.1037.41323-.3484.89859-.7277 1.44333-2.9616 4.25244-3.3525 4.21294-3.1144 4.98544.0939.3047.3246.5386.6331.642.3763.126 3.199.0913 4.5476.0808.5178-.0041.9343-.4272.9302-.9449-.004-.5178-.428-.9313-.9449-.9303-.8518.0067-1.756.0093-2.4998.0073.4619-.6203 1.1085-1.50718 1.987-2.76868.4791-.68794 1.0912-1.78386 1.0912-2.66838 0-1.69341-1.3728-3.07104-3.0604-3.07104-1.4596 0-2.7226 1.04203-3.0032 2.47773-.0995.50818.232 1.00073.7403 1.10005z"/><path d="m31.9946 8.63845h-.1455c.012-2.04682.0183-4.24516-.007-4.54881-.1171-1.40338-1.6455-2.00688-2.6237-.80783-.4832.59237-2.7198 4.62051-3.3937 5.841-.3446.62406.1077 1.39079.8207 1.39079h3.3159c-.004.5545-.0083 1.0864-.0124 1.566-.0045.5178.4116.9412.9295.9456.4992.011.941-.3997.9456-.9294.0026-.2948.0074-.8695.0127-1.5822h.158c.5178 0 .9375-.4198.9375-.93756 0-.5178-.4197-.93759-.9376-.93759zm-2.021 0h-1.7343c.6489-1.1598 1.2822-2.27253 1.7455-3.0621 0 .81807-.0045 1.91955-.0112 3.0621z"/></g></svg>