<svg width="32" height="32" viewBox="0 0 32 32" fill="none" xmlns="http://www.w3.org/2000/svg">
<g clip-path="url(#clip0)">
<path d="M30.8555 6.63281H23.7622L22.4419 2.63085C22.0728 1.5117 21.033 0.759766 19.8545 0.759766H12.7939C11.6154 0.759766 10.5756 1.5117 10.2065 2.63079L8.88622 6.63281H1.79297C1.2914 6.63281 0.884766 7.03945 0.884766 7.54102V29.0352C0.884766 30.5375 2.10703 31.7598 3.60938 31.7598H29.0391C30.5414 31.7598 31.7637 30.5375 31.7637 29.0352C31.7637 28.0715 31.7637 8.61899 31.7637 7.54102C31.7637 7.03945 31.357 6.63281 30.8555 6.63281ZM11.9315 3.1998C12.0545 2.82678 12.4011 2.57617 12.7939 2.57617H19.8545C20.2472 2.57617 20.5939 2.82678 20.7169 3.19987L21.8495 6.63281H10.799L11.9315 3.1998ZM29.9128 8.44922C29.4759 14.172 24.9088 18.7535 19.1699 19.1916C19.1699 17.5372 17.844 16.3203 16.3242 16.3203C14.8013 16.3203 13.4785 17.5404 13.4785 19.1911C7.75768 18.7492 3.17798 14.1701 2.73611 8.44922H29.9128ZM15.2949 19.166C15.2949 18.5984 15.7567 18.1367 16.3242 18.1367C16.8918 18.1367 17.3535 18.5984 17.3535 19.166V21.1035C17.3535 21.6711 16.8918 22.1328 16.3242 22.1328C15.7567 22.1328 15.2949 21.6711 15.2949 21.1035V19.166ZM13.4785 21.0123V21.1035C13.4785 22.6726 14.7551 23.9492 16.3242 23.9492C17.8934 23.9492 19.1699 22.6726 19.1699 21.1035V21.0123C23.8476 20.7037 27.7813 18.0372 29.9473 14.3146V26.0078H2.70117V14.3146C4.86366 18.0312 8.79352 20.7031 13.4785 21.0123ZM29.9473 29.0352C29.9473 29.5359 29.5398 29.9434 29.0391 29.9434H3.60938C3.10859 29.9434 2.70117 29.5359 2.70117 29.0352V27.8242H29.9473V29.0352Z" fill="white"/>
</g>
<defs>
<clipPath id="clip0">
<rect width="31" height="31" fill="white" transform="translate(0.824219 0.759766)"/>
</clipPath>
</defs>
</svg>
