<svg width="33" height="33" viewBox="0 0 33 33" fill="none" xmlns="http://www.w3.org/2000/svg">
<g clip-path="url(#clip0)">
<path d="M17.9725 20.8405C17.375 20.6292 16.7164 20.3759 16.3628 20.0985C16.3455 20.085 16.3174 20.0214 16.3163 19.9236C16.3176 19.7107 16.4379 19.4732 16.6598 19.4063C17.0481 19.2887 17.4168 19.366 17.6587 19.5451C18.0405 19.8928 18.6318 19.8663 18.9809 19.4853C19.3296 19.1048 19.3048 18.5144 18.9264 18.1641C18.9202 18.1586 18.9208 18.1615 18.9277 18.1541C18.7175 17.9603 18.349 17.726 17.8709 17.5869V17.5078C17.8709 16.9901 17.4512 16.5703 16.9334 16.5703C16.4285 16.5703 15.9959 16.9736 15.9959 17.5172V17.6436C14.3061 18.2576 13.9166 20.5725 15.2055 21.5831C15.7936 22.0442 16.6341 22.3649 17.3475 22.6173C17.7302 22.7527 17.8736 23.0216 17.8173 23.3561C17.7705 23.6352 17.5301 24.1086 16.9271 24.1126C16.3007 24.1171 16.1541 24.0936 15.6972 23.7946C15.2638 23.5112 14.6829 23.6326 14.3994 24.066C14.1219 24.49 14.2263 25.0822 14.6705 25.3729C15.1689 25.6991 15.5636 25.8607 15.9958 25.9364V26.0266C15.9958 26.5444 16.4156 26.9641 16.9333 26.9641C17.4383 26.9641 17.8708 26.5609 17.8708 26.0172V25.8304C20.1566 25.0045 20.4289 21.7087 17.9725 20.8405Z" fill="white"/>
<path d="M31.2189 16.1325C31.3812 15.947 31.4555 15.714 31.4508 15.4962C31.3907 12.736 30.2584 10.2627 27.8316 8.96483C26.3436 8.16945 24.6064 7.93138 22.9211 7.96438C22.9274 7.96438 22.8332 8.08201 25.0423 5.12523C26.5156 3.35346 25.3449 0.666936 23.063 0.522622C22.8641 0.51006 22.672 0.500247 22.4374 0.625998C22.3473 0.674374 22.2623 0.739624 22.1937 0.813813C22.1823 0.82575 21.1717 1.8797 19.4471 2.41845C18.6446 1.11332 17.2952 0.649498 17.228 0.627123C17.0327 0.561998 16.8178 0.560685 16.6062 0.637248C15.8262 0.918314 14.9381 1.56945 14.4161 2.41839C13.4863 2.12795 12.4091 1.53844 11.7076 0.851938C11.5877 0.730249 11.4796 0.629061 11.2744 0.56256C11.1962 0.537122 11.0885 0.516435 10.9847 0.516435C8.5939 0.516435 7.30307 3.29934 8.8209 5.12523L10.9421 7.96438C9.99485 7.94582 9.04228 8.01276 8.12489 8.21226C4.37336 9.02677 2.49159 11.856 2.41234 15.4962C2.40103 16.0138 2.81159 16.4427 3.32922 16.4539C3.84954 16.4643 4.27561 16.0547 4.28686 15.537C4.31767 14.122 4.69736 12.1835 6.33119 10.9842C7.68758 9.98828 9.53528 9.7769 11.203 9.84553C5.0113 18.3707 5.16361 18.1607 5.15211 18.1774C2.27309 22.3642 3.71841 28.1165 8.19121 30.4337C8.41596 30.5499 8.5319 30.6031 8.82403 30.7331C14.1856 33.11 19.6811 33.1104 25.0453 30.7304C25.201 30.6614 25.3641 30.5878 25.5174 30.5124C29.9498 28.3329 31.5371 22.7831 28.9661 18.5712C28.7293 18.1819 29.164 18.8006 22.6602 9.84553C24.3275 9.7769 26.1754 9.98822 27.532 10.9842C29.1658 12.1835 29.5455 14.122 29.5763 15.537C29.595 16.3958 30.6607 16.7718 31.2189 16.1325ZM27.2745 19.4027C29.4337 22.7505 28.1393 27.2526 24.5237 28.9088C19.4799 31.2194 14.3854 31.2216 9.33953 28.9088C5.70762 27.2451 4.43854 22.7369 6.58875 19.4027C6.70144 19.2283 6.177 19.9566 13.3549 10.0735C13.9705 10.1741 14.6145 10.3062 15.2858 10.4696C15.0522 11.3707 14.614 12.2526 13.8693 12.811C13.2758 13.256 13.4134 14.1751 14.097 14.4358C14.1868 14.4701 14.3018 14.4986 14.4325 14.4986C14.7811 14.4986 14.9881 14.3262 15.2186 14.1309C16.0324 13.4418 16.5854 12.5174 16.9317 11.4998C17.2804 12.5241 17.8354 13.4455 18.6448 14.1309C18.8821 14.3319 19.0848 14.4986 19.431 14.4986C19.5391 14.4986 19.6552 14.4783 19.7658 14.4361C20.4516 14.1746 20.5863 13.255 19.9941 12.811C19.2501 12.2531 18.8111 11.3704 18.5776 10.4696C18.6051 10.4696 19.3636 10.2607 20.5085 10.0735C27.7235 20.0079 27.1636 19.231 27.2745 19.4027ZM10.307 3.98166C10.2489 3.90416 10.0325 3.68503 10.046 3.30352C10.0632 2.89715 10.328 2.55995 10.6684 2.44245C11.6076 3.2589 12.8559 3.95072 14.2186 4.31253C14.3346 4.34397 14.757 4.45097 14.8668 4.45097C15.3018 4.48141 15.6891 4.20891 15.821 3.81303C15.9665 3.37659 16.2655 3.0084 16.6479 2.73014C16.8404 2.59014 16.9285 2.55652 16.9285 2.55027C16.932 2.54827 16.931 2.54814 16.9347 2.55027C16.9881 2.56364 17.2745 2.76408 17.4324 2.90627C17.9489 3.3724 18.0066 3.77653 18.1077 3.96328C18.19 4.11522 18.3142 4.24628 18.4802 4.33754C18.7969 4.51185 19.0585 4.45904 19.411 4.37091C20.8993 3.99884 22.1648 3.3379 23.1948 2.44245C23.7403 2.63089 24.0222 3.33996 23.6452 3.86803C23.5894 3.94559 23.6433 3.86522 23.4615 4.1086C23.263 4.3736 22.3102 5.64955 20.4104 8.1922C19.2506 8.37057 18.0586 8.64577 16.9316 8.96396C15.8138 8.64826 14.6203 8.37176 13.453 8.19226C13.4468 8.19126 13.4023 8.12457 10.307 3.98166Z" fill="white"/>
</g>
<defs>
<clipPath id="clip0">
<rect width="32" height="32" fill="white" transform="translate(0.931641 0.515625)"/>
</clipPath>
</defs>
</svg>
