<svg width="33" height="33" viewBox="0 0 33 33" fill="none" xmlns="http://www.w3.org/2000/svg">
<g clip-path="url(#clip0)">
<path d="M7.813 5.74153L11.5625 7.06484V12.3575C11.5625 12.8752 11.9822 13.295 12.5 13.295H25C25.5178 13.295 25.9375 12.8752 25.9375 12.3575V7.06484L28.4375 6.18247V9.85747C28.4375 10.3752 28.8572 10.795 29.375 10.795C29.8928 10.795 30.3125 10.3752 30.3125 9.85747V4.85747C30.3125 4.46003 30.0618 4.10572 29.687 3.97341L19.062 0.223406C18.8601 0.152094 18.6399 0.152094 18.438 0.223406L7.813 3.97341C7.43819 4.10572 7.1875 4.46003 7.1875 4.85747C7.1875 5.25491 7.43819 5.60922 7.813 5.74153V5.74153ZM24.0625 11.42H13.4375V7.72659L18.438 9.49147C18.5389 9.52709 18.6445 9.54491 18.75 9.54491C18.8555 9.54491 18.9611 9.52709 19.062 9.49147L24.0625 7.72659V11.42ZM18.75 2.10166L26.5582 4.85747L18.75 7.61328L10.9418 4.85747L18.75 2.10166Z" fill="white"/>
<path d="M30.2432 17.3313C29.0621 16.9313 27.8096 17.3131 27.0521 18.3037L23.5606 22.8694C23.5612 22.8446 23.5625 22.8199 23.5625 22.7949C23.5625 21.0718 22.1606 19.6699 20.4375 19.6699H14.2355C12.2582 17.9876 9.46362 17.6883 7.1875 18.8666V18.7324C7.1875 18.2146 6.76775 17.7949 6.25 17.7949H1.125C0.60725 17.7949 0.1875 18.2146 0.1875 18.7324V31.2324C0.1875 31.7501 0.60725 32.1699 1.125 32.1699H6.25C6.76775 32.1699 7.1875 31.7501 7.1875 31.2324V30.2949H22.554C24.7974 30.2949 26.8611 29.1683 28.0742 27.2811L31.7329 21.5898C32.0303 21.1272 32.1875 20.592 32.1875 20.0421C32.1875 18.7952 31.4243 17.7311 30.2432 17.3313V17.3313ZM5.3125 30.2949H2.0625V19.6699H5.3125V30.2949ZM30.1558 20.5759L26.4971 26.2672C25.6305 27.6151 24.1564 28.4199 22.554 28.4199H7.1875V21.0898L7.50106 20.8659C9.25975 19.6096 11.6671 19.7851 13.2252 21.2832C13.3998 21.4511 13.6327 21.5449 13.8749 21.5449H20.4374C21.1267 21.5449 21.6874 22.1057 21.6874 22.7949C21.6874 23.4842 21.1267 24.0449 20.4374 24.0449H13.875H13.75C13.2322 24.0449 12.8125 24.4647 12.8125 24.9824C12.8125 25.5002 13.2322 25.9199 13.75 25.9199H13.875H20.4375H21.2719C22.7224 25.9199 24.1143 25.2321 24.9954 24.0799L28.5415 19.4427C28.9404 18.921 29.4847 19.0541 29.642 19.1074C29.7993 19.1607 30.3125 19.3854 30.3125 20.0423C30.3125 20.2318 30.2583 20.4163 30.1558 20.5759V20.5759Z" fill="white"/>
</g>
<defs>
<clipPath id="clip0">
<rect width="32" height="32" fill="white" transform="translate(0.1875 0.169922)"/>
</clipPath>
</defs>
</svg>
