<svg width="272" height="34" viewBox="0 0 272 34" fill="none" xmlns="http://www.w3.org/2000/svg">
<path d="M4.70001 9.40002C7.29575 9.40002 9.40002 7.29575 9.40002 4.70001C9.40002 2.10427 7.29575 0 4.70001 0C2.10427 0 0 2.10427 0 4.70001C0 7.29575 2.10427 9.40002 4.70001 9.40002Z" fill="#5E72E4"/>
<path d="M35.5 9.40002C38.0957 9.40002 40.2 7.29575 40.2 4.70001C40.2 2.10427 38.0957 0 35.5 0C32.9043 0 30.8 2.10427 30.8 4.70001C30.8 7.29575 32.9043 9.40002 35.5 9.40002Z" fill="#5E72E4"/>
<path d="M66.3 9.40002C68.8958 9.40002 71 7.29575 71 4.70001C71 2.10427 68.8958 0 66.3 0C63.7043 0 61.6 2.10427 61.6 4.70001C61.6 7.29575 63.7043 9.40002 66.3 9.40002Z" fill="#5E72E4"/>
<path d="M97.1 9.40002C99.6957 9.40002 101.8 7.29575 101.8 4.70001C101.8 2.10427 99.6957 0 97.1 0C94.5042 0 92.4 2.10427 92.4 4.70001C92.4 7.29575 94.5042 9.40002 97.1 9.40002Z" fill="#5E72E4"/>
<path d="M127.9 9.40002C130.496 9.40002 132.6 7.29575 132.6 4.70001C132.6 2.10427 130.496 0 127.9 0C125.304 0 123.2 2.10427 123.2 4.70001C123.2 7.29575 125.304 9.40002 127.9 9.40002Z" fill="#5E72E4"/>
<path d="M158.7 9.40002C161.296 9.40002 163.4 7.29575 163.4 4.70001C163.4 2.10427 161.296 0 158.7 0C156.104 0 154 2.10427 154 4.70001C154 7.29575 156.104 9.40002 158.7 9.40002Z" fill="#5E72E4"/>
<path d="M189.5 9.40002C192.096 9.40002 194.2 7.29575 194.2 4.70001C194.2 2.10427 192.096 0 189.5 0C186.904 0 184.8 2.10427 184.8 4.70001C184.8 7.29575 186.904 9.40002 189.5 9.40002Z" fill="#5E72E4"/>
<path d="M220.3 9.40002C222.896 9.40002 225 7.29575 225 4.70001C225 2.10427 222.896 0 220.3 0C217.704 0 215.6 2.10427 215.6 4.70001C215.6 7.29575 217.704 9.40002 220.3 9.40002Z" fill="#5E72E4"/>
<path d="M251.1 9.40002C253.696 9.40002 255.8 7.29575 255.8 4.70001C255.8 2.10427 253.696 0 251.1 0C248.504 0 246.4 2.10427 246.4 4.70001C246.4 7.29575 248.504 9.40002 251.1 9.40002Z" fill="#5E72E4"/>
<path d="M20.3 33.8C22.8957 33.8 25 31.6957 25 29.1C25 26.5042 22.8957 24.4 20.3 24.4C17.7042 24.4 15.6 26.5042 15.6 29.1C15.6 31.6957 17.7042 33.8 20.3 33.8Z" fill="#5E72E4"/>
<path d="M51.1 33.8C53.6957 33.8 55.8 31.6957 55.8 29.1C55.8 26.5042 53.6957 24.4 51.1 24.4C48.5042 24.4 46.4 26.5042 46.4 29.1C46.4 31.6957 48.5042 33.8 51.1 33.8Z" fill="#5E72E4"/>
<path d="M81.9 33.8C84.4958 33.8 86.6 31.6957 86.6 29.1C86.6 26.5042 84.4958 24.4 81.9 24.4C79.3043 24.4 77.2 26.5042 77.2 29.1C77.2 31.6957 79.3043 33.8 81.9 33.8Z" fill="#5E72E4"/>
<path d="M112.7 33.8C115.296 33.8 117.4 31.6957 117.4 29.1C117.4 26.5042 115.296 24.4 112.7 24.4C110.104 24.4 108 26.5042 108 29.1C108 31.6957 110.104 33.8 112.7 33.8Z" fill="#5E72E4"/>
<path d="M143.5 33.8C146.096 33.8 148.2 31.6957 148.2 29.1C148.2 26.5042 146.096 24.4 143.5 24.4C140.904 24.4 138.8 26.5042 138.8 29.1C138.8 31.6957 140.904 33.8 143.5 33.8Z" fill="#5E72E4"/>
<path d="M174.3 33.8C176.896 33.8 179 31.6957 179 29.1C179 26.5042 176.896 24.4 174.3 24.4C171.704 24.4 169.6 26.5042 169.6 29.1C169.6 31.6957 171.704 33.8 174.3 33.8Z" fill="#5E72E4"/>
<path d="M205.1 33.8C207.696 33.8 209.8 31.6957 209.8 29.1C209.8 26.5042 207.696 24.4 205.1 24.4C202.504 24.4 200.4 26.5042 200.4 29.1C200.4 31.6957 202.504 33.8 205.1 33.8Z" fill="#5E72E4"/>
<path d="M235.9 33.8C238.496 33.8 240.6 31.6957 240.6 29.1C240.6 26.5042 238.496 24.4 235.9 24.4C233.304 24.4 231.2 26.5042 231.2 29.1C231.2 31.6957 233.304 33.8 235.9 33.8Z" fill="#5E72E4"/>
<path d="M266.7 33.8C269.296 33.8 271.4 31.6957 271.4 29.1C271.4 26.5042 269.296 24.4 266.7 24.4C264.104 24.4 262 26.5042 262 29.1C262 31.6957 264.104 33.8 266.7 33.8Z" fill="#5E72E4"/>
</svg>
