<svg width="32" height="33" viewBox="0 0 32 33" fill="none" xmlns="http://www.w3.org/2000/svg">
<g clip-path="url(#clip0)">
<path d="M28.3965 12.1754C28.2074 11.6923 27.6625 11.4539 27.1794 11.643L15.9992 16.0179L4.81902 11.643C4.33589 11.4539 3.79101 11.6923 3.60195 12.1754C3.4129 12.6585 3.6513 13.2035 4.13443 13.3925L6.36735 14.2663L7.16472 15.3294C7.96529 16.3968 7.70847 17.918 6.59405 18.6609C5.15699 19.619 4.44291 21.3837 4.8172 23.0521C5.98173 28.2425 10.6126 32.0559 15.9992 32.0559C21.3824 32.0559 26.016 28.2457 27.1813 23.0521C27.5555 21.3836 26.8415 19.619 25.4044 18.6609C24.2961 17.9219 24.0288 16.4026 24.8337 15.3294L25.6311 14.2662L27.864 13.3924C28.3472 13.2035 28.5855 12.6586 28.3965 12.1754ZM15.9992 17.9659C16.5863 17.9659 17.0638 18.4434 17.0638 19.0305C17.0638 19.6175 16.5863 20.095 15.9992 20.095C15.4122 20.095 14.9346 19.6175 14.9346 19.0305C14.9346 18.4434 15.4122 17.9659 15.9992 17.9659ZM24.3623 20.224C25.1574 20.7541 25.5535 21.7253 25.3482 22.6408C24.3684 27.0077 20.4366 30.1772 15.9992 30.1772C11.5618 30.1772 7.63001 27.0077 6.65028 22.6408C6.44488 21.7253 6.84103 20.7541 7.63608 20.224C9.19588 19.1841 9.89268 17.2084 9.30115 15.4143L13.7369 17.15C13.312 17.6603 13.056 18.316 13.056 19.0305C13.056 20.6534 14.3763 21.9737 15.9992 21.9737C17.6221 21.9737 18.9425 20.6534 18.9425 19.0305C18.9425 18.316 18.6864 17.6603 18.2615 17.15L22.6974 15.4143C22.138 17.1111 22.7075 19.1208 24.3623 20.224Z" fill="white"/>
<path d="M15.9989 12.4551C18.7268 12.4551 20.9461 10.2358 20.9461 7.5079C20.9461 6.18638 20.434 4.93543 19.5041 3.98552C17.5617 2.00114 14.4366 2.0007 12.4937 3.98552C11.5638 4.93543 11.0518 6.18638 11.0518 7.5079C11.0518 10.2358 13.271 12.4551 15.9989 12.4551ZM15.9989 4.37678C17.6909 4.37678 19.0674 5.7814 19.0674 7.5079C19.0674 9.19989 17.6909 10.5764 15.9989 10.5764C14.3069 10.5764 12.9304 9.19989 12.9304 7.5079C12.9304 5.7814 14.3069 4.37678 15.9989 4.37678Z" fill="white"/>
<path d="M15.0786 7.69054C15.1829 8.19309 15.6585 8.52649 16.1833 8.42823C16.6937 8.32178 17.0178 7.84084 16.921 7.32358C16.8046 6.7658 16.2511 6.45219 15.7268 6.60843C15.2291 6.77062 14.9934 7.23778 15.0786 7.69054Z" fill="white"/>
<path d="M25.0165 5.94216C26.6394 5.94216 27.9597 4.62183 27.9597 2.99891C27.9597 1.37599 26.6394 0.0556641 25.0165 0.0556641C23.3936 0.0556641 22.0732 1.37599 22.0732 2.99891C22.0732 4.62183 23.3936 5.94216 25.0165 5.94216ZM25.0165 1.93433C25.6035 1.93433 26.0811 2.41189 26.0811 2.99891C26.0811 3.58593 25.6035 4.06349 25.0165 4.06349C24.4295 4.06349 23.9519 3.58593 23.9519 2.99891C23.9519 2.41189 24.4295 1.93433 25.0165 1.93433Z" fill="white"/>
<path d="M6.98133 5.94216C8.60425 5.94216 9.92458 4.62183 9.92458 2.99891C9.92458 1.37599 8.60425 0.0556641 6.98133 0.0556641C5.35841 0.0556641 4.03809 1.37599 4.03809 2.99891C4.03809 4.62183 5.35841 5.94216 6.98133 5.94216ZM6.98133 1.93433C7.56835 1.93433 8.04591 2.41189 8.04591 2.99891C8.04591 3.58593 7.56835 4.06349 6.98133 4.06349C6.39431 4.06349 5.91675 3.58593 5.91675 2.99891C5.91675 2.41189 6.39431 1.93433 6.98133 1.93433Z" fill="white"/>
</g>
<defs>
<clipPath id="clip0">
<rect width="32" height="32" fill="white" transform="translate(0 0.0556641)"/>
</clipPath>
</defs>
</svg>
