<svg fill="none" height="31" viewBox="0 0 30 31" width="30" xmlns="http://www.w3.org/2000/svg" xmlns:xlink="http://www.w3.org/1999/xlink"><clipPath id="a"><path d="m0 .986328h30v30h-30z"/></clipPath><g clip-path="url(#a)" fill="#fff"><path d="m28.125 13.2324h-3.75c-.4854 0-.8789.3935-.8789.8789v.9961h-2.8711c-.4854 0-.8789.3935-.8789.8789v.9961h-2.8711c-.3619 0-.6724.2188-.8071.5312-1.5306-2.0293-3.9611-3.3437-6.6929-3.3437-4.62018 0-8.378906 3.7588-8.378906 8.3789 0 4.6202 3.758726 8.3789 8.378906 8.3789 2.6896 0 5.0869-1.2741 6.6211-3.2501v2.4298c0 .4854.3935.8789.8789.8789h11.25c.4854 0 .8789-.3935.8789-.8789v-15.9961c0-.4854-.3935-.8789-.8789-.8789zm-18.75 15.9375c-3.65092 0-6.62109-2.9702-6.62109-6.6211s2.97017-6.6211 6.62109-6.6211c3.6509 0 6.6211 2.9702 6.6211 6.6211s-2.9702 6.6211-6.6211 6.6211zm8.3789-10.4297h1.9922v10.4883h-1.9922zm3.75-1.875h1.9922v12.3633h-1.9922c0-.4286 0-12.0267 0-12.3633zm5.7422 12.3633h-1.9922c0-.5708 0-13.755 0-14.2383h1.9922z"/><path d="m29.003 1.85803c-.0036-.48721-.4025-.871702-.8785-.871702h-3.8086c-.4853 0-.8789.393512-.8789.878902s.3936.87891.8789.87891h1.6868l-9.7497 9.74966c-.3432.3432-.3432.8997 0 1.2429.3433.3433.8997.3433 1.243 0l9.7496-9.74961v1.68674c0 .48539.3935.8789.8789.8789s.8789-.39351.8789-.8789c0-4.30647.0002-3.76688-.0004-3.8158z"/><path d="m10.351 21.6887c-.43791-.1549-1.15205-.4152-1.50988-.6958-.02168-.017-.06223-.119-.03375-.2706.01371-.0728.07664-.3157.31242-.3868.3641-.1103.70969-.0378.93641.1301.358.3259.9123.3012 1.2396-.056.3269-.3568.3037-.9103-.051-1.2386 0 0-.4073-.3626-.9896-.5342v-.0723c0-.4854-.3935-.879-.87889-.879s-.8789.3936-.8789.879v.1271c-1.57981.5746-1.95129 2.7356-.74098 3.6846.55137.4323 1.33928.7329 2.00812.9696.43575.1541.47995.4665.44045.7015-.044.2615-.26929.7051-.83461.7088-.58605.0038-.72509-.0177-1.15283-.2977-.40623-.2658-.95086-.1522-1.21676.2541-.26584.4061-.1521.9509.25407 1.2167.46722.3058.8373.4573 1.24248.5283v.0846c0 .4853.39351.8789.8789.8789s.87895-.3936.87895-.8789v-.184c2.1294-.7696 2.4119-3.8502.0958-4.6694z"/></g></svg>