<svg fill="none" height="31" viewBox="0 0 31 31" width="31" xmlns="http://www.w3.org/2000/svg" xmlns:xlink="http://www.w3.org/1999/xlink"><clipPath id="a"><path d="m.258301.646484h30v30h-30z"/></clipPath><g clip-path="url(#a)" fill="#fff"><path d="m17.7778 19.2207c.6472 0 1.1719-.5247 1.1719-1.1719s-.5247-1.1718-1.1719-1.1718-1.1718.5246-1.1718 1.1718.5246 1.1719 1.1718 1.1719z"/><path d="m17.7778 14.123c.6472 0 1.1719-.5246 1.1719-1.1718s-.5247-1.1719-1.1719-1.1719-1.1718.5247-1.1718 1.1719.5246 1.1718 1.1718 1.1718z"/><path d="m12.6802 19.2207c.6472 0 1.1719-.5247 1.1719-1.1719s-.5247-1.1718-1.1719-1.1718-1.1719.5246-1.1719 1.1718.5247 1.1719 1.1719 1.1719z"/><path d="m12.6802 14.123c.6472 0 1.1719-.5246 1.1719-1.1718s-.5247-1.1719-1.1719-1.1719-1.1719.5247-1.1719 1.1719.5247 1.1718 1.1719 1.1718z"/><path d="m12.6802 24.3184c.6472 0 1.1719-.5247 1.1719-1.1719s-.5247-1.1719-1.1719-1.1719-1.1719.5247-1.1719 1.1719.5247 1.1719 1.1719 1.1719z"/><path d="m22.8755 14.123c.6472 0 1.1719-.5246 1.1719-1.1718s-.5247-1.1719-1.1719-1.1719-1.1719.5247-1.1719 1.1719.5247 1.1718 1.1719 1.1718z"/><path d="m7.58252 14.123c.64721 0 1.17187-.5246 1.17187-1.1718s-.52466-1.1719-1.17187-1.1719-1.17188.5247-1.17188 1.1719.52467 1.1718 1.17188 1.1718z"/><path d="m7.58252 24.3184c.64721 0 1.17187-.5247 1.17187-1.1719s-.52466-1.1719-1.17187-1.1719-1.17188.5247-1.17188 1.1719.52467 1.1719 1.17188 1.1719z"/><path d="m25.5708 2.99023h-1.5234v-1.17187c0-.64723-.5247-1.171876-1.1719-1.171876s-1.1719.524646-1.1719 1.171876v1.17187h-5.332v-1.17187c0-.64723-.5247-1.171876-1.1719-1.171876s-1.1719.524646-1.1719 1.171876v1.17187h-5.27341v-1.17187c0-.64723-.52464-1.171876-1.17187-1.171876s-1.17188.524646-1.17188 1.171876v1.17187h-1.46484c-2.58469 0-4.687499 2.10282-4.687499 4.6875v18.28127c0 2.5847 2.102809 4.6875 4.687499 4.6875h7.6758c.6472 0 1.1719-.5247 1.1719-1.1719s-.5247-1.1719-1.1719-1.1719h-7.6758c-1.29234 0-2.34375-1.0514-2.34375-2.3437v-18.28127c0-1.29234 1.05141-2.34375 2.34375-2.34375h1.46484v1.17188c0 .64723.52465 1.17187 1.17188 1.17187s1.17187-.52464 1.17187-1.17187v-1.17188h5.27341v1.17188c0 .64723.5247 1.17187 1.1719 1.17187s1.1719-.52464 1.1719-1.17187v-1.17188h5.332v1.17188c0 .64723.5247 1.17187 1.1719 1.17187s1.1719-.52464 1.1719-1.17187v-1.17188h1.5234c1.2923 0 2.3438 1.05141 2.3438 2.34375v7.03127c0 .6472.5246 1.1719 1.1718 1.1719.6473 0 1.1719-.5247 1.1719-1.1719v-7.03127c0-2.58468-2.1028-4.6875-4.6875-4.6875z"/><path d="m7.58252 19.2207c.64721 0 1.17187-.5247 1.17187-1.1719s-.52466-1.1718-1.17187-1.1718-1.17188.5246-1.17188 1.1718.52467 1.1719 1.17188 1.1719z"/><path clip-rule="evenodd" d="m28.6369 21.1027c.4815.3704.5716 1.0611.2011 1.5426l-5.7556 7.4818c-.208.2703-.5296.4289-.8707.4293-.3411.0003-.6631-.1576-.8716-.4275l-3.2609-4.2208c-.3714-.4807-.2828-1.1715.198-1.543.4807-.3714 1.1715-.2827 1.5429.198l2.3886 3.0916 4.8856-6.3508c.3704-.4816 1.0611-.5716 1.5426-.2012z" fill-rule="evenodd"/></g></svg>