<svg fill="none" height="29" viewBox="0 0 33 29" width="33" xmlns="http://www.w3.org/2000/svg"><path clip-rule="evenodd" d="m20.6115 5.84985c0 2.02063-1.6381 3.65868-3.6587 3.65868-2.0207 0-3.6587-1.63805-3.6587-3.65868s1.638-3.65868 3.6587-3.65868c2.0206 0 3.6587 1.63805 3.6587 3.65868zm-2.8259 5.36945c2.6051-.4008 4.6-2.65216 4.6-5.36945 0-3.00048-2.4323-5.432858-5.4328-5.432858s-5.4329 2.432378-5.4329 5.432858c0 2.67944 1.9397 4.90585 4.4915 5.35165v3.1607h-10.30611v.2483h-.00013v3.3402c-2.82259.1957-5.051596 2.5474-5.051596 5.4197 0 3.0005 2.432376 5.4329 5.432856 5.4329 3.00049 0 5.43288-2.4324 5.43288-5.4329 0-2.519-1.71436-4.6375-4.03996-5.2526v-1.9814h18.92816v1.8616c-2.6147.3925-4.6197 2.6483-4.6197 5.3724 0 3.0005 2.4324 5.4329 5.4329 5.4329s5.4329-2.4324 5.4329-5.4329c0-2.6725-1.9298-4.8944-4.4719-5.3481v-1.8859h.0185v-1.7742h-10.4146zm-11.69918 15.8098c2.02064 0 3.65868-1.638 3.65868-3.6587 0-2.0206-1.63804-3.6586-3.65868-3.6586-2.02063 0-3.65868 1.638-3.65868 3.6586 0 2.0207 1.63805 3.6587 3.65868 3.6587zm24.79298-3.6587c0 2.0207-1.6381 3.6587-3.6587 3.6587s-3.6587-1.638-3.6587-3.6587c0-2.0206 1.6381-3.6586 3.6587-3.6586s3.6587 1.638 3.6587 3.6586z" fill="#fff" fill-rule="evenodd"/></svg>