<svg width="58" height="57" viewBox="0 0 58 57" fill="none" xmlns="http://www.w3.org/2000/svg">
<g clip-path="url(#clip0)">
<path d="M57.0882 5.07896C56.9649 2.85449 55.1652 1.08556 52.9024 0.964158C48.3365 0.71894 39.4018 0.957487 30.8583 5.30153C26.503 7.51616 21.8968 11.2709 18.2208 15.603C18.1756 15.6564 18.1315 15.7101 18.0866 15.7636L9.74422 16.3971C8.37104 16.5014 7.14795 17.209 6.38849 18.3382L0.697053 26.8007C0.121056 27.6571 0.0294879 28.7289 0.451945 29.6677C0.874514 30.6065 1.74279 31.2608 2.77474 31.418L9.80319 32.4881C9.77838 32.6224 9.75346 32.7566 9.73065 32.8909C9.49667 34.2669 9.9604 35.6815 10.9713 36.6752L20.7614 46.2994C21.5995 47.1234 22.732 47.5776 23.8925 47.5776C24.1315 47.5776 24.3718 47.5582 24.611 47.519C24.7476 47.4965 24.8841 47.472 25.0208 47.4477L26.1093 54.3571C26.2692 55.3715 26.9348 56.2252 27.8896 56.6405C28.2869 56.8133 28.7074 56.8986 29.126 56.8986C29.7138 56.8985 30.2974 56.7303 30.8061 56.3997L39.4146 50.8046C40.5633 50.0579 41.283 48.8555 41.3889 47.5057L42.0333 39.3049C42.0877 39.2607 42.1425 39.2174 42.1968 39.1729C46.6037 35.5592 50.4233 31.0311 52.676 26.7495C57.0951 18.3505 57.3374 9.56716 57.0882 5.07896ZM37.5738 48.0674L29.3392 53.4194L28.2783 46.6857C31.7585 45.6798 35.2012 44.0687 38.4811 41.9104L38.0613 47.2529C38.0352 47.5861 37.8574 47.8831 37.5738 48.0674ZM23.1215 43.9793L13.3314 34.355C13.0816 34.1094 12.9661 33.7643 13.0227 33.4319C13.3138 31.721 13.7661 30.0922 14.3259 28.5579L29.0155 42.9985C27.141 43.6586 25.4619 44.0523 24.0606 44.2827C23.7219 44.338 23.3713 44.2248 23.1215 43.9793ZM10.0013 19.6686L15.4358 19.2559C13.2401 22.4802 11.6013 25.8646 10.578 29.2858L3.72835 28.2429L9.17279 20.1479C9.36037 19.869 9.66245 19.6943 10.0013 19.6686ZM40.059 36.653C37.3628 38.8638 34.7456 40.4629 32.3333 41.6199L15.7308 25.2989C17.2727 22.2031 19.1544 19.6253 20.784 17.7049C24.1858 13.6957 28.4167 10.2372 32.3919 8.21594C40.2329 4.22889 48.4941 4.01419 52.7207 4.24038C53.2801 4.27035 53.7251 4.70774 53.7555 5.25778C53.986 9.41272 53.7671 17.5338 49.7113 25.242C47.6553 29.1498 44.1372 33.3089 40.059 36.653Z" fill="white"/>
<path d="M39.2115 26.7378C41.348 26.7376 43.4853 25.9381 45.1118 24.3391C46.6879 22.7898 47.5557 20.7299 47.5557 18.5389C47.5557 16.3479 46.6878 14.2879 45.1118 12.7386C41.8583 9.54015 36.5645 9.54037 33.3113 12.7386C31.7351 14.2879 30.8672 16.3479 30.8672 18.5389C30.8672 20.7299 31.7352 22.7898 33.3113 24.3391C34.9381 25.9384 37.0743 26.7381 39.2115 26.7378ZM35.6712 15.0587C36.6472 14.0991 37.9292 13.6194 39.2113 13.6194C40.4935 13.6194 41.7755 14.0991 42.7515 15.0587C43.6971 15.9882 44.2178 17.2242 44.2178 18.5388C44.2178 19.8533 43.6971 21.0894 42.7515 22.019C40.7996 23.9379 37.6232 23.9378 35.6711 22.019C34.7255 21.0894 34.2047 19.8534 34.2047 18.5389C34.2047 17.2243 34.7256 15.9882 35.6712 15.0587Z" fill="white"/>
<path d="M1.89151 47.0479C2.31864 47.0479 2.74577 46.8878 3.07154 46.5673L8.52032 41.2109C9.17208 40.5701 9.17208 39.5314 8.52032 38.8907C7.86866 38.25 6.81191 38.25 6.16014 38.8907L0.71148 44.2471C0.0597148 44.8878 0.0597148 45.9266 0.71148 46.5673C1.03725 46.8876 1.46438 47.0479 1.89151 47.0479Z" fill="white"/>
<path d="M13.5141 43.7999C12.8624 43.1592 11.8057 43.1592 11.1539 43.7999L0.678277 54.0981C0.0265117 54.7388 0.0265117 55.7775 0.678277 56.4183C1.00416 56.7386 1.43118 56.8987 1.85831 56.8987C2.28544 56.8987 2.71257 56.7386 3.03834 56.4181L13.514 46.12C14.1659 45.4793 14.1659 44.4406 13.5141 43.7999Z" fill="white"/>
<path d="M16.1466 48.7081L10.6978 54.0645C10.046 54.7052 10.046 55.744 10.6978 56.3847C11.0237 56.705 11.4508 56.8653 11.8778 56.8653C12.3049 56.8653 12.7321 56.7051 13.0579 56.3847L18.5066 51.0283C19.1584 50.3875 19.1584 49.3488 18.5066 48.7081C17.855 48.0674 16.7982 48.0674 16.1466 48.7081Z" fill="white"/>
</g>
<defs>
<clipPath id="clip0">
<rect width="56.9655" height="56" fill="white" transform="translate(0.189453 0.898438)"/>
</clipPath>
</defs>
</svg>
