<svg fill="none" height="33" viewBox="0 0 32 33" width="32" xmlns="http://www.w3.org/2000/svg" xmlns:xlink="http://www.w3.org/1999/xlink"><clipPath id="a"><path d="m0 .986328h32v32h-32z"/></clipPath><g clip-path="url(#a)" fill="#fff"><path d="m30.0557 18.1471c-1.1809-.3997-2.4336-.0181-3.1911.9724l-3.4915 4.5658c.0006-.0249.0019-.0496.0019-.0746 0-1.7231-1.4019-3.125-3.125-3.125h-6.2019c-1.9773-1.6821-4.77191-1.9815-7.0481-.8033v-.1342c0-.5177-.41975-.9375-.9375-.9375h-5.125c-.51775 0-.9375.4198-.9375.9375v12.5001c0 .5177.41975.9375.9375.9375h5.125c.51775 0 .9375-.4198.9375-.9375v-.9375h15.3665c2.2435 0 4.3071-1.1267 5.5202-3.0139l3.6587-5.6912c.2974-.4626.4545-.9978.4545-1.5478.0001-1.2468-.7631-2.311-1.9442-2.7108zm-24.9307 12.9637h-3.25v-10.6251h3.25zm24.8432-9.7191-3.6587 5.6914c-.8665 1.3479-2.3405 2.1526-3.943 2.1526h-15.3665v-7.33l.31356-.224c1.75882-1.2563 4.16604-1.0808 5.72424.4174.1746.1679.4074.2617.6497.2617h6.5625c.6893 0 1.25.5608 1.25 1.25 0 .6893-.5607 1.25-1.25 1.25h-6.5625-.125c-.5177 0-.9375.4198-.9375.9375 0 .5178.4198.9375.9375.9375h.125 6.5625.8344c1.4505 0 2.8424-.6879 3.7235-1.8401l3.5461-4.6371c.3991-.5218.9431-.3886 1.1005-.3354.1573.0534.6705.2781.6705.9349 0 .1896-.0542.3741-.1568.5336z"/><path d="m16.3786 12.2183c.593.388 1.0113.5243 1.516.5679v.3876c0 .3452.2798.625.625.625.3451 0 .625-.2798.625-.625v-.4476c1.0385-.2634 1.7041-1.1505 1.8512-2.0252.1891-1.1253-.422-2.1423-1.5206-2.53067-.1088-.03844-.2197-.07844-.3306-.11963v-2.01943c.1909.07037.2903.16606.3045.1805.2273.2565.6193.28212.8782.05656.2602-.22669.2875-.6215.0607-.88175-.2077-.23844-.6366-.53719-1.2434-.64225v-.3205c0-.34513-.2799-.625-.625-.625-.3452 0-.625.27987-.625.625v.389c-.0385.01019-.0774.021-.1166.03281-.7408.22313-1.2941.85556-1.4439 1.65044-.1374.72944.0994 1.43519.6181 1.842.2448.19206.5432.36806.9424.55106v2.63946c-.2825-.0397-.4941-.1355-.8317-.3563-.2888-.1891-.6762-.1079-.8652.1809-.1889.2888-.108.6761.1809.8651zm2.766-2.83578c.6763.28487.6595.86708.6185 1.11128-.057.3388-.267.6949-.6185.8962zm-1.421-2.02794c-.1479-.11588-.211-.362-.1611-.62694.0362-.19206.1413-.41344.332-.55975v1.30706c-.0615-.03943-.1189-.07956-.1709-.12037z"/><path d="m18.5625 16.6113c4.3078 0 7.8125-3.5047 7.8125-7.81247 0-4.30781-3.5047-7.812502-7.8125-7.812502s-7.8125 3.504692-7.8125 7.812502c0 4.30777 3.5047 7.81247 7.8125 7.81247zm0-13.74997c3.2739 0 5.9375 2.66356 5.9375 5.9375 0 3.27397-2.6636 5.93747-5.9375 5.93747s-5.9375-2.6635-5.9375-5.93747c0-3.27394 2.6636-5.9375 5.9375-5.9375z"/></g></svg>