<svg width="17" height="17" viewBox="0 0 17 17" fill="none" xmlns="http://www.w3.org/2000/svg">
<g clip-path="url(#clip0)">
<path d="M16.55 5.63031C16.5125 4.78017 16.375 4.19571 16.1781 3.68926C15.9749 3.15168 15.6624 2.67038 15.2529 2.27028C14.8528 1.86395 14.3683 1.54822 13.8369 1.34823C13.3276 1.15129 12.7461 1.01381 11.896 0.976328C11.0395 0.935671 10.7676 0.92627 8.59531 0.92627C6.42301 0.92627 6.15111 0.935671 5.29779 0.973154C4.44765 1.01064 3.86319 1.14824 3.35686 1.34505C2.81916 1.54822 2.33787 1.86078 1.93776 2.27028C1.53143 2.67038 1.21582 3.15485 1.01571 3.68621C0.81877 4.19571 0.681292 4.777 0.643809 5.62714C0.603151 6.48363 0.59375 6.75553 0.59375 8.92783C0.59375 11.1001 0.603151 11.372 0.640634 12.2254C0.678117 13.0755 0.815717 13.66 1.01266 14.1664C1.21582 14.704 1.53143 15.1853 1.93776 15.5854C2.33787 15.9917 2.82233 16.3074 3.35369 16.5074C3.86319 16.7044 4.44448 16.8419 5.29474 16.8793C6.14794 16.9169 6.41996 16.9262 8.59226 16.9262C10.7646 16.9262 11.0365 16.9169 11.8898 16.8793C12.7399 16.8419 13.3244 16.7044 13.8307 16.5074C14.906 16.0917 15.7561 15.2416 16.1719 14.1664C16.3687 13.6569 16.5063 13.0755 16.5438 12.2254C16.5812 11.372 16.5906 11.1001 16.5906 8.92783C16.5906 6.75553 16.5875 6.48363 16.55 5.63031ZM15.1092 12.1628C15.0747 12.9442 14.9435 13.3662 14.8341 13.6475C14.5652 14.3445 14.012 14.8977 13.315 15.1666C13.0337 15.276 12.6087 15.4072 11.8303 15.4416C10.9864 15.4792 10.7333 15.4884 8.59849 15.4884C6.46367 15.4884 6.2074 15.4792 5.36653 15.4416C4.58513 15.4072 4.16317 15.276 3.88187 15.1666C3.535 15.0384 3.21926 14.8352 2.96299 14.5696C2.69731 14.3101 2.49415 13.9975 2.36595 13.6507C2.25655 13.3694 2.1253 12.9442 2.09099 12.166C2.05339 11.3221 2.04411 11.0689 2.04411 8.93406C2.04411 6.79924 2.05339 6.54297 2.09099 5.70223C2.1253 4.92082 2.25655 4.49887 2.36595 4.21756C2.49415 3.87057 2.69731 3.55496 2.96616 3.29856C3.22549 3.03288 3.53805 2.82972 3.88504 2.70164C4.16635 2.59224 4.59148 2.46099 5.36971 2.42656C6.21362 2.38908 6.46685 2.37968 8.60154 2.37968C10.7395 2.37968 10.9926 2.38908 11.8335 2.42656C12.6149 2.46099 13.0369 2.59224 13.3182 2.70164C13.665 2.82972 13.9808 3.03288 14.237 3.29856C14.5027 3.55801 14.7059 3.87057 14.8341 4.21756C14.9435 4.49887 15.0747 4.92388 15.1092 5.70223C15.1466 6.54614 15.156 6.79924 15.156 8.93406C15.156 11.0689 15.1466 11.3189 15.1092 12.1628Z" fill="#5E72E4"/>
<path d="M8.59553 4.81766C6.32641 4.81766 4.48535 6.65859 4.48535 8.92783C4.48535 11.1971 6.32641 13.038 8.59553 13.038C10.8648 13.038 12.7057 11.1971 12.7057 8.92783C12.7057 6.65859 10.8648 4.81766 8.59553 4.81766ZM8.59553 11.594C7.12344 11.594 5.92936 10.4 5.92936 8.92783C5.92936 7.45562 7.12344 6.26166 8.59553 6.26166C10.0677 6.26166 11.2617 7.45562 11.2617 8.92783C11.2617 10.4 10.0677 11.594 8.59553 11.594V11.594Z" fill="#5E72E4"/>
<path d="M13.8274 4.65515C13.8274 5.18504 13.3978 5.61469 12.8677 5.61469C12.3379 5.61469 11.9082 5.18504 11.9082 4.65515C11.9082 4.12514 12.3379 3.69562 12.8677 3.69562C13.3978 3.69562 13.8274 4.12514 13.8274 4.65515V4.65515Z" fill="#5E72E4"/>
</g>
<defs>
<clipPath id="clip0">
<rect width="16" height="16" fill="white" transform="translate(0.56543 0.92627)"/>
</clipPath>
</defs>
</svg>
