<svg width="160" height="38" viewBox="0 0 160 38" fill="none" xmlns="http://www.w3.org/2000/svg">
<path d="M47.1964 17.5C48.8837 16.3682 50.3326 15.2861 51.9544 14.4739C55.5123 12.6923 58.9996 13.8608 60.7812 17.4371C60.8179 17.5131 60.865 17.5865 60.9201 17.6808C62.2222 16.7795 63.5008 15.8809 64.7951 15.0031C66.1811 14.0626 67.7033 13.5228 69.3985 13.6879C72.9434 14.0311 75.1101 16.2319 75.5843 19.8895C75.8516 21.9462 75.7206 24.0108 75.7442 26.0701C75.7704 28.4098 75.7415 30.7521 75.7704 33.0918C75.7887 34.669 76.2446 35.1537 77.8009 35.4157C78.1179 35.4681 78.5843 35.3319 78.6838 35.7223C78.7939 36.1572 78.7467 36.6419 78.7074 37.0978C78.6864 37.3336 78.4218 37.2655 78.2515 37.2655C74.4944 37.2681 70.7347 37.2655 66.9776 37.2707C66.6684 37.2707 66.3854 37.2445 66.4824 36.8437C66.5924 36.3956 66.113 35.7616 66.8623 35.5127C69.0238 34.7896 69.1207 34.7005 69.1391 32.4263C69.1653 29.1618 69.1496 25.8972 69.1469 22.6327C69.1469 21.9855 69.0919 21.3462 68.9426 20.7096C68.3636 18.2651 66.3121 17.149 63.9357 18.0083C63.7052 18.0922 63.4772 18.1839 63.2545 18.286C61.5856 19.0616 61.5253 19.2188 61.541 21.0135C61.5725 24.5558 61.5567 28.0954 61.562 31.6377C61.562 32.1617 61.5541 32.6883 61.6065 33.2071C61.769 34.8289 62.0074 35.1354 63.6449 35.421C64.6693 35.5991 64.2213 36.3196 64.2816 36.841C64.3575 37.5144 63.7995 37.2524 63.5087 37.255C59.9978 37.2733 56.487 37.2707 52.9735 37.2602C52.6906 37.2602 52.1771 37.4463 52.3002 36.8515C52.3971 36.3773 51.8417 35.662 52.8347 35.4681C54.6739 35.1118 54.8862 34.8472 54.8993 32.9424C54.9202 29.4002 54.9071 25.8605 54.9071 22.3182C54.9071 21.5113 54.8102 20.7227 54.5298 19.9629C53.9325 18.3332 52.5308 17.4634 50.8356 17.7306C49.6278 17.9192 48.5719 18.4825 47.5894 19.2004C47.3169 19.3995 47.3195 19.6432 47.3195 19.9236C47.3274 24.2361 47.3091 28.546 47.3457 32.8586C47.3615 34.6507 47.5868 34.8944 49.2688 35.4812C50.0863 35.7668 49.5728 36.4244 49.6645 36.8987C49.764 37.4201 49.2924 37.2629 49.0304 37.2655C45.3964 37.276 41.7598 37.2733 38.1259 37.2681C37.8167 37.2681 37.3477 37.3912 37.4787 36.8227C37.5809 36.3694 37.0517 35.7039 37.9687 35.4943C40.6097 34.8865 40.6856 34.8 40.6961 32.0726C40.7118 27.9461 40.7092 23.8195 40.6673 19.693C40.649 17.9192 40.2769 17.4896 38.5346 17.1463C37.877 17.0179 38.0866 16.6014 38.0682 16.2529C38.0473 15.8782 37.9451 15.5062 38.5791 15.4093C41.3144 14.9927 44.0131 14.3901 46.6803 13.6512C47.1126 13.5307 47.2147 13.6931 47.2095 14.0966C47.1859 15.1656 47.1964 16.2398 47.1964 17.5Z" fill="#5E72E4"/>
<path d="M124.905 37.85C124.905 36.878 124.905 35.9689 124.905 34.8868C124.012 35.4632 123.207 35.9007 122.497 36.4588C120.302 38.1723 117.965 38.1016 115.533 37.1112C108.268 34.1506 106.848 25.7062 110.367 20.1806C113.317 15.551 117.786 13.7799 123.071 13.6332C123.102 13.6332 123.134 13.6358 123.163 13.6384C123.71 13.7091 124.42 14.076 124.761 13.7589C125.183 13.3685 124.895 12.5983 124.902 11.993C124.923 10.3005 124.936 8.60535 124.895 6.91281C124.85 5.11024 124.431 4.68055 122.647 4.36353C122.007 4.25087 121.237 4.33733 121.386 3.2212C121.462 2.66837 121.591 2.54786 122.12 2.48236C124.989 2.13127 127.85 1.68849 130.643 0.92868C131.497 0.695498 131.573 0.926063 131.573 1.68849C131.549 11.1441 131.557 20.5972 131.557 30.0528C131.557 30.3306 131.555 30.6083 131.557 30.8834C131.581 33.6737 131.701 33.8231 134.471 34.1113C134.987 34.1663 135.202 34.3418 135.113 34.8423C135.039 35.2562 135.403 35.8326 134.562 35.9427C131.337 36.3776 128.143 36.988 124.905 37.85ZM124.892 25.7717C124.892 23.6181 124.895 21.4618 124.892 19.3081C124.889 17.2567 122.521 15.4253 120.535 15.9257C118.58 16.4209 117.517 17.8409 116.807 19.578C115.9 21.7893 115.735 24.1159 115.955 26.466C116.146 28.4887 116.752 30.3777 118.124 31.9419C119.778 33.8257 122.086 34.368 124.192 33.4327C124.719 33.1995 124.918 32.9087 124.908 32.3244C124.871 30.1419 124.892 27.9568 124.892 25.7717Z" fill="#5E72E4"/>
<path d="M92.6689 37.8259C85.8935 37.839 80.7976 32.9291 80.7504 26.3895C80.6928 18.5714 86.4961 13.7374 92.8916 13.6641C99.8451 13.5828 104.949 18.5897 104.973 25.3389C104.999 32.7431 100.01 37.8102 92.6689 37.8259ZM97.5317 26.8821C97.474 24.9066 97.4007 23.0621 97.0208 21.2464C96.6906 19.6718 96.2295 18.1469 95.1291 16.9103C93.523 15.1051 91.165 15.2492 89.8131 17.2273C89.3965 17.8378 89.0847 18.5006 88.8672 19.2107C87.9581 22.1896 88.0184 25.2184 88.4428 28.2576C88.7205 30.2488 89.2105 32.1771 90.3528 33.8749C91.0235 34.8705 91.8462 35.6906 93.1274 35.7928C94.9588 35.9395 96.1562 34.9806 96.8138 32.8688C97.4347 30.875 97.4635 28.8104 97.5317 26.8821Z" fill="#5E72E4"/>
<path d="M155.8 25.3135C155.915 27.682 155.682 29.6575 155.949 31.6173C156.198 33.4435 156.906 33.8757 158.672 33.4041C158.886 33.3465 159.303 32.9509 159.348 33.5535C159.387 34.0749 160.131 34.6958 159.416 35.1019C157.71 36.074 155.973 37.0067 154.173 37.7822C152.965 38.3036 150.909 37.2451 150.07 35.7412C149.646 34.9788 149.339 34.9264 148.689 35.4347C148.04 35.9456 147.314 36.3595 146.604 36.7892C143.688 38.563 140.227 37.7796 138.319 34.9159C137.659 33.9255 137.274 32.833 137.177 31.6461C136.978 29.2357 137.981 27.5641 140.342 26.5973C142.755 25.6096 145.205 24.7188 147.639 23.7834C147.754 23.7389 147.861 23.6786 147.977 23.6393C149.038 23.2935 149.551 22.6725 149.407 21.4542C149.274 20.3276 149.313 19.18 148.857 18.1111C148.393 17.0211 147.673 16.2482 146.405 16.1696C145.152 16.091 144.518 16.919 144 17.8622C143.538 18.7006 143.284 19.6202 143.033 20.5398C142.653 21.918 141.951 22.4996 140.806 22.4472C139.367 22.3817 137.861 21.2865 137.654 20.1521C137.484 19.222 137.926 18.5224 138.587 17.9722C140.088 16.7225 141.841 15.8893 143.604 15.098C144.636 14.6343 145.703 14.2439 146.808 13.9583C151.456 12.7636 155.562 15.74 155.787 20.5398C155.868 22.2638 155.8 23.9904 155.8 25.3135ZM149.46 24.7895C148.309 25.4367 147.29 26.034 146.248 26.5868C144.644 27.4384 144.007 28.7772 144.162 30.5483C144.34 32.6155 145.889 34.1587 147.665 33.9203C148.383 33.8233 149.389 33.6871 149.423 32.7727C149.528 30.171 149.46 27.5641 149.46 24.7895Z" fill="#5E72E4"/>
<path d="M27.0111 28.6118C25.0042 31.0982 22.9003 33.3724 20.4846 35.3374C19.2244 36.3644 17.9091 37.3181 16.269 37.7164C15.2053 37.9731 14.4062 37.6875 13.7538 36.8491C12.7372 35.5391 12.4516 33.9933 12.4805 32.4134C12.6115 25.2424 15.3337 19.4705 21.7553 15.8235C24.9125 14.0314 28.3002 13.3685 31.8739 14.3641C32.466 14.5292 33.362 14.1912 33.5978 14.8567C33.7708 15.3466 33.3935 16.0331 33.252 16.6304C32.0258 21.8312 30.9647 27.0686 30.0005 32.3217C29.9115 32.8117 29.6468 33.4693 30.1394 33.7811C30.5691 34.0536 31.0512 33.5846 31.4337 33.3095C32.107 32.8248 32.7254 32.2667 33.3935 31.7768C33.5874 31.6353 33.7681 31.0851 34.0642 31.4938C34.2869 31.803 34.8004 32.2117 34.3655 32.699C32.4686 34.8265 30.4197 36.7653 27.6399 37.698C26.5081 38.0779 25.9395 37.6954 25.8059 36.498C25.6015 34.6588 26.1517 32.9034 26.4923 31.127C26.6548 30.286 26.8382 29.4502 27.0111 28.6118ZM16.8271 30.6868C16.8271 31.2397 16.8061 31.7951 16.8349 32.3479C16.8507 32.6519 16.9345 32.9558 17.0262 33.2492C17.4244 34.5225 18.0952 34.8003 19.248 34.1426C19.6724 33.9016 20.0707 33.6029 20.4506 33.2911C22.413 31.6798 24.1003 29.8039 25.6068 27.7734C26.5159 26.5472 27.5587 25.363 27.9438 23.8381C28.4757 21.7264 28.8923 19.5832 29.411 17.4688C29.542 16.937 29.3586 16.7562 28.9185 16.6252C25.8531 15.7056 22.971 15.9676 20.765 18.7526C17.9904 22.2477 16.9843 26.335 16.8271 30.6868Z" fill="#5E72E4"/>
<path d="M0.410156 35.2322C0.727179 31.7607 1.61275 28.5538 2.28085 25.3076C3.63802 18.7182 5.05284 12.1419 6.42573 5.55783C6.78205 3.84957 6.45193 3.45657 4.71747 3.36487C4.28779 3.34129 3.85025 3.36749 3.42842 3.30461C3.21096 3.27317 2.73936 3.49849 2.81796 3.03213C2.88084 2.65746 2.68434 2.047 3.41794 1.98412C5.57684 1.79548 7.62046 1.11951 9.6798 0.498563C11.0029 0.100319 11.2832 0.343984 11.0081 1.73784C10.5942 3.81551 10.1304 5.88533 9.69028 7.95777C7.94796 16.1584 6.20565 24.3591 4.46333 32.5598C4.43713 32.6803 4.41093 32.8034 4.41879 32.924C4.43975 33.2724 4.22491 33.7073 4.62577 33.9379C4.95851 34.1292 5.28078 33.8829 5.56636 33.7178C6.55411 33.1467 7.47898 32.4917 8.3331 31.7292C8.51913 31.5616 8.69991 30.9956 9.07195 31.4725C9.34967 31.8314 9.86844 32.1746 9.28941 32.7825C7.77766 34.3728 6.16635 35.8322 4.24325 36.9143C3.57514 37.2915 2.90704 37.6819 2.13675 37.8077C1.18044 37.9649 0.735039 37.6714 0.556878 36.7309C0.449457 36.1937 0.444217 35.6357 0.410156 35.2322Z" fill="#5E72E4"/>
</svg>
