<svg width="162" height="24" viewBox="0 0 162 24" fill="none" xmlns="http://www.w3.org/2000/svg">
<path d="M24.7206 23.0037C23.2429 23.0037 21.8779 23.0037 20.3609 23.0037C20.3609 21.2692 20.3635 19.6238 20.3609 17.9785C20.3557 16.1025 20.3871 14.224 20.3216 12.3506C20.2744 10.9778 19.4046 10.2127 18.0422 10.1891C15.9776 10.1524 14.6126 11.4756 14.6126 13.4982C14.6152 16.6318 14.6126 19.7627 14.6126 22.9932C13.1192 22.9932 11.7489 22.9932 10.2005 22.9932C10.2005 21.8928 10.2031 20.8159 10.2005 19.7417C10.1952 17.3418 10.224 14.9392 10.169 12.5419C10.1297 10.8599 9.19699 10.0712 7.5621 10.1891C5.70712 10.3227 4.45999 11.6354 4.45737 13.4746C4.45213 16.6108 4.45475 19.747 4.45475 22.9905C2.99802 22.9905 1.63823 22.9905 0.205078 22.9905C0.205078 17.5907 0.205078 12.2458 0.205078 6.80405C1.59107 6.80405 2.91942 6.80405 4.34995 6.80405C4.39449 7.31496 4.44165 7.818 4.46261 8.06428C6.17349 7.48526 7.89484 6.63375 9.70266 6.36651C11.6913 6.07307 13.3419 7.04509 14.306 9.08871C15.6711 7.63722 17.1933 6.63637 19.1243 6.35603C22.3233 5.88967 24.5529 7.46168 24.6813 10.6686C24.8464 14.7506 24.7206 18.8431 24.7206 23.0037Z" fill="#5E72E4"/>
<path d="M91.7583 21.3135C91.7059 21.9345 91.6614 22.4375 91.6116 23.0139C90.2571 23.0139 88.9209 23.0139 87.4746 23.0139C87.4746 15.5652 87.4746 8.13484 87.4746 0.591797C88.7925 0.591797 90.1523 0.591797 91.6693 0.591797C91.6693 3.183 91.6693 5.7611 91.6693 8.52522C91.9968 8.30776 92.1409 8.2344 92.2614 8.13222C96.1809 4.79431 101.649 6.24318 103.357 11.1217C104.201 13.5321 104.23 16.008 103.438 18.4472C101.796 23.5222 96.3434 25.068 92.2614 21.6411C92.1435 21.5389 91.9968 21.4681 91.7583 21.3135ZM91.6876 14.8316C91.6431 14.8369 91.5959 14.8421 91.5514 14.8473C91.6981 15.9477 91.5121 17.263 92.057 18.1066C93.3697 20.1476 96.9958 20.0664 98.4813 18.1643C99.8464 16.4167 99.8071 13.2806 98.3949 11.5566C97.3364 10.2649 95.5836 9.84048 93.8753 10.4588C92.1042 11.1033 91.7007 11.7138 91.6876 13.7836C91.6876 14.1321 91.6876 14.4805 91.6876 14.8316Z" fill="#5E72E4"/>
<path d="M161.146 23.0877C159.325 23.0877 157.808 23.1375 156.299 23.051C155.922 23.0301 155.471 22.6423 155.222 22.2991C153.949 20.5437 152.733 18.749 151.253 16.6163C150.577 17.7612 149.82 18.6232 149.552 19.6162C149.28 20.6275 149.492 21.7672 149.492 22.9698C148.046 22.9698 146.683 22.9698 145.211 22.9698C145.211 15.542 145.211 8.10904 145.211 0.579102C146.607 0.579102 147.97 0.579102 149.5 0.579102C149.5 2.7904 149.5 4.95715 149.5 7.12391C149.5 9.25137 149.5 11.3762 149.5 13.86C151.287 11.7797 152.935 10.0086 154.405 8.09856C155.24 7.01125 156.142 6.54751 157.494 6.68899C158.51 6.79641 159.548 6.70995 160.944 6.70995C158.67 9.32997 156.629 11.6801 154.499 14.1325C156.642 17.025 158.788 19.9149 161.146 23.0877Z" fill="#5E72E4"/>
<path d="M36.4814 23.4809C31.2885 23.3918 27.8379 19.8286 27.9113 14.6305C27.982 9.79127 31.7365 6.18874 36.6176 6.28306C41.7083 6.38 45.303 10.0349 45.2218 15.0287C45.1432 19.991 41.4463 23.5673 36.4814 23.4809ZM36.4552 10.1869C34.0841 10.2026 32.4282 12.1336 32.4282 14.882C32.4308 17.6959 34.1129 19.6137 36.5705 19.6033C38.973 19.5928 40.7625 17.5282 40.7075 14.8296C40.6525 12.0314 38.9468 10.1712 36.4552 10.1869Z" fill="#5E72E4"/>
<path d="M75.6389 6.28855C80.6117 6.33571 84.2378 9.97231 84.2457 14.9189C84.2536 19.9074 80.4283 23.5912 75.3298 23.5047C70.2967 23.4209 66.854 19.7764 66.9169 14.6071C66.9797 9.7627 70.6714 6.24139 75.6389 6.28855ZM71.4312 14.856C71.4207 18.2673 74.0302 20.3948 76.9516 19.3598C78.5838 18.7808 79.6502 17.0726 79.679 14.987C79.7078 12.8098 78.6886 11.0753 77.0118 10.4518C74.0826 9.36446 71.4416 11.4474 71.4312 14.856Z" fill="#5E72E4"/>
<path d="M108.53 11.5675C108.077 10.7737 107.587 9.91167 107.027 8.92916C109.421 6.79122 112.248 6.02879 115.34 6.37987C119.647 6.86982 121.277 8.77719 121.308 13.1002C121.332 16.239 121.313 19.3778 121.308 22.5166C121.308 22.6423 121.256 22.7655 121.206 22.9882C119.849 22.9882 118.481 22.9882 117.064 22.9882C117.019 22.59 116.977 22.2153 116.956 22.024C115.473 22.4982 114.009 23.1978 112.476 23.4126C109.35 23.8502 106.741 21.8852 106.235 18.9848C105.677 15.7648 107.744 13.1002 111.035 12.812C113.142 12.6286 115.086 13.0845 116.807 14.4181C117.457 10.8889 115.455 9.11518 111.895 10.0662C110.784 10.3649 109.764 11.0068 108.53 11.5675ZM117.307 18.3272C116.846 17.549 116.684 16.8076 116.21 16.4801C114.973 15.6207 113.548 15.4583 112.107 15.9954C111.067 16.3831 110.485 17.1455 110.535 18.2879C110.585 19.3988 111.289 20.19 112.272 20.2791C113.477 20.3891 114.756 20.2241 115.929 19.9044C116.456 19.7577 116.768 18.9665 117.307 18.3272Z" fill="#5E72E4"/>
<path d="M129.899 23.02C128.351 23.02 127.017 23.02 125.607 23.02C125.607 17.6044 125.607 12.2595 125.607 6.81251C127.017 6.81251 128.382 6.81251 129.828 6.81251C129.868 7.35747 129.904 7.86575 129.951 8.50766C130.229 8.3295 130.473 8.20112 130.682 8.03606C132.784 6.38283 135.142 5.90074 137.699 6.61339C139.525 7.12167 140.707 8.46312 140.769 10.2893C140.919 14.4997 140.817 18.7153 140.817 23.0095C139.439 23.0095 138.11 23.0095 136.656 23.0095C136.632 22.5588 136.591 22.1396 136.591 21.7231C136.583 18.9327 136.619 16.1398 136.57 13.3521C136.536 11.4211 135.951 10.6168 134.544 10.2736C133.019 9.90414 130.758 10.6692 130.096 11.843C129.92 12.1547 129.909 12.5897 129.909 12.9696C129.894 15.8044 129.902 18.6393 129.902 21.4715C129.899 21.9458 129.899 22.4174 129.899 23.02Z" fill="#5E72E4"/>
<path d="M52.6648 23.0431C51.1583 23.0431 49.8614 23.0431 48.457 23.0431C48.457 17.6223 48.457 12.246 48.457 6.78847C49.8378 6.78847 51.1661 6.78847 52.5888 6.78847C52.6281 7.33605 52.6648 7.84434 52.7146 8.52292C53.0421 8.30808 53.3119 8.15088 53.5608 7.96224C55.518 6.47145 57.7005 5.97889 60.103 6.49765C61.9711 6.89851 63.4829 8.25568 63.5431 10.1369C63.682 14.397 63.5877 18.6624 63.5877 23.0116C62.2541 23.0116 60.9205 23.0116 59.3747 23.0116C59.3747 22.54 59.3747 22.0815 59.3747 21.6257C59.372 18.8327 59.3956 16.0398 59.3589 13.2468C59.3301 11.1036 58.345 10.15 56.3197 10.1893C54.187 10.2312 52.6674 11.5464 52.6648 13.3752C52.6595 16.5454 52.6648 19.7235 52.6648 23.0431Z" fill="#5E72E4"/>
</svg>
