<svg width="95" height="33" viewBox="0 0 95 33" fill="none" xmlns="http://www.w3.org/2000/svg">
<path d="M16.5282 13.6391C20.9246 13.6391 25.169 13.6391 29.5366 13.6391C29.5549 13.2094 29.589 12.8033 29.589 12.3972C29.5942 9.5964 29.5995 6.79559 29.5864 3.99741C29.5811 2.91534 29.8327 1.94855 30.9697 1.61843C32.1645 1.26997 33.4404 1.13897 34.4308 2.11623C34.7662 2.44636 34.9679 3.0673 34.9705 3.55725C35.002 12.2662 35.002 20.9725 34.9836 29.6815C34.981 31.1435 34.0509 31.8849 32.361 31.8928C30.5689 31.9006 29.6231 31.1382 29.6047 29.5321C29.568 26.3488 29.5916 23.1655 29.589 19.9795C29.589 19.5656 29.589 19.1516 29.589 18.6617C25.2083 18.6617 20.9377 18.6617 16.5256 18.6617C16.5256 19.1149 16.5256 19.5263 16.5256 19.935C16.5256 23.1183 16.5439 26.3043 16.5125 29.4876C16.4967 31.112 15.564 31.898 13.8007 31.8928C11.9929 31.8849 11.1257 31.1304 11.1231 29.4902C11.1152 20.9359 11.1152 12.3815 11.1231 3.82711C11.1257 2.11099 11.8776 1.43765 13.7431 1.41145C15.5955 1.38787 16.502 2.14768 16.5151 3.84283C16.5491 7.0576 16.5282 10.2776 16.5282 13.6391Z" fill="#5E72E4"/>
<path d="M80.4721 11.6316C82.5392 10.6701 84.4964 10.3505 86.5688 10.6465C90.1085 11.1522 92.6132 12.9967 93.8944 16.3241C95.1285 19.5258 95.0682 22.7851 93.7975 25.9736C92.8124 28.4469 91.0386 30.2181 88.5339 31.1272C84.6746 32.5289 80.8598 32.2931 77.1603 30.5063C75.8399 29.867 75.1377 28.798 75.1377 27.2968C75.1351 19.0096 75.1141 10.7251 75.1325 2.43799C75.1351 0.936714 76.0468 0.205728 77.7236 0.192628C79.4607 0.176907 80.4249 0.918374 80.4537 2.44323C80.5035 5.05015 80.4721 7.65969 80.4747 10.2692C80.4721 10.6701 80.4721 11.0736 80.4721 11.6316ZM89.2963 21.2864C89.2675 21.2838 89.2386 21.2786 89.2098 21.2759C89.2098 21.0087 89.2256 20.7388 89.2072 20.4716C88.9347 16.2062 85.3401 13.8167 81.5934 15.415C80.9882 15.6717 80.4485 15.9521 80.459 16.7957C80.493 19.8559 80.4563 22.9187 80.4956 25.9789C80.5009 26.3195 80.7445 26.8094 81.0275 26.9693C84.1846 28.7587 88.2195 26.9535 88.9845 23.4322C89.1391 22.7301 89.1967 22.0043 89.2963 21.2864Z" fill="#5E72E4"/>
<path d="M43.7421 22.9998C43.9019 25.8477 46.1027 27.6791 49.024 27.328C50.431 27.1603 51.8091 26.6023 53.148 26.0835C54.72 25.4757 56.0352 26.0416 56.4518 27.6398C56.7086 28.6328 56.3523 29.5 55.5269 29.9088C54.0021 30.6607 52.4248 31.5279 50.7821 31.7794C46.7944 32.3899 42.9928 31.8764 40.302 28.3734C36.8907 23.9325 37.6872 15.7135 41.9002 12.4201C45.0652 9.9468 48.6258 9.72672 52.1917 11.3957C55.6553 13.0175 57.0177 16.0567 57.0492 19.7404C57.0701 22.1771 56.216 22.9893 53.8082 22.9945C50.8921 23.0024 47.976 22.9971 45.06 22.9971C44.6408 22.9998 44.2268 22.9998 43.7421 22.9998ZM51.7017 18.923C51.7934 17.4086 51.3271 16.1798 50.1192 15.4017C48.6992 14.4847 47.1324 14.4532 45.6626 15.31C44.3159 16.0934 43.7945 17.3981 43.6216 18.9256C46.3778 18.923 49.0005 18.923 51.7017 18.923Z" fill="#5E72E4"/>
<path d="M65.3936 13.4004C66.7246 11.5717 68.3438 10.7437 70.3114 10.542C71.9804 10.3691 72.9367 11.0162 73.141 12.4913C73.3795 14.2257 72.6432 15.1873 70.9114 15.4257C69.9656 15.5567 68.9935 15.6143 68.0844 15.8816C66.3395 16.3951 65.5639 17.5479 65.5639 19.361C65.5639 22.6229 65.5587 25.8822 65.5666 29.1441C65.5692 30.1476 65.4618 31.1092 64.4059 31.5598C63.2112 32.0681 61.9431 32.1231 60.9291 31.2611C60.489 30.8865 60.2348 30.0638 60.2296 29.4428C60.1772 23.9958 60.1955 18.5488 60.2008 13.1017C60.2034 11.5088 60.8479 10.783 62.3203 10.6756C64.2068 10.5367 65.0295 11.1001 65.2993 12.7271C65.3281 12.8712 65.3439 13.0205 65.3936 13.4004Z" fill="#5E72E4"/>
<path d="M1.22467 21.2311C1.22467 18.5482 1.21419 15.8679 1.22729 13.185C1.23777 11.3615 1.97924 10.662 3.85517 10.6515C5.77827 10.641 6.59834 11.3694 6.60358 13.2165C6.62192 18.5797 6.62192 23.9429 6.60358 29.306C6.59834 31.0562 5.71539 31.8684 3.9364 31.8841C2.0788 31.8999 1.23515 31.1008 1.22729 29.2746C1.21681 26.5969 1.22467 23.914 1.22467 21.2311Z" fill="#5E72E4"/>
<path d="M3.87018 1.41323C5.65703 1.39751 6.95656 2.63416 6.98014 4.37124C7.00372 6.08735 5.70681 7.42619 3.96712 7.47335C2.20646 7.52313 0.804751 6.16857 0.796891 4.4184C0.791651 2.70752 2.09904 1.42895 3.87018 1.41323Z" fill="#5E72E4"/>
<path d="M92.3538 0.35522C93.7241 0.391901 94.8953 1.64951 94.8271 3.01454C94.7643 4.34027 93.5407 5.45902 92.2176 5.404C90.8971 5.34898 89.7522 4.12543 89.7941 2.8128C89.836 1.48707 91.0517 0.32116 92.3538 0.35522ZM92.2883 4.7359C93.373 4.74638 94.2193 3.95513 94.2403 2.91498C94.2586 1.89317 93.4019 1.03905 92.3407 1.02071C91.243 1.00237 90.4596 1.76217 90.4412 2.8652C90.4203 3.97609 91.1591 4.7228 92.2883 4.7359Z" fill="#5E72E4"/>
<path d="M91.2976 1.72567C91.2976 2.33614 91.2714 2.9073 91.3107 3.47323C91.3264 3.70117 91.4915 3.91863 91.5884 4.13871C91.8138 3.96579 92.0391 3.79549 92.2487 3.63567C92.5264 3.80335 92.867 4.01033 93.4722 4.37714C93.2548 3.72737 93.0504 3.41559 93.0635 3.11429C93.1447 1.52655 93.0425 1.41913 91.2976 1.72567Z" fill="#5E72E4"/>
<path d="M91.2971 1.72562C93.0421 1.41908 93.1443 1.5265 93.0657 3.11685C93.0499 3.41815 93.2543 3.72994 93.4744 4.3797C92.8692 4.0129 92.5286 3.80592 92.2508 3.63824C92.0412 3.79806 91.8159 3.96836 91.5906 4.14128C91.4936 3.91858 91.3286 3.70374 91.3129 3.47579C91.2709 2.90725 91.2971 2.33608 91.2971 1.72562Z" fill="#5E72E4"/>
</svg>
