<svg width="21" height="13" viewBox="0 0 21 13" fill="none" xmlns="http://www.w3.org/2000/svg">
<path d="M20.2495 10.9362C20.1957 10.8462 19.8632 10.1236 18.2631 8.6385C16.588 7.08339 16.813 7.33591 18.8306 4.64696C20.0595 3.00934 20.5507 2.00926 20.397 1.58173C20.2507 1.1742 19.3469 1.28171 19.3469 1.28171L16.3417 1.29921C16.3417 1.29921 16.1192 1.26921 15.9529 1.36796C15.7916 1.46547 15.6879 1.69049 15.6879 1.69049C15.6879 1.69049 15.2116 2.95808 14.5766 4.03566C13.2377 6.30958 12.7014 6.42959 12.4826 6.28833C11.9739 5.95955 12.1014 4.96573 12.1014 4.26068C12.1014 2.05677 12.4351 1.13795 11.4501 0.900429C11.1225 0.821673 10.8825 0.769169 10.0462 0.760419C8.97364 0.749168 8.06482 0.764169 7.55104 1.01544C7.20851 1.18295 6.94474 1.55673 7.106 1.57798C7.30477 1.60423 7.7548 1.69924 7.99357 2.02426C8.30234 2.44304 8.29109 3.38561 8.29109 3.38561C8.29109 3.38561 8.4686 5.97956 7.87731 6.30208C7.47103 6.52335 6.91474 6.07206 5.7209 4.00816C5.10961 2.95183 4.64707 1.78299 4.64707 1.78299C4.64707 1.78299 4.55832 1.56548 4.39956 1.44922C4.20704 1.30796 3.93702 1.26296 3.93702 1.26296L1.07931 1.28046C1.07931 1.28046 0.65053 1.29296 0.493018 1.47922C0.353008 1.64548 0.481767 1.98801 0.481767 1.98801C0.481767 1.98801 2.71943 7.22215 5.25212 9.86109C7.57604 12.28 10.2137 12.1213 10.2137 12.1213H11.4088C11.4088 12.1213 11.7701 12.0813 11.9539 11.8825C12.1239 11.7 12.1176 11.3575 12.1176 11.3575C12.1176 11.3575 12.0939 9.75359 12.8389 9.51732C13.5727 9.2848 14.5153 11.0674 15.5141 11.7537C16.2692 12.2725 16.843 12.1588 16.843 12.1588L19.5144 12.1213C19.5144 12.1213 20.912 12.035 20.2495 10.9362Z" fill="#5E72E4"/>
</svg>
