<svg width="424" height="64" viewBox="0 0 424 64" fill="none" xmlns="http://www.w3.org/2000/svg">
<g clip-path="url(#clip0)">
<path d="M21.73 35.7698H10.49V62.4598H0V0.799805H23.73C35.42 0.799805 42.53 8.74981 42.53 18.5398C42.53 26.0898 38 32.1498 31.42 34.5998L47.59 62.4598H36.3L21.73 35.7698ZM10.49 27.6598H22.93C28.75 27.6598 32.35 24.3298 32.35 18.5498C32.35 12.9298 28.75 9.1598 22.93 9.1598H10.49V27.6598Z" fill="#5E72E4"/>
<path d="M69.4707 0.799805L79.9607 9.8298V62.4498H69.4707V0.799805Z" fill="#5E72E4"/>
<path d="M146.36 9.3898H128.19V62.4598H117.84V9.3898H101.67L92.6699 0.799805H137.37L146.36 9.3898Z" fill="#5E72E4"/>
<path d="M158.34 31.63C158.34 12.72 172.38 0 190.46 0C208.59 0 222.63 12.72 222.63 31.63C222.63 50.54 208.59 63.26 190.46 63.26C172.38 63.26 158.34 50.54 158.34 31.63ZM212.14 31.63C212.14 17.82 202.68 9.03 190.46 9.03C178.33 9.03 168.82 17.82 168.82 31.63C168.82 45.44 178.33 54.23 190.46 54.23C202.68 54.23 212.14 45.44 212.14 31.63Z" fill="#5E72E4"/>
<path d="M257.131 9.3898V27.3698H272.391L282.391 35.8798H257.131V62.4498H246.641V0.799805H275.761L285.761 9.3898H257.131Z" fill="#5E72E4"/>
<path d="M301.1 31.63C301.1 12.72 315.14 0 333.22 0C351.35 0 365.39 12.72 365.39 31.63C365.39 50.54 351.35 63.26 333.22 63.26C315.14 63.26 301.1 50.54 301.1 31.63ZM354.91 31.63C354.91 17.82 345.45 9.03 333.23 9.03C321.1 9.03 311.59 17.82 311.59 31.63C311.59 45.44 321.1 54.23 333.23 54.23C345.44 54.23 354.91 45.44 354.91 31.63Z" fill="#5E72E4"/>
<path d="M381.54 53.51L387.85 46.69C391.81 51.63 397.67 55.04 403.58 55.04C409.22 55.04 413.4 51.79 413.4 46.37C413.4 40.11 407.76 37.74 400.69 34.65C392.51 31.12 384.2 27.34 384.2 16.67C384.21 6.26 392.3 0 402.52 0C410.3 0 416.96 3.37 422.03 8.23L416.34 14.73C411.94 10.11 407.19 8.23 402.61 8.23C398.17 8.23 394.39 10.84 394.39 15.82C394.39 21.84 399.99 24.09 407.1 27.06C415.05 30.43 423.72 34.49 423.72 45.81C423.72 57.33 414.74 63.27 404.04 63.27C395.27 63.26 386.88 59.25 381.54 53.51Z" fill="#5E72E4"/>
</g>
<defs>
<clipPath id="clip0">
<rect width="423.71" height="63.26" fill="white"/>
</clipPath>
</defs>
</svg>
