<svg width="47" height="47" viewBox="0 0 47 47" fill="none" xmlns="http://www.w3.org/2000/svg">
<path d="M44.0625 0H13.2188C12.4087 0 11.75 0.658734 11.75 1.46875V11.75H13.2188V1.46875H19.0938V4.40625H15.4219C15.0165 4.40625 14.6875 4.73525 14.6875 5.14062V11.75H16.1562V5.875H19.0938V7.34375C19.0938 8.15377 19.7525 8.8125 20.5625 8.8125H36.7188C37.5288 8.8125 38.1875 8.15377 38.1875 7.34375V5.875H41.125V23.5H42.5938V5.14062C42.5938 4.73525 42.2647 4.40625 41.8594 4.40625H38.1875V1.46875H44.0625V45.5312H13.2188V41.125H11.75V46.2656C11.75 46.671 12.079 47 12.4844 47H44.0625C44.8725 47 45.5312 46.3413 45.5312 45.5312V1.46875C45.5312 0.658734 44.8725 0 44.0625 0ZM36.7188 7.34375H20.5625V1.46875H36.7188V7.34375Z" fill="#5E72E4"/>
<path d="M42.5937 24.9688H41.125V35.25H33.7812C33.3759 35.25 33.0469 35.579 33.0469 35.9844V42.5938H16.1562V41.125H14.6875V43.3281C14.6875 43.7335 15.0165 44.0625 15.4219 44.0625H33.7812C33.815 44.0625 33.8488 44.0603 33.8819 44.0559C33.8892 44.0552 33.8965 44.0537 33.9039 44.0522C33.9076 44.0515 33.9112 44.0508 33.9156 44.05C33.9208 44.0493 33.9252 44.0478 33.9296 44.0471C33.9362 44.0456 33.9428 44.0449 33.9487 44.0427C33.9509 44.0419 33.9524 44.0419 33.9546 44.0412C33.9744 44.0361 33.9942 44.0309 34.014 44.0243C34.0148 44.0243 34.0155 44.0236 34.0162 44.0236C34.0368 44.017 34.0574 44.0089 34.0772 44.0001C34.0779 44.0001 34.0787 43.9993 34.0787 43.9993C34.0985 43.9905 34.1183 43.981 34.1374 43.97C34.1382 43.97 34.1382 43.9692 34.1389 43.9692C34.1477 43.9641 34.1572 43.959 34.1661 43.9531C34.1697 43.9509 34.1734 43.9487 34.1771 43.9457C34.183 43.9421 34.1888 43.9384 34.1947 43.934C34.1976 43.9318 34.2006 43.9296 34.2035 43.9274C34.2101 43.923 34.216 43.9186 34.2219 43.9142C34.2277 43.9097 34.2329 43.9053 34.2388 43.9009C34.2424 43.898 34.2454 43.8958 34.249 43.8929C34.2579 43.8855 34.2667 43.8782 34.2755 43.8701L42.3536 36.5263C42.3661 36.5153 42.3778 36.5036 42.3889 36.4918C42.3918 36.4882 42.3955 36.4852 42.3984 36.4815C42.408 36.4713 42.4175 36.4602 42.4263 36.4492C42.4278 36.447 42.43 36.4456 42.4314 36.4434C42.4417 36.4309 42.4513 36.4177 42.4601 36.4052C42.463 36.4015 42.4652 36.3978 42.4682 36.3934C42.4755 36.3831 42.4821 36.3721 42.4887 36.3611C42.4909 36.3574 42.4931 36.3545 42.4946 36.3508C42.5027 36.3369 42.51 36.3237 42.5166 36.309C42.5188 36.3053 42.5203 36.3009 42.5225 36.2972C42.5277 36.2862 42.5328 36.2745 42.5379 36.2627C42.5394 36.2583 42.5416 36.2546 42.5431 36.2502C42.549 36.2355 42.5541 36.2201 42.5592 36.2047C42.56 36.2025 42.5607 36.2003 42.5614 36.1981C42.5658 36.1841 42.5695 36.1702 42.5732 36.1562C42.5739 36.1525 42.5747 36.1489 42.5761 36.1452C42.5835 36.1129 42.5886 36.0806 42.5915 36.0475C42.5915 36.0439 42.5923 36.0395 42.5923 36.0358C42.593 36.0226 42.5937 36.0086 42.5945 35.9947C42.5945 35.9917 42.5945 35.988 42.5945 35.9851C42.5945 35.9836 42.5945 35.9822 42.5945 35.9807V24.9688H42.5937ZM34.5156 36.7188H39.9595L36.3934 39.961L34.5156 41.6677V36.7188Z" fill="#5E72E4"/>
<path d="M22.0312 3.67188H23.5V5.14062H22.0312V3.67188Z" fill="#5E72E4"/>
<path d="M33.7812 3.67188H35.25V5.14062H33.7812V3.67188Z" fill="#5E72E4"/>
<path d="M37.4531 11.75H20.5625C20.1571 11.75 19.8281 12.079 19.8281 12.4844V15.4219H21.2969V13.2188H36.7188V23.5H25.7031V24.9688H37.4531C37.8585 24.9688 38.1875 24.6397 38.1875 24.2344V12.4844C38.1875 12.079 37.8585 11.75 37.4531 11.75Z" fill="#5E72E4"/>
<path d="M24.9688 27.9062H33.0469V29.375H24.9688V27.9062Z" fill="#5E72E4"/>
<path d="M34.5156 27.9062H38.9219V29.375H34.5156V27.9062Z" fill="#5E72E4"/>
<path d="M22.7656 32.3125H30.8438V33.7812H22.7656V32.3125Z" fill="#5E72E4"/>
<path d="M32.3125 32.3125H38.9219V33.7812H32.3125V32.3125Z" fill="#5E72E4"/>
<path d="M19.0938 36.7188H31.5781V38.1875H19.0938V36.7188Z" fill="#5E72E4"/>
<path d="M24.9688 3.67188H32.3125V5.14062H24.9688V3.67188Z" fill="#5E72E4"/>
<path d="M13.2187 39.6563C13.3736 39.6563 13.5286 39.6078 13.6593 39.5094L16.9001 37.0787C20.6432 34.2719 23.1518 30.1887 23.9648 25.582L24.9577 19.956C25.0127 19.6431 24.8607 19.3295 24.5802 19.1805L13.5646 13.3055C13.3487 13.1902 13.0894 13.1902 12.8735 13.3055L1.85789 19.1805C1.57735 19.3303 1.42534 19.6431 1.48042 19.956L2.46521 25.5424C3.27009 30.108 5.74714 34.1669 9.43884 36.9722L12.7751 39.5072C12.9058 39.6064 13.0622 39.6563 13.2187 39.6563ZM3.9112 25.2868L3.01893 20.2255L13.2187 14.7852L23.4184 20.2255L22.5181 25.3265C21.7705 29.5645 19.4623 33.3209 16.0188 35.9037L13.2216 38.0018L10.3267 35.8023C6.93021 33.2217 4.65218 29.4874 3.9112 25.2868Z" fill="#5E72E4"/>
<path d="M16.035 34.3276C18.8197 32.239 20.6858 29.2017 21.2909 25.7743L22.0194 21.6486C22.0745 21.3358 21.9225 21.0222 21.6419 20.8731L17.9686 18.9138L17.2776 20.21L20.4809 21.9189L19.8449 25.5195C19.3052 28.5789 17.6396 31.2895 15.1545 33.1541L13.2216 34.6037L11.2168 33.0799C8.76542 31.2175 7.12115 28.5224 6.58653 25.4909L5.9557 21.9181L9.15831 20.21L8.46726 18.9138L4.79465 20.8724C4.51412 21.0222 4.36211 21.3351 4.41718 21.6479L5.13908 25.7442C5.73832 29.1407 7.58087 32.1612 10.3274 34.2483L12.7744 36.107C12.9058 36.2069 13.0622 36.2568 13.2187 36.2568C13.3736 36.2568 13.5286 36.2083 13.6593 36.1099L16.035 34.3276Z" fill="#5E72E4"/>
<path d="M13.218 18.045L15.811 19.4278L16.5021 18.1317L13.5631 16.5645C13.3472 16.4492 13.088 16.4492 12.8721 16.5645L9.9353 18.1309L10.6263 19.4271L13.218 18.045Z" fill="#5E72E4"/>
<path d="M12.4566 29.3751H12.4845C12.696 29.3751 12.8972 29.284 13.0367 29.1247L18.1774 23.2496L17.0721 22.2825L12.5278 27.476L10.8688 25.2626L9.69385 26.1438L11.897 29.0813C12.0299 29.2583 12.2355 29.3663 12.4566 29.3751Z" fill="#5E72E4"/>
<path d="M12.4844 20.5625H13.9531V22.0312H12.4844V20.5625Z" fill="#5E72E4"/>
<path d="M12.4844 30.8438H13.9531V32.3125H12.4844V30.8438Z" fill="#5E72E4"/>
</svg>
