<?xml version="1.0" encoding="utf-8"?>
<!-- Generator: Adobe Illustrator 24.2.1, SVG Export Plug-In . SVG Version: 6.00 Build 0)  -->
<svg version="1.1" id="Слой_1" xmlns="http://www.w3.org/2000/svg" xmlns:xlink="http://www.w3.org/1999/xlink" x="0px" y="0px"
	 viewBox="0 0 3000 1732.46" style="enable-background:new 0 0 3000 1732.46;" xml:space="preserve">
<style type="text/css">
	.st0{fill:#E3EAFF;}
	.st1{fill:#BFD8F7;}
	.st2{fill:#95C38B;}
	.st3{fill:#D86713;}
	.st4{fill:#F99746;}
	.st5{fill:#F1A34F;}
	.st6{opacity:0.4;fill:#D86713;}
	.st7{fill:#ED7D2B;}
	.st8{fill:#699DEE;}
	.st9{fill:#E4EDF9;}
	.st10{fill:#AFCDFB;}
	.st11{fill:#E9F3FE;}
	.st12{fill:#CAE0FF;}
	.st13{fill:#D2E3FC;}
	.st14{fill:#1C468A;}
	.st15{fill:#78ACEA;}
	.st16{fill:#FFFFFF;}
	.st17{fill:#A8D29F;}
	.st18{fill:#E49963;}
	.st19{fill:#4A75CB;}
	.st20{fill:#2B478B;}
	.st21{fill:#163560;}
	.st22{fill:#EE9849;}
	.st23{fill:#739AF0;}
	.st24{fill:#D68D5D;}
	.st25{fill:#233862;}
	.st26{fill:#213F7A;}
	.st27{fill:#FFB27D;}
	.st28{fill:#E2915A;}
	.st29{fill:#F4A269;}
	.st30{fill:#C65447;}
	.st31{fill:#B5453C;}
	.st32{fill:#9E332E;}
	.st33{fill:#FAFDFF;}
	.st34{fill:#B7D5F9;}
	.st35{fill:#FCA56B;}
	.st36{opacity:0.5;}
</style>
<g>
	<g>
		<path class="st0" d="M2781.92,898.5c-32.8-34.21-62.83-70.33-84.36-112.45c-75.36-147.44-30.11-335.43-108.48-481.29
			c-71.54-133.17-248.28-198.45-389.21-143.78c-117.13,45.44-206.57,160.41-331.73,171.28c-107.92,9.37-203.72-62.01-294.04-121.81
			C1393.76,91.05,1184.16,3.67,967.94,8.99C751.73,14.3,530.3,126.6,436.03,321.26c-43.59,90.01-58.38,191.25-95.76,284.01
			C272.48,773.47,105.76,881.5,49.33,1049.63c-51.6,153.76-15.73,333.44,86.32,458.64c123.02,150.93,330.15,222.22,523.34,197.89
			c177.4-22.34,344.3-117.4,522.94-109.67c92.36,4,181.95,35.6,274.35,38.58c99.79,3.22,197.7-27.05,297.41-32.2
			c259.7-13.43,505.15,142.87,765.01,132.93c156.51-5.99,313.06-78.41,404.86-205.32c91.8-126.91,109.4-308.46,28.68-442.7
			C2908.51,1015.08,2840.75,959.86,2781.92,898.5z"/>
	</g>
</g>
<g>
	<path class="st1" d="M780.43,1364.63c0,0,112.4,23.57,106.73,44.22c-5.68,20.64-123.36-35.3-123.36-35.3s-86.77,77.6-98.84,117.15
		c0,0,126.72-17.93,116.14,0.68c-10.59,18.61-141.58,43.39-141.58,43.39s-59.57,91.74-7.29,132.09
		c52.28,40.34,92.39,26.78,102.17,13.58c9.78-13.2,47.69-108.16,58.94-100.63c11.25,7.54,4.45,79.46-21.33,110.46
		c0,0,113.18,0.9,129.61-52.66c16.44-53.56-8.85-82.72,1.91-115.63c10.76-32.91,29-52.66,30.98-33.16
		c1.98,19.51-26.16,71.09-14.93,105.93c11.23,34.84,16.08,61.28,45.72,17.5c29.63-43.78,59.08-132.19,29.39-164.61
		c-1.29-1.41-2.53-2.76-3.71-4.05c2.61,2.3,3.71,4.05,3.71,4.05c8.81-6.69,38.84-9.76,61.48-11.14c3.75,0.02,9.04-0.21,16.34-0.8h0
		c3.24-0.12,5.88-0.19,7.72-0.24c49.18,0.62,118.35,39.74,118.35,39.74l6.98-9.08c-64.05-53.07-140.84-38.34-140.84-38.34
		c-58.52,5.94-99.72-12.57-99.72-12.57s-13.41-113.35-101.12-99.38C863.88,1315.85,806.71,1332.41,780.43,1364.63z"/>
	<path class="st1" d="M2262.45,409.56c-29.94-110.56-216.52-76.01-216.52-76.01s-126.69,193.49-163.54,198.09
		c-36.85,4.61,76.01-186.58,76.01-186.58c-71.4-6.91-253.37,80.62-253.37,80.62s11.52,225.73-25.34,221.13
		c-36.85-4.61,0-200.4,0-200.4c-69.1,20.73-133.6,101.35-133.6,101.35c-80.62,131.29,92.14,228.04,92.14,228.04
		s2.3,78.31-46.07,168.15c0,0,0,0,0,0s-10.92,16.59-22.01,44.78h18.84c1.54-5.05,3.23-9.93,5.11-14.62c0-0.04,0.01-0.06,0.04-0.08
		c0.03-0.07,0.06-0.13,0.08-0.2c1.29-2.91,3.14-7.05,5.46-12.1c0-0.01,0.01-0.01,0.01-0.02c0-0.01,0.01-0.01,0.01-0.02
		c5.75-11.27,9.64-19.59,12.1-25.6c0.01-0.02,0.01-0.04,0.02-0.06c17.25-35.37,42.09-81.45,58.66-91.12c0,0-2.08-2.93-4.03-8.64
		c1.29,2.76,2.63,5.63,4.03,8.64c32.25,69.1,193.49,80.62,283.32,62.19c89.83-18.43,50.67-43.76,2.3-84.89
		c-48.37-41.12-149.72-30.28-179.67-46.41c-29.94-16.12,13.82-32.25,73.71-27.64c59.89,4.61,89.83,64.5,186.58,73.71
		c96.74,9.21,170.45-172.76,170.45-172.76c-66.8,20.73-186.58-16.12-191.18-39.16s172.76-20.73,200.4-27.64
		S2292.39,520.13,2262.45,409.56z"/>
	<path class="st1" d="M473.66,417.69c41.24-66.02,155.79-6.81,155.79-6.81s44.3,150.79,67.37,161.04
		c23.06,10.25-12.7-136.32-12.7-136.32c47.8,9.56,148.92,102.32,148.92,102.32s-51.93,144.55-27.06,148.81
		c24.88,4.26,39.46-130.34,39.46-130.34c40.86,27.09,66.94,92.22,66.94,92.22C938.96,749.89,807.55,778.8,807.55,778.8
		s-16.92,50.48-3.14,118.43l0,0c0,0,3.83,12.94,5.5,33.46l-12.25-3.71c-0.01-3.59-0.15-7.1-0.45-10.52c0.01-0.02,0-0.04-0.01-0.06
		c0-0.05-0.01-0.1-0.01-0.15c-0.27-2.15-0.66-5.21-1.17-8.94c0,0,0-0.01,0-0.01c0-0.01-0.01-0.01,0-0.02
		c-1.52-8.46-2.42-14.64-2.83-19.03c0-0.01,0-0.03,0-0.04c-4.25-26.4-11.34-61.26-20.21-70.81c0,0,1.93-1.5,4.32-4.83
		c-1.38,1.54-2.82,3.14-4.32,4.83c-34.58,38.6-141.72,14.34-196.52-15.33c-54.8-29.67-24.34-38.44,15.22-55.66
		c39.56-17.22,103.34,9.78,125.99,5.19c22.65-4.59-2.64-23.7-42.5-32.49c-39.86-8.79-71.13,24.26-135.86,11.21
		c-64.74-13.05-76.85-145.92-76.85-145.92c39.36,26.64,124.53,26.25,132.06,12.17c7.53-14.07-108.28-47.5-124.9-57.43
		C452.99,529.19,432.41,483.71,473.66,417.69z"/>
	<path class="st1" d="M1442.31,409.79c-28.87-48.08-112.13-6.89-112.13-6.89s-33.84,108.05-50.58,115.14
		c-16.74,7.09,10.89-98.03,10.89-98.03c-34.56,6.28-108.58,71.8-108.58,71.8s35.56,104.79,17.59,107.54
		c-17.97,2.75-26.76-94.39-26.76-94.39c-29.78,18.99-49.39,65.58-49.39,65.58c-20.44,72.61,73.84,95.11,73.84,95.11
		s11.54,36.58,0.75,85.35l0,0c0,0-2.93,9.27-4.39,24.03l8.87-2.52c0.05-2.59,0.2-5.11,0.46-7.57c-0.01-0.02,0-0.03,0.01-0.04
		c0-0.04,0.01-0.07,0.01-0.11c0.22-1.54,0.54-3.74,0.95-6.43c0,0,0-0.01,0-0.01c0-0.01,0-0.01,0-0.01
		c1.21-6.08,1.93-10.52,2.28-13.67c0-0.01,0-0.02,0-0.03c3.4-18.96,8.95-43.98,15.46-50.75c0,0-1.37-1.1-3.05-3.53
		c0.97,1.13,1.99,2.3,3.05,3.53c24.42,28.24,101.9,12.14,141.75-8.53c39.85-20.67,18.03-27.38-10.25-40.29
		c-28.27-12.91-74.56,5.73-90.82,2.13c-16.26-3.6,2.2-17.03,31.03-22.86c28.82-5.83,50.92,18.38,97.72,9.81
		c46.8-8.58,57.22-104.13,57.22-104.13c-28.7,18.68-90.03,17.32-95.28,7.08c-5.25-10.23,78.6-32.83,90.7-39.78
		C1455.78,490.37,1471.18,457.87,1442.31,409.79z"/>
	<path class="st2" d="M36.57,1680.64c-0.92,0.26-2.1,0.52-3.58,0.78C34.18,1681.14,35.36,1680.88,36.57,1680.64z"/>
	<g>
		<g>
			<path class="st3" d="M1213.52,1014.03l-56.65,673.61c0,0-5.94,40.83,24.44,40.91c49.94,0.12,248.56,0,248.56,0
				s-37.59-8.5-37.13-27.62c0.54-22.54,66.22-693.27,66.22-693.27L1213.52,1014.03z"/>
			<path class="st4" d="M1445.99,1716.33c-9.82,0.03-199.53,0.62-248.17,0c-21.2-0.26-24.91-18.84-25.09-30.87
				c-0.09-5.76,0.64-10.03,0.64-10.03l1.47-17.51l3.76-44.62l3.32-39.42l4.26-50.66l3.59-42.76l40.25-478.65l245.44-6.37
				c0,0-27.66,280.7-47.23,485.02c-2.18,22.76-4.26,44.59-6.18,64.97c-0.62,6.5-1.22,12.86-1.8,19.06
				c-1.81,19.33-3.47,37.08-4.92,52.76c-0.76,8.26-1.46,15.94-2.1,22.97c-2.5,27.55-3.96,45.15-3.98,48.5
				c-0.01,1.95,0.16,3.76,0.48,5.45C1413.76,1715.63,1442.3,1716.33,1445.99,1716.33z"/>
			<polygon class="st4" points="617.47,647.48 755.47,1201.78 774.36,1277.69 838.63,1535.87 2032.7,1535.87 1795.81,647.48 			"/>
			<polygon class="st4" points="617.47,647.48 598.35,653.85 813.21,1555.16 838.64,1535.87 			"/>
			<polygon class="st3" points="813.21,1555.16 1999.93,1555.16 2032.7,1535.87 838.64,1535.87 			"/>
			
				<rect x="1229.95" y="1716.6" transform="matrix(-1 -1.224647e-16 1.224647e-16 -1 2716.8406 3445.4126)" class="st5" width="256.94" height="12.21"/>
			<polygon class="st5" points="1974.85,1372.17 1781.1,659.22 620.39,659.22 617.47,647.48 1795.81,647.48 1988.91,1370.59 			"/>
			<polygon class="st3" points="1421.57,1555.15 1420.25,1564.48 1178.61,1613.3 1181.92,1573.88 1183.5,1555.15 			"/>
			<path class="st6" d="M1445.99,1716.33c-9.82,0.03-199.53,0.62-248.17,0c-21.2-0.26-24.91-18.84-25.09-30.87l240.5-45.25
				c-2.5,27.55-3.96,45.15-3.98,48.5c-0.01,1.95,0.16,3.76,0.48,5.45C1413.76,1715.63,1442.3,1716.33,1445.99,1716.33z"/>
			<polygon class="st7" points="1363.17,1356.03 838.64,1535.87 774.36,1277.69 			"/>
			<polygon class="st8" points="617.47,647.48 1795.81,647.48 1986.99,1361.47 795.22,1361.47 			"/>
		</g>
		
			<ellipse transform="matrix(0.672 -0.7405 0.7405 0.672 -604.1953 1539.2511)" class="st3" cx="1435.62" cy="1451.72" rx="28.77" ry="34.94"/>
		<polygon class="st9" points="1931.42,1330.53 828.14,1330.53 703.19,832.79 693.62,794.62 685.44,762.06 666.28,685.72 
			1753.66,685.72 1774.7,762.06 1783.68,794.62 1794.2,832.79 		"/>
		<polygon class="st10" points="1774.7,762.06 685.44,762.06 666.28,685.72 1753.66,685.72 		"/>
		<g>
			<path class="st11" d="M711.27,720.22c-1.31-5.27,1.89-9.54,7.16-9.54c5.27,0,10.61,4.27,11.92,9.54s-1.89,9.54-7.16,9.54
				C717.92,729.77,712.58,725.49,711.27,720.22z"/>
			<path class="st11" d="M742.97,720.22c-1.31-5.27,1.89-9.54,7.16-9.54c5.27,0,10.61,4.27,11.92,9.54s-1.89,9.54-7.16,9.54
				C749.63,729.77,744.29,725.49,742.97,720.22z"/>
			<path class="st11" d="M777.12,720.22c-1.31-5.27,1.89-9.54,7.16-9.54c5.27,0,10.61,4.27,11.92,9.54
				c1.31,5.27-1.89,9.54-7.16,9.54C783.77,729.77,778.43,725.49,777.12,720.22z"/>
		</g>
		<polygon class="st12" points="1688.38,1286.37 871.15,1286.37 746.78,798.31 1552.48,798.31 		"/>
		<polygon class="st13" points="1794.07,911.87 1608.84,911.87 1574.98,798.31 1762.45,798.31 		"/>
		<polygon class="st14" points="1294.36,845.84 1188.38,845.84 1184.02,829.51 1290,829.51 		"/>
		<polygon class="st15" points="1482.26,845.84 1308.88,845.84 1304.52,829.51 1477.9,829.51 		"/>
		<polygon class="st15" points="1312.17,889.87 1124.23,889.87 1119.87,873.53 1307.81,873.53 		"/>
		<polygon class="st5" points="1426.5,889.87 1329.08,889.87 1324.72,873.53 1422.14,873.53 		"/>
		<polygon class="st8" points="1326.34,965.66 1220.36,965.66 1216,949.32 1321.98,949.32 		"/>
		<polygon class="st15" points="1514.24,965.66 1340.87,965.66 1336.5,949.32 1509.88,949.32 		"/>
		<polygon class="st16" points="1344.15,1009.69 1156.21,1009.69 1151.85,993.35 1339.79,993.35 		"/>
		<polygon class="st16" points="1458.48,1009.69 1361.06,1009.69 1356.7,993.35 1454.12,993.35 		"/>
		<polygon class="st14" points="1230.35,1077.83 871.8,1077.83 867.44,1061.49 1225.99,1061.49 		"/>
		<polygon class="st8" points="1359.25,1077.83 1253.27,1077.83 1248.91,1061.49 1354.89,1061.49 		"/>
		<polygon class="st15" points="1547.15,1077.83 1373.77,1077.83 1369.41,1061.49 1542.79,1061.49 		"/>
		<polygon class="st16" points="989.53,1121.86 883.55,1121.86 879.19,1105.52 985.17,1105.52 		"/>
		<polygon class="st5" points="1377.06,1121.86 1189.11,1121.86 1184.75,1105.52 1372.7,1105.52 		"/>
		<polygon class="st15" points="1177.43,1121.86 1004.05,1121.86 999.69,1105.52 1173.07,1105.52 		"/>
		<polygon class="st15" points="1491.39,1121.86 1393.97,1121.86 1389.61,1105.52 1487.03,1105.52 		"/>
		<polygon class="st14" points="1271.06,1199.37 912.51,1199.37 908.15,1183.03 1266.7,1183.03 		"/>
		<polygon class="st8" points="1399.95,1199.37 1293.98,1199.37 1289.62,1183.03 1395.59,1183.03 		"/>
		<polygon class="st16" points="1030.23,1243.39 924.26,1243.39 919.9,1227.06 1025.87,1227.06 		"/>
		<polygon class="st5" points="1417.77,1243.39 1229.82,1243.39 1225.46,1227.06 1413.4,1227.06 		"/>
		<polygon class="st15" points="1218.13,1243.39 1044.76,1243.39 1040.4,1227.06 1213.77,1227.06 		"/>
		<polygon class="st15" points="1532.09,1243.39 1434.67,1243.39 1430.31,1227.06 1527.73,1227.06 		"/>
		<g>
			<polygon class="st15" points="1701.85,947.01 1620.34,947.26 1618.54,939.86 1700.05,939.6 			"/>
			<polygon class="st15" points="1744.84,946.87 1714.19,946.97 1712.39,939.57 1743.04,939.47 			"/>
			<polygon class="st15" points="1806.97,946.68 1752.8,946.85 1750.99,939.45 1805.16,939.28 			"/>
			<polygon class="st15" points="1669.59,965.84 1624.9,965.98 1623.1,958.57 1667.79,958.44 			"/>
			<polygon class="st15" points="1734.75,965.64 1677.04,965.82 1675.24,958.41 1732.95,958.24 			"/>
			<polygon class="st15" points="1811.53,965.4 1745.39,965.61 1743.59,958.2 1809.73,958 			"/>
		</g>
		<g>
			<polygon class="st15" points="1711.6,987 1630.09,987.25 1628.28,979.85 1709.8,979.6 			"/>
			<polygon class="st15" points="1754.59,986.87 1723.94,986.96 1722.13,979.56 1752.78,979.47 			"/>
			<polygon class="st15" points="1816.72,986.68 1762.54,986.84 1760.74,979.44 1814.91,979.27 			"/>
			<polygon class="st15" points="1679.34,1005.83 1634.65,1005.97 1632.85,998.57 1677.53,998.43 			"/>
			<polygon class="st15" points="1744.5,1005.63 1686.79,1005.81 1684.98,998.41 1742.69,998.23 			"/>
			<polygon class="st15" points="1821.28,1005.4 1755.14,1005.6 1753.34,998.2 1819.47,997.99 			"/>
		</g>
		<g>
			<polygon class="st16" points="1647.68,814.08 1598.59,814.23 1597.51,809.77 1646.59,809.62 			"/>
			<polygon class="st16" points="1673.57,814 1655.11,814.06 1654.02,809.6 1672.48,809.54 			"/>
			<polygon class="st16" points="1710.98,813.88 1678.36,813.98 1677.27,809.53 1709.89,809.42 			"/>
			<polygon class="st16" points="1628.25,825.42 1601.34,825.5 1600.25,821.04 1627.16,820.96 			"/>
			<polygon class="st16" points="1667.49,825.3 1632.74,825.4 1631.65,820.95 1666.4,820.84 			"/>
			<polygon class="st16" points="1713.73,825.16 1673.9,825.28 1672.81,820.82 1712.64,820.7 			"/>
		</g>
		<g>
			<polygon class="st16" points="1653.55,838.16 1604.46,838.31 1603.38,833.86 1652.46,833.7 			"/>
			<polygon class="st16" points="1679.44,838.08 1660.98,838.14 1659.89,833.68 1678.35,833.62 			"/>
			<polygon class="st16" points="1716.85,837.97 1684.23,838.07 1683.14,833.61 1715.76,833.51 			"/>
			<polygon class="st16" points="1634.12,849.5 1607.21,849.59 1606.12,845.13 1633.03,845.04 			"/>
			<polygon class="st16" points="1673.36,849.38 1638.61,849.49 1637.52,845.03 1672.27,844.92 			"/>
			<polygon class="st16" points="1719.6,849.24 1679.77,849.36 1678.68,844.9 1718.51,844.78 			"/>
		</g>
		<g>
			<polygon class="st15" points="1728.26,1055.34 1646.74,1055.59 1644.94,1048.18 1726.45,1047.93 			"/>
			<polygon class="st15" points="1771.25,1055.2 1740.6,1055.3 1738.79,1047.89 1769.44,1047.8 			"/>
			<polygon class="st15" points="1833.37,1055.01 1779.2,1055.18 1777.4,1047.78 1831.57,1047.61 			"/>
			<polygon class="st15" points="1696,1074.17 1651.31,1074.31 1649.5,1066.9 1694.19,1066.76 			"/>
			<polygon class="st15" points="1761.16,1073.97 1703.44,1074.14 1701.64,1066.74 1759.35,1066.56 			"/>
			<polygon class="st15" points="1837.94,1073.73 1771.8,1073.93 1769.99,1066.53 1836.13,1066.33 			"/>
		</g>
		<g>
			<polygon class="st15" points="1744.58,1122.31 1663.07,1122.56 1661.27,1115.16 1742.78,1114.91 			"/>
			<polygon class="st15" points="1787.57,1122.18 1756.92,1122.27 1755.12,1114.87 1785.77,1114.77 			"/>
			<polygon class="st15" points="1849.7,1121.99 1795.53,1122.15 1793.72,1114.75 1847.89,1114.58 			"/>
			<polygon class="st15" points="1712.32,1141.14 1667.63,1141.28 1665.83,1133.88 1710.52,1133.74 			"/>
			<polygon class="st15" points="1777.48,1140.94 1719.77,1141.12 1717.97,1133.72 1775.68,1133.54 			"/>
			<polygon class="st15" points="1854.26,1140.7 1788.12,1140.91 1786.32,1133.5 1852.45,1133.3 			"/>
		</g>
		<g>
			<polygon class="st15" points="1759.29,1182.65 1677.78,1182.9 1675.97,1175.5 1757.49,1175.25 			"/>
			<polygon class="st15" points="1802.28,1182.52 1771.63,1182.61 1769.82,1175.21 1800.47,1175.12 			"/>
			<polygon class="st15" points="1864.41,1182.33 1810.23,1182.49 1808.43,1175.09 1862.6,1174.92 			"/>
			<polygon class="st15" points="1727.03,1201.48 1682.34,1201.62 1680.54,1194.22 1725.22,1194.08 			"/>
			<polygon class="st15" points="1792.19,1201.28 1734.48,1201.46 1732.67,1194.06 1790.38,1193.88 			"/>
			<polygon class="st15" points="1868.97,1201.04 1802.83,1201.25 1801.02,1193.85 1867.16,1193.64 			"/>
		</g>
		<g>
			<g>
				<g>
					<path class="st17" d="M1797.69,1272.4c-13.1,0-26.87-10.66-30.69-23.76c-3.82-13.1,3.72-23.76,16.82-23.76
						c13.1,0,26.87,10.66,30.69,23.76C1818.34,1261.74,1810.79,1272.4,1797.69,1272.4z M1785.09,1229.22
						c-10.71,0-16.88,8.71-13.75,19.42c3.13,10.71,14.38,19.42,25.09,19.42c10.71,0,16.87-8.71,13.75-19.42
						C1807.05,1237.93,1795.8,1229.22,1785.09,1229.22z"/>
				</g>
				<g>
					<path class="st17" d="M1793.81,1260.73c-0.9-0.07-1.85-0.46-2.67-1.11l-13.33-10.67c-1.8-1.44-2.42-3.73-1.38-5.11
						c1.04-1.38,3.34-1.33,5.15,0.11l9.42,7.54l4.83-11.16c0.7-1.62,2.85-1.97,4.81-0.81c1.96,1.17,2.98,3.43,2.28,5.05l-6.35,14.67
						c-0.38,0.87-1.2,1.41-2.25,1.49C1794.15,1260.74,1793.98,1260.74,1793.81,1260.73z"/>
				</g>
			</g>
			<g>
				<g>
					<path class="st5" d="M1863.27,1272.4c-13.1,0-26.87-10.66-30.69-23.76c-3.82-13.1,3.72-23.76,16.82-23.76
						c13.1,0,26.87,10.66,30.69,23.76C1883.92,1261.74,1876.37,1272.4,1863.27,1272.4z M1850.67,1229.22
						c-10.71,0-16.88,8.71-13.75,19.42c3.13,10.71,14.38,19.42,25.09,19.42c10.71,0,16.88-8.71,13.75-19.42
						C1872.63,1237.93,1861.38,1229.22,1850.67,1229.22z"/>
				</g>
				<g>
					<path class="st5" d="M1857.47,1252.53L1857.47,1252.53c-1.85,0-3.8-1.51-4.34-3.36l-2.95-10.09c-0.54-1.85,0.53-3.36,2.38-3.36
						l0,0c1.85,0,3.8,1.51,4.34,3.36l2.95,10.09C1860.39,1251.02,1859.32,1252.53,1857.47,1252.53z"/>
					<path class="st5" d="M1860.15,1260.45h-0.73c-1.65,0-3.39-1.35-3.87-3l0,0c-0.48-1.65,0.47-3,2.12-3h0.73
						c1.65,0,3.39,1.35,3.87,3l0,0C1862.75,1259.1,1861.8,1260.45,1860.15,1260.45z"/>
				</g>
			</g>
		</g>
		<g>
			<g>
				<g>
					<path class="st17" d="M1724.61,900.94c-7.18,0-14.73-5.84-16.83-13.02c-2.1-7.18,2.04-13.03,9.22-13.03
						c7.18,0,14.73,5.84,16.83,13.03C1735.93,895.09,1731.8,900.94,1724.61,900.94z M1717.71,877.27c-5.87,0-9.25,4.78-7.54,10.65
						c1.71,5.87,7.88,10.65,13.75,10.65c5.87,0,9.25-4.78,7.54-10.65C1729.75,882.04,1723.58,877.27,1717.71,877.27z"/>
				</g>
				<g>
					<path class="st17" d="M1722.48,894.54c-0.49-0.04-1.02-0.25-1.46-0.61l-7.31-5.85c-0.99-0.79-1.33-2.05-0.76-2.8
						c0.57-0.76,1.83-0.73,2.82,0.06l5.16,4.14l2.65-6.12c0.38-0.89,1.57-1.08,2.64-0.44c1.07,0.64,1.63,1.88,1.25,2.77l-3.48,8.04
						c-0.21,0.48-0.66,0.77-1.23,0.81C1722.67,894.54,1722.58,894.54,1722.48,894.54z"/>
				</g>
			</g>
			<g>
				<g>
					<path class="st17" d="M1687.35,900.94c-7.18,0-14.73-5.84-16.83-13.02c-2.1-7.18,2.04-13.03,9.22-13.03
						c7.18,0,14.73,5.84,16.83,13.03C1698.67,895.09,1694.53,900.94,1687.35,900.94z M1680.44,877.27c-5.87,0-9.25,4.78-7.54,10.65
						c1.71,5.87,7.88,10.65,13.75,10.65c5.87,0,9.25-4.78,7.54-10.65C1692.48,882.04,1686.31,877.27,1680.44,877.27z"/>
				</g>
				<g>
					<path class="st17" d="M1685.21,894.54c-0.49-0.04-1.02-0.25-1.46-0.61l-7.31-5.85c-0.99-0.79-1.33-2.05-0.76-2.8
						c0.57-0.76,1.83-0.73,2.82,0.06l5.16,4.14l2.65-6.12c0.38-0.89,1.57-1.08,2.64-0.44c1.07,0.64,1.63,1.88,1.25,2.77l-3.48,8.04
						c-0.21,0.48-0.66,0.77-1.23,0.81C1685.41,894.54,1685.31,894.54,1685.21,894.54z"/>
				</g>
			</g>
			<g>
				<g>
					<path class="st17" d="M1648.74,900.94c-7.18,0-14.73-5.84-16.83-13.02c-2.1-7.18,2.04-13.03,9.22-13.03s14.73,5.84,16.83,13.03
						C1660.06,895.09,1655.92,900.94,1648.74,900.94z M1641.83,877.27c-5.87,0-9.25,4.78-7.54,10.65
						c1.71,5.87,7.88,10.65,13.75,10.65c5.87,0,9.25-4.78,7.54-10.65C1653.87,882.04,1647.7,877.27,1641.83,877.27z"/>
				</g>
				<g>
					<path class="st17" d="M1646.61,894.54c-0.5-0.04-1.02-0.25-1.46-0.61l-7.31-5.85c-0.99-0.79-1.33-2.05-0.76-2.8
						c0.57-0.76,1.83-0.73,2.82,0.06l5.16,4.14l2.65-6.12c0.38-0.89,1.56-1.08,2.64-0.44c1.07,0.64,1.63,1.88,1.25,2.77l-3.48,8.04
						c-0.21,0.48-0.66,0.77-1.23,0.81C1646.8,894.54,1646.71,894.54,1646.61,894.54z"/>
				</g>
			</g>
			<g>
				<g>
					<path class="st5" d="M1760.57,900.94c-7.18,0-14.73-5.84-16.83-13.02c-2.1-7.18,2.04-13.03,9.22-13.03
						c7.18,0,14.73,5.84,16.83,13.03C1771.89,895.09,1767.75,900.94,1760.57,900.94z M1753.66,877.27c-5.87,0-9.25,4.78-7.54,10.65
						c1.71,5.87,7.88,10.65,13.75,10.65c5.87,0,9.25-4.78,7.54-10.65C1765.7,882.04,1759.53,877.27,1753.66,877.27z"/>
				</g>
				<g>
					<path class="st5" d="M1757.39,890.04L1757.39,890.04c-1.01,0-2.08-0.83-2.38-1.84l-1.62-5.53c-0.29-1.01,0.29-1.84,1.3-1.84
						l0,0c1.01,0,2.08,0.83,2.38,1.84l1.62,5.53C1758.99,889.21,1758.4,890.04,1757.39,890.04z"/>
					<path class="st5" d="M1758.86,894.39h-0.4c-0.9,0-1.86-0.74-2.12-1.64l0,0c-0.26-0.9,0.26-1.64,1.16-1.64h0.4
						c0.9,0,1.86,0.74,2.12,1.64l0,0C1760.29,893.65,1759.76,894.39,1758.86,894.39z"/>
				</g>
			</g>
		</g>
	</g>
	<g>
		<g>
			<path class="st18" d="M506.11,1261.74c0,0,19.64,5.04,32.12,1.28c12.48-3.76,33.96,2.42,37.42,6.97
				c3.46,4.55,2.19,6.36-3.98,7.93c-6.17,1.57-28.04,10.9-42.42,5.5c-14.37-5.4-33.12-5.59-33.12-5.59L506.11,1261.74z"/>
			<path class="st19" d="M336.42,1091.19c0,0,22.06,156.77,58.58,170.81c18.02,6.93,97.67,22.63,121.23,24.21
				c0,0,5.77-4.68,4.37-23.74c0,0-83.44-30.63-95.3-47.3c-17.64-24.8,10.95-101.29-11.19-124.58
				C391.97,1067.3,354.68,1057.29,336.42,1091.19z"/>
		</g>
		<path class="st20" d="M347.66,1712.74h13.65c4.64,0,8.43-3.79,8.43-8.43v-250.1c0-4.64-3.79-8.43-8.43-8.43h-13.65
			c-4.64,0-8.43,3.79-8.43,8.43v250.1C339.23,1708.95,343.03,1712.74,347.66,1712.74z"/>
		<path class="st20" d="M260.35,1730.29c9.87-20.42,48.26-35.65,94.13-35.65s84.26,15.23,94.13,35.65H260.35z"/>
		<path class="st20" d="M285.02,1661.04h138.92c1.23,0,2.24-1.01,2.24-2.24v-6.27c0-1.23-1.01-2.24-2.24-2.24H285.02
			c-1.23,0-2.24,1.01-2.24,2.24v6.27C282.78,1660.03,283.79,1661.04,285.02,1661.04z"/>
		<path class="st21" d="M343.85,1421.46c6.43,10.91,13.88,21.14,21.55,30.83c23.71,29.93,49.51,54.6,54.01,77.93
			c0.89,4.65,2.31,9.66,4.17,14.93c1.88,5.34,4.2,10.96,6.88,16.77c10.06,21.85,25.1,46.34,40.12,68.59
			c25.97,38.48,50.38,70.58,50.38,70.58l44.78-1.91c-1.79-4.49-21.32-57.61-47.45-122.53c-10.61-26.35-21.89-54.39-32.77-81.42
			c-1.45-3.61-2.9-7.21-4.34-10.77c-3.33-8.27-6.6-16.42-9.8-24.35c-24.53-60.96-44.07-109.5-44.07-109.5s-98.05-37.14-108.23-13.08
			C310.68,1357.37,317.52,1376.81,343.85,1421.46z"/>
		<path class="st21" d="M522.35,1692.95c0,0,2.29,36.95,9.44,37.48c0.95,0.07,36.26,0.07,36.26,0.07l45.07-0.26
			c0,0-0.3-10.86-13.47-13.16c-13.17-2.3-35.23-11.55-43.21-28.97C548.05,1669.79,522.35,1692.95,522.35,1692.95z"/>
		<path class="st21" d="M418.67,1587.39c0,0-31.15,20.01-28.12,26.51c0.4,0.86,17.61,31.69,17.61,31.69l22.2,39.23
			c0,0,9.34-5.55,4.92-18.17c-4.42-12.62-7.08-36.39,4.23-51.85C451.41,1598.54,418.67,1587.39,418.67,1587.39z"/>
		<path class="st14" d="M462.52,1334.07c0,0,121.35,75.56,135.09,127.07c13.74,51.52-163.71,161.42-163.71,161.42
			s-19.46-17.17-22.9-29.76c0,0,80.21-96.1,97.61-117.64c10.69-13.23-157.99-45.8-178.6-77.85c-20.61-32.05-13.23-59.02-13.23-59.02
			L462.52,1334.07z"/>
		<path class="st22" d="M227.17,1500.1H481.8c4.28,0,7.78-3.5,7.78-7.78v-53.14c0-4.28-3.5-7.78-7.78-7.78H227.17
			c-4.28,0-7.78,3.5-7.78,7.78v53.14C219.39,1496.6,222.89,1500.1,227.17,1500.1z"/>
		<path class="st18" d="M403.9,1064.31c12.09,7.49,18.75,16.99,18.75,16.99c-29.48,7.63-78.36-19.69-78.36-19.69
			s18.98-12.75,26.01-40.77c0.36-1.41,0.68-2.86,0.97-4.35c0.92-4.72,1.49-9.83,1.6-15.34l13.54,12.13l22.52,20.18
			c0,0-0.51,8.37-3.33,22.77C405.11,1058.74,404.54,1061.44,403.9,1064.31z"/>
		<path class="st23" d="M313.07,1203.52c4.22,56.8-1.33,143.19,3.46,158.15c4.13,12.91,51.24,5.23,70.05,0.92
			c6.96-1.59,15.39-3.87,24.1-6.57c24.29-7.52,50.75-18.26,53.59-26.23c0.11-0.31,0.2-0.62,0.26-0.92c0.26-1.16,0.2-2.24-0.05-3.34
			c-0.95-4.06-4.59-8.46-5.02-18.52c-0.48-11.23-0.41-24.46-0.83-38.69c-0.02-1.6-0.04-3.35-0.22-4.94l-0.01-0.58
			c-0.01-0.31-0.01-0.6-0.02-0.91c-0.41-15.86-1.24-32.54-2.2-49.08c-0.61-10.39-1.32-20.67-2.13-30.53
			c-2.12-25.44-4.97-48.07-8.75-62.38c-6.17-23.32-19.79-38.53-32.18-49.67l-8.96-7.69c-10,2.18-21.83,0.74-32.52-4.33
			c-11.58-5.5-15.57-9.44-17.59-7.95C327.31,1070.88,308.08,1134.08,313.07,1203.52z"/>
		<path class="st19" d="M410.67,1356.02c24.29-7.52,50.75-18.26,53.59-26.23c0.11-0.31,0.2-0.62,0.26-0.92
			c-0.01-1.11-0.03-2.23-0.05-3.34c-0.95-4.06-4.59-8.46-5.02-18.52c-0.48-11.23-0.41-24.46-0.83-38.69
			c-0.02-1.6-0.04-3.35-0.22-4.94l-0.01-0.58c-0.01-0.31-0.01-0.6-0.02-0.91l-91.74-41.61
			C366.64,1220.28,361.35,1294.22,410.67,1356.02z"/>
		<path class="st24" d="M408.92,1033.46c0,0-0.51,8.37-3.33,22.77c-21.99-7.11-31.97-26.97-35.3-35.39
			c-0.95-2.38-1.36-3.85-1.36-3.85s0.85-0.18,2.32-0.49c3.09-0.66,8.91-1.89,15.14-3.21L408.92,1033.46z"/>
		<path class="st18" d="M417.83,1033.24c0,0-48.31,5.45-51.24-24.69c-2.93-30.14-11.14-49.74,19.58-54.49
			c30.72-4.75,37.84,6.16,41.27,15.99C430.86,979.87,430.32,1031.04,417.83,1033.24z"/>
		<path class="st20" d="M366.79,1010.63c0,0,3.06-40.01,47.04-44.15c30.12-2.84,13.33-28.77,10.12-32.9c0,0-23.08,3.16-46.74,7.07
			C327.56,948.85,361.91,1004.4,366.79,1010.63z"/>
		<g>
			
				<rect x="618.54" y="1188.13" transform="matrix(-0.9511 -0.3089 0.3089 -0.9511 826.1913 2623.4944)" class="st19" width="4.45" height="116.44"/>
			
				<rect x="482.79" y="1293.79" transform="matrix(-0.9998 -0.0214 0.0214 -0.9998 1059.9402 2606.2112)" class="st19" width="122.19" height="7.31"/>
		</g>
		<g>
			<path class="st18" d="M496.01,1285.85c0,0,18.96,7.18,31.78,4.82c12.82-2.36,33.49,6.14,36.43,11.05
				c2.94,4.9,1.47,6.56-4.83,7.44c-6.31,0.88-29.07,7.74-42.77,0.79c-13.69-6.95-32.3-9.21-32.3-9.21L496.01,1285.85z"/>
			<path class="st23" d="M346.15,1097.62c0,0,4.64,158.24,39.39,176.22c17.15,8.87,94.58,33.26,117.82,37.43
				c0,0,6.25-4.02,6.96-23.11c0,0-79.56-39.65-89.5-57.51c-14.8-26.59,22.05-99.47,2.62-125.06
				C403.99,1080,368.04,1065.94,346.15,1097.62z"/>
		</g>
	</g>
	<g>
		<path class="st25" d="M1666.45,1725.4c0,0,1.77-13.82,5.88-22.04c4.11-8.22,30.26-2.99,30.26-2.99s5.23,4.48,6.35,25.4
			L1666.45,1725.4z"/>
		<path class="st25" d="M1577.36,1725.21c6.14-3.75,2.65-31.73,2.65-31.73s-28.63-22.9-32.57-5.37
			c-3.94,17.54-27.2,25.41-40.44,27.56c-9.14,1.48-11.97,6.54-12.85,9.54H1577.36z"/>
		<path class="st26" d="M1636.66,1521.74c-1.17,6.42-1.9,11.69-2.1,15.47c-2.66,51.91-43.7,170.6-51.04,173.37
			c-11.36,4.29-29.24-4.82-38.6-7.8c-3.88-1.24-6.49-5.15-5.63-9.12c20.32-93.42,27.79-227.95,30.51-307.6
			c1.37-40.12,8.26-67.83,8.26-67.83s100.09-26.7,100.68,7.08C1679.27,1355.19,1645.59,1472.43,1636.66,1521.74z"/>
		<path class="st25" d="M1636.66,1521.74l-66.86-135.68c1.37-40.12,8.26-67.83,8.26-67.83s100.09-26.7,100.68,7.08
			C1679.27,1355.19,1645.59,1472.43,1636.66,1521.74z"/>
		<path class="st26" d="M1614.39,1325.42l52.91,383.47c0,0,23.23,5.6,41.31,1.12c0,0,15.49-203.95,14.2-253.26
			c-1.29-49.31,11.12-131.94-2.83-141.05C1706.03,1306.6,1614.39,1325.42,1614.39,1325.42z"/>
		<path class="st20" d="M1723.69,1226.96l6.59,92.07c0.26,3.46-1.96,6.62-5.3,7.58c-7.38,2.14-15.89,3.63-32.3,7.03
			c-15.41,3.2-36.15,6.04-61.63,6.19c-40.53,0.26-55.87-13.71-55.87-13.71c-1.75,0.03,0.92-8.45,3.33-48.78
			c0.81-13.66,1.6-30.98,2.17-52.86c0.51-19.69,0.86-43.09,0.89-70.84c0.04-33.39,51.72-69.31,52.68-69.31l0.01,0.02
			c0,4.81,7.58,13.68,19.25,14.44c13.85,0.91,30.84-5.99,30.84-13.96c0-0.08,25.04,40.05,33.93,82.82
			c1.13,5.42,2.01,11.14,2.7,17.16c0.01,0.09,0.02,0.18,0.03,0.27c0.13,1.1,0.25,2.2,0.36,3.32c0.02,0.19,0.04,0.39,0.06,0.59
			c0.1,1.01,0.21,2.04,0.3,3.07c0.03,0.29,0.05,0.59,0.08,0.88c0.09,0.94,0.17,1.88,0.24,2.83c0,0.09,0.01,0.17,0.02,0.26
			c0.06,0.71,0.11,1.42,0.16,2.13c0.04,0.5,0.08,1.01,0.11,1.52c0.06,0.84,0.11,1.67,0.17,2.51c0.03,0.42,0.05,0.84,0.08,1.27
			c0.05,0.8,0.1,1.6,0.15,2.41c0.02,0.36,0.04,0.72,0.06,1.08c0.06,1.16,0.13,2.34,0.19,3.52c0.01,0.1,0.01,0.19,0.02,0.29
			c0.06,1.14,0.11,2.28,0.17,3.44c0.02,0.29,0.03,0.57,0.04,0.85c0.05,1.08,0.1,2.17,0.15,3.27c0,0.16,0.02,0.32,0.02,0.49
			C1723.49,1221.48,1723.59,1224.21,1723.69,1226.96c0.01,0.07,0.01,0.14,0.01,0.21L1723.69,1226.96z"/>
		<path class="st20" d="M1634.24,1084.34c0,0-48.06-0.41-59.62,15.81c-11.57,16.22-36.92,103.48-23.69,132.51
			c13.23,29.03,37.99-12.01,51.74-29.8C1616.41,1185.08,1634.24,1084.34,1634.24,1084.34z"/>
		<path class="st27" d="M1633.75,1077l0.03,4.97c0,0-1.35,15.54,17.78,17.8c19.13,2.28,33.62-6.06,33.11-18.05
			c-1.72-9.28-3.62-15.66-3.74-23.34c-0.05-2.85,0.15-5.88,0.68-9.3l-37.07-0.74l-10.92,1.78L1633.75,1077z"/>
		<path class="st28" d="M1633.61,1050.13l0.14,26.87c3.94,1.83,8.38,2.95,13.36,2.95c17.04,0,28.05-12.49,33.81-21.56
			c-0.05-2.85,0.15-5.88,0.68-9.3l-37.07-0.74L1633.61,1050.13z"/>
		<path class="st27" d="M1684.44,1043.12c-4.3,23.15-34.17,22.39-47.08,20.93c-3.63-0.41-5.92-0.87-5.92-0.87
			c-4.09-1.09-6.38-7.55-7.44-16c-2.11-16.72,0.56-41.27,3.38-47.55c4.25-9.45,12.26-19.67,42.34-12.29
			C1699.8,994.72,1689.96,1013.46,1684.44,1043.12z"/>
		<path class="st25" d="M1585.1,1149.36c0,0-18.59,41.05-18.05,53.35c0,0,9.2-0.32,18.05,2.32
			C1599.63,1209.37,1585.1,1149.36,1585.1,1149.36z"/>
		<path class="st25" d="M1618.15,977.6c0,0,13.24-1.02,28.86-7.81c12.67-5.51,28.67,0.56,33.86,3.29c-0.14-0.84-0.47-1.98-1.27-3.12
			c0,0,2.33,1.65,2.67,3.96c0.24,0.18,0.35,0.3,0.29,0.34c0,0,2.64-0.48,4.34,0.28c0,0-1.19-0.17-1.61,0.59
			c-0.04,0.08-0.11,0.15-0.19,0.21c19.77,9.55,21.6,40.8,15.23,48.03c-7.65,8.7-16.83,28.29-16.83,28.29s-3.35-4.63-1.96-12.28
			s-5.22-7.66-13.57-11.13c-8.35-3.48-1.39-13.22-8.7-19.14c-7.31-5.91-34.1-2.43-33.75-6.96
			C1615.57,998.53,1618.15,978.62,1618.15,977.6z"/>
		<path class="st25" d="M1690.5,1226.25c-7.85,31.51-92.7,47.79-111.99,51.1c0.81-13.66,1.6-30.98,2.17-52.86L1690.5,1226.25z"/>
		<path class="st27" d="M1671.87,1236.49c0.81,0,18.86-2.69,22.1-4.31c3.23-1.62,18.02-22.63,8.34-28.03
			c-9.69-5.39-35.69,16.17-35.69,16.17L1671.87,1236.49z"/>
		<path class="st20" d="M1562.06,1242.74c0,0,69.83,3.79,116.69-6.24c0,0,1.18-13.54-13.55-19.55c0,0-73.04-15.48-90.58-11.17
			C1557.07,1210.08,1562.06,1242.74,1562.06,1242.74z"/>
		<path class="st20" d="M1722.42,1187.94c-14.49,17.47-33.44,31.74-54.32,35.08l-0.01,0c-0.17-0.26-6.32-9.6-5.17-23.32
			c0.53-6.35,2.63-13.64,7.6-21.41c1.53-2.39,2.89-5.18,4.11-8.28c11.4-29.1,9.71-85.18,9.71-85.18s48.43,5.07,63.52,26.63
			C1757.1,1124.66,1745.32,1160.31,1722.42,1187.94z"/>
		<path class="st28" d="M1637.36,1064.05c-3.63-0.41-5.92-0.87-5.92-0.87c-4.09-1.09-6.38-7.55-7.44-16
			c7.68,1.89,11.2,7.83,12.66,10.35C1637.33,1058.68,1637.46,1061.23,1637.36,1064.05z"/>
		<path class="st27" d="M1617.85,1077.14c0,0-16.73-27.6-3.72-28.8c13.01-1.2,18.23,7.6,20.11,10.84
			c1.88,3.23-0.49,17.82-0.49,17.82L1617.85,1077.14z"/>
		<path class="st20" d="M1681.6,1198.77c-0.51,3.5-1.56,6.72-2.85,9.58c-4.08,9.07-10.65,14.67-10.65,14.67l-0.01,0
			c-43.44-19.61-52.23-86.94-53.7-123.93c-0.59-14.87,0-24.84,0-24.84c19.6-6.49,25.1,4.79,25.1,4.79s23.14,55.02,35.14,90.98
			C1679.23,1183.77,1682.19,1194.74,1681.6,1198.77z"/>
		<path class="st25" d="M1722.42,1187.94c-14.49,17.47-33.44,31.74-54.32,35.08l-0.01,0c-43.44-19.61-52.23-86.94-53.7-123.93
			c0,0,20.56,74.55,48.53,100.61c5.06,4.71,10.36,7.84,15.82,8.66c0,0,35.28-9.97,42.68-19.36
			C1721.95,1188.32,1722.28,1187.98,1722.42,1187.94z"/>
	</g>
	<g>
		<path class="st4" d="M2438.73,1662.28c8.47,31.66,71.06,50.3,139.52,61.23h255.49c61.58-30.15,61.5-66.11,66.44-165.41
			c10.21-205.09-97.68-304.11-145.79-287.76c-2,0.68-4.04,1.42-6.11,2.26c-13.98,5.62-29.64,15.56-44.88,39.2
			c0,0-47.82,79.7-87.17,127.24c-12.67,15.3-24.46,27.29-33.49,32.19c-0.1,0.06-0.2,0.12-0.32,0.17c-0.48,0.26-0.95,0.48-1.41,0.69
			c-20.85,9.54-50.24,29.55-77.08,54.79c0,0,0,0-0.02,0C2462.29,1566,2426.79,1617.65,2438.73,1662.28z"/>
		<path class="st7" d="M2503.93,1526.87c35.82,11.01,220.19,64.23,263.58,7.79c31.42-40.87,11.86-145.57-5.5-213.31
			c-7.11-27.77-42.62-34.07-58.15-10.26c-0.15,0.23-0.31,0.47-0.46,0.71c0,0-47.82,79.7-87.17,127.24
			c-11.39,15.02-22.61,26.6-33.49,32.19c-0.1,0.06-0.2,0.12-0.32,0.17c-0.47,0.26-0.95,0.48-1.41,0.69
			C2560.16,1481.63,2530.77,1501.64,2503.93,1526.87z"/>
		<g>
			<path class="st29" d="M2641.07,1268.15c0,0-12.78,18.91-20.06,58.65c-6.38,34.81-11.98,47.66-21.19,54.8
				c-9.22,7.14-60.56,28.21-60.56,28.21l3.84,8.99c0,0,75.26-10.25,83.72-22.83c8.45-12.58,40.68-86.9,38.18-104.01
				C2662.49,1274.85,2641.07,1268.15,2641.07,1268.15z"/>
			<g>
				<path class="st27" d="M2456.77,1683.34c0.68,7.34-9.54,9.13-21.38,9.72c-11.83,0.59-8.26,3.01-24.48,5.95
					c-16.22,2.94-22.72-1.5-23.89-3.69c-1.05-1.94,6.5-4.99,14.53-8.42c1.01-0.43,2.02-0.87,3.04-1.31
					c9.04-3.98,14.12-12.09,21.17-19.61c6.68-7.12,13.02-29.93,13.02-29.93l22.04-4.71c0,0-6.19,20.53-8.34,29.29
					c-1.26,5.15,0.6,10.92,2.26,15.3C2455.64,1678.31,2456.54,1680.75,2456.77,1683.34z"/>
				<path class="st30" d="M2435.39,1693.05c-11.83,0.59-8.26,3.01-24.48,5.95c-16.22,2.94-22.72-1.5-23.89-3.69
					c-1.05-1.94,6.5-4.99,14.53-8.42l0.12,0.14c0,0,11.41,3.87,24.57,0.29c10.73-2.91,21.1-9.33,28.5-11.4
					c0.89,2.39,1.79,4.83,2.03,7.42C2457.45,1690.68,2447.23,1692.46,2435.39,1693.05z"/>
			</g>
			<path class="st21" d="M2676.26,1421.97c0,0-146.47-11.02-174.04,6.38c-27.57,17.4-71.8,220.1-71.8,220.1s2.73,2.19,8.82,2.85
				c5.67,0.61,18.16-2.72,18.16-2.72s63.56-90.7,68.03-113.54c4.48-22.85,3.38-43.24,13.58-43.78
				c10.19-0.55,137.27,15.45,156.49-18.41c19.22-33.86,3.33-67.38,3.33-67.38L2676.26,1421.97z"/>
			<g>
				<path class="st27" d="M2512.82,1706.86c0.68,7.34-9.54,9.13-21.38,9.71c-11.84,0.59-8.26,3.01-24.48,5.95
					c-16.22,2.94-22.72-1.5-23.89-3.69c-1.05-1.94,6.5-4.99,14.53-8.42c1.01-0.43,2.02-0.87,3.04-1.31
					c9.04-3.98,14.12-12.09,21.17-19.61c6.68-7.12,13.02-29.93,13.02-29.93l22.04-4.71c0,0-6.19,20.53-8.34,29.29
					c-1.26,5.15,0.6,10.92,2.26,15.3C2511.68,1701.83,2512.58,1704.28,2512.82,1706.86z"/>
				<path class="st30" d="M2491.44,1716.58c-11.84,0.59-8.26,3.01-24.48,5.95c-16.22,2.94-22.72-1.5-23.89-3.69
					c-1.05-1.94,6.5-4.99,14.53-8.42l0.13,0.14c0,0,11.4,3.87,24.57,0.29c10.73-2.91,21.1-9.33,28.5-11.4
					c0.89,2.39,1.79,4.83,2.03,7.42C2513.49,1714.2,2503.27,1715.99,2491.44,1716.58z"/>
			</g>
			<path class="st14" d="M2704.95,1431.04c0,0-130.11,6.16-156.99,24.62c-26.88,18.46-63.18,222.73-63.18,222.73s2.81,2.08,8.93,2.5
				c5.69,0.39,18.03-3.42,18.03-3.42s59.98-93.1,63.56-116.11c3.58-23.01,1.7-43.33,11.86-44.28
				c10.16-0.94,137.76,10.09,155.65-24.49C2760.71,1458.01,2704.95,1431.04,2704.95,1431.04z"/>
			<path class="st31" d="M2660.4,1257.74c-2.52-4.43-5.54-12.4-7.72-26.81c0.28,1.43,4,19.54,11.72,29.42
				c30.14,17.03,89.7,76.64,89.4,88.71c0,0,17.29-34.36,17.61-34.58c0,0,32.91-48.12-11.45-71.47
				c-22.55-11.87-23.58-28.96-23.66-43.86c-0.08-14.9-11.16-78.34-53.43-58.72c0,0-7.17-2.63-10.26-1.96c0,0,2.58,0.32,3.96,1.57
				c-5.05,0.04-12.22,0.89-17.99,4.7C2643.28,1154.82,2634.45,1236.87,2660.4,1257.74z"/>
			<path class="st27" d="M2710.42,1246.37c0,0-12.12-1.15-24.23,0c-8.23,0.78-16.39,3.34-21.03,5.28
				c-11.47,4.79-10.26,25.1,13.8,21.34C2703.01,1269.23,2712.1,1252.39,2710.42,1246.37z"/>
			<path class="st27" d="M2666.17,1261.18c-0.14,0.07-3.43,17.47,12.32,16.77c10.34-0.46,32.65-12.97,30.68-21.83
				c-0.94-4.21-8.75-15.13-10.32-40.06l-1.88,0.5l-31.66,8.49c0,0,1.4,10.05,2.06,19.56
				C2667.92,1252.6,2667.94,1260.2,2666.17,1261.18z"/>
			<path class="st29" d="M2665.31,1225.06c0,0,1.4,10.05,2.06,19.56c17.92-1.7,26.32-18.71,29.6-28.05L2665.31,1225.06z"/>
			<path class="st31" d="M2700.05,1212.85c0,0,8.42-15.49,9.83-28.35c1.01-9.18-5.86-42.51-39.34-35.41c0,0-9.75,1.62-18.56,8.47
				c-7.01,5.45-16.89,16.85-3.09,45.41l3.74,9.71L2700.05,1212.85z"/>
			<path class="st27" d="M2659.91,1234.46c0,0,42.52-2.13,40.78-28.59c-1.73-26.46,2.58-44.55-24.64-44.31s-31.83,10.68-33.4,19.66
				C2641.1,1190.19,2648.81,1234.33,2659.91,1234.46z"/>
			<path class="st31" d="M2656.68,1162.2c0,0,13.7,30.26,31.85,33.66c18.15,3.4,25.58-1.9,25.58-1.9s-14.42-9.96-18.52-28.76
				C2695.58,1165.21,2664.46,1146.84,2656.68,1162.2z"/>
			<path class="st31" d="M2659.73,1164.53c0,0-8.22,7.51-9.89,14.39c-1.67,6.88-1.7,20.81-5.77,20.61c0,0-10.17-20.51-1.12-33.1
				C2652.54,1153.07,2659.73,1164.53,2659.73,1164.53z"/>
			<path class="st14" d="M2617.37,1424.18c3.44,4.11,14.19,5.38,25.67,7.27c9.03,1.49,18.53,3.36,25.28,7.33
				c15.33,9,65.41,39.41,80.08,38.03c5.69-0.54,4.63-11.4,1.18-25.81c-5.43-22.76-16.78-54.37-16.78-68.12
				c0-7.5-2.5-25.25-5.83-45.55c-0.27-1.64-0.55-3.28-0.82-4.95c-6.59-39.46-15.73-85.99-15.73-85.99s-10.18,22.22-30.03,22.22
				c-19.84,0-15.23-16.95-15.23-16.95s-18.11,2.13-22.38,6.74c-4.28,4.61-15.13,24.52-17.28,29.96c0,0-0.44,6.91,16.67,10.2
				c0,0-4.17,18.76-4.66,31.27c-0.37,9.24,6.3,38.16,8.22,56.14c0.68,6.37,0.77,11.37-0.26,13.64c-1.32,2.91-5.61,5.8-10.48,8.64
				C2625.31,1413.86,2613.29,1419.28,2617.37,1424.18z"/>
			<path class="st21" d="M2634.98,1408.23c-10.98,18.73,29.79,24.36,36.54,28.32c15.33,9,62.2,41.63,76.88,40.24
				c5.69-0.54,4.63-11.4,1.18-25.81c-5.43-22.76-16.78-54.37-16.78-68.12c0-7.5-2.5-25.25-5.83-45.55l-17.67-16.96
				c0,0-18.93,48.93-36.98,56.95c-9.46,4.2-19.33,6.97-26.59,8.66c0.68,6.37,0.77,11.37-0.26,13.64
				C2644.14,1402.5,2639.86,1405.4,2634.98,1408.23z"/>
			<path class="st27" d="M2715.85,1261.02c0,0,15.11-9.17,29.71,8.23c14.61,17.4-10.38,141.8-32.02,148.19
				c-24.04,7.1-93.48-1.14-93.48-1.14l1.34-10.85c0,0,73.93-14.17,77-18.12S2708.17,1263.03,2715.85,1261.02z"/>
			<path class="st14" d="M2710.42,1246.37c0,0,31.02,2.8,40.03,13c9.01,10.2,11.64,37.85,11.64,37.85s-27.32,22.05-60.24,13.5
				L2710.42,1246.37z"/>
			<g>
				
					<rect x="2571.83" y="1422.12" transform="matrix(-1 -1.224647e-16 1.224647e-16 -1 5184.6274 2849.0798)" class="st32" width="40.98" height="4.84"/>
				<path class="st32" d="M2580.53,1426.3c-0.4-1.6-37.67-60.12-37.67-60.12h-82.92l41.59,58.55L2580.53,1426.3z"/>
				<path class="st31" d="M2577.04,1426.96c-0.4-1.6-37.79-60.79-37.79-60.79h-79.31l39.57,60.79H2577.04z"/>
				<path class="st32" d="M2507.12,1396.77c0.82,2.37,3.4,4.29,5.77,4.29c2.37,0,3.63-1.92,2.81-4.29c-0.82-2.37-3.4-4.29-5.77-4.29
					C2507.57,1392.47,2506.31,1394.39,2507.12,1396.77z"/>
			</g>
			<path class="st27" d="M2627.42,1404.81c0,0-24.07-4.66-26.79-3.49c-2.72,1.17-17.86,14.75-16.3,17.47
				c1.55,2.72,7.76,4.66,14.75,2.33c6.99-2.33,22.13-3.49,24.85-6.99C2626.65,1410.63,2627.42,1404.81,2627.42,1404.81z"/>
		</g>
	</g>
	<g>
		<polygon class="st33" points="2114.22,730.18 1356.81,730.18 1298.76,540.09 2056.17,540.09 		"/>
		<g>
			<path class="st34" d="M2027.35,604.37l6.94,22.74c3.06,10-2.63,18.19-12.63,18.19h-627.5c-10,0-20.69-8.19-23.74-18.19
				l-6.94-22.74c-3.05-10,2.63-18.19,12.63-18.19h627.5C2013.61,586.18,2024.29,594.37,2027.35,604.37z"/>
			<g>
				<path class="st8" d="M1901.69,609.12h-9.63l-0.9-2.95h13.46l0.78,2.54l-3.57,16.6h-3.78L1901.69,609.12z"/>
				<path class="st8" d="M1909.9,615.74c-1.67-5.47,0.31-9.9,5.35-9.9c5.01,0,9.65,4.38,11.34,9.9c1.67,5.47-0.31,9.9-5.35,9.9
					C1916.21,625.64,1911.59,621.26,1909.9,615.74z M1923.11,615.74c-1.15-3.77-4.04-6.87-6.99-6.87c-2.96,0-3.92,3.01-2.74,6.87
					c1.15,3.78,4.01,6.87,6.99,6.87C1923.35,622.6,1924.28,619.57,1923.11,615.74z"/>
				<path class="st8" d="M1927.97,610.84c-0.81-2.65,0.34-4.89,3.04-4.89c2.68,0,5.16,2.21,5.98,4.89c0.81,2.65-0.34,4.9-3.04,4.9
					C1931.27,615.74,1928.79,613.52,1927.97,610.84z M1942.49,606.16h2.71l-8.16,19.15h-2.71L1942.49,606.16z M1934.56,610.84
					c-0.47-1.53-1.73-2.79-2.96-2.79c-1.29,0-1.67,1.26-1.2,2.79c0.48,1.56,1.73,2.79,2.96,2.79
					C1934.65,613.63,1935.03,612.37,1934.56,610.84z M1942.53,620.63c-0.81-2.65,0.34-4.9,3.05-4.9c2.68,0,5.16,2.22,5.98,4.9
					c0.81,2.65-0.34,4.89-3.04,4.89C1945.83,625.53,1943.35,623.31,1942.53,620.63z M1949.12,620.63c-0.47-1.53-1.73-2.79-2.96-2.79
					c-1.29,0-1.67,1.26-1.2,2.79c0.48,1.56,1.73,2.79,2.96,2.79C1949.21,623.42,1949.59,622.16,1949.12,620.63z"/>
			</g>
			<g>
				<path class="st4" d="M1800.41,586.18l18.05,59.11h-424.31c-8.34,0-17.14-5.68-21.6-13.35c-0.91-1.55-1.63-3.17-2.14-4.84
					l-6.94-22.74c-3.05-10,2.63-18.19,12.63-18.19H1800.41z"/>
				<path class="st7" d="M1451.2,586.18l-17.89,59.11h-39.17c-8.34,0-17.14-5.68-21.6-13.35l13.84-45.76H1451.2z"/>
				<polygon class="st7" points="1562.24,586.18 1544.36,645.29 1479.56,645.29 1497.45,586.18 				"/>
				<polygon class="st7" points="1673.3,586.18 1655.41,645.29 1590.6,645.29 1608.49,586.18 				"/>
				<polygon class="st7" points="1784.36,586.18 1766.47,645.29 1701.66,645.29 1719.54,586.18 				"/>
			</g>
		</g>
		<g>
			<polygon class="st10" points="1509.24,680.31 1395.91,680.31 1393.52,672.49 1506.85,672.49 			"/>
			<polygon class="st10" points="1484.93,702.17 1402.59,702.17 1400.2,694.35 1482.54,694.35 			"/>
			<polygon class="st10" points="1539.23,702.17 1490.01,702.17 1487.62,694.35 1536.84,694.35 			"/>
			<polygon class="st10" points="1622.93,702.17 1547.74,702.17 1545.35,694.35 1620.54,694.35 			"/>
			<polygon class="st10" points="1552.07,680.31 1517.76,680.31 1515.37,672.49 1549.69,672.49 			"/>
			<polygon class="st10" points="1688.59,680.31 1563.82,680.31 1561.43,672.49 1686.2,672.49 			"/>
		</g>
	</g>
	<g>
		<polygon class="st33" points="1091.88,1017.07 559.06,1017.07 476.23,745.86 1009.06,745.86 		"/>
		<polygon class="st19" points="1016.68,881.47 551.44,881.47 516.24,766.2 981.48,766.2 		"/>
		<g>
			<polygon class="st12" points="627.94,789.63 549.13,789.63 547.25,783.48 626.06,783.48 			"/>
			<polygon class="st12" points="712.23,789.63 646.69,789.63 644.81,783.48 710.35,783.48 			"/>
			<polygon class="st12" points="864.78,789.63 729.31,789.63 727.43,783.48 862.9,783.48 			"/>
			<polygon class="st12" points="634.66,811.66 555.86,811.66 553.98,805.51 632.79,805.51 			"/>
			<polygon class="st12" points="718.96,811.66 653.42,811.66 651.54,805.51 717.08,805.51 			"/>
			<polygon class="st12" points="796.37,811.66 730.82,811.66 728.95,805.51 794.49,805.51 			"/>
			<polygon class="st12" points="951.69,814.22 816.22,814.22 814.34,808.07 949.82,808.07 			"/>
		</g>
		<g>
			<polygon class="st12" points="643.19,839.59 564.39,839.59 562.51,833.45 641.32,833.45 			"/>
			<polygon class="st12" points="727.49,839.59 661.95,839.59 660.07,833.45 725.61,833.45 			"/>
			<polygon class="st12" points="880.04,839.59 744.57,839.59 742.69,833.45 878.16,833.45 			"/>
			<polygon class="st12" points="649.92,861.63 571.11,861.63 569.24,855.48 648.04,855.48 			"/>
			<polygon class="st12" points="734.22,861.63 668.67,861.63 666.8,855.48 732.34,855.48 			"/>
			<polygon class="st12" points="811.62,861.63 746.08,861.63 744.2,855.48 809.75,855.48 			"/>
			<polygon class="st12" points="966.95,864.19 831.48,864.19 829.6,858.04 965.07,858.04 			"/>
		</g>
		<g>
			<g>
				<g>
					<path class="st17" d="M863.4,976.96c-18.06,0-37.24-14.69-42.75-32.75c-5.51-18.06,4.69-32.75,22.75-32.75
						c18.06,0,37.24,14.69,42.75,32.75C891.67,962.27,881.46,976.96,863.4,976.96z M845.23,917.44c-14.76,0-23.1,12.01-18.6,26.77
						c4.51,14.76,20.18,26.77,34.94,26.77c14.76,0,23.1-12.01,18.59-26.77C875.66,929.45,859.99,917.44,845.23,917.44z"/>
				</g>
				<g>
					<path class="st17" d="M857.83,960.86c-1.25-0.09-2.56-0.63-3.69-1.52l-18.57-14.72c-2.51-1.99-3.4-5.14-2-7.05
						c1.41-1.9,4.58-1.83,7.09,0.16l13.12,10.4l6.45-15.39c0.93-2.23,3.9-2.72,6.62-1.11c2.72,1.62,4.17,4.73,3.24,6.96l-8.48,20.23
						c-0.5,1.2-1.63,1.95-3.07,2.05C858.3,960.88,858.07,960.88,857.83,960.86z"/>
				</g>
			</g>
			<g>
				<g>
					<path class="st17" d="M769.69,976.96c-18.06,0-37.24-14.69-42.75-32.75c-5.51-18.06,4.69-32.75,22.75-32.75
						c18.06,0,37.24,14.69,42.75,32.75C797.96,962.27,787.75,976.96,769.69,976.96z M751.52,917.44c-14.76,0-23.1,12.01-18.6,26.77
						c4.51,14.76,20.18,26.77,34.94,26.77c14.76,0,23.1-12.01,18.6-26.77C781.95,929.45,766.28,917.44,751.52,917.44z"/>
				</g>
				<g>
					<path class="st17" d="M764.12,960.86c-1.25-0.09-2.56-0.63-3.69-1.52l-18.57-14.72c-2.51-1.99-3.4-5.14-2-7.05
						c1.41-1.9,4.58-1.83,7.09,0.16l13.12,10.4l6.45-15.39c0.93-2.23,3.9-2.72,6.62-1.11c2.72,1.62,4.17,4.73,3.24,6.96l-8.48,20.23
						c-0.5,1.2-1.63,1.95-3.07,2.05C764.6,960.88,764.36,960.88,764.12,960.86z"/>
				</g>
			</g>
			<g>
				<g>
					<path class="st17" d="M672.63,976.96c-18.06,0-37.24-14.69-42.75-32.75c-5.52-18.06,4.69-32.75,22.75-32.75
						c18.06,0,37.24,14.69,42.75,32.75C700.89,962.27,690.69,976.96,672.63,976.96z M654.45,917.44c-14.76,0-23.1,12.01-18.59,26.77
						c4.51,14.76,20.18,26.77,34.94,26.77s23.1-12.01,18.6-26.77C684.89,929.45,669.21,917.44,654.45,917.44z"/>
				</g>
				<g>
					<path class="st17" d="M667.05,960.86c-1.25-0.09-2.56-0.63-3.69-1.52l-18.57-14.72c-2.51-1.99-3.4-5.14-2-7.05
						c1.41-1.9,4.58-1.83,7.09,0.16l13.12,10.4l6.45-15.39c0.93-2.23,3.9-2.72,6.62-1.11c2.72,1.62,4.17,4.73,3.24,6.96l-8.48,20.23
						c-0.5,1.2-1.63,1.95-3.07,2.05C667.53,960.88,667.29,960.88,667.05,960.86z"/>
				</g>
			</g>
			<g>
				<g>
					<path class="st5" d="M953.81,976.96c-18.06,0-37.24-14.69-42.75-32.75c-5.52-18.06,4.69-32.75,22.75-32.75
						c18.06,0,37.24,14.69,42.75,32.75C982.07,962.27,971.87,976.96,953.81,976.96z M935.63,917.44c-14.76,0-23.1,12.01-18.59,26.77
						c4.51,14.76,20.18,26.77,34.94,26.77c14.76,0,23.1-12.01,18.6-26.77C966.07,929.45,950.39,917.44,935.63,917.44z"/>
				</g>
				<g>
					<path class="st5" d="M945.44,949.56L945.44,949.56c-2.55,0-5.27-2.08-6.05-4.63l-4.25-13.91c-0.78-2.55,0.67-4.63,3.22-4.63
						l0,0c2.55,0,5.27,2.08,6.05,4.63l4.25,13.91C949.44,947.48,947.99,949.56,945.44,949.56z"/>
					<path class="st5" d="M949.28,960.48h-1c-2.27,0-4.7-1.86-5.39-4.13l0,0c-0.69-2.27,0.6-4.13,2.87-4.13h1
						c2.27,0,4.7,1.86,5.39,4.13l0,0C952.84,958.63,951.55,960.48,949.28,960.48z"/>
				</g>
			</g>
		</g>
	</g>
	<g>
		<path class="st7" d="M2227.1,963.07c0,0,67.39,69.87,70.58,96.17s-32.28,67.35-32.28,67.35L2227.1,963.07z"/>
		<path class="st21" d="M2196.65,1687.22c0,0-2.38,37.06-9.55,37.58c-0.95,0.07-36.37-0.01-36.37-0.01l-45.21-0.36
			c0,0,0.32-10.89,13.54-13.17c13.22-2.28,35.36-11.52,43.41-28.97C2170.92,1663.94,2196.65,1687.22,2196.65,1687.22z"/>
		<path class="st21" d="M2297.35,1687.44c0,0-2.38,37.06-9.55,37.58c-0.95,0.07-36.37-0.01-36.37-0.01l-45.21-0.36
			c0,0,0.32-10.89,13.54-13.17c13.22-2.27,35.36-11.52,43.41-28.97C2271.63,1664.15,2297.35,1687.44,2297.35,1687.44z"/>
		<path class="st21" d="M2147.44,1288.73c0,0,11.66,75.66,55.48,210.01c43.82,134.35,49.71,192.51,49.71,192.51l47.33-1.22
			c0,0,0.72-146.73-19.46-214.29c-20.18-67.56-3.86-243.4-3.86-243.4L2147.44,1288.73z"/>
		<path class="st14" d="M2124.52,1236.15c0,0-1.92,113.97,17.49,253.95c19.42,139.98,12.6,199.37,12.6,199.37l47.23,1.67
			c0,0,28.53-139.93,20.59-209.99c-7.94-70.06,39.17-240.26,39.17-240.26L2124.52,1236.15z"/>
		<path class="st27" d="M2216.53,969.63l-25.2,16.44l-36.35-6.86c0.51-2.93,2.94-15.1,5.15-26.11c0.13-0.65,0.27-1.3,0.39-1.93
			c1.89-9.37,3.53-17.43,3.53-17.43l34-14.91l12.68-5.56c-0.03,0.2-1,10.41-1.14,11.89
			C2207.15,951.63,2216.53,969.63,2216.53,969.63z"/>
		<path class="st7" d="M2164.33,961.2c0.71-0.3,43.82-12.92,48.5-11.36c4.68,1.56,7.43,10.62,7.43,10.62l-70.51,15.78
			C2149.75,976.23,2155.32,964.97,2164.33,961.2z"/>
		<path class="st4" d="M2279.73,1250.55c-7.38,33.3-128.94,36.99-160.2,6.68c-3.56-3.45-3.7-19.49-2.31-41.12
			c2.72-42.24,11.3-105.78,11.7-138.25c0.19-15.68,2.38-31.71,5.29-46.27c6.17-31.03,15.54-55.36,15.54-55.36
			s59.41-19.06,70.51-15.78C2273.74,976.29,2287.11,1217.25,2279.73,1250.55z"/>
		<path class="st7" d="M2117.22,1216.11c2.72-42.24,11.3-105.78,11.7-138.25c0.19-15.68,2.38-31.71,5.29-46.27l35.73-6.23
			C2169.94,1025.37,2204.54,1168.06,2117.22,1216.11z"/>
		<path class="st27" d="M2136.69,1157.27c0,0,2.42,5.82-2.7,9.72c-5.12,3.9-8.45,10.22-7.29,14.85c1.16,4.63,12.36,12.2,16.25,10.99
			c3.89-1.21,11.82-7.28,10.97-9.72c-0.85-2.44,5.37-21.4-4.09-28.72C2140.36,1147.05,2136.69,1157.27,2136.69,1157.27z"/>
		<path class="st4" d="M2177.04,967.74c0,0-34.84,6.44-62.69,47.28c-27.84,40.84-46.17,71.21-41.09,85.96
			c5.08,14.75,51.57,65.98,59.6,65.99c8.03,0.02,21.01-5.8,21.77-18.94c0,0-32.7-49.24-26.22-56.6
			c2.77-3.14,42.67-35.39,48.33-20.77C2186.1,1094.85,2177.04,967.74,2177.04,967.74z"/>
		<path class="st35" d="M2207.03,925.63c-7.48,12.62-35.3,23.48-46.9,27.48c0.13-0.65,0.27-1.3,0.39-1.93
			c1.89-9.37,3.53-17.43,3.53-17.43l34-14.91C2205.55,918.75,2210.12,920.44,2207.03,925.63z"/>
		<path class="st27" d="M2151.25,931.65c0,0,54.68,17.19,64.86-17.03c10.18-34.21,24.09-55.04-10.39-67.46
			c-34.48-12.42-45.18-1.39-51.35,9.2C2148.19,866.96,2137.29,926.3,2151.25,931.65z"/>
		<path class="st21" d="M2156.52,853.08c0,0,3.4,39.85,11.65,38.14c8.24-1.71,15.72-2.98,14.49,9.03
			c-1.23,12.01-12.69,25.85,12.7,28.03c25.39,2.18,62.03-63.22,55.08-75.64C2230.38,816.82,2127.52,809.37,2156.52,853.08z"/>
	</g>
	<g>
		<g class="st36">
			<path class="st10" d="M907.51,254.02v9.71h-10v-9.71H907.51z"/>
			<path class="st10" d="M907.51,273.65v9.71h-10v-9.71H907.51z"/>
			<path class="st10" d="M907.51,293.28v9.71h-10v-9.71H907.51z"/>
			<path class="st10" d="M907.51,312.92v9.71h-10v-9.71H907.51z"/>
			<path class="st10" d="M907.51,332.55v9.71h-10v-9.71H907.51z"/>
			<path class="st10" d="M907.51,352.18v9.71h-10v-9.71H907.51z"/>
			<path class="st10" d="M907.51,371.81v9.71h-10v-9.71H907.51z"/>
			<path class="st10" d="M907.51,391.45v9.71h-10v-9.71H907.51z"/>
			<path class="st10" d="M907.51,411.08v9.71h-10v-9.71H907.51z"/>
			<path class="st10" d="M907.51,430.71v9.71h-10v-9.71H907.51z"/>
			<path class="st10" d="M907.51,450.35v9.71h-10v-9.71H907.51z"/>
			<path class="st10" d="M907.51,469.98v9.71h-10v-9.71H907.51z"/>
			<path class="st10" d="M907.51,489.61v9.71h-10v-9.71H907.51z"/>
			<path class="st10" d="M907.51,509.24v9.71h-10v-9.71H907.51z"/>
			<path class="st10" d="M907.51,528.88v9.71h-10v-9.71H907.51z"/>
			<path class="st10" d="M907.51,548.51v9.71h-10v-9.71H907.51z"/>
			<path class="st10" d="M907.51,568.14v9.71h-10v-9.71H907.51z"/>
			<path class="st10" d="M907.51,587.78v9.71h-10v-9.71H907.51z"/>
		</g>
		<g class="st36">
			<path class="st10" d="M938.08,371.81v9.71h-10v-9.71H938.08z"/>
			<path class="st10" d="M938.08,391.45v9.71h-10v-9.71H938.08z"/>
			<path class="st10" d="M938.08,411.08v9.71h-10v-9.71H938.08z"/>
			<path class="st10" d="M938.08,430.71v9.71h-10v-9.71H938.08z"/>
			<path class="st10" d="M938.08,450.35v9.71h-10v-9.71H938.08z"/>
			<path class="st10" d="M938.08,469.98v9.71h-10v-9.71H938.08z"/>
			<path class="st10" d="M938.08,489.61v9.71h-10v-9.71H938.08z"/>
			<path class="st10" d="M938.08,509.24v9.71h-10v-9.71H938.08z"/>
			<path class="st10" d="M938.08,528.88v9.71h-10v-9.71H938.08z"/>
			<path class="st10" d="M938.08,548.51v9.71h-10v-9.71H938.08z"/>
			<path class="st10" d="M938.08,568.14v9.71h-10v-9.71H938.08z"/>
			<path class="st10" d="M938.08,587.78v9.71h-10v-9.71H938.08z"/>
		</g>
		<g class="st36">
			<path class="st10" d="M969.22,254.02v9.71h-10v-9.71H969.22z"/>
			<path class="st10" d="M969.22,273.65v9.71h-10v-9.71H969.22z"/>
			<path class="st10" d="M969.22,293.28v9.71h-10v-9.71H969.22z"/>
			<path class="st10" d="M969.22,312.92v9.71h-10v-9.71H969.22z"/>
			<path class="st10" d="M969.22,332.55v9.71h-10v-9.71H969.22z"/>
			<path class="st10" d="M969.22,352.18v9.71h-10v-9.71H969.22z"/>
			<path class="st10" d="M969.22,371.81v9.71h-10v-9.71H969.22z"/>
			<path class="st10" d="M969.22,391.45v9.71h-10v-9.71H969.22z"/>
			<path class="st10" d="M969.22,411.08v9.71h-10v-9.71H969.22z"/>
			<path class="st10" d="M969.22,430.71v9.71h-10v-9.71H969.22z"/>
			<path class="st10" d="M969.22,450.35v9.71h-10v-9.71H969.22z"/>
			<path class="st10" d="M969.22,469.98v9.71h-10v-9.71H969.22z"/>
			<path class="st10" d="M969.22,489.61v9.71h-10v-9.71H969.22z"/>
			<path class="st10" d="M969.22,509.24v9.71h-10v-9.71H969.22z"/>
			<path class="st10" d="M969.22,528.88v9.71h-10v-9.71H969.22z"/>
			<path class="st10" d="M969.22,548.51v9.71h-10v-9.71H969.22z"/>
			<path class="st10" d="M969.22,568.14v9.71h-10v-9.71H969.22z"/>
			<path class="st10" d="M969.22,587.78v9.71h-10v-9.71H969.22z"/>
		</g>
		<g class="st36">
			<path class="st10" d="M995.45,214.75v9.71h-10v-9.71H995.45z"/>
			<path class="st10" d="M995.45,234.38v9.71h-10v-9.71H995.45z"/>
			<path class="st10" d="M995.45,254.02v9.71h-10v-9.71H995.45z"/>
			<path class="st10" d="M995.45,273.65v9.71h-10v-9.71H995.45z"/>
			<path class="st10" d="M995.45,293.28v9.71h-10v-9.71H995.45z"/>
			<path class="st10" d="M995.45,312.92v9.71h-10v-9.71H995.45z"/>
			<path class="st10" d="M995.45,332.55v9.71h-10v-9.71H995.45z"/>
			<path class="st10" d="M995.45,352.18v9.71h-10v-9.71H995.45z"/>
			<path class="st10" d="M995.45,371.81v9.71h-10v-9.71H995.45z"/>
			<path class="st10" d="M995.45,391.45v9.71h-10v-9.71H995.45z"/>
			<path class="st10" d="M995.45,411.08v9.71h-10v-9.71H995.45z"/>
			<path class="st10" d="M995.45,430.71v9.71h-10v-9.71H995.45z"/>
			<path class="st10" d="M995.45,450.35v9.71h-10v-9.71H995.45z"/>
			<path class="st10" d="M995.45,469.98v9.71h-10v-9.71H995.45z"/>
			<path class="st10" d="M995.45,489.61v9.71h-10v-9.71H995.45z"/>
			<path class="st10" d="M995.45,509.24v9.71h-10v-9.71H995.45z"/>
			<path class="st10" d="M995.45,528.88v9.71h-10v-9.71H995.45z"/>
			<path class="st10" d="M995.45,548.51v9.71h-10v-9.71H995.45z"/>
			<path class="st10" d="M995.45,568.14v9.71h-10v-9.71H995.45z"/>
			<path class="st10" d="M995.45,587.78v9.71h-10v-9.71H995.45z"/>
		</g>
		<g class="st36">
			<path class="st10" d="M1030.05,391.45v9.71h-10v-9.71H1030.05z"/>
			<path class="st10" d="M1030.05,411.08v9.71h-10v-9.71H1030.05z"/>
			<path class="st10" d="M1030.05,430.71v9.71h-10v-9.71H1030.05z"/>
			<path class="st10" d="M1030.05,450.35v9.71h-10v-9.71H1030.05z"/>
			<path class="st10" d="M1030.05,469.98v9.71h-10v-9.71H1030.05z"/>
			<path class="st10" d="M1030.05,489.61v9.71h-10v-9.71H1030.05z"/>
			<path class="st10" d="M1030.05,509.24v9.71h-10v-9.71H1030.05z"/>
			<path class="st10" d="M1030.05,528.88v9.71h-10v-9.71H1030.05z"/>
			<path class="st10" d="M1030.05,548.51v9.71h-10v-9.71H1030.05z"/>
			<path class="st10" d="M1030.05,568.14v9.71h-10v-9.71H1030.05z"/>
			<path class="st10" d="M1030.05,587.78v9.71h-10v-9.71H1030.05z"/>
		</g>
	</g>
	<g>
		<g class="st36">
			<path class="st10" d="M2406.64,921.83v9.71h-10v-9.71H2406.64z"/>
			<path class="st10" d="M2406.64,941.47v9.71h-10v-9.71H2406.64z"/>
			<path class="st10" d="M2406.64,961.1v9.71h-10v-9.71H2406.64z"/>
			<path class="st10" d="M2406.64,980.73v9.71h-10v-9.71H2406.64z"/>
			<path class="st10" d="M2406.64,1000.36v9.71h-10v-9.71H2406.64z"/>
			<path class="st10" d="M2406.64,1020v9.71h-10V1020H2406.64z"/>
			<path class="st10" d="M2406.64,1039.63v9.71h-10v-9.71H2406.64z"/>
			<path class="st10" d="M2406.64,1059.26v9.71h-10v-9.71H2406.64z"/>
			<path class="st10" d="M2406.64,1078.9v9.71h-10v-9.71H2406.64z"/>
			<path class="st10" d="M2406.64,1098.53v9.71h-10v-9.71H2406.64z"/>
			<path class="st10" d="M2406.64,1118.16v9.71h-10v-9.71H2406.64z"/>
			<path class="st10" d="M2406.64,1137.79v9.71h-10v-9.71H2406.64z"/>
			<path class="st10" d="M2406.64,1157.43v9.71h-10v-9.71H2406.64z"/>
			<path class="st10" d="M2406.64,1177.06v9.71h-10v-9.71H2406.64z"/>
			<path class="st10" d="M2406.64,1196.69v9.71h-10v-9.71H2406.64z"/>
			<path class="st10" d="M2406.64,1216.33v9.71h-10v-9.71H2406.64z"/>
			<path class="st10" d="M2406.64,1235.96v9.71h-10v-9.71H2406.64z"/>
			<path class="st10" d="M2406.64,1255.59v9.71h-10v-9.71H2406.64z"/>
		</g>
		<g class="st36">
			<path class="st10" d="M2437.21,1039.63v9.71h-10v-9.71H2437.21z"/>
			<path class="st10" d="M2437.21,1059.26v9.71h-10v-9.71H2437.21z"/>
			<path class="st10" d="M2437.21,1078.9v9.71h-10v-9.71H2437.21z"/>
			<path class="st10" d="M2437.21,1098.53v9.71h-10v-9.71H2437.21z"/>
			<path class="st10" d="M2437.21,1118.16v9.71h-10v-9.71H2437.21z"/>
			<path class="st10" d="M2437.21,1137.79v9.71h-10v-9.71H2437.21z"/>
			<path class="st10" d="M2437.21,1157.43v9.71h-10v-9.71H2437.21z"/>
			<path class="st10" d="M2437.21,1177.06v9.71h-10v-9.71H2437.21z"/>
			<path class="st10" d="M2437.21,1196.69v9.71h-10v-9.71H2437.21z"/>
			<path class="st10" d="M2437.21,1216.33v9.71h-10v-9.71H2437.21z"/>
			<path class="st10" d="M2437.21,1235.96v9.71h-10v-9.71H2437.21z"/>
			<path class="st10" d="M2437.21,1255.59v9.71h-10v-9.71H2437.21z"/>
		</g>
		<g class="st36">
			<path class="st10" d="M2468.35,921.83v9.71h-10v-9.71H2468.35z"/>
			<path class="st10" d="M2468.35,941.47v9.71h-10v-9.71H2468.35z"/>
			<path class="st10" d="M2468.35,961.1v9.71h-10v-9.71H2468.35z"/>
			<path class="st10" d="M2468.35,980.73v9.71h-10v-9.71H2468.35z"/>
			<path class="st10" d="M2468.35,1000.36v9.71h-10v-9.71H2468.35z"/>
			<path class="st10" d="M2468.35,1020v9.71h-10V1020H2468.35z"/>
			<path class="st10" d="M2468.35,1039.63v9.71h-10v-9.71H2468.35z"/>
			<path class="st10" d="M2468.35,1059.26v9.71h-10v-9.71H2468.35z"/>
			<path class="st10" d="M2468.35,1078.9v9.71h-10v-9.71H2468.35z"/>
			<path class="st10" d="M2468.35,1098.53v9.71h-10v-9.71H2468.35z"/>
			<path class="st10" d="M2468.35,1118.16v9.71h-10v-9.71H2468.35z"/>
			<path class="st10" d="M2468.35,1137.79v9.71h-10v-9.71H2468.35z"/>
			<path class="st10" d="M2468.35,1157.43v9.71h-10v-9.71H2468.35z"/>
			<path class="st10" d="M2468.35,1177.06v9.71h-10v-9.71H2468.35z"/>
			<path class="st10" d="M2468.35,1196.69v9.71h-10v-9.71H2468.35z"/>
			<path class="st10" d="M2468.35,1216.33v9.71h-10v-9.71H2468.35z"/>
			<path class="st10" d="M2468.35,1235.96v9.71h-10v-9.71H2468.35z"/>
			<path class="st10" d="M2468.35,1255.59v9.71h-10v-9.71H2468.35z"/>
		</g>
		<g class="st36">
			<path class="st10" d="M2494.58,882.57v9.71h-10v-9.71H2494.58z"/>
			<path class="st10" d="M2494.58,902.2v9.71h-10v-9.71H2494.58z"/>
			<path class="st10" d="M2494.58,921.83v9.71h-10v-9.71H2494.58z"/>
			<path class="st10" d="M2494.58,941.47v9.71h-10v-9.71H2494.58z"/>
			<path class="st10" d="M2494.58,961.1v9.71h-10v-9.71H2494.58z"/>
			<path class="st10" d="M2494.58,980.73v9.71h-10v-9.71H2494.58z"/>
			<path class="st10" d="M2494.58,1000.36v9.71h-10v-9.71H2494.58z"/>
			<path class="st10" d="M2494.58,1020v9.71h-10V1020H2494.58z"/>
			<path class="st10" d="M2494.58,1039.63v9.71h-10v-9.71H2494.58z"/>
			<path class="st10" d="M2494.58,1059.26v9.71h-10v-9.71H2494.58z"/>
			<path class="st10" d="M2494.58,1078.9v9.71h-10v-9.71H2494.58z"/>
			<path class="st10" d="M2494.58,1098.53v9.71h-10v-9.71H2494.58z"/>
			<path class="st10" d="M2494.58,1118.16v9.71h-10v-9.71H2494.58z"/>
			<path class="st10" d="M2494.58,1137.79v9.71h-10v-9.71H2494.58z"/>
			<path class="st10" d="M2494.58,1157.43v9.71h-10v-9.71H2494.58z"/>
			<path class="st10" d="M2494.58,1177.06v9.71h-10v-9.71H2494.58z"/>
			<path class="st10" d="M2494.58,1196.69v9.71h-10v-9.71H2494.58z"/>
			<path class="st10" d="M2494.58,1216.33v9.71h-10v-9.71H2494.58z"/>
			<path class="st10" d="M2494.58,1235.96v9.71h-10v-9.71H2494.58z"/>
			<path class="st10" d="M2494.58,1255.59v9.71h-10v-9.71H2494.58z"/>
		</g>
		<g class="st36">
			<path class="st10" d="M2529.18,1059.26v9.71h-10v-9.71H2529.18z"/>
			<path class="st10" d="M2529.18,1078.9v9.71h-10v-9.71H2529.18z"/>
			<path class="st10" d="M2529.18,1098.53v9.71h-10v-9.71H2529.18z"/>
			<path class="st10" d="M2529.18,1118.16v9.71h-10v-9.71H2529.18z"/>
			<path class="st10" d="M2529.18,1137.79v9.71h-10v-9.71H2529.18z"/>
			<path class="st10" d="M2529.18,1157.43v9.71h-10v-9.71H2529.18z"/>
			<path class="st10" d="M2529.18,1177.06v9.71h-10v-9.71H2529.18z"/>
			<path class="st10" d="M2529.18,1196.69v9.71h-10v-9.71H2529.18z"/>
			<path class="st10" d="M2529.18,1216.33v9.71h-10v-9.71H2529.18z"/>
			<path class="st10" d="M2529.18,1235.96v9.71h-10v-9.71H2529.18z"/>
			<path class="st10" d="M2529.18,1255.59v9.71h-10v-9.71H2529.18z"/>
		</g>
	</g>
</g>
</svg>
