<svg width="500" height="355" viewBox="0 0 500 355" fill="none" xmlns="http://www.w3.org/2000/svg">
<g clip-path="url(#clip0)">
<path d="M247.81 68.2295H195.76V137.289H247.81V68.2295Z" fill="#FFD817"/>
<path d="M201.66 80.3799H211.87" stroke="#FFA200" stroke-width="0.879" stroke-miterlimit="10"/>
<path d="M201.66 90.5693H239.99" stroke="#FFA200" stroke-width="0.879" stroke-miterlimit="10"/>
<path d="M201.66 100.76H239.99" stroke="#FFA200" stroke-width="0.879" stroke-miterlimit="10"/>
<path d="M201.66 110.939H239.99" stroke="#FFA200" stroke-width="0.879" stroke-miterlimit="10"/>
<path d="M201.66 121.13H239.99" stroke="#FFA200" stroke-width="0.879" stroke-miterlimit="10"/>
<path d="M29.6796 112.32C29.6796 112.32 36.9296 90.3897 39.8296 82.1197C42.7296 73.8497 44.6896 56.7697 34.7396 54.8597C24.7796 52.9497 20.7496 67.0097 20.8596 80.1697C20.9496 93.2897 29.6796 112.32 29.6796 112.32Z" fill="#FF7700"/>
<path d="M27.9396 147.489C27.9396 147.489 20.7196 105.419 7.5096 109.899C-5.6904 114.379 6.8496 143.769 27.9396 147.489Z" fill="#FF7700"/>
<path d="M34.5592 133.299C34.5592 133.299 33.3592 118.989 39.6992 106.499C46.0392 94.0092 53.9892 95.3092 55.5892 100.999C59.0792 113.439 39.3992 125.199 34.5592 133.299Z" fill="#FF7700"/>
<path d="M37.9895 168.22C37.9895 168.22 37.5395 155.88 41.9495 140.96C46.3595 126.04 58.1195 121.27 64.2195 128.38C67.4595 132.16 63.1995 148.45 52.7595 155.84C43.9995 162.06 37.9895 168.22 37.9895 168.22Z" fill="#FF7700"/>
<path d="M34.7797 179.229C34.7797 179.229 27.1597 159.379 16.4097 154.499C5.65975 149.619 2.78975 157.24 5.50975 165.08C8.22975 172.92 18.6997 180.089 34.7797 179.229Z" fill="#FF7700"/>
<path d="M33.7594 56.0098C33.7594 56.0098 20.3194 120.19 41.8694 195.71" stroke="#995417" stroke-width="1.0223" stroke-miterlimit="10"/>
<path d="M56.25 131.029C55.9 131.389 40.36 156.039 36.46 173.719" stroke="#995417" stroke-width="1.0223" stroke-miterlimit="10"/>
<path d="M9.36914 157.93C9.36914 157.93 14.6891 168.64 38.0791 181.03" stroke="#995417" stroke-width="1.0223" stroke-miterlimit="10"/>
<path d="M6.56934 114.779C8.32934 126.479 13.6693 138.929 32.4193 149.689" stroke="#995417" stroke-width="1.0223" stroke-miterlimit="10"/>
<path d="M51.2194 100.029C51.2194 100.029 39.3994 113.289 31.6494 143.289" stroke="#995417" stroke-width="1.0223" stroke-miterlimit="10"/>
<path d="M483.34 184.039C483.34 184.039 481.46 169.599 480.64 164.139C479.83 158.679 480.64 147.869 487.03 147.869C493.42 147.869 494.24 157.049 492.62 165.179C491 173.299 483.34 184.039 483.34 184.039Z" fill="#FF7700"/>
<path d="M480.239 206.009C480.239 206.009 489.709 180.829 497.349 185.169C504.979 189.509 493.729 206.209 480.239 206.009Z" fill="#FF7700"/>
<path d="M477.83 196.439C477.83 196.439 480.27 187.729 477.83 179.239C475.39 170.759 470.31 170.609 468.65 173.949C465.01 181.239 475.79 190.859 477.83 196.439Z" fill="#FF7700"/>
<path d="M487.5 148.699C487.5 148.699 488.2 190.019 465.89 234.199" stroke="#995417" stroke-width="1.0223" stroke-miterlimit="10"/>
<path d="M497.35 188.31C494.87 195.34 490.09 202.41 477.21 206.85" stroke="#995417" stroke-width="1.0223" stroke-miterlimit="10"/>
<path d="M471.46 173.879C471.46 173.879 477.2 183.489 478.43 202.979" stroke="#995417" stroke-width="1.0223" stroke-miterlimit="10"/>
<path d="M409.65 118.019C420.74 118.019 456.18 118.019 463.46 118.019C470.74 118.019 477.05 118.749 477.54 115.349C478.03 111.949 472.84 111.219 470.7 108.309C468.56 105.399 469.29 95.1994 460.31 95.1994C451.33 95.1994 449.01 102.419 445.56 101.119C442.11 99.8194 440.16 84.2794 431.43 84.5194C422.69 84.7594 417.51 104.879 412.9 103.209C408.29 101.539 399.39 102.239 398.42 108.069C397.45 113.899 380.53 111.009 379.99 115.599C379.42 120.179 396.62 118.019 409.65 118.019Z" fill="#A6B1ED"/>
<path d="M394.73 140.139C397.9 140.709 400.68 141.619 403.08 142.859C405.48 144.099 407.48 145.519 409.1 147.109C410.72 148.699 411.95 150.379 412.79 152.129C413.63 153.879 414.12 155.519 414.25 157.049C414.31 157.809 414.07 158.439 413.52 158.909C412.97 159.389 412.34 159.629 411.63 159.629H404.84C403.74 159.629 402.92 159.419 402.37 159.009C401.82 158.599 401.32 158.039 400.87 157.339C399.9 155.749 398.43 154.359 396.45 153.179C394.47 151.999 391.55 151.409 387.66 151.409C385.98 151.409 384.38 151.589 382.86 151.939C381.34 152.289 380.01 152.799 378.88 153.469C377.75 154.139 376.86 154.949 376.21 155.909C375.56 156.869 375.24 157.949 375.24 159.159C375.24 160.629 375.59 161.819 376.31 162.739C377.02 163.659 378.17 164.459 379.76 165.129C381.35 165.799 383.38 166.419 385.87 166.989C388.36 167.559 391.39 168.229 394.95 168.999C398.83 169.829 402.12 170.799 404.8 171.919C407.48 173.039 409.69 174.369 411.4 175.929C413.11 177.489 414.35 179.289 415.09 181.329C415.83 183.369 416.21 185.699 416.21 188.309C416.21 190.789 415.72 193.119 414.75 195.289C413.78 197.459 412.37 199.399 410.53 201.119C408.68 202.839 406.43 204.269 403.78 205.419C401.13 206.569 398.12 207.359 394.75 207.809V214.309C394.75 215.009 394.49 215.619 393.98 216.129C393.46 216.639 392.85 216.889 392.13 216.889H384.27C383.56 216.889 382.94 216.639 382.43 216.129C381.91 215.619 381.65 215.019 381.65 214.309V207.809C378.74 207.359 376.01 206.619 373.45 205.559C370.89 204.509 368.66 203.219 366.75 201.689C364.84 200.159 363.3 198.389 362.14 196.389C360.98 194.379 360.33 192.169 360.2 189.749C360.13 188.979 360.38 188.359 360.93 187.889C361.48 187.409 362.11 187.169 362.82 187.169H369.61C370.71 187.169 371.55 187.359 372.13 187.739C372.71 188.119 373.2 188.689 373.59 189.459C374.04 190.289 374.59 191.119 375.24 191.939C375.89 192.769 376.76 193.499 377.86 194.139C378.96 194.779 380.34 195.299 381.99 195.719C383.64 196.139 385.7 196.339 388.15 196.339C390.09 196.339 391.97 196.199 393.78 195.909C395.59 195.619 397.18 195.149 398.54 194.479C399.9 193.809 401 192.979 401.84 191.999C402.68 191.009 403.1 189.789 403.1 188.319C403.1 186.919 402.65 185.769 401.74 184.879C400.83 183.989 399.46 183.219 397.61 182.589C395.77 181.949 393.48 181.349 390.77 180.769C388.05 180.199 384.91 179.459 381.35 178.569C378.11 177.809 375.28 176.899 372.86 175.849C370.43 174.799 368.43 173.509 366.84 171.979C365.25 170.449 364.07 168.649 363.3 166.579C362.53 164.509 362.13 162.039 362.13 159.169C362.13 156.689 362.62 154.389 363.59 152.289C364.56 150.189 365.91 148.289 367.62 146.599C369.33 144.909 371.39 143.509 373.78 142.389C376.17 141.279 378.79 140.459 381.64 139.949V133.449C381.64 132.749 381.9 132.139 382.42 131.629C382.94 131.119 383.55 130.859 384.26 130.859H392.12C392.83 130.859 393.45 131.119 393.97 131.629C394.49 132.139 394.74 132.739 394.74 133.449V140.139H394.73Z" fill="#FFEB8A"/>
<path d="M329.149 319.109H483.649C483.649 319.109 492.129 317.899 487.339 309.099C482.549 300.299 479.969 300.299 485.869 281.499C491.769 262.689 502.459 228.009 493.979 226.179C485.499 224.349 476.279 250.989 465.589 252.049C454.899 253.109 478.859 160.399 452.679 159.559C426.499 158.719 415.439 221.769 406.219 232.829C396.999 243.889 383.569 225.039 373.629 239.329C363.689 253.619 366.459 299.889 356.709 295.149C340.419 287.219 329.149 319.109 329.149 319.109Z" fill="#8EAD46"/>
<path d="M452.669 159.56C452.669 159.56 435.149 262.7 410.449 319.11" stroke="#525730" stroke-width="0.8771" stroke-miterlimit="10"/>
<path d="M493.969 226.179C493.969 226.179 469.259 289.979 439.949 319.109" stroke="#525730" stroke-width="0.8771" stroke-miterlimit="10"/>
<path d="M379.14 234.529C379.14 234.529 394.59 276.979 394.04 319.109" stroke="#525730" stroke-width="0.8771" stroke-miterlimit="10"/>
<path d="M339.6 300.579C339.6 300.579 343.34 310.809 350.53 319.109" stroke="#525730" stroke-width="0.8771" stroke-miterlimit="10"/>
<path d="M370.909 244.739C370.909 244.739 374.929 247.779 384.899 253.479" stroke="#525730" stroke-width="0.8771" stroke-miterlimit="10"/>
<path d="M366.749 262.699C366.749 262.699 376.869 278.459 392.229 290.259" stroke="#525730" stroke-width="0.8771" stroke-miterlimit="10"/>
<path d="M409.399 227.31C409.399 227.31 407.399 271.96 418.559 298.35" stroke="#525730" stroke-width="0.8771" stroke-miterlimit="10"/>
<path d="M425.489 186.279C425.489 186.279 423.909 234.529 432.159 253.489" stroke="#525730" stroke-width="0.8771" stroke-miterlimit="10"/>
<path d="M463.229 229.689C463.229 229.689 446.979 262.879 425.119 278.279" stroke="#525730" stroke-width="0.8771" stroke-miterlimit="10"/>
<path d="M465.44 192.549C465.44 192.549 452.12 205.739 441.47 215.319" stroke="#525730" stroke-width="0.8771" stroke-miterlimit="10"/>
<path d="M439.949 164.629L446.369 192.549" stroke="#525730" stroke-width="0.8771" stroke-miterlimit="10"/>
<path d="M495.559 246.199C495.559 246.199 487.309 255.969 477.459 262.689" stroke="#525730" stroke-width="0.8771" stroke-miterlimit="10"/>
<path d="M485.86 281.499C485.86 281.499 466.17 300.169 450.02 307.609" stroke="#525730" stroke-width="0.8771" stroke-miterlimit="10"/>
<path d="M499.21 319.109H315.09" stroke="black" stroke-width="0.9556" stroke-miterlimit="10"/>
<path d="M63.03 243.089V229.699L54.58 230.149C54.04 228.149 53.25 226.249 52.24 224.489L58.53 218.839L49.06 209.369L43.41 215.659C41.65 214.649 39.75 213.859 37.75 213.319L38.2 204.869H24.82L25.27 213.319C23.27 213.859 21.37 214.649 19.61 215.659L13.96 209.369L4.49 218.839L10.78 224.489C9.77 226.249 8.98 228.149 8.44 230.149L0 229.699V243.089L8.45 242.639C8.99 244.639 9.78 246.539 10.79 248.299L4.5 253.949L13.97 263.419L19.62 257.129C21.38 258.139 23.28 258.929 25.28 259.469L24.83 267.919H38.22L37.77 259.469C39.77 258.929 41.67 258.139 43.43 257.129L49.08 263.419L58.55 253.949L52.26 248.299C53.27 246.539 54.06 244.639 54.6 242.639L63.03 243.089ZM31.51 248.089C25.05 248.089 19.82 242.849 19.82 236.399C19.82 229.939 25.06 224.709 31.51 224.709C37.97 224.709 43.2 229.949 43.2 236.399C43.21 242.849 37.97 248.089 31.51 248.089Z" fill="#D4DAFF"/>
<path d="M171.45 155.12V139.85L161.82 140.37C161.2 138.09 160.31 135.92 159.15 133.92L166.32 127.48L155.52 116.68L149.08 123.85C147.07 122.7 144.91 121.8 142.63 121.18L143.15 111.55H127.88L128.4 121.18C126.12 121.8 123.95 122.69 121.95 123.85L115.51 116.68L104.71 127.48L111.88 133.92C110.73 135.93 109.83 138.09 109.21 140.37L99.5801 139.85V155.12L109.21 154.6C109.83 156.88 110.72 159.05 111.88 161.05L104.71 167.49L115.51 178.29L121.95 171.12C123.96 172.27 126.12 173.17 128.4 173.79L127.88 183.42H143.15L142.63 173.79C144.91 173.17 147.08 172.28 149.08 171.12L155.52 178.29L166.32 167.49L159.15 161.05C160.3 159.04 161.2 156.88 161.82 154.6L171.45 155.12ZM135.51 160.82C128.14 160.82 122.17 154.85 122.17 147.48C122.17 140.11 128.14 134.14 135.51 134.14C142.88 134.14 148.85 140.11 148.85 147.48C148.85 154.85 142.88 160.82 135.51 160.82Z" fill="#D4DAFF"/>
<path d="M38.0098 313.279H358.8C358.8 313.279 342.21 288.919 317.87 282.579C293.53 276.239 286.32 286.729 272.51 263.509C258.7 240.289 245.97 225.969 229.38 225.389C212.79 224.809 185.49 242.549 154.68 223.499C118.58 201.179 89.2698 220.649 87.6098 249.899C85.9398 279.139 30.8198 269.559 38.0098 313.279Z" fill="#ECFFBF"/>
<path d="M243.85 313.28C243.85 313.28 250.02 295.73 255.81 296.99C261.59 298.25 265.45 306.83 272.17 299.98C278.88 293.14 275.56 269.26 287.63 267.23C299.71 265.2 292.95 293.98 300.84 289.13C310.56 283.16 320.69 251.46 332.96 254.38C345.23 257.3 344.97 313.28 344.97 313.28H243.85V313.28Z" fill="#598048"/>
<path d="M206.74 313.279L253.57 221.229L280.68 231.019L312.5 160.309L344.36 172.099L385.9 75.4992L403.27 81.7692V29.4092L353.5 65.9092L370.2 71.0692L328.44 133.389L291.92 115.319L243.99 183.359L204.53 163.729L114.67 313.279H206.74Z" fill="#FFD817"/>
<path d="M9.64959 313.629C9.64959 313.629 -3.65041 263.829 6.24959 262.369C16.1496 260.909 15.0296 272.859 24.5896 272.319C34.1596 271.779 18.7496 185.199 41.4796 181.569C64.1996 177.939 77.7896 264.399 89.1796 255.599C100.58 246.799 124.75 198.949 128.07 313.219L9.64959 313.629Z" fill="#8EAD46"/>
<path d="M41.4893 181.569C41.4893 181.569 46.1393 258.179 65.3393 313.629" stroke="#525730" stroke-width="0.9512" stroke-miterlimit="10"/>
<path d="M48.72 183.43C48.72 183.43 46.75 198.56 43.75 206.73" stroke="#525730" stroke-width="0.9512" stroke-miterlimit="10"/>
<path d="M29.4395 204.049C29.4395 204.049 31.1795 211.169 46.7595 230.739" stroke="#525730" stroke-width="0.9512" stroke-miterlimit="10"/>
<path d="M68.0896 216.64C68.0896 216.64 64.9496 268.3 56.3496 282.29" stroke="#525730" stroke-width="0.9512" stroke-miterlimit="10"/>
<path d="M6.25977 262.359C6.25977 262.359 13.2598 284.569 38.0998 313.619" stroke="#525730" stroke-width="0.9512" stroke-miterlimit="10"/>
<path d="M28.1094 237.72C28.1094 237.72 37.3694 271.54 61.3494 301.16" stroke="#525730" stroke-width="0.9512" stroke-miterlimit="10"/>
<path d="M17.5 269.339C17.5 269.339 19.68 278.769 20.52 290.129" stroke="#525730" stroke-width="0.9512" stroke-miterlimit="10"/>
<path d="M4.31934 288.999C4.31934 288.999 15.6793 297.019 31.8193 305.949" stroke="#525730" stroke-width="0.9512" stroke-miterlimit="10"/>
<path d="M6.16992 313.279H329.15" stroke="#292E4A" stroke-width="1.0223" stroke-miterlimit="10"/>
<path d="M60.6396 338.1V163.45C60.6396 154.76 67.6896 147.71 76.3796 147.71H154.48C163.17 147.71 170.22 154.76 170.22 163.45V338.1C170.22 346.79 163.17 353.84 154.48 353.84H76.3796C67.6896 353.83 60.6396 346.79 60.6396 338.1Z" fill="#3747A3"/>
<path d="M69.1797 338.1V163.45C69.1797 154.76 76.2297 147.71 84.9197 147.71H163.02C171.71 147.71 178.76 154.76 178.76 163.45V338.1C178.76 346.79 171.71 353.84 163.02 353.84H84.9197C76.2297 353.83 69.1797 346.79 69.1797 338.1Z" fill="#4A60DB"/>
<path d="M161.35 153H143.97C143.05 153 142.24 153.6 141.96 154.48L141.16 157.07C140.71 158.51 139.38 159.49 137.87 159.49H110.07C108.56 159.49 107.23 158.51 106.78 157.07L105.98 154.48C105.71 153.6 104.89 153 103.97 153H86.5897C79.8897 153 74.4697 158.43 74.4697 165.12V336.42C74.4697 343.12 79.8997 348.54 86.5897 348.54H161.35C168.05 348.54 173.47 343.11 173.47 336.42V165.12C173.48 158.43 168.05 153 161.35 153Z" fill="#292E4A"/>
<path d="M131.68 155.38H116.27C115.81 155.38 115.43 155.01 115.43 154.54C115.43 154.08 115.8 153.7 116.27 153.7H131.68C132.14 153.7 132.52 154.07 132.52 154.54C132.52 155.01 132.14 155.38 131.68 155.38Z" fill="#292E4A"/>
<path d="M64.4297 182.42V207.97" stroke="white" stroke-width="1.4467" stroke-miterlimit="10" stroke-linecap="round" stroke-linejoin="round"/>
<path d="M64.4297 215.94V227.87" stroke="white" stroke-width="1.4467" stroke-miterlimit="10" stroke-linecap="round" stroke-linejoin="round"/>
<path d="M303.53 345.899L323.73 230.359H472.82L452.63 345.899H303.53Z" fill="#4A60DB"/>
<path d="M448.54 341.019H309.36L327.82 235.239H466.99L448.54 341.019Z" fill="#292E4A"/>
<path d="M453.21 345.899H204.9V354.229H453.21V345.899Z" fill="#3747A3"/>
<path d="M318.97 345.899H204.9V354.229H318.97V345.899Z" fill="#4A60DB"/>
<path d="M453.21 345.899H204.9" stroke="#3747A3" stroke-width="0.9823" stroke-miterlimit="10"/>
<path d="M415.6 316.52C415.6 316.52 417.17 320.85 416.61 322.97C416.06 325.09 414.4 326.93 414.31 330.07C414.22 333.2 414.52 338.74 415.52 338.92C416.52 339.1 415.84 334.77 416.73 334.4C417.62 334.03 420.67 340.77 420.67 340.77H429.7C429.7 340.77 426.57 321.31 426.1 317.99C425.65 314.68 415.6 316.52 415.6 316.52Z" fill="#F9B989"/>
<path d="M262.12 264.53C262.12 264.53 247.56 263.33 243.87 262.41C240.18 261.49 230.5 264.53 230.5 264.53L246.72 277.89C246.72 277.89 250.78 275.34 255.21 274.59C259.63 273.84 262.68 274.12 262.68 274.12L262.12 264.53Z" fill="#F9B989"/>
<path d="M324.51 181.08C324.33 184.74 323.35 193.87 323.91 198.1C324.47 202.33 326.69 205.29 331.1 204.61C335.51 203.93 339.43 222.55 339.43 222.55L348.9 223.97L355.74 213.58L349.34 202.18C349.34 202.18 353.98 189.6 351.56 182.22C349.14 174.84 331.61 169.04 325.04 171.45C318.47 173.86 324.51 181.08 324.51 181.08Z" fill="#F9B989"/>
<path d="M333.82 212.48L344.71 216.78L347.02 221.76V215.4L355.15 206.83L357.29 211.53L379 297.54H346.65L327.7 221.76L333.37 218.03L333.82 212.48Z" fill="#FF7700"/>
<path d="M396.77 340.78H330.7L343.05 297.54H393.23L396.77 340.78Z" fill="white"/>
<path d="M333.37 218.03C336.6 226.83 351.11 288.04 353.35 296.34C355.59 304.64 356.88 327.5 356.88 327.5C356.88 327.5 337.71 327.87 333.37 327.5C329.04 327.13 334.75 300.58 334.57 294.5C334.39 288.42 322.77 256.89 322.77 256.89C322.77 256.89 301.02 275.88 297.7 276.25C294.38 276.62 260.09 275.33 260.09 275.33V263.35C260.09 263.35 288.85 261.69 291.98 260.03C295.11 258.37 314.1 236.43 318.71 230.9C323.33 225.36 327.57 218.26 333.37 218.03Z" fill="#6470B5"/>
<path d="M315.81 243.33C313.32 243.61 310.69 259.37 307.51 263.93C305.49 266.83 302.58 271.29 300.83 274.59C307.84 269.91 322.77 256.88 322.77 256.88C321.34 253.56 318.3 243.06 315.81 243.33Z" fill="#495285"/>
<path d="M414.85 319.16H427.4L422.46 291.47C420.87 281.25 417.59 271.38 412.74 262.24C404.53 246.75 391.72 223.6 386.47 219.55C383.01 216.88 367.39 210.98 357.29 211.53C357.29 211.53 368.77 282.05 370.43 293.11C372.09 304.17 379 326.02 379 326.02H402.19L396.77 294.28L390.62 264.63L403.72 282.23L414.85 319.16Z" fill="#6470B5"/>
<path d="M390.62 264.63C390.62 264.63 382.74 253.71 380.94 247.62C379.14 241.53 378.17 233.1 379 230.75C379.83 228.4 377.06 227.43 375.82 237.53C374.58 247.62 374.58 256.61 380.66 266.57C386.74 276.53 382.46 282.33 387.3 291.18C392.14 300.03 398.35 303.51 398.35 303.51L390.62 264.63Z" fill="#495285"/>
<path d="M316.57 170.37C319.73 163.49 327.3 167.6 335.67 168.59C344.03 169.58 351.83 170.64 354.54 176.6C357.25 182.56 353.89 194.68 349.34 202.18C349.34 202.18 345.67 197.6 345.63 194.44C345.59 191.29 349.34 189.25 347.79 186.21C346.23 183.16 344 185.09 343.51 186.4C343.02 187.71 342.72 189.09 342.15 188.4C341.58 187.71 342.64 184.89 342.32 182.54C342.01 180.19 340.87 176.7 335.62 177.5C330.37 178.3 324.85 177.12 324.85 177.12L324.52 181.09C324.51 181.08 313.01 178.12 316.57 170.37Z" fill="black"/>
<path d="M81.9697 53.5596C99.2497 53.5596 186.66 53.5596 206.31 53.5596C225.96 53.5596 234.09 51.0896 223.93 44.0296C213.77 36.9696 210.72 36.6196 207.33 29.5596C203.94 22.4996 196.15 17.9096 185.31 19.3196C174.47 20.7296 167.15 24.6096 158.78 16.1396C150.41 7.66956 142.62 -5.39044 122.29 2.36956C101.1 10.4596 100.08 29.8996 82.9897 33.7896C65.8997 37.6696 47.0797 53.5596 81.9697 53.5596Z" fill="#A6B1ED"/>
<path d="M184.84 214.26C184.84 214.26 192.27 212.96 195.15 204.38C198.03 195.8 205.87 186.84 219.63 188.12C233.39 189.4 240.35 199.43 238.47 214.26C236.59 229.09 223.89 231.31 214.48 231.16C205.07 231.01 198.61 221.25 194.56 218.05C190.51 214.84 184.84 214.26 184.84 214.26Z" fill="#4A60DB"/>
<path d="M228.11 211.84V207.33L225.27 207.48C225.09 206.81 224.82 206.17 224.48 205.57L226.6 203.67L223.41 200.48L221.51 202.6C220.92 202.26 220.28 201.99 219.6 201.81L219.75 198.97H215.24L215.39 201.81C214.72 201.99 214.08 202.26 213.48 202.6L211.58 200.48L208.39 203.67L210.51 205.57C210.17 206.16 209.9 206.8 209.72 207.48L206.88 207.33V211.84L209.72 211.69C209.9 212.36 210.17 213 210.51 213.6L208.39 215.5L211.58 218.69L213.48 216.57C214.07 216.91 214.71 217.18 215.39 217.36L215.24 220.2H219.75L219.6 217.36C220.27 217.18 220.91 216.91 221.51 216.57L223.41 218.69L226.6 215.5L224.48 213.6C224.82 213.01 225.09 212.37 225.27 211.69L228.11 211.84ZM217.49 213.52C215.31 213.52 213.55 211.76 213.55 209.58C213.55 207.4 215.31 205.64 217.49 205.64C219.67 205.64 221.43 207.4 221.43 209.58C221.43 211.76 219.67 213.52 217.49 213.52Z" fill="white"/>
<path d="M291.68 56.3896H258.02V101.05H291.68V56.3896Z" fill="#FFEB8A"/>
<path d="M261.829 64.25H268.429" stroke="#FFA200" stroke-width="0.7146" stroke-miterlimit="10"/>
<path d="M261.829 70.8398H286.609" stroke="#FFA200" stroke-width="0.7146" stroke-miterlimit="10"/>
<path d="M261.829 77.4297H286.609" stroke="#FFA200" stroke-width="0.7146" stroke-miterlimit="10"/>
<path d="M261.829 84.0195H286.609" stroke="#FFA200" stroke-width="0.7146" stroke-miterlimit="10"/>
<path d="M261.829 90.5996H286.609" stroke="#FFA200" stroke-width="0.7146" stroke-miterlimit="10"/>
<path d="M252.78 148.249C257.3 143.979 303.08 146.479 306.26 149.149C309.43 151.819 307.29 170.179 307.38 177.039C307.43 181.059 311.16 189.079 315.89 189.579C310.43 192.419 301.75 190.419 297.4 187.909C293.06 185.399 291.66 185.919 283.42 185.919C275.18 185.919 262.06 185.919 256.64 185.919C251.22 185.919 249.62 180.559 249.62 172.369C249.62 164.189 249.77 151.089 252.78 148.249Z" fill="#4A60DB"/>
<path d="M282.42 156.059C283.41 156.239 284.28 156.519 285.03 156.909C285.78 157.299 286.41 157.739 286.91 158.239C287.42 158.739 287.8 159.259 288.06 159.809C288.32 160.359 288.48 160.869 288.52 161.349C288.54 161.589 288.46 161.779 288.29 161.929C288.12 162.079 287.92 162.149 287.7 162.149H285.57C285.23 162.149 284.97 162.089 284.8 161.959C284.63 161.829 284.47 161.659 284.33 161.439C284.03 160.939 283.57 160.509 282.95 160.139C282.33 159.769 281.42 159.589 280.2 159.589C279.67 159.589 279.17 159.649 278.7 159.749C278.22 159.859 277.81 160.019 277.45 160.229C277.09 160.439 276.82 160.689 276.61 160.989C276.41 161.289 276.31 161.629 276.31 162.009C276.31 162.469 276.42 162.839 276.64 163.129C276.86 163.419 277.22 163.669 277.72 163.879C278.22 164.089 278.85 164.279 279.63 164.459C280.41 164.639 281.36 164.849 282.47 165.089C283.69 165.349 284.71 165.649 285.55 165.999C286.39 166.349 287.08 166.769 287.62 167.259C288.16 167.749 288.54 168.309 288.77 168.949C289 169.589 289.12 170.319 289.12 171.129C289.12 171.909 288.97 172.639 288.66 173.309C288.36 173.989 287.92 174.599 287.34 175.129C286.76 175.669 286.06 176.119 285.23 176.479C284.4 176.839 283.46 177.089 282.4 177.229V179.259C282.4 179.479 282.32 179.669 282.16 179.829C282 179.989 281.8 180.069 281.58 180.069H279.12C278.9 180.069 278.7 179.989 278.54 179.829C278.38 179.669 278.3 179.479 278.3 179.259V177.229C277.39 177.089 276.53 176.859 275.73 176.529C274.93 176.199 274.23 175.799 273.63 175.319C273.03 174.839 272.55 174.289 272.19 173.659C271.83 173.029 271.62 172.339 271.58 171.579C271.56 171.339 271.64 171.149 271.81 170.999C271.98 170.849 272.18 170.779 272.4 170.779H274.53C274.87 170.779 275.14 170.839 275.32 170.959C275.5 171.079 275.65 171.259 275.78 171.499C275.92 171.759 276.09 172.019 276.3 172.279C276.5 172.539 276.78 172.769 277.12 172.969C277.46 173.169 277.9 173.329 278.41 173.459C278.93 173.589 279.57 173.649 280.34 173.649C280.95 173.649 281.53 173.609 282.1 173.519C282.67 173.429 283.16 173.279 283.59 173.069C284.02 172.859 284.36 172.599 284.62 172.289C284.88 171.979 285.01 171.599 285.01 171.139C285.01 170.699 284.87 170.339 284.59 170.059C284.31 169.779 283.88 169.539 283.3 169.339C282.72 169.139 282.01 168.949 281.16 168.769C280.31 168.589 279.33 168.359 278.21 168.079C277.2 167.839 276.31 167.559 275.55 167.229C274.79 166.899 274.16 166.499 273.67 166.019C273.17 165.539 272.8 164.979 272.56 164.329C272.32 163.679 272.2 162.909 272.2 162.009C272.2 161.229 272.35 160.509 272.66 159.859C272.96 159.199 273.38 158.609 273.92 158.079C274.46 157.549 275.1 157.109 275.85 156.759C276.6 156.409 277.42 156.159 278.31 155.999V153.969C278.31 153.749 278.39 153.559 278.55 153.399C278.71 153.239 278.9 153.159 279.13 153.159H281.59C281.81 153.159 282.01 153.239 282.17 153.399C282.33 153.559 282.41 153.749 282.41 153.969V156.059H282.42Z" fill="#FFD817"/>
<path d="M153.2 304.729L155.77 348.519H85.1396C85.1396 348.519 86.9697 338.749 86.9697 330.869C86.9697 315.109 96.3697 304.739 96.3697 304.739H153.2V304.729Z" fill="white"/>
<path d="M132.069 348.509H155.769L153.199 304.729H144.169L132.069 348.509Z" fill="#D1D1D1"/>
<path d="M175.01 173.46C175.01 173.46 174.27 183.42 175.56 185.17C176.85 186.92 176.36 188.03 175.18 188.58C173.99 189.13 173.99 198.35 171.23 199C168.46 199.65 166.07 197.55 165.05 200.49C164.04 203.43 162.75 210.52 162.75 210.52L145.33 209.32L150.22 196.41C150.22 196.41 146.9 186.82 149.11 178.53C151.32 170.24 174.45 165.16 175.01 173.46Z" fill="#F59462"/>
<path d="M141.169 205.45L170.329 209.56C170.999 209.65 171.439 210.31 171.269 210.97L169.559 217.62C169.559 217.62 171.029 227.94 170.479 235.69C169.929 243.43 163.659 270.35 161.999 278.65C160.339 286.95 159.049 307.41 154.809 307.6C150.569 307.78 101.339 307.6 92.8594 307.6C84.3794 307.6 97.0994 298.93 101.339 291.38C105.579 283.82 110.739 258.38 117.559 243.81C124.379 229.25 139.499 212.93 139.869 209.75C140.249 206.55 139.549 205.22 141.169 205.45Z" fill="#6470B5"/>
<path d="M138.67 235.05C135.59 231.17 133.86 232.14 135.51 238.64C137.16 245.14 139.23 250.95 145.32 254.82C150.81 258.31 152.14 279.04 161.09 284.37C161.4 282.18 161.69 280.2 162 278.65C163.36 271.87 167.79 252.64 169.67 241.62C169.67 241.61 141.27 238.31 138.67 235.05Z" fill="#495285"/>
<path d="M175.74 243.33C175.74 243.33 186.25 257.56 189.66 258.56C193.07 259.56 227.18 262.32 230.13 262.32C233.08 262.32 239.81 266.47 242.48 267.76C245.15 269.05 252.16 274.95 248.56 277.07C244.96 279.19 238.7 279.01 235.1 277.07C231.5 275.13 228.56 272.55 225.33 272.55C222.1 272.55 190.48 273.35 183.57 271.26C173.98 268.36 159.1 252.18 156.68 250.06L175.74 243.33Z" fill="#F59462"/>
<path d="M227.11 275C227.39 272.9 226.97 270.78 230.01 271.89C233.05 273 236.16 275.55 238.58 276.25C241 276.94 238.51 279.78 236.58 279.78C234.65 279.77 226.83 277.11 227.11 275Z" fill="#F9B989"/>
<path d="M226.77 263.999C226.77 263.999 239.28 261.719 242.46 262.239C245.64 262.759 243.58 264.069 239.97 265.179C231.67 267.739 223.4 265.689 226.77 263.999Z" fill="#F9B989"/>
<path d="M157.029 183.88C157.029 183.88 153.709 180.56 152.789 183.88C151.869 187.2 155.559 189.96 154.909 191.81C154.259 193.65 151.499 200.84 149.469 200.48C147.439 200.11 150.019 196.06 147.629 192.37C145.229 188.68 142.099 184.26 144.129 175.96C146.159 167.66 152.609 169.88 154.819 166.74C157.029 163.61 158.879 160.47 167.539 161.39C176.209 162.31 180.079 157.19 183.759 161.23C187.449 165.27 186.889 172.64 177.679 174.67C168.459 176.7 166.619 173.93 164.679 176.14C162.749 178.34 159.429 183.69 157.029 183.88Z" fill="#995417"/>
<path d="M136.66 232.73L154.73 253.47L177.87 244.53C177.87 244.53 166.99 228.12 163.31 223.7C159.62 219.28 153.17 214.76 147.64 215.68C142.1 216.6 132.14 226.74 136.66 232.73Z" fill="#6470B5"/>
<path d="M159.59 220.05C159.59 220.05 164.59 223.64 170.58 233.76" stroke="#495285" stroke-miterlimit="10"/>
<path d="M47.9102 353.829H178.99" stroke="#292E4A" stroke-width="1.0223" stroke-miterlimit="10"/>
<path d="M200.85 353.829H474.13" stroke="#292E4A" stroke-width="1.0223" stroke-miterlimit="10"/>
</g>
<defs>
<clipPath id="clip0">
<rect width="499.82" height="354.35" fill="white"/>
</clipPath>
</defs>
</svg>
