<svg width="36" height="35" viewBox="0 0 36 35" fill="none" xmlns="http://www.w3.org/2000/svg">
<path d="M27.5625 14.7656H26.4375V15.8594C25.5071 15.8594 24.75 16.5955 24.75 17.5C24.75 18.4045 25.5071 19.1406 26.4375 19.1406H27.5625C27.8724 19.1406 28.125 19.3856 28.125 19.6875C28.125 19.9894 27.8724 20.2344 27.5625 20.2344H25.875V19.6875H24.75V21.3281H26.4375V22.4219H27.5625V21.3281C28.4929 21.3281 29.25 20.592 29.25 19.6875C29.25 18.783 28.4929 18.0469 27.5625 18.0469H26.4375C26.1276 18.0469 25.875 17.8019 25.875 17.5C25.875 17.1981 26.1276 16.9531 26.4375 16.9531H28.125V17.5H29.25V15.8594H27.5625V14.7656Z" fill="white"/>
<path d="M33.75 30.0781H24.75C24.4828 30.0781 24.2331 30.1443 24.0081 30.2526C24.1194 30.0338 24.1875 29.791 24.1875 29.5312V28.4375C24.1875 27.533 23.4304 26.7969 22.5 26.7969H13.5C13.2328 26.7969 12.9831 26.863 12.7581 26.9713C12.8694 26.7526 12.9375 26.5098 12.9375 26.25V25.1562C12.9375 24.2517 12.1804 23.5156 11.25 23.5156H2.25C1.31962 23.5156 0.5625 24.2517 0.5625 25.1562V26.25C0.5625 26.6716 0.731812 27.0528 1.00125 27.3438C0.731812 27.6347 0.5625 28.0159 0.5625 28.4375V29.5312C0.5625 29.9529 0.731812 30.3341 1.00125 30.625C0.731812 30.9159 0.5625 31.2971 0.5625 31.7188V32.8125C0.5625 33.717 1.31962 34.4531 2.25 34.4531H11.25C11.6837 34.4531 12.0758 34.2885 12.375 34.0266C12.6742 34.2891 13.0663 34.4531 13.5 34.4531H22.5C22.9337 34.4531 23.3258 34.2885 23.625 34.0266C23.9242 34.2891 24.3163 34.4531 24.75 34.4531H33.75C34.6804 34.4531 35.4375 33.717 35.4375 32.8125V31.7188C35.4375 30.8142 34.6804 30.0781 33.75 30.0781ZM13.5 27.8906H14.0625V28.9844H15.1875V27.8906H16.3125V28.9844H17.4375V27.8906H18.5625V28.9844H19.6875V27.8906H20.8125V28.9844H21.9375V27.8906H22.5C22.8099 27.8906 23.0625 28.1356 23.0625 28.4375V29.5312C23.0625 29.8331 22.8099 30.0781 22.5 30.0781H13.5C13.1901 30.0781 12.9375 29.8331 12.9375 29.5312V28.4375C12.9375 28.1356 13.1901 27.8906 13.5 27.8906ZM2.25 30.0781C1.94006 30.0781 1.6875 29.8331 1.6875 29.5312V28.4375C1.6875 28.1356 1.94006 27.8906 2.25 27.8906H2.8125V28.9844H3.9375V27.8906H5.0625V28.9844H6.1875V27.8906H7.3125V28.9844H8.4375V27.8906H9.5625V28.9844H10.6875V27.8906H11.25C11.5599 27.8906 11.8125 28.1356 11.8125 28.4375V29.5312C11.8125 29.8331 11.5599 30.0781 11.25 30.0781H2.25ZM1.6875 25.1562C1.6875 24.8544 1.94006 24.6094 2.25 24.6094H2.8125V25.7031H3.9375V24.6094H5.0625V25.7031H6.1875V24.6094H7.3125V25.7031H8.4375V24.6094H9.5625V25.7031H10.6875V24.6094H11.25C11.5599 24.6094 11.8125 24.8544 11.8125 25.1562V26.25C11.8125 26.5519 11.5599 26.7969 11.25 26.7969H2.25C1.94006 26.7969 1.6875 26.5519 1.6875 26.25V25.1562ZM11.25 33.3594H2.25C1.94006 33.3594 1.6875 33.1144 1.6875 32.8125V31.7188C1.6875 31.4169 1.94006 31.1719 2.25 31.1719H2.8125V32.2656H3.9375V31.1719H5.0625V32.2656H6.1875V31.1719H7.3125V32.2656H8.4375V31.1719H9.5625V32.2656H10.6875V31.1719H11.25C11.5599 31.1719 11.8125 31.4169 11.8125 31.7188V32.8125C11.8125 33.1144 11.5599 33.3594 11.25 33.3594ZM22.5 33.3594H13.5C13.1901 33.3594 12.9375 33.1144 12.9375 32.8125V31.7188C12.9375 31.4169 13.1901 31.1719 13.5 31.1719H14.0625V32.2656H15.1875V31.1719H16.3125V32.2656H17.4375V31.1719H18.5625V32.2656H19.6875V31.1719H20.8125V32.2656H21.9375V31.1719H22.5C22.8099 31.1719 23.0625 31.4169 23.0625 31.7188V32.8125C23.0625 33.1144 22.8099 33.3594 22.5 33.3594ZM34.3125 32.8125C34.3125 33.1144 34.0599 33.3594 33.75 33.3594H24.75C24.4401 33.3594 24.1875 33.1144 24.1875 32.8125V31.7188C24.1875 31.4169 24.4401 31.1719 24.75 31.1719H25.3125V32.2656H26.4375V31.1719H27.5625V32.2656H28.6875V31.1719H29.8125V32.2656H30.9375V31.1719H32.0625V32.2656H33.1875V31.1719H33.75C34.0599 31.1719 34.3125 31.4169 34.3125 31.7188V32.8125Z" fill="white"/>
<path d="M35.4375 8.20312V2.1875H29.25V3.28125H33.5171L28.0536 8.59305L24.6628 6.39516L17.4375 14.0049V20.2344H9.5625V18.0469V17.5V15.8594H12.375C15.1661 15.8594 17.4375 13.6516 17.4375 10.9375V10.3906H13.5C11.9104 10.3906 10.4912 11.1081 9.5625 12.2259V8.20312H12.375C15.1661 8.20312 17.4375 5.99539 17.4375 3.28125V2.73438H13.5C11.8665 2.73438 10.4152 3.49398 9.48881 4.66484C9.09225 2.33297 7.00931 0.546875 4.5 0.546875H0.5625V1.09375C0.5625 3.80789 2.83388 6.01562 5.625 6.01562H8.4375V7.65625V8.20312V14.4134C7.50881 13.2956 6.08962 12.5781 4.5 12.5781H0.5625V13.125C0.5625 15.8391 2.83388 18.0469 5.625 18.0469H8.4375V20.2344H0.5625V21.3281H21.4954C22.5219 23.2728 24.6009 24.6094 27 24.6094C29.3991 24.6094 31.4781 23.2728 32.5046 21.3281H35.4375V20.2344H32.9479C33.1003 19.7121 33.1875 19.163 33.1875 18.5938C33.1875 17.3108 32.769 16.1235 32.0625 15.1457V6.24203L34.3125 4.05453V8.20312H35.4375ZM13.5 11.4844H16.2726C15.9986 13.3372 14.3556 14.7656 12.375 14.7656H9.60244C9.87637 12.9128 11.5194 11.4844 13.5 11.4844ZM13.5 3.82812H16.2726C15.9986 5.68094 14.3556 7.10938 12.375 7.10938H9.60244C9.87637 5.25656 11.5194 3.82812 13.5 3.82812ZM5.625 4.92188C3.64444 4.92188 2.00138 3.49344 1.72744 1.64062H4.5C6.48056 1.64062 8.12362 3.06906 8.39756 4.92188H5.625ZM5.625 16.9531C3.64444 16.9531 2.00138 15.5247 1.72744 13.6719H4.5C6.48056 13.6719 8.12362 15.1003 8.39756 16.9531H5.625ZM27 12.5781C26.4144 12.5781 25.8497 12.6629 25.3125 12.8111V8.13094L27.5625 9.58945V12.6055C27.3769 12.5896 27.1901 12.5781 27 12.5781ZM24.1875 13.242C23.2875 13.691 22.5152 14.3462 21.9375 15.1457V10.8779L24.1875 8.50828V13.242ZM18.5625 20.2344V14.4326L20.8125 12.063V18.5938C20.8125 19.163 20.8997 19.7121 21.0521 20.2344H18.5625ZM27 23.5156C24.2089 23.5156 21.9375 21.3079 21.9375 18.5938C21.9375 15.8796 24.2089 13.6719 27 13.6719C29.7911 13.6719 32.0625 15.8796 32.0625 18.5938C32.0625 21.3079 29.7911 23.5156 27 23.5156ZM30.9375 13.9568C30.2861 13.4334 29.5217 13.0413 28.6875 12.8111V9.52328L30.9375 7.33578V13.9568Z" fill="white"/>
</svg>
