<svg xmlns="http://www.w3.org/2000/svg" width="16" height="12px" viewBox="" fill="none">
<path d="M5.4375 11.7188L0.21875 6.53125C0.0729167 6.38542 0 6.19792 0 5.96875C0 5.73958 0.0729167 5.55208 0.21875 5.40625L1.375 4.28125C1.52083 4.11458 1.69792 4.03125 1.90625 4.03125C2.13542 4.03125 2.33333 4.11458 2.5 4.28125L6 7.78125L13.5 0.28125C13.6667 0.114583 13.8542 0.03125 14.0625 0.03125C14.2917 0.03125 14.4792 0.114583 14.625 0.28125L15.7812 1.40625C15.9271 1.55208 16 1.73958 16 1.96875C16 2.19792 15.9271 2.38542 15.7812 2.53125L6.5625 11.7188C6.41667 11.8854 6.22917 11.9688 6 11.9688C5.77083 11.9688 5.58333 11.8854 5.4375 11.7188Z " fill="#5E72E4"/>
</svg>