<svg width="209" height="15" xmlns="http://www.w3.org/2000/svg">

 <g>
  <title>background</title>
  <rect fill="none" id="canvas_background" height="402" width="582" y="-1" x="-1"/>
 </g>
 <g>
  <title>Layer 1</title>
  <path id="svg_1" fill="#5E72E4" d="m6.781,0.718775c1.932,0 3.546,0.5651 4.84,1.69531c1.294,1.13021 1.941,2.60677 1.941,4.42969c0,1.14844 -0.337,2.10547 -1.011,2.87109c-0.675,0.76566 -1.705,1.14846 -3.09,1.14846c-0.274,0 -0.483,0 -0.629,0c-0.146,-0.0182 -0.328,-0.0547 -0.547,-0.1094c-0.201,-0.0547 -0.365,-0.1458 -0.492,-0.2734c-0.128,-0.1459 -0.219,-0.3282 -0.274,-0.5469c-0.237,0.3099 -0.547,0.5651 -0.929,0.7656c-0.383,0.2005 -0.757,0.3008 -1.121,0.3008c-0.803,0 -1.441,-0.2552 -1.915,-0.7656c-0.474,-0.52867 -0.71,-1.23961 -0.71,-2.13284c0,-1.20312 0.364,-2.19661 1.093,-2.98047c0.748,-0.78385 1.641,-1.17578 2.68,-1.17578c0.766,0 1.312,0.20052 1.641,0.60157c0.018,-0.21876 0.136,-0.32813 0.355,-0.32813l1.231,0c0.218,0 0.391,0.08203 0.519,0.24609c0.128,0.14584 0.173,0.32813 0.137,0.54688l-0.656,3.30859c-0.055,0.23698 -0.064,0.42839 -0.028,0.57422c0.055,0.14583 0.192,0.22787 0.41,0.24609c0.474,-0.05468 0.857,-0.30989 1.149,-0.76562c0.291,-0.45573 0.437,-0.96615 0.437,-1.53125c0,-1.34896 -0.483,-2.41536 -1.449,-3.19922c-0.966,-0.78385 -2.16,-1.17578 -3.582,-1.17578c-1.385,0 -2.57,0.49219 -3.555,1.47656c-0.984,0.98438 -1.476,2.16927 -1.476,3.55469c0,1.38542 0.492,2.5703 1.476,3.5547c0.985,0.9844 2.17,1.4765 3.555,1.4765c0.984,0 1.887,-0.2643 2.707,-0.7929c0.146,-0.0912 0.301,-0.1185 0.465,-0.0821c0.164,0.0183 0.301,0.0912 0.41,0.2188l0.273,0.3281c0.128,0.1641 0.174,0.3464 0.137,0.5469c-0.036,0.1823 -0.137,0.3281 -0.301,0.4375c-1.112,0.7292 -2.342,1.0937 -3.691,1.0937c-1.878,0 -3.482,-0.6562 -4.812,-1.9687c-1.313,-1.3307 -1.969,-2.9349 -1.969,-4.8125c0,-1.8776 0.656,-3.47266 1.969,-4.78516c1.33,-1.33073 2.934,-1.99609 4.812,-1.99609zm-0.602,8.3125c0.383,0 0.739,-0.18229 1.067,-0.54687c0.346,-0.38282 0.519,-0.85678 0.519,-1.42188c0,-0.34635 -0.082,-0.61979 -0.246,-0.82031c-0.164,-0.20052 -0.401,-0.30078 -0.711,-0.30078c-0.419,0 -0.793,0.1914 -1.121,0.57421c-0.328,0.36459 -0.492,0.83855 -0.492,1.42188c0,0.34635 0.091,0.61979 0.274,0.82031c0.182,0.18229 0.419,0.27344 0.71,0.27344z"/>
 </g>
</svg>