<svg width="47" height="47" viewBox="0 0 47 47" fill="none" xmlns="http://www.w3.org/2000/svg">
<g clip-path="url(#clip0)">
<path d="M7.80931 41.7612C7.63866 41.5903 7.40183 41.4922 7.1604 41.4922C6.91897 41.4922 6.68214 41.5903 6.5114 41.7612C6.34065 41.932 6.24243 42.1687 6.24243 42.4102C6.24243 42.6516 6.34056 42.8884 6.5114 43.0591C6.68214 43.2298 6.91897 43.3281 7.1604 43.3281C7.40183 43.3281 7.63866 43.2299 7.80931 43.0591C7.98005 42.8884 8.07837 42.6516 8.07837 42.4102C8.07837 42.1687 7.98015 41.9319 7.80931 41.7612Z" fill="#5E72E4"/>
<path d="M43.1008 16.7931C42.93 16.6223 42.6941 16.5242 42.4518 16.5242C42.2104 16.5242 41.9735 16.6223 41.8028 16.7931C41.6321 16.9639 41.5338 17.2007 41.5338 17.4421C41.5338 17.6836 41.632 17.9204 41.8028 18.0911C41.9735 18.2618 42.2104 18.3601 42.4518 18.3601C42.6941 18.3601 42.93 18.2619 43.1008 18.0911C43.2724 17.9204 43.3706 17.6836 43.3706 17.4421C43.3706 17.2007 43.2724 16.9639 43.1008 16.7931Z" fill="#5E72E4"/>
<path d="M46.7315 0.268873C46.5593 0.0967539 46.3258 0 46.0823 0L23.5008 0.00119336C22.9939 0.00119336 22.5829 0.41226 22.5829 0.919162V3.54428L13.8816 5.87583C13.3918 6.0071 13.1012 6.51042 13.2325 7.00006L17.7422 23.8303L13.8409 27.7316C13.3444 27.0065 12.5107 26.5298 11.5676 26.5298H2.7554C1.2369 26.5298 0.00158691 27.7652 0.00158691 29.2836V44.2461C0.00158691 45.7646 1.2369 47 2.7554 47H11.5677C12.8577 47 13.943 46.1081 14.2404 44.9089L15.3319 45.8607C16.1745 46.5955 17.254 47.0001 18.372 47.0001H46.0824C46.5893 47.0001 47.0004 46.589 47.0004 46.0821V0.917969C47.0002 0.674523 46.9037 0.440992 46.7315 0.268873ZM12.4855 44.2462C12.4855 44.7523 12.0737 45.1642 11.5675 45.1642H2.75531C2.24914 45.1642 1.83734 44.7524 1.83734 44.2462V29.2837C1.83734 28.7775 2.24914 28.3657 2.75531 28.3657H6.2435V38.9402C6.2435 39.4471 6.65457 39.8582 7.16147 39.8582C7.66837 39.8582 8.07944 39.4471 8.07944 38.9402V28.3657H11.5676C12.0738 28.3657 12.4856 28.7775 12.4856 29.2837V44.2462H12.4855ZM15.2434 7.41159L22.5829 5.44493V8.84647L21.9677 9.01133C21.7324 9.0744 21.532 9.22816 21.4103 9.43901C21.2886 9.64987 21.2555 9.90038 21.3186 10.1356C21.6713 11.452 20.8873 12.81 19.5708 13.1628C19.3354 13.2259 19.1346 13.3799 19.013 13.5913C18.8914 13.8025 18.8586 14.0535 18.9222 14.2888L22.5004 27.5386H20.658L19.7085 23.8241C19.6783 23.7059 19.6255 23.5969 19.5547 23.5022L15.2434 7.41159ZM22.5829 13.0562V20.8021L20.9086 14.6026C21.608 14.2415 22.1804 13.7011 22.5829 13.0562ZM35.7708 45.1641H18.3718C17.6975 45.1641 17.0464 44.9201 16.5382 44.477L14.3214 42.5436V29.8475L18.3291 25.8398L19.056 28.6837C19.1599 29.0901 19.5259 29.3743 19.9453 29.3743L37.9929 29.3754C38.7016 29.3754 39.2781 29.9519 39.2781 30.6605C39.2781 31.3692 38.7016 31.9457 37.9929 31.9457H28.7453C28.2384 31.9457 27.8273 32.3567 27.8273 32.8636C27.8273 33.3706 28.2384 33.7816 28.7453 33.7816H40.8662C41.5748 33.7816 42.1513 34.3581 42.1513 35.0668C42.1513 35.7754 41.5748 36.3519 40.8662 36.3519H28.7453C28.2384 36.3519 27.8273 36.763 27.8273 37.2699C27.8273 37.7768 28.2384 38.1879 28.7453 38.1879H38.902C39.6107 38.1879 40.1871 38.7644 40.1871 39.473C40.1871 40.1817 39.6107 40.7582 38.902 40.7582H28.7453C28.2384 40.7582 27.8273 41.1692 27.8273 41.6761C27.8273 42.1831 28.2384 42.5941 28.7453 42.5941H35.7708C36.4795 42.5941 37.056 43.1706 37.056 43.8793C37.0559 44.5876 36.4794 45.1641 35.7708 45.1641ZM45.1645 45.1641H45.1644H38.6138C38.7918 44.7718 38.8918 44.337 38.8918 43.8789C38.8918 43.4208 38.7918 42.986 38.6138 42.5938H38.902C40.6229 42.5938 42.023 41.1937 42.023 39.4727C42.023 38.9708 41.9032 38.4965 41.6917 38.0759C43.0132 37.7129 43.9871 36.5017 43.9871 35.0666C43.9871 34.3704 43.7578 33.7268 43.371 33.2072V21.5729C43.371 21.066 42.96 20.6549 42.4531 20.6549C41.9462 20.6549 41.5351 21.066 41.5351 21.5729V32.0187C41.3194 31.9714 41.0957 31.9457 40.866 31.9457H40.8359C41.0139 31.5534 41.1138 31.1186 41.1138 30.6605C41.1138 28.9395 39.7137 27.5395 37.9928 27.5395H36.5172C38.0841 26.8676 39.1845 25.3101 39.1845 23.5C39.1845 21.0776 37.2138 19.1068 34.7914 19.1068C32.3691 19.1068 30.3983 21.0776 30.3983 23.5C30.3983 25.3101 31.4988 26.8676 33.0656 27.5395H28.0477V10.0851C29.6876 9.72771 30.9816 8.43384 31.3388 6.79389H38.2439C38.6012 8.43384 39.8951 9.72771 41.535 10.0851V12.939C41.535 13.4459 41.9461 13.857 42.453 13.857C42.9599 13.857 43.3709 13.4459 43.3709 12.939V9.26552C43.3709 8.75862 42.9599 8.34755 42.453 8.34755C41.0901 8.34755 39.9814 7.23873 39.9814 5.87592C39.9814 5.36902 39.5704 4.95795 39.0635 4.95795H30.5194C30.0125 4.95795 29.6014 5.36902 29.6014 5.87592C29.6014 7.23883 28.4927 8.34755 27.1299 8.34755C26.623 8.34755 26.2119 8.75862 26.2119 9.26552V27.5394H24.4189V1.83695L45.1645 1.83594V45.1641ZM34.7916 26.0573C33.3815 26.0573 32.2344 24.9101 32.2344 23.5001C32.2344 22.0901 33.3816 20.9428 34.7916 20.9428C36.2016 20.9428 37.3488 22.09 37.3488 23.5C37.3488 24.91 36.2017 26.0573 34.7916 26.0573Z" fill="#5E72E4"/>
</g>
<defs>
<clipPath id="clip0">
<rect width="47" height="47" fill="white"/>
</clipPath>
</defs>
</svg>
