<svg width="36" height="36" viewBox="0 0 36 36" fill="none" xmlns="http://www.w3.org/2000/svg">
<path d="M24.0437 23.0877C23.1907 23.0877 22.4968 22.4871 22.4968 21.7489C22.4968 21.0106 23.1907 20.41 24.0437 20.41C24.8967 20.41 25.5906 21.0106 25.5906 21.7489C25.5906 22.1371 25.9054 22.452 26.2937 22.452C26.682 22.452 26.9968 22.1371 26.9968 21.7489C26.9968 20.4604 26.0368 19.377 24.7468 19.083V18.7173C24.7468 18.329 24.432 18.0142 24.0437 18.0142C23.6554 18.0142 23.3406 18.329 23.3406 18.7173V19.083C22.0506 19.377 21.0906 20.4604 21.0906 21.7489C21.0906 23.2625 22.4153 24.4939 24.0437 24.4939C24.8967 24.4939 25.5906 25.0945 25.5906 25.8328C25.5906 26.5711 24.8967 27.1717 24.0437 27.1717C23.1907 27.1717 22.4968 26.5711 22.4968 25.8328C22.4968 25.4446 22.182 25.1297 21.7937 25.1297C21.4054 25.1297 21.0906 25.4446 21.0906 25.8328C21.0906 27.1213 22.0506 28.2047 23.3406 28.4987V28.8025C23.3406 29.1907 23.6554 29.5056 24.0437 29.5056C24.432 29.5056 24.7468 29.1907 24.7468 28.8025V28.4987C26.0368 28.2047 26.9968 27.1213 26.9968 25.8328C26.9968 24.3191 25.6721 23.0877 24.0437 23.0877Z" fill="#5E72E4"/>
<path d="M31.7448 18.9053C30.8263 17.4741 29.5323 16.3289 28.0026 15.5936C27.6525 15.4252 27.2324 15.5726 27.0642 15.9226C26.896 16.2726 27.0433 16.6927 27.3933 16.8609C30.0589 18.1423 31.7812 20.8802 31.7812 23.836C31.7812 25.1008 31.4694 26.3551 30.8797 27.4635C30.6973 27.8062 30.8273 28.2321 31.1702 28.4144C31.2754 28.4704 31.3884 28.497 31.4998 28.497C31.7514 28.497 31.9947 28.3616 32.1212 28.124C32.8187 26.8131 33.1874 25.3303 33.1874 23.836C33.1874 22.081 32.6886 20.376 31.7448 18.9053Z" fill="#5E72E4"/>
<path d="M25.1489 14.6954L25.1016 14.6953C24.7133 14.6953 24.3984 15.0101 24.3984 15.3984C24.3984 15.7868 24.7133 16.1016 25.1016 16.1016L25.1423 16.1016C25.1434 16.1016 25.1445 16.1016 25.1456 16.1016C25.5324 16.1016 25.8469 15.789 25.8487 15.4018C25.8505 15.0135 25.5371 14.6972 25.1489 14.6954Z" fill="#5E72E4"/>
<path d="M20.7003 30.8111C18.0348 29.5297 16.3125 26.7918 16.3125 23.836C16.3125 22.5713 16.6243 21.317 17.214 20.2086C17.3964 19.8658 17.2664 19.44 16.9235 19.2576C16.5808 19.0752 16.1549 19.2052 15.9725 19.548C15.275 20.859 14.9062 22.3418 14.9062 23.836C14.9062 25.591 15.4051 27.296 16.3489 28.7667C17.2674 30.1979 18.5614 31.3432 20.0911 32.0786C20.1893 32.1258 20.2931 32.1481 20.3953 32.1481C20.6571 32.1481 20.9084 32.0012 21.0295 31.7495C21.1976 31.3995 21.0504 30.9794 20.7003 30.8111Z" fill="#5E72E4"/>
<path d="M22.9924 31.5702L22.9517 31.5701C22.5616 31.5694 22.2471 31.8815 22.2454 32.2699C22.2435 32.6582 22.557 32.9745 22.9453 32.9763L22.9924 32.9765C23.3806 32.9765 23.6955 32.6616 23.6955 32.2733C23.6955 31.8851 23.3806 31.5702 22.9924 31.5702Z" fill="#5E72E4"/>
<path d="M27.2396 12.3165C27.1541 12.1126 27.0492 11.9204 26.9272 11.7422H28.7578C30.5412 11.7422 31.9921 10.2912 31.9921 8.5078C31.9921 6.72439 30.5412 5.27343 28.7578 5.27343H23.1271C23.4851 4.75298 23.6953 4.12333 23.6953 3.44531C23.6953 1.6619 22.2443 0.210938 20.4609 0.210938H3.23437C1.45097 0.210938 0 1.6619 0 3.44531C0 5.22871 1.45097 6.67968 3.23437 6.67968H8.86498C8.50702 7.20013 8.29686 7.82977 8.29686 8.5078C8.29686 9.18582 8.50695 9.81547 8.86498 10.3359H7.03124C5.24783 10.3359 3.79687 11.7869 3.79687 13.5703C3.79687 14.5945 4.27598 15.5085 5.02136 16.1015C4.27598 16.6945 3.79687 17.6085 3.79687 18.6328C3.79687 19.657 4.27598 20.571 5.02136 21.164C4.27598 21.757 3.79687 22.671 3.79687 23.6953C3.79687 24.7195 4.27598 25.6335 5.02136 26.2265C4.27598 26.8195 3.79687 27.7335 3.79687 28.7578C3.79687 30.5412 5.24783 31.9921 7.03124 31.9921H15.3175C17.5005 34.327 20.6059 35.7891 24.0469 35.7891C30.6378 35.7891 36 30.4269 36 23.836C36 18.3504 32.2854 13.7167 27.2396 12.3165ZM28.7578 6.67968C29.7658 6.67968 30.5859 7.4998 30.5859 8.5078C30.5859 9.51579 29.7658 10.3359 28.7578 10.3359H24.2578H11.5312C10.5232 10.3359 9.70311 9.51579 9.70311 8.5078C9.70311 7.4998 10.5232 6.67968 11.5312 6.67968H28.7578ZM3.23437 5.27343C2.2263 5.27343 1.40625 4.4533 1.40625 3.44531C1.40625 2.43731 2.2263 1.61718 3.23437 1.61718H20.4609C21.469 1.61718 22.289 2.43731 22.289 3.44531C22.289 4.4533 21.469 5.27343 20.4609 5.27343H3.23437ZM7.03124 11.7422H24.2578C24.541 11.7422 24.8122 11.808 25.0555 11.9258C24.7229 11.8979 24.3867 11.8829 24.0469 11.8829C20.7461 11.8829 17.7536 13.2279 15.5884 15.3984H7.03124C6.02324 15.3984 5.20311 14.5783 5.20311 13.5703C5.20311 12.5623 6.02324 11.7422 7.03124 11.7422ZM7.03124 16.8047H14.387C13.5888 17.8982 12.9716 19.1316 12.5797 20.4609H7.03124C6.02317 20.4609 5.20311 19.6408 5.20311 18.6328C5.20311 17.6248 6.02317 16.8047 7.03124 16.8047ZM7.03124 21.8671H12.2569C12.1502 22.5079 12.0938 23.1654 12.0938 23.836C12.0938 24.4087 12.1352 24.9719 12.2135 25.5234H7.03124C6.02317 25.5234 5.20311 24.7033 5.20311 23.6953C5.20311 22.6872 6.02317 21.8671 7.03124 21.8671ZM7.03124 30.5859C6.02317 30.5859 5.20311 29.7658 5.20311 28.7578C5.20311 27.7497 6.02317 26.9296 7.03124 26.9296H12.5006C12.8554 28.2524 13.4317 29.4852 14.1876 30.5859H7.03124ZM24.0469 34.3828C18.2314 34.3828 13.5 29.6515 13.5 23.836C13.5 18.0204 18.2314 13.2891 24.0469 13.2891C29.8624 13.2891 34.5938 18.0204 34.5938 23.836C34.5938 29.6515 29.8624 34.3828 24.0469 34.3828Z" fill="#5E72E4"/>
</svg>
