<svg width="47" height="47" viewBox="0 0 47 47" fill="none" xmlns="http://www.w3.org/2000/svg">
<g clip-path="url(#clip0)">
<path d="M37.4879 11.8346C37.8461 11.4757 37.8461 10.8944 37.4879 10.5365C37.129 10.1776 36.5481 10.1776 36.1899 10.5365C35.8309 10.8944 35.8309 11.4757 36.1899 11.8346C36.5481 12.1925 37.129 12.1925 37.4879 11.8346Z" fill="#5E72E4"/>
<path d="M11.9784 13.7355C12.3366 13.3776 12.3366 12.7963 11.9784 12.4374C11.6195 12.0795 11.0386 12.0795 10.6803 12.4374C10.3214 12.7963 10.3214 13.3776 10.6803 13.7355C11.0386 14.0944 11.6195 14.0944 11.9784 13.7355Z" fill="#5E72E4"/>
<path d="M6.57632 19.0213L9.32377 16.2728C9.68236 15.9142 9.682 15.3333 9.32377 14.9747C8.96519 14.6162 8.38393 14.6165 8.02535 14.9747L5.2779 17.7233C4.91968 18.0818 4.91968 18.6631 5.27826 19.0213C5.63648 19.3799 6.21774 19.3799 6.57632 19.0213Z" fill="#5E72E4"/>
<path d="M40.5161 16.3592C40.8747 16.7178 41.4559 16.7178 41.8145 16.3592C42.1731 16.001 42.1731 15.4197 41.8145 15.0611L39.9832 13.2299C39.6246 12.8713 39.0434 12.8713 38.6848 13.2299C38.3266 13.5881 38.3266 14.1694 38.6848 14.5279L40.5161 16.3592Z" fill="#5E72E4"/>
<path d="M46.7311 15.3365L36.3469 4.95057C35.9962 4.59952 35.4296 4.59092 35.0686 4.93157C34.2621 5.6914 30.4715 9.26108 30.4167 9.31451C30.4135 9.31774 30.4099 9.32061 30.4066 9.32383C29.5088 10.2217 28.6248 10.6219 27.5405 10.6219C25.3237 10.6219 23.6255 11.248 22.2152 12.5837C21.0588 11.4886 19.7482 10.9224 17.919 10.7334L13.3299 6.14393C12.9713 5.78535 12.3901 5.78535 12.0315 6.14393L0.26894 17.9068C-0.0803183 18.2557 -0.0917929 18.8194 0.248501 19.1827C0.255673 19.1902 0.261768 19.1977 0.26894 19.2049C0.26894 19.2049 7.92322 26.8474 7.93398 26.8578L7.60982 27.1819C6.35479 28.4369 6.35407 30.4694 7.61018 31.7255C8.20471 32.3193 9.02156 32.6722 9.91514 32.6632C9.90546 33.5449 10.2461 34.3614 10.8557 34.971C11.475 35.5903 12.3026 35.9188 13.1607 35.9098C13.1513 36.7908 13.4916 37.607 14.1012 38.2165C14.6958 38.8104 15.5122 39.1632 16.4062 39.1542C16.3965 40.036 16.7372 40.8525 17.3467 41.4621C18.5993 42.7146 20.6371 42.7146 21.89 41.4621L22.2148 41.1372L22.5397 41.4621C23.7922 42.7146 25.8301 42.7146 27.0829 41.4621C27.6911 40.8539 28.0325 40.0389 28.0239 39.156C28.9006 39.165 29.7174 38.8276 30.3288 38.2162C30.9635 37.5815 31.2762 36.7449 31.2676 35.9112C32.1576 35.9205 32.9709 35.5742 33.574 34.971C34.1847 34.3607 34.5246 33.5428 34.5145 32.6632C35.3676 32.6718 36.197 32.3476 36.8199 31.7251C38.0753 30.4697 38.0753 28.4377 36.8199 27.1819L36.4961 26.8581C42.8964 20.465 34.8 28.5678 46.7311 16.6346C47.0896 16.276 47.0896 15.6951 46.7311 15.3365ZM2.2164 18.5555L12.6809 8.09139L16.2075 11.618L5.7452 22.0818L2.2164 18.5555ZM8.90789 30.4271C8.37001 29.8892 8.37001 29.0182 8.90789 28.48L12.1538 25.2341C12.6909 24.6973 13.5641 24.6977 14.1009 25.2341C14.6398 25.7734 14.6398 26.643 14.1009 27.1819L10.8561 30.4267C10.3189 30.9632 9.44468 30.9632 8.90789 30.4271ZM12.1538 33.673C11.6155 33.1344 11.6148 32.2637 12.1538 31.7251L15.3989 28.48C15.9379 27.9414 16.8078 27.941 17.3467 28.48C17.8835 29.0168 17.8857 29.8881 17.3467 30.4267C17.3464 30.4271 17.3464 30.4271 17.3464 30.4274L14.1009 33.673C13.5641 34.2098 12.6906 34.2098 12.1538 33.673ZM15.3989 36.9178C14.8611 36.3802 14.8611 35.5089 15.3989 34.971L18.6448 31.7251C19.1816 31.1883 20.0548 31.1883 20.5923 31.7259C21.1222 32.2548 21.138 33.1261 20.5919 33.6726C20.5919 33.6726 20.5919 33.6726 20.5915 33.673L17.3471 36.9174C16.8099 37.4542 15.9357 37.4542 15.3989 36.9178ZM18.6448 40.164C18.1066 39.6254 18.1059 38.7548 18.6448 38.2162L21.89 34.971C22.4282 34.4328 23.2988 34.4321 23.8374 34.971C24.3792 35.5128 24.3714 36.3845 23.8374 36.9181L20.5919 40.164C20.0548 40.7004 19.1816 40.7004 18.6448 40.164ZM25.7845 40.164C25.2481 40.7008 24.3746 40.7008 23.8378 40.164L23.5129 39.8391L25.1358 38.2162C25.2456 38.1065 25.3445 37.9892 25.4363 37.8676L25.7842 38.2158C25.7845 38.2158 25.7845 38.2158 25.7849 38.2162L25.7852 38.2165C26.3235 38.7548 26.3235 39.625 25.7845 40.164ZM35.5218 30.4267C34.9846 30.9632 34.1108 30.9632 33.574 30.4267L29.3549 26.208C28.9963 25.8494 28.4151 25.8494 28.0565 26.208C27.6983 26.5662 27.6983 27.1475 28.0565 27.5061L32.2759 31.7255C32.8142 32.2634 32.8145 33.134 32.2756 33.673C31.7366 34.2119 30.8656 34.2098 30.3288 33.673L26.1098 29.4528C25.7515 29.0946 25.1703 29.0946 24.8117 29.4528C24.4531 29.8114 24.4531 30.3927 24.8113 30.7512L29.0304 34.971C29.5672 35.5078 29.5672 36.3813 29.0304 36.9178C28.7708 37.1777 28.4248 37.3212 28.0565 37.3212C27.1841 37.3212 26.9029 36.6341 26.0757 35.9109C26.0674 35.0653 25.7347 34.2718 25.1362 33.6733C24.5273 33.0637 23.7119 32.7234 22.8309 32.732C22.8399 31.8496 22.4981 31.0342 21.89 30.4267C21.2553 29.792 20.4187 29.4797 19.585 29.4883C19.6033 27.6778 18.1371 26.2227 16.3398 26.2414C16.3488 25.3496 16.0003 24.5374 15.3989 23.936C14.1464 22.6831 12.1082 22.6831 10.8557 23.936L9.23204 25.5597L7.0447 23.3788L17.8488 12.5729C19.1866 12.7257 20.0874 13.1105 20.9132 13.8782L18.3196 16.4714C16.8892 17.9029 16.8892 20.2322 18.3199 21.6644C19.7517 23.0952 22.0815 23.0955 23.5129 21.6641L26.1098 19.0676C27.7879 20.7461 34.2983 27.2569 35.5214 28.4803C36.0582 29.0168 36.0582 29.8903 35.5218 30.4267ZM35.1976 25.5597L27.4078 17.7695L28.0569 17.1205C28.4154 16.7619 28.4154 16.1806 28.0569 15.822C27.6983 15.4638 27.1174 15.4638 26.7584 15.822L22.2145 20.3664C21.4991 21.0817 20.3337 21.0817 19.618 20.3664C18.9026 19.6503 18.9026 18.4852 19.6176 17.7695C20.5593 16.8282 22.4153 14.9726 23.3559 14.0324C24.4445 12.9437 25.7354 12.4578 27.5405 12.4578C28.8389 12.4578 29.9598 12.0677 31.0101 11.2415L40.1507 20.6195C34.1757 26.5791 35.3551 25.4026 35.1976 25.5597ZM41.4492 19.3211L32.3649 10.0008L35.6789 6.87867L44.784 15.9856L41.4492 19.3211Z" fill="#5E72E4"/>
</g>
<defs>
<clipPath id="clip0">
<rect width="47" height="47" fill="white"/>
</clipPath>
</defs>
</svg>
