<?xml version="1.0" encoding="utf-8"?>
<!-- Generator: Adobe Illustrator 24.2.1, SVG Export Plug-In . SVG Version: 6.00 Build 0)  -->
<svg version="1.1" id="Слой_1" xmlns="http://www.w3.org/2000/svg" xmlns:xlink="http://www.w3.org/1999/xlink" x="0px" y="0px"
	 viewBox="0 0 3000 1805.26" style="enable-background:new 0 0 3000 1805.26;" xml:space="preserve">
<style type="text/css">
	.st0{fill:#D4DEFF;}
	.st1{fill:#E3EAFF;}
	.st2{fill:#FFFFFF;}
	.st3{fill:#95A6DB;}
	.st4{fill:#4364CC;}
	.st5{fill:#F37A50;}
	.st6{fill:#8A284C;}
	.st7{fill:#E62552;}
	.st8{fill:#3B1120;}
	.st9{fill:#DE623C;}
	.st10{fill:#070635;}
	.st11{fill:#768FDB;}
	.st12{fill:#FABA23;}
	.st13{fill:#FAD332;}
	.st14{fill:#3F964F;}
	.st15{fill:#4EAD60;}
	.st16{opacity:0.2;fill:#193F1E;}
	.st17{fill:#FAEE6C;}
	.st18{fill:#4E73E6;}
	.st19{fill:#2E5BE6;}
	.st20{fill:#7292F7;}
	.st21{fill:#201D40;}
	.st22{fill:#6EAB3F;}
	.st23{fill:#C2D0FF;}
	.st24{fill:#C4204A;}
	.st25{fill:#2C2858;}
	.st26{fill:#0E6A41;}
	.st27{fill:#494C7F;}
</style>
<g>
	<g>
		<path class="st0" d="M956.63,265.76c36.17,40.42,32.72,102.51-7.7,138.68c-40.42,36.17-102.51,32.72-138.68-7.7
			c-36.17-40.42-32.72-102.51,7.7-138.68C858.38,221.89,920.46,225.34,956.63,265.76z"/>
		<g>
			<path class="st1" d="M929.45,392.11l-12.48-13.94c-8.13,7.02-18.63,11.95-26.55,12.82l-4.96-12.21
				c7.93-1.13,17.46-4.93,25.19-11.85c9.8-8.77,11.36-20.36,4.32-28.22c-6.79-7.59-16.38-7.47-30.29-2.47
				c-19.02,7.08-33.4,8.51-44.14-3.5c-10.25-11.46-9.89-27.44,0.96-40.87l-12.47-13.94l8.56-7.66l11.98,13.39
				c8.53-7.13,16.16-9.99,22.27-11.22l4.7,12.2c-4.38,0.94-12.76,2.96-21.59,10.87c-10.63,9.51-8.95,19.44-4.01,24.96
				c6.42,7.18,14.74,6.2,31.19,0.42c19.4-6.92,33-6.17,44,6.12c9.76,10.9,11.31,27.91-0.81,42.98l12.84,14.35L929.45,392.11z"/>
		</g>
	</g>
	<g>
		<path class="st0" d="M2973.48,1117.17l-65.12-91.82c0,0-63.68,13.58-83.87,91.89c-12.51,48.54-71.67,80.33-71.67,80.33l65.47,92.3
			c0,0,78.43-31.9,91.79-87.63C2924.22,1143.31,2973.48,1117.17,2973.48,1117.17z"/>
		<path class="st1" d="M2836.39,1195.35c19.34,12.51,46.85,4.36,61.44-18.2c14.6-22.56,10.75-51-8.59-63.51
			c-19.34-12.51-46.85-4.36-61.45,18.2C2813.2,1154.41,2817.05,1182.84,2836.39,1195.35z"/>
	</g>
	<g>
		<path class="st0" d="M307.88,997l-36.19-106.59c0,0-64.91-5.17-106.62,64.11c-25.85,42.94-91.62,56.52-91.62,56.52l36.38,107.15
			c0,0,84.27-8.18,112.99-57.77C253.21,1007.98,307.88,997,307.88,997z"/>
		<path class="st1" d="M154.17,1032.77c14.96,17.51,43.65,17.56,64.08,0.1c20.43-17.46,24.86-45.8,9.9-63.31
			c-14.96-17.51-43.65-17.56-64.08-0.1C143.64,986.91,139.21,1015.26,154.17,1032.77z"/>
	</g>
	<path class="st1" d="M130.45,1763.98c0,0-259.2-253.51-46.86-506.16c53.84-64.07,165.73-92.11,170.84-175.65
		c10.64-173.97-100.66-303.55,18.05-481.56C431.85,361.6,589.32,423.13,816.92,396.64c160.58-18.69,194.07-133.93,320.81-234.29
		c459.5-363.84,839.89-35.43,1076.27,200.28c177.16,176.65,340.05-100.6,602.16,259.68c161.12,221.46,9.1,340.59-2.84,489.23
		c-12.88,160.39,154.94,237.78,176.07,341.68c37.62,184.99-36.92,307.4-36.92,307.4L130.45,1763.98z"/>
	<g>
		<path class="st2" d="M2108.14,1367.66c-15.04,40.39-59.98,60.93-100.36,45.89c-40.39-15.05-60.93-59.98-45.89-100.36
			c15.04-40.38,59.98-60.93,100.36-45.88C2102.64,1282.34,2123.19,1327.28,2108.14,1367.66z"/>
		<g>
			<path class="st1" d="M2009.24,1395.29l5.19-13.93c-7.95-3.12-15.3-8.68-18.84-13.93l6.75-8.01c3.73,5.16,9.93,10.45,17.65,13.33
				c9.79,3.65,18.52,0.46,21.44-7.4c2.83-7.58-0.81-14.28-9.47-22.21c-12.01-10.76-18.34-20.34-13.87-32.33
				c4.26-11.45,15.64-17.1,29.09-14.45l5.19-13.93l8.55,3.19l-4.98,13.38c8.17,3.36,13,7.67,16.13,11.5l-6.84,7.82
				c-2.28-2.73-6.8-7.87-15.63-11.16c-10.62-3.96-16.98,0.9-19.04,6.41c-2.67,7.17,1.1,12.66,11.24,22.09
				c12.05,11.08,16.55,20.92,11.97,33.2c-4.06,10.89-15.44,18.27-30.52,15.33l-5.34,14.34L2009.24,1395.29z"/>
		</g>
	</g>
	<path class="st3" d="M2938.36,1805.26H72.9c-17.2,0-31.15-13.95-31.15-31.15l0,0c0-17.2,13.95-31.15,31.15-31.15h2865.46
		c17.2,0,31.15,13.95,31.15,31.15l0,0C2969.51,1791.32,2955.57,1805.26,2938.36,1805.26z"/>
	<g>
		<g>
			<path d="M269.42,717.54c51.12-14.43,160.31,31.78,130.59,217.72c-29.71,185.94-170.48,155.27-170.48,155.27
				s-61.35-19.29-66.86-137.42C157.15,834.99,183.44,741.8,269.42,717.54z"/>
			<path class="st4" d="M295.1,966.11c0,0,67.32,52.18,167.73,48.96c20.25-38.82-21.02-58.14-21.02-58.14l-80.32-36.39
				c0,0-28.9-9.5-52.75,9.27C287.98,946.16,295.1,966.11,295.1,966.11z"/>
			<path class="st5" d="M365.98,863.12c0,0,25.75,60.75,40.62,96.93c5.9,14.36,28.26,55.85,56.23,55.02
				c24.84-26.76-8.69-101.92-84.13-164.02C369.79,860.48,365.98,863.12,365.98,863.12z"/>
			<g>
				<path class="st6" d="M369.6,889.32l24.83-12.2c3.37-1.65,4.76-5.73,3.1-9.1l-26.09-53.12c-1.65-3.37-8.09-5.56-11.46-3.91
					l-22.47,13c-3.37,1.65-4.76,5.73-3.1,9.1l22.25,54C357.71,889.64,363.5,892.41,369.6,889.32z"/>
				<path class="st7" d="M364.53,888.97l24.83-12.2c3.37-1.65,4.76-5.73,3.1-9.09l-26.09-53.12c-1.65-3.37-5.73-4.76-9.09-3.1
					l-24.83,12.19c-3.37,1.66-4.76,5.73-3.1,9.1l26.09,53.12C357.09,889.24,361.16,890.63,364.53,888.97z"/>
				<path class="st8" d="M361.46,878.25l21.06-10.34c2.77-1.36,3.91-4.71,2.55-7.48l-20.93-42.61c-1.36-2.77-4.71-3.91-7.49-2.55
					L335.6,825.6c-2.77,1.36-3.92,4.71-2.55,7.48l20.93,42.61C355.33,878.47,358.69,879.61,361.46,878.25z"/>
				<path class="st6" d="M371.17,878.57c0.4,1.83,2.2,2.99,4.03,2.59c1.83-0.4,2.99-2.2,2.59-4.03c-0.4-1.83-2.2-2.99-4.03-2.6
					C371.93,874.94,370.77,876.74,371.17,878.57z"/>
				<path id="c_22_" class="st5" d="M392.57,852.67c-0.49-0.29-1.01-0.46-1.54-0.58c0.05-0.08,0.11-0.16,0.16-0.24
					c2.9-4.89,2.4-10.53-1.1-12.61c-0.58-0.34-1.2-0.55-1.85-0.67c0.71-3.55-0.25-6.85-2.76-8.33c-0.99-0.59-2.13-0.82-3.3-0.74
					c0.93-3.5-0.13-7.07-2.93-8.72c-3.51-2.08-8.35-0.38-10.83,3.79c-2.47,4.17-1.64,9.24,1.87,11.31c0.89,0.53,1.86,0.81,2.86,0.87
					c-2.04,4.52-1.34,9.31,1.83,11.19c0.58,0.34,1.2,0.55,1.85,0.67c-0.71,3.55,0.25,6.85,2.76,8.33c0.92,0.55,1.96,0.78,3.05,0.76
					c-0.97,3.07-0.09,6.27,2.37,7.73c2.96,1.75,7.06,0.32,9.14-3.2C396.24,858.7,395.53,854.42,392.57,852.67z"/>
			</g>
			<g>
				<g>
					<g>
						<path class="st5" d="M313.82,886.42l-38.11-5.71l3.04,35.37c0,0,19.3,34.77,37.61,28.79c18.31-5.99,9.38-21.35,9.38-21.35
							L313.82,886.42z"/>
					</g>
				</g>
			</g>
			<g>
				<path class="st5" d="M245.23,829.04c6.19,41.79,37.82,71.72,70.64,66.86c32.82-4.86,54.41-42.68,48.21-84.47
					c-6.19-41.79-37.82-71.72-70.64-66.86C260.62,749.43,239.04,787.25,245.23,829.04z"/>
				<g>
					<path d="M280.9,817.77c0.46-0.13,0.87-0.42,1.16-0.84c4.25-6.11,12.81-5.94,12.9-5.93c1.2,0.03,2.2-0.91,2.24-2.1
						c0.04-1.2-0.9-2.2-2.09-2.24c-0.45-0.02-10.98-0.28-16.61,7.79c-0.69,0.98-0.44,2.34,0.54,3.02
						C279.6,817.86,280.29,817.95,280.9,817.77z"/>
				</g>
				<g>
					<path d="M354.1,816.55c0.22-0.08,0.42-0.21,0.61-0.37c0.91-0.78,1.03-2.15,0.25-3.06c-6.03-7.1-14.4-5.12-14.75-5.03
						c-1.16,0.29-1.87,1.47-1.58,2.63c0.29,1.16,1.46,1.87,2.62,1.59c0.28-0.07,6.16-1.38,10.4,3.62
						C352.27,816.66,353.26,816.88,354.1,816.55z"/>
				</g>
				<path class="st9" d="M323.8,834.24c2.73,3.36,5.09,6.77,7.79,8.83c0.91,0.7,1.11,2.01,0.46,2.95c-2.68,3.9-9.74,6.69-14.05,8.09
					c-0.63,0.2-1.06-0.63-0.52-1.02c4.51-3.3,6.55-5.85,7.43-7.27c0.44-0.71,0.51-1.57,0.2-2.34c-0.71-1.77-2.11-5.38-3.02-8.35
					C321.78,834.11,323.12,833.41,323.8,834.24z"/>
				<path class="st2" d="M296.29,865.8c-0.83-1.28,0.25-2.93,1.75-2.66c3.82,0.69,10.14,1.7,16.21,2.06
					c6.07,0.36,12.47,0.12,16.34-0.11c1.52-0.09,2.4,1.68,1.42,2.85c-3.02,3.6-9.13,8.96-18.43,8.41
					C304.28,875.8,298.86,869.74,296.29,865.8z"/>
				<path d="M231.87,825.21c38.82-1.76,89.87-37.58,96.04-57.26c-5.3-24.75-24.81-38.74-48.12-29.54
					C256.48,747.61,218.29,793.46,231.87,825.21z"/>
				<path d="M319.05,777.9c0,0,23.1,23.48,46.49,28.84c-8.19-27.39-14.04-48.15-28.07-54.87c-14.04-6.72-29.53-7.9-29.53-7.9
					L319.05,777.9z"/>
				<g>
					<path class="st5" d="M254.3,822.55c7.27,6.76,8.68,17.07,3.15,23.03c-5.54,5.95-15.92,5.29-23.2-1.47
						c-7.27-6.76-8.68-17.07-3.15-23.03C236.64,815.13,247.03,815.78,254.3,822.55z"/>
					<g>
						<path class="st9" d="M248.03,842.88c0.3-0.12,0.59-0.31,0.82-0.57c3.35-3.73,4.03-8.18,1.81-11.93
							c-2.27-3.83-6.93-5.9-11.08-4.93c-1.17,0.28-1.89,1.44-1.62,2.61c0.28,1.17,1.44,1.89,2.61,1.62
							c2.27-0.53,5.06,0.74,6.34,2.91c1.23,2.08,0.77,4.5-1.3,6.81c-0.8,0.89-0.73,2.26,0.16,3.07
							C246.41,843.04,247.29,843.17,248.03,842.88z"/>
					</g>
				</g>
				<path d="M285.07,824.16c0,3.68,2.99,6.67,6.67,6.67c3.68,0,6.67-2.99,6.67-6.67c0-3.68-2.99-6.67-6.67-6.67
					C288.06,817.49,285.07,820.47,285.07,824.16z"/>
				<circle cx="340.35" cy="824.16" r="6.67"/>
			</g>
			<g>
				<path class="st5" d="M349.49,1687.31c-2.55-25.45,10.58-219.13,10.58-219.13c37.13-170.27,22.55-292.15,22.55-292.15
					l-63.82,4.48l-25.15,96.22l11.93,160.69c0,0-4.48,12.37-6.84,22.26c-12.81,53.64-0.05,117.74,7.84,160.46
					c3.66,19.8,9.34,61.41,9.49,70.87l-16.03,20.73c0,0,58.03,64.22,66.96,64.63c17.35,0.78,12.24-16.4,12.24-16.4
					C355.37,1735.47,350.22,1694.6,349.49,1687.31z"/>
				<path class="st7" d="M299.04,1734.5l3.19,41.26l7.42,0.34l3.75-38.32c19.74,5.04,33.88,40.86,33.88,40.86
					c13.6,4.88,48.16,8.22,60.46,1.88c2.97-12.06-28.57-20.51-28.57-20.51c-2.85,3.37-19.69,5.96-25.66,2.35
					c-22.02-18.75-32.75-46-37.44-71.35C316.06,1691.01,281.27,1693.44,299.04,1734.5z"/>
			</g>
			<g>
				<path class="st5" d="M327.91,1188.42L238,1176.03c-34.39,77.82-45.61,213.31-54.94,261.57
					c-37.48,62.84-49.38,253.41-49.38,253.41l-16.03,20.73c0,0,58.03,64.22,66.96,64.63c17.35,0.78,12.24-16.4,12.24-16.4
					c-23.85-24.49-28.5-57.03-30.05-64.2c-2.32-10.76,72.78-222.17,72.78-222.17l8.02-20.06
					c91.72-151.5,106.77-266.03,106.77-266.03L327.91,1188.42z"/>
				<path class="st7" d="M116.65,1734.5l3.19,41.26l7.42,0.34l3.75-38.32c19.74,5.04,33.88,40.86,33.88,40.86
					c13.6,4.88,48.16,8.22,60.46,1.88c2.97-12.06-28.57-20.51-28.57-20.51c-2.85,3.37-19.69,5.96-25.67,2.35
					c-22.02-18.75-32.75-46-37.44-71.35C133.67,1691.01,98.89,1693.44,116.65,1734.5z"/>
			</g>
			<g>
				<g>
					<g>
						<g>
							<path class="st10" d="M160.75,1428.76c8.98-30.04,5.07-245.08,84.34-303.55l136.41,14.37
								c31.52,51.02,19.96,183.79,9.34,293.06C326.71,1455.53,275.71,1464.72,160.75,1428.76z"/>
						</g>
					</g>
				</g>
			</g>
			<g>
				<g>
					<g>
						<path class="st11" d="M383.16,1105.93c0-29.87,25.89-74.63,13.48-104.78c-9.04-24.26-26.8-78.99-46.15-82.68
							c-7.85-1.5-16.47,0.01-27.34-3c0,0,5.68,25.33-7.1,26.36c-24.6,1.97-37.53-29.56-37.53-29.56
							c-13.26-1.27-59.52,12.54-59.49,17.53c0.14,39.13,17.35,102.41,27.75,144.72c1.93,21.54,0.4,38.25-1.75,50.44
							c-3.94,12.71-8.75,19.98-8.78,22.73c0,0,91.19,30.98,149.2-0.96C385.44,1146.72,383.16,1126.1,383.16,1105.93z"/>
					</g>
				</g>
			</g>
			<g id="c_2_">
				<path class="st5" d="M220.93,1134.32l7.77,3.11c0,0,8.1-12.88,16.32-12.47l-4.09,12.31c0,0,4.65,14.38,29.53,12.74
					c21.26,4.83,6.39,14.93,12.27,18.96c8.68,5.96-15.67,20.59-36.19,14.28c-26.55-8.16-43.8-33.24-43.8-33.24L220.93,1134.32z"/>
			</g>
			<path class="st5" d="M220.93,927.45c0,0-64.97,38.06-96.43,129.28c28.25,31.32,52.06,7.95,52.06,7.95l62.94-62.2
				c0,0,18.5-22.73,9.66-50.49C241.45,927.81,220.93,927.45,220.93,927.45z"/>
			<path class="st5" d="M220.93,1134.32l-45.42-66.52c0,0-10.73-25.52-51.01-11.06c-1.95,21.65,13.73,52.5,85.57,100.01
				C214.71,1144.62,220.93,1134.32,220.93,1134.32z"/>
			<path class="st2" d="M316.05,941.83c2.19,10.23-3.75,22.5-20.9,16.75c-20.53-6.89-30.13-45.43-30.13-45.43l12.88-6.98
				C277.9,906.17,287.67,932.79,316.05,941.83z"/>
			<path class="st2" d="M316.05,941.83c2.53,5.27,16.98,18.79,23.82,10.74c6.84-8.05-1.15-29.18-1.15-29.18l-15.57-7.91
				C323.15,915.47,329.25,934.5,316.05,941.83z"/>
			<path class="st4" d="M220.93,927.45c0,0-64.97,38.06-96.43,129.28c28.25,31.32,54.51,5.53,54.51,5.53l60.49-59.77
				c0,0,18.5-22.73,9.66-50.49C241.45,927.81,220.93,927.45,220.93,927.45z"/>
		</g>
	</g>
	<g>
		<g>
			
				<ellipse transform="matrix(0.2881 -0.9576 0.9576 0.2881 657.1034 1442.8636)" class="st12" cx="1298.96" cy="279.49" rx="117.11" ry="117.11"/>
			<path class="st13" d="M1387.08,318.08c-21.31,48.67-78.04,70.84-126.71,49.53c-5.08-2.22-9.87-4.83-14.36-7.79
				c-7.59-4.98-14.29-10.93-20.02-17.61c-2.17-2.53-4.2-5.17-6.09-7.89c-13.83-19.99-19.85-44.86-16.04-69.49
				c1.24-8.06,3.55-16.1,6.98-23.93c15.89-36.29,51.48-57.86,88.74-57.64c12.7,0.08,25.6,2.68,37.97,8.1
				c10.71,4.69,20.14,11.09,28.1,18.76c2.41,2.31,4.68,4.73,6.81,7.27c5.79,6.86,10.56,14.47,14.2,22.57
				C1397.44,263.91,1398.44,292.14,1387.08,318.08z"/>
		</g>
		<g>
			<path class="st12" d="M1189.06,798.25c-30.91,70.59-113.19,102.76-183.78,71.85c-70.59-30.91-102.76-113.19-71.85-183.78
				c30.91-70.59,113.19-102.76,183.78-71.85C1187.8,645.38,1219.97,727.66,1189.06,798.25z"/>
			<path class="st13" d="M1166.24,788.26c-25.39,57.98-92.97,84.4-150.96,59.01c-6.05-2.65-11.76-5.76-17.1-9.28
				c-9.04-5.94-17.03-13.02-23.86-20.98c-2.59-3.02-5.01-6.16-7.26-9.4c-16.48-23.81-23.65-53.45-19.11-82.79
				c1.48-9.61,4.23-19.18,8.31-28.51c18.93-43.24,61.34-68.93,105.72-68.67c15.13,0.09,30.49,3.2,45.24,9.65
				c12.76,5.59,24,13.22,33.48,22.35c2.87,2.75,5.58,5.64,8.12,8.66c6.9,8.17,12.58,17.24,16.92,26.9
				C1178.58,723.72,1179.77,757.36,1166.24,788.26z"/>
		</g>
		<g>
			
				<ellipse transform="matrix(0.7071 -0.7071 0.7071 0.7071 6.3612 1682.4734)" class="st12" cx="2034.11" cy="833.56" rx="139.53" ry="139.53"/>
			<path class="st13" d="M2139.09,879.53c-25.39,57.98-92.97,84.4-150.96,59.01c-6.05-2.65-11.77-5.76-17.1-9.28
				c-9.04-5.94-17.03-13.02-23.86-20.98c-2.58-3.02-5.01-6.16-7.26-9.4c-16.48-23.81-23.65-53.45-19.11-82.79
				c1.48-9.61,4.23-19.18,8.31-28.51c18.93-43.24,61.34-68.93,105.72-68.67c15.13,0.09,30.49,3.2,45.24,9.65
				c12.76,5.59,24,13.22,33.48,22.35c2.87,2.75,5.58,5.64,8.12,8.66c6.9,8.17,12.58,17.24,16.92,26.9
				C2151.44,814.99,2152.63,848.63,2139.09,879.53z"/>
			<path class="st2" d="M2021.77,952.09c-12.39-2.58-14.81-1.57-21.55,8.97c2.64-12.23,1.64-14.65-8.97-21.55
				c12.39,2.58,14.81,1.57,21.55-8.97C2010.22,942.93,2011.23,945.34,2021.77,952.09z"/>
		</g>
		<g>
			<polygon class="st14" points="1773.28,526.15 1694.12,737.32 1445.2,1401.4 1419.43,1470.15 1345.06,1442.62 932.42,1289.87 
				1123.37,781.93 1220.59,523.33 1221.71,520.29 1497.24,423.97 			"/>
			<path class="st15" d="M1406.01,483.43l186.82,69.16c-16.76,45.27,6.36,95.56,51.63,112.33l-232.42,616.05
				c-45.28-16.76-95.58,6.36-112.35,51.64l-186.82-69.17c16.75-45.28-6.36-95.56-51.63-112.33l232.42-616.04
				C1338.95,551.82,1389.25,528.71,1406.01,483.43z"/>
			
				<ellipse transform="matrix(0.7071 -0.7071 0.7071 0.7071 -225.9371 1218.1814)" class="st14" cx="1357.51" cy="881.82" rx="145.12" ry="145.12"/>
			<polygon class="st14" points="1497.24,423.97 1387.6,622.31 1220.59,523.33 1217.77,521.66 1221.71,520.29 			"/>
			<g>
				<polygon class="st16" points="1196.07,589.56 1387.6,622.31 1220.59,523.33 				"/>
				<polygon class="st16" points="1497.24,423.97 1387.6,622.31 1515.55,430.75 				"/>
			</g>
			<path class="st16" d="M1694.12,737.32L1445.2,1401.4l-100.14,41.22l-412.64-152.75l190.95-507.95h88.53
				c33.45,0,61.9,51.78,72.5,124.08L1694.12,737.32z"/>
		</g>
		<g>
			
				<rect x="845.26" y="888.79" transform="matrix(0.9247 -0.3807 0.3807 0.9247 -327.9064 639.0966)" class="st14" width="1212.63" height="519.3"/>
			<path class="st15" d="M1893.46,858.79l75.84,184.21c-44.64,18.38-65.93,69.47-47.56,114.11l-797.94,328.53
				c-18.38-44.65-69.48-65.94-114.13-47.56l-75.83-184.21c44.64-18.39,65.93-69.47,47.56-114.11l797.94-328.53
				C1797.72,855.88,1848.82,877.18,1893.46,858.79z"/>
			<path class="st14" d="M1578.31,1085.38c30.51,74.11-4.83,158.93-78.95,189.44c-74.11,30.51-158.93-4.83-189.44-78.95
				c-30.51-74.11,4.83-158.93,78.95-189.44C1462.98,975.92,1547.8,1011.27,1578.31,1085.38z"/>
		</g>
		<g>
			<path class="st14" d="M1267.75,1006.01v511.53h-519.3v-511.53h365.45c0.37-102.29,34.66-184.94,76.92-184.94
				C1233.08,821.07,1267.37,903.72,1267.75,1006.01L1267.75,1006.01z"/>
			<rect x="825.41" y="821.8" class="st15" width="365.38" height="575"/>
			<circle class="st14" cx="1008.1" cy="1142.41" r="129.63"/>
			<path class="st16" d="M1267.75,1006.01v52.4h-519.3V821.07h442.37C1233.08,821.07,1267.37,903.72,1267.75,1006.01
				L1267.75,1006.01z"/>
			<path class="st14" d="M1190.82,821.07c-42.26,0-76.55,82.65-76.92,184.94H594.59l0.01-0.02
				c0.37-102.28,34.67-184.92,76.92-184.92H1190.82z"/>
			<path class="st15" d="M1097.11,821.07c-18.69,0-35.12,16.94-44.6,42.56c-28.65,0.71-51.64,22.73-51.64,49.78v0.13H738.31v-0.13
				c0-24.85-19.39-45.44-44.74-49.19c9.44-25.95,25.99-43.15,44.82-43.15H1097.11z"/>
		</g>
		<polygon class="st16" points="748.45,1224.62 748.45,1200.28 2008.81,1200.28 1944.31,1226.05 		"/>
		<g>
			
				<ellipse transform="matrix(0.7071 -0.7071 0.7071 0.7071 -1004.1659 654.0955)" class="st12" cx="287.48" cy="1539.18" rx="231.36" ry="231.36"/>
			<path class="st13" d="M444.49,1646.26c-59.13,86.71-177.36,109.06-264.07,49.93c-9.05-6.17-17.41-12.99-25.03-20.36
				c-12.92-12.44-23.76-26.44-32.45-41.49c-3.29-5.71-6.27-11.57-8.95-17.55c-19.57-43.85-22.17-94.35-5.79-140.76
				c5.35-15.2,12.76-29.96,22.28-43.92c44.1-64.67,121.07-93.55,193.32-79.53c24.62,4.78,48.71,14.55,70.76,29.59
				c19.08,13.01,35.06,28.89,47.71,46.67c3.83,5.36,7.36,10.9,10.58,16.59c8.74,15.43,15.22,31.95,19.33,49.01
				C484.38,1544.86,476.01,1600.04,444.49,1646.26z"/>
			<path class="st17" d="M442.26,1428.85L113.98,1616.8c-19.57-43.85-22.17-94.35-5.79-140.76l215.6-123.44
				c24.62,4.78,48.71,14.55,70.76,29.59C413.63,1395.19,429.61,1411.06,442.26,1428.85z"/>
			<path class="st17" d="M472.17,1494.45l-316.79,181.38c-12.92-12.44-23.76-26.44-32.45-41.49l329.91-188.91
				C461.58,1460.87,468.06,1477.39,472.17,1494.45z"/>
			<path class="st2" d="M235.54,1331.92c-20.86,17.35-22.39,22.74-13.71,48.11c-16.99-20.76-22.38-22.29-48.12-13.71
				c20.86-17.35,22.39-22.74,13.71-48.12C204.78,1339.07,210.16,1340.61,235.54,1331.92z"/>
		</g>
		<g>
			<path class="st12" d="M1959.02,1226.71c-35.16,80.31-128.78,116.91-209.08,81.74c-80.31-35.17-116.91-128.78-81.74-209.09
				c35.16-80.31,128.78-116.91,209.08-81.74C1957.59,1052.79,1994.18,1146.4,1959.02,1226.71z"/>
			<path class="st13" d="M1933.05,1215.34c-28.88,65.97-105.78,96.02-171.74,67.14c-6.89-3.02-13.38-6.55-19.46-10.55
				c-10.29-6.75-19.37-14.82-27.14-23.86c-2.94-3.43-5.7-7-8.26-10.7c-18.75-27.09-26.9-60.81-21.75-94.19
				c1.69-10.93,4.81-21.82,9.46-32.44c21.54-49.19,69.78-78.43,120.28-78.13c17.21,0.1,34.69,3.64,51.47,10.98
				c14.52,6.36,27.3,15.04,38.09,25.42c3.26,3.13,6.34,6.42,9.24,9.85c7.85,9.3,14.31,19.62,19.25,30.6
				C1947.1,1141.91,1948.45,1180.18,1933.05,1215.34z"/>
			<path class="st17" d="M1904,1069.02l-197.55,168.35c-18.75-27.09-26.9-60.81-21.75-94.19l129.74-110.56
				c17.21,0.1,34.69,3.64,51.47,10.98C1880.43,1049.95,1893.21,1058.63,1904,1069.02z"/>
			<path class="st17" d="M1932.48,1109.47l-190.63,162.46c-10.29-6.75-19.37-14.82-27.14-23.86l198.53-169.19
				C1921.08,1088.17,1927.54,1098.48,1932.48,1109.47z"/>
			<path class="st2" d="M1752.31,1029.85c-11.87,14.34-12.22,18.17-3.14,34.18c-14.09-11.84-17.91-12.19-34.18-3.14
				c11.87-14.34,12.22-18.17,3.14-34.18C1732.48,1038.58,1736.3,1038.93,1752.31,1029.85z"/>
		</g>
		<path class="st18" d="M1962.39,1766.64H669.66c-25.89,0-46.87-20.99-46.87-46.87V1271.5c0-25.89,20.99-46.87,46.87-46.87h1292.74
			c25.89,0,46.87,20.99,46.87,46.87v448.27C2009.26,1745.65,1988.28,1766.64,1962.39,1766.64z"/>
		<rect x="1283.86" y="1224.62" class="st19" width="64.34" height="542.36"/>
		<g>
			<g>
				<g>
					<path class="st20" d="M1928.69,1737.25h-35.14c-2.89,0-5.24-2.35-5.24-5.24c0-2.89,2.35-5.24,5.24-5.24h35.14
						c2.89,0,5.24,2.35,5.24,5.24C1933.93,1734.91,1931.58,1737.25,1928.69,1737.25z M1858.6,1737.25h-34.95
						c-2.89,0-5.24-2.35-5.24-5.24c0-2.89,2.35-5.24,5.24-5.24h34.95c2.89,0,5.24,2.35,5.24,5.24
						C1863.84,1734.91,1861.5,1737.25,1858.6,1737.25z M1788.7,1737.25h-34.95c-2.89,0-5.24-2.35-5.24-5.24
						c0-2.89,2.35-5.24,5.24-5.24h34.95c2.89,0,5.24,2.35,5.24,5.24C1793.94,1734.91,1791.59,1737.25,1788.7,1737.25z
						 M1718.79,1737.25h-34.95c-2.89,0-5.24-2.35-5.24-5.24c0-2.89,2.35-5.24,5.24-5.24h34.95c2.89,0,5.24,2.35,5.24,5.24
						C1724.04,1734.91,1721.69,1737.25,1718.79,1737.25z M1648.89,1737.25h-34.95c-2.89,0-5.24-2.35-5.24-5.24
						c0-2.89,2.35-5.24,5.24-5.24h34.95c2.89,0,5.24,2.35,5.24,5.24C1654.13,1734.91,1651.79,1737.25,1648.89,1737.25z
						 M1578.99,1737.25h-34.95c-2.89,0-5.24-2.35-5.24-5.24c0-2.89,2.35-5.24,5.24-5.24h34.95c2.89,0,5.24,2.35,5.24,5.24
						C1584.23,1734.91,1581.88,1737.25,1578.99,1737.25z M1509.09,1737.25h-34.95c-2.89,0-5.24-2.35-5.24-5.24
						c0-2.89,2.35-5.24,5.24-5.24h34.95c2.89,0,5.24,2.35,5.24,5.24C1514.33,1734.91,1511.98,1737.25,1509.09,1737.25z
						 M1439.18,1737.25h-34.95c-2.89,0-5.24-2.35-5.24-5.24c0-2.89,2.35-5.24,5.24-5.24h34.95c2.89,0,5.24,2.35,5.24,5.24
						C1444.42,1734.91,1442.08,1737.25,1439.18,1737.25z M1369.28,1737.25h-34.95c-2.89,0-5.24-2.35-5.24-5.24
						c0-2.89,2.35-5.24,5.24-5.24h34.95c2.89,0,5.24,2.35,5.24,5.24C1374.52,1734.91,1372.17,1737.25,1369.28,1737.25z
						 M1299.38,1737.25h-34.95c-2.89,0-5.24-2.35-5.24-5.24c0-2.89,2.35-5.24,5.24-5.24h34.95c2.89,0,5.24,2.35,5.24,5.24
						C1304.62,1734.91,1302.27,1737.25,1299.38,1737.25z M1229.47,1737.25h-34.95c-2.89,0-5.24-2.35-5.24-5.24
						c0-2.89,2.35-5.24,5.24-5.24h34.95c2.89,0,5.24,2.35,5.24,5.24C1234.72,1734.91,1232.37,1737.25,1229.47,1737.25z
						 M1159.57,1737.25h-34.95c-2.89,0-5.24-2.35-5.24-5.24c0-2.89,2.35-5.24,5.24-5.24h34.95c2.89,0,5.24,2.35,5.24,5.24
						C1164.81,1734.91,1162.47,1737.25,1159.57,1737.25z M1089.67,1737.25h-34.95c-2.89,0-5.24-2.35-5.24-5.24
						c0-2.89,2.35-5.24,5.24-5.24h34.95c2.89,0,5.24,2.35,5.24,5.24C1094.91,1734.91,1092.56,1737.25,1089.67,1737.25z
						 M1019.77,1737.25h-34.95c-2.9,0-5.24-2.35-5.24-5.24c0-2.89,2.35-5.24,5.24-5.24h34.95c2.89,0,5.24,2.35,5.24,5.24
						C1025.01,1734.91,1022.66,1737.25,1019.77,1737.25z M949.86,1737.25h-34.95c-2.89,0-5.24-2.35-5.24-5.24
						c0-2.89,2.35-5.24,5.24-5.24h34.95c2.89,0,5.24,2.35,5.24,5.24C955.1,1734.91,952.76,1737.25,949.86,1737.25z M879.96,1737.25
						h-34.95c-2.89,0-5.24-2.35-5.24-5.24c0-2.89,2.35-5.24,5.24-5.24h34.95c2.89,0,5.24,2.35,5.24,5.24
						C885.2,1734.91,882.85,1737.25,879.96,1737.25z M810.06,1737.25h-34.95c-2.89,0-5.24-2.35-5.24-5.24
						c0-2.89,2.35-5.24,5.24-5.24h34.95c2.89,0,5.24,2.35,5.24,5.24C815.3,1734.91,812.95,1737.25,810.06,1737.25z M740.15,1737.25
						H705.2c-2.89,0-5.24-2.35-5.24-5.24c0-2.89,2.35-5.24,5.24-5.24h34.95c2.9,0,5.24,2.35,5.24,5.24
						C745.4,1734.91,743.05,1737.25,740.15,1737.25z M673.39,1725.18c-1.3,0-2.6-0.48-3.62-1.45c-9.65-9.21-15.04-21.62-15.17-34.94
						c-0.03-2.89,2.3-5.26,5.19-5.29c0.02,0,0.03,0,0.05,0c2.87,0,5.21,2.31,5.24,5.19c0.1,10.47,4.33,20.22,11.92,27.46
						c2.1,2,2.17,5.32,0.18,7.41C676.15,1724.64,674.77,1725.18,673.39,1725.18z M1959.96,1723.88c-1.31,0-2.62-0.49-3.64-1.47
						c-2.08-2.01-2.14-5.33-0.13-7.41c6.94-7.2,10.77-16.68,10.77-26.69v-1.42c0-2.89,2.35-5.24,5.24-5.24
						c2.89,0,5.24,2.35,5.24,5.24v1.42c0,12.74-4.87,24.8-13.71,33.97C1962.71,1723.35,1961.34,1723.88,1959.96,1723.88z
						 M659.84,1659.03c-2.89,0-5.24-2.35-5.24-5.24v-34.95c0-2.9,2.35-5.24,5.24-5.24c2.89,0,5.24,2.35,5.24,5.24v34.95
						C665.09,1656.68,662.74,1659.03,659.84,1659.03z M1972.2,1657.19c-2.89,0-5.24-2.35-5.24-5.24v-34.95
						c0-2.89,2.35-5.24,5.24-5.24c2.89,0,5.24,2.35,5.24,5.24v34.95C1977.45,1654.84,1975.1,1657.19,1972.2,1657.19z
						 M659.84,1589.13c-2.89,0-5.24-2.35-5.24-5.24v-34.95c0-2.89,2.35-5.24,5.24-5.24c2.89,0,5.24,2.35,5.24,5.24v34.95
						C665.09,1586.78,662.74,1589.13,659.84,1589.13z M1972.2,1587.28c-2.89,0-5.24-2.35-5.24-5.24v-34.95
						c0-2.89,2.35-5.24,5.24-5.24c2.89,0,5.24,2.35,5.24,5.24v34.95C1977.45,1584.94,1975.1,1587.28,1972.2,1587.28z
						 M659.84,1519.22c-2.89,0-5.24-2.35-5.24-5.24v-34.95c0-2.89,2.35-5.24,5.24-5.24c2.89,0,5.24,2.35,5.24,5.24v34.95
						C665.09,1516.88,662.74,1519.22,659.84,1519.22z M1972.2,1517.38c-2.89,0-5.24-2.35-5.24-5.24v-34.95
						c0-2.9,2.35-5.24,5.24-5.24c2.89,0,5.24,2.35,5.24,5.24v34.95C1977.45,1515.03,1975.1,1517.38,1972.2,1517.38z M659.84,1449.32
						c-2.89,0-5.24-2.35-5.24-5.24v-34.95c0-2.89,2.35-5.24,5.24-5.24c2.89,0,5.24,2.35,5.24,5.24v34.95
						C665.09,1446.97,662.74,1449.32,659.84,1449.32z M1972.2,1447.48c-2.89,0-5.24-2.35-5.24-5.24v-34.95
						c0-2.89,2.35-5.24,5.24-5.24c2.89,0,5.24,2.35,5.24,5.24v34.95C1977.45,1445.13,1975.1,1447.48,1972.2,1447.48z
						 M659.84,1379.42c-2.89,0-5.24-2.35-5.24-5.24v-34.95c0-2.89,2.35-5.24,5.24-5.24c2.89,0,5.24,2.35,5.24,5.24v34.95
						C665.09,1377.07,662.74,1379.42,659.84,1379.42z M1972.2,1377.57c-2.89,0-5.24-2.35-5.24-5.24v-34.95
						c0-2.89,2.35-5.24,5.24-5.24c2.89,0,5.24,2.35,5.24,5.24v34.95C1977.45,1375.23,1975.1,1377.57,1972.2,1377.57z
						 M659.84,1309.52c-2.89,0-5.24-2.35-5.24-5.24v-1.32c0-12.78,4.89-24.87,13.78-34.04c2.01-2.08,5.33-2.13,7.41-0.12
						c2.08,2.01,2.13,5.33,0.12,7.41c-6.98,7.21-10.83,16.71-10.83,26.75v1.32C665.09,1307.17,662.74,1309.52,659.84,1309.52z
						 M1972.2,1307.67c-2.87,0-5.21-2.31-5.24-5.18c-0.12-10.47-4.38-20.21-11.98-27.43c-2.1-1.99-2.19-5.31-0.19-7.41
						c1.99-2.1,5.31-2.18,7.41-0.19c9.67,9.19,15.09,21.58,15.24,34.91c0.03,2.89-2.29,5.27-5.18,5.3
						C1972.24,1307.67,1972.22,1307.67,1972.2,1307.67z M1926.75,1264.49h-34.95c-2.89,0-5.24-2.35-5.24-5.24
						c0-2.89,2.35-5.24,5.24-5.24h34.95c2.89,0,5.24,2.35,5.24,5.24C1931.99,1262.14,1929.65,1264.49,1926.75,1264.49z
						 M1856.85,1264.49h-34.95c-2.89,0-5.24-2.35-5.24-5.24c0-2.89,2.35-5.24,5.24-5.24h34.95c2.89,0,5.24,2.35,5.24,5.24
						C1862.09,1262.14,1859.74,1264.49,1856.85,1264.49z M1786.95,1264.49H1752c-2.89,0-5.24-2.35-5.24-5.24
						c0-2.89,2.35-5.24,5.24-5.24h34.95c2.89,0,5.24,2.35,5.24,5.24C1792.19,1262.14,1789.84,1264.49,1786.95,1264.49z
						 M1717.04,1264.49h-34.95c-2.89,0-5.24-2.35-5.24-5.24c0-2.89,2.35-5.24,5.24-5.24h34.95c2.89,0,5.24,2.35,5.24,5.24
						C1722.29,1262.14,1719.94,1264.49,1717.04,1264.49z M1647.14,1264.49h-34.95c-2.89,0-5.24-2.35-5.24-5.24
						c0-2.89,2.35-5.24,5.24-5.24h34.95c2.89,0,5.24,2.35,5.24,5.24C1652.38,1262.14,1650.04,1264.49,1647.14,1264.49z
						 M1577.24,1264.49h-34.95c-2.89,0-5.24-2.35-5.24-5.24c0-2.89,2.35-5.24,5.24-5.24h34.95c2.89,0,5.24,2.35,5.24,5.24
						C1582.48,1262.14,1580.13,1264.49,1577.24,1264.49z M1507.34,1264.49h-34.95c-2.89,0-5.24-2.35-5.24-5.24
						c0-2.89,2.35-5.24,5.24-5.24h34.95c2.89,0,5.24,2.35,5.24,5.24C1512.58,1262.14,1510.23,1264.49,1507.34,1264.49z
						 M1437.43,1264.49h-34.95c-2.89,0-5.24-2.35-5.24-5.24c0-2.89,2.35-5.24,5.24-5.24h34.95c2.89,0,5.24,2.35,5.24,5.24
						C1442.68,1262.14,1440.33,1264.49,1437.43,1264.49z M1367.53,1264.49h-34.95c-2.89,0-5.24-2.35-5.24-5.24
						c0-2.89,2.35-5.24,5.24-5.24h34.95c2.89,0,5.24,2.35,5.24,5.24C1372.77,1262.14,1370.43,1264.49,1367.53,1264.49z
						 M1297.63,1264.49h-34.95c-2.89,0-5.24-2.35-5.24-5.24c0-2.89,2.35-5.24,5.24-5.24h34.95c2.89,0,5.24,2.35,5.24,5.24
						C1302.87,1262.14,1300.52,1264.49,1297.63,1264.49z M1227.72,1264.49h-34.95c-2.89,0-5.24-2.35-5.24-5.24
						c0-2.89,2.35-5.24,5.24-5.24h34.95c2.89,0,5.24,2.35,5.24,5.24C1232.97,1262.14,1230.62,1264.49,1227.72,1264.49z
						 M1157.82,1264.49h-34.95c-2.89,0-5.24-2.35-5.24-5.24c0-2.89,2.35-5.24,5.24-5.24h34.95c2.89,0,5.24,2.35,5.24,5.24
						C1163.06,1262.14,1160.72,1264.49,1157.82,1264.49z M1087.92,1264.49h-34.95c-2.89,0-5.24-2.35-5.24-5.24
						c0-2.89,2.35-5.24,5.24-5.24h34.95c2.89,0,5.24,2.35,5.24,5.24C1093.16,1262.14,1090.81,1264.49,1087.92,1264.49z
						 M1018.02,1264.49h-34.95c-2.89,0-5.24-2.35-5.24-5.24c0-2.89,2.35-5.24,5.24-5.24h34.95c2.89,0,5.24,2.35,5.24,5.24
						C1023.26,1262.14,1020.91,1264.49,1018.02,1264.49z M948.11,1264.49h-34.95c-2.89,0-5.24-2.35-5.24-5.24
						c0-2.89,2.35-5.24,5.24-5.24h34.95c2.89,0,5.24,2.35,5.24,5.24C953.35,1262.14,951.01,1264.49,948.11,1264.49z M878.21,1264.49
						h-34.95c-2.89,0-5.24-2.35-5.24-5.24c0-2.89,2.35-5.24,5.24-5.24h34.95c2.89,0,5.24,2.35,5.24,5.24
						C883.45,1262.14,881.1,1264.49,878.21,1264.49z M808.31,1264.49h-34.95c-2.89,0-5.24-2.35-5.24-5.24
						c0-2.89,2.35-5.24,5.24-5.24h34.95c2.89,0,5.24,2.35,5.24,5.24C813.55,1262.14,811.2,1264.49,808.31,1264.49z M738.4,1264.49
						h-34.86c-2.89,0-5.29-2.35-5.29-5.24c0-2.89,2.3-5.24,5.19-5.24h34.95c2.89,0,5.24,2.35,5.24,5.24
						C743.65,1262.14,741.3,1264.49,738.4,1264.49z"/>
				</g>
			</g>
		</g>
		<g>
			<path class="st20" d="M1885.68,1633.39h-469.6c-9.83,0-17.81-7.97-17.81-17.81v-247.18c0-9.83,7.97-17.81,17.81-17.81h469.6
				c9.83,0,17.81,7.97,17.81,17.81v247.18C1903.48,1625.42,1895.51,1633.39,1885.68,1633.39z"/>
			<g>
				<path class="st18" d="M1860.34,1419.65h-222.98c-2.74,0-4.96-2.22-4.96-4.96v-17.35c0-2.74,2.22-4.96,4.96-4.96h222.98
					c2.74,0,4.96,2.22,4.96,4.96v17.34C1865.3,1417.43,1863.08,1419.65,1860.34,1419.65z"/>
				<path class="st18" d="M1749,1530.96h-111.64c-2.74,0-4.96-2.22-4.96-4.96v-17.34c0-2.74,2.22-4.96,4.96-4.96H1749
					c2.74,0,4.96,2.22,4.96,4.96v17.35C1753.96,1528.73,1751.74,1530.96,1749,1530.96z"/>
				<path class="st18" d="M1860.34,1586.61h-222.98c-2.74,0-4.96-2.22-4.96-4.96v-17.34c0-2.74,2.22-4.96,4.96-4.96h222.98
					c2.74,0,4.96,2.22,4.96,4.96v17.34C1865.3,1584.39,1863.08,1586.61,1860.34,1586.61z"/>
				<path class="st18" d="M1808.65,1475.3h-171.29c-2.74,0-4.96-2.22-4.96-4.96V1453c0-2.74,2.22-4.96,4.96-4.96h171.29
					c2.74,0,4.96,2.22,4.96,4.96v17.34C1813.61,1473.08,1811.39,1475.3,1808.65,1475.3z"/>
			</g>
			<g>
				<rect x="1438.69" y="1392.38" class="st2" width="168.71" height="194.23"/>
				<path class="st18" d="M1607.4,1556.64v29.97h-168.71v-29.97c13.11-16.86,45.94-28.81,84.35-28.81
					C1561.46,1527.83,1594.28,1539.78,1607.4,1556.64z"/>
				<g>
					
						<ellipse transform="matrix(0.7071 -0.7071 0.7071 0.7071 -595.9143 1508.5652)" class="st21" cx="1523.04" cy="1473.61" rx="43.71" ry="43.71"/>
					<path class="st5" d="M1561.99,1481.58c0,0.72-0.02,1.42-0.05,2.13c-1.07,21.45-18.07,38.5-38.9,38.5
						c-20.78,0-37.76-16.98-38.88-38.36c-0.04-0.75-0.06-1.51-0.06-2.27c0-14.54,7.33-27.31,18.35-34.48
						c5.98-3.89,13.03-6.14,20.59-6.14c1.42,0,2.82,0.08,4.2,0.23C1546.77,1443.37,1561.99,1460.63,1561.99,1481.58z"/>
					<path class="st21" d="M1561.99,1479.9c0,0.68-0.02,1.36-0.05,2.04c-3.05,0.55-6.19,0.83-9.41,0.83
						c-15.16,0-28.84-6.38-38.47-16.61c-5.15-5.46-9.15-12.04-11.61-19.31c5.98-3.73,13.03-5.89,20.59-5.89
						c1.42,0,2.82,0.08,4.2,0.23C1546.77,1443.27,1561.99,1459.81,1561.99,1479.9z"/>
					<path class="st21" d="M1527.24,1441.18c-2.07,9.54-6.72,18.13-13.18,24.98c-7.79,8.26-18.2,14.01-29.9,15.92
						c-0.04-0.72-0.06-1.44-0.06-2.17c0-13.94,7.33-26.18,18.35-33.06c5.98-3.73,13.03-5.89,20.59-5.89
						C1524.46,1440.95,1525.87,1441.03,1527.24,1441.18z"/>
				</g>
			</g>
		</g>
		<g>
			<g>
				<g>
					<g>
						<path class="st13" d="M1205.52,1357.45v26.78h-452.4v-26.78c0-16.19,13.13-29.32,29.32-29.32h393.77
							C1192.39,1328.13,1205.52,1341.26,1205.52,1357.45z"/>
					</g>
				</g>
			</g>
			<g>
				<g>
					<rect x="717.91" y="1372.97" class="st19" width="533.18" height="11.26"/>
				</g>
			</g>
		</g>
		<g>
			<g>
				<g>
					<g>
						<path class="st7" d="M1205.52,1433.3v17.24h-452.4v-17.24c0-16.2,13.13-29.32,29.32-29.32h393.77
							C1192.39,1403.98,1205.52,1417.11,1205.52,1433.3z"/>
					</g>
				</g>
			</g>
			<g>
				<g>
					<rect x="717.91" y="1447.59" class="st19" width="533.18" height="11.26"/>
				</g>
			</g>
		</g>
		<g>
			<g>
				<g>
					<g>
						<path class="st22" d="M1205.52,1512.65v24.97h-452.4v-24.97c0-16.2,13.13-29.33,29.32-29.33h393.77
							C1192.39,1483.33,1205.52,1496.46,1205.52,1512.65z"/>
					</g>
				</g>
			</g>
			<g>
				<g>
					<rect x="717.91" y="1526.36" class="st19" width="533.18" height="11.26"/>
				</g>
			</g>
		</g>
		<g>
			<path class="st13" d="M769.21,1725.09v29.43c0,11.5-9.32,20.83-20.82,20.83H389.13c-11.5,0-20.82-9.33-20.82-20.83v-29.43
				c0-5.13,1.85-9.81,4.92-13.44c3.82-4.52,9.53-7.38,15.91-7.38h359.25c6.37,0,12.08,2.87,15.91,7.38
				C767.36,1715.28,769.21,1719.97,769.21,1725.09z"/>
			<rect x="388.22" y="1704.27" class="st12" width="10.43" height="71.08"/>
			<rect x="431.97" y="1704.27" class="st12" width="10.43" height="71.08"/>
			<rect x="475.73" y="1704.27" class="st12" width="10.43" height="71.08"/>
			<rect x="519.49" y="1704.27" class="st12" width="10.43" height="71.08"/>
			<rect x="563.25" y="1704.27" class="st12" width="10.43" height="71.08"/>
			<rect x="607.01" y="1704.27" class="st12" width="10.43" height="71.08"/>
			<rect x="650.77" y="1704.27" class="st12" width="10.43" height="71.08"/>
			<rect x="694.53" y="1704.27" class="st12" width="10.43" height="71.08"/>
			<rect x="738.29" y="1704.27" class="st12" width="10.43" height="71.08"/>
			<path class="st12" d="M764.29,1711.65H373.22c3.82-4.52,9.53-7.38,15.91-7.38h359.25
				C754.76,1704.27,760.47,1707.13,764.29,1711.65z"/>
			<path class="st12" d="M764.29,1767.97H373.22c3.82,4.52,9.53,7.38,15.91,7.38h359.25
				C754.76,1775.35,760.47,1772.49,764.29,1767.97z"/>
		</g>
		<g>
			<path class="st13" d="M742.53,1654.01v29.43c0,11.5-9.33,20.82-20.83,20.82H362.45c-11.5,0-20.83-9.32-20.83-20.82v-29.43
				c0-5.13,1.85-9.81,4.92-13.44c3.83-4.52,9.53-7.38,15.91-7.38H721.7c6.38,0,12.08,2.87,15.91,7.38
				C740.68,1644.2,742.53,1648.88,742.53,1654.01z"/>
			<rect x="361.53" y="1633.18" class="st12" width="10.43" height="71.08"/>
			<rect x="405.29" y="1633.18" class="st12" width="10.43" height="71.08"/>
			<rect x="449.05" y="1633.18" class="st12" width="10.43" height="71.08"/>
			<rect x="492.81" y="1633.18" class="st12" width="10.43" height="71.08"/>
			<rect x="536.57" y="1633.18" class="st12" width="10.43" height="71.08"/>
			<rect x="580.33" y="1633.18" class="st12" width="10.43" height="71.08"/>
			<rect x="624.09" y="1633.18" class="st12" width="10.43" height="71.08"/>
			<rect x="667.85" y="1633.18" class="st12" width="10.43" height="71.08"/>
			<rect x="711.61" y="1633.18" class="st12" width="10.43" height="71.08"/>
			<path class="st12" d="M737.61,1640.56H346.54c3.83-4.52,9.53-7.38,15.91-7.38H721.7
				C728.08,1633.18,733.78,1636.05,737.61,1640.56z"/>
			<path class="st12" d="M737.61,1696.88H346.54c3.83,4.52,9.53,7.38,15.91,7.38H721.7C728.08,1704.27,733.78,1701.4,737.61,1696.88
				z"/>
		</g>
		<g>
			<path class="st13" d="M2090.03,1725.81v29.23c0,11.42-9.26,20.68-20.68,20.68h-356.7c-11.42,0-20.68-9.26-20.68-20.68v-29.23
				c0-5.09,1.83-9.74,4.88-13.35c3.8-4.48,9.46-7.33,15.79-7.33h356.7c6.33,0,12,2.85,15.8,7.33
				C2088.2,1716.07,2090.03,1720.72,2090.03,1725.81z"/>
			<rect x="1711.75" y="1705.13" class="st12" width="10.36" height="70.58"/>
			<rect x="1755.2" y="1705.13" class="st12" width="10.36" height="70.58"/>
			<rect x="1798.65" y="1705.13" class="st12" width="10.36" height="70.58"/>
			<rect x="1842.1" y="1705.13" class="st12" width="10.36" height="70.58"/>
			<rect x="1885.54" y="1705.13" class="st12" width="10.36" height="70.58"/>
			<rect x="1928.99" y="1705.13" class="st12" width="10.36" height="70.58"/>
			<rect x="1972.44" y="1705.13" class="st12" width="10.36" height="70.58"/>
			<rect x="2015.89" y="1705.13" class="st12" width="10.36" height="70.58"/>
			<rect x="2059.34" y="1705.13" class="st12" width="10.36" height="70.58"/>
			<path class="st12" d="M2085.15,1712.46h-388.29c3.8-4.48,9.46-7.33,15.79-7.33h356.7
				C2075.69,1705.13,2081.35,1707.98,2085.15,1712.46z"/>
			<path class="st12" d="M2085.15,1768.38h-388.29c3.8,4.49,9.46,7.33,15.79,7.33h356.7
				C2075.69,1775.71,2081.35,1772.86,2085.15,1768.38z"/>
		</g>
		<g>
			<path class="st13" d="M2114.98,1655.23v29.23c0,11.42-9.26,20.68-20.68,20.68h-356.7c-11.42,0-20.68-9.26-20.68-20.68v-29.23
				c0-5.09,1.83-9.74,4.88-13.35c3.8-4.48,9.46-7.33,15.79-7.33h356.7c6.33,0,12,2.85,15.79,7.33
				C2113.15,1645.49,2114.98,1650.14,2114.98,1655.23z"/>
			<rect x="1736.7" y="1634.55" class="st12" width="10.36" height="70.58"/>
			<rect x="1780.15" y="1634.55" class="st12" width="10.36" height="70.58"/>
			<rect x="1823.6" y="1634.55" class="st12" width="10.36" height="70.58"/>
			<rect x="1867.05" y="1634.55" class="st12" width="10.36" height="70.58"/>
			<rect x="1910.49" y="1634.55" class="st12" width="10.36" height="70.58"/>
			<rect x="1953.94" y="1634.55" class="st12" width="10.36" height="70.58"/>
			<rect x="1997.39" y="1634.55" class="st12" width="10.36" height="70.58"/>
			<rect x="2040.84" y="1634.55" class="st12" width="10.36" height="70.58"/>
			<rect x="2084.29" y="1634.55" class="st12" width="10.36" height="70.58"/>
			<path class="st12" d="M2110.1,1641.88h-388.29c3.8-4.48,9.46-7.33,15.79-7.33h356.7
				C2100.64,1634.55,2106.3,1637.4,2110.1,1641.88z"/>
			<path class="st12" d="M2110.1,1697.8h-388.29c3.8,4.48,9.46,7.33,15.79,7.33h356.7C2100.64,1705.13,2106.3,1702.28,2110.1,1697.8
				z"/>
		</g>
		<g>
			<path class="st13" d="M786.57,1582.92v29.43c0,11.5-9.33,20.83-20.82,20.83H406.49c-11.5,0-20.82-9.33-20.82-20.83v-29.43
				c0-5.12,1.85-9.81,4.92-13.44c3.82-4.52,9.53-7.38,15.91-7.38h359.25c6.37,0,12.08,2.86,15.91,7.38
				C784.73,1573.11,786.57,1577.8,786.57,1582.92z"/>
			<rect x="405.58" y="1562.1" class="st12" width="10.43" height="71.08"/>
			<rect x="449.34" y="1562.1" class="st12" width="10.43" height="71.08"/>
			<rect x="493.1" y="1562.1" class="st12" width="10.43" height="71.08"/>
			<rect x="536.86" y="1562.1" class="st12" width="10.43" height="71.08"/>
			<rect x="580.62" y="1562.1" class="st12" width="10.43" height="71.08"/>
			<rect x="624.38" y="1562.1" class="st12" width="10.43" height="71.08"/>
			<rect x="668.14" y="1562.1" class="st12" width="10.43" height="71.08"/>
			<rect x="711.89" y="1562.1" class="st12" width="10.43" height="71.08"/>
			<rect x="755.65" y="1562.1" class="st12" width="10.43" height="71.08"/>
			<path class="st12" d="M781.65,1569.48H390.59c3.82-4.52,9.53-7.38,15.91-7.38h359.25
				C772.12,1562.1,777.83,1564.96,781.65,1569.48z"/>
			<path class="st12" d="M781.65,1625.8H390.59c3.82,4.52,9.53,7.38,15.91,7.38h359.25C772.12,1633.18,777.83,1630.31,781.65,1625.8
				z"/>
		</g>
		<g>
			
				<ellipse transform="matrix(0.7071 -0.7071 0.7071 0.7071 -433.9869 2079.3979)" class="st12" cx="2293.06" cy="1563.57" rx="207.39" ry="207.39"/>
			<path class="st13" d="M2455.17,1615.92c-28.91,89.53-124.93,138.66-214.46,109.75c-9.35-3.02-18.26-6.76-26.68-11.17
				c-14.26-7.43-27.12-16.72-38.4-27.47c-4.27-4.08-8.32-8.36-12.14-12.82c-27.92-32.76-42.93-75.53-40.59-119.58
				c0.76-14.43,3.39-29,8.05-43.4c21.56-66.77,80.45-111.08,146.12-117.3c22.38-2.12,45.57,0.19,68.33,7.54
				c19.7,6.36,37.46,15.97,52.84,28.06c4.65,3.64,9.08,7.51,13.29,11.59c11.42,11.06,21.17,23.63,29.03,37.25
				C2463.82,1518.64,2470.58,1568.2,2455.17,1615.92z"/>
			<path class="st17" d="M2398.25,1429.52l-234.75,244.69c-27.92-32.76-42.93-75.53-40.59-119.58l154.17-160.7
				c22.38-2.12,45.57,0.19,68.33,7.54C2365.12,1407.82,2382.87,1417.43,2398.25,1429.52z"/>
			<path class="st17" d="M2440.57,1478.37l-226.53,236.13c-14.26-7.43-27.12-16.72-38.4-27.47l235.91-245.92
				C2422.97,1452.18,2432.71,1464.74,2440.57,1478.37z"/>
			<path class="st2" d="M2304.49,1401.65c-20.13-2.11-23.8-0.13-32.84,17.72c2.25-19.88,0.26-23.56-17.72-32.84
				c20.13,2.11,23.8,0.13,32.84-17.72C2284.66,1388.94,2286.64,1392.61,2304.49,1401.65z"/>
			<path class="st2" d="M2233.27,1721.62c-16.98-1.78-20.08-0.11-27.71,14.95c1.89-16.78,0.22-19.88-14.95-27.71
				c16.98,1.78,20.08,0.11,27.71-14.95C2216.53,1710.89,2218.2,1713.99,2233.27,1721.62z"/>
		</g>
	</g>
	<g>
		<path class="st0" d="M2483.81,659.2c-20.37,40-69.32,55.9-109.31,35.53c-40-20.38-55.9-69.32-35.53-109.31
			c20.37-40,69.31-55.9,109.31-35.53C2488.28,570.26,2504.18,619.2,2483.81,659.2z"/>
		<g>
			<path class="st1" d="M2378.18,676.01l7.03-13.79c-7.85-4.17-14.79-10.8-17.83-16.65l7.94-7.48c3.25,5.78,9.03,12,16.68,15.89
				c9.7,4.94,19.11,2.68,23.07-5.1c3.83-7.51,0.87-14.87-7.15-24.11c-11.15-12.56-16.55-23.23-10.5-35.11
				c5.77-11.34,18.22-15.83,31.82-11.48l7.03-13.79l8.47,4.31l-6.75,13.25c8.05,4.45,12.54,9.49,15.32,13.83l-8.01,7.27
				c-2.03-3.1-6.1-8.96-14.84-13.41c-10.52-5.36-17.68-1.09-20.46,4.37c-3.62,7.1-0.37,13.23,9,24.2
				c11.15,12.9,14.63,23.62,8.44,35.78c-5.5,10.79-18.16,17.07-33.41,12.22l-7.24,14.2L2378.18,676.01z"/>
		</g>
	</g>
	<g>
		<path class="st0" d="M1895.24,366l65.12-91.82c0,0,63.68,13.58,83.87,91.89c12.51,48.54,71.67,80.33,71.67,80.33l-65.47,92.3
			c0,0-78.43-31.9-91.79-87.63C1944.5,392.13,1895.24,366,1895.24,366z"/>
		<path class="st1" d="M2032.33,444.18c-19.34,12.51-46.85,4.36-61.45-18.2c-14.6-22.56-10.75-50.99,8.59-63.51
			c19.34-12.51,46.85-4.36,61.44,18.2C2055.52,403.24,2051.67,431.67,2032.33,444.18z"/>
	</g>
	<g>
		<path class="st2" d="M522.02,630.46c25.99,34.38,19.19,83.31-15.19,109.3c-34.38,25.99-83.31,19.19-109.31-15.19
			c-25.99-34.38-19.19-83.32,15.19-109.31C447.09,589.28,496.03,596.08,522.02,630.46z"/>
		<g>
			<path class="st1" d="M492.21,728.72l-8.96-11.86c-6.9,5.03-15.54,8.24-21.87,8.41l-3.13-9.99c6.36-0.38,14.15-2.76,20.72-7.73
				c8.33-6.3,10.33-15.37,5.27-22.07c-4.88-6.46-12.48-6.99-23.83-3.94c-15.52,4.36-27,4.55-34.72-5.67
				c-7.37-9.74-6.03-22.37,3.44-32.3l-8.96-11.86l7.28-5.5l8.61,11.39c7.22-5.09,13.45-6.85,18.37-7.43l2.92,9.97
				c-3.53,0.46-10.3,1.51-17.81,7.19c-9.04,6.83-8.36,14.81-4.81,19.5c4.61,6.1,11.27,5.87,24.67,2.38
				c15.82-4.21,26.54-2.72,34.44,7.73c7.01,9.27,7.12,22.84-3.46,33.98l9.23,12.21L492.21,728.72z"/>
		</g>
	</g>
	<g>
		<path class="st23" d="M1724.83,283.35l-88.5,28.79c1.51,4.64,3.02,9.28,4.53,13.92l0,0c2.19,6.73,23.89,5.7,48.46-2.3
			c24.58-8,42.73-19.93,40.54-26.66C1729.66,296.49,1724.83,283.35,1724.83,283.35z"/>
		<path class="st0" d="M1725.57,283.94c2.19,6.73-15.96,18.66-40.54,26.66c-24.58,8-46.27,9.02-48.46,2.3
			c-2.19-6.73,15.96-18.66,40.54-26.66C1701.68,278.24,1723.38,277.21,1725.57,283.94z"/>
	</g>
	<g>
		<path class="st23" d="M2372.07,313.54l-81.97-44.08c-2.31,4.3-4.62,8.6-6.93,12.89l0,0c-3.35,6.23,12.38,21.21,35.15,33.45
			c22.76,12.24,43.93,17.11,47.28,10.88C2365.91,326.11,2372.07,313.54,2372.07,313.54z"/>
		<path class="st0" d="M2372.16,314.48c-3.35,6.23-24.52,1.36-47.28-10.88c-22.76-12.24-38.5-27.22-35.15-33.45
			c3.35-6.23,24.52-1.36,47.28,10.88C2359.78,293.27,2375.51,308.25,2372.16,314.48z"/>
	</g>
	<g>
		<path class="st23" d="M2632.39,826.6l-81.72-44.54c-2.34,4.29-4.67,8.57-7.01,12.86l0,0c-3.38,6.21,12.27,21.27,34.96,33.64
			c22.69,12.37,43.83,17.36,47.22,11.15C2626.15,839.14,2632.39,826.6,2632.39,826.6z"/>
		<path class="st0" d="M2632.47,827.54c-3.38,6.21-24.53,1.22-47.22-11.15c-22.69-12.37-38.34-27.43-34.96-33.64
			c3.39-6.21,24.53-1.22,47.22,11.15C2620.21,806.27,2635.86,821.33,2632.47,827.54z"/>
	</g>
	<g>
		<path class="st23" d="M2706.03,934.98l-84.82,38.31c2.01,4.45,4.02,8.89,6.03,13.34l0,0c2.91,6.45,24.37,3.05,47.92-7.59
			c23.55-10.64,40.29-24.49,37.37-30.94C2712.26,947.52,2706.03,934.98,2706.03,934.98z"/>
		<path class="st0" d="M2706.83,935.48c2.91,6.45-13.82,20.3-37.37,30.94c-23.55,10.64-45.01,14.04-47.92,7.59
			c-2.91-6.45,13.82-20.3,37.37-30.94C2682.46,932.43,2703.92,929.03,2706.83,935.48z"/>
	</g>
	<g>
		<path class="st23" d="M685.26,535.81l-84.26-39.52c-2.07,4.42-4.14,8.84-6.22,13.25l0,0c-3,6.41,13.53,20.49,36.93,31.47
			c23.4,10.97,44.8,14.68,47.81,8.27C679.79,548.69,685.26,535.81,685.26,535.81z"/>
		<path class="st0" d="M685.4,536.74c-3,6.4-24.41,2.7-47.81-8.27c-23.4-10.97-39.93-25.06-36.93-31.47c3-6.41,24.41-2.7,47.81,8.27
			C671.87,516.24,688.4,530.33,685.4,536.74z"/>
	</g>
	<g>
		<path class="st23" d="M793.72,718.78l-87.11,32.75c1.72,4.57,3.43,9.14,5.15,13.7l0,0c2.49,6.62,24.12,4.62,48.31-4.48
			c24.19-9.1,41.78-21.84,39.29-28.46C799.13,731.69,793.72,718.78,793.72,718.78z"/>
		<path class="st0" d="M794.48,719.33c2.49,6.62-15.1,19.36-39.29,28.46c-24.19,9.1-45.82,11.1-48.31,4.48
			c-2.49-6.62,15.1-19.36,39.29-28.46C770.36,714.72,791.99,712.71,794.48,719.33z"/>
	</g>
	<g>
		<g>
			<g>
				<g>
					<g>
						<path class="st5" d="M937.44,914.47c-15.54-15.68-5.35-31.76-5.35-31.76c-8.53-1.83-53.52,66.32-72.92,109.63
							c-33.84-34.11-93.47-80.16-109.59-82.85c0,0-21.75-5.85-29.57,20.45c-6.98,23.47,20.23,40.1,20.23,40.1
							s116.39,82.17,133.6,74.86C900.63,1033.55,924.87,935.76,937.44,914.47z"/>
					</g>
				</g>
			</g>
			<g>
				<g>
					<g>
						<g>
							<path class="st5" d="M961.74,912.53c-9.5,0.58-21.98-4.12-25.64,4.4l-18.01-9.14l-1.13-11.3
								c16.11-25.81,55.36-33.13,59.25-33.47c10.1-0.89,14.79-1.93,15.58-0.58c0.79,1.35,3.26,10.34-11.39,12.1
								c-18.39,2.21-6.18,16.91,31.13,2.92c9.34-3.5,26.92,1.04,20.56,7.87C1025.08,892.85,1004.95,909.9,961.74,912.53z"/>
						</g>
					</g>
				</g>
			</g>
		</g>
		<path class="st21" d="M677.37,698.48c-25.3-25.92-76.74-29.91-86.24,7.75c-9.5,37.66-8.55,63.15-55.61,54.45
			c-37.48-6.93-78.3,24.66-81.44,77.94c-4.01,68.17,44.79,44.42,31.85,77.45c-12.93,33.03-22,66.76,26.66,70.75
			c48.66,3.98,88.92-34.58,86.48-90.33c-2.43-55.75,31.84-33.32,43.78-60.11C659.84,798.27,677.37,698.48,677.37,698.48z"/>
		<g>
			<path class="st5" d="M795.43,1729.97l21.95-86.43l-54.45-7.49c-1.87,40.88-4.92,81.12-4.66,92.02L795.43,1729.97z"/>
			<path class="st5" d="M665.51,1635.55h-56.85c1.87,13.63,9.32,87.39,9.32,87.39c4.8,10.9,47.17,8.41,47.17,2.28
				C661.95,1711.94,665.24,1637.25,665.51,1635.55z"/>
			<path class="st24" d="M758.46,1669.33l56.06,8.28l38.88-232.48c-8.01-88.23-85.67-275.92-85.67-275.92l-87.54,30.66l-2.14,82.78
				l105.43,178.5C769.73,1495.66,760.33,1607.27,758.46,1669.33z"/>
			<path class="st7" d="M715.13,1175.43c-0.8-5.45-1.07-7.15-5.61-9.88l-84.07-23.84l-20.02,19.76
				c-18.95,68.81-7.21,164.53,7.74,240.49c-21.88,65.74-13.32,201.28-4.52,264.98h59.79c3.47-42.58,2.38-121.57,2.65-159.72l0,0
				c7.74-30.66,15.21-63.36,21.89-97.76c8.54-43.94,19.22-86.52,22.15-126.38C717.8,1245.26,718.6,1204.72,715.13,1175.43z"/>
		</g>
		<path class="st5" d="M628.86,796.37c-0.32,45.7,28.52,82.94,64.41,83.19c35.89,0.25,65.24-36.59,65.56-82.29
			c0.32-45.7-28.52-82.94-64.41-83.19C658.53,713.83,629.18,750.68,628.86,796.37z"/>
		<path class="st5" d="M650.91,841.83l52.19,29.64c0,0,4.63,21.13,6.94,27.99c4.77,14.15-13.51,20.33-28.96,11.52
			c-15.45-8.81-25.45-20.59-25.45-20.59L650.91,841.83z"/>
		<path class="st25" d="M760.64,788.33c-12.44-1.13-81.7-19.02-89.71-31.53c0.65,29.72-44.12,63.63-50.12,54.91
			c-20.97-54.95-5.69-101.99,55.8-114.26C760.92,680.63,760.64,788.33,760.64,788.33z"/>
		<path d="M681.88,811.58c2.12,3.37,6.56,4.38,9.92,2.27c3.37-2.11,4.38-6.56,2.27-9.92c-2.11-3.37-6.56-4.38-9.92-2.27
			C680.78,803.78,679.77,808.22,681.88,811.58z"/>
		<path d="M732.2,810.91c1.98,3.16,6.16,4.11,9.31,2.13c3.16-1.98,4.11-6.16,2.13-9.32c-1.98-3.16-6.16-4.11-9.32-2.13
			C731.16,803.58,730.21,807.75,732.2,810.91z"/>
		<g>
			<path class="st25" d="M750.8,796.64c0.25-0.11,0.49-0.28,0.7-0.49c1.03-1.03,1.01-2.84-0.03-4.03
				c-8.12-9.29-18.1-6.59-18.52-6.47c-1.38,0.39-2.12,1.95-1.64,3.48c0.48,1.53,1.99,2.44,3.37,2.06c0.33-0.09,7.35-1.87,13.07,4.66
				C748.58,796.8,749.81,797.08,750.8,796.64z"/>
		</g>
		<g>
			<path class="st25" d="M674.88,797.96c-0.26-0.11-0.49-0.27-0.7-0.49c-1.03-1.03-1.01-2.84,0.03-4.03
				c8.13-9.29,18.1-6.59,18.53-6.47c1.38,0.39,2.12,1.95,1.64,3.48c-0.48,1.52-1.99,2.45-3.37,2.06c-0.33-0.09-7.35-1.87-13.07,4.66
				C677.11,798.13,675.87,798.41,674.88,797.96z"/>
		</g>
		<path class="st9" d="M727.08,815.78c2.11,4.44,3.79,8.84,6.22,11.84c0.82,1.01,0.68,2.51-0.29,3.38
			c-4.01,3.59-12.55,4.76-17.67,5.15c-0.75,0.05-0.99-0.98-0.3-1.27c5.86-2.43,8.8-4.69,10.16-6.02c0.68-0.66,0.98-1.6,0.85-2.53
			c-0.3-2.15-0.88-6.51-1.08-10.02C724.9,815.1,726.56,814.68,727.08,815.78z"/>
		<path class="st5" d="M645.79,814.54c7.49,7.7,8.46,18.92,2.16,25.05c-6.3,6.13-17.49,4.86-24.98-2.84
			c-7.5-7.7-8.46-18.92-2.16-25.05C627.12,805.57,638.3,806.84,645.79,814.54z"/>
		<g>
			<path class="st9" d="M640.76,833.24c0.3-0.19,0.56-0.45,0.76-0.77c2.81-4.63,2.64-9.51-0.47-13.04
				c-3.18-3.62-8.55-4.88-12.76-3.01c-1.19,0.53-1.72,1.91-1.19,3.1c0.53,1.18,1.91,1.72,3.1,1.19c2.31-1.03,5.53-0.22,7.33,1.82
				c1.73,1.97,1.72,4.63-0.02,7.5c-0.67,1.11-0.32,2.55,0.79,3.23C639.07,833.74,640.03,833.7,640.76,833.24z"/>
		</g>
		<path class="st14" d="M771.06,1175.45c-91.2,35.06-170.72,9.15-170.72,9.15c0.28-12.12-1.44-50.35,17.01-92.17
			c-4.48-35.41-2.77-88.62-4.17-109.03c10.86-54.76,5.7-59.39-4.1-85.19l34.13-10.07l61.43,21.66l4.56-14.81
			c0,0,38.34,11.62,46.44,16.1l14.73,58.34l-3.15,129.01C767.21,1098.44,767.34,1167.55,771.06,1175.45z"/>
		<g>
			<path class="st9" d="M710.68,859.97c-1.51,0.15-3.02,0.15-4.54,0.02c-11.18-1.03-18.24-9.62-18.54-9.98
				c-0.91-1.13-0.74-2.79,0.39-3.7c1.13-0.91,2.78-0.74,3.69,0.39l0,0c0.06,0.07,6.03,7.27,14.98,8.06
				c5.83,0.52,11.76-1.76,17.62-6.79c1.1-0.94,2.76-0.82,3.71,0.29c0.94,1.1,0.82,2.76-0.29,3.7
				C722.17,856.71,716.45,859.39,710.68,859.97z"/>
		</g>
		<g>
			<path class="st25" d="M782.18,1728.58c5.69-14.95,17.87-16.61,17.87-16.61c23.66,31.56,81.76,12.2,79.84,54.88
				c-88.36-0.55-125.08,0-125.08,0c0.12-9.8,1.86-33.07,3.9-42.18l4.61,0.82L782.18,1728.58z"/>
			<path class="st2" d="M874.91,1778.24H759.84c-2.78,0-5.03-2.25-5.03-5.03v-7.54h125.12v7.54
				C879.93,1775.99,877.68,1778.24,874.91,1778.24z"/>
		</g>
		<g>
			<path class="st25" d="M675.28,1767.26c0,0-7.09-26.46-7.72-29.86c-0.71-3.87-2.8-13.01-3.22-17.69
				c-0.11-1.15-12.28-8.6-21.58-8.59c-12.6,0.02-24.08,7.32-24.31,8.7c-1.49,8.83-1.53,19.21-3.94,27.81
				c-1.79,6.4-6.66,21.3-6.66,21.3L675.28,1767.26z"/>
			<g>
				<g>
					<g>
						<g>
							<path class="st2" d="M675.28,1765.2c-1.65,5.25-22.05-0.81-36.93-0.8c-12.5,0-28.66,4.84-30.5,2.96
								c-3.12,5.52-0.55,16.96-0.55,16.96s13.02,0.67,28.64,0c15.62-0.67,33.67,0.32,40.46-1.7
								C680.69,1775.44,675.28,1765.2,675.28,1765.2z"/>
						</g>
					</g>
				</g>
			</g>
		</g>
		<path class="st21" d="M639.07,889.36c13.18,21.14,41.11,79.59,38.31,156.02c-2.8,76.43-21.93,169.29-13.11,254.43
			c-44.91,3.99-87.77-1.77-87.77-1.77c4.78-50.24,32.59-399.83,32.59-399.83C623.16,894.06,639.07,889.36,639.07,889.36z"/>
		<g>
			<g id="c_4_">
				<path class="st5" d="M569.99,1106.57l8.31,3.32c0,0,6.12-14.11,14.91-13.67l-1.13,13.97c0,0,4.26,14.91,30.88,13.15
					c22.74,5.17,6.83,15.97,13.13,20.28c9.29,6.37-16.76,22.02-38.71,15.27c-28.4-8.73-46.86-35.55-46.86-35.55L569.99,1106.57z"/>
			</g>
			<path class="st5" d="M609.08,898.21c0,0-80.08,35.54-124.83,128.56c26.13,36.79,54.33,14.91,54.33,14.91l74.6-58.27
				c0,0,17.83-24.73,13.85-52.45C623.18,904.08,609.08,898.21,609.08,898.21z"/>
			<path class="st5" d="M571.33,1107.1l-37.51-66.12c0,0-6.49-29.67-49.58-14.21c-2.09,23.17-9.43,47.29,67.42,98.12
				C561.65,1117.11,571.33,1107.1,571.33,1107.1z"/>
		</g>
		<path class="st26" d="M655.07,881.31l-24.06,10.22c2.54,28.9,67.2,46.17,67.2,46.17l6.42-27.89L655.07,881.31z"/>
		<path class="st21" d="M728.63,899.29c11.82,37.77,29.66,90.48,24.79,147c-4.86,56.53-10.73,147.75,17.63,244.2
			c21.07,4.05,49.77,1,49.77,1s-41.52-141.65-39.68-204.6c2.04-69.87-1.16-132.73-18.34-172.73
			C749.9,908.59,728.63,899.29,728.63,899.29z"/>
		<path class="st26" d="M704.63,909.8l19.04,21.16c0,0,16.46-17.03,10.5-27.55c-5.96-10.52-27.18-17.62-27.18-17.62L704.63,909.8z"
			/>
	</g>
	<g>
		<g>
			<path class="st21" d="M2495.36,925.32c-27.22,9.29-116.17,169.19-116.17,169.19l68.55,4.5l73.42-74.41L2495.36,925.32z"/>
			<path d="M2587.01,1716.39c-25.36,33.82-87.63,13.07-85.57,58.82c94.7-0.59,134.06,0,134.06,0c-0.12-10.51-2-35.45-4.18-45.21
				L2587.01,1716.39z"/>
			<path d="M2728.7,1717.28c-25.36,33.82-87.63,13.07-85.57,58.82c94.7-0.59,134.06,0,134.06,0c-0.12-10.51-2-35.45-4.18-45.21
				L2728.7,1717.28z"/>
			<path class="st21" d="M2532.55,1198.58c0,0-15.2,217.91-8.95,266.11c6.25,48.2,38.81,110.29,36.31,269.71
				c30.87,7.47,75.6,0,75.6,0s6.63-180.26-26-260.78c13.27-78.21,55.85-257.34,55.85-257.34L2532.55,1198.58z"/>
			<path class="st25" d="M2626.47,1206.22c0,0,1.41,240.58,16.61,286.74c15.2,46.16,44.73,79.1,72.25,236.15
				c31.73,1.54,77.41,2.19,77.41,2.19s-16.25-201.85-65.66-247.15c-1.67-79.31,18.71-279.45,18.71-279.45L2626.47,1206.22z"/>
			<polygon class="st3" points="2550.26,892.42 2591.26,878.91 2634.38,880.93 2599.48,938.39 			"/>
			<path class="st5" d="M2564.93,919.2c20.28,10.11,45.74,7.49,63.64-8.86l-8.2-64.74l-60.12,8.87L2564.93,919.2z"/>
			<path class="st3" d="M2650.28,900.92L2650.28,900.92l-13.54-2.07l-2.36-17.92l-28.11,35.55l-9.37,3.77l-10.04-1.12l-36.61-26.71
				l2.54,17.89l-10.45,4.71l0,0l-38.04,15.45l45.53,220.37l1.41,73.22c56.42,5.43,116.14,1.31,171.96-19.84l-19.09-74.46
				l-8.15-223.7L2650.28,900.92z"/>
			<polygon class="st7" points="2589.47,944.45 2596.15,1117.96 2613.57,1134.57 2628.99,1117.35 2602.75,943.41 			"/>
			<polygon class="st7" points="2576.74,924.54 2592.13,919.39 2610.04,921.13 2602.8,943.75 2589.5,945.02 			"/>
			<g>
				<path class="st25" d="M2547.67,900.8l23.27,194.25l19.52,136.39c0,0-37.57,18.37-69.25-0.43l-26.38-305.63L2547.67,900.8z"/>
				<polygon class="st27" points="2548.4,898.64 2572.87,1108.49 2523.69,949.05 				"/>
			</g>
			<g>
				<path class="st25" d="M2635.76,882.72l28.58,345.8c0,0,72.25,4.45,99.01-17.92l-27.92-107.15l-41.98-221.21L2635.76,882.72z"/>
				<polygon class="st27" points="2635,882.13 2653.19,1093.6 2671.21,923.49 				"/>
			</g>
			<g>
				<g>
					<path class="st5" d="M2635.9,797.08c-4.62,45.06-37.06,78.64-72.45,75.01c-35.39-3.63-60.33-43.1-55.71-88.16
						s37.06-78.64,72.45-75.01C2615.58,712.56,2640.52,752.03,2635.9,797.08z"/>
					<path d="M2526.31,800.77c-3.39,1.44-7.31-0.13-8.75-3.52c-1.44-3.39,0.13-7.31,3.52-8.75c3.39-1.44,7.31,0.13,8.75,3.52
						C2531.27,795.41,2529.7,799.33,2526.31,800.77z"/>
					<path d="M2576.97,794.54c-1.38,3.43-5.28,5.09-8.71,3.71c-3.43-1.38-5.09-5.28-3.71-8.71c1.38-3.43,5.28-5.09,8.71-3.71
						C2576.69,787.21,2578.35,791.11,2576.97,794.54z"/>
					<path class="st9" d="M2541.42,792.04c-3.53,11.34-8.13,25.26-8.13,25.26s6.26,9.34,19.86,5.93
						c-6.36-0.87-13.05-3.24-12.72-11.5C2540.76,803.46,2541.42,792.04,2541.42,792.04z"/>
					<g>
						<path class="st25" d="M2584.53,782.46c-1.21,0.7-2.78,0.52-3.79-0.54c-0.24-0.24-6.08-6.15-12.05-2.7
							c-1.48,0.85-3.36,0.34-4.22-1.13c-0.85-1.48-0.33-3.37,1.13-4.22c8.16-4.7,16.39,0.42,19.6,3.79c1.18,1.23,1.13,3.19-0.1,4.36
							C2584.92,782.19,2584.73,782.34,2584.53,782.46z"/>
					</g>
					<g>
						<path class="st25" d="M2511.32,789.41c1.33,0.42,2.83-0.11,3.57-1.36c0.18-0.29,4.56-7.34,11.15-5.31
							c1.63,0.5,3.36-0.41,3.86-2.04c0.5-1.63-0.42-3.36-2.04-3.86c-9-2.77-15.89,4.05-18.27,8.05c-0.87,1.46-0.4,3.36,1.07,4.23
							C2510.88,789.24,2511.1,789.34,2511.32,789.41z"/>
					</g>
					<path class="st25" d="M2629.32,799.64c-3.66-16.03-16.85-9.44-23.17-30.24c-6.32-20.8-12-36.38-31.26-28.31
						c-19.26,8.07-25.14,4.43-34.33,1.53c-27.62-8.72-32.31,37.19-32.31,37.19s-23.08-33.86-5.62-55.75
						c19.35-24.27,27.47-10.01,45.99-28.15c18.52-18.14,51.54-16.29,60.84-4.58c9.8,12.35,13.25,22,34.24,27.43
						c20.99,5.43,34.07,19.46,21.15,43.53c-12.92,24.07,19.25,32.04-5.92,57.27c-9.76,9.78-29.08,15.97-33.16,12.58
						C2620.31,827.62,2631.68,809.97,2629.32,799.64z"/>
					<path class="st25" d="M2508.11,808.3c0,0,5.8,21.48,11.44,27.59c0.51-10.42,16.35-2.69,23.67-4
						c17.7-3.17,41.31-18.85,52.47,5.64c22.84-0.05,29.21-49.88,29.21-49.88c17.02,49.23-7.66,87.58-62.55,95.99
						C2526.2,889.19,2503.74,845.24,2508.11,808.3z"/>
					<g>
						<path class="st5" d="M2621.17,789.39c-6.56,8.85-6,20.37,1.24,25.74c7.24,5.36,18.43,2.54,24.98-6.31
							c6.56-8.85,6-20.37-1.24-25.74C2638.91,777.71,2627.73,780.54,2621.17,789.39z"/>
						<g>
							<path class="st9" d="M2632.13,810.27c-0.36-0.07-0.7-0.22-1.01-0.45c-4.41-3.38-6.05-8.1-4.4-12.63
								c1.7-4.64,6.35-7.84,11.07-7.62c1.33,0.06,2.35,1.19,2.29,2.52c-0.06,1.33-1.19,2.35-2.52,2.29
								c-2.59-0.12-5.36,1.84-6.32,4.46c-0.92,2.52,0.07,5.06,2.8,7.15c1.05,0.81,1.25,2.32,0.44,3.38
								C2633.93,810.12,2633,810.44,2632.13,810.27z"/>
						</g>
					</g>
					<g>
						<path class="st9" d="M2555.43,847.66c-1.44,0.48-2.91,0.82-4.41,1.02c-11.12,1.49-19.9-5.31-20.27-5.6
							c-1.14-0.9-1.34-2.55-0.44-3.69c0.89-1.14,2.54-1.33,3.68-0.44l0,0c0.07,0.06,7.49,5.73,16.38,4.52
							c5.8-0.79,11.06-4.33,15.65-10.53c0.86-1.16,2.51-1.41,3.67-0.55c1.17,0.86,1.41,2.51,0.55,3.67
							C2565.9,841.94,2560.93,845.82,2555.43,847.66z"/>
					</g>
				</g>
			</g>
			<polygon class="st2" points="2592.13,919.39 2625.64,943.06 2643.55,892.84 2634.38,880.93 			"/>
			<polygon class="st2" points="2592.13,919.39 2571.5,946.89 2544.62,906.35 2550.26,892.42 			"/>
		</g>
		<g id="c_6_">
			<g>
				<polygon id="v-2_6_" class="st5" points="2353.73,829.77 2353.7,829.77 2324.95,829.87 2318.44,897.76 2352,915.47 
					2387.77,897.96 2381.99,829.87 				"/>
				<g>
					<path class="st5" d="M2414.07,784.2c-6.93,47.1-42.54,80.88-79.53,75.44c-37-5.44-61.37-48.04-54.44-95.14
						c6.93-47.1,42.54-80.88,79.53-75.44C2396.63,694.5,2421,737.1,2414.07,784.2z"/>
					<path d="M2298.16,775.1c-1.31,3.34-5.08,4.99-8.43,3.68c-3.34-1.31-4.99-5.08-3.69-8.43c1.31-3.34,5.08-4.99,8.43-3.68
						C2297.82,767.98,2299.47,771.75,2298.16,775.1z"/>
					<path d="M2350.15,783.11c-1.42,3.62-5.5,5.41-9.12,3.99c-3.62-1.42-5.41-5.5-3.99-9.12c1.42-3.62,5.5-5.41,9.12-3.99
						C2349.78,775.41,2351.57,779.49,2350.15,783.11z"/>
					<path class="st9" d="M2310.18,782.89c-6.94,8.79-15.69,19.47-15.69,19.47s2.35,10.33,15.47,11.92
						c-5.31-2.91-10.39-7.26-7.3-14.42C2305.74,792.72,2310.18,782.89,2310.18,782.89z"/>
					<g>
						<path class="st21" d="M2361.63,776.01c0.24-0.06,0.48-0.15,0.71-0.26c1.6-0.81,2.24-2.76,1.43-4.36
							c-2.21-4.36-8.94-12.02-18.57-9.77c-1.75,0.44-2.83,2.15-2.42,3.9c0.41,1.74,2.15,2.83,3.9,2.42
							c7.13-1.67,11.26,6.3,11.31,6.38C2358.68,775.69,2360.21,776.35,2361.63,776.01z"/>
					</g>
					<g>
						<path class="st21" d="M2301.58,760.14c0.45-0.11,0.88-0.33,1.24-0.68c1.08-1.03,1.11-2.75,0.08-3.82
							c-0.16-0.17-4.03-4.14-9.49-3.85c-3.72,0.19-7.13,2.24-10.13,6.09c-0.92,1.18-0.71,2.88,0.47,3.79
							c1.18,0.92,2.88,0.71,3.8-0.47c1.99-2.56,4.06-3.91,6.14-4.01c2.96-0.15,5.28,2.17,5.31,2.2
							C2299.69,760.1,2300.68,760.35,2301.58,760.14z"/>
					</g>
					<path class="st21" d="M2429.89,746.48c4.65-44.91-36.49-60.25-36.49-60.25s9.31-3.13,7.25-16.75
						c-6.59,3.92-14.61,5.67-22.22,4.81c-51.34-5.81-83.81,2.19-78.98,22.41c1.72,7.2-31.54,9.83-17.35,57.61
						c1.28-3.35,6.27-26.04,16.33-30.54c10.1-4.52,3.91,11.85,26.66,9.61c22.95-2.26,37.99-11.56,54.56-2.27
						c13.23,8.39,32.91,70.27,29.77,72.45C2419.17,796.78,2427.85,766.21,2429.89,746.48z"/>
					<path class="st21" d="M2279.38,790.26c0,0,4.02,25.71,9.52,32.64c1.37-11.02,12.06-2.24,19.93-3.06
						c19.03-1.97,50.84-16.08,60.75,10.81c24.25,1.75,38.37-49.11,38.37-49.11c14.18,53.6-22.49,91.19-81.4,95.79
						C2287.74,880.36,2271.82,829.11,2279.38,790.26z"/>
					<g>
						<path class="st9" d="M2330.62,832.65c3.44-1.74,6.88-4.14,10.32-7.19c0.89-0.79,0.98-2.16,0.18-3.05
							c-0.79-0.89-2.16-0.97-3.05-0.18c-7.62,6.76-15.13,9.96-22.32,9.51c-8.9-0.55-14.35-6.63-14.41-6.69
							c-0.79-0.89-2.15-0.98-3.05-0.2c-0.9,0.79-0.99,2.15-0.21,3.04c0.26,0.31,6.61,7.46,17.32,8.16
							C2320.42,836.38,2325.51,835.23,2330.62,832.65z"/>
					</g>
					<g>
						<path class="st5" d="M2398.88,775.41c-8.22,7.6-9.84,19.22-3.62,25.94c6.22,6.73,17.93,6.02,26.15-1.59
							c8.22-7.6,9.84-19.22,3.62-25.94C2418.8,767.09,2407.1,767.8,2398.88,775.41z"/>
						<g>
							<path class="st9" d="M2405.88,798.33c-0.34-0.14-0.66-0.35-0.92-0.64c-3.76-4.21-4.51-9.24-2-13.45
								c2.57-4.31,7.83-6.63,12.5-5.52c1.31,0.31,2.13,1.63,1.81,2.95c-0.31,1.32-1.63,2.13-2.95,1.81
								c-2.56-0.61-5.7,0.82-7.16,3.26c-1.4,2.34-0.88,5.07,1.45,7.68c0.9,1.01,0.82,2.56-0.19,3.46
								C2407.7,798.52,2406.72,798.66,2405.88,798.33z"/>
						</g>
					</g>
				</g>
			</g>
			<path d="M2301.28,1717.88c-25.41,35.06-87.82,13.55-85.76,60.97c94.91-0.61,134.35,0,134.35,0c-0.13-10.89-2-36.75-4.19-46.87
				L2301.28,1717.88z"/>
			<path d="M2443.28,1718.8c-25.41,35.06-87.82,13.55-85.76,60.97c94.91-0.61,134.35,0,134.35,0c-0.13-10.89-2-36.75-4.19-46.87
				L2443.28,1718.8z"/>
			<path class="st4" d="M2257.35,1182.58c0,0-15.41,224.73-9.15,274.7c6.26,49.96,28.43,114.02,25.91,279.28
				c30.94,7.75,75.76,0,75.76,0s6.65-186.86-26.06-270.33c13.3-81.07,55.97-266.76,55.97-266.76L2257.35,1182.58z"/>
			<path class="st11" d="M2315.91,1188.72c0,0,31.11,252.3,46.34,300.15c15.23,47.85,28.48,82.91,56.06,245.71
				c31.79,1.59,77.71,0.61,77.71,0.61s-4.16-201.7-53.67-248.67c-1.68-82.21,8.01-296.18,8.01-296.18L2315.91,1188.72z"/>
			<g id="v_6_">
				<path id="h-5_5_" class="st7" d="M2459.34,902.38c0,0-54.04-18.92-72.06-10.24c-55.99,26.96-68.83,0-68.83,0
					c-17.89,1.55-71.9,10.24-71.9,10.24c0,60.32-4.03,120.84-2.93,166.49c0.77,39.75-6.8,147.92-6.8,147.92
					s59.58,15.62,115.94,16.02c56.36-0.36,113.72-15.39,113.72-15.39s-3.01-109.56-5.51-150.28
					C2461.77,1021.5,2459.34,962.54,2459.34,902.38z"/>
			</g>
			<g id="c_20_">
				<path id="c_21_" class="st24" d="M2150.48,992.03c22.3-53.22,88.49-87.07,96.06-89.65l15.35,68.32
					c-31.8,18.8-54.88,39.15-54.88,39.15c3.91,19.02,3.26,37.68,14.27,61.74c0,0-9.56-13.2-21.36-5.39
					c-11.47,7.59-32.57-7.9-32.57-7.9S2133.45,1032.68,2150.48,992.03z"/>
			</g>
			<g id="c_7_">
				<g id="c_14_">
					<g id="c_17_">
						<path id="c_19_" class="st11" d="M2162.91,1126.52c-0.38,0.12-0.77,0.19-1.16,0.23h-1.27c-2.33-0.25-4.4-1.84-5.13-4.21
							l-59.46-191.71c-0.12-0.38-0.19-0.77-0.24-1.16c-0.03-0.26-0.01-0.51-0.01-0.76c0-0.15-0.02-0.31,0-0.46
							c0.01-0.14,0.05-0.26,0.08-0.39c0.36-2.18,1.88-4.08,4.14-4.79c0.36-0.11,0.74-0.2,1.13-0.24c0.44-0.05,0.87-0.04,1.29,0
							h149.69l59.98,203.72h-149.14L2162.91,1126.52z"/>
						<path id="c_18_" class="st4" d="M2250.61,923.27c3.19-0.99,6.57,0.79,7.56,3.98l59.09,191.23l0.13,0.45
							c0.98,3.17-0.79,6.54-3.95,7.54l-0.01,0.01c-3.19,0.99-6.57-0.79-7.56-3.98l-59.24-191.67
							C2245.64,927.65,2247.42,924.26,2250.61,923.27z"/>
					</g>
				</g>
				<path id="c_12_" class="st5" d="M2137.52,1044.9c-0.56-0.37-1.17-0.61-1.79-0.78c0.06-0.09,0.13-0.18,0.2-0.28
					c3.73-5.62,3.48-12.33-0.56-15c-0.66-0.44-1.39-0.73-2.15-0.9c1.05-4.16,0.11-8.13-2.77-10.04c-1.14-0.76-2.47-1.09-3.86-1.08
					c1.32-4.09,0.27-8.38-2.95-10.51c-4.03-2.67-9.88-0.95-13.05,3.85c-3.18,4.79-2.49,10.85,1.54,13.52
					c1.02,0.68,2.16,1.07,3.34,1.2c-2.68,5.23-2.14,10.95,1.5,13.36c0.66,0.44,1.39,0.73,2.15,0.9c-1.05,4.16-0.11,8.13,2.77,10.04
					c1.06,0.7,2.28,1.05,3.57,1.08c-1.33,3.57-0.49,7.42,2.35,9.3c3.41,2.26,8.34,0.8,11.02-3.25
					C2141.5,1052.26,2140.92,1047.15,2137.52,1044.9z"/>
				<path class="st5" d="M2321.55,1032.78l-13.65-7.91c0,0-3.78-19.35-25.69-19.82c2.51,8.12,6.12,19.82,6.12,19.82
					s-10.79,8.37-36.36-5.96c-25.01-5.62-14.33,12.61-22.61,13.92c-12.23,1.93,8.91,25.96,33.88,29.64
					c32.31,4.76,36.14-1.86,36.14-1.86l18.28,6.39L2321.55,1032.78z"/>
				<path id="c_11_" class="st6" d="M2461.1,1055.29c-45.61-3.19-136.69-27.55-136.69-27.55c-12.45,19.1-9.01,44.46-9.01,44.46
					c70.83,62.1,177.42,82.17,210.13,67.22c29.86-13.65,8.65-195.46-66.32-237.09L2461.1,1055.29z"/>
			</g>
			<path class="st4" d="M2220.1,952.38c2.58,6.47,9.23,9.9,14.84,7.67c5.61-2.24,8.06-9.3,5.48-15.77
				c-2.58-6.47-9.23-9.9-14.84-7.66C2219.97,938.84,2217.52,945.91,2220.1,952.38z"/>
			<path class="st4" d="M2200.99,950.18c1.54,3.86,5.5,5.91,8.85,4.57c3.35-1.34,4.81-5.55,3.27-9.41
				c-1.54-3.86-5.51-5.91-8.85-4.57C2200.91,942.11,2199.45,946.32,2200.99,950.18z"/>
		</g>
		<g>
			<path class="st5" d="M2502.18,1190.04c9.84-4.7,20.84-7.47,24.19-21.52c0,0,26.63-7.08,54.53-13.28c0,0-33.97-31.13-33.99-31.12
				c-11.04,3.74-31.41,17.5-43.88,17.81c-3.24,0.08-6.49-0.01-9.74,0.04c-7.92-0.06-16.18-1-24.67,5.26
				c-32.81,24.17-45.64,20.07-46.97,22.86c-1.1,4.35,7.73,12.67,24.44,4.3c16.17-8.1,24.76-8.22,24.76-8.22s-0.27,14.12,5.34,18.17
				C2478.73,1186.16,2490.67,1195.54,2502.18,1190.04z"/>
			<path class="st21" d="M2534.34,1122.96c0,0,87.07-41.99,153.25-55.58c-9.15-33.12,5.78-186.16,5.78-186.16s44.7,10.97,66.9,93.86
				c22.2,82.9-28.71,167.26-28.71,167.26s-137.27,38.15-186.36,24.19C2537.51,1164.34,2534.34,1122.96,2534.34,1122.96z"/>
		</g>
	</g>
</g>
</svg>
