<svg width="50" height="50" viewBox="0 0 50 50" fill="none" xmlns="http://www.w3.org/2000/svg">
<path d="M48.0516 14.9508L44.5313 12.8906V5.46876C44.5313 5.26156 44.4489 5.06285 44.3024 4.91634C44.1559 4.76982 43.9572 4.68751 43.75 4.68751H37.5C37.2928 4.68751 37.0941 4.76982 36.9476 4.91634C36.8011 5.06285 36.7188 5.26156 36.7188 5.46876V8.30783L25.3953 1.6672C25.2753 1.59735 25.1389 1.56055 25 1.56055C24.8611 1.56055 24.7247 1.59735 24.6047 1.6672L1.94844 14.9485C1.83055 15.0176 1.73287 15.1165 1.66515 15.2352C1.59742 15.3539 1.56203 15.4883 1.5625 15.625V20.3125C1.56244 20.4501 1.59873 20.5853 1.66771 20.7044C1.73669 20.8235 1.83591 20.9223 1.95532 20.9907C2.07473 21.0592 2.2101 21.0948 2.34773 21.0941C2.48536 21.0934 2.62036 21.0564 2.73907 20.9867L25 7.93673L47.2492 20.9836C47.368 21.0561 47.5039 21.0956 47.643 21.0979C47.7821 21.1003 47.9193 21.0654 48.0404 20.997C48.1616 20.9286 48.2623 20.8291 48.3321 20.7088C48.4019 20.5884 48.4383 20.4516 48.4375 20.3125V15.625C48.4376 15.4887 48.402 15.3548 48.3343 15.2365C48.2666 15.1183 48.1691 15.0198 48.0516 14.9508ZM38.2813 6.25001H42.9688V11.9711L38.2813 9.22345V6.25001ZM46.875 18.9485L25.3953 6.35704C25.2754 6.28672 25.139 6.24965 25 6.24965C24.861 6.24965 24.7246 6.28672 24.6047 6.35704L3.125 18.9485V16.0727L25 3.24923L46.875 16.0727V18.9485Z" fill="#5E72E4"/>
<path d="M45.7031 21.1953L25.3906 9.47658C25.2708 9.41121 25.1365 9.37695 25 9.37695C24.8635 9.37695 24.7292 9.41121 24.6094 9.47658L4.29688 21.1953C4.17766 21.2642 4.07874 21.3633 4.01015 21.4826C3.94155 21.602 3.90571 21.7373 3.90626 21.875V47.6563C3.90626 47.8635 3.98857 48.0622 4.13508 48.2087C4.28159 48.3552 4.48031 48.4375 4.68751 48.4375H45.3125C45.5197 48.4375 45.7184 48.3552 45.8649 48.2087C46.0114 48.0622 46.0938 47.8635 46.0938 47.6563V21.875C46.0943 21.7373 46.0585 21.602 45.9899 21.4826C45.9213 21.3633 45.8224 21.2642 45.7031 21.1953ZM44.5313 46.875H5.46876V22.3281L25 11.0547L44.5313 22.3281V46.875Z" fill="#5E72E4"/>
<path d="M35.7109 27.4767C36.3226 26.9224 36.8009 26.2368 37.1099 25.4713C37.4189 24.7058 37.5506 23.8802 37.4951 23.0566C37.4396 22.233 37.1983 21.4326 36.7894 20.7154C36.3805 19.9983 35.8146 19.3831 35.134 18.9158C34.4534 18.4486 33.6759 18.1415 32.8598 18.0176C32.0436 17.8936 31.21 17.956 30.4214 18.2002C29.6329 18.4443 28.9098 18.8638 28.3064 19.4272C27.703 19.9906 27.235 20.6832 26.9375 21.4533C26.3185 21.2179 25.6622 21.0962 25 21.0939C24.3344 21.0949 23.6748 21.2194 23.0547 21.4611C22.6639 20.43 21.9674 19.543 21.0584 18.9188C20.1494 18.2947 19.0714 17.9633 17.9688 17.9689C16.8654 17.9679 15.7876 18.301 14.8772 18.9242C13.9667 19.5475 13.2663 20.4318 12.8681 21.4608C12.4699 22.4898 12.3925 23.6152 12.6461 24.689C12.8997 25.7628 13.4725 26.7347 14.2891 27.4767C12.6875 27.7886 11.244 28.6471 10.2052 29.9053C9.16638 31.1635 8.59679 32.7435 8.59375 34.3751V42.9689C8.59375 43.1761 8.67606 43.3748 8.82257 43.5213C8.96909 43.6678 9.1678 43.7501 9.375 43.7501H15.625V45.3126C15.625 45.5198 15.7073 45.7186 15.8538 45.8651C16.0003 46.0116 16.199 46.0939 16.4062 46.0939H33.5938C33.801 46.0939 33.9997 46.0116 34.1462 45.8651C34.2927 45.7186 34.375 45.5198 34.375 45.3126V43.7501H40.625C40.8322 43.7501 41.0309 43.6678 41.1774 43.5213C41.3239 43.3748 41.4062 43.1761 41.4062 42.9689V34.3751C41.4032 32.7435 40.8336 31.1635 39.7948 29.9053C38.756 28.6471 37.3125 27.7886 35.7109 27.4767ZM32.0312 19.5314C32.6129 19.5316 33.1872 19.6616 33.7122 19.9121C34.2372 20.1626 34.6996 20.5271 35.0657 20.9792C35.4318 21.4312 35.6923 21.9593 35.8282 22.5248C35.9642 23.0904 35.9721 23.6792 35.8514 24.2482C35.7307 24.8172 35.4844 25.3521 35.1306 25.8138C34.7768 26.2755 34.3243 26.6523 33.8062 26.9168C33.2881 27.1813 32.7175 27.3267 32.1361 27.3425C31.5546 27.3582 30.977 27.244 30.4453 27.008C30.4609 26.86 30.4687 26.7114 30.4688 26.5626C30.467 25.7255 30.2731 24.8999 29.902 24.1495C29.5309 23.3992 28.9924 22.744 28.3281 22.2345C28.5817 21.4512 29.0764 20.768 29.7414 20.2825C30.4064 19.7971 31.2079 19.5342 32.0312 19.5314ZM25 22.6564C25.7726 22.6564 26.5278 22.8855 27.1702 23.3147C27.8126 23.7439 28.3132 24.354 28.6089 25.0678C28.9046 25.7816 28.9819 26.567 28.8312 27.3247C28.6805 28.0825 28.3084 28.7785 27.7621 29.3248C27.2158 29.8711 26.5198 30.2431 25.7621 30.3938C25.0043 30.5446 24.2189 30.4672 23.5051 30.1715C22.7914 29.8759 22.1813 29.3752 21.7521 28.7328C21.3228 28.0905 21.0938 27.3352 21.0938 26.5626C21.0938 25.5266 21.5053 24.5331 22.2379 23.8005C22.9704 23.0679 23.964 22.6564 25 22.6564ZM14.0625 23.4376C14.0604 22.5077 14.3908 21.6077 14.9941 20.9C15.5973 20.1923 16.4336 19.7236 17.3521 19.5784C18.2706 19.4331 19.2108 19.621 20.0029 20.1081C20.795 20.5952 21.387 21.3493 21.6719 22.2345C21.0076 22.744 20.4691 23.3992 20.098 24.1495C19.7269 24.8999 19.533 25.7255 19.5312 26.5626C19.5313 26.7114 19.5391 26.86 19.5547 27.008C18.9599 27.2722 18.3086 27.3836 17.6598 27.3322C17.011 27.2807 16.3854 27.0679 15.8397 26.7132C15.2941 26.3585 14.8457 25.8731 14.5353 25.301C14.2249 24.729 14.0624 24.0885 14.0625 23.4376ZM15.625 37.5001V42.1876H10.1562V34.3751C10.1579 32.9253 10.7346 31.5352 11.7598 30.51C12.7851 29.4847 14.1751 28.908 15.625 28.9064H20.0703C20.3757 29.5457 20.7999 30.121 21.3203 30.6017C19.7188 30.9136 18.2752 31.7721 17.2364 33.0303C16.1976 34.2885 15.628 35.8685 15.625 37.5001ZM32.8125 44.5314H31.1797L30.4688 37.422L28.9062 37.5783L29.6016 44.5314H20.3984L21.0938 37.5783L19.5312 37.422L18.8203 44.5314H17.1875V37.5001C17.1892 36.0503 17.7659 34.6602 18.7911 33.635C19.8163 32.6098 21.2064 32.0331 22.6562 32.0314H27.3438C28.7936 32.0331 30.1837 32.6098 31.2089 33.635C32.2341 34.6602 32.8108 36.0503 32.8125 37.5001V44.5314ZM39.8438 42.1876H34.375V37.5001C34.372 35.8685 33.8024 34.2885 32.7636 33.0303C31.7248 31.7721 30.2812 30.9136 28.6797 30.6017C29.2001 30.121 29.6243 29.5457 29.9297 28.9064H34.375C35.8249 28.908 37.2149 29.4847 38.2402 30.51C39.2654 31.5352 39.8421 32.9253 39.8438 34.3751V42.1876Z" fill="#5E72E4"/>
</svg>
