<svg width="294" height="461" viewBox="0 0 294 461" fill="none" xmlns="http://www.w3.org/2000/svg">
<path d="M147.845 336.393L145.859 335.232L130.011 344.399L0.951782 402.386L3.6 418.895L18.8686 429.845L160.879 347.634L163.776 329.259L147.845 336.393Z" fill="#DDE4ED"/>
<path d="M0.951782 402.386L145.859 318.516V0.954102L0.951782 84.8243V402.386Z" fill="#5E72E4"/>
<path d="M18.8684 413.129L163.775 329.259V11.6973L18.8684 95.5674V413.129Z" fill="url(#paint0_linear)"/>
<path d="M138.99 195.573L140.852 192.919L131.459 187.568C131.293 187.485 131.087 187.36 130.921 187.277C122.645 182.756 110.604 183.876 97.1977 191.633C72.288 206.067 52.0953 237.965 52.0953 262.935C52.0953 273.429 55.6539 281.02 61.6124 285.209C62.4813 285.831 63.433 286.37 64.4261 286.868L72.5776 291.638L74.3983 289.025C81.1016 289.108 88.8807 286.827 97.1977 282.015C122.107 267.58 142.3 235.683 142.3 210.713C142.3 204.657 141.142 199.597 138.99 195.573Z" fill="#FF9D4D"/>
<path d="M119.708 185.286C123.763 185.286 127.445 186.157 130.549 187.857L130.59 187.899C130.756 187.982 130.921 188.065 131.087 188.189L139.776 193.167L138.369 195.199L138.121 195.572L138.328 195.946C140.479 199.969 141.555 204.947 141.555 210.754C141.555 235.475 121.487 267.165 96.8253 281.434C89.0048 285.955 81.3498 288.319 74.6465 288.319C74.5638 288.319 74.481 288.319 74.3569 288.319H73.9845L73.7776 288.651L72.3707 290.725L64.7985 286.204H64.7571H64.7157C63.764 285.747 62.8537 285.208 61.9848 284.627L61.9434 284.586C56.9366 281.019 53.8332 275.087 53.0057 267.414C52.9643 267.123 52.9643 266.833 52.9229 266.543C52.8401 265.381 52.7574 264.178 52.7574 262.934C52.7574 260.819 52.9229 258.579 53.2126 256.339C53.2539 256.09 53.2953 255.841 53.3367 255.592C53.7505 252.606 54.4539 249.495 55.4056 246.343C55.4884 246.094 55.5297 245.886 55.6125 245.637C56.4814 242.817 57.5573 239.913 58.7986 237.01C58.8814 236.802 59.0055 236.554 59.0883 236.346C60.2882 233.65 61.6537 230.912 63.1847 228.216C63.3089 228.009 63.433 227.801 63.5571 227.594C65.0468 224.981 66.6605 222.409 68.3984 219.921C68.5225 219.713 68.6881 219.547 68.8122 219.34C70.5501 216.851 72.4535 214.404 74.3983 212.081C74.5638 211.915 74.7293 211.708 74.8534 211.542C76.881 209.177 79.0326 206.896 81.2257 204.739C81.3912 204.573 81.5981 204.407 81.7636 204.2C84.1222 201.96 86.5635 199.845 89.0048 197.937C89.2117 197.771 89.4186 197.605 89.6255 197.48C92.2323 195.531 94.8805 193.747 97.5287 192.213C97.6943 192.13 97.8598 192.005 98.0667 191.922C98.3149 191.798 98.5632 191.632 98.8115 191.508C102.287 189.6 105.722 188.106 109.032 187.069L109.156 187.028C109.487 186.945 109.777 186.82 110.108 186.737C113.418 185.783 116.687 185.286 119.708 185.286ZM119.708 184.581C116.646 184.581 113.335 185.078 109.859 186.074C109.528 186.157 109.239 186.24 108.908 186.364C105.556 187.401 102.08 188.894 98.4805 190.885C98.2322 191.01 97.9839 191.176 97.7356 191.3C97.5701 191.383 97.3632 191.508 97.1977 191.59C94.4668 193.167 91.8185 194.95 89.2117 196.9C89.0048 197.066 88.7979 197.232 88.591 197.356C86.067 199.306 83.6256 201.421 81.2671 203.661C81.1015 203.827 80.8947 203.993 80.7291 204.2C78.4947 206.357 76.343 208.638 74.3155 211.044C74.15 211.21 73.9845 211.417 73.8603 211.625C71.8742 213.989 70.0122 216.395 68.2329 218.925C68.1087 219.132 67.9432 219.34 67.8191 219.506C66.0812 222.036 64.4261 224.608 62.9365 227.221C62.8123 227.428 62.6882 227.636 62.5641 227.843C61.0331 230.539 59.6676 233.277 58.4676 236.014C58.3848 236.222 58.2607 236.471 58.178 236.678C56.9366 239.581 55.8608 242.485 54.9504 245.347C54.8677 245.596 54.8263 245.803 54.7436 246.052C53.7918 249.205 53.0884 252.315 52.6746 255.385C52.6333 255.634 52.5919 255.883 52.5505 256.173C52.2608 258.454 52.0953 260.694 52.0953 262.851C52.0953 264.137 52.1367 265.34 52.2609 266.543C52.3022 266.833 52.3022 267.123 52.3436 267.414C53.2539 275.544 56.5642 281.558 61.6124 285.125C62.4813 285.747 63.433 286.287 64.4261 286.784L72.5776 291.554L74.3983 288.941C74.481 288.941 74.6052 288.941 74.6879 288.941C81.3084 288.941 89.0048 286.701 97.1977 281.931C122.107 267.497 142.3 235.599 142.3 210.629C142.3 204.615 141.142 199.513 138.99 195.489L140.852 192.835L131.459 187.484C131.293 187.401 131.128 187.277 130.921 187.194C127.694 185.493 123.928 184.581 119.708 184.581Z" fill="#FFE840"/>
<path d="M151.445 215.98C151.445 240.95 131.252 272.889 106.342 287.282C81.4326 301.717 61.24 293.131 61.24 268.16C61.24 243.19 81.4326 211.251 106.342 196.858C131.252 182.465 151.445 191.01 151.445 215.98Z" fill="#FFD071"/>
<path d="M151.445 215.98C151.445 240.95 131.252 272.889 106.342 287.282C81.4326 301.717 61.24 293.131 61.24 268.16C61.24 243.19 81.4326 211.251 106.342 196.858C131.252 182.465 151.445 191.01 151.445 215.98Z" fill="#FFE840"/>
<path d="M107.501 281.6C96.9908 287.697 87.06 289.315 79.6533 286.162C72.2052 283.01 68.1088 275.461 68.1088 264.925C68.1088 254.39 72.2052 242.07 79.6533 230.29C87.1014 218.51 96.9908 208.68 107.501 202.583C118.011 196.485 127.942 194.868 135.349 198.02C142.797 201.172 146.893 208.721 146.893 219.257C146.893 229.793 142.797 242.112 135.349 253.892C127.942 265.672 118.011 275.502 107.501 281.6ZM107.501 204.739C86.9773 216.644 70.2604 243.024 70.2604 263.639C70.2604 284.213 86.9773 291.306 107.501 279.401C128.025 267.497 144.741 241.116 144.741 220.501C144.741 199.928 128.025 192.877 107.501 204.739Z" fill="#FF9D4D"/>
<path d="M113.004 235.392V241.407C112.88 241.448 112.756 241.531 112.632 241.614L109.322 243.522V237.881L111.184 236.802C111.846 236.471 112.466 235.973 113.004 235.392Z" fill="#D1975D"/>
<path d="M112.26 251.486C112.508 251.32 112.756 251.196 113.004 250.988V263.266L109.322 265.381V253.187L112.26 251.486Z" fill="#D1975D"/>
<path d="M122.232 236.305C121.032 235.392 119.377 235.268 117.266 235.848C118.963 234.106 120.287 232.198 121.197 230.083C122.108 228.009 122.521 226.059 122.521 224.276C122.521 223.156 122.314 222.119 121.942 221.248C121.528 220.377 120.99 219.672 120.287 219.215C119.583 218.759 118.673 218.552 117.68 218.593C116.646 218.635 115.487 219.049 114.246 219.755L113.087 220.418V214.487L109.404 216.602V222.534L104.936 225.105V219.174L101.253 221.289V227.304L94.6737 231.12V267.787L101.253 263.971V270.151L104.936 268.036V261.856L112.342 257.583C112.591 257.459 112.839 257.293 113.087 257.127C114.411 256.297 115.694 255.343 116.894 254.306C118.301 253.062 119.583 251.735 120.659 250.325C121.735 248.914 122.604 247.421 123.225 245.928C123.845 244.393 124.135 242.858 124.135 241.324C124.052 238.835 123.473 237.217 122.232 236.305ZM114.37 227.013C115.156 227.387 115.528 228.299 115.528 229.71C115.528 231.161 115.115 232.53 114.246 233.857C113.873 234.438 113.459 234.977 113.004 235.434C112.466 236.014 111.846 236.471 111.184 236.885L104.853 240.536L101.708 242.361V233.111L111.473 227.428C112.011 227.096 112.508 226.93 113.004 226.848C113.501 226.765 113.956 226.806 114.37 227.013ZM116.563 246.135C116.315 246.84 115.984 247.545 115.57 248.209C115.156 248.873 114.659 249.495 114.122 250.076C113.79 250.407 113.418 250.739 113.046 250.988C112.797 251.154 112.549 251.32 112.301 251.486L101.708 257.583V247.919L104.853 246.094L112.632 241.614C112.756 241.531 112.88 241.49 113.004 241.407C113.459 241.158 113.915 241.033 114.328 241.033C114.825 240.992 115.28 241.075 115.653 241.324C116.025 241.572 116.315 241.904 116.563 242.361C116.77 242.817 116.894 243.398 116.894 244.061C116.894 244.725 116.77 245.389 116.563 246.135Z" fill="#FF9D4D"/>
<path d="M110.853 198.02L110.48 198.642L97.7357 191.259C97.984 191.134 98.2323 190.968 98.4805 190.844L110.853 198.02Z" fill="#FFE840"/>
<path d="M99.5562 202.873L99.1838 203.495L88.5496 197.356C88.7565 197.19 88.9633 197.024 89.1702 196.9L99.5562 202.873Z" fill="#FFE840"/>
<path d="M91.7358 209.717L91.3634 210.339L80.7291 204.2C80.8946 204.034 81.1015 203.868 81.267 203.661L91.7358 209.717Z" fill="#FFE840"/>
<path d="M83.8739 216.561L83.5015 217.183L73.819 211.583C73.9845 211.376 74.15 211.21 74.2741 211.002L83.8739 216.561Z" fill="#FFE840"/>
<path d="M79.4464 225.396L79.074 226.018L67.7777 219.506C67.9018 219.298 68.0674 219.091 68.1915 218.925L79.4464 225.396Z" fill="#FFE840"/>
<path d="M76.5914 235.185L76.219 235.807L62.5641 227.843C62.6882 227.635 62.8124 227.428 62.9365 227.221L76.5914 235.185Z" fill="#FFE840"/>
<path d="M71.0465 243.314L70.6741 243.937L58.1779 236.719C58.2606 236.512 58.3847 236.263 58.4675 236.056L71.0465 243.314Z" fill="#FFE840"/>
<path d="M68.9363 253.477L68.5639 254.099L54.7435 246.094C54.8263 245.845 54.8677 245.638 54.9504 245.389L68.9363 253.477Z" fill="#FFE840"/>
<path d="M65.3364 262.768L64.964 263.39L52.5505 256.214C52.5919 255.966 52.6333 255.717 52.6747 255.426L65.3364 262.768Z" fill="#FFE840"/>
<path d="M65.8743 274.465L65.5019 275.087L52.3022 267.455C52.2609 267.165 52.2195 266.874 52.2195 266.584L65.8743 274.465Z" fill="#FFE840"/>
<path d="M121.694 192.876L121.321 193.498L108.908 186.323C109.239 186.24 109.529 186.115 109.86 186.032L121.694 192.876Z" fill="#FFE840"/>
<path d="M163.776 11.6971L145.859 0.954102L0.951782 84.8243L18.8686 95.5673L163.776 11.6971Z" fill="url(#paint1_linear)"/>
<path d="M0.951782 84.8242V402.386L18.8686 413.129V95.5672L0.951782 84.8242Z" fill="url(#paint2_linear)"/>
<path d="M18.8685 414.083C18.703 414.083 18.5375 414.041 18.372 413.959L0.455162 403.174C0.165513 403.008 0 402.676 0 402.344V84.8242C0 84.4923 0.165513 84.1605 0.49654 83.9946L145.403 0.124436C145.693 -0.0414788 146.066 -0.0414788 146.397 0.124436L164.272 10.8674C164.562 11.0334 164.727 11.3652 164.727 11.697V329.217C164.727 329.549 164.562 329.881 164.231 330.047L19.3237 413.959C19.1996 414.041 19.034 414.083 18.8685 414.083ZM1.94478 401.805L18.8685 411.968L162.824 328.678V12.2777L145.859 2.07394L1.94478 85.4049V401.805Z" fill="#BF89EF"/>
<path d="M69.2673 103.158L158.727 51.392V46.4561L69.2673 98.2216V103.158Z" fill="white"/>
<path d="M101.253 104.319L158.727 71.0117V66.0757L101.253 99.3832V104.319Z" fill="#FFD071"/>
<path d="M52.0953 152.31L158.727 90.6728V85.7368L52.0953 147.374V152.31Z" fill="#7FC1E2"/>
<path d="M188.271 399.399C164.313 413.253 164.313 435.735 188.271 449.63C212.229 463.484 251.084 463.484 275.042 449.63C299 435.776 299 413.295 275.042 399.399C251.042 385.504 212.229 385.504 188.271 399.399Z" fill="#DDE4ED"/>
<path d="M140.148 239.872V237.342V229.958L135.804 231.949L132.411 237.383C131.542 238.752 131.624 240.453 132.576 241.738L135.597 244.725L140.148 239.872Z" fill="#FFD0A6"/>
<path d="M190.754 406.202L212.56 413.834C217.898 416.24 223.981 412.424 224.022 406.658C224.022 406.617 224.022 406.617 224.022 406.575C224.022 406.575 224.022 406.078 223.939 405.829C223.691 404.543 222.739 403.506 221.498 403.05L204.616 396.828C200.105 395.169 195.016 395.791 191.044 398.487L189.471 399.731C187.113 401.681 187.857 405.372 190.754 406.202Z" fill="#281A10"/>
<path d="M212.767 292.467L225.057 347.094L237.553 375.259L252.366 401.556L267.925 394.837V394.795L267.387 392.97C264.863 384.177 261.966 375.466 258.739 366.921C255.511 358.377 251.911 349.956 247.939 341.702L239.705 286.909L217.071 291.596L212.767 292.467Z" fill="url(#paint3_linear)"/>
<path d="M215.995 293.255L229.153 345.269L241.608 373.433L256.422 399.731L267.883 394.795L267.345 392.97C264.821 384.177 261.925 375.466 258.697 366.921C255.47 358.377 251.87 349.956 247.898 341.702L239.663 286.909L215.995 293.255Z" fill="url(#paint4_linear)"/>
<path d="M191.002 296.075L194.188 355.017L204.781 403.547L223.112 403.879V403.755L222.946 398.694C222.698 390.938 221.994 383.181 220.753 375.549C219.512 367.875 217.774 360.326 215.539 352.901L220.753 293.213L220.794 292.508L191.002 296.075Z" fill="url(#paint5_linear)"/>
<path d="M196.712 296.076L199.94 355.017L210.533 403.547L223.153 403.755L222.988 398.694C222.739 390.938 222.036 383.181 220.795 375.549C219.553 367.875 217.815 360.326 215.581 352.902L224.022 292.799L196.712 296.076Z" fill="url(#paint6_linear)"/>
<path d="M207.388 212.952C196.175 214.901 187.858 225.976 187.651 237.383C187.32 256.753 185.044 286.411 187.775 304.993C188.147 307.606 190.299 309.639 192.947 309.805L202.423 310.469C216.326 311.423 224.188 303.334 237.305 298.564C242.477 296.698 245.746 291.596 245.374 286.12L240.036 252.937L245.663 216.27C245.787 207.394 237.429 200.799 228.822 203.038L207.388 212.952Z" fill="url(#paint7_linear)"/>
<path d="M187.899 228.755L168.575 261.855L182.727 260.487L140.769 238.876C139.155 238.047 137.128 238.503 136.052 239.955L135.928 240.12C134.562 241.946 134.893 244.517 136.673 245.928L169.651 272.432C173.21 277.037 180.285 276.705 183.389 271.727L183.803 271.064L204.119 238.544C206.933 234.065 205.526 228.133 201.016 225.396C196.423 222.699 190.547 224.193 187.899 228.755Z" fill="#5E72E4"/>
<path d="M227.456 204.034L224.808 197.564L228.615 186.53C232.049 180.64 231.553 173.216 227.332 167.823C223.401 162.804 216.988 160.482 210.781 161.767L203.291 163.344C200.147 164.007 198.202 167.118 198.905 170.229V170.312C199.236 171.681 199.278 173.05 199.112 174.377L198.285 180.723C197.581 182.922 197.457 185.286 197.912 187.567L198.45 190.222C199.857 194.577 204.491 196.941 208.795 195.573L210.16 212.04L227.456 204.034Z" fill="#FFD0A6"/>
<path d="M199.236 173.63L204.45 178.068C204.45 178.068 205.319 181.304 204.74 184.954C204.202 188.604 211.236 193.416 211.236 193.416L215.291 198.642C216.16 199.762 217.525 200.342 218.932 200.26L223.691 199.886C226.298 199.679 228.532 198.02 229.484 195.572C230.353 193.374 231.263 190.802 231.429 189.475C231.594 188.148 232.794 185.41 233.87 183.129C235.318 180.101 235.732 176.7 234.946 173.423C234.491 171.473 233.787 169.441 232.794 168.113C230.311 164.712 229.773 161.145 223.236 159.569C216.698 158.034 206.271 157.536 203.581 159.071C200.933 160.606 201.305 161.56 198.864 165.376C196.422 169.233 199.236 173.63 199.236 173.63Z" fill="#89603E"/>
<path d="M228.657 203.744L226.05 200.55L209.788 207.186L209.374 212.579L228.657 203.744Z" fill="#5E72E4"/>
<path d="M205.03 188.355L206.643 185.991C207.305 185.037 208.836 184.829 209.829 185.576C210.409 185.991 210.657 186.654 210.45 187.277L208.298 193.581L203.581 191.549L205.03 188.355Z" fill="#FFD0A6"/>
<path d="M223.112 395.251L217.319 396.205L202.961 394.836L205.319 408.939L220.091 409.852C222.326 409.976 224.188 408.11 223.981 405.87L223.112 395.251Z" fill="#281A10"/>
<path d="M252.325 401.556L252.077 405.87C251.953 408.151 250.049 409.935 247.815 409.935H242.063C240.408 409.935 238.877 410.764 237.967 412.133C236.022 414.995 237.553 418.936 240.905 419.724L243.47 420.346C248.27 421.507 253.277 421.466 258.077 420.263L271.359 416.862C275.662 415.742 277.69 410.806 275.373 406.99L267.966 394.836L252.325 401.556Z" fill="#C97453"/>
<path d="M252.325 401.556L252.077 405.87C251.953 408.151 250.049 409.935 247.815 409.935H242.063C240.408 409.935 238.877 410.764 237.967 412.133C236.022 414.995 237.553 418.936 240.905 419.724L243.47 420.346C248.27 421.507 253.277 421.466 258.077 420.263L271.359 416.862C275.662 415.742 277.69 410.806 275.373 406.99L267.966 394.836L252.325 401.556Z" fill="#281A10"/>
<path d="M143.127 233.152L143.458 232.945C144.327 232.364 145.445 232.364 146.272 232.945C146.603 233.194 146.645 233.691 146.355 233.982L144.534 235.641C144.451 235.724 144.369 235.765 144.245 235.807L139.362 237.176C139.031 237.259 138.7 237.093 138.576 236.802L137.872 235.185C137.707 234.811 137.955 234.355 138.327 234.272L142.838 233.277C143.003 233.235 143.086 233.235 143.127 233.152Z" fill="#FFD0A6"/>
<defs>
<linearGradient id="paint0_linear" x1="18.85" y1="212.414" x2="163.759" y2="212.414" gradientUnits="userSpaceOnUse">
<stop stop-color="#2E256B"/>
<stop offset="1" stop-color="#5E72E4"/>
</linearGradient>
<linearGradient id="paint1_linear" x1="0.962499" y1="48.2726" x2="163.759" y2="48.2726" gradientUnits="userSpaceOnUse">
<stop stop-color="#6A5EBF"/>
<stop offset="1" stop-color="#5E72E4"/>
</linearGradient>
<linearGradient id="paint2_linear" x1="0.962499" y1="248.973" x2="18.8502" y2="248.973" gradientUnits="userSpaceOnUse">
<stop stop-color="#483CA6"/>
<stop offset="1" stop-color="#5E72E4"/>
</linearGradient>
<linearGradient id="paint3_linear" x1="212.764" y1="344.203" x2="267.911" y2="344.203" gradientUnits="userSpaceOnUse">
<stop stop-color="#2E256B"/>
<stop offset="1" stop-color="#5E72E4"/>
</linearGradient>
<linearGradient id="paint4_linear" x1="216.001" y1="343.291" x2="267.899" y2="343.291" gradientUnits="userSpaceOnUse">
<stop stop-color="#6A5EBF"/>
<stop offset="1" stop-color="#5E72E4"/>
</linearGradient>
<linearGradient id="paint5_linear" x1="190.984" y1="348.158" x2="223.095" y2="348.158" gradientUnits="userSpaceOnUse">
<stop stop-color="#2E256B"/>
<stop offset="1" stop-color="#5E72E4"/>
</linearGradient>
<linearGradient id="paint6_linear" x1="196.697" y1="348.258" x2="224.006" y2="348.258" gradientUnits="userSpaceOnUse">
<stop stop-color="#6A5EBF"/>
<stop offset="1" stop-color="#5E72E4"/>
</linearGradient>
<linearGradient id="paint7_linear" x1="186.421" y1="256.587" x2="245.582" y2="256.587" gradientUnits="userSpaceOnUse">
<stop stop-color="#2E256B"/>
<stop offset="1" stop-color="#5E72E4"/>
</linearGradient>
</defs>
</svg>
