<svg width="33" height="31" viewBox="0 0 33 31" fill="none" xmlns="http://www.w3.org/2000/svg">
<path d="M32.2264 15.3946C31.9457 14.3149 30.7735 13.6751 29.7126 14.0222L29.276 14.165C28.5634 12.214 27.281 10.5092 25.6147 9.17311C25.9215 8.03351 25.9449 6.72854 25.9048 5.79706C25.872 5.03529 25.1746 4.43833 24.4185 4.51438C22.5117 4.70671 21.2692 6.06338 20.7944 6.684C19.9088 6.42271 18.9853 6.2394 18.0359 6.14253C18.0734 5.89993 18.0929 5.65501 18.0929 5.4097C18.0929 2.75462 15.9328 0.594543 13.2778 0.594543C10.6227 0.594543 8.46262 2.75462 8.46262 5.4097C8.46262 6.30804 8.70528 7.16456 9.16786 7.91763C8.13926 8.49049 7.19579 9.18651 6.37047 9.99475C6.17976 10.1815 6.17653 10.4876 6.36332 10.6783C6.5501 10.8691 6.85613 10.8723 7.04691 10.6855C9.75135 8.03687 13.6336 6.82502 17.3696 7.05776C20.017 7.2227 22.6472 8.11827 24.7647 9.7325C24.7653 9.73295 24.766 9.7332 24.7666 9.73366C26.5383 11.0811 27.8681 12.8625 28.5109 14.9188C28.5928 15.1808 28.8929 15.3239 29.148 15.2241C29.148 15.2241 30.0127 14.9413 30.0131 14.9411C30.5535 14.7643 31.1479 15.0885 31.2906 15.6379C31.5592 16.6707 31.8879 18.5608 31.0735 19.614C30.6384 20.1766 29.8928 20.4636 28.857 20.4672C28.649 20.4586 28.4548 20.5855 28.3824 20.7862C27.6179 22.9061 26.0458 24.8132 23.9558 26.156C20.4248 28.4248 15.874 28.8843 11.9128 27.5616C11.8957 27.5559 11.8788 27.5501 11.8617 27.5443C7.842 26.1814 4.84377 23.0862 4.14188 19.346C3.96638 18.4065 3.93763 17.4402 4.06015 16.4923C4.26157 14.9337 4.86427 13.4308 5.83345 12.0911C5.98994 11.8748 5.94141 11.5726 5.7251 11.4161C5.5088 11.2595 5.20664 11.3081 5.05009 11.5244C4.10121 12.836 3.47183 14.2922 3.18907 15.8096C2.84857 15.6977 2.38663 15.5052 2.00597 15.2004C1.38432 14.7025 0.430999 15.1718 0.442859 15.9665C0.477212 18.2686 2.11438 19.354 3.25172 19.8309C3.6911 21.8477 4.74168 23.72 6.32523 25.2829C6.32606 26.5002 6.58007 29.0373 8.50457 30.648C8.77579 30.8749 9.12371 31 9.48433 31C9.48433 31 11.8991 31 11.9009 31C12.8779 31 13.6181 30.0605 13.3987 29.1104C13.3866 29.0576 13.3754 29.0044 13.3643 28.9513C14.3665 29.1541 15.4027 29.259 16.4576 29.259C17.0889 29.259 17.7137 29.2218 18.3287 29.1484C18.661 29.7317 19.0769 30.2356 19.5696 30.648C19.8408 30.8749 20.1887 31 20.5494 31C20.5494 31 22.9643 31 22.9659 31C23.943 31 24.6831 30.0604 24.4638 29.1104C24.4317 28.9717 24.1032 27.7226 23.9978 27.2641C24.1599 27.169 24.3202 27.0709 24.4783 26.9694C26.6443 25.5777 28.3009 23.6184 29.1739 21.4252C30.3657 21.3615 31.261 20.952 31.8383 20.2055C32.8519 18.8947 32.6088 16.8658 32.2264 15.3946ZM14.9305 6.13686C14.8998 6.13982 14.0583 6.23276 13.9365 6.26757C13.2867 6.37398 12.647 6.52074 12.0235 6.70855C11.6707 6.36973 11.4724 5.90779 11.4724 5.40976C11.4724 4.41435 12.2822 3.6045 13.2776 3.6045C14.2731 3.6045 15.0829 4.41435 15.0829 5.40976C15.083 5.66158 15.0307 5.90908 14.9305 6.13686ZM17.0681 6.07421C17.0641 6.07408 17.0601 6.07402 17.0562 6.07389C16.6938 6.05958 16.331 6.05906 15.9686 6.07047C16.0213 5.85533 16.0498 5.6338 16.0498 5.40976C16.0498 3.88126 14.8063 2.6377 13.2778 2.6377C11.7493 2.6377 10.5057 3.88126 10.5057 5.40976C10.5057 6.00163 10.6988 6.57443 11.0415 7.04461C10.6978 7.17507 10.3598 7.31706 10.0292 7.47252C9.63573 6.8568 9.42941 6.15091 9.42941 5.40976C9.42935 3.28778 11.1557 1.5614 13.2777 1.5614C15.3997 1.5614 17.1261 3.28778 17.1261 5.40976C17.1261 5.63232 17.1066 5.85462 17.0681 6.07421ZM24.7702 8.54521C23.8519 7.92008 22.8508 7.40484 21.7803 7.00665C22.268 6.45126 23.2098 5.60808 24.5153 5.47641C24.7367 5.45398 24.9294 5.62104 24.9388 5.83863C24.9659 6.46698 24.971 7.55424 24.7702 8.54521ZM1.41004 15.9617C1.96743 16.4052 2.62988 16.655 3.05656 16.7815C3.04392 16.9261 3.03426 17.071 3.02781 17.2163C3.00996 17.6217 3.02059 18.0261 3.0476 18.4307C3.05359 18.51 3.06055 18.5892 3.06835 18.6682C1.74752 17.9125 1.4257 16.8154 1.41004 15.9617ZM11.9009 30.0333H9.48439C9.35026 30.0333 9.22271 29.9883 9.12519 29.9067C7.88222 28.8664 7.46746 27.3255 7.34171 26.1843C7.34603 26.1878 7.35054 26.1911 7.35493 26.1946C8.80441 27.348 10.4999 28.1976 12.3362 28.7057C12.3689 28.9137 12.4092 29.122 12.4568 29.328C12.5387 29.6822 12.2657 30.0333 11.9009 30.0333ZM22.966 30.0333H20.5494C20.4153 30.0333 20.2877 29.9884 20.1902 29.9067C19.8779 29.6453 19.602 29.3379 19.3657 28.9886C20.681 28.7394 21.9419 28.3203 23.1166 27.7398C23.2083 28.1209 23.4931 29.2035 23.5218 29.328C23.6037 29.6824 23.331 30.0333 22.966 30.0333Z" fill="white"/>
</svg>
