<svg width="3000" height="1909" viewBox="0 0 3000 1909" fill="none" xmlns="http://www.w3.org/2000/svg">
<g clip-path="url(#clip0)">
<path d="M2426.78 397.168C2408.69 397.737 2390.47 394.385 2373.76 387.43C2366.74 384.458 2359.65 380.853 2352.06 380.79C2339.6 380.6 2329.28 389.832 2320.3 398.369C2278.29 438.523 2236.34 478.613 2194.33 518.703L2193.19 519.209C2192.75 517.944 2192.18 516.743 2191.61 515.478C2186.29 504.033 2180.73 492.714 2174.78 481.458C2170.86 473.997 2166.81 466.598 2162.5 459.327L2163.9 458.568C2189.33 435.993 2215.21 413.039 2245.89 398.243C2254.63 394.069 2263.8 390.528 2271.9 385.153C2291.89 372.19 2304.86 349.299 2326.69 339.688C2339.79 333.934 2354.47 333.744 2368.51 330.835C2382.37 327.99 2395.78 322.488 2407.55 314.71C2412.29 311.612 2420.46 309.272 2421.98 314.71C2422.35 315.912 2422.04 317.24 2421.79 318.504C2419.25 330.456 2414.07 341.775 2406.73 351.449C2403.5 355.623 2399.83 359.986 2398.63 364.855C2398.25 366.246 2398.12 367.637 2398.25 369.155C2399.51 382.877 2421.22 384.584 2426.78 397.168Z" fill="#E5913C"/>
<path d="M1970.67 402.922C1970.99 400.961 1971.68 399.064 1972.44 397.167C1975.16 391.097 1981.68 385.469 1987.94 387.682C1992.62 389.389 1994.9 394.891 1995.16 399.886C1995.47 404.882 1994.27 409.941 1994.71 414.873C1994.97 418.034 1995.98 421.323 1998.57 423.093C2001.86 425.37 2006.54 424.358 2009.77 422.018C2013.06 419.742 2015.34 416.39 2018.12 413.482C2024.32 407.158 2032.99 403.364 2041.79 403.048C2051.85 402.732 2062.1 406.779 2071.84 404.376C2081.71 401.973 2089.17 393.436 2099.04 391.35C2106.57 389.832 2114.29 392.235 2121.95 392.804C2123.4 392.931 2124.86 392.994 2126.31 392.867C2123.47 412.09 2116.19 430.555 2108.98 448.766C2105.31 457.872 2101.77 466.978 2098.1 476.083C2097.91 476.652 2097.65 477.285 2097.34 477.854C2091.83 491.892 2085.88 506.183 2075.51 517.059C2064.69 528.441 2047.86 535.586 2032.99 530.465C2029.45 529.263 2026.22 527.493 2023.25 525.153C2007.75 525.026 1992.31 521.106 1978.64 513.771C1977.95 513.391 1977.25 513.012 1976.87 512.316C1976.55 511.684 1976.68 510.799 1976.81 510.04C1977.95 503.084 1979.84 496.192 1981.62 489.299C1984.4 478.423 1986.93 467.547 1986.3 456.481C1985.54 451.612 1985.16 446.679 1985.16 441.747C1985.16 439.913 1985.1 437.89 1984.15 436.183C1983.39 434.791 1982.06 433.78 1980.73 432.768C1972.31 425.686 1968.46 413.735 1970.67 402.922Z" fill="#E5913C"/>
<path d="M1810.34 1230.02C1843.31 1244.5 1880.51 1248.99 1916.83 1252.4C1903.35 1280.73 1888.8 1308.56 1873.17 1335.81C1867.29 1346.05 1861.02 1356.49 1851.41 1363.38C1839.89 1371.6 1824.39 1373.56 1810.66 1369.7C1796.99 1365.72 1785.22 1356.3 1777.25 1344.54C1771.24 1335.81 1767.32 1325.76 1762.38 1316.33C1755.99 1304.13 1747.77 1292.87 1740.11 1281.43L1743.97 1279.34C1747.96 1269.22 1753.59 1259.68 1760.42 1251.27C1769.98 1239.38 1782 1229.58 1795.6 1222.62C1800.41 1225.34 1805.34 1227.81 1810.34 1230.02Z" fill="#E5913C"/>
<path d="M2045.01 942.246C2002.94 937.187 1961.05 923.086 1928.28 896.275C1933.09 894.441 1937.83 892.101 1942.64 890.141C1965.42 880.719 1990.73 877.494 2015.15 880.782C2036.22 883.691 2056.21 891.342 2076.97 895.706C2077.28 895.769 2077.6 895.832 2077.85 895.832C2104.23 901.333 2131.38 901.65 2158.33 902.788C2163.33 903.041 2168.58 903.357 2173.58 904.369L2173.45 905.886C2173.58 916.826 2174.34 927.639 2175.6 938.389C2132.26 943.637 2088.35 947.431 2045.01 942.246Z" fill="#E5913C"/>
<path d="M1322.28 645.359C1328.42 658.386 1331.9 672.993 1331.9 688.358C1331.9 716.751 1320.25 742.36 1301.46 760.698C1283.18 778.593 1258.12 789.659 1230.54 789.659C1174.61 789.659 1129.18 744.321 1129.18 688.358C1129.18 639.984 1163.15 599.451 1208.58 589.524C1215.67 587.88 1222.94 587.058 1230.54 587.058C1246.86 587.058 1262.3 590.915 1275.96 597.807C1286.47 603.119 1295.96 610.138 1303.93 618.548C1311.46 626.389 1317.66 635.432 1322.28 645.359Z" fill="#FF6712"/>
<path d="M1798.14 482.087C1794.53 550.506 1799.34 621.392 1774.66 685.385C1771.56 693.415 1767.45 701.889 1761.31 707.706C1758.4 710.425 1755.11 712.575 1751.25 713.84C1744.92 715.927 1738.09 715.231 1731.51 714.409C1674.51 706.884 1620.66 685.005 1566.44 665.845C1563.02 664.581 1559.61 663.379 1556.25 662.178C1540.75 656.74 1524.74 651.618 1508.36 651.618H1507.28C1499.12 651.744 1490.77 653.135 1482.92 650.796C1467.93 646.306 1457.87 628.79 1442.18 629.043C1434.14 629.233 1427.18 634.102 1419.72 637.137C1410.1 640.994 1399.28 641.627 1389.22 638.908C1402.57 625.312 1420.41 616.27 1439.2 613.488C1422.18 610.263 1405.23 607.101 1388.27 603.813C1386.94 603.623 1385.55 603.307 1384.22 602.991L1384.09 603.433C1371.25 612.602 1358.47 621.834 1345.63 631.067C1338.22 636.441 1330.63 641.816 1322.28 645.357C1317.66 635.43 1311.46 626.324 1303.93 618.483C1295.96 610.073 1286.47 603.054 1275.97 597.805C1290.39 583.831 1304.94 570.109 1320.51 557.525C1349.74 533.749 1383.53 512.693 1400.61 479.115C1407.44 465.71 1411.24 450.976 1418.45 437.824C1437.18 403.804 1475.27 386.035 1503.23 358.971C1503.04 359.35 1502.85 359.793 1502.66 360.235C1499.94 366.622 1499.44 373.767 1498.42 380.66C1496.53 393.876 1492.73 406.776 1489.06 419.612C1483.68 438.456 1478.43 457.236 1479.32 476.649C1479.63 483.984 1480.83 491.13 1482.54 498.212L1481.91 498.338C1463.75 523.759 1443.06 547.471 1420.48 568.971C1429.9 570.741 1439.33 572.828 1448.31 575.927C1462.17 580.859 1474.89 588.32 1487.86 595.339C1487.92 595.339 1487.92 595.403 1487.98 595.403C1492.29 597.806 1496.59 600.082 1500.95 602.169C1508.04 605.647 1515.32 608.745 1522.85 610.832C1535.56 614.499 1548.85 615.574 1562.01 616.46C1565.55 616.712 1569.1 616.902 1572.64 617.092C1619.4 620.127 1666.28 621.771 1713.16 621.961C1707.34 591.545 1705.95 560.245 1709.24 529.513L1708.61 529.45C1698.61 509.973 1698.23 487.146 1699.69 465.33C1700.95 446.613 1703.48 427.896 1709.37 410.064C1709.94 408.293 1710.57 406.586 1711.27 404.879C1716.33 391.346 1723.6 378.447 1733.35 367.823L1733.41 367.887C1762.26 381.166 1788.96 403.993 1796.49 434.725C1800.29 450.091 1799.02 466.216 1798.14 482.087Z" fill="#FFD4A1"/>
<path d="M1506.52 1202.7C1501.52 1222.56 1493.61 1241.47 1485.83 1260.44C1465.9 1309.13 1447.11 1359.02 1441.16 1411.31C1437.94 1408.53 1433.51 1407.2 1429.2 1406.25C1421.61 1404.67 1413.83 1403.98 1406.11 1404.29H1405.61C1400.1 1404.48 1394.34 1405.5 1390.74 1409.54C1389.41 1411.12 1388.52 1413.02 1387.83 1414.98C1397.7 1361.29 1396.62 1306.34 1398.46 1251.77C1400.29 1196.95 1405.42 1141.05 1426.93 1090.59C1432.75 1076.99 1439.71 1063.91 1445.02 1050.12C1450.65 1035.51 1454.51 1020.46 1457.04 1005.22C1457.17 1004.47 1457.3 1003.71 1457.36 1003.01C1462.04 973.986 1462.42 943.95 1462.74 914.483L1462.49 913.598C1465.52 912.776 1468.69 912.27 1471.79 911.764C1488.81 909.361 1506.14 908.919 1523.29 910.499C1529.11 911.005 1534.8 911.764 1540.5 912.713C1554.42 915.052 1568.46 918.973 1579.91 927.256C1581.18 928.205 1582.45 929.217 1583.65 930.292L1582.89 931.177C1578.33 955.206 1570.99 978.476 1562.83 1001.62C1562.64 1001.81 1562.39 1001.94 1562.14 1002.13V1003.45C1561.95 1004.09 1561.76 1004.72 1561.5 1005.41C1545.69 1049.42 1526.89 1092.68 1518.04 1138.58C1513.86 1159.89 1511.9 1181.65 1506.52 1202.7Z" fill="#FFD4A1"/>
<path d="M1625.6 1122.4C1634.01 1147.25 1633.25 1175.2 1623.32 1199.54C1619.21 1209.66 1613.58 1219.15 1608.07 1228.63C1591.12 1257.47 1574.6 1286.81 1562.96 1318.04C1560.81 1323.67 1558.85 1329.3 1557.14 1334.99C1555.75 1339.61 1554.36 1344.35 1551.13 1347.89C1547.84 1351.43 1543.16 1353.14 1538.47 1354.21C1536.39 1354.72 1534.24 1355.1 1532.08 1355.41C1526.45 1356.3 1520.76 1356.36 1515.13 1355.73C1510.7 1355.29 1506.08 1354.28 1502.85 1351.18C1499.31 1347.76 1498.23 1342.45 1498.8 1337.65C1499.37 1332.84 1501.33 1328.22 1503.23 1323.73C1509.37 1309.13 1514.68 1294.27 1519.37 1279.22C1534.61 1229.83 1542.84 1178.23 1550.31 1126.82C1551.19 1120.88 1552.01 1114.94 1552.9 1109.06C1553.6 1108.93 1554.36 1108.8 1555.05 1108.68C1573.59 1112.34 1592.06 1115.95 1610.6 1119.55C1615.6 1120.56 1620.6 1121.51 1625.6 1122.02V1122.4V1122.4Z" fill="#FFD4A1"/>
<path d="M1539.48 295.298C1535.75 289.543 1534.61 282.019 1536.64 275.569C1537.21 273.672 1538.16 271.838 1539.29 270.194C1543.6 263.934 1552.26 260.898 1559.41 263.112V263.301C1565.17 267.348 1573.59 265.198 1578.65 260.266C1583.71 255.334 1586.18 248.378 1588.14 241.612C1590.1 234.846 1591.87 227.827 1595.98 222.136C1603.96 211.26 1618.38 207.908 1631.73 206.074C1644.39 204.367 1657.86 203.039 1667.99 195.451C1687.28 234.087 1689.88 279.489 1682.6 322.046C1682.29 324.006 1681.97 325.966 1681.59 327.863C1680.89 331.215 1680.07 334.566 1678.93 337.791L1679.69 338.044C1680.77 346.011 1677.1 353.789 1673.43 360.935C1662.1 382.94 1649.38 405.198 1631.73 422.082C1626.8 426.888 1621.55 431.187 1615.79 434.982C1608.13 440.04 1599.53 444.087 1590.35 444.593C1581.24 445.225 1571.5 441.684 1566.25 434.223C1562.7 429.101 1561.5 422.777 1560.55 416.58C1556.25 389.263 1554.35 361.504 1554.92 333.87C1555.11 325.018 1555.55 316.102 1556.19 307.249L1556.25 307.059C1549.48 305.099 1543.41 301.115 1539.48 295.298Z" fill="#FFD4A1"/>
<path d="M1523.35 910.502C1506.21 908.921 1488.87 909.364 1471.79 911.767C1468.75 912.273 1465.59 912.779 1462.49 913.601C1455.53 915.308 1448.95 918.217 1444.39 923.718C1437.18 932.444 1437.43 945.091 1439.46 956.284C1442.49 972.788 1448.57 988.723 1457.36 1003.01C1457.3 1003.71 1457.17 1004.47 1457.05 1005.23C1445.72 992.643 1435.66 978.985 1426.87 964.567C1422.06 956.663 1417.5 948.063 1417 938.831C1416.49 929.156 1420.41 919.798 1425.54 911.641C1430.66 903.483 1437.05 896.148 1442.3 888.054C1453.76 870.412 1459.39 849.545 1462.61 828.678C1465.78 807.874 1466.66 786.753 1469.57 765.886C1471.41 752.544 1474.26 738.885 1482.04 727.946C1487.8 719.915 1496.02 713.781 1505.26 710.493C1507.47 717.006 1512.53 722.634 1517.6 727.566C1559.99 768.605 1619.84 789.093 1678.87 789.725C1698.49 789.915 1718.35 788.081 1736.76 781.252C1740.12 779.987 1743.53 778.47 1745.94 775.877C1746.89 774.865 1747.65 773.727 1748.28 772.526C1749.42 770.376 1750.11 767.973 1750.81 765.633C1750.87 765.507 1750.94 765.317 1750.94 765.127L1752.14 765.444C1761.88 779.798 1765.43 797.756 1764.73 815.145C1764.03 832.535 1759.23 849.482 1753.59 865.986C1738.54 909.617 1716.96 950.719 1703.17 994.73C1697.85 1011.68 1693.61 1029.26 1684.44 1044.5C1677.29 1056.32 1667.1 1066.94 1664.45 1080.48C1662.61 1089.58 1664.32 1099.51 1660.27 1107.79C1656.22 1116.08 1647.11 1120.76 1637.94 1121.96C1633.89 1122.53 1629.77 1122.46 1625.66 1122.08C1620.66 1121.58 1615.6 1120.63 1610.67 1119.62C1592.13 1116.01 1573.65 1112.35 1555.12 1108.68C1562.83 1107.35 1570.49 1105.52 1577.51 1102.1C1587.32 1097.36 1595.92 1089.01 1598.27 1078.39C1599.4 1073.14 1599.09 1067.26 1602.25 1062.96C1604.85 1059.54 1609.08 1057.84 1613.13 1056.51C1625.09 1052.4 1637.43 1049.17 1648.38 1042.85C1659.26 1036.53 1668.75 1026.28 1670.58 1013.76C1671.79 1005.29 1669.44 996.69 1669.89 988.154C1670.65 974.242 1678.81 961.912 1688.05 951.478C1697.28 941.044 1707.91 931.749 1715.51 920.114C1719.11 914.549 1722.02 908.099 1720.82 901.65C1719.24 892.86 1710.95 887.232 1704.88 880.656C1697.22 872.435 1692.66 861.939 1686.27 852.706C1679.95 843.538 1670.39 835.127 1659.19 835.127C1645.15 835.064 1634.27 848.407 1630.85 862.065C1627.5 875.724 1629.46 890.078 1628.95 904.116C1627.31 946.482 1600.54 986.889 1562.26 1005.1C1562.26 1004.59 1562.26 1004.03 1562.2 1003.52C1562.45 1002.89 1562.64 1002.25 1562.9 1001.69C1574.54 994.161 1583.97 983.158 1589.6 970.448C1593.65 961.469 1595.73 950.909 1592.06 941.74C1590.29 937.377 1587.26 933.583 1583.71 930.358C1582.51 929.283 1581.25 928.271 1579.92 927.323C1568.47 919.039 1554.42 915.118 1540.56 912.779C1534.87 911.767 1529.11 911.008 1523.35 910.502Z" fill="#FF6712"/>
<path d="M1572.64 617.159C1619.4 620.195 1666.28 621.775 1713.16 621.965C1707.34 591.613 1705.95 560.249 1709.24 529.517L1708.61 529.454C1698.55 510.041 1698.17 487.15 1699.69 465.335C1700.95 446.617 1703.48 427.9 1709.37 410.068C1709.94 408.297 1710.57 406.59 1711.26 404.883C1726.07 408.045 1738.72 419.174 1746 432.643C1753.91 447.186 1756.12 464.133 1755.74 480.7C1755.43 497.204 1752.58 513.582 1750.93 530.023C1748.91 550.637 1748.72 571.315 1750.3 591.992C1751.95 613.112 1754.86 636.888 1741.25 653.139C1731.32 664.964 1714.74 669.454 1699.31 668.695C1683.87 667.936 1669.06 662.751 1654.26 658.261C1636.61 652.95 1618.64 648.65 1600.54 645.362C1583.02 642.2 1565.24 639.987 1548.53 633.916C1525.95 625.696 1506.58 610.899 1487.98 595.47C1492.29 597.873 1496.65 600.149 1500.95 602.236C1508.04 605.714 1515.32 608.749 1522.85 610.899C1535.56 614.503 1548.85 615.578 1562.01 616.464C1565.62 616.717 1569.1 616.97 1572.64 617.159Z" fill="#F4A958"/>
<path d="M1751.32 713.84C1755.17 712.575 1758.46 710.425 1761.38 707.706C1759.86 727.119 1756.38 746.342 1751.06 764.996C1751 765.122 1750.94 765.312 1750.94 765.502C1750.24 767.841 1749.54 770.244 1748.4 772.394L1748.03 772.141C1746.25 754.056 1729.3 740.651 1711.64 736.098C1693.99 731.545 1675.45 733.822 1657.3 734.327C1643.31 734.707 1629.33 734.074 1615.47 732.494C1606.43 731.419 1597.38 729.838 1589.22 725.917C1568.46 715.737 1557.83 688.799 1566.06 667.299L1566.57 665.908C1620.79 685.131 1674.63 707.01 1731.64 714.472C1738.15 715.294 1744.99 715.926 1751.32 713.84Z" fill="#24B8BB"/>
<path d="M1505.32 710.49C1504.62 708.593 1504.24 706.633 1504.05 704.546C1503.67 699.234 1505.32 694.112 1506.58 688.99C1509.43 677.482 1510 665.404 1508.36 653.643V651.619C1524.74 651.619 1540.75 656.804 1556.25 662.242C1559.67 663.444 1563.02 664.645 1566.44 665.847L1565.93 667.238C1557.71 688.801 1568.4 715.738 1589.09 725.856C1597.19 729.84 1606.3 731.357 1615.35 732.432C1629.2 734.076 1643.18 734.645 1657.17 734.266C1675.39 733.76 1693.93 731.484 1711.52 736.037C1729.17 740.589 1746.13 753.995 1747.9 772.08L1748.28 772.333C1747.64 773.534 1746.88 774.672 1745.94 775.684C1743.53 778.34 1740.11 779.794 1736.76 781.059C1718.35 787.888 1698.48 789.722 1678.87 789.532C1619.84 788.9 1559.98 768.412 1517.59 727.373C1512.6 722.568 1507.6 716.94 1505.32 710.49Z" fill="#24EEE1"/>
<path d="M1711.27 404.88C1710.57 406.587 1709.94 408.295 1709.37 410.065C1703.48 427.897 1700.95 446.615 1699.69 465.332C1698.23 487.084 1698.61 509.975 1708.61 529.451L1709.24 529.514C1705.95 560.246 1707.34 591.61 1713.16 621.962C1666.28 621.773 1619.4 620.129 1572.64 617.157C1580.23 607.988 1583.21 595.278 1580.42 583.706C1575.87 564.546 1557.46 551.267 1552.2 532.297C1549.17 521.61 1550.81 509.596 1556.63 500.111C1562.77 490.12 1572.89 483.227 1583.4 477.979C1593.84 472.73 1604.97 468.746 1615.09 462.866C1621.49 459.135 1627.56 454.519 1631.61 448.322C1635.66 442.125 1637.3 434.031 1634.65 427.138C1633.95 425.305 1633 423.661 1631.8 422.08C1649.45 405.196 1662.17 382.938 1673.49 360.932C1677.16 353.787 1680.83 346.009 1679.76 337.979L1679.06 337.726C1680.14 334.501 1680.96 331.149 1681.72 327.798C1688.99 331.782 1696.21 335.702 1703.42 339.686C1715.76 346.389 1728.16 353.281 1738.66 362.64C1736.89 364.284 1735.18 366.054 1733.47 367.825C1723.6 378.512 1716.33 391.348 1711.27 404.88Z" fill="#24B8BB"/>
<path d="M1720.75 901.645C1721.96 908.095 1719.05 914.608 1715.44 920.11C1707.91 931.745 1697.22 941.103 1687.98 951.474C1678.74 961.907 1670.58 974.238 1669.82 988.149C1669.38 996.686 1671.72 1005.29 1670.52 1013.76C1668.68 1026.28 1659.19 1036.52 1648.31 1042.85C1637.43 1049.17 1625.03 1052.4 1613.07 1056.51C1609.02 1057.83 1604.78 1059.54 1602.19 1062.96C1598.96 1067.26 1599.34 1073.14 1598.2 1078.38C1595.86 1089.01 1587.25 1097.35 1577.45 1102.1C1570.42 1105.51 1562.77 1107.35 1555.05 1108.67C1554.35 1108.55 1553.66 1108.42 1553.03 1108.29C1550.94 1107.85 1548.72 1107.41 1547.01 1106.14C1541.57 1102.16 1543.85 1093.75 1546.38 1087.49C1556.88 1061.44 1562.33 1033.17 1562.26 1005.03C1600.54 986.821 1627.3 946.415 1628.95 904.048C1629.46 890.01 1627.49 875.656 1630.85 861.997C1634.26 848.339 1645.15 834.997 1659.19 835.06C1670.39 835.06 1679.95 843.47 1686.27 852.639C1692.66 861.871 1697.22 872.368 1704.87 880.588C1710.88 887.228 1719.17 892.856 1720.75 901.645Z" fill="#D84E09"/>
<path d="M1679.69 338.044C1680.77 346.011 1677.1 353.789 1673.43 360.998C1662.1 383.003 1649.39 405.198 1631.73 422.145C1628.95 418.351 1625.09 415.189 1621.42 412.027C1590.42 385.216 1568.53 348.035 1560.17 307.944C1560.74 308.071 1561.38 308.197 1561.95 308.261C1564.73 308.577 1567.64 308.577 1570.23 309.652C1574.41 311.422 1576.94 315.659 1579.41 319.516C1592.38 339.372 1613.26 354.042 1636.35 359.606C1644.96 361.63 1654.38 362.452 1662.42 358.532C1668.94 355.433 1673.74 349.489 1676.85 343.039C1677.67 341.395 1678.3 339.688 1678.93 337.98L1679.69 338.044Z" fill="#F4A958"/>
<path d="M1668.05 195.513C1657.93 203.038 1644.39 204.366 1631.8 206.136C1618.45 207.97 1603.96 211.322 1596.05 222.198C1591.87 227.889 1590.1 234.908 1588.14 241.674C1586.18 248.44 1583.78 255.459 1578.65 260.328C1573.59 265.26 1565.17 267.41 1559.42 263.363L1559.48 263.174C1552.33 260.96 1543.66 264.059 1539.3 270.319C1538.16 271.963 1537.27 273.734 1536.64 275.694C1529.05 273.164 1523.23 265.829 1521.2 257.988C1518.86 248.693 1520.82 238.765 1524.05 229.786C1527.28 220.807 1531.77 212.207 1534.68 203.038C1537.59 193.553 1538.98 183.119 1545.31 175.531C1551.06 168.828 1559.86 165.477 1568.46 163.517C1577.13 161.556 1586.05 160.671 1594.34 157.573C1605.54 153.273 1616.11 144.736 1628 146.38C1636.23 147.455 1642.93 153.336 1649.07 158.901C1656.16 165.287 1663.24 171.674 1670.27 178.124C1671.97 179.705 1673.75 181.349 1674.44 183.499C1675.71 187.546 1672.8 191.719 1669.57 194.438C1669.13 194.691 1668.56 195.134 1668.05 195.513Z" fill="#393B54"/>
<path d="M1503.29 359.035C1508.04 349.36 1517.59 342.531 1527.78 338.864C1536.45 335.765 1545.68 334.627 1554.92 333.868C1554.42 361.501 1556.25 389.261 1560.55 416.578C1561.5 422.712 1562.7 429.099 1566.31 434.221C1571.5 441.745 1581.24 445.223 1590.42 444.654C1599.59 444.148 1608.2 440.038 1615.85 434.979C1621.61 431.185 1626.86 426.885 1631.8 422.08C1633 423.66 1633.95 425.305 1634.64 427.138C1637.3 434.094 1635.65 442.125 1631.61 448.322C1627.56 454.519 1621.55 459.135 1615.09 462.866C1604.97 468.746 1593.83 472.73 1583.39 477.978C1572.89 483.227 1562.77 490.119 1556.63 500.11C1550.81 509.595 1549.16 521.61 1552.2 532.296C1557.52 551.267 1575.93 564.546 1580.42 583.706C1583.2 595.277 1580.23 607.988 1572.64 617.156C1569.09 616.967 1565.55 616.714 1562.01 616.461C1548.85 615.576 1535.56 614.501 1522.84 610.896C1515.31 608.746 1508.04 605.711 1500.95 602.233L1501.46 601.158C1507.03 580.544 1501.9 558.665 1495.26 538.43C1490.89 525.088 1485.77 511.809 1482.54 498.277C1480.83 491.194 1479.63 484.049 1479.31 476.714C1478.43 457.301 1483.68 438.52 1489.06 419.677C1492.73 406.777 1496.52 393.877 1498.42 380.725C1499.43 373.769 1499.94 366.687 1502.66 360.3C1502.91 359.794 1503.1 359.415 1503.29 359.035Z" fill="#24EEE1"/>
<path d="M1592.06 941.737C1595.73 950.906 1593.64 961.466 1589.59 970.445C1583.96 983.155 1574.54 994.158 1562.89 1001.68C1571.06 978.539 1578.4 955.269 1582.89 931.24L1583.71 930.354C1587.25 933.516 1590.29 937.31 1592.06 941.737Z" fill="#393B54"/>
<path d="M1519.37 1279.22C1534.61 1229.89 1542.9 1178.23 1550.31 1126.89L1550.81 1127.01C1549.74 1136.5 1551.51 1146.24 1556.06 1154.65C1561.38 1164.32 1569.86 1171.72 1577.2 1180C1584.54 1188.29 1590.99 1198.28 1590.74 1209.34C1590.42 1218.83 1585.29 1227.3 1580.49 1235.4C1558.72 1272.58 1542.33 1312.92 1531.96 1354.72L1532.08 1355.54C1526.45 1356.43 1520.7 1356.49 1515.06 1355.86C1510.7 1355.35 1506.02 1354.4 1502.85 1351.24C1499.31 1347.83 1498.23 1342.58 1498.8 1337.71C1499.37 1332.9 1501.33 1328.29 1503.23 1323.8C1509.37 1309.13 1514.68 1294.33 1519.37 1279.22Z" fill="#F4A958"/>
<path d="M1562.2 1002.13C1562.2 1002.63 1562.2 1003.01 1562.2 1003.52C1561.95 1004.15 1561.76 1004.78 1561.51 1005.42C1545.69 1049.43 1526.9 1092.74 1518.04 1138.59C1513.86 1159.9 1511.9 1181.65 1506.59 1202.71C1501.59 1222.5 1493.62 1241.47 1485.9 1260.38C1465.97 1309.07 1447.11 1359.02 1441.23 1411.32C1438 1408.47 1433.51 1407.14 1429.27 1406.26C1421.68 1404.61 1413.9 1403.98 1406.11 1404.23C1405.92 1404.23 1405.8 1404.23 1405.61 1404.23C1405.73 1315.33 1461.47 1233.31 1464.77 1144.09C1465.65 1121.64 1463.12 1098.81 1468.18 1076.87C1473.37 1054.11 1486.34 1034 1496.53 1012.88C1511.96 980.882 1521.14 945.85 1523.35 910.439C1529.11 910.945 1534.87 911.704 1540.56 912.653C1554.48 915.056 1568.53 918.913 1579.92 927.196C1581.18 928.145 1582.51 929.157 1583.71 930.232L1582.89 931.117C1578.34 955.146 1571.06 978.416 1562.9 1001.56C1562.71 1001.81 1562.45 1002 1562.2 1002.13Z" fill="#F4A958"/>
<path d="M1562.96 1318.1C1568.91 1329.87 1569.35 1343.84 1566.76 1356.8C1564.1 1369.77 1558.72 1381.91 1553.41 1393.98C1547.21 1407.96 1541.01 1421.87 1534.74 1435.78C1529.11 1448.43 1523.29 1461.27 1514.24 1471.76C1501.59 1486.31 1483.62 1494.91 1466.03 1502.94C1457.05 1480.68 1449.83 1457.66 1448.06 1433.82C1463.44 1404.67 1474.95 1373.43 1482.61 1341.31C1485.64 1328.6 1488.11 1315.64 1493.87 1303.94C1499.25 1293.06 1508.04 1283.2 1519.37 1279.28C1514.69 1294.39 1509.37 1309.25 1503.23 1323.86C1501.34 1328.35 1499.37 1332.9 1498.8 1337.77C1498.23 1342.58 1499.31 1347.89 1502.85 1351.3C1506.08 1354.4 1510.7 1355.41 1515.06 1355.92C1520.7 1356.55 1526.45 1356.42 1532.08 1355.6C1534.24 1355.29 1536.32 1354.91 1538.41 1354.4C1543.09 1353.33 1547.78 1351.55 1551.07 1348.08C1554.29 1344.54 1555.68 1339.79 1557.08 1335.18C1558.91 1329.3 1560.87 1323.67 1562.96 1318.1Z" fill="#393B54"/>
<path d="M1482.61 498.215L1481.97 498.342C1463.75 523.762 1443.13 547.411 1420.54 568.974C1417.5 568.405 1414.4 567.836 1411.3 567.33C1400.67 565.496 1389.35 563.726 1379.48 567.962C1369.61 572.199 1362.65 585.036 1368.47 594.078C1371.82 599.326 1378.02 601.603 1384.28 602.994L1384.16 603.437C1371.31 612.669 1358.47 621.901 1345.63 631.07C1338.22 636.445 1330.69 641.82 1322.28 645.361C1317.66 635.433 1311.46 626.327 1303.93 618.55C1309.75 613.364 1315.45 607.926 1320.89 602.362C1332.53 590.474 1343.41 577.827 1355.56 566.445C1365.05 557.592 1375.3 549.561 1385.17 541.151C1425.98 506.499 1461.22 465.334 1489 419.679C1483.62 438.522 1478.37 457.24 1479.25 476.716C1479.7 483.988 1480.9 491.133 1482.61 498.215Z" fill="#F4A958"/>
<path d="M1405.6 1404.3C1405.79 1404.3 1405.92 1404.3 1406.11 1404.3C1413.83 1403.98 1421.61 1404.67 1429.27 1406.32C1433.51 1407.2 1437.94 1408.53 1441.23 1411.38C1441.67 1411.69 1442.05 1412.07 1442.36 1412.45C1447.17 1417.57 1447.49 1425.23 1447.93 1432.24C1448 1432.75 1448.06 1433.32 1448.06 1433.83C1449.83 1457.66 1457.04 1480.68 1466.03 1502.94C1468.24 1508.44 1470.58 1513.88 1472.92 1519.25C1474.76 1523.43 1476.72 1527.79 1476.53 1532.41C1476.4 1534.43 1475.9 1536.33 1475.14 1538.1C1462.67 1525.96 1445.97 1515.78 1428.76 1518.69C1418.51 1520.39 1409.65 1526.59 1400.67 1531.84C1391.75 1537.09 1381.56 1541.64 1371.38 1539.81C1369.16 1531.14 1369.41 1521.97 1369.92 1513.06C1370.74 1496.93 1372.13 1480.81 1374.29 1464.75C1375.11 1458.8 1376.12 1452.54 1378.52 1447.1C1381.31 1437.62 1384.03 1428.07 1386.75 1418.59C1387.07 1417.45 1387.45 1416.31 1387.83 1415.17C1387.83 1415.04 1387.89 1415.04 1387.89 1414.98C1388.58 1413.02 1389.53 1411.19 1390.86 1409.61C1394.34 1405.56 1400.16 1404.55 1405.6 1404.3Z" fill="#393B54"/>
<path d="M1475.14 1538.04C1473.37 1541.96 1470.14 1545.24 1466.41 1547.52C1460.97 1550.75 1454.58 1552.01 1448.38 1552.9C1427.56 1555.93 1406.3 1555.8 1385.55 1552.39C1382.13 1551.88 1378.53 1551.13 1375.87 1548.79C1373.66 1546.76 1372.52 1543.85 1371.69 1541.01C1371.57 1540.63 1371.44 1540.19 1371.38 1539.81C1381.56 1541.64 1391.75 1537.09 1400.67 1531.84C1409.66 1526.59 1418.51 1520.39 1428.76 1518.69C1445.91 1515.71 1462.68 1525.89 1475.14 1538.04Z" fill="#E2E2E2"/>
<path d="M1462.49 913.601L1462.74 914.486C1462.42 944.016 1462.05 973.989 1457.36 1003.01C1448.57 988.723 1442.49 972.851 1439.46 956.284C1437.43 945.091 1437.18 932.444 1444.39 923.718C1448.95 918.28 1455.53 915.371 1462.49 913.601Z" fill="#393B54"/>
<path d="M1263.06 768.795C1276.22 768.542 1289.57 766.139 1301.46 760.701C1283.18 778.596 1258.12 789.662 1230.54 789.662C1174.61 789.662 1129.18 744.323 1129.18 688.361C1129.18 639.987 1163.15 599.454 1208.58 589.526C1188.02 600.276 1173.4 620.637 1165.94 642.58C1158.41 664.712 1157.4 689.563 1166.25 711.189C1173.78 729.653 1188.21 745.019 1205.54 754.883C1222.94 764.748 1243.06 769.111 1263.06 768.795Z" fill="#D84E09"/>
<path d="M1835.59 806.161L1732.9 930.985C1712.4 948.121 1689.81 964.119 1677.22 987.706C1667.35 1006.11 1664.57 1027.67 1653.81 1045.5C1645.02 1060.17 1631.48 1071.3 1618.32 1082.11C1614.08 1085.53 1609.02 1089.26 1603.7 1087.93C1608.57 1073.89 1613.51 1059.86 1618.38 1045.82C1613 1043.79 1607.18 1047.08 1602.75 1050.69C1592.82 1058.65 1584.72 1068.96 1579.28 1080.47C1575.04 1089.39 1572.32 1099.25 1566.31 1107.22C1563.97 1110.32 1560.87 1113.1 1557.45 1115.12C1552.2 1118.22 1546.19 1119.42 1540.56 1117.27C1538.91 1116.64 1537.2 1115.56 1536.51 1113.92C1535.87 1112.66 1535.94 1111.08 1536.19 1109.62C1537.01 1102.22 1539.67 1095.01 1543.85 1088.82C1539.16 1091.66 1534.42 1094.51 1529.67 1097.29C1527.02 1098.87 1522.84 1100.07 1521.39 1097.35C1520.69 1095.84 1521.32 1094.07 1522.02 1092.48C1541.89 1047.52 1582.32 1015.59 1614.9 978.6C1628.38 963.36 1640.59 946.983 1652.86 930.668C1699.43 868.509 1746 806.414 1792.5 744.191C1801.23 748.618 1810.21 752.665 1819.2 756.838C1830.46 761.96 1841.66 767.209 1852.1 773.279C1847.1 784.471 1841.6 795.474 1835.59 806.161Z" fill="#F4A958"/>
<path d="M1810.34 1230.02C1843.31 1244.5 1880.51 1248.99 1916.83 1252.4C1903.35 1280.73 1888.8 1308.56 1873.17 1335.81C1867.29 1346.05 1861.02 1356.49 1851.41 1363.38C1839.89 1371.6 1824.39 1373.56 1810.66 1369.7C1796.99 1365.72 1785.22 1356.3 1777.25 1344.54C1771.24 1335.81 1767.32 1325.76 1762.38 1316.33C1755.99 1304.13 1747.77 1292.87 1740.11 1281.43L1743.97 1279.34C1747.96 1269.22 1753.59 1259.68 1760.42 1251.27C1769.98 1239.38 1782 1229.58 1795.6 1222.62C1800.41 1225.34 1805.34 1227.81 1810.34 1230.02Z" fill="#F4A958"/>
<path d="M1970.67 402.922C1970.99 400.961 1971.68 399.064 1972.44 397.167C1975.16 391.097 1981.68 385.469 1987.94 387.682C1992.63 389.389 1994.9 394.891 1995.16 399.886C1995.47 404.882 1994.27 409.941 1994.71 414.873C1994.97 418.034 1995.98 421.323 1998.57 423.093C2001.86 425.37 2006.54 424.358 2009.77 422.018C2013.06 419.742 2015.34 416.39 2018.12 413.482C2024.32 407.158 2032.99 403.364 2041.79 403.048C2051.85 402.732 2062.1 406.779 2071.84 404.376C2081.71 401.973 2089.18 393.436 2099.05 391.35C2106.58 389.832 2114.29 392.235 2121.95 392.804C2123.4 392.931 2124.86 392.994 2126.32 392.867C2123.47 412.09 2116.19 430.555 2108.98 448.766C2105.31 457.872 2101.77 466.978 2098.1 476.083C2097.91 476.652 2097.65 477.285 2097.34 477.854C2091.83 491.892 2085.89 506.183 2075.51 517.059C2064.69 528.441 2047.86 535.586 2032.99 530.464C2029.45 529.263 2026.22 527.492 2023.25 525.153C2007.75 525.026 1992.31 521.106 1978.64 513.771C1977.95 513.391 1977.25 513.012 1976.87 512.316C1976.55 511.684 1976.68 510.799 1976.81 510.04C1977.95 503.084 1979.84 496.192 1981.62 489.299C1984.4 478.423 1986.93 467.547 1986.3 456.481C1985.54 451.612 1985.16 446.679 1985.16 441.747C1985.16 439.913 1985.1 437.89 1984.15 436.183C1983.39 434.791 1982.06 433.78 1980.73 432.768C1972.32 425.686 1968.46 413.735 1970.67 402.922Z" fill="#F4A958"/>
<path d="M2045.01 942.241C2002.93 937.182 1961.05 923.081 1928.28 896.27C1933.08 894.436 1937.83 892.096 1942.64 890.136C1965.42 880.714 1990.72 877.489 2015.15 880.778C2036.21 883.686 2056.21 891.338 2076.96 895.701C2077.28 895.764 2077.59 895.827 2077.85 895.827C2104.23 901.329 2131.37 901.645 2158.33 902.783C2163.32 903.036 2168.58 903.352 2173.57 904.364L2173.45 905.881C2173.57 916.821 2174.33 927.634 2175.6 938.384C2132.26 943.632 2088.35 947.426 2045.01 942.241Z" fill="#F4A958"/>
<path d="M2228.24 1205.29C2232.73 1280.29 2237.29 1355.16 2241.78 1430.03L2238.87 1430.22C2234.5 1429.14 2230.07 1428.07 2225.65 1426.99C2218.12 1425.16 2210.59 1423.32 2202.87 1422.44C2198.63 1421.93 2194.33 1421.74 2190.09 1421.93C2176.17 1422.25 2162.38 1425.79 2150.1 1432.3C2149.72 1422.31 2147.32 1412.51 2144.79 1402.84C2132.77 1356.3 2119.73 1310.01 2105.56 1264.04C2104.48 1260.43 2103.41 1256.89 2102.27 1253.35C2098.35 1240.83 2094.42 1228.31 2090.37 1215.85C2106.32 1202.89 2127.26 1197.26 2148.39 1194.67C2149.09 1194.54 2149.78 1194.48 2150.48 1194.42C2156.11 1193.79 2161.81 1193.28 2167.31 1192.96C2187.68 1191.7 2209.2 1191.89 2227.48 1200.49C2227.99 1202.01 2228.11 1203.71 2228.24 1205.29Z" fill="#F4A958"/>
<path d="M2426.78 397.163C2408.69 397.732 2390.47 394.38 2373.76 387.425C2366.74 384.453 2359.65 380.848 2352.06 380.785C2339.6 380.595 2329.28 389.828 2320.3 398.364L2194.33 518.698L2193.19 519.204C2192.75 517.94 2192.18 516.738 2191.61 515.473C2186.29 504.028 2180.73 492.709 2174.78 481.454C2170.86 473.992 2166.81 466.594 2162.5 459.322L2163.9 458.563C2189.33 435.988 2215.21 413.034 2245.89 398.238C2254.63 394.064 2263.8 390.523 2271.9 385.148C2291.89 372.185 2304.86 349.295 2326.69 339.683C2339.79 333.929 2354.47 333.739 2368.51 330.83C2382.37 327.985 2395.78 322.483 2407.55 314.706C2412.29 311.607 2420.46 309.267 2421.98 314.706C2422.35 315.907 2422.04 317.235 2421.79 318.5C2419.25 330.451 2414.07 341.77 2406.73 351.444C2403.5 355.618 2399.83 359.981 2398.63 364.85C2398.25 366.241 2398.12 367.632 2398.25 369.15C2399.51 382.872 2421.22 384.579 2426.78 397.163Z" fill="#F4A958"/>
<path d="M2241.78 1430.03L2238.87 1430.22C2234.5 1429.14 2230.07 1428.07 2225.65 1426.99C2218.12 1425.16 2210.59 1423.32 2202.87 1422.44C2198.63 1421.93 2194.33 1421.74 2190.09 1421.93C2176.17 1422.25 2162.38 1425.79 2150.1 1432.3C2149.72 1422.31 2147.32 1412.51 2144.79 1402.84C2132.77 1356.3 2119.73 1310.01 2105.56 1264.04C2104.48 1260.43 2103.41 1256.89 2102.27 1253.35C2098.35 1240.83 2094.42 1228.31 2090.37 1215.85C2106.32 1202.89 2127.26 1197.26 2148.39 1194.67C2149.09 1194.54 2149.78 1194.48 2150.48 1194.42C2156.11 1193.79 2161.81 1193.28 2167.31 1192.96C2187.68 1191.7 2209.2 1191.89 2227.48 1200.49C2227.99 1202.01 2228.11 1203.71 2228.24 1205.29C2232.73 1280.29 2237.29 1355.16 2241.78 1430.03Z" fill="#E5913C"/>
<path d="M2194.39 518.701L2193.19 519.207C2192.75 518.005 2192.24 516.741 2191.61 515.539C2186.29 504.031 2180.72 492.712 2174.78 481.519C2195.78 470.517 2214.7 455.657 2230.45 437.888C2239 428.276 2246.71 417.716 2257.03 410.128C2272.4 398.62 2292.08 394.762 2309.04 385.846C2321.88 379.08 2333.08 369.469 2346.56 363.967C2363.07 357.265 2382.3 357.707 2398.63 364.853C2398.25 366.244 2398.12 367.635 2398.25 369.153C2399.45 382.874 2421.21 384.582 2426.72 397.229C2408.62 397.734 2390.4 394.383 2373.76 387.427C2366.68 384.519 2359.65 380.851 2352.06 380.788C2339.6 380.598 2329.28 389.83 2320.3 398.367L2194.39 518.701Z" fill="#E5913C"/>
<path d="M2421.98 314.706C2422.35 315.908 2422.1 317.299 2421.79 318.5C2419.25 330.451 2414.07 341.77 2406.73 351.445C2403.5 355.619 2399.83 359.982 2398.63 364.851C2382.3 357.705 2363.07 357.199 2346.56 363.966C2333.08 369.404 2321.88 379.015 2309.04 385.844C2292.02 394.76 2272.4 398.618 2257.03 410.126C2246.72 417.778 2239 428.274 2230.46 437.886C2214.77 455.655 2195.78 470.452 2174.78 481.517C2170.86 474.056 2166.81 466.658 2162.5 459.386L2163.83 458.627C2189.27 436.052 2215.14 413.098 2245.83 398.302C2254.63 394.065 2263.74 390.524 2271.9 385.212C2291.89 372.249 2304.86 349.358 2326.63 339.747C2339.72 333.993 2354.4 333.74 2368.45 330.894C2382.37 328.049 2395.72 322.547 2407.55 314.769C2412.29 311.608 2420.46 309.268 2421.98 314.706Z" fill="#F4A958"/>
<path d="M2228.24 1205.3C2232.73 1280.29 2237.29 1355.16 2241.78 1430.03L2238.87 1430.22C2234.5 1429.15 2230.08 1428.07 2225.65 1427C2218.12 1425.1 2210.59 1423.33 2202.81 1422.38C2198.57 1421.87 2194.33 1421.75 2190.03 1421.87C2183.45 1397.02 2174.14 1372.74 2173.64 1347.19C2173.07 1318.99 2183.19 1291.17 2180.28 1263.09C2177.69 1238.05 2164.65 1215.35 2150.48 1194.36C2156.11 1193.73 2161.74 1193.22 2167.25 1192.9C2187.68 1191.7 2209.2 1191.83 2227.48 1200.43C2227.99 1202.01 2228.18 1203.72 2228.24 1205.3Z" fill="#F4A958"/>
<path d="M2077.85 895.893C2104.23 901.394 2131.38 901.647 2158.33 902.849C2163.33 903.038 2168.58 903.354 2173.58 904.429L2173.45 906.01C2173.58 916.887 2174.34 927.763 2175.67 938.513C2132.33 943.761 2088.42 947.555 2045.08 942.37C2003 937.311 1961.12 923.21 1928.34 896.399C1933.15 894.502 1937.83 892.225 1942.64 890.265C1965.42 880.843 1990.79 877.618 2015.15 880.906C2036.22 883.815 2056.28 891.403 2077.03 895.83C2077.28 895.766 2077.6 895.83 2077.85 895.893Z" fill="#F4A958"/>
<path d="M2023.31 525.216C2016.22 519.967 2010.78 512.253 2006.03 504.728C1997.87 491.575 1990.72 477.537 1987.43 462.425C1986.99 460.464 1986.61 458.441 1986.36 456.481C1985.6 451.612 1985.22 446.679 1985.15 441.81C1985.15 439.913 1985.09 437.89 1984.21 436.246C1983.38 434.855 1982.05 433.843 1980.79 432.831C1972.31 425.749 1968.51 413.734 1970.67 402.985C1971.05 401.088 1971.68 399.127 1972.5 397.294C1975.16 391.223 1981.67 385.532 1987.94 387.808C1992.62 389.516 1994.96 395.017 1995.21 400.013C1995.47 405.008 1994.33 410.067 1994.71 414.999C1994.96 418.161 1995.97 421.386 1998.57 423.219C2001.86 425.433 2006.54 424.421 2009.77 422.144C2013.06 419.868 2015.33 416.453 2018.12 413.608C2024.32 407.285 2032.99 403.49 2041.78 403.174C2051.84 402.858 2062.03 406.842 2071.83 404.439C2081.64 402.036 2089.17 393.563 2099.04 391.476C2106.51 389.895 2114.29 392.361 2121.94 392.93C2123.4 393.057 2124.86 393.12 2126.31 392.994C2123.4 412.217 2116.12 430.681 2108.91 448.892C2105.3 457.998 2101.7 467.104 2098.03 476.21C2097.84 476.779 2097.52 477.411 2097.27 478.043C2091.76 492.018 2085.75 506.309 2075.38 517.185C2064.56 528.567 2047.73 535.713 2032.86 530.591C2029.51 529.263 2026.22 527.492 2023.31 525.216Z" fill="#F4A958"/>
<path d="M1981.61 489.358C1984.4 478.482 1986.99 467.543 1986.29 456.477C1986.55 458.437 1986.93 460.46 1987.37 462.421C1990.66 477.533 1997.81 491.571 2005.97 504.724C2010.72 512.249 2016.16 519.963 2023.24 525.212C2007.74 525.022 1992.3 521.165 1978.64 513.83C1977.94 513.45 1977.25 513.008 1976.87 512.312C1976.55 511.68 1976.68 510.795 1976.74 510.099C1978.01 503.143 1979.84 496.251 1981.61 489.358Z" fill="#E5913C"/>
<path d="M1916.89 1252.4C1903.41 1280.79 1888.8 1308.55 1873.23 1335.81C1867.35 1346.05 1861.09 1356.48 1851.47 1363.38C1839.89 1371.6 1824.39 1373.56 1810.72 1369.7C1797.06 1365.72 1785.29 1356.36 1777.32 1344.6C1771.3 1335.81 1767.38 1325.82 1762.45 1316.39C1756.06 1304.19 1747.83 1292.93 1740.18 1281.49L1744.04 1279.34C1748.02 1269.22 1753.65 1259.74 1760.49 1251.26C1762.64 1259.36 1764.85 1267.39 1767.51 1275.29C1768.46 1278.33 1769.91 1281.68 1772.95 1282.69C1777.32 1284.08 1781.17 1279.47 1783.58 1275.48C1792.5 1260.31 1801.42 1245.19 1810.41 1230.08C1843.31 1244.5 1880.51 1248.99 1916.89 1252.4Z" fill="#F4A958"/>
<path d="M1732.9 930.986C1712.4 948.122 1689.81 964.184 1677.22 987.707C1667.41 1006.11 1664.57 1027.67 1653.81 1045.5C1645.02 1060.17 1631.54 1071.24 1618.32 1082.12C1614.08 1085.53 1609.01 1089.2 1603.7 1087.93C1608.57 1073.89 1613.51 1059.86 1618.38 1045.76C1613 1043.8 1607.18 1047.02 1602.75 1050.69C1592.82 1058.66 1584.72 1068.9 1579.28 1080.47C1575.04 1089.39 1572.32 1099.25 1566.31 1107.22C1563.97 1110.32 1560.87 1113.16 1557.45 1115.12L1556.5 1113.61C1565.55 1082.18 1584.34 1053.6 1609.65 1032.86C1620.59 1023.88 1632.93 1016.16 1641.91 1005.22C1654.76 989.604 1659.57 969.179 1668.3 950.905C1686.39 913.217 1720.56 886.343 1751.69 858.393C1782.56 830.634 1812.87 797.752 1819.2 756.776C1830.4 761.898 1841.66 767.147 1852.1 773.217C1847.1 784.41 1841.6 795.412 1835.59 806.162L1732.9 930.986Z" fill="#E5913C"/>
<path d="M1783.52 1275.48C1781.11 1279.47 1777.25 1284.08 1772.89 1282.69C1769.85 1281.74 1768.39 1278.39 1767.45 1275.29C1764.85 1267.39 1762.57 1259.3 1760.42 1251.27C1769.98 1239.38 1782 1229.58 1795.6 1222.62C1800.41 1225.34 1805.34 1227.81 1810.34 1230.02L1783.52 1275.48Z" fill="#E5913C"/>
<path d="M1792.5 744.259C1801.23 748.622 1810.22 752.732 1819.26 756.842C1812.87 797.818 1782.57 830.763 1751.76 858.459C1720.63 886.409 1686.4 913.283 1668.36 950.971C1659.57 969.182 1654.76 989.67 1641.98 1005.29C1633 1016.23 1620.72 1023.94 1609.71 1032.92C1584.41 1053.66 1565.61 1082.24 1556.57 1113.67L1557.52 1115.19C1552.26 1118.29 1546.25 1119.49 1540.62 1117.4C1538.98 1116.77 1537.27 1115.7 1536.57 1114.05C1536 1112.79 1536.07 1111.21 1536.26 1109.75C1537.14 1102.35 1539.8 1095.08 1543.98 1088.88C1539.29 1091.73 1534.49 1094.58 1529.8 1097.36C1527.15 1098.94 1522.97 1100.14 1521.51 1097.42C1520.76 1095.9 1521.39 1094.13 1522.08 1092.55C1541.95 1047.53 1582.38 1015.66 1614.96 978.667C1628.44 963.365 1640.65 947.05 1652.93 930.736C1699.43 868.514 1746 806.418 1792.5 744.259Z" fill="#F4A958"/>
<path d="M2421.98 314.706C2422.35 315.908 2422.1 317.299 2421.79 318.5C2419.25 330.451 2414.07 341.77 2406.73 351.445C2403.5 355.619 2399.83 359.982 2398.63 364.851C2382.3 357.705 2363.07 357.199 2346.56 363.966C2333.08 369.404 2321.88 379.015 2309.04 385.844C2292.02 394.76 2272.4 398.618 2257.03 410.126C2246.72 417.778 2239 428.274 2230.46 437.886C2214.77 455.655 2195.78 470.452 2174.78 481.517C2170.86 474.056 2166.81 466.658 2162.5 459.386L2163.83 458.627C2189.27 436.052 2215.14 413.098 2245.83 398.302C2254.63 394.065 2263.74 390.524 2271.9 385.212C2291.89 372.249 2304.86 349.358 2326.63 339.747C2339.72 333.993 2354.4 333.74 2368.45 330.894C2382.37 328.049 2395.72 322.547 2407.55 314.769C2412.29 311.608 2420.46 309.268 2421.98 314.706Z" fill="#F4A958"/>
<path d="M2329.92 1762.64C2331.69 1776.87 2330.93 1793.81 2319.16 1801.91C2312.26 1806.59 2303.4 1806.9 2295.05 1807.09C2248.61 1807.98 2202.3 1808.86 2155.92 1809.75C2150.23 1809.87 2143.71 1809.56 2140.48 1805.01C2138.21 1801.84 2138.27 1797.61 2138.52 1793.75C2138.52 1793.56 2138.52 1793.24 2138.59 1793.05L2139.6 1793.12C2173 1795.46 2207.49 1796.09 2238.87 1784.33C2249.75 1780.28 2260 1774.78 2270.76 1770.54C2289.42 1763.21 2309.54 1759.79 2329.6 1760.49C2329.73 1761.18 2329.79 1761.94 2329.92 1762.64Z" fill="#E2E2E2"/>
<path d="M2224.82 1683.91C2227.1 1684.99 2229.38 1686.25 2231.53 1687.58C2239.88 1696.81 2242.6 1710.66 2250.39 1720.78C2264.94 1739.62 2292.14 1740.76 2315.3 1746.26C2319.35 1747.21 2323.59 1748.47 2326.25 1751.64C2328.33 1754.1 2329.16 1757.33 2329.6 1760.42C2309.54 1759.73 2289.42 1763.14 2270.76 1770.48C2259.94 1774.72 2249.69 1780.22 2238.87 1784.26C2207.49 1796.03 2173.01 1795.39 2139.6 1793.05L2138.59 1792.99C2140.49 1758.91 2145.67 1724.89 2154.09 1691.82C2154.66 1691.88 2155.29 1691.94 2155.92 1691.88C2164.27 1692.32 2172.69 1690.8 2180.41 1687.58C2182.75 1686.57 2185.09 1685.43 2187.37 1684.29C2190.66 1682.71 2194.01 1681.13 2197.55 1680.24C2206.54 1677.78 2216.22 1679.8 2224.82 1683.91Z" fill="#393B54"/>
<path d="M2244.19 1470.5C2245.14 1486.24 2246.08 1502.05 2245.45 1517.86C2244.63 1539.74 2240.77 1561.49 2237.42 1583.18C2232.23 1616.57 2227.93 1650.21 2224.76 1683.91C2216.16 1679.8 2206.54 1677.84 2197.43 1680.24C2193.89 1681.13 2190.6 1682.71 2187.24 1684.29C2180.54 1649.77 2179.14 1614.29 2183 1579.32C2188 1534.68 2201.54 1490.1 2195.09 1445.71C2193.89 1437.68 2192.18 1429.77 2190.03 1422C2194.33 1421.81 2198.57 1422 2202.81 1422.5C2210.59 1423.39 2218.12 1425.22 2225.65 1427.12C2230.01 1428.19 2234.44 1429.27 2238.87 1430.34L2241.78 1430.15C2242.6 1443.56 2243.43 1457.09 2244.19 1470.5Z" fill="white"/>
<path d="M2228.24 1205.3C2232.73 1280.29 2237.29 1355.16 2241.78 1430.03L2238.87 1430.22C2234.5 1429.15 2230.08 1428.07 2225.65 1427C2218.12 1425.1 2210.59 1423.33 2202.81 1422.38C2198.57 1421.87 2194.33 1421.75 2190.03 1421.87C2183.45 1397.02 2174.14 1372.74 2173.64 1347.19C2173.07 1318.99 2183.19 1291.17 2180.28 1263.09C2177.69 1238.05 2164.65 1215.35 2150.48 1194.36C2156.11 1193.73 2161.74 1193.22 2167.25 1192.9C2187.68 1191.7 2209.2 1191.83 2227.48 1200.43C2227.99 1202.01 2228.18 1203.72 2228.24 1205.3Z" fill="#F4A958"/>
<path d="M1916.89 1252.4C1880.51 1248.99 1843.3 1244.5 1810.4 1230.08C1805.41 1227.87 1800.47 1225.4 1795.66 1222.68C1792.94 1221.17 1790.28 1219.59 1787.69 1217.94C1795.73 1208.14 1802.18 1197.26 1807.56 1185.82C1815.66 1168.75 1821.03 1150.16 1825.02 1131.69C1831.73 1100.77 1834.83 1069.15 1842.04 1038.36C1845.14 1025.14 1849 1011.99 1855.9 1000.29C1863.17 988.024 1873.48 977.78 1881.65 966.081C1896.64 944.519 1904.55 917.96 1921.82 898.611C1924.04 898.042 1926.19 897.22 1928.34 896.397C1961.11 923.145 2003 937.247 2045.07 942.369C2088.41 947.554 2132.32 943.76 2175.66 938.511C2175.92 940.725 2176.17 942.938 2176.55 945.151C2188.51 1032.16 2231.78 1115.25 2233.11 1203.59C2231.28 1202.51 2229.51 1201.56 2227.55 1200.68C2209.26 1192.08 2187.75 1191.89 2167.31 1193.15C2161.81 1193.47 2156.11 1193.98 2150.55 1194.61C2149.85 1193.6 2149.15 1192.59 2148.46 1191.57C2149.03 1180 2155.29 1169.13 2162.44 1159.83C2170.48 1149.59 2179.84 1140.29 2185.85 1128.72C2187.24 1125.94 2188.44 1122.65 2187.24 1119.74C2185.66 1115.95 2180.85 1115 2176.74 1114.68C2168.96 1114.11 2160.99 1113.86 2153.77 1110.89C2146.62 1107.98 2140.17 1101.53 2139.92 1093.75C2139.73 1089.51 2141.43 1085.47 2142.95 1081.55C2149.03 1065.86 2154.09 1049.87 2158.26 1033.55C2163.39 1013.38 2166.68 990.3 2154.97 973.037C2142.83 999.216 2129.35 1026.91 2104.67 1041.84C2109.17 1030.96 2113.03 1019.58 2113.41 1007.82C2113.85 995.991 2110.5 983.724 2102.33 975.187C2099.87 972.658 2096.01 970.444 2093.03 972.278C2091.45 973.227 2090.69 975.061 2090.06 976.705C2076.84 1009.4 2068.42 1043.8 2056.84 1077.12C2049.57 1098.11 2040.83 1119.04 2029.32 1138.01C2022.61 1149.08 2014.96 1159.51 2006.04 1168.94C1997.3 1178.1 1987.56 1186.33 1978.58 1195.18C1963.39 1210.16 1950.3 1227.11 1939.73 1245.64C1938.21 1248.36 1936.57 1251.27 1933.78 1252.66C1931.19 1253.99 1928.09 1253.8 1925.24 1253.54C1922.39 1252.91 1919.67 1252.72 1916.89 1252.4Z" fill="#FF6712"/>
<path d="M1922.46 726.424C1919.93 732.432 1917.58 738.502 1915.37 744.636C1911.38 755.828 1907.97 767.337 1902.08 777.707C1897.53 785.801 1891.39 793.389 1883.61 798.258C1874.62 788.077 1863.8 780.11 1852.04 773.281C1841.6 767.21 1830.4 761.962 1819.14 756.84C1810.09 752.666 1801.1 748.619 1792.37 744.256C1792.06 744.067 1791.68 743.877 1791.36 743.75C1789.4 742.739 1787.12 741.284 1787.06 739.071C1786.99 737.87 1787.63 736.795 1788.26 735.783C1815.28 689.938 1842.23 644.094 1869.18 598.186C1882.85 574.916 1896.71 551.393 1914.93 531.347C1932.83 511.682 1955.48 495.304 1981.42 489.423C1979.65 496.316 1977.82 503.208 1976.62 510.164C1976.49 510.923 1976.43 511.745 1976.74 512.377C1977.12 513.073 1977.82 513.515 1978.51 513.895C1992.12 521.23 2007.62 525.087 2023.12 525.277C2026.03 527.553 2029.32 529.324 2032.86 530.589C2047.73 535.711 2064.56 528.565 2075.38 517.183C2085.76 506.307 2091.77 492.016 2097.27 478.041C2116.44 470.39 2135.49 462.675 2154.72 455.024C2155.99 454.518 2157.44 454.012 2158.71 454.518C2159.78 454.961 2160.48 456.036 2161.05 457.047C2161.55 457.87 2162 458.628 2162.44 459.514C2166.74 466.786 2170.79 474.184 2174.71 481.646C2180.66 492.838 2186.29 504.22 2191.54 515.665C2192.11 516.867 2192.68 518.132 2193.13 519.333C2193.63 521.04 2194.01 522.748 2193.7 524.455C2193.19 527.87 2190.53 530.462 2188.19 532.928C2179.84 541.528 2172.63 551.266 2166.81 561.7C2162.76 568.845 2159.28 576.623 2158.39 584.78C2156.94 599.134 2163.58 612.919 2168.2 626.641C2174.78 646.18 2177.37 667.174 2175.85 687.725C2174.71 702.712 2171.49 717.572 2171.36 732.558C2171.17 754.88 2177.82 776.569 2183.13 798.321C2191.42 832.404 2196.23 867.373 2197.49 902.404C2197.81 912.142 2197.3 923.145 2193.38 931.808H2193.32C2196.35 925.042 2193.38 915.367 2187.12 910.435C2183.13 907.273 2178.45 905.503 2173.51 904.428C2168.51 903.416 2163.33 903.1 2158.26 902.847C2131.31 901.646 2104.23 901.393 2077.78 895.891C2079.37 894.184 2081.01 892.477 2082.59 890.769C2091.77 880.968 2101.57 868.068 2096.89 855.548C2093.1 845.431 2080.82 839.55 2079.3 828.927C2077.78 818.619 2087.28 809.514 2087.09 799.08C2086.9 786.56 2073.1 778.656 2060.64 776.948C2048.24 775.241 2035.01 776.948 2023.56 771.7C2021.35 770.751 2019.2 769.423 2018.12 767.273C2015.72 762.594 2019.51 757.219 2023.12 753.362C2037.04 738.565 2051.59 724.401 2066.78 710.869C2075.57 702.964 2085.57 692.784 2082.78 681.275C2081.2 674.446 2075.38 669.45 2071.84 663.317C2062.66 647.382 2070.38 627.337 2078.73 610.896C2087.02 594.518 2096.01 575.422 2088.67 558.475C2087.59 556.009 2085.82 553.416 2083.16 553.1C2080.82 552.847 2078.67 554.365 2076.84 555.819C2061.65 567.833 2046.53 579.848 2031.34 591.862C2012.43 606.849 1993.38 622.025 1976.87 639.667C1953.52 664.834 1935.68 694.681 1922.46 726.424Z" fill="#24EEE1"/>
<path d="M2195.15 1445.71C2201.6 1490.1 2188.06 1534.74 2183.06 1579.32C2179.2 1614.29 2180.6 1649.76 2187.3 1684.29C2185.03 1685.49 2182.68 1686.57 2180.34 1687.58C2172.62 1690.87 2164.21 1692.32 2155.86 1691.88C2157.76 1638.26 2154.59 1584.44 2146.37 1531.33C2143.9 1515.65 2141.05 1499.9 2142.44 1484.15C2143.96 1467.33 2150.23 1451.02 2150.16 1434.14C2150.16 1433.5 2150.16 1432.87 2150.1 1432.24C2162.37 1425.73 2176.17 1422.19 2190.09 1421.87C2192.24 1429.77 2194.01 1437.68 2195.15 1445.71Z" fill="#E2E2E2"/>
<path d="M2175.66 938.385C2174.4 927.635 2173.57 916.822 2173.45 905.883L2173.57 904.302C2178.57 905.377 2183.25 907.147 2187.18 910.309C2193.44 915.241 2196.41 924.916 2193.38 931.682C2192.55 933.516 2191.35 935.16 2189.58 936.425C2185.34 939.586 2178.7 940.788 2176.48 944.961C2176.17 942.874 2175.91 940.661 2175.66 938.385Z" fill="#393B54"/>
<path d="M2148.46 1191.38C2148.39 1192.52 2148.39 1193.6 2148.46 1194.67C2127.26 1197.26 2106.38 1202.89 2090.44 1215.86C2088.1 1217.75 2085.82 1219.84 2083.73 1222.05C2081.52 1224.39 2079.43 1227.11 2079.36 1230.34C2079.18 1234.7 2082.84 1238.18 2086.2 1241.02C2091.2 1245.26 2096.13 1249.5 2101.13 1253.67L2102.33 1253.29C2103.47 1256.83 2104.55 1260.37 2105.62 1263.98L2103.98 1264.48C2085 1253.1 2065.83 1239.5 2056.9 1219.27C2053.04 1210.48 2051.34 1200.93 2049.18 1191.57C2044.88 1173.36 2038.75 1155.53 2030.71 1138.58L2029.25 1137.7C2040.83 1118.73 2049.5 1097.86 2056.78 1076.8C2068.36 1043.54 2076.77 1009.08 2089.99 976.388C2090.63 974.744 2091.45 972.91 2092.97 971.962C2095.94 970.128 2099.8 972.405 2102.27 974.871C2110.43 983.407 2113.78 995.738 2113.34 1007.5C2112.96 1019.26 2109.1 1030.71 2104.61 1041.52C2129.29 1026.6 2142.76 998.9 2154.91 972.721C2166.61 989.984 2163.39 1013 2158.2 1033.24C2154.02 1049.55 2149.03 1065.55 2142.89 1081.23C2141.31 1085.15 2139.66 1089.2 2139.85 1093.43C2140.04 1101.21 2146.56 1107.66 2153.71 1110.57C2160.92 1113.54 2168.96 1113.8 2176.67 1114.36C2180.79 1114.68 2185.6 1115.63 2187.18 1119.42C2188.38 1122.33 2187.18 1125.62 2185.79 1128.4C2179.77 1139.97 2170.41 1149.27 2162.38 1159.51C2155.29 1168.94 2149.03 1179.81 2148.46 1191.38Z" fill="#D84E09"/>
<path d="M2077.85 895.893C2104.23 901.394 2131.38 901.647 2158.33 902.849C2163.33 903.038 2168.58 903.354 2173.58 904.429L2173.45 906.01C2173.58 916.887 2174.34 927.763 2175.67 938.513C2132.33 943.761 2088.42 947.555 2045.08 942.37C2003 937.311 1961.12 923.21 1928.34 896.399C1933.15 894.502 1937.83 892.225 1942.64 890.265C1965.42 880.843 1990.79 877.618 2015.15 880.906C2036.22 883.815 2056.28 891.403 2077.03 895.83C2077.28 895.766 2077.6 895.83 2077.85 895.893Z" fill="#F4A958"/>
<path d="M2126.37 392.865C2124.86 392.991 2123.46 392.928 2122.01 392.802C2114.35 392.233 2106.63 389.83 2099.1 391.347C2089.23 393.434 2081.71 401.907 2071.9 404.31C2062.09 406.713 2051.91 402.73 2041.85 403.046C2033.05 403.362 2024.38 407.156 2018.18 413.479C2015.4 416.388 2013.12 419.739 2009.83 422.016C2006.54 424.292 2001.92 425.304 1998.63 423.091C1996.04 421.257 1995.03 418.032 1994.77 414.87C1994.33 409.875 1995.53 404.879 1995.28 399.884C1995.03 394.889 1992.68 389.387 1988 387.68C1981.74 385.467 1975.22 391.094 1972.56 397.165C1971.74 399.062 1971.11 400.959 1970.73 402.856L1969.84 402.666C1962.76 396.153 1959.21 385.909 1960.8 376.361C1962.44 366.686 1968.83 358.529 1972.69 349.423C1977.44 338.357 1978.45 325.9 1983.32 314.834C1991.1 297.129 2009.07 284.355 2028.37 282.901C2037.48 282.206 2046.59 283.85 2055.51 285.494C2064.94 287.201 2074.3 288.908 2083.73 290.616C2094.36 292.513 2106 294.979 2112.64 303.515C2122.58 316.225 2116.63 335.765 2124.54 349.866C2127.89 355.873 2133.4 360.236 2137.7 365.548C2141.94 370.923 2144.85 378.321 2141.94 384.518C2139.22 390.209 2132.76 392.549 2126.37 392.865Z" fill="#393B54"/>
<path d="M2023.31 525.216C2016.22 519.967 2010.78 512.253 2006.03 504.728C1997.87 491.575 1990.72 477.537 1987.43 462.425C1986.99 460.464 1986.61 458.441 1986.36 456.481C1985.6 451.612 1985.22 446.679 1985.15 441.81C1985.15 439.913 1985.09 437.89 1984.21 436.246C1983.38 434.855 1982.05 433.843 1980.79 432.831C1972.31 425.749 1968.51 413.734 1970.67 402.985C1971.05 401.088 1971.68 399.127 1972.5 397.294C1975.16 391.223 1981.67 385.532 1987.94 387.808C1992.62 389.516 1994.96 395.017 1995.21 400.013C1995.47 405.008 1994.33 410.067 1994.71 414.999C1994.96 418.161 1995.97 421.386 1998.57 423.219C2001.86 425.433 2006.54 424.421 2009.77 422.144C2013.06 419.868 2015.33 416.453 2018.12 413.608C2024.32 407.285 2032.99 403.49 2041.78 403.174C2051.84 402.858 2062.03 406.842 2071.83 404.439C2081.64 402.036 2089.17 393.563 2099.04 391.476C2106.51 389.895 2114.29 392.361 2121.94 392.93C2123.4 393.057 2124.86 393.12 2126.31 392.994C2123.4 412.217 2116.12 430.681 2108.91 448.892C2105.3 457.998 2101.7 467.104 2098.03 476.21C2097.84 476.779 2097.52 477.411 2097.27 478.043C2091.76 492.018 2085.75 506.309 2075.38 517.185C2064.56 528.567 2047.73 535.713 2032.86 530.591C2029.51 529.263 2026.22 527.492 2023.31 525.216Z" fill="#F4A958"/>
<path d="M2102.33 1253.35L2101.13 1253.73C2096.13 1249.5 2091.2 1245.26 2086.2 1241.09C2082.84 1238.24 2079.17 1234.76 2079.36 1230.4C2079.43 1227.18 2081.58 1224.46 2083.73 1222.12C2085.88 1219.9 2088.1 1217.82 2090.44 1215.92C2094.42 1228.38 2098.41 1240.83 2102.33 1253.35Z" fill="#393B54"/>
<path d="M1925.87 894.247C1924.42 895.638 1923.09 897.029 1921.82 898.547C1919.8 899.179 1917.77 899.685 1915.69 900.001C1913.6 900.317 1911.38 900.507 1909.55 899.495C1906.57 897.915 1905.82 894.057 1905.56 890.643C1904.68 876.478 1907.78 862.061 1914.55 849.477C1920.75 837.906 1929.98 827.725 1932.77 814.888C1936.12 799.08 1928.91 783.208 1925.05 767.463C1921.76 754.12 1920.81 740.146 1922.46 726.487C1935.68 694.744 1953.52 664.897 1976.93 639.793C1993.44 622.088 2012.49 606.975 2031.41 591.988C2046.59 579.974 2061.71 567.96 2076.9 555.945C2078.73 554.491 2080.88 552.973 2083.22 553.226C2085.88 553.542 2087.65 556.135 2088.73 558.601C2096.07 575.548 2087.08 594.644 2078.8 611.022C2070.44 627.463 2062.73 647.508 2071.9 663.443C2075.44 669.577 2081.26 674.572 2082.85 681.401C2085.63 692.91 2075.7 703.091 2066.84 710.995C2051.72 724.527 2037.1 738.691 2023.18 753.488C2019.58 757.345 2015.78 762.657 2018.18 767.4C2019.26 769.55 2021.47 770.877 2023.62 771.826C2035.08 777.074 2048.3 775.367 2060.7 777.074C2073.17 778.782 2086.96 786.686 2087.15 799.206C2087.34 809.64 2077.85 818.682 2079.37 829.053C2080.95 839.676 2093.16 845.557 2096.95 855.674C2101.64 868.195 2091.77 881.094 2082.66 890.896C2081.07 892.603 2079.43 894.31 2077.85 896.018C2077.59 895.954 2077.28 895.891 2076.96 895.828C2056.21 891.465 2036.15 883.813 2015.08 880.905C1990.72 877.616 1965.35 880.841 1942.58 890.263C1937.77 892.224 1933.08 894.563 1928.28 896.397C1927.45 895.701 1926.69 895.006 1925.87 894.247Z" fill="#24B8BB"/>
<path d="M2105.43 1648.19C2105.43 1710.09 2055.2 1760.3 1993.25 1760.3H1992.37C1930.81 1759.8 1881.01 1709.84 1881.01 1648.19C1881.01 1586.28 1931.25 1536.07 1993.25 1536.07C2013.82 1536.07 2033.18 1541.64 2049.76 1551.38C2083.1 1570.79 2105.43 1606.9 2105.43 1648.19Z" fill="white"/>
<path d="M2049.82 1551.38C2022.43 1559.85 1997.81 1577.3 1981.24 1600.7C1958.9 1632.25 1951.63 1673.99 1961.94 1711.23C1967.19 1730.01 1977.5 1748.22 1992.5 1760.3C1930.94 1759.8 1881.14 1709.84 1881.14 1648.19C1881.14 1586.28 1931.38 1536.07 1993.38 1536.07C2013.88 1536.07 2033.25 1541.64 2049.82 1551.38Z" fill="#E2E2E2"/>
<path d="M1883.67 798.323C1884.11 798.766 1884.43 799.145 1884.81 799.524C1869.37 806.037 1852.23 808.314 1835.65 806.227C1841.66 795.477 1847.16 784.538 1852.16 773.282C1863.87 780.111 1874.69 788.079 1883.67 798.323Z" fill="#393B54"/>
<path d="M1916.89 1252.4C1903.41 1280.79 1888.8 1308.55 1873.23 1335.81C1867.35 1346.05 1861.09 1356.48 1851.47 1363.38C1839.89 1371.6 1824.39 1373.56 1810.72 1369.7C1797.06 1365.72 1785.29 1356.36 1777.32 1344.6C1771.3 1335.81 1767.38 1325.82 1762.45 1316.39C1756.06 1304.19 1747.83 1292.93 1740.18 1281.49L1744.04 1279.34C1748.02 1269.22 1753.65 1259.74 1760.49 1251.26C1762.64 1259.36 1764.85 1267.39 1767.51 1275.29C1768.46 1278.33 1769.91 1281.68 1772.95 1282.69C1777.32 1284.08 1781.17 1279.47 1783.58 1275.48C1792.5 1260.31 1801.42 1245.19 1810.41 1230.08C1843.31 1244.5 1880.51 1248.99 1916.89 1252.4Z" fill="#F4A958"/>
<path d="M1792.5 744.259C1801.23 748.622 1810.22 752.732 1819.26 756.842C1812.87 797.818 1782.57 830.763 1751.76 858.459C1720.63 886.409 1686.4 913.283 1668.36 950.971C1659.57 969.182 1654.76 989.67 1641.98 1005.29C1633 1016.23 1620.72 1023.94 1609.71 1032.92C1584.41 1053.66 1565.61 1082.24 1556.57 1113.67L1557.52 1115.19C1552.26 1118.29 1546.25 1119.49 1540.62 1117.4C1538.98 1116.77 1537.27 1115.7 1536.57 1114.05C1536 1112.79 1536.07 1111.21 1536.26 1109.75C1537.14 1102.35 1539.8 1095.08 1543.98 1088.88C1539.29 1091.73 1534.49 1094.58 1529.8 1097.36C1527.15 1098.94 1522.97 1100.14 1521.51 1097.42C1520.76 1095.9 1521.39 1094.13 1522.08 1092.55C1541.95 1047.53 1582.38 1015.66 1614.96 978.667C1628.44 963.365 1640.65 947.05 1652.93 930.736C1699.43 868.514 1746 806.418 1792.5 744.259Z" fill="#F4A958"/>
<path d="M1779.02 1156.48C1788.83 1165.96 1800.59 1174.06 1807.49 1185.76C1802.11 1197.2 1795.66 1208.08 1787.62 1217.88C1790.22 1219.52 1792.88 1221.17 1795.6 1222.62C1781.99 1229.58 1769.97 1239.38 1760.42 1251.27C1755.04 1230.84 1750.48 1210.1 1742.58 1190.56C1731.38 1162.93 1713.35 1137.32 1708.98 1107.98C1710.56 1105.64 1712.27 1103.3 1714.04 1101.09C1716.95 1097.48 1720.3 1093.81 1724.8 1092.68C1730.17 1091.35 1736 1094.07 1739.79 1098.05C1743.59 1102.1 1745.93 1107.22 1748.4 1112.28C1749.66 1114.87 1750.99 1117.46 1752.38 1119.99C1759.53 1133.34 1768.14 1145.98 1779.02 1156.48Z" fill="#E2E2E2"/>
<path d="M1708.98 1107.98C1698.48 1123.41 1691.71 1141.37 1689.5 1159.96C1693.42 1161.66 1695.89 1165.77 1697.91 1169.69C1698.8 1171.53 1699.68 1173.36 1700.44 1175.26C1683.8 1190.25 1663.56 1201.19 1641.92 1206.81C1635.4 1208.58 1627.24 1209.34 1622.94 1204.09C1621.23 1201.94 1620.47 1199.29 1620.03 1196.63C1615.03 1169.76 1630.78 1143.2 1649.83 1123.53C1668.87 1103.87 1691.9 1087.81 1707.59 1065.42C1709.68 1062.45 1711.77 1059.29 1715 1057.71C1721.13 1054.8 1728.22 1058.91 1733.6 1063.08C1742.58 1069.85 1751.5 1077.37 1756.56 1087.49C1761.56 1097.54 1761.82 1110.82 1754.22 1119.17L1752.51 1120.06C1751.12 1117.53 1749.86 1114.93 1748.53 1112.34C1746.06 1107.35 1743.72 1102.16 1739.92 1098.11C1736.06 1094.13 1730.31 1091.41 1724.93 1092.74C1720.44 1093.88 1717.08 1097.48 1714.17 1101.15C1712.34 1103.3 1710.63 1105.64 1708.98 1107.98Z" fill="#393B54"/>
<path d="M1700.38 1175.26C1699.62 1173.36 1698.79 1171.53 1697.84 1169.69C1695.88 1165.77 1693.35 1161.66 1689.43 1159.96C1691.64 1141.37 1698.41 1123.41 1708.92 1107.98C1713.22 1137.38 1731.25 1162.99 1742.51 1190.56C1750.42 1210.1 1755.04 1230.84 1760.36 1251.27C1753.52 1259.74 1747.89 1269.23 1743.91 1279.34L1740.05 1281.49C1734.1 1272.58 1728.4 1263.47 1724.04 1253.67C1713.03 1228.69 1711.07 1200.3 1700.38 1175.26Z" fill="white"/>
<path d="M918.044 738.442C902.416 696.012 896.153 647.258 914.564 605.966L915.007 606.093C915.513 605.081 916.209 604.196 916.968 603.311C920.258 613.934 928.357 622.66 938.101 628.098C947.781 633.6 958.98 636.003 970.115 636.825C977.581 637.394 985.237 637.267 992.387 639.48C1001.75 642.516 1009.34 649.218 1016.18 656.174C1018.07 658.071 1020.23 660.158 1022.88 660.474C1029.02 660.917 1032.56 652.001 1038.7 652.19C1044.71 652.254 1046.61 660.474 1046.04 666.481C1044.96 678.622 1041.48 691.143 1032.94 699.806C1028.39 704.548 1022.57 707.836 1017.82 712.326C1018.07 712.958 1018.39 713.591 1018.71 714.286C1025.54 729.146 1033.64 743.564 1042.88 757.159L1041.55 758.044C1045.28 797.186 1052.56 836.012 1063.31 873.826C1064.58 878.189 1065.78 883.058 1063.63 887.042C1061.92 890.266 1058.38 892.1 1055.02 893.618C1027.63 905.885 998.207 913.726 968.344 916.003C960.055 916.698 951.704 916.888 943.352 916.698C935.886 916.445 927.661 915.56 922.599 909.995C917.791 904.621 917.601 896.779 917.791 889.571C919.056 855.424 926.206 821.405 938.86 789.598C941.074 788.776 943.352 788.333 945.756 788.27C948.161 788.207 951.198 788.27 952.4 786.12C953.159 784.792 952.716 783.148 952.337 781.694C950.438 774.738 948.54 767.782 946.642 760.826C939.936 761.016 933.292 759.625 928.231 755.388C923.106 751.152 920.448 744.702 918.044 738.442Z" fill="#E5913C"/>
<path d="M1442.75 962.481C1440.78 972.598 1438.38 982.653 1435.41 992.58C1434.33 996.311 1432.94 1000.23 1429.84 1002.57C1426.74 1004.97 1421.3 1004.53 1419.84 1000.86C1421.49 1005.92 1416.81 1011.42 1411.55 1011.87C1406.3 1012.25 1401.37 1008.64 1398.65 1004.09C1395.99 999.599 1395.23 994.224 1394.6 988.976C1392.64 971.144 1392.89 952.933 1397.13 935.48C1364.29 910.313 1330.76 886.031 1296.59 862.634C1291.02 858.777 1285.33 854.983 1278.88 852.896C1271.41 850.557 1263.44 850.81 1255.72 851.126C1225.1 852.201 1194.54 854.288 1164.04 857.26C1161.26 857.576 1158.22 857.955 1156.13 859.852C1154.36 861.559 1153.66 864.215 1153.03 866.681C1148.79 884.893 1144.43 903.041 1140.12 921.252L1140.31 921.316C1140.57 921.885 1140.76 922.517 1140.95 923.149C1128.48 915.245 1118.3 903.926 1109.44 892.101C1107.79 889.952 1106.27 887.802 1104.76 885.652C1078.63 848.407 1062.56 804.269 1058.51 758.994L1061.35 758.678C1062.18 759.12 1063.06 759.437 1063.95 759.816C1068.95 761.839 1074.51 761.903 1079.89 761.903C1093.43 761.903 1106.97 761.65 1120.51 761.207C1137.28 760.575 1154.11 759.626 1170.81 761.776C1194.03 764.685 1216.11 773.601 1237.81 782.454C1256.1 789.789 1274.32 797.251 1292.61 804.649C1304.12 809.328 1315.7 814.007 1326.33 820.521C1342.08 830.132 1355.18 843.348 1368.09 856.438C1388.97 877.621 1409.85 898.741 1430.72 919.861C1435.03 924.288 1439.46 928.777 1441.99 934.405C1445.85 943.131 1444.52 953.122 1442.75 962.481Z" fill="#E5913C"/>
<path d="M1355.37 1624.54C1369.79 1655.4 1389.41 1683.92 1413.2 1708.32C1406.43 1718.5 1397.51 1727.17 1387.26 1733.87C1380.36 1738.42 1372.83 1741.96 1364.92 1744.49C1361.7 1745.51 1357.58 1746.14 1355.18 1743.67V1743.61C1354.67 1743.48 1354.17 1743.42 1353.66 1743.42C1298.49 1648.44 1223.51 1566.49 1149.3 1485.42C1111.21 1443.94 1073.25 1402.46 1035.22 1360.92C1004.98 1369.45 974.925 1378.12 945.694 1389.31C940.379 1391.33 934.938 1393.61 930.762 1397.47C920.576 1407.2 921.525 1423.26 920.702 1437.3C917.665 1486.82 884.259 1528.3 857.306 1569.9C828.518 1614.23 805.677 1662.29 789.417 1712.62C778.281 1710.73 766.007 1713 755.757 1709.59C753.352 1708.83 751.011 1707.75 748.924 1706.17C741.774 1700.99 738.421 1692.26 735.447 1683.98C733.802 1679.55 732.22 1675.06 730.575 1670.64C767.841 1590.65 798.085 1507.37 820.735 1422.13C829.467 1389.31 837.692 1354.97 859.457 1328.98C869.706 1316.72 882.487 1306.91 895.204 1297.18C925.827 1273.78 956.45 1250.32 987.073 1226.92C990.742 1224.14 994.349 1221.36 998.019 1218.58C1005.29 1212.95 1012.76 1207.32 1021.43 1204.03C1038.07 1197.77 1057.05 1201.5 1073.18 1209.03C1094 1218.77 1110.96 1234.26 1124.37 1252.91C1138.92 1273.08 1149.36 1296.92 1155.94 1320.95C1155.88 1321.02 1155.88 1321.02 1155.81 1321.02C1155.88 1321.08 1156 1321.21 1156 1321.21C1156.19 1321.02 1156.45 1320.89 1156.7 1320.64C1165.05 1313.55 1172.96 1305.71 1180.05 1297.18C1193.14 1327.53 1206.3 1357.88 1219.53 1388.23C1229.08 1410.37 1238.83 1432.69 1253.76 1451.59C1266.16 1467.28 1281.79 1480.18 1294.44 1495.67C1324.56 1532.6 1335.19 1581.29 1355.37 1624.54Z" fill="#E5913C"/>
<path d="M1139.17 1016.93V1018.44C1139.17 1031.79 1139.74 1045.32 1144.05 1057.78C1146.7 1065.62 1150.69 1072.7 1155.31 1079.53C1145.06 1079.65 1135.06 1083.32 1125.38 1087.24C1093.68 1100.27 1063.19 1116.9 1031.55 1129.86C1012.51 1137.77 992.956 1144.34 972.583 1147.95L969.989 1148.45C962.587 1113.11 951.008 1078.71 939.113 1044.5L939.366 1044.43C945.061 1043.74 950.755 1042.22 956.07 1040.01L955.943 1039.5C962.903 1038.24 969.799 1036.97 976.759 1035.71C1017.13 1028.44 1057.49 1021.23 1097.8 1013.89C1097.92 1014.33 1098.11 1014.84 1098.17 1015.35C1111.9 1014.97 1125.63 1015.47 1139.17 1016.93Z" fill="#E5913C"/>
<path d="M854.014 909.996C811.117 924.982 767.587 938.072 723.614 949.391C712.163 952.299 700.584 955.082 688.753 955.714C679.895 956.22 670.974 955.398 662.306 953.374C655.472 951.794 648.386 949.138 644.527 943.257C639.908 936.428 641.173 927.322 643.261 919.291C648.196 900.005 656.738 881.857 665.153 863.772C687.677 815.651 710.201 767.466 732.725 719.409C735.572 713.275 738.483 707.015 739.369 700.438C740.191 694.811 739.559 689.12 739.495 683.555C739.369 671.54 741.963 659.589 746.961 648.713C748.923 644.476 751.706 640.05 756.262 638.975C759.362 638.279 762.652 639.418 765.626 640.493C777.204 644.666 788.72 648.839 800.361 653.076C804.6 654.594 809.662 657.25 809.535 661.802C809.346 668.189 799.159 670.529 798.969 676.915C801.943 673.943 807.574 675.84 809.535 679.634C811.434 683.428 810.674 688.045 809.346 692.092C801.12 717.385 775.939 733.194 763.095 756.4C756.641 768.036 753.478 781.062 750.378 793.961C744.937 816.536 739.559 839.111 734.117 861.812C734.181 861.748 734.307 861.685 734.434 861.559C756.578 849.797 778.913 838.099 801.057 826.401C822.063 815.335 843.891 804.016 867.618 803.383C884.194 802.877 901.657 807.683 916.968 801.17C919.373 800.158 921.777 798.83 924.118 797.503C916.083 822.543 909.249 848.027 902.922 873.573C897.797 894.251 893.052 914.991 888.307 935.795C887.295 939.842 886.409 944.016 885.713 948.126C874.577 935.922 864.011 923.212 854.014 909.996Z" fill="#E5913C"/>
<path d="M1447.93 1739.44C1452.55 1745.45 1456.98 1752.34 1456.72 1759.93C1456.34 1771.5 1445.52 1779.65 1435.91 1786.29C1420.66 1796.98 1406.04 1808.62 1393.07 1822.02C1380.42 1835.11 1369.09 1849.97 1353.78 1859.77C1338.41 1869.57 1317.09 1873.11 1302.41 1862.37C1300.07 1860.59 1297.85 1858.44 1296.84 1855.66C1296.4 1854.46 1296.27 1853.32 1296.27 1852.18L1296.9 1852.12C1309.43 1853.32 1322.21 1854.59 1334.36 1851.49C1351.89 1847.13 1366.12 1834.42 1377.57 1820.38C1388.96 1806.4 1398.26 1790.78 1410.41 1777.38C1422.75 1763.72 1438.63 1751.14 1443.44 1733.75C1445.02 1735.64 1446.47 1737.54 1447.93 1739.44Z" fill="#E2E2E2"/>
<path d="M1413.26 1708.33C1413.7 1707.76 1414.14 1707.13 1414.46 1706.43L1415.66 1705.54C1425.78 1714.02 1435.15 1723.5 1443.44 1733.75C1438.63 1751.14 1422.75 1763.72 1410.41 1777.38C1398.26 1790.78 1388.96 1806.4 1377.57 1820.38C1366.12 1834.35 1351.89 1847.13 1334.36 1851.49C1322.15 1854.59 1309.37 1853.39 1296.9 1852.12L1296.27 1852.18C1296.27 1846.18 1301.33 1840.49 1305.44 1835.49C1317.47 1820.88 1323.22 1802.1 1326.2 1783.45C1327.72 1773.96 1328.66 1764.16 1333.41 1755.82C1337.59 1748.61 1345.62 1742.85 1353.66 1743.36C1354.16 1743.36 1354.67 1743.42 1355.24 1743.55V1743.68C1357.64 1746.14 1361.69 1745.51 1364.98 1744.5C1372.89 1741.97 1380.42 1738.43 1387.32 1733.87C1397.5 1727.23 1406.42 1718.51 1413.26 1708.33Z" fill="#393B54"/>
<path d="M1419.46 1000.87L1419.9 1000.93C1421.55 1005.92 1416.87 1011.43 1411.62 1011.87C1406.36 1012.25 1401.43 1008.64 1398.71 1004.09C1396.05 999.601 1395.23 994.226 1394.66 988.978C1392.7 971.146 1392.95 952.934 1397.19 935.482C1364.35 910.315 1330.82 885.969 1296.65 862.636C1291.09 858.779 1285.39 854.922 1278.87 852.898C1271.47 850.558 1263.5 850.748 1255.72 851.064C1225.09 852.203 1194.54 854.289 1164.1 857.198C1161.26 857.514 1158.28 857.894 1156.19 859.791C1154.36 861.498 1153.66 864.09 1153.09 866.557C1148.79 884.768 1144.49 902.916 1140.12 921.191L1140.31 921.254C1140.5 921.823 1140.76 922.455 1140.95 923.088C1128.42 915.184 1118.29 903.928 1109.37 892.04C1107.79 889.89 1106.21 887.74 1104.69 885.59C1116.14 864.913 1128.1 844.551 1140.63 824.506C1143.22 820.269 1146.07 815.969 1150.44 813.63C1153.98 811.733 1158.15 811.353 1162.2 811.037C1184.1 809.33 1206.24 807.623 1228.07 810.595C1256.79 814.515 1283.81 826.403 1308.61 841.326C1333.48 856.186 1356.32 874.081 1379.6 891.155C1387.95 897.225 1396.37 903.359 1403.01 911.263C1413.51 923.72 1418.64 939.908 1420.35 956.033C1421.99 970.956 1420.85 985.942 1419.46 1000.87Z" fill="#F4A958"/>
<path d="M1355.24 1743.61C1354.73 1743.48 1354.23 1743.42 1353.66 1743.42C1298.49 1648.44 1223.51 1566.49 1149.3 1485.42C1111.21 1443.88 1073.18 1402.46 1035.22 1360.92C1076.09 1349.34 1117.09 1338.09 1155.81 1321.02C1155.88 1321.08 1156 1321.21 1156 1321.21C1197.25 1371.16 1207.25 1440.21 1238.7 1497.19C1262.87 1541.13 1299.31 1577.11 1325.19 1620.11C1347.52 1657.17 1361.82 1699.03 1387.25 1733.87C1380.36 1738.42 1372.83 1741.96 1364.92 1744.49C1361.63 1745.51 1357.58 1746.14 1355.18 1743.67V1743.61H1355.24Z" fill="#F4A958"/>
<path d="M1180.11 1297.24C1173.02 1305.72 1165.11 1313.62 1156.76 1320.7C1156.51 1320.83 1156.26 1320.89 1156 1321.02C1149.42 1296.99 1138.98 1273.15 1124.43 1252.92C1111.02 1234.26 1094 1218.77 1073.18 1209.03C1057.05 1201.51 1038.13 1197.84 1021.43 1204.04C1012.76 1207.32 1005.36 1212.95 998.016 1218.58C994.41 1221.36 990.74 1224.14 987.134 1226.93C978.656 1205.36 976.314 1181.97 972.139 1159.14C971.506 1155.54 970.81 1152.06 970.051 1148.45L972.645 1147.95C993.018 1144.34 1012.51 1137.77 1031.61 1129.86C1063.18 1116.9 1093.74 1100.27 1125.44 1087.24C1135.06 1083.32 1145.12 1079.65 1155.31 1079.53C1160.3 1087.24 1166 1094.51 1171.19 1102.1C1187.95 1126.51 1199.85 1154.14 1207.12 1182.85C1209.97 1194.04 1212.12 1205.43 1212.19 1216.94C1212.5 1246.53 1199.22 1274.23 1180.11 1297.24Z" fill="#FF6712"/>
<path d="M1185.55 673.817C1186.43 687.159 1193.2 700.818 1188.52 713.338C1185.8 720.8 1179.22 726.428 1171.88 729.463C1164.48 732.435 1156.44 733.067 1148.47 732.814C1132.02 732.245 1113.86 726.238 1106.52 711.505C1098.05 694.684 1107.03 674.576 1106.21 655.732C1106.02 652.318 1105.51 648.776 1103.87 645.741C1100.7 639.797 1094.12 636.825 1088.18 633.853C1081.91 630.691 1075.58 626.961 1071.72 621.143C1068.43 616.148 1066.98 609.887 1062.55 605.777C1056.29 600.023 1046.8 600.972 1038.25 602.679C1036.04 598 1033.57 593.447 1030.47 589.463C1039.65 588.957 1046.48 580.041 1051.04 571.757C1055.84 562.968 1061.22 552.977 1071.03 550.7C1078.62 548.93 1086.47 552.724 1092.41 557.783C1098.36 562.778 1103.11 569.102 1109.18 573.971C1121.27 583.456 1137.08 586.048 1151.83 590.285C1166.5 594.522 1182.07 601.92 1187.95 616.021C1195.48 634.106 1184.28 654.404 1185.55 673.817Z" fill="#393B54"/>
<path d="M1073.43 914.422C1024.65 923.844 975.934 933.203 927.216 942.688L923.609 943.573C931.012 976.391 939.49 1008.89 949.17 1041.08L949.36 1041.27C949.55 1041.08 949.677 1040.83 949.866 1040.64C951.954 1040.26 954.042 1039.88 956.13 1039.5L956.257 1040C950.879 1042.22 945.248 1043.74 939.49 1044.43L939.3 1044.49C938.414 1041.84 937.402 1039.12 936.516 1036.46L937.086 1036.08C926.203 1019.01 907.222 1008.01 895.644 991.188C889 981.513 884.951 969.942 885.014 958.243C885.014 954.892 885.394 951.541 885.9 948.126C886.596 944.016 887.482 939.842 888.494 935.795C893.24 914.991 897.985 894.251 903.173 873.573C909.5 848.026 916.333 822.606 924.368 797.502C929.24 794.594 933.986 791.369 939.11 789.598C926.456 821.405 919.244 855.425 918.041 889.571C917.852 896.78 918.041 904.621 922.85 909.996C927.848 915.56 936.137 916.446 943.603 916.699C951.954 916.888 960.306 916.699 968.594 916.066C998.458 913.79 1027.88 905.886 1055.27 893.618C1058.63 892.101 1062.23 890.33 1063.94 887.042C1066.09 883.058 1064.83 878.252 1063.63 873.826C1052.81 836.012 1045.53 797.186 1041.86 758.044L1043.13 757.159C1043.57 757.728 1043.95 758.297 1044.33 758.866H1044.39C1045.72 755.452 1050.28 754.25 1053.88 755.199C1056.67 755.894 1059.13 757.412 1061.66 758.677L1058.82 758.993C1062.8 804.332 1078.94 848.406 1105.07 885.651C1106.59 887.864 1108.11 889.951 1109.75 892.101C1118.61 903.989 1128.79 915.244 1141.32 923.148C1145.69 936.111 1143.85 950.402 1142.4 964.124C1140.56 981.64 1139.61 999.345 1139.55 1016.92C1125.95 1015.47 1112.22 1014.96 1098.55 1015.34C1098.42 1014.84 1098.3 1014.4 1098.17 1013.89C1096.15 1005.8 1094.19 997.701 1092.16 989.607C1086.02 964.693 1079.89 939.779 1073.81 914.865C1074 914.675 1074.19 914.549 1074.38 914.359C1073.88 914.422 1073.62 914.422 1073.43 914.422Z" fill="#24EEE1"/>
<path d="M976.821 1035.77C969.861 1036.97 962.965 1038.3 956.005 1039.5C953.917 1039.88 951.829 1040.26 949.741 1040.64C985.869 994.036 1027.56 951.733 1073.5 914.867C1079.57 939.781 1085.71 964.696 1091.85 989.61C1093.81 997.704 1095.83 1005.8 1097.86 1013.89C1057.55 1021.23 1017.19 1028.5 976.821 1035.77Z" fill="white"/>
<path d="M987.136 1226.93C990.742 1224.14 994.412 1221.36 998.019 1218.58C1005.36 1212.95 1012.76 1207.32 1021.43 1204.04C1038.13 1197.77 1057.05 1201.44 1073.18 1209.03C1094 1218.77 1110.96 1234.26 1124.43 1252.91C1086.66 1283.71 1043.51 1307.36 998.272 1325.51C963.536 1339.42 925.321 1351.62 902.67 1381.41C884.575 1405.18 879.703 1436.1 872.427 1465.13C850.536 1552.9 802.893 1631.81 755.947 1709.21L755.757 1709.65C753.352 1708.9 751.075 1707.76 748.924 1706.24C741.837 1701.05 738.421 1692.33 735.447 1684.04C733.865 1679.62 732.22 1675.13 730.575 1670.7C767.841 1590.71 798.085 1507.43 820.799 1422.19C829.53 1389.37 837.755 1355.04 859.52 1329.05C869.77 1316.78 882.55 1306.98 895.204 1297.24C925.827 1273.78 956.513 1250.32 987.136 1226.93Z" fill="#F4A958"/>
<path d="M949.74 1040.64C949.55 1040.83 949.423 1041.08 949.233 1041.27L949.044 1041.08C939.363 1008.89 930.885 976.392 923.482 943.574L927.089 942.688C975.87 933.203 1024.59 923.845 1073.31 914.423C1073.31 914.549 1073.37 914.676 1073.43 914.802C1027.56 951.668 985.867 994.034 949.74 1040.64Z" fill="#E2E2E2"/>
<path d="M1063.37 873.827C1064.57 878.19 1065.84 883.059 1063.69 887.043C1061.98 890.331 1058.37 892.101 1055.02 893.619C1027.62 905.886 998.267 913.791 968.34 916.067C970.491 915.435 972.136 913.158 973.338 911.008C998.456 865.67 1004.53 812.679 1009.85 761.144C1011.43 746.157 1013.01 731.171 1014.46 716.121C1014.97 715.489 1015.41 714.92 1015.98 714.287C1016.62 713.592 1017.25 712.959 1017.88 712.327C1018.13 712.959 1018.45 713.592 1018.77 714.224C1025.6 729.147 1033.76 743.502 1042.94 757.16L1041.67 758.045C1045.28 797.187 1052.55 836.013 1063.37 873.827Z" fill="#F4A958"/>
<path d="M1038.26 602.679C1039.4 605.082 1040.41 607.548 1041.36 609.951C1046.29 622.155 1050.47 634.676 1053.88 647.386C1056.92 658.641 1059.33 670.656 1056.23 681.975C1051.67 698.352 1036.04 709.734 1019.53 713.845L1018.71 714.224C1018.45 713.592 1018.14 712.959 1017.82 712.327C1022.57 707.837 1028.32 704.549 1032.88 699.807C1041.42 691.144 1044.9 678.623 1046.04 666.482C1046.55 660.475 1044.71 652.255 1038.64 652.191C1032.56 652.002 1028.96 660.981 1022.88 660.475C1020.23 660.222 1018.07 658.135 1016.18 656.175C1009.34 649.219 1001.75 642.517 992.386 639.481C985.237 637.268 977.581 637.331 970.115 636.826C958.979 636.003 947.844 633.537 938.164 628.099C928.42 622.661 920.321 613.935 917.031 603.312C918.233 601.92 919.752 600.719 921.207 599.834C939.429 588.199 960.055 580.231 981.314 576.437C995.233 573.971 1010.54 573.592 1022.19 581.559C1025.41 583.772 1028.13 586.428 1030.47 589.463C1033.51 593.447 1036.04 598 1038.26 602.679Z" fill="#393B54"/>
<path d="M946.639 760.888C939.932 761.078 933.352 759.686 928.227 755.45C923.102 751.213 920.445 744.763 918.041 738.503C902.35 696.01 896.149 647.32 914.561 605.965L915.004 606.154C915.51 605.143 916.206 604.257 916.965 603.372C920.255 613.995 928.354 622.722 938.097 628.16C947.778 633.598 958.976 636.064 970.049 636.886C977.515 637.392 985.17 637.329 992.32 639.542C1001.68 642.514 1009.28 649.28 1016.11 656.236C1018.01 658.133 1020.16 660.219 1022.82 660.536C1028.89 661.041 1032.5 652.062 1038.57 652.252C1044.58 652.378 1046.48 660.536 1045.97 666.543C1044.83 678.684 1041.35 691.204 1032.81 699.867C1028.26 704.546 1022.5 707.898 1017.75 712.387C1017.12 713.02 1016.49 713.652 1015.86 714.348C1015.35 714.917 1014.84 715.549 1014.34 716.181C1012.31 718.774 1010.67 721.62 1008.77 724.339C996.749 742.107 977.768 754.944 956.825 759.623C953.599 760.319 950.119 760.825 946.639 760.888Z" fill="#F4A958"/>
<path d="M976.822 1035.77C1006.31 1058.41 1026.36 1093.06 1031.61 1129.93C1012.51 1137.77 993.019 1144.34 972.646 1148.01L970.052 1148.52C962.649 1113.17 951.071 1078.71 939.176 1044.56L939.366 1044.5C945.06 1043.8 950.754 1042.28 956.132 1040.07L956.006 1039.56C962.965 1038.24 969.862 1036.97 976.822 1035.77Z" fill="#F4A958"/>
<path d="M734.113 861.81C734.24 861.747 734.303 861.683 734.43 861.62C729.811 876.227 722.345 889.949 712.601 901.774C729.811 906.263 748.096 901.458 764.167 893.996C780.3 886.534 795.106 876.48 811.493 869.588C840.724 857.32 876.218 856.435 902.918 873.571C897.793 894.249 893.048 915.053 888.24 935.794C887.29 939.841 886.341 944.014 885.645 948.124C874.51 935.857 863.944 923.147 853.947 909.994C811.05 924.981 767.52 938.07 723.547 949.389C712.095 952.298 700.517 955.08 688.685 955.775C679.827 956.281 670.906 955.459 662.238 953.436C655.468 951.855 648.319 949.136 644.459 943.318C639.84 936.489 641.106 927.32 643.194 919.353C648.192 900.066 656.67 881.918 665.085 863.833C687.61 815.712 710.134 767.528 732.658 719.47C735.505 713.4 738.352 707.139 739.301 700.5C740.124 694.872 739.491 689.244 739.428 683.616C739.301 671.665 741.895 659.651 746.894 648.774C748.792 644.538 751.639 640.111 756.194 639.036C759.295 638.341 762.585 639.479 765.558 640.554C777.137 644.791 788.652 648.964 800.231 653.138C804.533 654.718 809.531 657.311 809.405 661.864C809.215 668.251 799.028 670.653 798.839 676.977C801.812 674.005 807.507 675.902 809.405 679.696C811.303 683.49 810.544 688.106 809.215 692.153C800.99 717.447 775.808 733.255 762.901 756.462C756.511 768.034 753.347 781.123 750.247 793.96C744.996 816.534 739.554 839.172 734.113 861.81Z" fill="#F4A958"/>
<path d="M789.478 1712.69C793.464 1719.77 790.933 1729.13 788.782 1737.35C785.365 1750.57 783.657 1764.23 783.72 1777.89C781.252 1772.51 776.444 1767.89 771.003 1765.36C762.018 1761.13 751.705 1761.06 741.772 1760.75C728.801 1760.43 715.578 1759.55 703.367 1754.99C686.537 1748.73 672.997 1736.02 659.141 1724.52C645.285 1712.94 629.657 1702.07 611.688 1700.55C603.716 1699.92 594.922 1701.5 589.544 1707.38L588.848 1707.13C589.037 1706.75 589.164 1706.37 589.354 1705.99C590.493 1703.71 591.885 1701.44 593.783 1699.73C599.793 1694.54 608.778 1695.55 616.623 1696.38C630.796 1697.83 645.411 1697.58 658.825 1692.77C676.983 1686.39 691.409 1672.54 707.669 1662.23C710.58 1660.4 713.617 1658.63 716.97 1658.06C720.387 1657.49 724.183 1658.25 726.46 1660.9C727.663 1662.29 728.295 1664.06 728.928 1665.83C729.497 1667.42 730.13 1669.06 730.7 1670.64C732.345 1675.07 733.99 1679.56 735.571 1683.98C738.545 1692.27 741.962 1700.99 749.048 1706.18C751.199 1707.76 753.477 1708.83 755.881 1709.59C766.004 1713.01 778.342 1710.73 789.478 1712.69Z" fill="#393B54"/>
<path d="M783.783 1782.37C783.973 1787.37 784.289 1792.87 781.695 1797.23C779.481 1800.96 775.558 1803.3 771.572 1805.01C764.612 1807.92 757.083 1809.37 749.554 1809.25C736.584 1808.99 724.056 1803.87 712.541 1797.74C701.026 1791.67 690.143 1784.33 678.312 1778.9C661.229 1771.12 642.627 1767.39 624.975 1761.25C610.676 1756.32 595.997 1748.92 589.354 1735.39C585.051 1726.66 584.925 1716.1 588.848 1707.19L589.544 1707.44C594.922 1701.56 603.716 1699.98 611.688 1700.61C629.594 1702.13 645.285 1713.01 659.141 1724.58C672.997 1736.09 686.537 1748.8 703.367 1755.06C715.578 1759.61 728.738 1760.49 741.772 1760.81C751.705 1761.13 762.018 1761.19 771.003 1765.43C776.444 1767.96 781.252 1772.57 783.72 1777.95C783.72 1778.01 783.72 1778.01 783.72 1778.01C783.657 1779.4 783.72 1780.86 783.783 1782.37Z" fill="#E2E2E2"/>
<path d="M2287.46 850.551L2299.48 862.566L2289.68 872.304L2277.66 860.352L2265.7 872.304L2255.89 862.566L2267.91 850.551L2255.83 838.473L2265.63 828.735L2277.66 840.75L2289.68 828.799L2299.48 838.6L2287.46 850.551Z" fill="#FF6712"/>
<path d="M2368 745.962C2342.82 745.962 2322.38 725.537 2322.38 700.434C2322.38 675.33 2342.82 654.842 2368 654.842C2393.12 654.842 2413.56 675.33 2413.56 700.434C2413.56 725.537 2393.12 745.962 2368 745.962ZM2339.47 700.434C2339.47 716.179 2352.31 728.952 2368 728.952C2383.69 728.952 2396.54 716.179 2396.54 700.434C2396.54 684.688 2383.69 671.915 2368 671.915C2352.25 671.915 2339.47 684.688 2339.47 700.434Z" fill="#FFAC33"/>
<path d="M2234.12 743.938C2219.32 743.938 2207.36 731.924 2207.36 717.19C2207.36 702.457 2219.38 690.442 2234.12 690.442C2248.87 690.442 2260.89 702.457 2260.89 717.19C2260.89 731.924 2248.87 743.938 2234.12 743.938ZM2217.36 717.19C2217.36 726.423 2224.89 733.947 2234.12 733.947C2243.36 733.947 2250.89 726.423 2250.89 717.19C2250.89 707.958 2243.36 700.433 2234.12 700.433C2224.89 700.433 2217.36 707.958 2217.36 717.19Z" fill="#FFAC33"/>
<path d="M2387.64 833.398L2418.36 854.597L2439.57 823.896L2408.85 802.697L2387.64 833.398Z" fill="#CBF4F4"/>
<path d="M2277.65 638.025C2290.23 638.025 2300.43 627.834 2300.43 615.261C2300.43 602.689 2290.23 592.497 2277.65 592.497C2265.07 592.497 2254.88 602.689 2254.88 615.261C2254.88 627.834 2265.07 638.025 2277.65 638.025Z" fill="#CBF4F4"/>
<path d="M735.254 1082.87L712.16 1105.95L735.064 1128.85L716.399 1147.5L693.495 1124.61L670.591 1147.5L651.927 1128.85L674.831 1105.95L651.927 1083.06L670.591 1064.41L693.495 1087.3L716.589 1064.22L735.254 1082.87ZM670.528 1070.61L658.064 1083.06L680.968 1105.95L658.064 1128.85L670.528 1141.3L693.432 1118.41L716.336 1141.3L728.8 1128.85L705.896 1105.95L728.99 1082.87L716.526 1070.42L693.432 1093.5L670.528 1070.61Z" fill="#FFBE55"/>
<path d="M755.878 1124.86C755.878 1104.88 772.138 1088.63 792.132 1088.63C812.125 1088.63 828.386 1104.88 828.386 1124.86C828.386 1144.85 812.125 1161.1 792.132 1161.1C772.138 1161.1 755.878 1144.85 755.878 1124.86ZM792.132 1102.16C779.604 1102.16 769.418 1112.34 769.418 1124.86C769.418 1137.38 779.604 1147.56 792.132 1147.56C804.659 1147.56 814.846 1137.38 814.846 1124.86C814.846 1112.34 804.659 1102.16 792.132 1102.16Z" fill="#FF6712"/>
<path d="M560.5 1227.11C560.5 1213.07 571.952 1201.56 585.998 1201.56C600.107 1201.56 611.559 1213.01 611.559 1227.11C611.559 1241.21 600.107 1252.59 585.998 1252.59C571.952 1252.59 560.5 1241.15 560.5 1227.11ZM585.998 1211.05C577.203 1211.05 569.991 1218.19 569.991 1227.05C569.991 1235.9 577.14 1243.04 585.998 1243.04C594.856 1243.04 602.005 1235.9 602.005 1227.05C602.005 1218.26 594.856 1211.05 585.998 1211.05Z" fill="#24B8BB"/>
<path d="M716.079 1192.28L686.818 1212.47L707.022 1241.71L736.283 1221.52L716.079 1192.28Z" fill="#FFBE55"/>
<path d="M877.169 1236.85C883.493 1236.85 888.621 1231.72 888.621 1225.4C888.621 1219.08 883.493 1213.96 877.169 1213.96C870.844 1213.96 865.717 1219.08 865.717 1225.4C865.717 1231.72 870.844 1236.85 877.169 1236.85Z" fill="#FFBE55"/>
<path d="M731.201 1333.72C740.112 1333.72 747.335 1326.5 747.335 1317.6C747.335 1308.69 740.112 1301.47 731.201 1301.47C722.291 1301.47 715.067 1308.69 715.067 1317.6C715.067 1326.5 722.291 1333.72 731.201 1333.72Z" fill="#FF6712"/>
<path d="M2342.76 579.597C2351.36 579.597 2358.33 572.633 2358.33 564.042C2358.33 555.451 2351.36 548.486 2342.76 548.486C2334.17 548.486 2327.2 555.451 2327.2 564.042C2327.2 572.633 2334.17 579.597 2342.76 579.597Z" fill="#FF6712"/>
<path d="M1284.63 520.536C1292.84 520.536 1299.49 513.883 1299.49 505.676C1299.49 497.469 1292.84 490.816 1284.63 490.816C1276.41 490.816 1269.76 497.469 1269.76 505.676C1269.76 513.883 1276.41 520.536 1284.63 520.536Z" fill="#56D8CF"/>
<path d="M1191.33 373.97L1162.07 394.162L1182.27 423.406L1211.53 403.213L1191.33 373.97Z" fill="#FFBE55"/>
<path d="M1352.46 418.603C1358.78 418.603 1363.91 413.478 1363.91 407.157C1363.91 400.836 1358.78 395.712 1352.46 395.712C1346.13 395.712 1341 400.836 1341 407.157C1341 413.478 1346.13 418.603 1352.46 418.603Z" fill="#FFBE55"/>
<path d="M1206.49 515.414C1215.4 515.414 1222.62 508.195 1222.62 499.29C1222.62 490.384 1215.4 483.165 1206.49 483.165C1197.58 483.165 1190.35 490.384 1190.35 499.29C1190.35 508.195 1197.58 515.414 1206.49 515.414Z" fill="#FF6712"/>
</g>
<defs>
<clipPath id="clip0">
<rect width="1879" height="1723" fill="white" transform="translate(560.5 146)"/>
</clipPath>
</defs>
</svg>
