<svg width="523" height="305" viewBox="0 0 523 305" fill="none" xmlns="http://www.w3.org/2000/svg">
<path d="M117.33 18.3829C141.85 32.5171 141.85 55.4853 117.33 69.6765C92.8091 83.8107 53.0062 83.8107 28.4858 69.6765C3.96535 55.5423 3.96535 32.5741 28.4858 18.3829C53.0632 4.24867 92.8091 4.24867 117.33 18.3829Z" fill="#E3DFEA"/>
<path d="M117.33 18.3829C141.85 32.5171 141.85 55.4853 117.33 69.6765C92.8091 83.8107 53.0062 83.8107 28.4858 69.6765C3.96535 55.5423 3.96535 32.5741 28.4858 18.3829C53.0632 4.24867 92.8091 4.24867 117.33 18.3829Z" fill="#E3DFEA"/>
<path d="M504.581 182.351C529.102 196.486 529.102 219.454 504.581 233.645C480.061 247.779 440.258 247.779 415.737 233.645C391.217 219.511 391.217 196.543 415.737 182.351C440.258 168.217 480.061 168.217 504.581 182.351Z" fill="#E3DFEA"/>
<path d="M421.782 124.96L387.225 129.234L273.006 63.2933C265.193 58.7909 255.556 58.7909 247.744 63.2933L64.5251 169.072L4.3645 176.481L6.36035 209.423C6.36035 213.356 8.29918 217.345 12.2338 219.625L22.5552 225.552L155.878 302.492C159.185 304.43 163.006 305.228 166.713 304.886C169.336 304.658 171.959 303.86 174.297 302.492L402.907 170.611L413.57 164.456C417.334 162.29 419.273 158.528 419.33 154.71L421.782 124.96Z" fill="#E3DFEA"/>
<path d="M419.387 105.582L386.37 121.768L392.928 127.524L174.354 253.65C171.959 255.017 169.393 255.815 166.77 256.043V288.358C169.393 288.13 172.016 287.332 174.354 285.964L413.628 147.928C417.505 145.705 419.387 141.83 419.387 137.954C422.58 127.353 422.58 116.126 419.387 105.582Z" fill="#5E72E4"/>
<path d="M155.935 253.649L25.3492 178.305L30.6525 174.258L6.36013 160.58L5.90394 162.632C3.67999 172.606 3.85107 182.978 6.36013 192.895C6.36013 196.828 8.29896 200.817 12.2336 203.097L155.935 286.021C159.242 287.959 163.063 288.757 166.769 288.415V256.1C163.063 256.385 159.242 255.587 155.935 253.649Z" fill="url(#paint0_linear)"/>
<path d="M165.116 289.327C161.751 289.327 158.444 288.472 155.536 286.762L11.8347 203.838C7.89998 201.558 5.56199 197.511 5.50496 193.009C2.99589 183.035 2.88185 172.492 5.04877 162.461L5.50496 160.409C5.56199 160.124 5.73306 159.896 6.01818 159.782C6.24628 159.668 6.5314 159.668 6.81652 159.839L31.1659 173.518C31.394 173.631 31.565 173.916 31.6221 174.201C31.6221 174.486 31.508 174.771 31.2799 174.942L27.0031 178.248L156.448 252.966C159.584 254.789 163.177 255.587 166.77 255.245C169.336 255.017 171.788 254.276 174.012 252.966L391.559 127.41L385.857 122.452C385.629 122.281 385.515 121.996 385.572 121.711C385.629 121.426 385.8 121.198 386.028 121.027L419.045 104.841C419.273 104.727 419.558 104.727 419.786 104.841C420.014 104.955 420.185 105.126 420.242 105.354C423.493 116.069 423.493 127.353 420.299 138.068C420.242 142.513 417.961 146.446 414.084 148.669L174.81 286.705C172.358 288.13 169.678 288.985 166.884 289.213C166.256 289.27 165.686 289.327 165.116 289.327ZM6.93057 161.891L6.75949 162.803C4.59257 172.606 4.76365 182.978 7.21569 192.667C7.21569 192.724 7.21569 192.781 7.21569 192.895C7.21569 196.828 9.26856 200.361 12.69 202.356L156.391 285.281C159.527 287.104 163.12 287.902 166.713 287.56C169.279 287.332 171.731 286.591 173.955 285.281L413.228 147.244C416.593 145.306 418.589 141.829 418.589 138.011C418.589 137.954 418.589 137.897 418.589 137.783C421.611 127.638 421.725 117.038 418.874 106.893L387.91 122.053L393.498 126.954C393.726 127.125 393.84 127.41 393.783 127.695C393.783 127.98 393.612 128.208 393.384 128.379L174.81 254.39C172.358 255.815 169.678 256.67 166.884 256.898C162.892 257.24 159.014 256.385 155.536 254.39L24.9502 179.046C24.7221 178.875 24.5511 178.647 24.5511 178.362C24.5511 178.077 24.6651 177.792 24.8932 177.621L29.17 174.372L6.93057 161.891Z" fill="#BF89EF"/>
<path d="M402.964 121.768L174.354 253.649C171.959 255.017 169.393 255.815 166.77 256.043C163.063 256.385 159.242 255.587 155.935 253.649L22.6123 176.709L247.801 46.7653C255.613 42.2628 265.251 42.2628 273.063 46.7653L402.964 121.768Z" fill="#3C3568"/>
<path d="M413.627 115.613L402.964 121.768L174.354 253.649C171.959 255.017 169.393 255.815 166.769 256.043C163.063 256.385 159.242 255.587 155.935 253.649L22.6122 176.709L12.2338 170.725C4.42143 166.222 4.42143 154.881 12.2338 150.378L247.801 14.4503C255.613 9.94788 265.25 9.94788 273.063 14.4503L413.627 95.6082C421.326 100.054 421.326 111.167 413.627 115.613Z" fill="url(#paint1_linear)"/>
<path d="M165.116 256.955C161.751 256.955 158.444 256.1 155.479 254.39L11.7774 171.466C7.84277 169.186 5.44775 165.139 5.44775 160.58C5.44775 156.021 7.78575 151.917 11.7774 149.637L247.345 13.7094C255.385 9.03599 265.421 9.03599 273.462 13.7094L414.084 94.8673C417.961 97.09 420.299 101.136 420.299 105.639C420.299 110.141 417.961 114.131 414.084 116.354L174.81 254.39C172.358 255.815 169.678 256.67 166.883 256.898C166.256 256.955 165.686 256.955 165.116 256.955ZM260.403 11.9426C256.183 11.9426 251.964 13.0255 248.2 15.1912L12.6328 151.119C9.21135 153.114 7.15848 156.591 7.15848 160.58C7.15848 164.513 9.21135 168.046 12.6328 170.041L156.334 252.965C159.47 254.789 163.063 255.587 166.655 255.245C169.221 255.017 171.673 254.276 173.897 252.965L413.171 114.929C416.536 112.991 418.531 109.514 418.531 105.696C418.531 101.82 416.536 98.3438 413.171 96.4061L272.606 15.1912C268.843 13.0255 264.623 11.9426 260.403 11.9426Z" fill="#BF89EF"/>
<path d="M258.636 90.0799L265.593 94.0694C274.944 99.4837 286.463 99.4837 295.872 94.0694L348.677 63.6921C350.787 62.4953 350.787 59.4747 348.677 58.2778L321.647 42.7188C320.393 41.9779 318.796 41.9779 317.542 42.7188L258.693 76.5725C253.446 79.5362 253.446 87.0592 258.636 90.0799Z" fill="#322754"/>
<path d="M222.14 127.923C246.661 142.057 246.661 165.026 222.14 179.217C197.62 193.351 157.817 193.351 133.296 179.217C108.776 165.083 108.776 142.114 133.296 127.923C157.874 113.732 197.62 113.732 222.14 127.923Z" fill="#4554AB"/>
<path d="M293.421 76.1737C300.263 80.1063 300.263 86.4895 293.421 90.479C286.578 94.4115 275.515 94.4115 268.672 90.479C261.829 86.5465 261.829 80.1632 268.672 76.1737C275.515 72.2412 286.578 72.2412 293.421 76.1737Z" fill="#FFE840"/>
<path d="M117.899 35.0818V46.5374V48.1332H117.842C117.557 51.4388 116.474 54.7443 114.535 57.8789C114.307 58.2209 114.079 58.6199 113.794 58.9618C111.456 62.3814 108.091 65.63 103.7 68.5936C103.472 68.7646 103.244 68.9356 102.959 69.0495C102.275 69.5055 101.533 69.9614 100.792 70.3604C98.283 71.7852 95.6599 73.096 92.8657 74.1789C92.6376 74.2929 92.4095 74.3499 92.1243 74.4639C88.874 75.7177 85.5095 76.8006 82.0311 77.5985C81.803 77.6555 81.5749 77.7125 81.2897 77.7695C77.9823 78.5104 74.6179 79.1373 71.1394 79.5362C70.9113 79.5932 70.6832 79.5932 70.3981 79.5932C67.0337 79.9352 63.6692 80.1632 60.3048 80.1632C60.0767 80.1632 59.8486 80.1632 59.5635 80.1632C56.1991 80.1632 52.7776 79.9922 49.4132 79.6502C49.1851 79.6502 48.957 79.5932 48.6719 79.5932C45.2504 79.2513 41.829 78.6813 38.5786 77.9404C38.3505 77.8834 38.1224 77.8264 37.8373 77.7695C34.3588 76.9716 30.9373 75.9457 27.6869 74.7488C27.4588 74.6348 27.2307 74.5779 26.9456 74.4639C23.7523 73.267 20.73 71.8422 17.9358 70.1894C17.5366 69.9614 17.1945 69.7335 16.7953 69.5055C16.5672 69.3345 16.3391 69.2205 16.054 69.0495C11.7772 66.3709 8.41273 63.3503 5.90367 60.1587C5.67557 59.8167 5.39045 59.5317 5.16235 59.1898C2.53924 55.5422 1.11363 51.7237 0.771484 47.8482H0.999581V35.0818H4.47806C4.76318 34.6259 5.10533 34.1129 5.44747 33.657C5.67557 33.315 5.90367 33.0301 6.18879 32.6881C7.10118 31.4912 8.12761 30.3514 9.2681 29.2685C10.6937 27.9007 12.2904 26.5899 14.0581 25.336C15.3127 24.4241 16.6813 23.5692 18.1639 22.7143C40.9736 9.54899 77.9823 9.54899 100.792 22.7143C102.275 23.5692 103.586 24.4241 104.898 25.336C106.666 26.5899 108.262 27.9007 109.688 29.2685C111.285 30.8073 112.71 32.4601 113.851 34.1129C114.079 34.4549 114.307 34.7398 114.478 35.0818H117.899Z" fill="#FF9D4D"/>
<path d="M59.4499 13.5387C74.9605 13.5387 89.5016 17.0152 100.45 23.3414C101.876 24.1393 103.244 25.0512 104.499 25.9061C106.21 27.16 107.806 28.4138 109.175 29.7816C110.715 31.3204 112.083 32.9162 113.224 34.512C113.452 34.797 113.623 35.082 113.851 35.4239L114.079 35.7659H114.478H117.215V46.5375V47.3924L117.158 48.0763C116.873 51.3249 115.79 54.4595 113.908 57.5372C113.68 57.8791 113.452 58.2211 113.224 58.62C110.886 62.0396 107.521 65.2312 103.302 68.0238C103.073 68.1948 102.845 68.3088 102.617 68.4798C101.933 68.9357 101.192 69.3347 100.45 69.7906C98.0553 71.2154 95.3751 72.4693 92.581 73.6092C92.3529 73.7231 92.1247 73.7801 91.8967 73.8941C88.7603 75.148 85.3389 76.1738 81.8604 77.0287C81.6323 77.0857 81.4042 77.1427 81.1761 77.1997C77.9257 77.9406 74.5613 78.5105 71.0828 78.9095C70.8547 78.9095 70.6266 78.9665 70.3985 78.9665C67.0911 79.3084 63.7267 79.5364 60.3622 79.5364H60.3052C60.0771 79.5364 59.849 79.5364 59.6209 79.5364H59.4499C56.1425 79.5364 52.835 79.3654 49.5847 79.0235C49.3566 79.0235 49.1285 78.9665 48.9004 78.9665C45.4789 78.6245 42.1145 78.0546 38.8641 77.3707C38.636 77.3137 38.4079 77.2567 38.1798 77.1997C34.7013 76.4018 31.2799 75.3759 28.1435 74.2361L28.0295 74.1791C27.8014 74.1221 27.6303 74.0081 27.4022 73.9511C24.2659 72.7543 21.2436 71.3294 18.5064 69.7336C18.1073 69.5057 17.7651 69.2777 17.366 69.0497C17.1379 68.8787 16.9098 68.7648 16.6817 68.5938C12.5759 65.9721 9.21149 63.0655 6.75945 59.8739C6.53135 59.5889 6.30326 59.3039 6.07516 58.962C3.56609 55.4854 2.14049 51.7809 1.85536 48.0193L1.79834 47.3354V35.8229H4.5355H4.93467L5.16277 35.4809C5.44789 35.025 5.79004 34.569 6.13218 34.0561C6.36028 33.7711 6.58838 33.4862 6.81647 33.1442C7.72886 32.0043 8.69827 30.8645 9.83876 29.7816C11.2644 28.4138 12.804 27.103 14.5147 25.9061C15.7693 24.9942 17.1379 24.1393 18.5635 23.3414C29.3981 17.0152 43.9393 13.5387 59.4499 13.5387ZM59.4499 12.8547C44.5095 12.8547 29.5121 16.1033 18.1073 22.7145C16.6246 23.5694 15.3131 24.4243 14.0015 25.3362C12.2338 26.59 10.6371 27.9009 9.21149 29.2687C8.07101 30.4085 7.04457 31.5484 6.13218 32.6883C5.90409 33.0302 5.61896 33.3152 5.39087 33.6571C5.04872 34.1131 4.70658 34.626 4.42146 35.082H1V48.1333H1.05702C1.34215 52.0088 2.82478 55.8274 5.44789 59.4749C5.67599 59.8169 5.90409 60.1018 6.18921 60.4438C8.64125 63.6354 12.0627 66.599 16.3395 69.3347C16.5676 69.5057 16.7957 69.6196 17.0808 69.7906C17.423 70.0186 17.8222 70.2466 18.2213 70.4745C21.0155 72.0703 24.0378 73.4952 27.2312 74.749C27.4593 74.863 27.6873 74.92 27.9725 75.034C31.2229 76.2308 34.5873 77.2567 38.1228 78.0546C38.3509 78.1116 38.579 78.1686 38.8641 78.2256C42.1715 78.9665 45.5359 79.4794 48.9574 79.8784C49.1855 79.8784 49.4136 79.9354 49.6987 79.9354C53.0061 80.2773 56.3135 80.4483 59.6209 80.4483C59.678 80.4483 59.735 80.4483 59.792 80.4483C60.0201 80.4483 60.2482 80.4483 60.5333 80.4483C63.8978 80.4483 67.3192 80.2203 70.6266 79.8784C70.8547 79.8784 71.0828 79.8214 71.3679 79.8214C74.7894 79.4224 78.2108 78.8525 81.5182 78.0546C81.7463 77.9976 81.9744 77.9406 82.2596 77.8836C85.738 77.0287 89.1595 76.0028 92.3529 74.749C92.5809 74.635 92.809 74.578 93.0942 74.464C95.8884 73.3242 98.5685 72.0703 101.021 70.6455C101.762 70.1896 102.503 69.7906 103.187 69.3347C103.416 69.1637 103.644 68.9927 103.929 68.8787C108.32 65.9721 111.684 62.7235 114.022 59.2469C114.25 58.905 114.535 58.506 114.763 58.1641C116.702 55.0295 117.843 51.7239 118.071 48.4183H118.128V46.8225V35.082H114.649C114.421 34.74 114.25 34.455 114.022 34.1131C112.882 32.4603 111.513 30.8075 109.859 29.2687C108.434 27.9009 106.837 26.59 105.069 25.3362C103.815 24.4243 102.446 23.5694 100.964 22.7145C89.3876 16.1033 74.4472 12.8547 59.4499 12.8547Z" fill="#FFE840"/>
<path d="M100.792 10.8599C123.602 24.0252 123.602 45.3975 100.792 58.5629C77.9827 71.7282 40.974 71.7282 18.1073 58.5629C-4.70243 45.3975 -4.70243 24.0252 18.1073 10.8599C40.974 -2.3055 77.9827 -2.3055 100.792 10.8599Z" fill="#FFE840"/>
<path d="M109.688 29.2687C107.806 23.4554 102.959 18.155 95.6033 13.8806C85.9662 8.29528 73.1357 5.27466 59.5069 5.27466C45.8781 5.27466 33.0477 8.35227 23.4106 13.8806C16.0544 18.155 11.2074 23.4554 9.32558 29.2687C8.75534 31.0354 8.47021 32.8592 8.47021 34.74C8.47021 40.3823 11.2074 45.8536 16.3396 50.527C16.5677 50.755 16.7958 50.926 17.0809 51.1539C18.9057 52.7497 21.0156 54.2315 23.4106 55.5994C24.6081 56.2833 25.8626 56.9672 27.1742 57.5941C27.4023 57.7081 27.6304 57.8221 27.9155 57.9361C31.0518 59.3609 34.4733 60.5577 38.0658 61.5266C38.2939 61.5836 38.522 61.6406 38.8071 61.6976C42.0575 62.5525 45.4219 63.1794 48.9004 63.5784C49.1285 63.6354 49.3566 63.6354 49.6417 63.6924C52.8921 64.0343 56.1995 64.2623 59.621 64.2623H59.792C60.0201 64.2623 60.2482 64.2623 60.5334 64.2623C63.9548 64.2053 67.3763 63.9773 70.6267 63.5784C70.8548 63.5214 71.0829 63.5214 71.368 63.4644C74.8465 63.0084 78.2679 62.3245 81.5183 61.4126C81.7464 61.3556 81.9745 61.2987 82.2596 61.1847C85.8521 60.1588 89.2736 58.905 92.3529 57.3661C92.581 57.2522 92.8091 57.1382 93.0942 57.0242C94.0066 56.5682 94.919 56.0553 95.8314 55.5424C98.6826 53.8896 101.135 52.0658 103.245 50.1281C103.473 49.9001 103.701 49.6721 103.986 49.4441C108.434 44.9987 110.829 39.9263 110.829 34.683C110.544 32.8592 110.259 31.0354 109.688 29.2687ZM103.701 45.8536C103.473 46.1385 103.245 46.4805 102.959 46.7655C100.678 49.5581 97.5421 52.1228 93.5504 54.4025C93.3223 54.5165 93.0372 54.6875 92.8091 54.8015C92.581 54.9155 92.3529 55.0864 92.0678 55.2004C88.9314 56.8532 85.567 58.221 81.9745 59.3039C81.7464 59.3609 81.5183 59.4749 81.2332 59.5319C77.9828 60.5008 74.5613 61.1847 71.0829 61.6976C70.8548 61.7546 70.6267 61.7546 70.3415 61.8116C67.0341 62.2675 63.6127 62.4955 60.2482 62.5525C60.0201 62.5525 59.792 62.5525 59.5069 62.5525C56.0855 62.5525 52.721 62.3815 49.3566 61.9826C49.1285 61.9256 48.9004 61.9256 48.6153 61.8686C45.1368 61.4126 41.7724 60.7287 38.522 59.8738C38.2939 59.8168 38.0658 59.7598 37.7807 59.7029C34.1882 58.677 30.7667 57.3661 27.6304 55.8273C27.4023 55.7134 27.1742 55.5994 26.8891 55.4854C26.2618 55.1434 25.6915 54.8585 25.1213 54.5165C21.7569 52.5787 18.9627 50.356 16.7958 48.0763C16.5677 47.7913 16.3396 47.5634 16.0544 47.2784C10.1809 40.4393 9.43963 32.5173 13.8305 25.4501C16.1685 21.6886 19.9321 18.155 25.1213 15.1914C43.9393 4.30578 74.5613 4.30578 93.3793 15.1914C98.5685 18.212 102.332 21.6886 104.67 25.4501C109.004 32.0043 108.605 39.3564 103.701 45.8536Z" fill="#FF9D4D"/>
<path d="M61.3317 29.9524L66.8631 33.144C66.749 33.201 66.635 33.258 66.5209 33.315L63.4986 35.0818L58.3665 32.1181L60.0772 31.1492C60.5904 30.8073 61.0466 30.4083 61.3317 29.9524Z" fill="#D1975D"/>
<path d="M77.8116 43.3458L83.457 46.5944L86.8215 44.6567L81.1761 41.4081C81.2331 41.3511 81.2901 41.3511 81.3471 41.2941C81.5752 41.1231 81.8603 40.9521 82.0884 40.8381C82.8868 40.2682 83.5711 39.6983 84.1413 39.0714C85.0537 38.1025 85.681 37.1336 85.9091 36.1077C86.1942 35.1389 86.0801 34.17 85.5669 33.2011C85.0537 32.2322 84.0843 31.3773 82.7157 30.5794C82.4876 30.4654 82.3165 30.3515 82.0884 30.2375C81.8603 30.1235 81.6322 30.0095 81.3471 29.8955C79.5223 29.0406 77.5835 28.5277 75.5306 28.4137C74.105 28.2997 72.6224 28.3567 71.2538 28.5277C71.0257 28.5847 70.7976 28.5847 70.5125 28.6417C69.6571 28.8126 68.8018 28.9836 67.9464 29.2686C68.8018 27.9578 68.9729 26.6469 68.3456 25.3361C67.7183 24.0252 66.5778 22.9424 64.9812 21.9735C63.9547 21.4036 62.7572 20.8906 61.3316 20.4917C59.963 20.0927 58.5374 19.8648 57.0548 19.8078C55.5722 19.7508 54.1465 19.8078 52.6639 20.0927C51.2383 20.3207 49.9268 20.8336 48.7292 21.4606L47.6458 22.0875L42.2285 18.9529L38.864 20.8906L44.2814 24.0252L40.1756 26.4189L34.7583 23.2843L31.3939 25.2221L36.8112 28.3567L30.7666 31.8333L37.9517 35.9938L38.693 36.3927L48.7863 42.206L49.5276 42.6049L59.6779 48.4182L60.4192 48.8171L64.3539 51.0969L70.3985 47.6203L76.0439 50.8689L79.4083 48.9311L73.7629 45.6825L77.8116 43.3458ZM66.4638 33.3721C66.5778 33.3151 66.6919 33.2581 66.8059 33.2011C67.2621 32.9731 67.7753 32.8021 68.3456 32.6882C69.0299 32.5742 69.7142 32.5172 70.4555 32.5172C70.5125 32.5172 70.5125 32.5172 70.5695 32.5172C70.7976 32.5172 70.9687 32.5172 71.1968 32.5742C71.767 32.6312 72.2803 32.7452 72.8505 32.8591C73.5918 33.0301 74.2761 33.3151 74.9034 33.657C75.4736 33.999 75.9298 34.398 76.272 34.8539C76.6141 35.3098 76.7282 35.7088 76.7852 36.1647C76.7852 36.6207 76.6711 37.0196 76.386 37.4756C76.2149 37.7605 75.9868 37.9885 75.6447 38.2165C75.4736 38.3305 75.3596 38.4444 75.1885 38.5584C75.1315 38.6154 75.0745 38.6154 75.0174 38.6724L72.3943 40.1542L72.2803 40.2112L71.1968 40.8381L70.4555 41.2371L68.1745 42.5479L65.2663 44.2007L56.4275 39.1284L57.3969 38.5584L59.3358 37.4186L59.6209 37.2476L60.3622 36.8486L63.4415 35.0819L66.4638 33.3721ZM48.7863 27.8438L49.5276 27.4448L49.8697 27.2168L51.8656 26.077C51.9796 26.02 52.0937 25.963 52.2077 25.906C52.6069 25.735 53.0631 25.5641 53.5193 25.4501C54.1465 25.2791 54.8879 25.2221 55.6292 25.2221C57.0548 25.2221 58.4234 25.621 59.6779 26.305C59.7349 26.305 59.7349 26.362 59.792 26.362C60.02 26.4759 60.2481 26.6469 60.4192 26.7609C61.3316 27.3878 61.7878 28.0717 61.7308 28.8126C61.7308 29.2116 61.6167 29.5536 61.3886 29.8955C61.1605 30.2375 60.8184 30.5794 60.4192 30.8644C60.3052 30.9214 60.1911 31.0354 60.0771 31.0924L59.6779 31.3203L58.3663 32.0612L54.2606 34.4549L53.1201 35.0819L51.3524 36.1077L50.3829 35.5378L49.2995 34.9109L48.8433 34.6259L46.7334 33.4861L42.8557 31.2633L43.9392 30.6364L45.764 29.6105L48.7863 27.8438Z" fill="#FF9D4D"/>
<path d="M7.67198 50.0709V61.8685C7.44388 61.5265 7.15876 61.2415 6.93066 60.8996V49.1021C7.21579 49.444 7.44388 49.786 7.67198 50.0709Z" fill="#FFE840"/>
<path d="M16.9671 57.9359V69.7904C16.739 69.6195 16.511 69.5055 16.2258 69.3345V57.48C16.511 57.594 16.739 57.7649 16.9671 57.9359Z" fill="#FFE840"/>
<path d="M27.8016 63.1223V74.9768C27.5735 74.8628 27.3454 74.8058 27.0603 74.6918V62.8943C27.3454 62.9513 27.5735 63.0083 27.8016 63.1223Z" fill="#FFE840"/>
<path d="M38.6932 66.257V78.0546C38.4651 77.9976 38.237 77.9406 37.9519 77.8836V66.0291C38.18 66.143 38.4081 66.2 38.6932 66.257Z" fill="#FFE840"/>
<path d="M49.5277 67.9667V79.7642C49.2996 79.7642 49.0715 79.7072 48.7864 79.7072V67.9097C49.0145 67.9097 49.2426 67.9667 49.5277 67.9667Z" fill="#FFE840"/>
<path d="M60.3624 68.4797V80.2773C60.1343 80.2773 59.9062 80.2773 59.6211 80.2773V68.4797C59.8492 68.4797 60.0773 68.4797 60.3624 68.4797Z" fill="#FFE840"/>
<path d="M71.1971 67.7957V79.6502C70.969 79.7072 70.7409 79.7072 70.4558 79.7072V67.8527C70.6839 67.8527 70.912 67.7957 71.1971 67.7957Z" fill="#FFE840"/>
<path d="M82.0316 65.8579V77.6554C81.8035 77.7124 81.5754 77.7694 81.2903 77.8264V65.9719C81.5184 65.9719 81.8035 65.9149 82.0316 65.8579Z" fill="#FFE840"/>
<path d="M92.8663 62.4385V74.236C92.6382 74.35 92.4101 74.407 92.125 74.521V62.6664C92.3531 62.6095 92.6382 62.4955 92.8663 62.4385Z" fill="#FFE840"/>
<path d="M103.701 56.7961V68.5937C103.473 68.7646 103.245 68.9356 102.959 69.0496V57.2521C103.188 57.0811 103.473 56.9671 103.701 56.7961Z" fill="#FFE840"/>
<path d="M113.281 47.2783V59.0758C113.053 59.4178 112.825 59.8168 112.54 60.1587V48.3612C112.825 48.0192 113.053 47.6203 113.281 47.2783Z" fill="#FFE840"/>
<path d="M502.814 198.024V209.48V211.076H502.757C502.471 214.381 501.388 217.687 499.449 220.821C499.221 221.163 498.993 221.562 498.708 221.904C496.37 225.324 493.005 228.572 488.614 231.536C488.386 231.707 488.158 231.878 487.873 231.992C487.189 232.448 486.448 232.904 485.706 233.303C483.197 234.728 480.574 236.038 477.78 237.121C477.552 237.235 477.324 237.292 477.039 237.406C473.788 238.66 470.424 239.743 466.945 240.541C466.717 240.598 466.489 240.655 466.204 240.712C462.897 241.453 459.532 242.08 456.054 242.479C455.826 242.536 455.597 242.536 455.312 242.536C451.948 242.878 448.583 243.106 445.219 243.106C444.991 243.106 444.763 243.106 444.478 243.106C441.113 243.106 437.692 242.935 434.327 242.593C434.099 242.593 433.871 242.536 433.586 242.536C430.165 242.194 426.743 241.624 423.493 240.883C423.265 240.826 423.037 240.769 422.751 240.712C419.273 239.914 415.852 238.888 412.601 237.691C412.373 237.577 412.145 237.52 411.86 237.406C408.666 236.209 405.644 234.785 402.85 233.132C402.451 232.904 402.109 232.676 401.71 232.448C401.481 232.277 401.253 232.163 400.968 231.992C396.691 229.313 393.327 226.293 390.818 223.101C390.59 222.759 390.305 222.474 390.077 222.132C387.453 218.485 386.028 214.666 385.686 210.791H385.629V197.739H389.107C389.392 197.283 389.734 196.77 390.077 196.314C390.305 195.972 390.533 195.688 390.818 195.346C391.73 194.149 392.757 193.009 393.897 191.926C395.323 190.558 396.919 189.247 398.687 187.993C399.942 187.082 401.31 186.227 402.793 185.372C425.603 172.206 462.611 172.206 485.478 185.372C486.961 186.227 488.272 187.082 489.584 187.993C491.352 189.247 492.948 190.558 494.374 191.926C495.971 193.465 497.396 195.118 498.537 196.77C498.765 197.112 498.993 197.397 499.164 197.739H502.814V198.024Z" fill="#FF9D4D"/>
<path d="M444.364 176.481C459.875 176.481 474.416 179.958 485.364 186.284C486.79 187.082 488.159 187.994 489.413 188.848C491.124 190.102 492.721 191.356 494.089 192.724C495.629 194.263 496.997 195.859 498.138 197.454C498.366 197.739 498.537 198.024 498.765 198.366L498.993 198.708H499.392H502.13V209.48V210.335L502.073 211.019C501.787 214.267 500.704 217.402 498.822 220.48C498.594 220.821 498.366 221.163 498.138 221.562C495.8 224.982 492.435 228.174 488.216 230.966C487.988 231.137 487.759 231.251 487.531 231.422C486.847 231.878 486.106 232.277 485.364 232.733C482.969 234.158 480.289 235.412 477.495 236.552C477.267 236.666 477.039 236.723 476.811 236.836C473.674 238.09 470.253 239.116 466.775 239.971C466.546 240.028 466.318 240.085 466.09 240.142C462.84 240.883 459.475 241.453 456.054 241.852C455.826 241.852 455.598 241.909 455.37 241.909C452.062 242.251 448.698 242.479 445.333 242.479H445.276C445.048 242.479 444.82 242.479 444.592 242.479H444.421C441.114 242.479 437.806 242.308 434.556 241.966C434.328 241.966 434.1 241.909 433.872 241.909C430.45 241.567 427.086 240.997 423.835 240.313C423.607 240.256 423.379 240.199 423.151 240.142C419.673 239.344 416.251 238.318 413.115 237.178L413.001 237.121C412.773 237.064 412.602 236.95 412.373 236.893C409.237 235.697 406.215 234.272 403.478 232.676C403.078 232.448 402.736 232.22 402.337 231.992C402.109 231.821 401.881 231.707 401.653 231.536C397.547 228.914 394.183 226.008 391.731 222.816C391.503 222.531 391.274 222.246 391.046 221.904C388.537 218.428 387.112 214.723 386.827 210.962L386.77 210.278V198.765H389.507H389.906L390.134 198.423C390.419 197.967 390.761 197.511 391.103 196.998C391.331 196.713 391.56 196.429 391.788 196.087C392.7 194.947 393.669 193.807 394.81 192.724C396.236 191.356 397.775 190.045 399.486 188.848C400.74 187.937 402.109 187.082 403.535 186.284C414.312 179.958 428.853 176.481 444.364 176.481ZM444.364 175.797C429.424 175.797 414.426 179.103 403.021 185.657C401.539 186.512 400.227 187.367 398.916 188.279C397.148 189.532 395.551 190.843 394.126 192.211C392.985 193.351 391.959 194.491 391.046 195.631C390.818 195.973 390.533 196.258 390.305 196.6C389.963 197.055 389.621 197.568 389.336 198.024H385.857V211.076H385.914C386.199 214.951 387.682 218.77 390.305 222.417C390.533 222.759 390.761 223.044 391.046 223.386C393.498 226.578 396.92 229.541 401.197 232.277C401.425 232.448 401.653 232.562 401.938 232.733C402.28 232.961 402.679 233.189 403.078 233.417C405.873 235.013 408.895 236.438 412.088 237.691C412.316 237.805 412.545 237.862 412.83 237.976C416.08 239.173 419.444 240.199 422.98 240.997C423.208 241.054 423.436 241.111 423.721 241.168C427.029 241.909 430.393 242.422 433.815 242.821C434.043 242.821 434.271 242.878 434.556 242.878C437.863 243.22 441.171 243.391 444.478 243.391C444.535 243.391 444.592 243.391 444.649 243.391C444.877 243.391 445.105 243.391 445.39 243.391C448.755 243.391 452.176 243.163 455.484 242.821C455.712 242.821 455.94 242.764 456.225 242.764C459.646 242.365 463.068 241.795 466.375 240.997C466.603 240.94 466.832 240.883 467.117 240.826C470.595 239.971 474.017 238.945 477.21 237.691C477.438 237.577 477.666 237.52 477.951 237.406C480.745 236.267 483.426 235.013 485.878 233.588C486.619 233.132 487.36 232.733 488.045 232.277C488.273 232.106 488.501 231.935 488.786 231.821C493.177 228.914 496.541 225.666 498.879 222.189C499.107 221.847 499.392 221.448 499.62 221.106C501.559 217.972 502.7 214.666 502.928 211.361H502.985V209.765V198.309H499.506C499.278 197.967 499.107 197.682 498.879 197.34C497.739 195.688 496.37 194.035 494.716 192.496C493.291 191.128 491.694 189.817 489.926 188.564C488.672 187.652 487.303 186.797 485.821 185.942C474.245 179.046 459.304 175.797 444.364 175.797Z" fill="#FFE840"/>
<path d="M485.707 173.859C508.516 187.025 508.516 208.397 485.707 221.562C462.897 234.728 425.888 234.728 403.022 221.562C380.212 208.397 380.212 187.025 403.022 173.859C425.831 160.637 462.84 160.637 485.707 173.859Z" fill="#FFE840"/>
<path d="M494.545 192.211C492.663 186.398 487.816 181.097 480.46 176.823C470.823 171.238 457.992 168.217 444.364 168.217C430.735 168.217 417.904 171.295 408.267 176.823C400.911 181.097 396.064 186.398 394.182 192.211C393.612 193.978 393.327 195.802 393.327 197.682C393.327 203.325 396.064 208.796 401.196 213.469C401.424 213.697 401.652 213.868 401.938 214.096C403.762 215.692 405.872 217.174 408.267 218.542C409.465 219.226 410.719 219.91 412.031 220.537C412.259 220.651 412.487 220.764 412.772 220.878C415.908 222.303 419.33 223.5 422.922 224.469C423.151 224.526 423.379 224.583 423.664 224.64C426.914 225.495 430.279 226.122 433.757 226.521C433.985 226.578 434.213 226.578 434.498 226.635C437.749 226.977 441.056 227.205 444.478 227.205H444.649C444.877 227.205 445.105 227.205 445.39 227.205C448.811 227.148 452.233 226.92 455.483 226.521C455.711 226.464 455.939 226.464 456.225 226.407C459.703 225.951 463.125 225.267 466.375 224.355C466.603 224.298 466.831 224.241 467.116 224.127C470.709 223.101 474.13 221.847 477.21 220.309C477.438 220.195 477.666 220.081 477.951 219.967C478.863 219.511 479.776 218.998 480.688 218.485C483.539 216.832 485.991 215.008 488.101 213.07C488.329 212.842 488.557 212.615 488.842 212.387C493.29 207.941 495.685 202.869 495.685 197.625C495.4 195.802 495.115 193.978 494.545 192.211ZM488.557 208.853C488.329 209.138 488.101 209.48 487.816 209.765C485.535 212.558 482.399 215.122 478.407 217.402C478.179 217.516 477.894 217.687 477.666 217.801C477.438 217.915 477.21 218.086 476.924 218.2C473.788 219.853 470.424 221.22 466.831 222.303C466.603 222.36 466.375 222.474 466.09 222.531C462.839 223.5 459.418 224.184 455.939 224.697C455.711 224.754 455.483 224.754 455.198 224.811C451.891 225.267 448.469 225.495 445.105 225.552C444.877 225.552 444.649 225.552 444.364 225.552C440.942 225.552 437.578 225.381 434.213 224.982C433.985 224.925 433.757 224.925 433.472 224.868C429.993 224.412 426.629 223.728 423.379 222.873C423.151 222.816 422.922 222.759 422.637 222.702C419.045 221.676 415.623 220.366 412.487 218.827C412.259 218.713 412.031 218.599 411.746 218.485C411.118 218.143 410.548 217.858 409.978 217.516C406.614 215.578 403.819 213.355 401.652 211.076C401.424 210.791 401.196 210.563 400.911 210.278C395.038 203.439 394.296 195.517 398.687 188.45C401.025 184.688 404.789 181.154 409.978 178.191C428.796 167.305 459.418 167.305 478.236 178.191C483.425 181.211 487.189 184.688 489.527 188.45C493.861 194.947 493.461 202.299 488.557 208.853Z" fill="#FF9D4D"/>
<path d="M446.188 192.952L451.72 196.144C451.606 196.2 451.492 196.257 451.378 196.314L448.355 198.081L443.223 195.118L444.934 194.149C445.504 193.75 445.96 193.351 446.188 192.952Z" fill="#D1975D"/>
<path d="M462.668 206.345L468.314 209.594L471.678 207.656L466.033 204.408C466.09 204.351 466.147 204.351 466.204 204.294C466.432 204.123 466.717 203.952 466.945 203.838C467.743 203.268 468.428 202.698 468.998 202.071C469.91 201.102 470.538 200.133 470.766 199.107C471.051 198.138 470.937 197.169 470.424 196.201C469.91 195.232 468.941 194.377 467.572 193.579C467.344 193.465 467.173 193.351 466.945 193.237C466.717 193.123 466.489 193.009 466.204 192.895C464.379 192.04 462.44 191.527 460.387 191.413C458.962 191.299 457.479 191.356 456.11 191.527C455.882 191.584 455.654 191.584 455.369 191.641C454.514 191.812 453.658 191.983 452.803 192.268C453.658 190.957 453.83 189.646 453.202 188.336C452.575 187.025 451.435 185.942 449.838 184.973C448.811 184.403 447.614 183.89 446.188 183.491C444.82 183.092 443.394 182.864 441.911 182.807C440.429 182.75 439.003 182.807 437.521 183.092C436.095 183.32 434.783 183.833 433.586 184.46L432.502 185.087L427.085 181.952L423.721 183.89L429.138 187.025L425.032 189.418L419.615 186.284L416.251 188.222L421.668 191.356L415.623 194.833L422.808 198.993L423.55 199.392L433.643 205.205L434.384 205.604L444.535 211.418L445.276 211.817L449.211 214.096L455.255 210.62L460.901 213.868L464.265 211.931L458.62 208.682L462.668 206.345ZM451.377 196.315C451.492 196.258 451.606 196.201 451.72 196.144C452.176 195.916 452.689 195.745 453.259 195.631C453.944 195.517 454.628 195.46 455.369 195.46C455.426 195.46 455.426 195.46 455.483 195.46C455.711 195.46 455.882 195.46 456.11 195.517C456.681 195.574 457.194 195.688 457.764 195.802C458.506 195.973 459.19 196.258 459.817 196.6C460.387 196.942 460.844 197.34 461.186 197.796C461.528 198.252 461.642 198.651 461.699 199.107C461.699 199.563 461.585 199.962 461.3 200.418C461.129 200.703 460.901 200.931 460.558 201.159C460.387 201.273 460.273 201.387 460.102 201.501C460.045 201.558 459.988 201.558 459.931 201.615L457.308 203.097L457.194 203.154L456.11 203.781L455.369 204.18L453.088 205.49L450.18 207.143L441.341 202.071L442.311 201.501L444.249 200.361L444.535 200.19L445.276 199.791L448.355 198.024L451.377 196.315ZM433.7 190.786L434.441 190.387L434.783 190.159L436.779 189.02C436.893 188.963 437.007 188.906 437.121 188.849C437.521 188.678 437.977 188.507 438.433 188.393C439.06 188.222 439.802 188.165 440.543 188.165C441.968 188.165 443.337 188.564 444.592 189.247C444.649 189.247 444.649 189.304 444.706 189.304C444.934 189.418 445.162 189.589 445.333 189.703C446.245 190.33 446.702 191.014 446.644 191.755C446.644 192.154 446.53 192.496 446.302 192.838C446.074 193.18 445.732 193.522 445.333 193.807C445.219 193.864 445.105 193.978 444.991 194.035L444.592 194.263L443.28 195.004L439.174 197.397L438.034 198.024L436.266 199.05L435.297 198.48L434.213 197.853L433.757 197.568L431.704 196.372L427.826 194.149L428.91 193.522L430.735 192.496L433.7 190.786Z" fill="#FF9D4D"/>
<path d="M392.586 213.014V224.811C392.357 224.469 392.072 224.184 391.844 223.842V212.045C392.072 212.387 392.3 212.729 392.586 213.014Z" fill="#FFE840"/>
<path d="M401.88 220.879V232.733C401.652 232.562 401.424 232.448 401.139 232.277V220.423C401.424 220.594 401.652 220.708 401.88 220.879Z" fill="#FFE840"/>
<path d="M412.715 226.065V237.919C412.487 237.805 412.259 237.748 411.974 237.634V225.837C412.259 225.894 412.487 225.951 412.715 226.065Z" fill="#FFE840"/>
<path d="M423.55 229.2V240.997C423.322 240.94 423.093 240.883 422.808 240.826V228.972C423.093 229.086 423.322 229.143 423.55 229.2Z" fill="#FFE840"/>
<path d="M434.384 230.909V242.764C434.156 242.764 433.928 242.707 433.643 242.707V230.909C433.928 230.852 434.156 230.909 434.384 230.909Z" fill="#FFE840"/>
<path d="M445.219 231.422V243.22C444.991 243.22 444.763 243.22 444.478 243.22V231.365C444.763 231.422 444.991 231.422 445.219 231.422Z" fill="#FFE840"/>
<path d="M456.054 230.738V242.593C455.825 242.65 455.597 242.65 455.312 242.65V230.852C455.597 230.795 455.825 230.738 456.054 230.738Z" fill="#FFE840"/>
<path d="M466.888 228.801V240.598C466.66 240.655 466.432 240.712 466.147 240.769V228.972C466.432 228.915 466.66 228.858 466.888 228.801Z" fill="#FFE840"/>
<path d="M477.723 225.381V237.179C477.495 237.293 477.267 237.35 476.981 237.464V225.609C477.267 225.552 477.495 225.495 477.723 225.381Z" fill="#FFE840"/>
<path d="M488.557 219.739V231.536C488.329 231.707 488.101 231.878 487.816 231.992V220.138C488.101 220.081 488.329 219.91 488.557 219.739Z" fill="#FFE840"/>
<path d="M498.195 210.221V222.018C497.966 222.36 497.738 222.759 497.453 223.101V211.304C497.738 210.962 497.966 210.563 498.195 210.221Z" fill="#FFE840"/>
<path d="M212.788 144.223V155.679V157.275H212.731C212.446 160.58 211.363 163.886 209.424 167.02C209.196 167.362 208.968 167.761 208.682 168.103C206.344 171.523 202.98 174.771 198.589 177.735C198.361 177.906 198.133 178.077 197.848 178.191C197.163 178.647 196.422 179.103 195.681 179.502C193.172 180.927 190.549 182.237 187.754 183.32C187.526 183.434 187.298 183.491 187.013 183.605C183.763 184.859 180.398 185.942 176.92 186.74C176.692 186.797 176.464 186.854 176.179 186.911C172.871 187.652 169.507 188.279 166.028 188.678C165.8 188.735 165.572 188.735 165.287 188.735C161.922 189.077 158.558 189.305 155.194 189.305C154.966 189.305 154.737 189.305 154.452 189.305C151.088 189.305 147.666 189.134 144.302 188.792C144.074 188.792 143.846 188.735 143.561 188.735C140.139 188.393 136.718 187.823 133.467 187.082C133.239 187.025 133.011 186.968 132.726 186.911C129.248 186.113 125.826 185.087 122.576 183.89C122.348 183.776 122.12 183.719 121.834 183.605C118.641 182.408 115.619 180.984 112.825 179.331C112.425 179.103 112.083 178.875 111.684 178.647C111.456 178.476 111.228 178.362 110.943 178.191C106.666 175.512 103.302 172.492 100.792 169.3C100.564 168.958 100.279 168.673 100.051 168.331C97.428 164.684 96.0024 160.865 95.6603 156.99H95.6033V143.938H99.0818C99.3669 143.482 99.709 142.969 100.051 142.513C100.279 142.171 100.507 141.887 100.792 141.545C101.705 140.348 102.731 139.208 103.872 138.125C105.297 136.757 106.894 135.446 108.662 134.192C109.916 133.281 111.285 132.426 112.768 131.571C135.577 118.405 172.586 118.405 195.453 131.571C196.935 132.426 198.247 133.281 199.559 134.192C201.326 135.446 202.923 136.757 204.349 138.125C205.945 139.664 207.371 141.317 208.511 142.969C208.739 143.311 208.967 143.596 209.139 143.938H212.788V144.223Z" fill="#FF9D4D"/>
<path d="M154.282 122.68C169.792 122.68 184.333 126.156 195.282 132.483C196.708 133.281 198.076 134.192 199.331 135.047C201.041 136.301 202.638 137.555 204.007 138.923C205.546 140.462 206.915 142.057 208.055 143.653C208.283 143.938 208.455 144.223 208.683 144.565L208.911 144.907H209.31H212.047V155.679V156.534L211.99 157.218C211.705 160.466 210.621 163.601 208.74 166.678C208.512 167.02 208.283 167.362 208.055 167.761C205.717 171.181 202.353 174.372 198.133 177.165C197.905 177.336 197.677 177.45 197.449 177.621C196.765 178.077 196.023 178.476 195.282 178.932C192.887 180.357 190.207 181.611 187.413 182.75H187.356C187.127 182.864 186.899 182.921 186.671 183.035C183.535 184.289 180.114 185.315 176.635 186.17C176.407 186.227 176.179 186.284 175.951 186.341C172.7 187.082 169.336 187.652 165.914 188.051C165.686 188.108 165.458 188.108 165.23 188.108C161.923 188.45 158.558 188.678 155.194 188.678C154.966 188.678 154.738 188.678 154.51 188.678H154.339C151.031 188.678 147.724 188.507 144.473 188.165C144.245 188.165 144.017 188.108 143.789 188.108C140.368 187.766 137.003 187.196 133.753 186.512C133.525 186.455 133.297 186.398 133.069 186.341C129.59 185.543 126.169 184.517 123.032 183.377L122.918 183.32C122.69 183.263 122.519 183.149 122.291 183.092C119.155 181.895 116.132 180.471 113.395 178.875C112.996 178.647 112.654 178.419 112.255 178.191C112.027 178.02 111.798 177.906 111.57 177.735C107.465 175.113 104.1 172.207 101.648 169.015C101.42 168.73 101.192 168.445 100.964 168.103C98.4548 164.627 97.0292 160.922 96.7441 157.161L96.687 156.477V144.85H99.4242H99.8234L100.051 144.508C100.337 144.052 100.679 143.596 101.021 143.083C101.249 142.798 101.477 142.456 101.705 142.171C102.618 141.032 103.587 139.892 104.727 138.809C106.153 137.441 107.693 136.13 109.403 134.933C110.658 134.021 112.027 133.167 113.452 132.369C124.287 126.156 138.828 122.68 154.282 122.68ZM154.282 121.939C139.341 121.939 124.344 125.245 112.939 131.799C111.456 132.654 110.145 133.509 108.833 134.42C107.065 135.674 105.469 136.985 104.043 138.353C102.903 139.493 101.876 140.633 100.964 141.772C100.736 142.114 100.451 142.399 100.223 142.741C99.8804 143.197 99.5383 143.71 99.2531 144.166H95.7747V157.218H95.8317C96.1168 161.093 97.5994 164.912 100.223 168.559C100.451 168.901 100.679 169.186 100.964 169.528C103.416 172.72 106.837 175.683 111.114 178.419C111.342 178.59 111.57 178.704 111.855 178.875C112.198 179.103 112.597 179.331 112.996 179.559C115.79 181.155 118.812 182.579 122.006 183.833C122.234 183.947 122.462 184.004 122.747 184.118C125.998 185.315 129.362 186.341 132.897 187.139C133.126 187.196 133.354 187.253 133.639 187.31C136.946 188.051 140.311 188.564 143.732 188.963C143.96 188.963 144.188 189.02 144.473 189.02C147.781 189.362 151.088 189.533 154.396 189.533C154.453 189.533 154.51 189.533 154.567 189.533C154.795 189.533 155.023 189.533 155.308 189.533C158.672 189.533 162.094 189.305 165.401 188.963C165.629 188.963 165.857 188.906 166.143 188.906C169.564 188.507 172.985 187.937 176.293 187.139C176.521 187.082 176.749 187.025 177.034 186.968C180.513 186.113 183.934 185.087 187.127 183.833C187.356 183.719 187.584 183.662 187.869 183.548C190.663 182.408 193.343 181.155 195.795 179.73C196.536 179.274 197.278 178.875 197.962 178.419C198.19 178.248 198.418 178.077 198.703 177.963C203.094 175.056 206.459 171.808 208.797 168.331C209.025 167.989 209.31 167.59 209.538 167.248C211.477 164.114 212.617 160.808 212.845 157.503H212.902V155.907V144.451H209.424C209.196 144.109 209.025 143.824 208.797 143.482C207.656 141.829 206.288 140.177 204.634 138.638C203.208 137.27 201.612 135.959 199.844 134.705C198.589 133.793 197.221 132.939 195.738 132.084C184.219 125.245 169.279 121.939 154.282 121.939Z" fill="#FFE840"/>
<path d="M195.624 120.001C218.434 133.167 218.434 154.539 195.624 167.704C172.815 180.87 135.806 180.87 112.939 167.704C90.1294 154.539 90.1294 133.167 112.939 120.001C135.806 106.836 172.815 106.836 195.624 120.001Z" fill="#FFE840"/>
<path d="M204.52 138.353C202.638 132.54 197.791 127.239 190.435 122.965C180.797 117.38 167.967 114.359 154.338 114.359C140.709 114.359 127.879 117.437 118.242 122.965C110.886 127.239 106.039 132.54 104.157 138.353C103.587 140.12 103.302 141.943 103.302 143.824C103.302 149.466 106.039 154.938 111.171 159.611C111.399 159.839 111.627 160.01 111.912 160.238C113.737 161.834 115.847 163.316 118.242 164.684C119.439 165.368 120.694 166.051 122.005 166.678C122.234 166.792 122.462 166.906 122.747 167.02C125.883 168.445 129.305 169.642 132.897 170.611C133.125 170.668 133.353 170.725 133.638 170.782C136.889 171.637 140.253 172.264 143.732 172.663C143.96 172.72 144.188 172.72 144.473 172.777C147.723 173.119 151.031 173.347 154.452 173.347H154.623C154.851 173.347 155.08 173.347 155.365 173.347C158.786 173.29 162.208 173.062 165.458 172.663C165.686 172.606 165.914 172.606 166.199 172.549C169.678 172.093 173.099 171.409 176.35 170.497C176.578 170.44 176.806 170.383 177.091 170.269C180.683 169.243 184.105 167.989 187.184 166.45C187.412 166.336 187.64 166.222 187.925 166.108C188.838 165.652 189.75 165.14 190.663 164.627C193.514 162.974 195.966 161.15 198.076 159.212C198.304 158.984 198.532 158.756 198.817 158.528C203.265 154.083 205.66 149.011 205.66 143.767C205.375 142 205.09 140.177 204.52 138.353ZM198.532 154.995C198.304 155.28 198.076 155.622 197.791 155.907C195.51 158.699 192.373 161.264 188.382 163.544C188.154 163.658 187.868 163.829 187.64 163.943C187.412 164.057 187.184 164.228 186.899 164.342C183.763 165.994 180.398 167.362 176.806 168.445C176.578 168.502 176.35 168.616 176.064 168.673C172.814 169.642 169.393 170.326 165.914 170.839C165.686 170.896 165.458 170.896 165.173 170.953C161.865 171.409 158.444 171.637 155.08 171.694C154.851 171.694 154.623 171.694 154.338 171.694C150.917 171.694 147.552 171.523 144.188 171.124C143.96 171.067 143.732 171.067 143.447 171.01C139.968 170.554 136.604 169.87 133.353 169.015C133.125 168.958 132.897 168.901 132.612 168.844C129.019 167.818 125.598 166.507 122.462 164.969C122.234 164.855 122.005 164.741 121.72 164.627C121.093 164.285 120.523 164 119.953 163.658C116.588 161.72 113.794 159.497 111.627 157.218C111.399 156.933 111.171 156.705 110.886 156.42C105.012 149.58 104.271 141.658 108.662 134.591C111 130.83 114.763 127.296 119.953 124.333C138.771 113.447 169.393 113.447 188.211 124.333C193.4 127.353 197.163 130.83 199.501 134.591C203.835 141.089 203.436 148.498 198.532 154.995Z" fill="#FF9D4D"/>
<path d="M156.163 139.094L161.694 142.285C161.58 142.342 161.466 142.399 161.352 142.456L158.33 144.223L153.198 141.259L154.908 140.291C155.479 139.892 155.878 139.493 156.163 139.094Z" fill="#D1975D"/>
<path d="M172.643 152.487L178.289 155.736L181.653 153.798L176.008 150.549C176.065 150.492 176.122 150.492 176.179 150.435C176.407 150.264 176.692 150.093 176.92 149.979C177.718 149.41 178.403 148.84 178.973 148.213C179.885 147.244 180.513 146.275 180.741 145.249C181.026 144.28 180.912 143.311 180.398 142.342C179.885 141.374 178.916 140.519 177.547 139.721C177.319 139.607 177.148 139.493 176.92 139.379C176.692 139.265 176.464 139.151 176.179 139.037C174.354 138.182 172.415 137.669 170.362 137.555C168.937 137.441 167.454 137.498 166.085 137.669C165.857 137.726 165.629 137.726 165.344 137.783C164.489 137.954 163.633 138.125 162.778 138.41C163.633 137.099 163.804 135.788 163.177 134.477C162.55 133.167 161.409 132.084 159.813 131.115C158.786 130.545 157.589 130.032 156.163 129.633C154.795 129.234 153.369 129.006 151.886 128.949C150.404 128.892 148.978 128.949 147.495 129.234C146.07 129.462 144.758 129.975 143.561 130.602L142.477 131.229L137.06 128.094L133.696 130.032L139.113 133.167L135.007 135.56L129.59 132.426L126.225 134.363L131.643 137.498L125.598 140.975L132.783 145.135L133.525 145.534L143.618 151.347L144.359 151.746L154.509 157.56L155.251 157.958L159.185 160.238L165.23 156.762L170.875 160.01L174.24 158.072L168.594 154.824L172.643 152.487ZM161.295 142.456C161.409 142.399 161.523 142.342 161.637 142.285C162.094 142.057 162.607 141.887 163.177 141.773C163.861 141.659 164.546 141.602 165.287 141.602C165.344 141.602 165.344 141.602 165.401 141.602C165.629 141.602 165.8 141.602 166.028 141.659C166.599 141.716 167.112 141.83 167.682 141.944C168.423 142.114 169.108 142.399 169.735 142.741C170.305 143.083 170.761 143.482 171.103 143.938C171.446 144.394 171.56 144.793 171.617 145.249C171.617 145.705 171.503 146.104 171.218 146.56C171.046 146.845 170.818 147.073 170.476 147.301C170.305 147.415 170.191 147.529 170.02 147.643C169.963 147.7 169.906 147.7 169.849 147.757L167.226 149.239L167.112 149.296L166.028 149.923L165.287 150.321L163.006 151.632L160.098 153.285L151.259 148.213L152.228 147.643L154.167 146.503L154.452 146.332L155.194 145.933L158.273 144.166L161.295 142.456ZM143.618 136.985L144.359 136.586L144.701 136.358L146.697 135.218C146.811 135.161 146.925 135.104 147.039 135.047C147.438 134.876 147.895 134.705 148.351 134.591C148.978 134.42 149.719 134.363 150.461 134.363C151.886 134.363 153.255 134.762 154.509 135.446C154.566 135.446 154.566 135.503 154.623 135.503C154.852 135.617 155.08 135.788 155.251 135.902C156.163 136.529 156.619 137.213 156.562 137.954C156.562 138.353 156.448 138.695 156.22 139.037C155.992 139.379 155.65 139.721 155.251 140.006C155.137 140.063 155.023 140.177 154.909 140.234L154.509 140.462L153.198 141.203L149.092 143.596L147.952 144.223L146.184 145.249L145.214 144.679L144.131 144.052L143.675 143.767L141.622 142.57L137.744 140.348L138.828 139.721L140.653 138.695L143.618 136.985Z" fill="#FF9D4D"/>
<path d="M102.56 159.213V171.01C102.332 170.668 102.047 170.383 101.819 170.041V158.244C102.047 158.529 102.275 158.871 102.56 159.213Z" fill="#FFE840"/>
<path d="M111.855 167.02V178.818C111.627 178.647 111.399 178.533 111.114 178.362V166.508C111.342 166.736 111.627 166.907 111.855 167.02Z" fill="#FFE840"/>
<path d="M122.69 172.207V184.061C122.462 183.947 122.234 183.89 121.948 183.776V171.979C122.177 172.036 122.462 172.15 122.69 172.207Z" fill="#FFE840"/>
<path d="M133.524 175.398V187.196C133.296 187.139 133.068 187.082 132.783 187.025V175.17C133.068 175.284 133.296 175.341 133.524 175.398Z" fill="#FFE840"/>
<path d="M144.359 177.108V188.963C144.131 188.963 143.903 188.906 143.618 188.906V177.108C143.903 177.051 144.131 177.051 144.359 177.108Z" fill="#FFE840"/>
<path d="M155.193 177.564V189.362C154.965 189.362 154.737 189.362 154.452 189.362V177.507C154.737 177.564 154.965 177.564 155.193 177.564Z" fill="#FFE840"/>
<path d="M166.028 176.88V188.735C165.8 188.792 165.572 188.792 165.287 188.792V176.937C165.572 176.937 165.8 176.937 166.028 176.88Z" fill="#FFE840"/>
<path d="M176.863 175V186.797C176.635 186.854 176.407 186.911 176.122 186.968V175.114C176.407 175.114 176.635 175.057 176.863 175Z" fill="#FFE840"/>
<path d="M187.697 171.523V183.377C187.469 183.491 187.241 183.548 186.956 183.662V171.808C187.241 171.751 187.469 171.637 187.697 171.523Z" fill="#FFE840"/>
<path d="M198.532 165.881V177.678C198.304 177.849 198.076 178.02 197.791 178.134V166.28C198.076 166.223 198.304 166.052 198.532 165.881Z" fill="#FFE840"/>
<path d="M208.169 156.363V168.16C207.941 168.502 207.713 168.901 207.428 169.243V157.446C207.713 157.104 207.941 156.762 208.169 156.363Z" fill="#FFE840"/>
<defs>
<linearGradient id="paint0_linear" x1="4.34347" y1="224.499" x2="166.763" y2="224.499" gradientUnits="userSpaceOnUse">
<stop stop-color="#483CA6"/>
<stop offset="1" stop-color="#5167E0"/>
</linearGradient>
<linearGradient id="paint1_linear" x1="6.33397" y1="133.597" x2="419.403" y2="133.597" gradientUnits="userSpaceOnUse">
<stop stop-color="#6A5EBF"/>
<stop offset="1" stop-color="#5E72E4"/>
</linearGradient>
</defs>
</svg>
