<?xml version="1.0" encoding="utf-8"?>
<!-- Generator: Adobe Illustrator 24.2.1, SVG Export Plug-In . SVG Version: 6.00 Build 0)  -->
<svg version="1.1" id="Слой_2" xmlns="http://www.w3.org/2000/svg" xmlns:xlink="http://www.w3.org/1999/xlink" x="0px" y="0px"
	 viewBox="0 0 3600 2000" style="enable-background:new 0 0 3600 2000;" xml:space="preserve">
<style type="text/css">
	.st0{fill:#FFFFFF;}
	.st1{fill:#EBF2F9;}
	.st2{fill:#ADCBF9;}
	.st3{fill:#ACD29A;}
	.st4{fill:#D86713;}
	.st5{fill:#EE9849;}
	.st6{fill:#F1A34F;}
	.st7{opacity:0.4;fill:#D86713;}
	.st8{fill:#699DEE;}
	.st9{fill:#E9F3FE;}
	.st10{fill:#AFCDFB;}
	.st11{fill:#FCA56B;}
	.st12{fill:#E58638;}
	.st13{fill:#163560;}
	.st14{fill:#1C468A;}
	.st15{fill:#FFB27D;}
	.st16{fill:#588FE0;}
	.st17{fill:#B74B42;}
	.st18{fill:#FFC08D;}
	.st19{fill:#FFE6D2;}
	.st20{fill:#4A75CB;}
	.st21{fill:#2B478B;}
	.st22{fill:#739AF0;}
	.st23{fill:#E2915A;}
	.st24{fill:#80BDCC;}
	.st25{fill:#5F9AA8;}
	.st26{fill:#B84C42;}
	.st27{fill:#FFB93E;}
	.st28{fill:#CAE0FF;}
	.st29{fill:#283250;}
</style>
<rect class="st0" width="3600" height="2000"/>
<g>
	<path class="st1" d="M2897.8,1992.86c0,0,369.64,35.95,480.35-184.87c160.93-321-158.68-573.24-395.79-527.18
		c-516.67,100.36-392.25-1006.83-1221.43-780.86c-233.15,63.54-863.1-313.91-1038.8,291.29C680.36,935.15,532.34,951,317.46,1042.32
		c-420.53,178.71-228.25,953.56,72.24,956.6C690.19,2001.96,2897.8,1992.86,2897.8,1992.86z"/>
	<path class="st2" d="M1753.51,792.46l-37.08-0.85c11.92,15.44,14.59,29.67,7.17,41.7c-7.42,12.28-25.17,22.37-51.67,30.03
		c20.06-53.37,30.15-109.67,30.15-167.42c0-64.68-12.64-127.42-37.69-186.39c-24.07-57.02-58.6-108.33-102.62-152.22
		c-44.01-44.01-95.2-78.54-152.22-102.74c-59.09-24.92-121.83-37.57-186.39-37.57c-64.68,0-127.42,12.64-186.51,37.57
		c-7.05,3.04-14.1,6.2-20.91,9.48c-0.02,0.01-0.04,0.02-0.06,0.03c-20.6-6.28-40.66-11.44-60.02-15.36
		c-97.71-19.83-167.06-6.12-195.23,38.59c-26.81,42.53-12.21,106.54,40.98,181.2c-0.01,0.01-0.01,0.02-0.02,0.04
		c-7.17,13.25-13.62,26.87-19.58,40.97c-4.5,10.58-8.51,21.15-12.16,31.98c-99.94,5.96-153.44,23.55-172.89,55.4
		c-22.62,37.08,8.27,86.85,107.11,135.24c13.62,6.69,28.21,13.25,43.53,19.82c5.11,44.86,16.66,88.51,34.41,130.34
		c24.07,57.02,58.6,108.33,102.62,152.34c44.01,43.89,95.2,78.42,152.22,102.62c59.09,24.92,121.83,37.57,186.51,37.57
		c64.56,0,127.3-12.64,186.39-37.57c57.02-24.19,108.21-58.72,152.22-102.62c42.8-42.8,76.72-92.65,100.67-147.84
		c48.75-10.09,80.85-25.9,93.62-46.81C1764.94,825.53,1763.84,809.48,1753.51,792.46z M1639.1,870.88
		c-32.46,5.84-72.95,9.24-120.24,9.73c-73.39,0.89-157.67-4.9-246.5-16.61c7.47-16.27,14.8-32.99,21.95-50.09
		c27.56,9.22,54.31,16.53,79.82,21.7c29.23,5.93,55.9,8.86,79.7,8.86c55.8,0,95.78-16.11,115.52-47.45
		c3.25-5.16,5.9-10.64,7.94-16.42h-28.45c-0.47,0.87-0.97,1.72-1.5,2.56c-14.67,23.28-47.44,35.31-93.46,35.3
		c-22.01,0-47.07-2.75-74.6-8.34c-24-4.87-49.17-11.71-75.13-20.32c6.85-17.14,13.51-34.6,19.94-52.33
		c17.34-47.81,32.18-95.2,44.19-140.71c54.73,8.07,113.46,12.12,175.88,12.12c38.86,0,79.15-1.57,120.77-4.71
		c6.18,29.96,9.3,60.62,9.3,91.76C1674.24,756.59,1662.44,815.44,1639.1,870.88z M1046.46,1108.3
		c-13.83-5.02-20.86-24.88-24.31-40.65c-5.46-24.93-6.45-59.94-2.86-101.26c1.82-20.89,4.74-43.11,8.67-66.34
		c56.71,15.11,112.86,34.55,167.54,57.97c-12.32,21.24-24.77,40.93-37.22,58.78c-23.73,34.01-46.93,60.25-67.1,75.88
		C1078.42,1102.58,1060.3,1113.31,1046.46,1108.3z M1208.03,935.79c-57.23-24.66-116.08-45.05-175.51-60.78
		c2.09-10.79,4.39-21.76,6.89-32.9c16.53,3.76,33.29,7.4,50.26,10.9c49.66,10.16,99.21,18.78,147.7,25.76
		C1227.77,898.64,1217.96,917.69,1208.03,935.79z M1100.61,835.01c-19.19-3.95-38.1-8.07-56.68-12.36
		c8.75-36.41,19.5-74.36,32.04-113.03c65.22,40.09,131.55,72.71,194.36,95.85c-7.88,18.81-15.97,37.15-24.24,54.9
		C1198.39,853.54,1149.58,845.05,1100.61,835.01z M941.31,343.6c4.15,8.51,9.89,19.07,17.63,31.02
		c32.97,50.96,76.52,87.9,107.25,109.91c17.64,12.64,36.47,24.36,56.43,35.13c-18.22,39.69-35.56,82.05-51.52,126.04
		c-2.97,8.2-5.87,16.39-8.69,24.56c-95.28-62.02-175.96-133.19-228.88-202.07c-0.01-0.01-0.01-0.02-0.02-0.03
		c13.25-22.6,28.44-43.99,45.45-64.04c7.05-8.27,14.35-16.29,22.01-24.07c1.09-1.09,2.07-2.07,3.16-3.16
		C915.97,365.05,928.38,353.96,941.31,343.6z M1348.74,274.87c13.83,5.02,20.86,24.87,24.31,40.65
		c5.46,24.93,6.45,59.94,2.85,101.26c-3.93,45.22-12.99,96.59-26.47,151.28c-16.28-2.8-32.17-5.97-47.65-9.53
		c-53.49-12.3-102.25-29.13-145.8-50.26c25.98-54.19,53.46-102.51,80.93-141.89c23.73-34.01,46.93-60.25,67.1-75.88
		c10.52-8.16,24.69-16.89,37.09-16.89C1343.75,273.59,1346.31,273.98,1348.74,274.87z M1294.36,582.84
		c15.85,3.68,32.12,6.95,48.77,9.85c-11.7,44.01-26.1,89.84-42.89,136.12c-6.47,17.84-13.17,35.4-20.06,52.61
		c-63.05-23.15-129.97-56.26-195.77-97.16c3.4-9.94,6.91-19.91,10.53-29.91c15.59-43,32.52-84.38,50.27-123.13
		C1189.94,552.9,1239.81,570.18,1294.36,582.84z M1542.08,376.89c41.46,41.46,74.04,89.73,96.78,143.47
		c8.11,19.2,14.83,38.82,20.17,58.79c-103.99,7.61-199.27,5.22-284.45-7.11c13.52-55.23,22.62-107.18,26.61-153.07
		c4.41-50.67,3.87-110.69-16.68-144.47c4.76,1.83,9.5,3.74,14.22,5.73C1452.47,302.97,1500.74,335.43,1542.08,376.89z
		 M1223.16,244.73c31.25,0,61.99,3.14,92.03,9.38c-35.44,15.43-71.62,58.36-99.09,97.73c-28.11,40.29-56.18,89.61-82.69,144.81
		c-17.89-9.72-34.8-20.22-50.7-31.49c-75.4-53.49-108.62-111.17-120.7-137.22c18.49-13.15,37.94-24.9,58.27-35.15
		c0.01,0,0.01,0,0.02,0.01c8.28-4.18,16.72-8.09,25.29-11.76c0.62-0.27,1.24-0.54,1.87-0.8c0.14-0.06,0.29-0.12,0.44-0.18
		c1.83-0.77,3.66-1.52,5.5-2.27c0.49-0.19,1-0.39,1.48-0.59C1108.27,255.67,1164.93,244.73,1223.16,244.73z M782.44,301.19
		c14.67-23.28,47.44-35.3,93.46-35.3c22.01,0,47.07,2.75,74.6,8.34c10.45,2.12,21.13,4.61,31.99,7.47c0.01,0,0.02,0.01,0.03,0.01
		c-35.73,20.67-68.55,45.95-98.09,75.61c-6.2,6.08-12.16,12.4-17.99,18.97c-7.29,8.03-14.23,16.41-20.91,24.93
		c-10.7,13.62-20.55,27.84-29.67,42.43c-0.01,0.01-0.01,0.02-0.02,0.04C775.18,383.3,762.95,332.1,782.44,301.19z M807.35,520.36
		c4.01-9.24,8.15-18.36,12.64-27.23c0-0.01,0.01-0.01,0.01-0.02c55.72,69.65,137.86,140.85,233.82,202.6
		c-13.61,41.41-25.22,82.12-34.59,121.12c-69.82-16.89-134.52-36-191.22-56.46c-11.92-4.25-23.47-8.63-34.53-13.01
		c-6.57-2.55-13.01-5.23-19.33-7.9c-0.97-9.73-1.7-19.58-1.95-29.42c-0.12-4.74-0.24-9.36-0.24-14.1c0-5.47,0.12-11.06,0.24-16.53
		c1.58-40.97,8.51-80.97,20.67-119.64c2.07-6.57,4.26-13.01,6.69-19.45C802,533.61,804.56,526.92,807.35,520.36z M726.01,717.81
		c-86.2-42.07-125.59-82.68-107.97-111.49c14.22-23.34,66.02-39.15,145.29-44.99c-9.73,32.83-15.68,66.75-17.99,101.16
		c-0.73,10.21-1.09,20.43-1.22,30.76v2.67c0,10.33,0.36,20.67,0.97,30.88C738.54,723.89,732.21,720.85,726.01,717.81z
		 M791.43,769.48c11.67,4.38,23.59,8.75,35.87,13.01c56.45,19.56,119.73,37.74,187.41,53.87c-2.46,10.97-4.73,21.77-6.81,32.41
		c-5.53-1.34-11.07-2.66-16.6-3.92c-93.58-21.3-163.8-25.63-196.35-26.37c-8.06-24.29-13.99-49.13-17.74-74.48
		C781.94,765.83,786.68,767.65,791.43,769.48z M807.35,871.49c-1.02-2.41-2-4.83-2.98-7.26c34.72,1.4,99.08,6.65,181.29,25.37
		c5.88,1.34,11.76,2.74,17.64,4.17c-4.23,24.68-7.35,48.26-9.28,70.43c-3.65,41.98-3.91,90.39,7.79,124.97
		c-35.64-20.07-68.34-44.88-97.68-74.21C862.67,973.49,830.09,925.23,807.35,871.49z M1398.73,1111.61
		c-55.68,23.59-114.65,35.5-175.57,35.5c-46.92,0-92.76-7.08-136.8-21.11c33.37-17.49,66.91-57.67,92.73-94.68
		c13.32-19.09,26.63-40.22,39.77-63.03c75.76,34.31,148.59,76.46,217.01,125.56C1423.81,1100.31,1411.43,1106.24,1398.73,1111.61z
		 M1542.08,1014.95c-24.94,25.02-52.43,46.73-82.1,65.04c-71.87-52.53-148.66-97.51-228.66-133.9c11-20.16,21.84-41.45,32.43-63.68
		c73.24,9.71,143.65,15.53,207.94,17.04c16.78,0.49,33.07,0.49,48.88,0.36c40.97-0.49,77.45-2.92,108.69-7.29
		C1607.37,937.87,1578.06,978.97,1542.08,1014.95z"/>
	<path class="st3" d="M2720.8,1868.96c-10.22-39.63-79.28-8.94-136.16,24.32c-2.65-4.19-5.4-8.34-8.23-12.45
		c40.72-25.26,97.9-67.27,76.13-92.83c-21.5-25.26-63.52,31.93-89.8,74.1c-70.41-91.38-174.81-156.42-174.81-156.42
		s435.71-362.03,110.12-553.02c-325.59-190.99-572.94,481.03-572.94,481.03s-222.48-206.02-434.91-129.93
		c-218.16,78.14-81.82,222.95-271.28,262.11c-22.31-85.41-63.54-205.85-119.92-212.91c-74.46-9.33-43.13,83.86,70.02,220
		c-21.93,1.97-46.91,2.97-75.47,2.89c-303.86-0.9-225.89,217.88-225.89,217.88l1756.84,4.05c-2.38-21.53-8.65-42.7-17.66-63.2
		C2667.02,1925.13,2730.42,1906.27,2720.8,1868.96z"/>
	<g>
		<g>
			<path class="st4" d="M1811.82,1028.23l-76.61,910.96c0,0-8.03,55.22,33.05,55.32c67.54,0.16,336.15,0,336.15,0
				s-50.83-11.49-50.21-37.36c0.73-30.49,89.55-937.54,89.55-937.54L1811.82,1028.23z"/>
			<path class="st5" d="M2126.2,1977.98c-13.28,0.04-269.84,0.85-335.61,0c-28.66-0.36-33.69-25.48-33.93-41.75
				c-0.12-7.8,0.87-13.56,0.87-13.56l1.99-23.68l5.08-60.35l4.48-53.32l5.76-68.51l4.85-57.83l54.44-647.3l331.91-8.61
				c0,0-37.41,379.6-63.87,655.91c-2.95,30.79-5.76,60.31-8.36,87.86c-0.84,8.8-1.65,17.4-2.44,25.77
				c-2.45,26.14-4.7,50.15-6.65,71.35c-1.03,11.17-1.98,21.55-2.84,31.06c-3.38,37.26-5.35,61.06-5.38,65.58
				c-0.01,2.64,0.21,5.09,0.65,7.37C2082.61,1977.03,2121.21,1977.98,2126.2,1977.98z"/>
			<polygon class="st6" points="1005.76,532.52 1192.37,1282.13 1217.93,1384.79 1304.84,1733.93 2919.64,1733.93 2599.27,532.52 
							"/>
			<polygon class="st5" points="1005.75,532.52 979.89,541.14 1270.46,1760.01 1304.85,1733.94 			"/>
			<polygon class="st4" points="1270.46,1760.01 2875.31,1760.01 2919.63,1733.94 1304.85,1733.94 			"/>
			<rect x="1834.04" y="1978.34" class="st6" width="347.47" height="16.51"/>
			<polygon class="st4" points="2093.18,1760.01 2091.39,1772.63 1764.6,1838.65 1769.09,1785.33 1771.23,1760.01 			"/>
			<path class="st7" d="M2126.2,1977.98c-13.28,0.04-269.84,0.85-335.61,0c-28.66-0.36-33.69-25.48-33.93-41.75l325.24-61.19
				c-3.38,37.26-5.35,61.06-5.38,65.58c-0.01,2.64,0.21,5.09,0.65,7.37C2082.61,1977.03,2121.21,1977.98,2126.2,1977.98z"/>
			<polygon class="st7" points="2014.2,1490.72 1304.85,1733.94 1217.93,1384.79 			"/>
			<polygon class="st8" points="1005.75,532.52 2599.27,532.52 2857.82,1498.08 1246.13,1498.08 			"/>
		</g>
		<path class="st4" d="M2155.05,1620.14c-4.6-23.68-27.53-42.88-51.21-42.88c-23.68,0-39.15,19.2-34.54,42.88
			c4.6,23.68,27.53,42.88,51.21,42.88C2144.19,1663.01,2159.65,1643.82,2155.05,1620.14z"/>
		<polygon class="st9" points="2782.67,1456.24 1290.65,1456.24 1121.68,783.13 1108.73,731.51 1097.68,687.48 1071.76,584.24 
			2542.27,584.24 2570.73,687.48 2582.87,731.51 2597.1,783.13 		"/>
		<polygon class="st10" points="2570.73,687.48 1097.68,687.48 1071.76,584.24 2542.27,584.24 		"/>
		<g>
			<path class="st9" d="M1142.28,617.99c-7.13,0-11.47,5.78-9.69,12.91c1.78,7.13,9,12.91,16.12,12.91c7.13,0,11.47-5.78,9.69-12.91
				C1156.63,623.77,1149.41,617.99,1142.28,617.99z"/>
			<path class="st9" d="M1185.17,617.99c-7.13,0-11.47,5.78-9.69,12.91c1.78,7.13,9,12.91,16.12,12.91c7.13,0,11.47-5.78,9.69-12.91
				C1199.51,623.77,1192.29,617.99,1185.17,617.99z"/>
			<path class="st9" d="M1247.46,630.9c-1.78-7.13-9-12.91-16.12-12.91c-7.13,0-11.47,5.78-9.69,12.91
				c1.78,7.13,9,12.91,16.12,12.91S1249.24,638.02,1247.46,630.9z"/>
		</g>
	</g>
	<g>
		<path class="st11" d="M505.93,786.58c0,0,4.57-14.37-2.6-27.3c-7.17-12.93,4.41-21.9,1.49-25.8c-2.92-3.9-21.98-3.51-28.48,15.26
			s4.49,39.95,4.49,39.95L505.93,786.58z"/>
		<path class="st12" d="M425.96,889.88c13.52,4.03,27.45-4.95,29.34-18.64l18.98-82.55c0,0,3.96-6.39,17.64-5.84
			c14.9,0.61,18.92,7.99,18.92,7.99s9.21,145.33-33.81,165.84C434,977.19,385.29,877.75,425.96,889.88z"/>
		<path class="st13" d="M515.15,1993.59H393.97c-8.62-7.8-11.46-53.69-11.46-53.69s37.57-33.85,49.85-7.06
			c11.67,25.46,43.92,39,63.18,42.35C512.14,1978.09,514.76,1990.26,515.15,1993.59z"/>
		<path class="st13" d="M368.36,1993.59H247.18c-8.62-7.8-11.47-53.69-11.47-53.69s37.57-33.85,49.85-7.06
			c11.67,25.46,43.92,39,63.18,42.35C365.34,1978.09,367.97,1990.26,368.36,1993.59z"/>
		<path class="st13" d="M455.5,1359.21c0,0-17.24,110.24-81.54,305.95c-64.3,195.7-73.07,280.45-73.07,280.45l-68.98-1.93
			c0,0-0.59-213.88,29.05-312.29c29.63-98.41,6.4-354.79,6.4-354.79L455.5,1359.21z"/>
		<path class="st14" d="M489.07,1282.63c0,0,2.44,166.13-26.3,370.11c-28.74,203.98-19,290.57-19,290.57l-68.84,2.29
			c0,0-41.14-204.06-29.35-306.16c11.8-102.1-56.34-350.34-56.34-350.34L489.07,1282.63z"/>
		<path class="st15" d="M355.8,893.86l32.47,24.05l46.93-9.88c-0.65-4.28-3.75-22.02-6.57-38.08c-0.17-0.95-0.34-1.89-0.5-2.82
			c-2.42-13.67-4.5-25.41-4.5-25.41l-43.83-21.85l-16.34-8.14c0.04,0.29,1.27,15.17,1.44,17.34
			C367.96,867.65,355.8,893.86,355.8,893.86z"/>
		<path class="st5" d="M431.91,881.73c-1.03-0.43-63.84-18.97-70.66-16.71c-6.82,2.25-10.86,15.45-10.86,15.45l102.73,23.23
			C453.12,903.69,445.04,887.25,431.91,881.73z"/>
		<path class="st5" d="M262.79,1303.14c10.65,48.57,187.83,54.33,233.5,10.24c5.2-5.02,5.45-28.4,3.49-59.93
			c-3.83-61.59-16.14-154.23-16.62-201.56c-0.23-22.86-3.38-46.23-7.56-67.46c-8.9-45.25-22.47-80.75-22.47-80.75
			s-86.54-27.98-102.73-23.22C272.38,903.39,252.14,1254.58,262.79,1303.14z"/>
		<path class="st12" d="M499.77,1253.46c-3.83-61.59-16.14-154.23-16.62-201.56c-0.23-22.86-3.38-46.23-7.56-67.46l-52.06-9.19
			C423.54,975.25,372.64,1183.14,499.77,1253.46z"/>
		<path class="st11" d="M368.18,829.75c9.62,18.42,45.49,34.34,60.45,40.2c-0.17-0.95-0.34-1.89-0.5-2.82
			c-2.42-13.67-4.5-25.41-4.5-25.41l-43.83-21.85C370.11,819.72,364.21,822.17,368.18,829.75z"/>
		<path class="st15" d="M444.92,839.15c0,0-79.07,24.67-93.68-24.81c-14.6-49.48-34.64-79.62,15.23-97.46
			c49.87-17.84,65.29-1.87,74.19,13.46C449.55,745.67,465.12,831.46,444.92,839.15z"/>
		<path class="st13" d="M433.61,730.69c0,0-5.04,57.58-16.95,55.08c-11.91-2.5-22.71-4.35-20.96,13
			c1.74,17.36,18.26,37.4-18.44,40.47c-36.7,3.07-89.45-91.57-79.37-109.49C326.97,678.05,475.65,667.62,433.61,730.69z"/>
		<g>
			<g>
				<path class="st2" d="M544.82,718.33L468.2,738.8l2.37,31.58l78.11-0.54c6.18-0.46,10.33-12.37,9.26-26.59
					C556.88,729.02,551,717.87,544.82,718.33z"/>
				<path class="st8" d="M476.26,754.07c-0.66-8.72-4.26-15.56-8.05-15.28c-3.79,0.28-6.33,7.59-5.68,16.31
					c0.66,8.72,4.26,15.56,8.05,15.28C474.37,770.1,476.91,762.79,476.26,754.07z"/>
			</g>
			<path class="st8" d="M504.66,753.04l-23.69,0.44c-0.75,4.98,0.53,7.12,0.53,7.12l23.62,1.58L504.66,753.04z"/>
			<g>
				<path class="st2" d="M589.43,717.22l-87.96,23.5l2.72,36.26l89.68-0.63c7.1-0.53,11.86-14.2,10.63-30.53
					C603.29,729.49,596.53,716.68,589.43,717.22z"/>
				<path class="st8" d="M510.72,758.25c-0.75-10.01-4.89-17.87-9.25-17.54c-4.35,0.33-7.27,8.71-6.52,18.72
					c0.75,10.01,4.89,17.87,9.25,17.54C508.55,776.65,511.47,768.27,510.72,758.25z"/>
			</g>
		</g>
		<path class="st15" d="M524.38,786.45c0,0-8.3-12.59-4.92-26.98c3.38-14.39-10.2-19.87-8.45-24.42c1.75-4.55,20.2-9.35,31.56,6.95
			c11.36,16.3,6.54,39.66,6.54,39.66L524.38,786.45z"/>
		<path class="st5" d="M416.2,907.13c0,0,45.93-8.37,88.37-7.75c14.11,0.21,25.07-12.23,23.17-25.91l-7.41-83.02
			c0,0,5.31-8.81,18.63-11.99c14.5-3.46,19.16,4.36,19.16,4.36s49.59,135.55,13.76,166.98c-35.83,31.43-171.51,51.14-171.51,51.14
			L416.2,907.13z"/>
	</g>
	<g>
		<g>
			<path class="st5" d="M3335.47,343.93c-4.73,109.16-30.12,242.78-110.85,350.28c-2.97,3.94-5.95,7.86-8.94,11.73
				c-9.06,11.7-18.27,23.08-27.63,34.11c-10.43,12.29-28.67,14.27-41.57,4.58l-358.34-269.12c-4.1-3.08-7.13-7.07-8.98-11.5
				c-1.26-2.98-1.98-6.16-2.15-9.39c-0.3-5.74,1.17-11.61,4.56-16.74c8.41-12.76,17.21-25.47,26.42-38.11
				c2.88-3.96,5.81-7.92,8.77-11.86c80.72-107.5,201.97-169.13,305.48-204.11c54.66-18.47,104.38-29.51,140.57-35.94
				c6.01-1.06,11.86-1.28,17.45-0.73c8.46,0.82,16.32,3.42,23.2,7.49c14.87,8.79,25.22,24.49,27.34,44.31
				C3334.72,235.47,3337.98,286.29,3335.47,343.93z"/>
			<path class="st16" d="M2807.74,400.1c-10.46,14.36-20.4,28.81-29.83,43.31c-6.14,9.44-3.87,22.03,5.14,28.8l367.41,275.92
				c10.52,7.9,25.35,6.25,33.91-3.74c10.53-12.29,20.9-25.01,31.06-38.13L2807.74,400.1z"/>
			<g>
				<path class="st17" d="M3126.2,508.96c-23.37,0-46.01-7.51-65.04-21.8c-23.21-17.43-38.25-42.86-42.34-71.6
					c-4.09-28.74,3.26-57.35,20.7-80.57l0,0c17.43-23.21,42.86-38.25,71.6-42.33c28.74-4.09,57.35,3.26,80.56,20.69
					c23.21,17.43,38.25,42.86,42.33,71.6c4.09,28.74-3.26,57.35-20.7,80.57c-17.43,23.21-42.86,38.25-71.6,42.33
					C3136.54,508.6,3131.35,508.96,3126.2,508.96z M3126.6,316.82c-3.95,0-7.93,0.28-11.92,0.85c-22.06,3.14-41.58,14.68-54.96,32.5
					l0,0c-13.38,17.82-19.02,39.78-15.89,61.84c3.14,22.06,14.68,41.58,32.5,54.96c17.82,13.38,39.78,19.02,61.84,15.89
					c22.06-3.14,41.58-14.68,54.96-32.5c13.38-17.82,19.02-39.78,15.89-61.84c-3.14-22.06-14.68-41.58-32.5-54.96
					C3161.92,322.59,3144.54,316.82,3126.6,316.82z"/>
			</g>
			<path class="st18" d="M3311.67,179.79c-1-9.42-3.88-17.91-8.21-25.18c-6.89-4.07-14.74-6.67-23.2-7.49
				c0.06,0.48,0.12,0.95,0.17,1.43c3.92,36.54,7.18,87.36,4.68,145c-4.74,109.16-30.13,242.78-110.86,350.28
				c-2.96,3.95-5.94,7.86-8.95,11.73c-2,2.58-4,5.14-6.02,7.68l35.06,26.38c0.73-0.94,1.47-1.87,2.21-2.82
				c3-3.88,5.98-7.79,8.94-11.73c80.73-107.5,106.12-241.12,110.86-350.27C3318.85,267.16,3315.58,216.34,3311.67,179.79z"/>
			<path class="st16" d="M3330.8,198.92c-3.76-35.07-33.27-57.24-68-51.07c-36.19,6.43-85.9,17.47-140.57,35.94l213.24,160.14
				C3337.98,286.29,3334.72,235.47,3330.8,198.92z"/>
		</g>
		<g>
			<path class="st17" d="M2837.57,547.27c-34.94-23.21-89.94-1.86-122.84,47.68c-32.9,49.54,3.69,131.72,3.69,131.72
				s89.94,1.86,122.84-47.68C2874.16,629.45,2872.51,570.48,2837.57,547.27z"/>
			<path class="st17" d="M3033.98,691.55c-34.94-23.21-89.94-1.86-122.84,47.68c-32.9,49.54,3.69,131.72,3.69,131.72
				s89.94,1.86,122.84-47.68C3070.57,773.73,3068.92,714.75,3033.98,691.55z"/>
		</g>
		<g>
			<path class="st5" d="M2800.43,602.82c-24.12-16.02-62.08-1.28-84.79,32.91c-22.71,34.19,2.55,90.91,2.55,90.91
				s62.08,1.28,84.79-32.91C2825.68,659.54,2824.55,618.83,2800.43,602.82z"/>
			<path class="st5" d="M2997.26,746.93c-24.12-16.02-62.08-1.28-84.79,32.91c-22.71,34.19,2.55,90.91,2.55,90.91
				s62.08,1.28,84.79-32.91C3022.51,803.65,3021.37,762.95,2997.26,746.93z"/>
		</g>
		<path class="st19" d="M3077.68,454.33l112.68-19.91c-12.51,22.67-36.65,38.02-64.37,38.02
			C3107.49,472.44,3090.6,465.61,3077.68,454.33z"/>
		<path class="st19" d="M3199.43,396.51l-142.71,27.03c-2.73-7.69-4.22-15.96-4.22-24.58c0-40.58,32.9-73.48,73.48-73.48
			C3165.75,325.48,3198.14,357.05,3199.43,396.51z"/>
	</g>
	<g>
		<g>
			<path class="st15" d="M926.35,1424.2c0,0,23.89,6.14,39.08,1.56c15.19-4.58,41.33,2.94,45.54,8.48c4.21,5.54,2.66,7.74-4.85,9.65
				c-7.51,1.91-34.13,13.26-51.62,6.69c-17.49-6.57-40.31-6.81-40.31-6.81L926.35,1424.2z"/>
			<path class="st20" d="M719.84,1216.64c0,0,26.84,190.78,71.29,207.86c21.93,8.43,118.86,27.54,147.53,29.46
				c0,0,7.02-5.7,5.31-28.89c0,0-101.55-37.28-115.97-57.56c-21.47-30.17,13.33-123.27-13.61-151.61
				C787.44,1187.57,742.06,1175.39,719.84,1216.64z"/>
		</g>
		<path class="st21" d="M760.39,1950.91v-41.59h65.49c1.77,0,3.21-1.45,3.21-3.21v-6.66c0-1.77-1.45-3.21-3.21-3.21h-65.49v-236.78
			c0-6.64-5.44-12.08-12.08-12.08h-12.96c-6.64,0-12.08,5.44-12.08,12.08v236.78h-65.49c-1.77,0-3.21,1.45-3.21,3.21v6.66
			c0,1.77,1.45,3.21,3.21,3.21h65.49v41.59c-47.38,3.58-85.34,20.64-95.99,42.68h229.1
			C845.73,1971.55,807.77,1954.49,760.39,1950.91z"/>
		<path class="st13" d="M728.88,1618.57c7.83,13.28,16.89,25.73,26.22,37.52c28.85,36.42,60.25,66.45,65.72,94.83
			c1.09,5.66,2.81,11.75,5.07,18.17c2.29,6.5,5.11,13.34,8.37,20.41c12.24,26.59,30.55,56.39,48.83,83.47
			c31.6,46.82,61.31,85.89,61.31,85.89l54.49-2.32c-2.18-5.46-25.95-70.11-57.74-149.12c-12.91-32.07-26.64-66.19-39.88-99.09
			c-1.76-4.39-3.53-8.77-5.28-13.11c-4.05-10.07-8.03-19.98-11.93-29.63c-29.85-74.19-53.63-133.26-53.63-133.26
			s-119.32-45.2-131.71-15.91C688.52,1540.57,696.84,1564.23,728.88,1618.57z"/>
		<path class="st13" d="M946.11,1947.89c0,0,2.79,44.97,11.49,45.61c1.16,0.09,44.12,0.09,44.12,0.09h54.85
			c0,0-0.36-13.53-16.39-16.33c-16.03-2.79-42.87-14.06-52.58-35.25C977.39,1919.72,946.11,1947.89,946.11,1947.89z"/>
		<path class="st13" d="M819.93,1820.49c0,0-37.9,24.36-34.22,32.26c0.49,1.05,21.43,38.57,21.43,38.57l27.02,47.73
			c0,0,11.36-6.76,5.99-22.12c-5.38-15.36-8.62-44.28,5.15-63.09C859.78,1834.06,819.93,1820.49,819.93,1820.49z"/>
		<path class="st14" d="M871.04,1510.78c0,0,149.94,93.39,166.66,156.09c16.72,62.69-199.23,196.44-199.23,196.44
			s-23.68-20.9-27.86-36.22c0,0,97.61-116.94,118.78-143.16c13-16.1-192.27-55.73-217.35-94.74c-25.08-39.01-16.1-71.83-16.1-71.83
			L871.04,1510.78z"/>
		<path class="st5" d="M895.08,1630.67H588.57c-6.13,0-11.15,5.02-11.15,11.15v61.3c0,6.13,5.02,11.15,11.15,11.15h306.52
			c6.13,0,11.15-5.02,11.15-11.15v-61.3C906.23,1635.69,901.22,1630.67,895.08,1630.67z"/>
		<path class="st15" d="M824.78,1204.6c-35.88,9.29-95.36-23.96-95.36-23.96s23.09-15.52,31.65-49.62c0.43-1.72,0.83-3.49,1.17-5.28
			c3.77-0.81,10.85-2.3,18.43-3.91l27.41,24.55c0,0-0.62,10.2-4.06,27.71c-0.6,3.06-1.27,6.34-2.06,9.83
			C816.67,1193.04,824.78,1204.6,824.78,1204.6z"/>
		<path class="st22" d="M875.74,1505.89c-0.07,0.36-0.19,0.74-0.32,1.12c-3.46,9.69-35.67,22.77-65.22,31.91
			c-10.59,3.29-20.86,6.06-29.33,8c-22.88,5.24-80.22,14.58-85.25-1.14c-5.82-18.19,0.94-123.33-4.21-192.45
			c-6.07-84.5,17.33-161.41,49.86-186.51c2.46-1.8,7.32,2.99,21.41,9.68c13.02,6.16,27.4,7.93,39.57,5.26l10.91,9.35
			c15.07,13.57,31.64,32.08,39.16,60.46c4.6,17.41,8.07,44.94,10.64,75.9c0.99,12,1.86,24.52,2.6,37.16
			c1.17,20.12,2.19,40.42,2.68,59.73c0.01,0.37,0.02,0.74,0.02,1.11l0.01,0.7c0.21,1.94,0.25,4.07,0.27,6.02
			c0.51,17.31,0.42,33.41,1.01,47.08c0.01,0.39,0.04,0.76,0.06,1.12c0.74,11.46,4.93,16.63,6.06,21.41
			C875.98,1503.16,876.05,1504.49,875.74,1505.89z"/>
		<path class="st20" d="M875.74,1505.89c-0.07,0.36-0.19,0.74-0.32,1.12c-3.46,9.69-35.67,22.77-65.22,31.91
			c-60.02-75.2-53.59-165.18-53.59-165.18l111.64,50.63c0.01,0.37,0.02,0.74,0.02,1.11l0.01,0.7c0.21,1.94,0.25,4.07,0.27,6.02
			c0.51,17.31,0.42,33.41,1.01,47.08c0.01,0.39,0.04,0.76,0.06,1.12c0.74,11.46,4.93,16.63,6.06,21.41
			C875.98,1503.16,876.05,1504.49,875.74,1505.89z"/>
		<path class="st23" d="M808.08,1146.38c0,0-0.62,10.2-4.06,27.71c-26.75-8.64-38.89-32.81-42.95-43.07
			c0.43-1.72,0.83-3.49,1.17-5.28c3.77-0.81,10.85-2.3,18.43-3.91L808.08,1146.38z"/>
		<path class="st15" d="M818.91,1146.12c0,0-58.8,6.63-62.36-30.05c-3.57-36.68-13.56-60.53,23.83-66.31
			c37.39-5.79,46.05,7.5,50.22,19.45C834.77,1081.17,834.11,1143.45,818.91,1146.12z"/>
		<path class="st21" d="M756.8,1118.6c0,0,3.73-48.69,57.25-53.73c36.66-3.45,16.22-35.01,12.31-40.04c0,0-28.09,3.85-56.88,8.61
			C709.06,1043.42,750.87,1111.02,756.8,1118.6z"/>
		<polygon class="st20" points="1085.19,1337.24 1043.77,1464.73 898.08,1461.61 897.89,1470.51 1046.55,1473.68 1090.34,1338.92 		
			"/>
		<g>
			<path class="st15" d="M914.05,1453.53c0,0,23.07,8.73,38.67,5.86c15.6-2.87,40.76,7.48,44.33,13.45c3.57,5.97,1.8,7.99-5.88,9.06
				c-7.68,1.07-35.38,9.42-52.04,0.96c-16.66-8.46-39.31-11.21-39.31-11.21L914.05,1453.53z"/>
			<path class="st22" d="M731.68,1224.46c0,0,5.65,192.57,47.94,214.46c20.87,10.8,115.09,40.48,143.38,45.55
				c0,0,7.61-4.89,8.47-28.13c0,0-96.82-48.25-108.92-69.99c-18.01-32.36,26.84-121.05,3.19-152.19
				C802.08,1203.03,758.32,1185.92,731.68,1224.46z"/>
		</g>
	</g>
	<g>
		<path class="st15" d="M3361.26,1372.75l7.08,11.48c3.68,4.23,4.66,6.59,7.58,8.02c7.04,3.46,20.03,12.35,21.01,31.01
			c0,0-0.22,10.56-7.3,7.14c-7.08-3.42-3.99-3.11-14.05-7.72c-10.06-4.61-13.8-19.28-14.68-24.28l-8.21-10.78L3361.26,1372.75z"/>
		<g>
			<path class="st15" d="M3153.06,1984.73c-0.39,4.14-2.68,6.8-6.32,8.39c-0.01,0.01-0.03,0.02-0.05,0.02
				c-6.73,2.95-18,2.28-30.19,0.64c-1.56-0.21-2.96-0.38-4.22-0.49c-0.33-0.03-0.66-0.06-0.98-0.08c-0.26-0.02-0.51-0.04-0.76-0.06
				c-12.14-0.8-11.19,2.94-34.38,2.83c-26.44-0.14-35.38-9.04-36.59-12.84c-1.02-3.22,10.56-5.72,23.5-8.59
				c0.62-0.14,1.25-0.28,1.89-0.42c1.72-0.38,3.46-0.78,5.18-1.18c15.43-3.62,30.71-8.19,35.76-23.01
				c5.36-15.72,4.09-62.37,4.09-62.37h46.82c0,0-12.29,51.54-11,66.39c0.7,7.93,4.49,10.19,5.95,17.06c0.11,0.48,0.2,0.96,0.29,1.44
				C3152.74,1976.47,3153.44,1980.58,3153.06,1984.73z"/>
			<g>
				<path class="st24" d="M3207.54,1480.52c-3.95,22.18-9.59,45.11-14.49,68.95c-7.87,38.34-13.8,79.06-7.73,122.91
					c0.78,5.65,1.2,11.87,1.29,18.57c1.18,77.51-33.45,217.97-33.45,217.97s-9.41,4.06-25.17,3.28c-8.12-0.4-20.57-5.64-20.57-5.64
					s-3.28-87.09-3.48-204.2c-0.14-84.89-16.81-196.67-20.18-262.35c-2.04-39.75,2.39-92.7,2.39-92.7s69.03-55.51,93.83-27.11
					C3204.49,1348.25,3222.33,1397.54,3207.54,1480.52z"/>
			</g>
			<path class="st25" d="M3185.33,1672.38c0.78,5.65,1.2,11.87,1.29,18.57c-51.7-74.9-63.13-238.24-63.13-238.24l56.78,27.56
				c0,0,6.23,30.63,12.78,69.2C3185.19,1587.81,3179.25,1628.53,3185.33,1672.38z"/>
			<path class="st15" d="M3302.41,1984.73c-0.39,4.14-2.68,6.8-6.32,8.39c-0.01,0.01-0.03,0.02-0.05,0.02
				c-6.73,2.95-18,2.28-30.19,0.64c-1.56-0.21-2.96-0.38-4.22-0.49c-0.33-0.03-0.66-0.06-0.98-0.08c-0.26-0.02-0.51-0.04-0.76-0.06
				c-12.14-0.8-11.19,2.94-34.38,2.83c-26.44-0.14-35.38-9.04-36.59-12.84c-1.02-3.22,10.56-5.72,23.5-8.59
				c0.62-0.14,1.25-0.28,1.89-0.42c1.72-0.38,3.46-0.78,5.18-1.18c15.43-3.62,30.71-8.19,35.76-23.01
				c5.36-15.72-2.3-61.65-2.3-61.65l43.38-3.62c0,0-2.69,52.34-1.4,67.19c0.7,7.93,4.73,12.29,6.19,19.16
				c0.11,0.48,0.2,0.96,0.29,1.44C3302.1,1976.47,3302.8,1980.58,3302.41,1984.73z"/>
			<path class="st24" d="M3296.3,1912.88c0,0-11.15,5.28-19.18,6.88c-8.03,1.61-24.71-1.53-24.71-1.53
				c-3.01-33.73-10-86.46-23.58-145.97c-15.47-67.75-38.48-147.82-70.57-223.63c-6.85-16.19-35.11-92.84-39.91-112.18
				c-14.5-58.44,0.06-52.15,0.06-52.15l126.75-14.87c0,0,15.61,8.03,22.81,90.55c2.15,24.71,2.42,131.42,5.66,151.65
				c3.07,19.16,6.67,35.09,10.89,45.44C3308.07,1714.87,3296.3,1912.88,3296.3,1912.88z"/>
			<path class="st26" d="M3302.41,1984.73c-0.39,4.14-2.68,6.8-6.32,8.39c-0.01,0.01-0.03,0.02-0.05,0.02
				c-7.11,2.54-18.21,1.99-30.17,0.56c-1.56-0.18-2.97-0.32-4.25-0.42c-0.33-0.03-0.66-0.06-0.98-0.08
				c-0.26-0.02-0.51-0.04-0.76-0.06c-12.14-0.8-11.19,2.94-34.38,2.83c-26.44-0.14-35.38-9.04-36.59-12.84
				c-1.02-3.22,10.56-5.72,23.5-8.59c3.4,1.68,19.7,9.05,39.94,7.08c17.8-1.71,35.98-8.84,48.75-10.62c0.11,0.48,0.2,0.96,0.29,1.44
				C3302.1,1976.47,3302.8,1980.58,3302.41,1984.73z"/>
			<path class="st26" d="M3153.06,1984.73c-0.39,4.14-2.68,6.8-6.32,8.39c-0.01,0.01-0.03,0.02-0.05,0.02
				c-7.11,2.54-18.21,1.99-30.16,0.56c-1.56-0.18-2.97-0.32-4.25-0.42c-0.33-0.03-0.66-0.06-0.98-0.08
				c-0.26-0.02-0.51-0.04-0.76-0.06c-12.14-0.8-11.19,2.94-34.38,2.83c-26.44-0.14-35.38-9.04-36.59-12.84
				c-1.02-3.22,10.56-5.72,23.5-8.59c3.4,1.68,19.7,9.05,39.94,7.08c17.8-1.71,35.98-8.84,48.75-10.62c0.11,0.48,0.2,0.96,0.29,1.44
				C3152.74,1976.47,3153.44,1980.58,3153.06,1984.73z"/>
			<path class="st17" d="M3102.35,989.89c-4.28-34.96,6.64-90.91,76.43-81.97c69.79,8.94,91.78,77.52,77.71,108.02
				c-14.08,30.5,20.26,37.85,31.04,70.64c9.26,28.17,12.49,63.15,27.47,78.85c48.31,50.61-46.38,128.44-103.47,112.03
				c-103.98-29.89-117.37-34.35-113.68-116.05c1.89-41.86,34.46-58.08,13.78-70.19C3061.68,1061.96,3112.04,1069.01,3102.35,989.89z
				"/>
			<path class="st15" d="M3204.93,1081.41l-19.23,49.68l-41.49,2.02l-20.7-30.91c13.06-9.94,18.58-24.84,20.61-38.18
				c1.66-10.67,1.2-20.33,0.74-25.58c-0.28-2.67-0.55-4.23-0.55-4.23l51.71-15.73l0.18-0.09c0.64,13.71,1.38,24.47,2.21,32.84
				C3201.34,1080.76,3204.93,1081.41,3204.93,1081.41z"/>
			<path class="st15" d="M3123.33,1079.66c2.67,0,47.99-9.22,124.53,10.36c0,0-41.92,192.04-27.68,228.24
				c14.24,36.2,19.65,68.32,19.65,68.32l-154.47,1.92c0,0,2.16-124.24-4.96-168.21C3073.28,1176.31,3123.33,1079.66,3123.33,1079.66
				z"/>
			<path class="st27" d="M3320.46,1280.62c-7.74-53.38-36.41-163.01-55.68-180.94c-17.04-15.85-53.78-17.31-53.78-17.31v0l-0.01,0
				c-7.63,11.96-33.76,41.66-66.18,36.31c-17.5-2.89-21.04-34.35-21.44-38.55l0.12-0.47c0,0-0.06,0.01-0.16,0.02c0,0,0-0.02,0-0.02
				c-0.13,0.03-0.25,0.05-0.37,0.08c-5.11,0.76-45.76,7.37-57.82,28.13c-17.81,30.65-37.2,122.62-56.26,121.26
				c-8.75-0.63-96.77-33.71-96.77-33.71s-14.67,13.74-11.86,30.59c0,0,43.46,29.1,80.21,47.67c5.09,2.58,10.06,4.94,14.76,7
				c13.25,5.82,24.41,9.19,30.51,7.74c1.75-0.41,3.6-1.2,5.53-2.32c7.97-4.61,17.28-14.72,26.2-26.25
				c5.93-7.67,11.69-15.96,16.77-23.67c0.11-0.17,0.21-0.32,0.32-0.49c2.18,29.24,4.37,61.06,2.1,85.99
				c-1.72,18.97-2.98,60.05,0.28,70.67c6.79,22.12,56.65,27.97,103.19,25.66c21.94-1.09,37.44-2.34,48.72-4.95
				c16.37-3.76,23.85-10.34,29.23-23.33c5.14-12.37-18.61-70.46-20.87-95.88c-2.06-23.05,1.47-41.8,7.29-60.24
				c16.43,37.95,33.15,65.09,35.34,70.97c4.61,12.38,74.76,90.68,74.76,90.68s5.67-1.16,10.17-4.1c4.64-3.03,6.96-7.05,6.96-7.05
				C3359.34,1354.73,3320.46,1280.62,3320.46,1280.62z"/>
			<path class="st12" d="M3258.09,1389.75c-5.38,12.99-12.87,19.58-29.23,23.33c-21.88-4.21-36.31-44.46-43.73-64.27
				c-8.56-22.83,36.04-140.22,48.35-139.14c9.15,0.79,10.73,16.33,11.03,23.97c-5.92,18.61-9.36,36.96-7.29,60.24
				C3239.47,1319.29,3263.22,1377.38,3258.09,1389.75z"/>
			<path class="st15" d="M2912.74,1204.65c0,0-7.51-18.4-15.77-19.15c-8.26-0.75-34.55-4.88-36.43-1.13
				c-1.88,3.76,0,17.28,5.63,22.16c5.63,4.88,40.56,12.77,40.56,12.77L2912.74,1204.65z"/>
			<path class="st12" d="M3074.24,1236.19c-5.09,7.72-10.84,16-16.77,23.67c-8.5,10.47-17.89,20.59-26.2,26.25
				c-1.93,1.12-3.78,1.91-5.53,2.32c-6.1,1.44-17.26-1.93-30.51-7.74c7.89,0.58,15.63,0.3,23.24-0.35
				c13.33-1.13,17.21-15.57,38.29-37.22C3069.36,1230.18,3073.19,1232.18,3074.24,1236.19z"/>
			<path class="st23" d="M3196.01,1018.48c-7.82,12.79-26.68,39.1-51.89,45.54c1.66-10.67,1.2-20.33,0.74-25.58
				c-0.28-2.67-0.55-4.23-0.55-4.23L3196.01,1018.48z"/>
			<path class="st15" d="M3130.73,1037.73c0,0,62.16,12.48,69.34-26.35c7.18-38.83,20.03-63.37-19.35-72.98
				c-39.38-9.61-49.86,3.78-55.4,16.15C3119.76,966.93,3114.74,1033.48,3130.73,1037.73z"/>
			<path class="st17" d="M3161.1,928.71c0,0-1.09,13.17,19.35,35.52c20.44,22.35,16.46,67.54,16.46,67.54s33.56-70.11,15.18-90.79
				C3193.72,920.3,3161.1,928.71,3161.1,928.71z"/>
			<path class="st17" d="M3186.1,911.57c0,0-30.9-10.34-61.57,19.88c-13.21,13.02-11.22,38.61-4.14,53.46
				c0,0,10.87-31.82,30.65-38.76C3170.82,939.2,3186.1,911.57,3186.1,911.57z"/>
			<path class="st0" d="M3150.09,1018.62c0,0-1.66,4.61-13.37,2.52c0,0-9.83-1.75-8.92-6.93
				C3127.81,1014.21,3137.83,1011.62,3150.09,1018.62z"/>
		</g>
	</g>
	<g>
		<g>
			<path class="st8" d="M2189.41,1033.48c16.86,95.6-38.95,173.1-124.65,173.1c-5.58,0-11.29-3.86-16.84-4.51
				c76.31-9.19,124.22-79.22,108.46-168.59c-15.76-89.37-89.45-162.92-169-172.11c5.31-0.65,10.75-0.98,16.33-0.98
				C2089.41,860.39,2172.55,937.89,2189.41,1033.48z"/>
			<path class="st8" d="M2257.93,1083.44c24.4,0,40.2-22.55,35.3-50.37c-4.9-27.82-28.67-50.37-53.06-50.37
				c-1.22,0-2.4,0.11-3.59,0.21c-3.68-10.28-7.89-20.31-12.56-30.06c12.31-8.52,18.74-25.18,15.37-44.33
				c-4.76-27-27.27-49.03-50.88-50.31l-28.73,0.36c-1.45,0-2.86,0.08-4.24,0.24c-2.91-2.73-5.84-5.41-8.83-8.01
				c3.95-8.38,5.39-18.69,3.41-29.9c-4.9-27.82-28.67-50.37-53.06-50.37c-0.19,0-0.38,0-0.57,0.01l0-0.01l-23.95,0.46
				c-0.68-0.04-1.36-0.06-2.04-0.06c-1.21,0-2.39,0.06-3.56,0.17l-0.02,0.01c-6.75,0.63-12.72,3.05-17.66,6.84
				c-4.94,3.8-8.82,8.98-11.39,15.13c-0.58-0.13-1.14-0.29-1.73-0.42c-0.14-1.69-0.37-3.4-0.68-5.13
				c-4.9-27.82-28.65-50.37-53.05-50.37l-26.21,0.43c-0.12,0-0.23-0.01-0.35-0.01c-0.42,0-0.83,0.02-1.23,0.04l-0.5,0.01h-0.01
				c-1.91,0.08-3.76,0.31-5.55,0.68c0,0-0.01,0-0.02,0.01c-1.15,0.4-39.68,14.39-26.51,62.93l-2.7,1.18c0,0-7.65-15.47-21.35-23.86
				c-16.95-10.38-28.01-7.93-29.48-7.74l-22.86,0.11l0.01,0.04c-23.82,0.61-39.13,22.9-34.3,50.34c2.29,12.98,8.7,24.76,17.34,33.69
				c-0.8,1.07-1.58,2.15-2.36,3.24l-7.95,0.08c-1.17-0.11-2.36-0.17-3.53-0.17c-1.49,0-2.95,0.08-4.37,0.25l-20.21,0.21
				c-0.12,0-0.24-0.01-0.35-0.02c-0.55-0.01-1.1-0.02-1.63-0.02c-0.96,0-1.9,0.04-2.82,0.11h-0.06c-0.79,0.06-1.57,0.13-2.33,0.24
				c-21.39,2.97-34.63,24.23-30.08,50.03c3.81,21.58,18.99,39.95,36.98,47.12c-1.01,8.77-1.55,17.78-1.6,26.96l-8.84,0.14
				c-0.38-0.01-0.77-0.04-1.15-0.04c-0.93,0-1.82,0.05-2.71,0.11l-1.68,0.02c0,0,0.02,0.05,0.03,0.12
				c-21.88,2.52-35.54,23.99-30.93,50.12c4.9,27.82,28.66,50.37,53.06,50.37l9.92-0.15c2.33,6.49,4.86,12.89,7.6,19.19
				c-17.08,6.24-26.95,25.45-22.94,48.23c4.72,26.75,26.86,48.61,50.25,50.25l0,0.01h0.06c0.91,0.06,1.82,0.11,2.74,0.11
				c1.21,0,2.4-0.07,3.57-0.18l22.43-0.24l-0.02-0.02c0.19,0.01,0.38,0.02,0.59,0.02c3.09,0,6.03-0.37,8.82-1.06
				c3.63,3.67,7.33,7.26,11.11,10.73c-4.85,8.73-6.73,19.97-4.57,32.24c4.91,27.83,28.67,50.37,53.06,50.37l25.99-0.4l-0.02-0.02
				c0.19,0.01,0.38,0.02,0.59,0.02c14.88,0,26.52-8.41,32.25-21.27c2.95,0.8,5.91,1.54,8.88,2.22c0.15,1.68,0.37,3.39,0.68,5.12
				c4.9,27.82,28.67,50.37,53.06,50.37l26.53-0.42c0.01,0,0.01,0,0.02,0h0.08l1.7-0.02c0,0,0-0.01,0-0.02
				c23.38-1.07,38.3-23.18,33.51-50.32c-0.3-1.72-0.68-3.43-1.13-5.12c0.85-0.21,1.69-0.45,2.54-0.68
				c10.23,12.44,24.56,20.55,39.15,20.55l25.56-0.45c0.33,0.01,0.66,0.05,0.99,0.05c24.4,0,40.2-22.55,35.3-50.37
				c-1.85-10.49-6.4-20.24-12.63-28.31c3.31-4.23,6.41-8.64,9.36-13.2h29.98l0-0.01c0.19,0,0.38,0.01,0.57,0.01
				c24.4,0,40.2-22.55,35.3-50.37c-3.58-20.32-17.24-37.79-33.85-45.75c0.66-7.12,1.01-14.35,1.05-21.72
				C2255.48,1083.35,2256.7,1083.44,2257.93,1083.44z M2063.68,1202.92c-85.94,0-169.12-76.69-185.8-171.31
				c-16.68-94.61,39.45-171.32,125.39-171.32c85.94,0,169.12,76.7,185.8,171.32C2205.76,1126.23,2149.62,1202.92,2063.68,1202.92z"
				/>
			<path class="st10" d="M2257.36,1083.44c24.4,0,40.2-22.55,35.29-50.37c-4.9-27.82-28.66-50.37-53.05-50.37
				c-1.22,0-2.41,0.1-3.59,0.21c-3.68-10.27-7.89-20.31-12.57-30.07c12.31-8.52,18.76-25.17,15.38-44.34
				c-4.9-27.82-28.66-50.37-53.05-50.37c-9.01,0-16.84,3.09-22.9,8.38c-5.41-5.48-10.99-10.74-16.73-15.74
				c3.96-8.37,5.39-18.69,3.41-29.9c-4.91-27.82-28.66-50.37-53.05-50.37c-17.93,0-31.18,12.21-35.02,29.71
				c-8.53-3.06-17.17-5.59-25.9-7.57c-0.15-1.69-0.37-3.39-0.68-5.13c-4.91-27.82-28.66-50.37-53.06-50.37
				c-24.4,0-40.2,22.55-35.29,50.37c0.31,1.73,0.69,3.44,1.13,5.13c-9.88,2.44-19.34,5.71-28.34,9.76
				c-9.76-18.67-28.02-31.9-46.69-31.9c-24.4,0-40.2,22.55-35.29,50.37c2.29,12.97,8.7,24.76,17.34,33.69
				c-3.63,4.83-7.04,9.88-10.22,15.13c-8.92-7.22-19.49-11.56-30.19-11.56c-24.4,0-40.2,22.55-35.29,50.37
				c3.81,21.59,18.98,39.96,36.98,47.12c-1.06,9.22-1.62,18.67-1.63,28.34c-3.28-0.81-6.61-1.27-9.97-1.27
				c-24.4,0-40.2,22.55-35.29,50.37c4.91,27.82,28.66,50.37,53.06,50.37c3.35,0,6.52-0.46,9.52-1.27
				c2.44,6.88,5.12,13.65,8.01,20.31c-17.09,6.23-26.95,25.46-22.94,48.23c4.9,27.82,28.66,50.37,53.06,50.37
				c10.63,0,19.62-4.29,25.98-11.42c6.55,7.25,13.4,14.16,20.51,20.67c-4.85,8.74-6.73,19.98-4.57,32.25
				c4.91,27.82,28.66,50.37,53.05,50.37c17.89,0,31.12-12.15,34.99-29.6c10.73,4.22,21.65,7.62,32.71,10.13
				c0.15,1.68,0.37,3.39,0.68,5.13c4.9,27.82,28.66,50.37,53.05,50.37c24.4,0,40.2-22.55,35.29-50.37c-0.3-1.73-0.68-3.44-1.13-5.13
				c8.35-2.06,16.41-4.72,24.14-7.95c10.19,16.26,26.98,27.41,44.12,27.41c24.4,0,40.2-22.55,35.29-50.37
				c-1.85-10.5-6.39-20.24-12.63-28.31c5.24-6.7,10.05-13.85,14.39-21.38c7.84,5.16,16.64,8.18,25.53,8.18
				c24.4,0,40.2-22.55,35.29-50.37c-3.58-20.32-17.24-37.79-33.85-45.75c0.65-7.11,1.01-14.35,1.05-21.72
				C2254.91,1083.35,2256.13,1083.44,2257.36,1083.44z M2063.69,1202.93c-85.93,0-169.12-76.7-185.8-171.31
				C1861.2,937,1917.34,860.3,2003.27,860.3s169.12,76.7,185.8,171.31C2205.76,1126.23,2149.62,1202.93,2063.69,1202.93z"/>
		</g>
		<g>
			<path class="st4" d="M2478.28,1040.35c12.89,73.09-29.78,132.34-95.29,132.34c-4.27,0-8.64-2.95-12.87-3.45
				c58.34-7.03,94.97-60.56,82.92-128.89c-12.05-68.33-68.38-124.55-129.2-131.58c4.06-0.5,8.22-0.75,12.49-0.75
				C2401.83,908.02,2465.39,967.27,2478.28,1040.35z"/>
			<path class="st4" d="M2530.66,1078.54c18.65,0,30.74-17.24,26.99-38.51c-3.75-21.27-21.92-38.51-40.57-38.51
				c-0.94,0-1.84,0.08-2.74,0.16c-2.81-7.86-6.04-15.53-9.6-22.98c9.41-6.51,14.33-19.25,11.75-33.89
				c-3.64-20.64-20.85-37.48-38.9-38.46l-21.96,0.27c-1.11,0-2.19,0.06-3.24,0.18c-2.22-2.09-4.46-4.13-6.75-6.12
				c3.02-6.4,4.12-14.29,2.61-22.86c-3.75-21.27-21.92-38.51-40.57-38.51c-0.15,0-0.29,0-0.44,0.01l0-0.01l-18.31,0.35
				c-0.52-0.03-1.04-0.05-1.56-0.05c-0.93,0-1.83,0.05-2.72,0.13l-0.02,0.01c-5.16,0.48-9.73,2.33-13.5,5.23
				c-3.78,2.91-6.75,6.87-8.71,11.56c-0.45-0.1-0.87-0.22-1.32-0.32c-0.11-1.29-0.29-2.6-0.52-3.92
				c-3.75-21.27-21.91-38.51-40.56-38.51l-20.04,0.33c-0.09,0-0.17-0.01-0.27-0.01c-0.32,0-0.63,0.02-0.94,0.03l-0.38,0.01h-0.01
				c-1.46,0.06-2.87,0.24-4.24,0.52c0,0-0.01,0-0.02,0.01c-0.88,0.31-30.34,11-20.27,48.11l-2.06,0.9c0,0-5.85-11.82-16.32-18.24
				c-12.96-7.94-21.41-6.07-22.54-5.92l-17.47,0.08l0,0.03c-18.21,0.46-29.92,17.51-26.22,38.48c1.75,9.92,6.65,18.93,13.25,25.75
				c-0.61,0.82-1.21,1.64-1.81,2.48l-6.08,0.06c-0.9-0.08-1.8-0.13-2.7-0.13c-1.14,0-2.25,0.06-3.34,0.19l-15.45,0.16
				c-0.09,0-0.18-0.01-0.27-0.02c-0.42-0.01-0.84-0.02-1.25-0.02c-0.74,0-1.45,0.03-2.16,0.08h-0.04c-0.6,0.05-1.2,0.1-1.78,0.18
				c-16.35,2.27-26.48,18.52-23,38.25c2.91,16.5,14.52,30.54,28.27,36.02c-0.77,6.7-1.18,13.59-1.23,20.61l-6.76,0.11
				c-0.29-0.01-0.59-0.03-0.88-0.03c-0.71,0-1.39,0.04-2.07,0.08l-1.29,0.02c0,0,0.02,0.04,0.03,0.09
				c-16.73,1.93-27.17,18.34-23.65,38.32c3.75,21.27,21.91,38.51,40.57,38.51l7.58-0.12c1.78,4.96,3.72,9.86,5.81,14.67
				c-13.06,4.77-20.61,19.46-17.54,36.87c3.6,20.45,20.53,37.16,38.42,38.42l0,0.01h0.05c0.7,0.05,1.4,0.08,2.1,0.08
				c0.93,0,1.83-0.05,2.73-0.14l17.15-0.18l-0.01-0.02c0.15,0.01,0.29,0.02,0.45,0.02c2.36,0,4.61-0.28,6.74-0.81
				c2.77,2.81,5.6,5.55,8.5,8.2c-3.71,6.68-5.15,15.27-3.49,24.65c3.75,21.28,21.92,38.51,40.57,38.51l19.87-0.31l-0.01-0.02
				c0.15,0.01,0.29,0.02,0.45,0.02c11.37,0,20.28-6.43,24.66-16.26c2.25,0.61,4.51,1.18,6.79,1.7c0.12,1.28,0.28,2.59,0.52,3.92
				c3.75,21.27,21.92,38.51,40.57,38.51l20.28-0.32c0.01,0,0.01,0,0.02,0h0.06l1.3-0.02c0,0,0-0.01,0-0.02
				c17.87-0.82,29.28-17.72,25.62-38.47c-0.23-1.32-0.52-2.63-0.86-3.92c0.65-0.16,1.29-0.35,1.94-0.52
				c7.82,9.51,18.78,15.71,29.93,15.71l19.54-0.34c0.26,0.01,0.51,0.04,0.76,0.04c18.65,0,30.74-17.24,26.99-38.51
				c-1.41-8.02-4.89-15.47-9.66-21.64c2.53-3.23,4.9-6.6,7.16-10.09h22.92l0-0.01c0.15,0,0.29,0.01,0.44,0.01
				c18.65,0,30.74-17.24,26.99-38.51c-2.74-15.53-13.18-28.89-25.88-34.98c0.5-5.44,0.77-10.97,0.81-16.61
				C2528.8,1078.47,2529.73,1078.54,2530.66,1078.54z M2382.17,1169.89c-65.7,0-129.29-58.63-142.05-130.96
				c-12.75-72.33,30.16-130.97,95.86-130.97c65.7,0,129.29,58.64,142.05,130.97C2490.78,1111.26,2447.87,1169.89,2382.17,1169.89z"
				/>
			<path class="st6" d="M2530.23,1078.55c18.65,0,30.73-17.24,26.98-38.51c-3.75-21.27-21.91-38.51-40.56-38.51
				c-0.94,0-1.84,0.07-2.75,0.16c-2.81-7.85-6.03-15.52-9.61-22.99c9.41-6.51,14.34-19.25,11.76-33.89
				c-3.75-21.27-21.91-38.51-40.56-38.51c-6.89,0-12.88,2.37-17.51,6.41c-4.13-4.19-8.4-8.21-12.79-12.03
				c3.02-6.4,4.12-14.29,2.61-22.86c-3.75-21.27-21.91-38.51-40.56-38.51c-13.71,0-23.84,9.33-26.77,22.71
				c-6.52-2.34-13.13-4.27-19.8-5.79c-0.11-1.29-0.28-2.6-0.52-3.92c-3.75-21.27-21.91-38.51-40.56-38.51
				c-18.65,0-30.73,17.24-26.98,38.51c0.23,1.32,0.52,2.63,0.86,3.92c-7.55,1.86-14.79,4.37-21.67,7.46
				c-7.46-14.27-21.42-24.39-35.7-24.39c-18.65,0-30.73,17.24-26.98,38.51c1.75,9.92,6.65,18.93,13.25,25.75
				c-2.78,3.69-5.38,7.55-7.81,11.57c-6.82-5.52-14.9-8.84-23.08-8.84c-18.65,0-30.73,17.24-26.98,38.51
				c2.91,16.51,14.51,30.54,28.27,36.02c-0.81,7.05-1.24,14.28-1.25,21.67c-2.51-0.62-5.06-0.97-7.62-0.97
				c-18.65,0-30.73,17.24-26.98,38.51c3.75,21.27,21.91,38.51,40.56,38.51c2.56,0,4.99-0.35,7.28-0.97
				c1.86,5.26,3.91,10.44,6.12,15.53c-13.06,4.77-20.61,19.46-17.54,36.87c3.75,21.27,21.91,38.51,40.56,38.51
				c8.12,0,15-3.28,19.87-8.73c5.01,5.55,10.25,10.82,15.68,15.81c-3.71,6.68-5.14,15.27-3.49,24.65
				c3.75,21.27,21.91,38.51,40.56,38.51c13.68,0,23.79-9.29,26.75-22.63c8.2,3.23,16.55,5.83,25.01,7.75
				c0.11,1.29,0.28,2.6,0.52,3.92c3.75,21.27,21.91,38.51,40.56,38.51c18.65,0,30.73-17.24,26.98-38.51
				c-0.23-1.32-0.52-2.63-0.86-3.92c6.39-1.58,12.55-3.61,18.45-6.07c7.79,12.43,20.63,20.95,33.73,20.95
				c18.65,0,30.73-17.24,26.98-38.51c-1.42-8.02-4.88-15.47-9.65-21.64c4.01-5.12,7.68-10.58,11-16.35
				c5.99,3.94,12.72,6.25,19.52,6.25c18.65,0,30.73-17.24,26.98-38.51c-2.74-15.54-13.18-28.89-25.88-34.98
				c0.5-5.43,0.77-10.97,0.8-16.61C2528.36,1078.47,2529.29,1078.55,2530.23,1078.55z M2382.17,1169.89
				c-65.7,0-129.29-58.64-142.05-130.97c-12.75-72.33,30.16-130.97,95.86-130.97c65.7,0,129.29,58.64,142.05,130.97
				C2490.78,1111.26,2447.86,1169.89,2382.17,1169.89z"/>
		</g>
	</g>
	<g>
		<polygon class="st10" points="1265.66,1096.46 1346.61,1398.58 1418.52,1398.58 1337.56,1096.46 		"/>
		<polygon class="st10" points="1361.95,1065.61 1451.17,1398.58 1523.07,1398.58 1433.85,1065.61 		"/>
		<polygon class="st10" points="1451.17,1012.49 1554.62,1398.58 1626.52,1398.58 1523.07,1012.49 		"/>
		<polygon class="st10" points="1621.49,973.36 1549.58,973.36 1653.04,1359.45 1724.94,1359.45 		"/>
		<path class="st10" d="M1276.3,1066.94l77.05-59.23l5.83,21.74c0.96,3.59,3.88,6.87,7.52,8.46c3.64,1.61,7.4,1.24,9.66-0.94
			l82.31-78.66l11.52,10.35c1.39,1.25,3.28,0.68,3.09-0.94l-3.7-32.94c-0.13-1.13-1.26-2.17-2.42-2.2l-34.18-1.09
			c-1.67-0.05-2.08,1.88-0.68,3.14l10.28,9.24l-69.62,66.54l-5.33-19.91c-0.92-3.45-3.66-6.62-7.13-8.28
			c-3.45-1.65-7.12-1.52-9.53,0.31l-89.09,68.48c-3.65,2.8-3.38,8.64,0.6,13.04c2.57,2.83,6.03,4.37,9.15,4.37
			C1273.37,1068.41,1275,1067.93,1276.3,1066.94z"/>
	</g>
	<path class="st28" d="M1253.97,1315.95l3.04,11.76C1255.3,1324.3,1254.35,1320.31,1253.97,1315.95z"/>
	<path class="st28" d="M2782.74,1456.16H1290.58L1257,1327.71c30.92,66.4,282.31-6.26,338.65-46.67
		c103.02-74.37,103.78-147.6,210.4-197.31c144.38-67.35,288.76,38.13,404.86,9.3c356.11-88.22,651.31-376.79,660.42-385.89
		c-99.98,231.46-343.59,353.26-156.33,429.15C2909.29,1215.02,2782.74,1456.16,2782.74,1456.16z"/>
	<g>
		<path class="st10" d="M1285.8,802.91c-4.31-2.63-13.07-6.23-26.26-10.8c-6.21-2.14-10.6-3.89-13.16-5.26
			c-3.26-1.75-5.4-4.28-6.41-7.59c-1.22-3.99-0.78-7.08,1.33-9.27c2.11-2.19,5.16-3.29,9.16-3.29c2.73,0,6.47,0.85,11.24,2.56
			c4.76,1.71,8.02,2.56,9.77,2.56c2.44,0,4.25-0.7,5.42-2.11c1.18-1.4,1.4-3.32,0.66-5.74c-0.89-2.9-3.13-5.47-6.74-7.7
			c-6.51-4.07-14.68-6.1-24.53-6.1c-9.55,0-16.82,2.53-21.8,7.59c-5.45,5.45-6.76,12.8-3.93,22.04c3.04,9.93,9.57,17.42,19.59,22.48
			c8.88,3.21,17.75,6.42,26.63,9.63c9.55,3.5,15.28,8.37,17.18,14.6c1.31,4.28,0.85,7.95-1.38,11.02c-2.23,3.07-5.49,4.6-9.78,4.6
			c-4,0-8.03-0.59-12.09-1.76c-0.23-0.1-2.95-1.02-8.16-2.78c-3.83-1.36-6.28-2.05-7.35-2.05c-2.54,0-4.41,0.73-5.62,2.19
			c-1.21,1.46-1.43,3.46-0.65,5.99c1.58,5.17,7.04,9.16,16.39,11.99c6.89,2.14,13.6,3.22,20.14,3.22c10.82,0,18.85-2.92,24.08-8.76
			c5.6-6.23,6.78-14.64,3.54-25.25C1300.18,815.51,1294.42,808.16,1285.8,802.91z"/>
		<path class="st10" d="M1332.05,768.17h14.99c7.74,0,10.75-2.83,9.02-8.48c-1.76-5.75-6.58-8.63-14.48-8.63h-47.96
			c-7.89,0-10.96,2.88-9.2,8.63c1.73,5.65,6.49,8.48,14.29,8.48h14.77l24.09,78.81c2.44,7.99,6.71,11.99,12.81,11.99
			c6.28,0,8.21-4,5.76-11.99L1332.05,768.17z"/>
		<path class="st10" d="M1461.75,845.22l-56.54-84.51c-4.87-7.31-10.57-10.97-17.1-10.97c-6.34,0-9.76,3.95-10.27,11.84l-5.53,83.78
			c-0.11,1.56,0.14,3.31,0.73,5.26c0.78,2.54,2.25,4.56,4.42,6.07c2.17,1.51,4.53,2.27,7.07,2.27c4.1,0,6.3-2.58,6.58-7.73
			l0.69-17.56h43.08l11.11,17.07c3.52,5.48,7.51,8.23,11.97,8.23c2.52,0,4.44-0.76,5.77-2.27c1.33-1.51,1.63-3.48,0.88-5.92
			C1464.15,849.22,1463.19,847.37,1461.75,845.22z M1392.42,817.29l1.72-45.02c0.07-0.68,0.15-1.17,0.24-1.46l30.01,46.49H1392.42z"
			/>
		<path class="st10" d="M1538.62,841.27l-35.59-29.39c18.78-1.36,25.42-11.06,19.91-29.09c-3.19-10.43-9.19-18.42-18-23.98
			c-8.11-5.17-17.48-7.75-28.1-7.75h-20.91c-7.7,0-10.31,4.06-7.83,12.17l25.68,84.01c2.45,8.01,6.72,12.02,12.82,12.02
			c6.28,0,8.21-3.97,5.78-11.92l-10.71-35.01l0.96,0.73l46.25,40.5c4.39,3.8,8.14,5.7,11.27,5.7c2.44,0,4.26-0.76,5.46-2.27
			c1.2-1.51,1.43-3.48,0.68-5.92C1545.34,847.95,1542.78,844.69,1538.62,841.27z M1490.15,800.19c-5.68,0-9.83-0.29-12.46-0.88
			l-9.61-31.43h13.66c11.55,0,18.94,5.24,22.14,15.71C1507.26,794.66,1502.68,800.19,1490.15,800.19z"/>
		<path class="st10" d="M1567.73,768.17h15c7.74,0,10.75-2.83,9.02-8.48c-1.76-5.75-6.58-8.63-14.48-8.63h-47.96
			c-7.89,0-10.96,2.88-9.2,8.63c1.73,5.65,6.49,8.48,14.29,8.48h14.77l24.09,78.81c2.44,7.99,6.71,11.99,12.81,11.99
			c6.28,0,8.21-4,5.76-11.99L1567.73,768.17z"/>
		<path class="st10" d="M1680.85,846.21c-0.84-2.76-2.58-5.15-5.19-7.15c-2.61-2-5.3-3-8.07-3c-2.77,0-4.84,1-6.23,3
			c-1.39,2-1.66,4.39-0.82,7.15c0.85,2.77,2.58,5.15,5.19,7.15c2.61,2,5.3,3,8.07,3c2.76,0,4.84-1,6.23-3
			C1681.43,851.36,1681.7,848.98,1680.85,846.21z"/>
		<path class="st10" d="M1669.46,813.17l-16.31-53.35c-2.36-7.72-6.55-11.58-12.55-11.58c-5.91,0-7.69,3.86-5.33,11.58l16.31,53.35
			c2.45,8.01,6.68,12.01,12.68,12.01C1670.18,825.19,1671.91,821.18,1669.46,813.17z"/>
	</g>
	<path class="st10" d="M2570.64,1456.16h-724.36c30.93-25.42,73.23-69.44,95.62-132.61c37.94-106.62,167.53-62.61,281.93-81.01
		c114.59-18.4,345.74-251.7,353.64-224.82c4.23,14.39-47.43,203.95,28.46,225.39C2680.86,1264.16,2709.51,1382.54,2570.64,1456.16z"
		/>
	<path class="st29" d="M3596.79,2000H4.35c-1.76,0-3.21-1.44-3.21-3.21l0,0c0-1.76,1.44-3.21,3.21-3.21h3592.45
		c1.76,0,3.21,1.44,3.21,3.21l0,0C3600,1998.56,3598.56,2000,3596.79,2000z"/>
</g>
</svg>
