<?xml version="1.0" encoding="utf-8"?>
<!-- Generator: Adobe Illustrator 24.2.1, SVG Export Plug-In . SVG Version: 6.00 Build 0)  -->
<svg version="1.1" xmlns="http://www.w3.org/2000/svg" xmlns:xlink="http://www.w3.org/1999/xlink" x="0px" y="0px"
	 viewBox="0 0 750 446.09" style="enable-background:new 0 0 750 446.09;" xml:space="preserve">
<style type="text/css">
	.st0{fill:#E3EAFF;}
	.st1{fill:#E7F7FF;}
	.st2{fill:#BCE4FF;}
	.st3{fill:#98C3FF;}
	.st4{fill:#F1F1F1;}
	.st5{fill:none;}
	.st6{fill:#B6A9D7;}
	.st7{fill:#E5B220;}
	.st8{fill:#FAFDFF;}
	.st9{fill:#DBEAFF;}
	.st10{fill:#F2CF6A;}
	.st11{fill:#6276E9;}
	.st12{fill:#93A5FD;}
	.st13{fill:#A2CDFC;}
	.st14{fill:#EBA187;}
	.st15{fill:#34319A;}
	.st16{fill:#E06F47;}
	.st17{fill:#341D70;}
	.st18{fill:#2847D9;}
	.st19{fill:#E58666;}
	.st20{fill:#95BCFF;}
	.st21{fill:#CBE5FF;}
	.st22{fill:#F0C563;}
	.st23{fill:#2C4BDE;}
	.st24{fill:none;stroke:#2C4BDE;stroke-linecap:round;stroke-linejoin:round;}
	.st25{fill:none;stroke:#2C4BDE;stroke-linecap:round;stroke-linejoin:round;stroke-dasharray:5.0235,5.0235;}
	.st26{fill:#29A8DF;}
	.st27{fill:#FFFFFF;}
	.st28{fill:#B6D7FF;}
	.st29{fill:#89BDFF;}
</style>
<g id="BACKGROUND">
	<g>
		<g>
			<g>
				<path class="st0" d="M685.34,213.12c-8.11-8.21-15.55-16.9-20.94-27.08c-18.87-35.63-8.52-81.57-28.12-116.81
					C618.39,37.06,575.12,21.79,541,35.6c-28.36,11.48-49.73,39.79-80.17,42.88C434.58,81.15,411,64.11,388.8,49.86
					C344.46,21.43,293.12,0.9,240.49,2.96c-52.63,2.06-106.15,30.19-128.41,77.92c-10.29,22.07-13.54,46.77-22.31,69.49
					c-15.91,41.2-56.12,68.09-69.26,109.23c-12.02,37.62-2.65,81.25,22.64,111.37c30.49,36.31,81.18,52.94,128.13,46.33
					c43.12-6.07,83.42-29.81,126.94-28.56c22.5,0.65,44.43,8.02,66.94,8.42c24.31,0.43,48.04-7.29,72.3-8.9
					c63.19-4.19,123.51,33,186.75,29.65c38.09-2.01,75.95-20.2,97.85-51.43c21.9-31.23,25.54-75.5,5.41-107.9
					C716.58,241.05,699.88,227.85,685.34,213.12z"/>
			</g>
		</g>
		<g>
			<g>
				<g>
					<g>
						<g>
							<path class="st1" d="M158.97,227.6c-0.68,4.95-1.44,10.19-3.31,14.83c-0.48,1.11-1.42,4.74-2.68,5.24
								c-1.27,0.53-3.35-2.16-4.39-3.06c-2.88-2.47-6.11-4.45-9-6.95c-3.65-3.13-7.81-6.16-11.92-8.65
								c-0.4-0.24-0.83-0.49-1.26-0.71c-1.55-0.82-3.24-1.46-4.88-1.63c-2.17-0.22-4.28,0.38-5.89,2.55
								c-2.66,3.54-1.25,10.92-0.65,14.94c0.05,0.33,0.1,0.66,0.15,1c0.75,5.1,1.55,10.44,0.2,15.45c-0.65,2.47-2.1,4.64-4.06,6.21
								c-1.07,0.89-2.29,1.59-3.62,2.08c-1.28,0.47-2.49,0.74-3.63,0.84c-2.6,0.24-4.95-0.38-7.27-1.56
								c-1.22-0.61-2.42-1.38-3.66-2.24c-0.59-0.41-1.15-0.85-1.69-1.31c-2.28-1.92-4.14-4.22-5.77-6.71
								c-0.58-0.86-1.12-1.74-1.64-2.64c-1.19-2-2.27-4.08-3.36-6.1c-0.82-1.52-1.6-3.11-2.35-4.74c-1.08-2.32-2.08-4.71-3.01-7.13
								c-1.06-2.71-2.02-5.44-2.9-8.09c-1.44-4.42-2.6-9.04-3.69-13.65c-0.3-1.23-0.58-2.47-0.87-3.69
								c3.84,1.47,7.76,2.72,11.89,3.69c4.77,1.13,11.04,1.42,8.81-5.42c-1.24-3.84-5.27-6.78-8.5-9.11
								c-4.71-3.36-9.58-6.72-14.83-9.16c-0.6-0.26-1.2-0.55-1.77-0.87c-0.18-1.21-0.35-2.42-0.49-3.64
								c-0.57-5.11-0.83-10.19-0.89-15.24c3.44,1.04,6.75,2.8,8.47,4.26c2.59,2.2,6.46,6.85,10.12,5.96
								c5.22-1.27,2.56-5.99,0.56-8.93c-2.77-4-7.01-6.06-10.84-8.84c-1.36-0.98-2.7-1.89-4.08-2.74c-2.56-1.59-4.16-4.35-4.11-7.36
								l0.01-0.05c0.14-6.54,0.19-15.04-3.71-20.75c-0.41-0.62-0.89-1.22-1.41-1.77c-1.94-2.04-4.11-3.5-6.49-4.83
								c1.36,0.14,2.72,0.31,4.09,0.52c11.7,1.83,23.45,6.54,33.81,12.05c0.03,0.02,0.07,0.04,0.12,0.06
								c2.7,1.45,4.26,4.37,4.15,7.43c-0.03,0.89-0.06,1.79-0.05,2.71c0,3.83-0.79,10.46,2.13,13.4c3.44,3.43,6.89-3.23,7.86-6.1
								c0.84-2.46,0.47-4.97,0.37-7.47c4.38,3.2,8.99,5.96,13.27,9.38c4.4,3.56,8.84,7.23,13.09,10.97
								c-0.86,4.53-2.57,8.99-3.84,13.35c-2.12,7.19-6.53,14.99-3.83,22.64c1.43,4.03,3.55,6.23,7.8,4.73
								c3.98-1.4,5.92-4.57,7.25-8.36c1.96-5.53,1.87-10.92,2.15-16.66c0.1-2.01,0.03-4-0.08-5.98c1.83,1.31,3.63,2.69,5.42,4.09
								c3.97,3.12,9.64,5.54,12.47,9.79c2.03,3.05,2.68,7.96,3.13,11.55C160.85,212.86,160,219.98,158.97,227.6z"/>
						</g>
						<g>
							<path class="st2" d="M140.34,284.52v0.05c0,2.51-3.8,2.44-3.98,0.03c-0.01-0.06-0.01-0.12-0.01-0.18
								c-0.01-4.95-0.64-10.01-1.64-15.07c-1.05-5.27-2.52-10.54-4.14-15.74c-1.96-6.31-4.15-12.49-6.07-18.39
								c-0.94-2.87-1.93-5.72-2.98-8.54c-4.31-11.74-9.51-23.1-15.57-34.08c-7.5-13.59-15.51-27.27-25.77-38.98
								c-3.92-4.48-8.48-8.25-12.78-12.33c-2.84-2.7-5.63-5.46-8.94-7.59c-0.41-0.62-0.89-1.22-1.41-1.77
								c-1.94-2.04-4.11-3.5-6.49-4.83c1.36,0.14,2.72,0.31,4.09,0.52c3.83,1.58,7.24,3.58,8.85,4.84
								c13.22,10.3,24.32,23.09,33.42,37.1c11.11,17.11,20.77,35.32,27.88,54.46c0.52,1.42,1.06,2.85,1.6,4.3
								c2.85,7.65,5.84,15.79,8.32,24.06c0.83,2.7,1.58,5.42,2.26,8.14C139.01,268.59,140.33,276.69,140.34,284.52z"/>
						</g>
					</g>
					<path class="st3" d="M137.19,254.34c-3.72-5.73-10.05,1.86-11.57,5.72c-2.95,7.52-3.44,24.54-2.57,29.21
						c-1.09-1.25-2.23-2.46-3.41-3.66c-2.18-2.2-4.35-4.42-6.52-6.63c2.69-3.98,8.86-12.16,7.54-26.73
						c-0.22-2.44-0.74-5.68-3.18-6.88c-3.4-1.67-4.1,2.26-4.47,4.76c-0.64,4.28-1.82,19.09-2.75,25.94
						c-4.36-4.42-8.71-8.86-13.08-13.26c3.67-8.54,8.08-18.92,5.12-28.34c-1.94-6.17-7.11-1.78-8.57,1.99
						c-2.61,6.75-2.16,15.05-0.47,22.43c-2.07-2.06-4.14-4.12-6.22-6.16c-0.38-0.37-0.75-0.73-1.12-1.1
						c2.17-4.04,4.68-7.69,5.37-12.39c0.68-4.63-0.88-9.08-3.48-12.87c-1.15-1.67-2.31-3.85-4.49-4.35
						c-3.05-0.71-2.12,2.75-1.76,4.83c0.76,4.42,1.28,8.98,1.56,13.44c0.14,2.46,0.36,4.77,0.73,7.13c0.09,0.61,0.1,1.45,0.1,2.3
						c-2.99-2.88-6.06-5.7-9.18-8.46c1.08-7.78,2.31-17.2-2.2-24.2c-2.97-4.58-6.2,0.15-6.54,3.55c-0.53,5.28,1.07,10.98,3.49,16.09
						c-1.38-1.17-2.77-2.34-4.17-3.49c-1.6-9.06-3.43-20.32-11.04-26.46c-4.83-3.91-6.67,2.48-5.85,6.34
						c0.82,3.78,2.62,7.44,4.95,10.8c-0.65-0.49-1.32-0.98-1.97-1.46c-1.58-1.16-3.2-2.24-4.83-3.27
						c-0.31-7.87-0.7-17.43-6.41-23.56c-3.72-4-6.08,1.23-5.82,4.64c0.41,5.41,3.11,10.88,6.48,15.55c-2.58-1.42-5.2-2.74-7.85-4.03
						c-1.23-6.31-2.77-13.93-8.12-18.15c-3.52-2.76-4.76,1.76-4.13,4.49c0.93,3.96,3.4,7.72,6.36,10.89
						c-2.92-1.36-5.85-2.7-8.77-4.1c-1.5-2.49-3.28-4.98-4.87-7.12c-1.88-2.52-4.36-5.05-7.75-5.13c-4.46-0.11-5.67,2.91-3.57,6.64
						c0.96,1.7,2.35,2.91,3.97,3.85c-1.75,0.13-3.42,0.61-4.59,1.48c-1.19,0.89-1.61,1.85-1.51,2.75c0.16,1.54,1.82,2.92,3.76,3.52
						c3.44,1.06,7.2,0.14,10.69-0.15c1.08-0.09,2.18-0.05,3.28,0.04c1.51,0.12,3.02,0.31,4.5,0.34c1.93,0.9,3.86,1.79,5.78,2.7
						c0,0,0,0,0.01,0c-5.19-0.91-11-0.92-15.61,1.16c-2.55,1.15-5.39,4.9-1.05,6c6.96,1.77,14.34-2.11,20.26-5.05l0.1-0.34
						c0.87,0.43,1.75,0.86,2.63,1.3c0.05,0.03,0.1,0.04,0.14,0.06c4.46,2.26,8.82,4.7,13.02,7.56c0,0,0.01,0.01,0.01,0.01
						c-1.81-0.2-3.61-0.22-5.34,0.02c-3.16,0.43-7.46,3.6-3.08,6.21c5.62,3.35,12.71,2.82,19.12,1.81
						c5.21,4.12,10.31,8.42,15.26,12.86c-5.64-2.71-12.2-4.58-18.11-3.77c-3.39,0.47-8,3.86-3.31,6.66
						c7.53,4.48,17.5,2.48,25.44,1.1l0.12-0.19c0,0,0,0,0,0c2.29,2.12,4.55,4.27,6.77,6.45c1.09,1.07,2.18,2.15,3.25,3.22
						c0,0,0.01,0.01,0.01,0.01c-7.71-3.92-16.61-6.77-24.5-6c-4.5,0.44-10.49,4.72-4.07,8.67c10.26,6.33,23.44,4.23,33.97,2.8
						c0,0,0,0,0.01,0.01c3.04,3.09,6.05,6.21,9.07,9.32c-7.93-1.16-24.21-4.54-29.56-5.2c-2.5-0.31-8.44-0.36-7.48,3.83
						c0.54,2.32,4.86,4.72,6.98,5.48c4.73,1.7,22.77,2.01,34.75,0.68c0,0,0,0,0.01,0.01c2.16,2.19,4.34,4.37,6.55,6.52
						c0.82,0.79,1.61,1.6,2.39,2.41c-11.59-2.75-34.55-6.59-40.32-5.37c-2.93,0.62-7.57,2.38-7.27,6.06
						c0.31,3.82,6.06,4.23,8.92,5.16c6.6,2.14,28.41,0.87,32.4,0.06c3.1-0.63,6.18-1.95,9.18-2.74c0.03,0.04,0.06,0.07,0.09,0.11
						c1.68,1.9,3.29,3.83,4.84,5.8c-0.19,0.02-0.38,0.04-0.57,0.06c-9.72,0.85-30.47,1.38-37.1,2.1c-3.08,0.34-10.2,1.94-7.88,6.69
						c1.29,2.62,7.14,4.28,9.9,4.59c5.72,0.66,24.99-3.38,38.87-7.96c0.26-0.08,0.5-0.17,0.75-0.26
						c4.82,6.57,9.31,13.37,14.35,20.12c1.51,2.04,4.83-0.14,3.31-2.18c-7.27-9.75-13.25-19.95-21.09-29.1
						C133.26,279.62,138.88,256.93,137.19,254.34z"/>
					<g>
						<g>
							<path class="st1" d="M180.68,337.94c-0.85,1.27-4.43,0.07-5.95-0.11c-4.18-0.49-8.4-0.31-12.6-0.83
								c-5.3-0.62-11.01-0.84-16.35-0.58c-0.53,0.02-1.07,0.06-1.61,0.13c-1.93,0.2-3.89,0.65-5.51,1.51
								c-2.14,1.14-3.69,3.01-3.84,6c-0.25,4.9,5.62,10.83,8.66,14.17c4.08,4.5,8.52,9.14,10.51,14.94
								c1.45,4.15,0.68,8.79-1.94,12.4c-3.94,5.42-8.94,6.42-15.27,6.29c-7.94-0.14-15.03-4.11-21.87-7.73
								c-6.85-3.63-13.83-8.52-19.97-13.28c-5.16-4.02-10.1-8.64-14.95-13.16c4.45-1.02,8.84-2.3,13.24-3.95
								c5.1-1.92,11.05-5.54,4.76-10.46c-3.53-2.78-9.05-2.98-13.48-3.12c-6.43-0.18-13-0.25-19.34,0.75
								c-0.72,0.13-1.45,0.23-2.17,0.29c-0.92-1-1.82-2.01-2.71-3.05c-3.7-4.36-7.06-8.87-10.25-13.49
								c3.81-1.19,7.95-1.61,10.44-1.32c3.75,0.42,10.2,2.31,13.02-0.78c4.02-4.4-1.36-7.11-5.02-8.58
								c-5.03-1.97-10.21-1.24-15.47-1.43c-1.85-0.06-3.66-0.07-5.45-0.01c-3.35,0.13-6.53-1.42-8.34-4.24l-0.03-0.04
								c-3.93-6.12-9.15-14.01-16.27-16.85c-0.77-0.31-1.57-0.56-2.38-0.74c-3.06-0.69-5.96-0.69-8.98-0.43
								c1.34-0.72,2.72-1.41,4.12-2.05c0.01,0,0.01,0,0.01,0c11.91-5.56,25.64-8.49,38.58-9.83c0.05,0,0.1-0.01,0.15-0.01
								c3.39-0.35,6.64,1.39,8.43,4.28c0.52,0.84,1.06,1.68,1.63,2.53c2.38,3.54,5.75,10.13,10.27,11.03
								c2.21,0.43,3.33-0.76,3.82-2.54c0.69-2.47,0.16-6.06-0.36-7.95c-0.38-1.4-1.05-2.63-1.83-3.79
								c-0.77-1.13-1.65-2.21-2.46-3.32c0.75,0.03,1.49,0.05,2.24,0.06h0.01c5.25,0.11,10.48-0.07,15.79,0.37
								c0.9,0.07,1.8,0.16,2.71,0.24c4.81,0.43,9.66,0.93,14.43,1.54c0.57,0.06,1.14,0.14,1.7,0.21c0.34,0.79,0.66,1.6,0.94,2.41
								c0.41,1.1,0.78,2.22,1.13,3.35c0.54,1.72,1.03,3.44,1.52,5.16c0.37,1.28,0.74,2.54,1.13,3.78c0.14,0.43,0.28,0.89,0.4,1.33
								c0.7,2.45,1.28,5.04,1.98,7.61c1.49,5.48,3.46,10.83,8.12,14.29c3.81,2.83,7.11,3.54,10.11-0.49
								c0.62-0.84,1.11-1.69,1.46-2.57c0.77-1.93,0.93-3.94,0.72-6c-0.12-1.19-0.35-2.39-0.67-3.62c-1.62-6.3-5.04-11.22-8.35-16.69
								c-0.68-1.12-1.4-2.2-2.15-3.25c-0.53-0.75-1.08-1.48-1.63-2.21c0.95,0.03,1.91,0.07,2.87,0.13c1.55,0.07,3.1,0.17,4.66,0.29
								c1.06,0.07,2.16,0.1,3.28,0.08c1.3-0.01,2.64-0.05,3.98-0.08c3.59-0.06,7.21,0.01,10.3,1.29c3.77,1.56,7.4,5.69,10.05,8.7
								c5.66,6.47,9.3,13.54,13.06,21.21c2.46,5,4.99,10.28,6.14,15.72C180.15,332.76,181.51,336.69,180.68,337.94z"/>
						</g>
						<g>
							<path class="st2" d="M188.11,382.11c-10.19-15.13-27.21-26.91-41.41-38c-2.65-2.06-5.33-4.08-8.04-6.05
								c-11.24-8.15-23.07-15.4-35.46-21.77c-4.18-2.15-8.41-4.28-12.67-6.33c-4.23-2.04-8.52-4-12.85-5.82
								c-7.31-3.08-14.76-5.78-22.38-7.81c-6.38-1.69-12.93-2.34-19.43-3.45c-4.29-0.73-8.58-1.54-12.94-1.47
								c-0.77-0.31-1.57-0.56-2.38-0.74c-3.06-0.69-5.96-0.69-8.98-0.43c1.34-0.72,2.72-1.41,4.12-2.05c0.01,0,0.01,0,0.01,0
								c4.5-0.92,8.86-1.19,11.12-1.03c18.33,1.29,36.25,6.1,53.12,13.21c0.22,0.1,0.46,0.19,0.68,0.29
								c6.11,2.6,12.16,5.38,18.13,8.32c14.39,7.1,28.29,15.25,41.3,24.6c1.36,0.97,2.73,1.97,4.13,2.98
								c16.95,12.16,36.22,26.17,47.71,43.23C193.48,382.15,189.7,384.48,188.11,382.11z"/>
						</g>
					</g>
				</g>
			</g>
			<g>
				<g>
					<g>
						<g>
							<path class="st1" d="M591.03,228.48c0.68,4.95,1.44,10.19,3.31,14.83c0.48,1.11,1.42,4.74,2.68,5.24
								c1.27,0.53,3.35-2.16,4.39-3.06c2.88-2.47,6.11-4.45,9-6.95c3.65-3.13,7.81-6.16,11.92-8.65c0.4-0.24,0.83-0.49,1.26-0.71
								c1.55-0.82,3.24-1.46,4.88-1.63c2.17-0.22,4.28,0.38,5.89,2.55c2.66,3.54,1.25,10.92,0.65,14.94c-0.05,0.33-0.1,0.66-0.15,1
								c-0.75,5.1-1.55,10.44-0.2,15.45c0.65,2.47,2.1,4.64,4.06,6.21c1.07,0.89,2.29,1.59,3.62,2.08c1.28,0.47,2.49,0.74,3.63,0.84
								c2.6,0.24,4.95-0.38,7.27-1.56c1.22-0.61,2.42-1.38,3.66-2.24c0.59-0.41,1.15-0.85,1.69-1.31c2.28-1.92,4.14-4.22,5.77-6.71
								c0.58-0.86,1.12-1.74,1.64-2.64c1.19-2,2.27-4.08,3.36-6.1c0.82-1.52,1.6-3.11,2.35-4.74c1.08-2.32,2.08-4.71,3.01-7.13
								c1.06-2.71,2.02-5.44,2.9-8.09c1.44-4.42,2.6-9.04,3.69-13.65c0.3-1.23,0.58-2.47,0.87-3.69c-3.84,1.47-7.76,2.72-11.89,3.69
								c-4.77,1.13-11.04,1.42-8.81-5.42c1.24-3.84,5.27-6.78,8.5-9.11c4.71-3.36,9.58-6.72,14.83-9.16c0.6-0.26,1.2-0.55,1.77-0.87
								c0.18-1.21,0.35-2.42,0.49-3.64c0.57-5.11,0.83-10.19,0.89-15.24c-3.44,1.04-6.75,2.8-8.47,4.26
								c-2.59,2.2-6.46,6.85-10.12,5.96c-5.22-1.27-2.56-5.99-0.56-8.93c2.77-4,7.01-6.06,10.84-8.84c1.36-0.98,2.7-1.89,4.08-2.74
								c2.56-1.59,4.16-4.35,4.11-7.36l-0.01-0.05c-0.14-6.54-0.19-15.04,3.71-20.75c0.41-0.62,0.89-1.22,1.41-1.77
								c1.94-2.04,4.11-3.5,6.49-4.83c-1.36,0.14-2.72,0.31-4.09,0.52c-11.7,1.83-23.45,6.54-33.81,12.05
								c-0.03,0.02-0.07,0.04-0.12,0.06c-2.7,1.45-4.26,4.37-4.15,7.43c0.03,0.89,0.06,1.79,0.05,2.71c0,3.83,0.79,10.46-2.13,13.4
								c-3.44,3.43-6.89-3.23-7.86-6.1c-0.84-2.46-0.47-4.97-0.37-7.47c-4.38,3.2-8.99,5.96-13.27,9.38
								c-4.4,3.56-8.84,7.23-13.09,10.97c0.86,4.53,2.57,8.99,3.84,13.35c2.12,7.19,6.53,14.99,3.83,22.64
								c-1.43,4.03-3.55,6.23-7.8,4.73c-3.98-1.4-5.92-4.57-7.25-8.36c-1.96-5.53-1.87-10.92-2.15-16.66c-0.1-2.01-0.03-4,0.08-5.98
								c-1.83,1.31-3.63,2.69-5.42,4.09c-3.97,3.12-9.64,5.54-12.47,9.79c-2.03,3.05-2.68,7.96-3.13,11.55
								C589.15,213.74,590,220.85,591.03,228.48z"/>
						</g>
						<g>
							<path class="st2" d="M609.66,285.39v0.05c0,2.51,3.8,2.44,3.98,0.03c0.01-0.06,0.01-0.12,0.01-0.18
								c0.01-4.95,0.64-10.01,1.64-15.07c1.05-5.27,2.52-10.54,4.14-15.74c1.96-6.31,4.15-12.49,6.07-18.39
								c0.94-2.87,1.93-5.72,2.97-8.54c4.31-11.74,9.51-23.1,15.57-34.08c7.5-13.59,15.51-27.27,25.77-38.98
								c3.92-4.48,8.48-8.25,12.78-12.33c2.84-2.7,5.63-5.46,8.94-7.59c0.41-0.62,0.89-1.22,1.41-1.77c1.94-2.04,4.11-3.5,6.49-4.83
								c-1.36,0.14-2.72,0.31-4.09,0.52c-3.83,1.58-7.24,3.58-8.85,4.84c-13.22,10.3-24.32,23.09-33.42,37.1
								c-11.11,17.11-20.77,35.32-27.88,54.46c-0.52,1.42-1.06,2.85-1.6,4.3c-2.85,7.65-5.84,15.79-8.32,24.06
								c-0.83,2.7-1.58,5.42-2.26,8.14C610.99,269.47,609.67,277.57,609.66,285.39z"/>
						</g>
					</g>
					<path class="st3" d="M612.81,255.21c3.72-5.73,10.05,1.86,11.57,5.72c2.95,7.52,3.44,24.54,2.57,29.21
						c1.09-1.25,2.23-2.46,3.41-3.66c2.18-2.2,4.35-4.42,6.52-6.63c-2.69-3.98-8.86-12.16-7.54-26.73c0.22-2.44,0.74-5.68,3.18-6.88
						c3.4-1.67,4.1,2.26,4.47,4.76c0.64,4.28,1.82,19.09,2.75,25.94c4.36-4.42,8.71-8.86,13.08-13.26
						c-3.67-8.54-8.08-18.92-5.12-28.34c1.94-6.17,7.11-1.78,8.57,1.99c2.61,6.75,2.16,15.05,0.47,22.43
						c2.07-2.06,4.14-4.12,6.22-6.16c0.38-0.37,0.75-0.73,1.12-1.1c-2.17-4.04-4.68-7.69-5.37-12.39
						c-0.68-4.63,0.88-9.08,3.48-12.87c1.15-1.67,2.31-3.85,4.49-4.35c3.05-0.71,2.12,2.75,1.76,4.83
						c-0.76,4.42-1.28,8.98-1.56,13.44c-0.14,2.46-0.36,4.77-0.73,7.13c-0.09,0.61-0.1,1.45-0.1,2.3c2.99-2.88,6.06-5.7,9.18-8.46
						c-1.07-7.78-2.31-17.2,2.2-24.2c2.97-4.58,6.2,0.15,6.54,3.55c0.53,5.28-1.07,10.98-3.49,16.09c1.38-1.17,2.77-2.34,4.17-3.49
						c1.6-9.06,3.43-20.32,11.04-26.46c4.83-3.91,6.67,2.48,5.85,6.34c-0.82,3.78-2.62,7.44-4.95,10.8
						c0.65-0.49,1.32-0.98,1.97-1.46c1.58-1.16,3.2-2.24,4.83-3.27c0.3-7.87,0.7-17.43,6.41-23.56c3.72-4,6.08,1.23,5.82,4.64
						c-0.41,5.41-3.11,10.88-6.48,15.55c2.58-1.42,5.2-2.74,7.85-4.03c1.23-6.31,2.77-13.93,8.12-18.15
						c3.52-2.76,4.76,1.76,4.13,4.49c-0.93,3.96-3.4,7.72-6.36,10.89c2.92-1.36,5.85-2.7,8.77-4.1c1.5-2.49,3.28-4.98,4.87-7.12
						c1.88-2.52,4.36-5.05,7.75-5.13c4.46-0.11,5.67,2.91,3.57,6.64c-0.96,1.7-2.35,2.91-3.97,3.85c1.75,0.13,3.42,0.61,4.59,1.48
						c1.19,0.89,1.61,1.85,1.51,2.75c-0.16,1.54-1.82,2.92-3.76,3.52c-3.44,1.06-7.2,0.14-10.69-0.15
						c-1.08-0.09-2.18-0.05-3.28,0.04c-1.51,0.12-3.02,0.31-4.5,0.34c-1.93,0.9-3.86,1.79-5.78,2.7c0,0,0,0-0.01,0
						c5.19-0.91,11-0.92,15.61,1.16c2.55,1.15,5.39,4.9,1.05,6c-6.96,1.77-14.34-2.11-20.26-5.05l-0.1-0.34
						c-0.87,0.43-1.75,0.86-2.63,1.3c-0.05,0.03-0.1,0.04-0.14,0.06c-4.46,2.26-8.82,4.7-13.02,7.56c0,0-0.01,0.01-0.01,0.01
						c1.81-0.2,3.61-0.22,5.34,0.02c3.16,0.43,7.46,3.6,3.08,6.21c-5.62,3.35-12.71,2.82-19.12,1.81
						c-5.21,4.12-10.31,8.42-15.26,12.86c5.64-2.71,12.2-4.58,18.11-3.77c3.39,0.47,8,3.86,3.31,6.66
						c-7.53,4.48-17.5,2.48-25.44,1.1l-0.12-0.19c0,0,0,0,0,0c-2.29,2.12-4.55,4.27-6.77,6.45c-1.09,1.07-2.18,2.15-3.25,3.22
						c0,0-0.01,0.01-0.01,0.01c7.71-3.92,16.61-6.77,24.5-6c4.5,0.44,10.49,4.72,4.07,8.67c-10.26,6.33-23.44,4.23-33.97,2.8
						c0,0,0,0-0.01,0.01c-3.04,3.09-6.05,6.21-9.07,9.32c7.93-1.16,24.21-4.54,29.56-5.2c2.5-0.31,8.44-0.36,7.48,3.83
						c-0.54,2.32-4.86,4.72-6.98,5.48c-4.73,1.7-22.77,2.01-34.75,0.68c0,0,0,0-0.01,0.01c-2.16,2.19-4.34,4.37-6.55,6.52
						c-0.82,0.79-1.61,1.6-2.39,2.41c11.59-2.75,34.55-6.59,40.32-5.37c2.93,0.62,7.57,2.38,7.27,6.06
						c-0.31,3.82-6.06,4.23-8.92,5.16c-6.6,2.14-28.41,0.87-32.4,0.06c-3.1-0.63-6.18-1.95-9.18-2.74
						c-0.03,0.04-0.06,0.07-0.09,0.11c-1.68,1.9-3.29,3.83-4.84,5.8c0.19,0.02,0.38,0.04,0.57,0.06c9.72,0.85,30.47,1.38,37.1,2.1
						c3.08,0.34,10.2,1.94,7.88,6.69c-1.29,2.62-7.14,4.28-9.9,4.59c-5.72,0.66-24.99-3.38-38.88-7.96
						c-0.26-0.08-0.5-0.17-0.75-0.26c-4.82,6.57-9.31,13.37-14.35,20.12c-1.51,2.04-4.83-0.14-3.31-2.18
						c7.27-9.75,13.25-19.95,21.09-29.1C616.74,280.5,611.12,257.81,612.81,255.21z"/>
					<g>
						<g>
							<path class="st1" d="M569.32,338.82c0.85,1.27,4.43,0.07,5.95-0.11c4.18-0.49,8.4-0.31,12.6-0.83
								c5.3-0.62,11.01-0.84,16.35-0.58c0.53,0.02,1.07,0.06,1.61,0.13c1.93,0.2,3.89,0.65,5.51,1.51c2.14,1.14,3.69,3.01,3.84,6
								c0.25,4.9-5.62,10.83-8.66,14.17c-4.08,4.5-8.52,9.14-10.51,14.94c-1.45,4.15-0.68,8.79,1.94,12.4
								c3.94,5.42,8.94,6.42,15.27,6.29c7.94-0.14,15.03-4.11,21.87-7.73c6.85-3.63,13.83-8.52,19.97-13.28
								c5.16-4.02,10.1-8.64,14.95-13.16c-4.45-1.02-8.84-2.3-13.24-3.95c-5.1-1.92-11.05-5.54-4.76-10.46
								c3.53-2.78,9.05-2.98,13.48-3.12c6.43-0.18,13-0.25,19.34,0.75c0.72,0.13,1.45,0.23,2.17,0.29c0.92-1,1.82-2.01,2.71-3.05
								c3.69-4.36,7.06-8.87,10.25-13.49c-3.81-1.19-7.95-1.61-10.44-1.32c-3.75,0.42-10.2,2.31-13.02-0.78
								c-4.02-4.4,1.36-7.11,5.02-8.58c5.03-1.97,10.21-1.24,15.47-1.43c1.85-0.06,3.66-0.07,5.45-0.01
								c3.35,0.13,6.53-1.42,8.34-4.24l0.03-0.04c3.93-6.12,9.15-14.01,16.27-16.85c0.77-0.31,1.57-0.56,2.38-0.74
								c3.06-0.69,5.96-0.69,8.98-0.43c-1.34-0.72-2.72-1.41-4.12-2.05c-0.01,0-0.01,0-0.01,0c-11.91-5.56-25.64-8.49-38.58-9.83
								c-0.05,0-0.1-0.01-0.15-0.01c-3.39-0.35-6.64,1.39-8.43,4.28c-0.52,0.84-1.06,1.68-1.63,2.53
								c-2.38,3.54-5.75,10.13-10.27,11.03c-2.21,0.43-3.33-0.76-3.82-2.54c-0.69-2.47-0.16-6.06,0.36-7.95
								c0.38-1.4,1.05-2.63,1.83-3.79c0.77-1.13,1.65-2.21,2.46-3.32c-0.75,0.03-1.49,0.05-2.24,0.06h-0.01
								c-5.25,0.11-10.48-0.07-15.79,0.37c-0.9,0.07-1.8,0.16-2.71,0.24c-4.81,0.43-9.66,0.93-14.43,1.54
								c-0.57,0.06-1.14,0.14-1.7,0.21c-0.34,0.79-0.66,1.6-0.94,2.41c-0.41,1.1-0.78,2.22-1.13,3.35
								c-0.54,1.72-1.03,3.44-1.52,5.16c-0.37,1.28-0.74,2.54-1.13,3.78c-0.14,0.43-0.28,0.89-0.4,1.33
								c-0.7,2.45-1.28,5.04-1.98,7.61c-1.49,5.48-3.46,10.83-8.12,14.29c-3.81,2.83-7.11,3.54-10.11-0.49
								c-0.62-0.84-1.11-1.69-1.46-2.57c-0.77-1.93-0.93-3.94-0.72-6c0.12-1.19,0.35-2.39,0.67-3.62c1.62-6.3,5.04-11.22,8.35-16.69
								c0.68-1.12,1.4-2.2,2.15-3.25c0.53-0.75,1.08-1.48,1.63-2.21c-0.95,0.03-1.91,0.07-2.87,0.13c-1.55,0.07-3.1,0.17-4.66,0.29
								c-1.06,0.07-2.16,0.1-3.28,0.08c-1.3-0.01-2.64-0.05-3.98-0.08c-3.59-0.06-7.21,0.01-10.3,1.29
								c-3.77,1.56-7.4,5.69-10.05,8.7c-5.66,6.47-9.3,13.54-13.06,21.21c-2.46,5-4.99,10.28-6.14,15.72
								C569.85,333.64,568.49,337.57,569.32,338.82z"/>
						</g>
						<g>
							<path class="st2" d="M561.89,382.99c10.19-15.13,27.21-26.91,41.41-38c2.65-2.06,5.33-4.08,8.04-6.05
								c11.24-8.15,23.07-15.4,35.46-21.77c4.18-2.15,8.41-4.28,12.67-6.33c4.23-2.04,8.52-4,12.85-5.82
								c7.31-3.08,14.76-5.78,22.38-7.81c6.38-1.69,12.93-2.34,19.43-3.45c4.29-0.73,8.58-1.54,12.94-1.47
								c0.77-0.31,1.57-0.56,2.38-0.74c3.06-0.69,5.96-0.69,8.98-0.43c-1.34-0.72-2.72-1.41-4.12-2.05c-0.01,0-0.01,0-0.01,0
								c-4.5-0.92-8.86-1.19-11.12-1.03c-18.33,1.29-36.25,6.1-53.12,13.21c-0.22,0.1-0.46,0.19-0.68,0.29
								c-6.11,2.6-12.16,5.38-18.13,8.32c-14.39,7.1-28.29,15.25-41.3,24.6c-1.36,0.97-2.73,1.97-4.13,2.98
								c-16.95,12.16-36.22,26.17-47.71,43.23C556.52,383.03,560.3,385.36,561.89,382.99z"/>
						</g>
					</g>
				</g>
			</g>
		</g>
	</g>
</g>
<g id="OBJECTS">
	<g>
		<ellipse class="st4" cx="362.82" cy="436.97" rx="71.47" ry="9.27"/>
		<path class="st4" d="M504.46,435.42c0,3.41-11.67,6.18-26.06,6.18c-14.39,0-26.06-2.76-26.06-6.18c0-3.41,13.85-6.18,26.06-6.18
			C492.8,429.24,504.46,432.01,504.46,435.42z"/>
		
			<ellipse transform="matrix(0.2125 -0.9772 0.9772 0.2125 -8.5194 825.3178)" class="st4" cx="507.76" cy="417.94" rx="15.37" ry="85.75"/>
		
			<ellipse transform="matrix(0.9772 -0.2125 0.2125 0.9772 -83.1476 62.1138)" class="st4" cx="247.44" cy="417.94" rx="85.75" ry="15.37"/>
		<path class="st4" d="M271.8,437.44c0,3.41-15.3,6.18-34.17,6.18c-18.87,0-34.17-2.76-34.17-6.18c0-3.41,15.3-6.18,34.17-6.18
			C256.5,431.27,271.8,434.03,271.8,437.44z"/>
	</g>
	<g>
		<g>
			<g>
				<path class="st5" d="M154.22,431.22c0.05,0.45,0.12,0.88,0.21,1.31C154.34,432.11,154.27,431.67,154.22,431.22z"/>
				<path class="st5" d="M154.47,432.68c0.09,0.39,0.19,0.76,0.31,1.12C154.66,433.44,154.56,433.07,154.47,432.68z"/>
				<path class="st5" d="M156.08,436.53c0.22,0.33,0.45,0.65,0.7,0.95C156.53,437.17,156.29,436.86,156.08,436.53z"/>
				<path class="st5" d="M154.12,429.5c0,0.48,0.03,0.95,0.07,1.41C154.15,430.44,154.12,429.98,154.12,429.5z"/>
				<path class="st5" d="M155.44,435.4c0.16,0.32,0.33,0.63,0.52,0.93C155.77,436.03,155.6,435.72,155.44,435.4z"/>
				<path class="st5" d="M154.87,434.07c0.14,0.39,0.29,0.77,0.47,1.13C155.16,434.84,155.01,434.46,154.87,434.07z"/>
				<path class="st5" d="M317.2,78.68c-0.48,0.08-0.97,0.18-1.46,0.3C316.23,78.86,316.72,78.76,317.2,78.68z"/>
				<path class="st5" d="M321.75,78.6c-0.34-0.05-0.69-0.08-1.05-0.11C321.06,78.52,321.41,78.55,321.75,78.6z"/>
				<path class="st5" d="M320.4,78.47c-0.44-0.02-0.9-0.02-1.36,0.01C319.51,78.45,319.96,78.45,320.4,78.47z"/>
				<path class="st5" d="M323.35,78.92c-0.4-0.11-0.82-0.2-1.24-0.27C322.53,78.73,322.95,78.81,323.35,78.92z"/>
				<path class="st5" d="M317.6,78.62c0.38-0.05,0.77-0.1,1.14-0.12C318.37,78.53,317.99,78.57,317.6,78.62z"/>
				<path class="st5" d="M156.94,437.67c0.23,0.27,0.47,0.53,0.73,0.77C157.41,438.19,157.17,437.93,156.94,437.67z"/>
				<polygon class="st5" points="165.09,129.76 165.09,129.76 165.09,129.76 164.5,415.41 164.5,415.41 				"/>
				<path class="st5" d="M158.91,439.45c0.31,0.22,0.63,0.43,0.97,0.62C159.54,439.88,159.22,439.67,158.91,439.45z"/>
				<path class="st5" d="M158.69,439.29c-0.31-0.23-0.62-0.48-0.9-0.74C158.07,438.81,158.37,439.06,158.69,439.29z"/>
				<path class="st5" d="M159.92,440.1c0.35,0.19,0.71,0.36,1.09,0.52C160.64,440.46,160.27,440.29,159.92,440.1z"/>
				
					<rect x="164.5" y="415.41" transform="matrix(0.7071 -0.7071 0.7071 0.7071 -247.3198 238.7173)" class="st6" width="0" height="4.97"/>
				<path class="st7" d="M159.92,440.1c-0.01-0.01-0.03-0.02-0.04-0.03c-0.34-0.19-0.66-0.4-0.97-0.62
					c-0.07-0.05-0.15-0.1-0.22-0.16c-0.31-0.23-0.62-0.48-0.9-0.74c-0.04-0.04-0.08-0.08-0.12-0.12c-0.26-0.24-0.5-0.5-0.73-0.77
					c-0.06-0.06-0.11-0.13-0.17-0.19c-0.25-0.3-0.48-0.62-0.7-0.95c-0.04-0.06-0.08-0.13-0.12-0.2c-0.19-0.3-0.36-0.61-0.52-0.93
					c-0.03-0.07-0.07-0.13-0.1-0.2c-0.17-0.36-0.33-0.74-0.47-1.13c-0.03-0.09-0.06-0.18-0.09-0.26c-0.12-0.36-0.23-0.74-0.31-1.12
					c-0.01-0.05-0.03-0.1-0.04-0.15c-0.09-0.42-0.16-0.86-0.21-1.31c-0.01-0.11-0.02-0.21-0.03-0.32c-0.04-0.46-0.07-0.93-0.07-1.41
					l0.6-293.72c0.02-8.65,7.2-17.49,16.03-19.75l144.99-37.05c0.49-0.13,0.98-0.22,1.46-0.3c0.13-0.02,0.27-0.04,0.4-0.06
					c0.38-0.05,0.77-0.1,1.14-0.12c0.1-0.01,0.2-0.02,0.3-0.02c0.46-0.02,0.91-0.02,1.36-0.01c0.1,0,0.2,0.01,0.3,0.02
					c0.35,0.02,0.7,0.06,1.05,0.11c0.12,0.02,0.24,0.03,0.35,0.05c0.42,0.07,0.84,0.16,1.24,0.27c0.02,0.01,0.04,0.01,0.06,0.02
					c0.3,0.08,0.59,0.17,0.87,0.28l-8-2.92c-2.47-0.9-5.4-1.04-8.54-0.24l-144.99,37.05c-8.83,2.26-16.01,11.1-16.03,19.75
					l-0.6,293.72c-0.01,5.57,2.95,9.7,7.42,11.33l8,2.92c-0.09-0.03-0.17-0.07-0.26-0.11c-0.09-0.03-0.18-0.07-0.26-0.11
					C160.64,440.46,160.27,440.29,159.92,440.1z"/>
				<polygon class="st8" points="321.35,89.83 321.35,92.36 321.16,180.76 321.07,229.59 320.89,317.99 320.76,380.45 
					204.46,410.17 164.5,420.38 164.51,415.41 164.64,352.04 164.74,304.61 164.91,214.81 165.08,129.76 				"/>
				<g>
					<polygon class="st9" points="321.35,92.36 321.16,180.76 164.74,304.61 164.91,214.81 					"/>
					<polygon class="st9" points="321.07,229.59 320.89,317.99 204.46,410.17 164.5,420.38 164.51,415.41 164.64,352.04 					"/>
				</g>
				<path class="st10" d="M323.41,78.94c-0.02-0.01-0.04-0.01-0.06-0.02c-0.4-0.11-0.82-0.2-1.24-0.27
					c-0.12-0.02-0.24-0.04-0.35-0.05c-0.34-0.05-0.69-0.08-1.05-0.11c-0.1-0.01-0.2-0.02-0.3-0.02c-0.44-0.02-0.9-0.02-1.36,0.01
					c-0.1,0-0.2,0.02-0.3,0.02c-0.38,0.03-0.76,0.07-1.14,0.12c-0.13,0.02-0.27,0.04-0.4,0.06c-0.48,0.08-0.97,0.18-1.46,0.3
					l-144.99,37.05c-8.83,2.26-16.01,11.1-16.03,19.75l-0.6,293.72c0,0.48,0.03,0.95,0.07,1.41c0.01,0.11,0.02,0.21,0.03,0.32
					c0.05,0.45,0.12,0.88,0.21,1.31c0.01,0.05,0.03,0.1,0.04,0.15c0.09,0.39,0.19,0.76,0.31,1.12c0.03,0.09,0.06,0.18,0.09,0.26
					c0.14,0.39,0.29,0.77,0.47,1.13c0.03,0.07,0.07,0.13,0.1,0.2c0.16,0.32,0.33,0.63,0.52,0.93c0.04,0.07,0.08,0.13,0.12,0.2
					c0.22,0.33,0.45,0.65,0.7,0.95c0.05,0.07,0.11,0.13,0.17,0.19c0.23,0.27,0.47,0.53,0.73,0.77c0.04,0.04,0.08,0.08,0.12,0.12
					c0.29,0.26,0.59,0.51,0.9,0.74c0.07,0.05,0.15,0.11,0.22,0.16c0.31,0.22,0.64,0.43,0.97,0.62c0.01,0.01,0.03,0.02,0.04,0.03
					c0.35,0.19,0.72,0.36,1.09,0.52c0.09,0.04,0.18,0.07,0.26,0.11c2.52,0.99,5.55,1.18,8.8,0.35l144.99-37.05
					c8.83-2.26,16.01-11.1,16.03-19.75l0.6-293.72C331.72,84.63,328.36,80.34,323.41,78.94z M164.5,415.41l0.59-285.65l0,0
					l156.26-39.93l-0.6,290.62l-156.26,39.93l0,0L164.5,415.41z"/>
			</g>
			<g>
				<path class="st7" d="M270.85,400.58c1.73-0.44,3.14,0.57,3.13,2.27c0,1.7-1.41,3.43-3.15,3.87l-56.48,14.43
					c-1.73,0.44-3.14-0.57-3.13-2.26c0-1.7,1.41-3.43,3.15-3.88L270.85,400.58z"/>
			</g>
		</g>
		<g>
			<g>
				<path class="st5" d="M593.13,430.56c-0.05,0.45-0.12,0.88-0.21,1.31C593.01,431.44,593.08,431.01,593.13,430.56z"/>
				<path class="st5" d="M592.88,432.02c-0.09,0.39-0.19,0.76-0.31,1.12C592.69,432.78,592.8,432.4,592.88,432.02z"/>
				<path class="st5" d="M591.27,435.87c-0.22,0.33-0.45,0.65-0.7,0.95C590.82,436.51,591.06,436.2,591.27,435.87z"/>
				<path class="st5" d="M593.23,428.83c0,0.48-0.03,0.95-0.07,1.41C593.21,429.78,593.24,429.31,593.23,428.83z"/>
				<path class="st5" d="M591.92,434.74c-0.16,0.32-0.33,0.63-0.52,0.93C591.58,435.37,591.75,435.06,591.92,434.74z"/>
				<path class="st5" d="M592.48,433.41c-0.14,0.39-0.29,0.77-0.47,1.13C592.19,434.18,592.34,433.8,592.48,433.41z"/>
				<path class="st5" d="M430.15,78.02c0.48,0.08,0.97,0.18,1.46,0.3C431.12,78.19,430.63,78.1,430.15,78.02z"/>
				<path class="st5" d="M425.6,77.94c0.34-0.05,0.69-0.08,1.05-0.11C426.29,77.85,425.94,77.89,425.6,77.94z"/>
				<path class="st5" d="M426.95,77.81c0.44-0.02,0.9-0.02,1.36,0.01C427.84,77.79,427.39,77.79,426.95,77.81z"/>
				<path class="st5" d="M424,78.26c0.4-0.11,0.82-0.2,1.24-0.27C424.82,78.06,424.4,78.15,424,78.26z"/>
				<path class="st5" d="M429.75,77.96c-0.38-0.05-0.77-0.09-1.14-0.12C428.98,77.86,429.36,77.9,429.75,77.96z"/>
				<path class="st5" d="M590.41,437c-0.23,0.27-0.47,0.53-0.73,0.77C589.94,437.53,590.18,437.27,590.41,437z"/>
				<polygon class="st5" points="582.26,129.1 582.26,129.1 582.27,129.1 582.85,414.75 582.85,414.75 				"/>
				<path class="st5" d="M588.44,438.79c-0.31,0.22-0.64,0.43-0.97,0.62C587.81,439.22,588.13,439.01,588.44,438.79z"/>
				<path class="st5" d="M588.67,438.63c0.31-0.23,0.62-0.48,0.9-0.74C589.28,438.15,588.98,438.4,588.67,438.63z"/>
				<path class="st5" d="M587.43,439.43c-0.35,0.19-0.71,0.36-1.09,0.52C586.71,439.8,587.08,439.63,587.43,439.43z"/>
				
					<rect x="580.37" y="417.24" transform="matrix(0.7071 -0.7071 0.7071 0.7071 -124.3176 534.3469)" class="st6" width="4.97" height="0"/>
				<path class="st11" d="M587.43,439.43c0.01-0.01,0.03-0.02,0.04-0.03c0.34-0.19,0.66-0.4,0.97-0.62c0.07-0.05,0.15-0.1,0.22-0.16
					c0.31-0.23,0.62-0.48,0.9-0.74c0.04-0.04,0.08-0.08,0.12-0.12c0.25-0.24,0.5-0.5,0.73-0.77c0.06-0.06,0.11-0.13,0.17-0.19
					c0.25-0.3,0.48-0.62,0.7-0.95c0.04-0.06,0.08-0.13,0.12-0.2c0.19-0.3,0.36-0.61,0.52-0.93c0.03-0.07,0.07-0.13,0.1-0.2
					c0.17-0.36,0.33-0.74,0.47-1.13c0.03-0.09,0.06-0.18,0.09-0.26c0.12-0.36,0.23-0.74,0.31-1.12c0.01-0.05,0.03-0.1,0.04-0.15
					c0.09-0.42,0.16-0.86,0.21-1.31c0.01-0.11,0.02-0.21,0.03-0.32c0.04-0.46,0.07-0.93,0.07-1.41l-0.6-293.72
					c-0.02-8.65-7.2-17.49-16.03-19.75L431.61,78.32c-0.49-0.13-0.98-0.22-1.46-0.3c-0.13-0.02-0.27-0.04-0.4-0.06
					c-0.38-0.05-0.77-0.09-1.14-0.12c-0.1-0.01-0.2-0.02-0.3-0.02c-0.46-0.02-0.91-0.02-1.36-0.01c-0.1,0-0.2,0.01-0.3,0.02
					c-0.35,0.02-0.7,0.06-1.05,0.11c-0.12,0.02-0.24,0.03-0.35,0.05c-0.42,0.07-0.84,0.16-1.24,0.27c-0.02,0.01-0.04,0.01-0.06,0.02
					c-0.3,0.08-0.59,0.17-0.87,0.28l8-2.92c2.47-0.9,5.4-1.04,8.54-0.24l144.99,37.05c8.83,2.26,16.01,11.1,16.03,19.75l0.6,293.72
					c0.01,5.57-2.95,9.7-7.42,11.33l-8,2.92c0.09-0.03,0.17-0.07,0.26-0.11c0.09-0.03,0.18-0.07,0.26-0.11
					C586.71,439.8,587.08,439.63,587.43,439.43z"/>
				<polygon class="st8" points="582.86,417.99 582.86,419.72 426.59,379.79 426.49,330.57 426.34,256.91 426.21,190.75 
					426.06,117.1 426,89.17 582.27,129.1 582.41,198.02 582.57,278.18 582.69,337.83 582.85,414.75 				"/>
				<g>
					<polygon class="st9" points="582.57,250.38 426.21,162.95 426.06,89.3 582.41,170.22 					"/>
					<polygon class="st9" points="582.86,386.88 426.49,299.46 426.34,225.8 582.69,306.72 582.85,383.64 					"/>
				</g>
				<path class="st12" d="M415.65,89.89l0.6,293.72c0.02,8.65,7.2,17.49,16.03,19.75l144.99,37.05c3.26,0.83,6.28,0.65,8.8-0.35
					c0.09-0.03,0.18-0.07,0.26-0.11c0.37-0.16,0.74-0.33,1.09-0.52c0.01-0.01,0.03-0.02,0.04-0.03c0.34-0.19,0.66-0.4,0.97-0.62
					c0.07-0.05,0.15-0.1,0.22-0.16c0.31-0.23,0.62-0.48,0.9-0.74c0.04-0.04,0.08-0.08,0.12-0.12c0.25-0.24,0.5-0.5,0.73-0.77
					c0.06-0.06,0.11-0.13,0.17-0.19c0.25-0.3,0.48-0.62,0.7-0.95c0.04-0.06,0.08-0.13,0.12-0.2c0.19-0.3,0.36-0.61,0.52-0.93
					c0.03-0.07,0.07-0.13,0.1-0.2c0.17-0.36,0.33-0.74,0.47-1.13c0.03-0.09,0.06-0.18,0.09-0.26c0.12-0.36,0.23-0.74,0.31-1.12
					c0.01-0.05,0.03-0.1,0.04-0.15c0.09-0.42,0.16-0.86,0.21-1.31c0.01-0.11,0.02-0.21,0.03-0.32c0.04-0.46,0.07-0.93,0.07-1.41
					l-0.6-293.72c-0.02-8.65-7.2-17.49-16.03-19.75L431.61,78.32c-0.49-0.13-0.98-0.22-1.46-0.3c-0.13-0.02-0.27-0.04-0.4-0.06
					c-0.38-0.05-0.77-0.09-1.14-0.12c-0.1-0.01-0.2-0.02-0.3-0.02c-0.46-0.02-0.91-0.02-1.36-0.01c-0.1,0-0.2,0.01-0.3,0.02
					c-0.35,0.02-0.7,0.06-1.05,0.11c-0.12,0.02-0.24,0.03-0.35,0.05c-0.42,0.07-0.84,0.16-1.24,0.27c-0.02,0.01-0.04,0.01-0.06,0.02
					C418.99,79.67,415.64,83.97,415.65,89.89z M582.86,419.72L582.86,419.72L426.6,379.79L426,89.17l156.26,39.93h0l0.58,285.65
					L582.86,419.72z"/>
			</g>
			<g>
				<path class="st13" d="M476.5,399.91c-1.73-0.44-3.14,0.57-3.13,2.27c0,1.7,1.41,3.43,3.15,3.87L533,420.49
					c1.73,0.44,3.14-0.57,3.13-2.26c0-1.7-1.41-3.43-3.15-3.88L476.5,399.91z"/>
			</g>
		</g>
	</g>
	<g>
		<g>
			<g>
				<g>
					<path class="st14" d="M424.11,307.2l-3.43-1.16l2.16,1.8c1.2,1.01,2.33,2.12,3.39,3.29l1.63,1.84
						c0.39,0.63-0.36,1.42-1.09,0.96l-4.86-4.31l2.78,2.88l2.79,3.2c0.55,0.79-0.49,1.46-0.99,0.96l-2.55-2.61l-3.38-2.97l1.91,2.78
						c0.42,0.61,0.76,1.27,1,1.96l0.79,2.38c-0.08,1.18-0.71,1.05-1.44,0.59l-0.79-2.05c-0.31-0.78-0.73-1.5-1.28-2.11l-2.19-2.48
						l1.95,5.9c0.12,0.9-1.3,1.11-1.46,0.24c-0.62-2.4-2.48-5.66-2.48-5.66c-2.56-0.9-4.82-2.52-6.48-4.65l-2.27-2.91l-1.06-0.85
						l4.28-4.82c0.8,0.99,1.58,2.01,2.33,3.07l1.3,0.05c1.98,0.07,3.92,0.55,5.7,1.4l4.18,1.99
						C425.27,306.34,425.12,307.32,424.11,307.2z"/>
				</g>
				<g>
					<path class="st14" d="M281.4,301.17l3.55-0.72l-2.37,1.51c-1.32,0.85-2.58,1.81-3.77,2.84l-1.85,1.62
						c-0.46,0.57,0.18,1.45,0.96,1.09l5.37-3.66l-3.12,2.5l-3.18,2.82c-0.65,0.71,0.3,1.51,0.86,1.08l2.85-2.26l3.72-2.52
						l-2.25,2.51c-0.49,0.55-0.91,1.16-1.23,1.82l-1.08,2.26c-0.07,1.19,0.57,1.13,1.35,0.77l1.05-1.94c0.4-0.74,0.91-1.4,1.54-1.93
						l2.49-2.19l-2.68,5.61c-0.23,0.87,1.15,1.27,1.42,0.43c0.92-2.31,3.17-5.3,3.17-5.3c2.66-0.57,5.1-1.89,7.01-3.79l2.62-2.61
						l1.15-0.71l-3.64-5.32c-0.91,0.88-1.82,1.8-2.7,2.75l-1.3-0.11c-1.97-0.18-3.96,0.05-5.83,0.67l-4.4,1.45
						C280.35,300.17,280.38,301.16,281.4,301.17z"/>
				</g>
				<g>
					<path class="st15" d="M367.87,235.4l19.87,38.61l25.63,27.04l-4.99,4.83l-29.34-22.33c-3.67-3.18-6.68-7.03-8.88-11.36
						l-15.32-30.14c-1.45-2.85-0.88-6.3,1.4-8.54l0,0C359.77,230.07,365.62,231.02,367.87,235.4z"/>
					<g>
						<path class="st14" d="M361.81,222.98l-1.21,4.3l-0.46,1.64c-0.66,2.38-3.76,5.3-7.99,1.04c-0.8-0.8-0.72-2.19-0.38-3.38
							l2.73-9.76l0.23,0.19L361.81,222.98z"/>
					</g>
					<path class="st16" d="M361.81,222.98l-1.21,4.3c-3.4-1-5.94-4.67-5.94-9.06c0-0.41,0.02-0.81,0.07-1.21L361.81,222.98z"/>
					<path class="st7" d="M404.14,428.88l-9.94-44.94l-17.11-60.66l-6.59-32.35h-27.54l-14.37,76.17l-25.79,59.03l4.9,3.31
						l25.05-38.44c3.17-4.87,5.22-7.79,7.64-13.27c0,0,0.01,0,0.01,0l0.08-0.22c1.09-2.49,18.85-40.69,18.85-40.69
						s25.4,54.3,28.49,63.18l10.46,30.03L404.14,428.88z"/>
					<path class="st17" d="M317.38,436.31l-5.96-1.59l-3.15-6.31l-0.92-0.43c-1.5-0.98-2.9-1.9-4.11-2.71l-0.05,0.18
						c-5.84,3.48-3.63,6.99,3.67,13.14c1.16,0.97,7.12,1.62,10.47,0.98c0.02,0,0.04-0.01,0.06-0.01
						C319.08,439.2,319.04,436.75,317.38,436.31z"/>
					<path class="st17" d="M397.95,429.64c-1.01,8.76,6.01,7.27,21.61,3.29c2.16-0.58,3.1-3.24-0.88-3.45l-15.08-1.78
						C401.55,428.34,397.95,429.64,397.95,429.64z"/>
					<path id="XMLID_2_" class="st15" d="M379.15,322.96c0,0-1.6,0.27-4.29,0.64c-9.05,1.2-24.83,2.94-37.84-1.08l0,0
						c3.45-22.42,4.32-45.16,2.86-67.8c-0.25-3.92-0.32-7.15-0.05-8.74c1.1-6.41,6.16-13.73,7.88-15.22
						c0.84-0.72,1.78-1.79,2.53-2.72c0.8-0.98,1.37-1.78,1.37-1.78s7.32,1.03,11.72,6.09c0.9,1.03,3.34,4.24,4.4,5.98
						c1.07,1.78,2.19,3.81,3.23,5.82c3.61,6.92,5.06,14.76,4.19,22.52l-0.15,1.36c-0.18,1.6-1.32,16.8-1.32,16.8L379.15,322.96z"/>
					<g>
						<g>
							<path class="st14" d="M348.03,217.37c-1-1.87-1.19-4.67,0.4-5.29c0.47-0.19,1.08-0.16,1.71,0
								c-0.34-6.05,2.04-13.6,6.01-15.16c5.19-2.04,10.54-0.71,15.22,13.16c1.85,5.49-0.23,12.46-5.2,14.94
								c-3.73,1.86-9.5-1.11-12.91-5.04C351.38,219.98,349.29,219.74,348.03,217.37z"/>
						</g>
					</g>
					<path class="st15" d="M343.24,236.62l-23.67,36.41l-28.23,24.32l4.47,5.31l31.45-19.25c3.97-2.79,7.36-6.32,9.98-10.4
						l18.28-28.44c1.73-2.69,1.51-6.18-0.53-8.64l0,0C351.84,232.14,345.92,232.49,343.24,236.62z"/>
					<path class="st17" d="M368.31,240.96c-0.1-0.24-0.45-0.03-0.35,0.2c5.51,12.64,5.58,26.47,5.48,40.02c0,0.26,0.4,0.26,0.4,0
						C373.95,267.53,373.86,253.68,368.31,240.96z"/>
					<path class="st17" d="M356.81,234.6c-0.04-0.25-0.43-0.15-0.39,0.11c1.29,7.39-2.46,12.57-6.39,18.33
						c-3.46,5.07-6.92,10.14-10.37,15.21c-0.15,0.21,0.2,0.42,0.35,0.2c4.33-6.35,8.72-12.67,13-19.06
						C356.16,244.7,357.81,240.29,356.81,234.6z"/>
					<path class="st17" d="M359.08,231.75c-2.82-0.4-5.4-1.43-7.71-3.09c-0.21-0.15-0.41,0.2-0.2,0.35
						c2.34,1.68,4.96,2.73,7.81,3.13C359.23,232.17,359.34,231.79,359.08,231.75z"/>
					<path class="st17" d="M362.25,231.94h-1.07c-0.26,0-0.26,0.4,0,0.4h1.07C362.51,232.34,362.51,231.94,362.25,231.94z"/>
					<path class="st17" d="M373,322.24c-5.71,0.42-11.43,0.64-17.16,0.59c-5.7-0.04-12.37,0.39-17.72-1.74
						c-0.24-0.1-0.35,0.29-0.11,0.39c5.02,2,10.95,1.65,16.27,1.74c6.25,0.1,12.49-0.12,18.72-0.58
						C373.26,322.62,373.26,322.22,373,322.24z"/>
					<path class="st17" d="M375.39,319.28c-7.13,2.01-14.36,2.65-21.73,1.92c-0.26-0.03-0.26,0.38,0,0.4
						c7.42,0.73,14.67,0.08,21.83-1.94C375.74,319.6,375.64,319.21,375.39,319.28z"/>
					<path class="st17" d="M348.9,325.35c-3.12,2.18-6.64,3.32-10.45,3.35c-0.26,0-0.26,0.4,0,0.4c1.87-0.02,3.67-0.3,5.4-0.83
						c-0.58,2.16-1.67,4.06-3.26,5.65c-0.18,0.18,0.1,0.47,0.28,0.28c1.7-1.69,2.87-3.76,3.44-6.09c1.68-0.57,3.29-1.37,4.8-2.43
						C349.32,325.55,349.12,325.2,348.9,325.35z"/>
					<path class="st17" d="M365.51,326.19c-1.03,3.01-1.71,10.18-6.06,9.65c-0.26-0.03-0.25,0.37,0,0.4
						c4.79,0.58,5.37-6.81,6.44-9.95C365.98,326.05,365.59,325.95,365.51,326.19z"/>
					<path class="st17" d="M334.01,376.12c-0.28,1.34-0.66,2.64-1.14,3.92c-0.09,0.24,0.3,0.35,0.39,0.11
						c0.49-1.28,0.87-2.58,1.14-3.92C334.45,375.97,334.06,375.86,334.01,376.12z"/>
					<path class="st17" d="M336.13,378.21c-0.56,0.82-1.13,1.63-1.69,2.45c-0.15,0.21,0.2,0.42,0.35,0.2
						c0.56-0.82,1.13-1.63,1.69-2.45C336.63,378.2,336.28,378,336.13,378.21z"/>
					<path class="st17" d="M390.78,386.21c-0.95-0.72-1.89-1.45-2.84-2.17c-0.21-0.16-0.41,0.19-0.2,0.35
						c0.95,0.72,1.89,1.45,2.84,2.17C390.78,386.71,390.98,386.36,390.78,386.21z"/>
					<path class="st17" d="M391.78,382.73c-0.18,1.21-0.25,2.41-0.22,3.63c0.01,0.26,0.41,0.26,0.4,0c-0.03-1.18,0.03-2.35,0.2-3.52
						C392.2,382.59,391.82,382.48,391.78,382.73z"/>
					<g>
						<path class="st17" d="M375.56,202.01c-1.45,0.04-2.41-0.39-3.24-1.64c-2.01-3.05-3.3-6.37-6.79-7.95
							c-3.31-1.5-6.93,0.77-9.59,2.7c-0.58,0.42-1.16,1.14-1.44,1.82c-0.27,0.64-0.1,1.25-0.71,1.47c-0.43,0.16-1.1,0-1.56,0.11
							c-0.75,0.17-1.47,0.54-2.14,0.92c-1.46,0.82-2.59,2.39-3.06,4.12l-0.01-0.22c-1.07,1.61-0.76,5.02-0.2,6.76
							c0.34,1.05,1.16,2.11,2.21,2.41c1.08,0.31,1.87,0.45,2.59,1.52c0.55,0.82,0.98,2.12,1.1,3.1c1.61-3.13,2.28-6.89,1.51-10.39
							c0.97,1,2.88,0.63,3.85-0.16c0.83-0.68,1.4-1.54,2.48-1.83c1.05-0.29,2.07-0.26,3.14-0.32c0.08-0.55-0.71-0.99-1.02-1.38
							c1.35-0.05,2.74-0.03,4.02,0.45c1.03,0.39,1.95,1.09,2.95,1.51c1.15,0.48,2.64,0.53,3.84,0.26c2.72-0.62,4.28-2.63,6.01-4.63
							C378.63,201.63,376.82,201.98,375.56,202.01z"/>
					</g>
				</g>
			</g>
		</g>
		<g>
			<g>
				<g>
					<path class="st18" d="M540.12,409.71l-11.65-2.92c-1.21-3.63-2.35-7.33-3.32-10.94c-1.95-7.26-3.21-14.03-2.8-18.62
						l-12.7-39.85v-0.01l-9.34-29.32c-3.16-7.71-7.57-4.01-5.57-13.81l20.56-5.81c0,0,4.87,20.05,8.86,36.43
						c4.99,20.46,10.75,43.87,11.44,45.6c0.76,1.96,1.35,9.66,2.26,19.44C538.43,396,539.14,402.88,540.12,409.71z"/>
				</g>
				<g>
					<path class="st18" d="M506.95,314.64c0.81,8.05,1.84,16.19,2.71,22.74v0.01c0.92,7,1.63,12.17,1.65,13.46
						c0.06,5.54-1.57,10.96-4.67,15.55l-22.71,33.56l-16.86,24.92l-4.83-3.96c0.12-0.12,0.19-0.19,0.19-0.19s5.84-18.49,10.11-27.49
						c7.87-16.55,17.09-34.2,22.35-38.48c0,0-5.06-28.1-8.13-35.22c-3.86-8.94-3.88-15.84-2.44-20.93
						c2.32-8.17,6.77-12.54,6.77-12.54l24.89,2.36C515.06,298.93,512.28,307.87,506.95,314.64z"/>
					<path class="st17" d="M474.68,437.55c0,0-7.2-0.77-9.27-1.25c-0.71-0.15-1.35-0.53-1.84-1.07c-3.83-4.27-5.85-7.6-5.22-10.16
						c0.07-0.27,3.09-3.37,3.88-4.16l4.83,3.96l-0.17,0.24l2.41,6.78l5.88,2.37C476.86,434.94,476.47,437.4,474.68,437.55z"/>
				</g>
				<g>
					<path class="st19" d="M418.91,306.72l3.48-1.01l-2.24,1.7c-1.24,0.95-2.43,2.01-3.53,3.14l-1.71,1.76
						c-0.41,0.61,0.3,1.43,1.05,1.01l5.05-4.08l-2.91,2.75l-2.94,3.07c-0.59,0.77,0.43,1.48,0.94,1l2.66-2.49l3.5-2.81l-2.04,2.69
						c-0.44,0.59-0.81,1.24-1.08,1.91l-0.9,2.34c0.03,1.19,0.66,1.08,1.41,0.66l0.89-2.01c0.34-0.77,0.8-1.47,1.37-2.05l2.3-2.38
						l-2.21,5.81c-0.16,0.89,1.25,1.17,1.45,0.31c0.72-2.37,2.73-5.54,2.73-5.54c2.6-0.79,4.93-2.3,6.68-4.35l2.4-2.81l1.09-0.8
						l-4.06-5.01c-0.84,0.95-1.66,1.94-2.46,2.96l-1.3-0.01c-1.98-0.02-3.94,0.38-5.75,1.14l-4.27,1.8
						C417.79,305.82,417.89,306.8,418.91,306.72z"/>
				</g>
				<path class="st19" d="M491.98,238.77L491.98,238.77c-1.56,2.72-1.11,6.15,1.1,8.38l23.23,23.39c2.51,2.52,6.71,2.03,8.56-1.01
					l14.52-23.84l-7.01-2.17l-11.33,13.81l-17.87-19.76C500.01,234.05,494.33,234.66,491.98,238.77z"/>
				<g>
					<path class="st20" d="M536.97,247.15c-0.01-0.09-0.02-0.19-0.04-0.28c-0.01-0.16-0.03-0.32-0.03-0.49
						c0.04-0.08,0.07-0.18,0.07-0.29c0.11-4.06-0.27-8.04-1.13-11.99c-0.12-1.19-0.32-2.35-0.76-3.21c-0.1-0.2-0.35-0.33-0.57-0.33
						c-0.5,0.01-0.81,0.12-1.37,0.26c-0.17,0.04-0.31,0.17-0.4,0.32c-0.14,0.07-0.24,0.2-0.27,0.4c-0.57,3.92-4.09,15.4,0.2,18.71
						c0.47,0.54,1.14,0.87,2.07,0.8C536.73,250.89,537.11,248.84,536.97,247.15z"/>
					<path class="st17" d="M534.77,235.24c0.03-0.26-0.38-0.26-0.4,0c-0.42,4.17-0.43,8.33-0.05,12.51c0.02,0.26,0.43,0.26,0.4,0
						C534.34,243.57,534.35,239.42,534.77,235.24z"/>
					<path class="st19" d="M536.77,245.88l2.22,0.33l2.87-4.69c0,0,1.91-3.1-1.92-5.61c-2.26-1.48-5.1-1.77-7.69-1l-2.05,0.61
						c0,0-1.5,2.09,4.82,1.5c0,0-4.89-0.2-5.02,1.76c0,0-0.78,2.15,6.52,0.2c0,0-5.99,0.46-6.45,2.8c0,0-0.07,2.09,6.97-0.39
						C536.85,241.39,536.86,242.23,536.77,245.88z"/>
					<g>
						<path class="st21" d="M534.62,223.18c0.45-0.04,27.77-13.65,27.77-13.65v33.41l-27.54-9.63
							C530.6,233.63,530.06,223.56,534.62,223.18z"/>
						<path class="st20" d="M567.07,226.08c0,9.31-1.91,16.86-4.27,16.86c-1.87,0-3.47-4.75-4.04-11.37
							c-0.16-1.72-0.23-3.57-0.23-5.49c0-2.48,0.13-4.84,0.38-6.97c0.67-5.83,2.16-9.88,3.89-9.88
							C565.16,209.23,567.07,216.78,567.07,226.08z"/>
						<path class="st21" d="M563.49,225.33c0,3.16-2.05,5.78-4.73,6.24c-0.16-1.72-0.23-3.57-0.23-5.49c0-2.48,0.13-4.84,0.38-6.97
							C561.51,219.64,563.49,222.22,563.49,225.33z"/>
						<path class="st20" d="M535.25,233.61h-2.78c-2.95,0-5.34-2.39-5.34-5.34l0,0c0-2.95,2.39-5.34,5.34-5.34h2.78
							C531.96,226.68,532.24,230.23,535.25,233.61z"/>
						<g>
							<path class="st17" d="M556.56,213.5c-6.73,3.22-13.43,6.49-20.11,9.8c-0.23,0.12-0.03,0.46,0.2,0.35
								c6.68-3.31,13.38-6.58,20.11-9.8C557,213.74,556.8,213.39,556.56,213.5z"/>
							<path class="st17" d="M561.13,240.56c-3.71-8.95-2.86-19.23-0.63-28.41c0.06-0.25-0.33-0.36-0.39-0.11
								c-2.26,9.28-3.12,19.59,0.63,28.63C560.84,240.91,561.23,240.8,561.13,240.56z"/>
							<path class="st17" d="M563.12,211.75c-0.11-0.23-0.46-0.03-0.35,0.2c0.9,1.85,1.37,3.79,1.42,5.85c0.01,0.26,0.41,0.26,0.4,0
								C564.54,215.68,564.05,213.66,563.12,211.75z"/>
							<path class="st17" d="M564.87,214.38c-0.06-0.25-0.45-0.14-0.39,0.11c0.64,2.47,0.94,4.97,0.89,7.52c0,0.26,0.4,0.26,0.4,0
								C565.82,219.42,565.52,216.89,564.87,214.38z"/>
							<path class="st17" d="M560.77,221.82c-0.19-0.17-0.48,0.11-0.28,0.28c1.41,1.29,1.39,4.56,0.48,6.08
								c-0.13,0.22,0.21,0.42,0.35,0.2C562.34,226.68,562.32,223.25,560.77,221.82z"/>
							<path class="st17" d="M535.5,233.62c-3.02-2.27-3.53-6.22-1.3-9.24c0.15-0.21-0.2-0.41-0.35-0.2
								c-2.37,3.22-1.74,7.4,1.45,9.79C535.5,234.12,535.7,233.77,535.5,233.62z"/>
						</g>
					</g>
					<path class="st17" d="M537.59,235.91c-1.73,0.1-3.39,0.54-5.05,1.01c-0.25,0.07-0.14,0.46,0.11,0.39c1.63-0.46,3.25-0.9,4.94-1
						C537.85,236.3,537.85,235.89,537.59,235.91z"/>
					<path class="st17" d="M537.28,238.18c-1.64,0.34-3.25,0.79-4.83,1.34c-0.24,0.08-0.14,0.47,0.11,0.39
						c1.58-0.55,3.19-1,4.83-1.34C537.64,238.52,537.53,238.13,537.28,238.18z"/>
					<path class="st17" d="M540.25,239.46c-1.07,0.65-2.18,1.23-3.33,1.73c-0.02,0.01-0.01,0.02-0.03,0.03
						c-0.12-0.04-0.27,0.01-0.25,0.17c0.05,0.47,0.1,0.95,0.15,1.42c0,0.4,0.01,0.79,0.01,1.19c0,0.22,0.35,0.28,0.4,0.05
						c0.02-0.11,0.05-0.22,0.07-0.33c0,0,0.01,0,0.01-0.01c0.29-0.76,0.54-1.53,0.73-2.32c0.02-0.1-0.03-0.18-0.1-0.22
						c0.87-0.41,1.73-0.85,2.55-1.36C540.67,239.68,540.47,239.33,540.25,239.46z"/>
				</g>
				<path class="st19" d="M498.92,234.89c0.03,0,0.04,0,0.04,0c-0.03-0.01-0.06-0.01-0.08-0.01c0,0,0,0,0.01,0.01
					C498.89,234.89,498.91,234.87,498.92,234.89z"/>
				<path class="st22" d="M515.99,288.44l-0.01-0.04l-24.9-2.37c0.3-1.02,0.48-2.09,0.47-3.16c-0.04-3.79-2.16-7.57-4.15-10.68
					c-0.63-0.99-1.28-1.91-1.96-2.86c-0.88-1.22-1.78-2.39-2.7-3.58c-0.79-0.96-1.55-1.95-2.33-2.92c-2.28-2.92-3.13-6.5-4.32-9.95
					c-1.77-5.34-0.74-11.1,3.74-14.58c0.46-0.35,0.97-0.63,1.53-0.87c0.65-0.31,1.35-0.5,2.03-0.69c0.52-0.15,1.06-0.29,1.53-0.42
					c3.05-0.79,6.21-1.11,9.34-1.47c0.34-0.04,0.7-0.09,1.03-0.11c1.42-0.2,2.63-0.26,3.99,0.75c3.06,2.31,6.15,4.66,9.18,7.08
					c3.53,2.83,5.63,5.58,6.79,8.07c0.06,0.14,0.12,0.27,0.18,0.4c0.07,1.75-0.32,3.43-1.08,4.93c0.06,0.02,0.12,0.07,0.11,0.16
					c-0.18,3.56,0.2,7.09,0.55,10.61c0.12,3.1,0.25,6.21,0.39,9.33C515.55,280.19,515.75,284.31,515.99,288.44z"/>
				<path class="st19" d="M477.32,240.95l-17.76,27.85c-1.68,2.64-3.6,5.12-5.72,7.41l-24.19,26.06c0.32,0.64,5.77,3.29,5.77,3.29
					l26.17-22.14c3.12-2.64,5.92-5.64,8.34-8.93l18-24.22c2.42-3.3,2.33-9.44-1.18-11.54l0,0
					C483.51,236.79,479.34,237.78,477.32,240.95z"/>
				<path class="st19" d="M494.47,221.38c0.57-0.2,1.15,0.24,1.12,0.84l-0.62,11.57l-0.06,1.27l-0.04,0.83
					c-0.04,0.77-0.65,1.4-1.43,1.45l-4.4,0.29c-1.36,0.09-2.5-0.99-2.49-2.35l0.06-6.16l0.02-1.42l0.03-3
					c0-0.36,0.23-0.67,0.57-0.79L494.47,221.38z"/>
				<path class="st19" d="M495.66,220.96l-0.68,12.82l-0.06,1.27c-3.79-0.52-6.94-3.42-8.28-7.36l0.04-3.59L495.66,220.96z"/>
				<path class="st19" d="M500.65,207.17c0.41,1.59,0.8,3.41,0.85,4.86c0.03,0.75,0.32,1.46,0.87,1.96l2.72,2.44
					c0.29,0.26,0.36,0.69,0.16,1.02c-0.3,0.49-0.81,1.14-1.5,1.37c0,0-0.03,4.13-2.03,7.43c-0.63,1.04-1.66,1.78-2.82,2.12
					c-12.49,3.64-18.69-1.62-20.52-14.21c-0.4-2.76,0.28-5.56,1.87-7.85c2.51-3.61,7.68-9.17,14.35-6.35
					C497.65,201.24,499.82,203.98,500.65,207.17z"/>
				<path class="st17" d="M514.57,287.86c-4.21-0.31-8.42-0.62-12.63-0.94c-3.49-0.26-6.92-1-10.41-1.12c-0.26-0.01-0.26,0.39,0,0.4
					c3.47,0.11,6.94,0.86,10.41,1.12c4.21,0.32,8.42,0.62,12.63,0.94C514.83,288.28,514.83,287.88,514.57,287.86z"/>
				<g>
					<g>
						<path class="st10" d="M485.83,208.41c-0.44-1.04-1.01-2.02-1.72-2.91c-2.66-3.32-7.65-5.37-11.87-4.35
							c-4.06,0.98-8,3.68-9.56,7.64c-1.56,3.96-0.62,8.88,2.53,11.74c1.79,1.63,4.21,2.64,5.45,4.71c1.4,2.33,0.84,5.44-0.66,7.71
							c-1.5,2.27-3.79,3.88-6.04,5.4c7.11-1.27,13.52-5.54,17.94-11.24c2.39-3.09,4.27-6.67,4.86-10.53
							C487.18,213.85,486.9,210.95,485.83,208.41z"/>
					</g>
					<g>
						<path class="st10" d="M499.79,199.79c-2.33-4.34-8.62-5.33-13.04-4.49c-7.8,1.48-14.24,8.41-14.65,16.43
							c-0.23,4.48,1.44,8.93,4.11,12.55c2.13,2.89,4.87,5.27,7.83,7.27c2.72,1.84,5.23,3.37,6.27,6.7c0.85,2.74,0.88,5.97-0.51,8.55
							c0.78-1.45,2.22-2.42,3.2-3.73c2.4-3.18,3.57-7.38,3.23-11.34c-0.17-2.05-0.74-3.88-1.87-5.6c-1.22-1.85-2.62-3.63-3.38-5.74
							c-1.56-4.31-0.36-9.8,2.05-13.58c0.71-1.11,1.71-2.5,3-2.95c1.56-0.54,3.05,0.42,4.04,1.55
							C501.11,203.89,500.75,201.58,499.79,199.79z"/>
					</g>
				</g>
			</g>
			<path class="st17" d="M503.05,290.44c-3.21,5.39-9.26,6.78-15.09,7.39c-0.37,0.04-0.38,0.63,0,0.59c1.67-0.17,3.36-0.42,5-0.8
				c-0.78,2.54-1.98,4.87-3.59,6.99c-0.23,0.3,0.28,0.59,0.51,0.3c1.66-2.19,2.89-4.62,3.69-7.25c0.02-0.07,0-0.12-0.02-0.17
				c4.04-1.02,7.73-2.91,10.01-6.75C503.75,290.41,503.24,290.12,503.05,290.44z"/>
			<path class="st17" d="M513.3,303.72c0.11-0.36-0.45-0.52-0.57-0.16c-1.26,3.98-3.24,7.55-5.94,10.74
				c-0.03,0.04-0.03,0.08-0.04,0.12c-0.06,0.06-0.1,0.14-0.08,0.25c0.94,6.51,1.6,13.03,2,19.59c0.02,0.38,0.61,0.38,0.59,0
				c-0.4-6.56-1.07-13.1-2-19.61C509.99,311.42,512.01,307.77,513.3,303.72z"/>
			<path class="st17" d="M467.53,423.16c-1.25-1.1-2.45-2.24-3.61-3.44c-0.26-0.27-0.68,0.14-0.41,0.41
				c1.15,1.2,2.36,2.34,3.61,3.44C467.4,423.82,467.81,423.41,467.53,423.16z"/>
			<path class="st17" d="M502.7,363.02c-0.09-0.37-0.65-0.21-0.57,0.16c0.21,0.88,0.31,1.77,0.31,2.68c0,0.38,0.59,0.38,0.59,0
				C503.03,364.89,502.92,363.95,502.7,363.02z"/>
			<path class="st17" d="M505.13,365.02c-0.46,0.33-0.91,0.65-1.37,0.98c-0.3,0.22-0.01,0.73,0.3,0.51
				c0.46-0.33,0.91-0.65,1.37-0.98C505.73,365.31,505.44,364.8,505.13,365.02z"/>
			<path class="st17" d="M532.73,375.08c-0.22-0.31-0.73-0.01-0.51,0.3c0.5,0.71,0.86,1.46,1.07,2.3c0.09,0.37,0.66,0.21,0.57-0.16
				C533.63,376.63,533.26,375.82,532.73,375.08z"/>
			<path class="st17" d="M534.73,374.85c-0.08,0.59-0.15,1.17-0.23,1.76c-0.05,0.37,0.54,0.37,0.59,0c0.08-0.59,0.15-1.17,0.23-1.76
				C535.37,374.48,534.78,374.48,534.73,374.85z"/>
		</g>
		<g>
			<path class="st19" d="M246.23,302.49L246.23,302.49c-0.04-1.13-0.1-2.24-0.16-3.36c-0.03-0.78-0.08-1.55-0.14-2.33l-0.38-5.87
				c-0.12-1.97-0.24-3.95-0.33-5.9l-0.01-0.04l-6.51-0.62l-17.21-1.63c-0.38,1.26-0.95,2.47-1.65,3.58l-0.02,0.02
				c-0.16,0.3-0.34,0.55-0.54,0.83c-1.41,2.02-3.4,5.07-4.73,7.13l-0.01,0.01c-0.86,1.32-1.45,2.25-1.45,2.25
				s13.86,2.83,15.77,21.29c0.1-0.52,0.13-0.81,0.13-0.81s0.46,0.54,0.06,1.27c-2.07,3.72-2.36,12.92-1.46,22.27
				c0.46,4.71,1.21,9.47,2.2,13.57c1.09,4.55,2.47,8.3,4.03,10.31c0.27,0.33,0.25,0.84-0.06,1.15c-3.31,3.25-4.69,11.39-5.09,20.54
				c0,0,0,0,0,0c-0.67,14.96,1.27,32.6,1.66,35.89h6.01c-0.21-1.82-0.14-3.69,0.19-5.51l6.96-38.91c1.23-6.83,1.93-13.76,2.08-20.7
				c0.01-0.46,0.02-0.92,0.02-1.38l0.3-27.19C246.46,319.76,246.59,311.12,246.23,302.49z"/>
			<path class="st19" d="M230.65,315.48c-1.17,9.02-1.77,17.56-3.04,25.11c-0.78,4.61-1.8,8.84-3.37,12.58
				c-2.34,5.66-5.88,10.23-11.59,13.29c-3.9,2.21-7.75,4.44-11.5,6.7c-4.59,2.75-9.01,5.54-13.12,8.41
				c-8.14,5.68-23.44,19.93-23.44,19.93v-11.21c0,0,5.29-1.58,6.88-3.6c4.03-5.1,7.79-9.39,11.26-13.01
				c6.53-6.82,12.04-11.26,16.41-14.13c7.59-5.01,11.71-5.31,11.71-5.31c-0.09-1.15-0.17-2.31-0.26-3.48
				c-1.74-23.77-3.77-47.99,3.94-56.45l0.01-0.02c4.33,1.16,7.56,3.49,9.93,6.05C228.29,304.45,231.37,309.93,230.65,315.48z"/>
			<g>
				<path class="st15" d="M244.41,283.33l-23.29-1.67c0,0-18.51,16.6-15.04,65.03c16.35,4.1,31.56,4.76,44.2-2.35
					C250.27,344.34,249.46,295.13,244.41,283.33z"/>
				<path class="st17" d="M239.96,311.08c-3.03,9.65-6.64,19.06-10.85,28.26c-0.16,0.34,0.35,0.64,0.51,0.3
					c4.23-9.24,7.86-18.7,10.91-28.4C240.64,310.87,240.07,310.72,239.96,311.08z"/>
				<path class="st17" d="M239.31,345.44c-10.06,1.73-20.01,0.55-30.04-0.82c-0.37-0.05-0.53,0.51-0.16,0.57
					c10.13,1.39,20.19,2.56,30.35,0.82C239.83,345.94,239.68,345.38,239.31,345.44z"/>
				<path class="st17" d="M238.9,343.19c-8.93,2.45-17.83,1.34-26.84,0c-0.37-0.05-0.53,0.51-0.16,0.57
					c9.09,1.35,18.15,2.47,27.15,0C239.42,343.65,239.26,343.09,238.9,343.19z"/>
			</g>
			<g>
				<path class="st19" d="M283.85,304.45l-3.43-1.16l2.16,1.8c1.2,1.01,2.33,2.12,3.39,3.29l1.63,1.84
					c0.39,0.63-0.36,1.42-1.09,0.96l-4.86-4.31l2.78,2.88l2.79,3.2c0.55,0.79-0.49,1.46-0.99,0.96l-2.55-2.61l-3.38-2.97l1.91,2.78
					c0.42,0.61,0.76,1.27,0.99,1.96l0.79,2.38c-0.08,1.18-0.71,1.05-1.44,0.59l-0.79-2.05c-0.31-0.78-0.73-1.5-1.28-2.11l-2.19-2.48
					l1.95,5.9c0.12,0.9-1.3,1.11-1.46,0.24c-0.62-2.4-2.48-5.66-2.48-5.66c-2.56-0.9-4.82-2.52-6.48-4.65l-2.27-2.91l-1.06-0.85
					l4.28-4.82c0.8,0.99,1.58,2.01,2.33,3.07l1.3,0.05c1.98,0.07,3.92,0.55,5.7,1.4l4.18,1.99
					C285.01,303.6,284.86,304.57,283.85,304.45z"/>
			</g>
			<g>
				<path class="st19" d="M159.27,313.62l3.06-1.92l-1.68,2.25c-0.93,1.26-1.78,2.6-2.53,3.99l-1.16,2.16
					c-0.23,0.7,0.68,1.29,1.28,0.68l3.73-5.32l-2.04,3.44l-1.98,3.76c-0.35,0.9,0.82,1.31,1.18,0.71l1.87-3.13l2.59-3.67l-1.22,3.15
					c-0.26,0.69-0.44,1.41-0.51,2.14l-0.22,2.5c0.35,1.13,0.93,0.86,1.54,0.24l0.3-2.18c0.12-0.83,0.36-1.63,0.76-2.35l1.55-2.92
					l-0.53,6.19c0.09,0.9,1.53,0.78,1.48-0.1c0.04-2.48,1.1-6.08,1.1-6.08c2.28-1.47,4.11-3.57,5.22-6.02l1.53-3.36l0.83-1.07
					l-4.13-3.59c-0.54,1.15-2.7,3.42-2.7,3.42l-1.25,0.35c-1.91,0.52-3.69,1.45-5.22,2.68l-3.6,2.91
					C157.94,313.06,158.31,313.97,159.27,313.62z"/>
			</g>
			<path class="st19" d="M235.61,237.39l14.65,29.6c1.39,2.8,3.02,5.47,4.89,7.98l18.14,24.33c-0.39,0.6-6.09,2.65-6.09,2.65
				l-20.53-20.64c-2.82-2.96-5.28-6.24-7.32-9.78l-15.97-27.58c-2.05-3.54-0.61-8.08,3.11-9.79l0,0
				C229.9,232.59,233.95,234.02,235.61,237.39z"/>
			<path class="st17" d="M250.25,440.35c-3.15,0.25-7.95,0.18-11.34-1.92c-1.86-1.16-6.21-2.62-9.61-4.32
				c-2.67-1.33-3.53-4.71-1.87-7.17l0.67-0.98l2.3-3.37c0,0-0.02-0.19-0.06-0.54h6.01c0.21,1.8,0.7,3.54,1.5,5.18
				c1.56,3.22,3.82,6,6.84,8.24c1.69,1.28,3.62,2.39,5.8,3.33C251.25,439.14,251.1,440.27,250.25,440.35z"/>
			<path class="st19" d="M228.96,233.99c0.03,0,0.04,0,0.04,0c-0.03-0.01-0.05-0.01-0.08-0.01c0,0,0,0,0.01,0.01
				C228.93,233.99,228.95,233.98,228.96,233.99z"/>
			<path class="st23" d="M207.2,251.14c1.12,3.29,1.94,6.7,4.11,9.48c0.75,0.93,1.48,1.87,2.23,2.78c0.87,1.13,1.73,2.25,2.57,3.41
				c0.65,0.9,1.27,1.8,1.87,2.74c1.9,2.96,3.93,6.55,3.96,10.17c0.01,1.02-5.75,5.99-6.86,10.51c10.87-1.69,24.35,5.23,31.85,3.02
				l-1.7-8.23c-0.46-8.17-0.78-16.34-1.11-24.45c0-0.13-0.02-0.28-0.02-0.4c-0.01-0.33-0.51,0.46-0.43,0.36
				c2-1.78,4.37-11.25-5.63-19.23c-2.88-2.3-5.82-4.53-8.75-6.74c-1.29-0.96-2.45-0.9-3.8-0.72c-0.31,0.01-0.66,0.07-0.99,0.11
				c-2.99,0.34-5.99,0.65-8.9,1.4c-0.45,0.12-0.95,0.25-1.45,0.4c-0.65,0.18-1.33,0.37-1.94,0.66c-0.52,0.22-1.01,0.49-1.45,0.83
				C206.49,240.56,205.5,246.06,207.2,251.14z"/>
			<path class="st17" d="M225.52,263.6c3.74,0.03,8.98,0.07,11.31-3.44c0.21-0.32,0.74-0.02,0.52,0.3
				c-2.47,3.72-7.85,3.78-11.83,3.74C225.14,264.2,225.13,263.6,225.52,263.6z"/>
			<path class="st19" d="M222.12,223c1.78-0.62,3.63,0.76,3.53,2.65l-0.44,8.26l-0.02,0.51l-0.03,0.51c-0.07,1.31-1.09,2.38-2.4,2.5
				l-0.85,0.08c-2.56,0.24-4.77-1.79-4.74-4.37l0.05-3.68l0.07-4.77l0.7-0.25L222.12,223z"/>
			<path class="st16" d="M225.85,220.73l-0.65,12.21l-0.02,0.51c-4.04-0.39-7.2-4.57-7.2-9.68c0-0.1,0-0.19,0.01-0.29L225.85,220.73
				z"/>
			<g>
				<g>
					<g>
						<path class="st19" d="M209.78,219.59c-0.8-2.06-0.6-4.95,1.19-5.35c0.54-0.12,1.18-0.01,1.83,0.26
							c0.51-6.24,4.15-13.61,8.64-14.61c5.87-1.3,11.41,0.87,14.43,15.77c1.19,5.9-2.05,12.72-7.74,14.5
							c-4.28,1.34-10.03-2.58-13.12-7.11C213,222.78,210.79,222.21,209.78,219.59z"/>
					</g>
				</g>
			</g>
			<path class="st19" d="M207.53,240.66l-14.65,29.6c-1.39,2.8-3.02,5.47-4.89,7.98l-19.46,28.94c0.39,0.6,4.31,2.23,4.31,2.23
				l23.63-24.83c2.82-2.96,5.28-6.24,7.32-9.78l9.65-16.09c2.05-3.54,6.93-19.56,3.21-21.27h0
				C213.24,235.86,209.2,237.29,207.53,240.66z"/>
			<path class="st17" d="M240.7,291.97c-7.37,0.41-13.68-3.99-21.2-2.81c-0.26,0.04-0.15,0.43,0.11,0.39
				c7.49-1.18,13.77,3.23,21.1,2.82C240.96,292.36,240.96,291.96,240.7,291.97z"/>
			<path class="st17" d="M243.04,290.55c-1.87,0.1-3.73,0.08-5.59-0.08c-0.26-0.02-0.26,0.38,0,0.4c1.86,0.16,3.72,0.19,5.59,0.08
				C243.3,290.94,243.3,290.54,243.04,290.55z"/>
			<path class="st17" d="M217.97,242.1c-0.01-0.26-0.42-0.26-0.4,0c0.36,6.49-2.24,13.59-5.47,19.18c-0.13,0.22,0.22,0.43,0.35,0.2
				C215.74,255.77,218.33,248.75,217.97,242.1z"/>
			<path class="st17" d="M224.16,237.88c-2.48,0.89-5.07,0.52-7.21-1.03c-0.21-0.15-0.41,0.2-0.2,0.35c2.21,1.6,4.95,1.99,7.52,1.07
				C224.51,238.18,224.41,237.79,224.16,237.88z"/>
			<path class="st17" d="M226.5,234.89c-0.05-0.25-0.44-0.15-0.39,0.11c0.15,0.82-0.15,1.62-0.78,2.16
				c-0.2,0.17,0.09,0.45,0.28,0.28C226.36,236.81,226.68,235.85,226.5,234.89z"/>
			<path class="st17" d="M245.47,256.38c0.07-0.25-0.32-0.36-0.39-0.11c-0.38,1.47-0.89,2.88-1.49,4.26
				c-0.05,0.03-0.08,0.08-0.08,0.15c0,0.01,0,0.02,0,0.02c-0.35,0.78-0.71,1.55-1.13,2.31c-0.13,0.23,0.22,0.43,0.35,0.2
				c0.29-0.53,0.57-1.06,0.82-1.61c0.26,6.07,0.55,12.13,0.89,18.2c0.01,0.26,0.42,0.26,0.4,0c-0.36-6.34-0.67-12.68-0.93-19.03
				C244.55,259.36,245.07,257.9,245.47,256.38z"/>
			<g>
				<g>
					<path class="st20" d="M236.07,201.28c-2.43-4.82-8.04-7.73-13.69-6.53c-1.55,0.33-3.2,1.26-4.67,2.12
						c-0.78,0.46-2.01,0.49-2.88,0.89c-0.94,0.43-1.82,1.04-2.63,1.68c-3.75,2.99-4.83,7.95-5.51,12.48
						c-0.34,2.28-0.56,4.58-0.88,6.86c-0.31,2.25-0.93,4.44-0.52,6.72c0.41,2.25,2.22,3.71,3.87,5.13c3.58,3.08,6.97,5.16,11.6,6.17
						c-1.32-0.29-1.33-6.57-1.43-7.54c-0.21-2.01-3.09-19.3,0.2-19.51c4.15-0.26,7.89-1.82,11.44-3.88c0.26,0.96,0.46,2.07,0.4,3.07
						c0.53-0.3,1.01-0.71,1.56-1.03c1.22,2.31,2.16,5.9,3.11,8.33c-0.33-0.85,0.91-3.98,1.03-4.91c0.24-1.86,0.34-3.79,0.2-5.66
						C237.17,204.09,236.75,202.61,236.07,201.28z"/>
				</g>
			</g>
		</g>
	</g>
	<g>
		<g>
			<polygon class="st15" points="416.73,29.47 409.53,43.42 453.25,31.93 			"/>
			<polyline class="st18" points="418.62,32.44 419.18,33.55 427.56,50.3 460.44,32.18 407.59,16.94 416.63,29.74 451.27,32.04 			
				"/>
		</g>
		<g>
			<g>
				<path class="st24" d="M408.04,43.51c0,0-0.89,0-2.5,0.05"/>
				<path class="st25" d="M400.53,43.8c-15.41,0.99-51.07,5.31-74.14,24.07c-25.55,20.79-19.63,61.46,10.51,74.74
					c20.94,9.22,52.08,16.22,92.16,6.53c0,0,37.89-9.27,33.03-29.31c-0.91-3.75-3.28-6.98-6.42-9.23
					c-17.83-12.83-103.12-62.53-215.32,63.67"/>
				<path class="st24" d="M238.69,176.17c-0.55,0.62-1.1,1.25-1.65,1.88"/>
			</g>
		</g>
	</g>
	<g>
		<g>
			<path class="st26" d="M251.84,135.84l-43.61,8.51c-3.72,0.73-6.14,4.33-5.42,8.05l4.98,25.52c0.73,3.72,4.33,6.14,8.05,5.42
				l14.12-2.75l-0.09,0.13l12.49,5.66l3.1-8.7l-0.13-0.09l14.12-2.75c3.72-0.73,6.14-4.33,5.42-8.05l-4.98-25.52
				C259.16,137.54,255.56,135.12,251.84,135.84z"/>
			<path class="st27" d="M255.01,135.23l-43.61,8.51c-3.72,0.73-6.14,4.33-5.42,8.05l4.98,25.52c0.73,3.72,4.33,6.14,8.05,5.42
				l14.11-2.75l-0.09,0.13l9.32,6.27l6.27-9.32l-0.13-0.09l14.12-2.75c3.72-0.73,6.14-4.33,5.42-8.05l-4.98-25.52
				C262.33,136.93,258.73,134.5,255.01,135.23z"/>
			<path class="st26" d="M248.37,153.02c-0.77-3.92-4.56-6.48-8.48-5.71c-1.94,0.38-3.54,1.5-4.57,3c-1.53-1.01-3.43-1.44-5.37-1.06
				c-3.92,0.76-6.48,4.56-5.71,8.48c0.67,3.43,3.8,5.23,6.68,6.67c0.74,0.37,7.76,4.46,7.93,4.25c2.1-2.55,4.28-5.05,6.35-7.64
				C247.15,158.57,249.03,156.35,248.37,153.02z"/>
		</g>
		<g>
			<path class="st26" d="M383.21,136.35l-44.39-1.84c-3.79-0.16-6.98,2.78-7.14,6.57l-1.08,25.98c-0.16,3.79,2.78,6.98,6.57,7.14
				l14.37,0.6l-0.11,0.11l10.83,8.4l5.04-7.74l-0.11-0.11l14.37,0.6c3.79,0.16,6.98-2.78,7.14-6.57l1.08-25.98
				C389.93,139.7,386.99,136.51,383.21,136.35z"/>
			<path class="st27" d="M386.44,136.48l-44.39-1.84c-3.79-0.16-6.98,2.78-7.14,6.57l-1.08,25.98c-0.16,3.79,2.78,6.98,6.57,7.14
				l14.37,0.6l-0.11,0.11l7.61,8.27l8.27-7.61l-0.11-0.11l14.37,0.6c3.79,0.16,6.98-2.78,7.14-6.57l1.08-25.98
				C393.16,139.84,390.22,136.64,386.44,136.48z"/>
			<path class="st26" d="M363.37,155.35c0,0-9.7,0.8-8.11,14.63c0,0-11.13-17.65,8.11-22.1v-6.36l16.22,10.97l-16.22,10.18V155.35z"
				/>
		</g>
		<g>
			<path class="st26" d="M537.51,140.59l-44.39-1.84c-3.79-0.16-6.98,2.78-7.14,6.57l-1.08,25.98c-0.16,3.79,2.78,6.98,6.57,7.14
				l14.37,0.6l-0.11,0.11l10.83,8.4l5.04-7.74l-0.11-0.11l14.37,0.6c3.79,0.16,6.98-2.78,7.14-6.57l1.08-25.98
				C544.24,143.95,541.3,140.75,537.51,140.59z"/>
			<path class="st27" d="M540.74,140.73l-44.39-1.84c-3.79-0.16-6.98,2.78-7.14,6.57l-1.08,25.98c-0.16,3.79,2.78,6.98,6.57,7.14
				l14.37,0.6l-0.11,0.11l7.61,8.27l8.27-7.61l-0.11-0.11l14.37,0.6c3.79,0.16,6.98-2.78,7.14-6.57l1.08-25.98
				C547.47,144.08,544.53,140.89,540.74,140.73z"/>
			<g>
				<path class="st28" d="M510.78,166.78l0.73-9.53c0,0,7.12-0.43,10.84-8.3c0.99-2.1,4.17-0.98,3.58,1.27
					c-0.4,1.52-1.38,3.53-3.3,6.18l7.88,0.28c1.66,0.06,2.76,1.88,1.9,3.29c-0.08,0.13-0.17,0.26-0.28,0.38
					c-0.51,0.59-0.63,1.37-0.41,2.12c0.15,0.51,0.07,1.13-0.65,1.79c-0.58,0.53-0.86,1.34-0.68,2.1c0.26,1.09,0.1,2.56-2.31,3.12
					c-0.27,0.06-0.54,0.06-0.81,0.01L510.78,166.78z"/>
				<path class="st29" d="M510.4,169.02l-5.74-0.46c-0.79-0.06-1.39-0.76-1.32-1.55l0.82-10.27c0.06-0.79,0.76-1.39,1.55-1.32
					l5.74,0.46c0.79,0.06,1.39,0.76,1.32,1.55l-0.82,10.27C511.89,168.5,511.2,169.09,510.4,169.02z"/>
			</g>
		</g>
	</g>
	<polyline class="st5" points="544.83,436.02 540.12,434.83 528.47,431.91 525.9,431.26 	"/>
</g>
<g id="DESIGNED_BY_FREEPIK">
</g>
</svg>
