<svg width="47" height="47" viewBox="0 0 47 47" fill="none" xmlns="http://www.w3.org/2000/svg">
<g clip-path="url(#clip0)">
<path d="M28.3958 41.125H18.6042C18.0167 41.125 17.625 40.7334 17.625 40.1459C17.625 39.5584 18.0167 39.1667 18.6042 39.1667H28.3958C28.9833 39.1667 29.375 39.5584 29.375 40.1459C29.375 40.7334 28.9833 41.125 28.3958 41.125Z" fill="#5E72E4"/>
<path d="M36.6208 11.3583C36.425 11.3583 36.0333 11.3583 35.8375 11.1625C35.4458 10.7708 35.4458 10.1833 35.8375 9.79164L38.5791 7.04998C38.9708 6.65831 39.5583 6.65831 39.95 7.04998C40.3416 7.44164 40.3416 8.02914 39.95 8.42081L37.2083 11.1625C37.2083 11.1625 36.8166 11.3583 36.6208 11.3583Z" fill="#5E72E4"/>
<path d="M46.0208 24.4791H42.1042C41.5167 24.4791 41.125 24.0875 41.125 23.5C41.125 22.9125 41.5167 22.5208 42.1042 22.5208H46.0208C46.6083 22.5208 47 22.9125 47 23.5C47 24.0875 46.6083 24.4791 46.0208 24.4791Z" fill="#5E72E4"/>
<path d="M39.3625 40.3416C39.1666 40.3416 38.775 40.3416 38.5791 40.1458L35.8375 37.4041C35.4458 37.0125 35.4458 36.425 35.8375 36.0333C36.2291 35.6416 36.8166 35.6416 37.2083 36.0333L39.95 38.775C40.3416 39.1666 40.3416 39.7541 39.95 40.1458C39.95 40.3416 39.7541 40.3416 39.3625 40.3416Z" fill="#5E72E4"/>
<path d="M7.63751 40.3416C7.44167 40.3416 7.05001 40.3416 6.85417 40.1458C6.46251 39.7541 6.46251 39.1666 6.85417 38.775L9.59584 36.0333C9.98751 35.6416 10.575 35.6416 10.9667 36.0333C11.3583 36.425 11.3583 37.0125 10.9667 37.4041L8.22501 40.1458C8.02917 40.3416 7.83334 40.3416 7.63751 40.3416Z" fill="#5E72E4"/>
<path d="M4.89583 24.4791H0.979167C0.391667 24.4791 0 24.0875 0 23.5C0 22.9125 0.391667 22.5208 0.979167 22.5208H4.89583C5.48333 22.5208 5.875 22.9125 5.875 23.5C5.875 24.0875 5.48333 24.4791 4.89583 24.4791Z" fill="#5E72E4"/>
<path d="M10.3792 11.3583C10.1833 11.3583 9.79167 11.3583 9.59584 11.1625L6.85417 8.22501C6.46251 7.83334 6.46251 7.24584 6.85417 6.85417C7.24584 6.46251 7.83334 6.46251 8.22501 6.85417L10.9667 9.59584C11.3583 9.98751 11.3583 10.575 10.9667 10.9667C10.7708 11.1625 10.575 11.3583 10.3792 11.3583Z" fill="#5E72E4"/>
<path d="M24.4791 31.3333H19.5833C18.9958 31.3333 18.6041 30.9417 18.6041 30.3542C18.6041 29.7667 18.9958 29.375 19.5833 29.375H24.4791C25.6541 29.375 26.4375 28.5917 26.4375 27.4167C26.4375 26.2417 25.6541 25.4583 24.4791 25.4583H22.5208C20.3666 25.4583 18.6041 23.6958 18.6041 21.5417C18.6041 19.3875 20.3666 17.625 22.5208 17.625H27.4166C28.0041 17.625 28.3958 18.0167 28.3958 18.6042C28.3958 19.1917 28.0041 19.5833 27.4166 19.5833H22.5208C21.3458 19.5833 20.5625 20.3667 20.5625 21.5417C20.5625 22.7167 21.3458 23.5 22.5208 23.5H24.4791C26.6333 23.5 28.3958 25.2625 28.3958 27.4167C28.3958 29.5708 26.6333 31.3333 24.4791 31.3333Z" fill="#5E72E4"/>
<path d="M23.5 19.5833C22.9125 19.5833 22.5209 19.1916 22.5209 18.6041V14.6875C22.5209 14.1 22.9125 13.7083 23.5 13.7083C24.0875 13.7083 24.4792 14.1 24.4792 14.6875V18.6041C24.4792 19.1916 24.0875 19.5833 23.5 19.5833Z" fill="#5E72E4"/>
<path d="M23.5 35.25C22.9125 35.25 22.5209 34.8583 22.5209 34.2708V30.3542C22.5209 29.7667 22.9125 29.375 23.5 29.375C24.0875 29.375 24.4792 29.7667 24.4792 30.3542V34.2708C24.4792 34.8583 24.0875 35.25 23.5 35.25Z" fill="#5E72E4"/>
<path d="M26.4375 47H20.5625C19.1916 47 17.625 45.825 17.625 43.475V39.3625C17.625 37.4042 16.6458 35.6417 15.0791 34.2709C11.5541 31.5292 9.79163 27.6125 9.79163 23.3042C9.98746 15.8625 16.0583 9.98752 23.3041 9.79169C27.025 9.79169 30.55 11.1625 33.0958 13.7084C35.6416 16.2542 37.2083 19.7792 37.2083 23.5C37.2083 27.6125 35.4458 31.5292 32.1166 34.075C30.3541 35.4459 29.375 37.6 29.375 39.5584V44.0625C29.375 45.6292 28.0041 47 26.4375 47ZM23.5 11.75C17.2333 11.75 11.9458 17.0375 11.75 23.3042C11.75 27.025 13.3166 30.55 16.2541 32.7042C18.4083 34.4667 19.5833 36.8167 19.5833 39.3625V43.475C19.5833 43.8667 19.5833 45.0417 20.5625 45.0417H26.4375C27.025 45.0417 27.4166 44.65 27.4166 44.0625V39.5584C27.4166 37.0125 28.7875 34.2709 30.9416 32.5084C33.6833 30.3542 35.25 27.025 35.25 23.5C35.25 20.3667 34.075 17.4292 31.725 15.0792C29.5708 12.925 26.6333 11.75 23.5 11.75Z" fill="#5E72E4"/>
<path d="M23.5 5.875C22.9125 5.875 22.5209 5.48333 22.5209 4.89583V0.979167C22.5209 0.391667 22.9125 0 23.5 0C24.0875 0 24.4792 0.391667 24.4792 0.979167V4.89583C24.4792 5.48333 24.0875 5.875 23.5 5.875Z" fill="#5E72E4"/>
</g>
<defs>
<clipPath id="clip0">
<rect width="47" height="47" fill="white"/>
</clipPath>
</defs>
</svg>
