<svg width="46" height="46" viewBox="0 0 46 46" fill="none" xmlns="http://www.w3.org/2000/svg">
<g clip-path="url(#clip0)">
<path d="M46 19.2903H44.3328L41.848 20.5978C41.5683 20.4434 41.2774 20.3127 40.9637 20.234L37.838 19.4519V19.0965C39.2208 18.1314 40.0645 16.537 40.0645 14.8387V13.5418C40.0645 10.6595 37.8061 8.24751 35.0304 8.16346C34.8894 8.15984 34.7507 8.16491 34.6112 8.1718L35.4216 6.27457L31.4928 2.34681L29.1768 3.85422C28.2968 3.35863 27.3661 2.97281 26.3996 2.7022L25.8275 0H20.1732L19.6012 2.70292C18.6346 2.97354 17.7032 3.35936 16.824 3.85495L14.508 2.34753L10.5824 6.27312L11.379 8.1718C11.3486 8.17035 11.3196 8.16491 11.2892 8.16419C9.86832 8.12289 8.53008 8.6413 7.51355 9.62813C6.49556 10.6142 5.93548 11.9376 5.93548 13.3548V14.8387C5.93548 16.537 6.77849 18.1307 8.16129 19.0958V19.4519L6.12242 19.9616L2.42687 17.8065H0V33.1802L7.29908 35.6129H8.72064L8.89815 34.9912L11.1356 36.3342C11.1721 37.5507 12.1477 38.5296 13.3632 38.5723C13.4059 39.7827 14.3786 40.7554 15.589 40.7981C15.6317 42.0085 16.6044 42.9812 17.8148 43.0239C17.859 44.2625 18.8733 45.2581 20.1221 45.2581C20.5858 45.2581 21.0405 45.1135 21.4227 44.8559L22.0798 45.4363C22.4917 45.7989 23.0221 46 23.5728 46H23.7101C24.9447 46 25.9493 45.0019 25.9648 43.7713C27.1861 43.7557 28.1751 42.7667 28.1907 41.5455C29.4126 41.5299 30.4023 40.5395 30.4165 39.3175C31.6496 39.2885 32.6452 38.281 32.6452 37.041C32.6452 36.9664 32.6415 36.8928 32.6339 36.8186L46 30.1361V19.2903ZM38.5806 13.5418V14.8387C38.5806 16.1556 37.8691 17.3859 36.7236 18.0492L36.3527 18.2636L36.3556 20.6115L40.0623 21.5375L31.9032 25.8319V23.8332C31.9032 22.8359 31.5004 21.9226 30.8407 21.2477L33.3871 20.6115V18.2618L33.0169 18.0477C31.8721 17.3859 31.1613 16.1556 31.1613 14.8387V13.3548C31.1613 12.343 31.5612 11.3968 32.2883 10.6921C33.0147 9.98787 33.9783 9.60821 34.9858 9.64734C36.9678 9.70675 38.5806 11.454 38.5806 13.5418ZM24.1187 25.2486L20.7601 24.1752C19.2295 23.6847 17.5728 23.6115 16.006 23.9586L15.5806 24.0528V23.8332C15.5806 22.8102 16.2744 21.9219 17.2663 21.6734L21.5161 20.6115V18.2618L21.1459 18.0477C20.0011 17.3859 19.2903 16.1556 19.2903 14.8387V13.3548C19.2903 12.343 19.6903 11.3968 20.4174 10.6921C21.1437 9.98787 22.1135 9.60821 23.1148 9.64734C25.0968 9.70675 26.7097 11.454 26.7097 13.5418V14.8387C26.7097 16.1556 25.9982 17.3859 24.8527 18.0492L24.4817 18.2636L24.4846 20.6115L28.7337 21.6734C29.7256 21.9219 30.4194 22.8102 30.4194 23.8332V26.6133L30.236 26.7097H29.7814L25.22 25.4062C24.8606 25.3044 24.4904 25.2628 24.1187 25.2486ZM15.7469 11.1044C17.1402 8.40474 19.9446 6.67742 23 6.67742C26.0264 6.67742 28.8188 8.38155 30.2226 11.0446C29.8694 11.7529 29.6774 12.5372 29.6774 13.3548V14.8387C29.6774 16.537 30.5204 18.1307 31.9032 19.0958V19.4519L28.9355 20.1949L25.967 19.4519V19.0965C27.3498 18.1314 28.1935 16.537 28.1935 14.8387V13.5418C28.1935 10.6595 25.9351 8.24751 23.1594 8.16346C21.7393 8.1218 20.4003 8.64058 19.3838 9.62741C18.3665 10.6142 17.8065 11.9376 17.8065 13.3548V14.8387C17.8065 16.537 18.6495 18.1307 20.0323 19.0958V19.4519L17.0645 20.1949L14.0961 19.4519V19.0965C15.4788 18.1314 16.3226 16.537 16.3226 14.8387V13.5418C16.3226 12.6687 16.1125 11.8398 15.7469 11.1044ZM12.3347 6.61728L14.705 4.24693L16.7914 5.60473L17.1906 5.35983C18.1908 4.74687 19.2718 4.29801 20.4032 4.02739L20.8597 3.91798L21.3759 1.48387H24.6248L25.1396 3.91726L25.5961 4.0263C26.7274 4.29728 27.8085 4.74614 28.8087 5.35911L29.2079 5.604L31.2942 4.2462L33.6617 6.61438L32.8201 8.58479C32.2474 8.83113 31.7163 9.17783 31.254 9.62596C31.2236 9.65567 31.1975 9.68755 31.1678 9.71798C29.4198 6.93934 26.3297 5.19355 23 5.19355C19.6464 5.19355 16.5476 6.95565 14.8039 9.76254C14.3373 9.27419 13.7823 8.87859 13.1672 8.60218L12.3347 6.61728ZM9.64516 20.6115V18.2618L9.27492 18.0477C8.13013 17.3859 7.41935 16.1556 7.41935 14.8387V13.3548C7.41935 12.343 7.8193 11.3968 8.54639 10.6921C9.27274 9.98787 10.2386 9.60821 11.2439 9.64734C13.2259 9.70675 14.8387 11.454 14.8387 13.5418V14.8387C14.8387 16.1556 14.1272 17.3859 12.9817 18.0492L12.6107 18.2636L12.6136 20.6115L15.1593 21.2477C14.4996 21.9226 14.0968 22.8359 14.0968 23.8332V24.3828L11.7826 24.8972L11.8427 24.6871L11.871 23.3159L7.95806 21.0332L9.64516 20.6115ZM1.48387 19.2903H2.02474L7.36067 22.4026L4.66825 33.1719L1.48387 32.1101V19.2903ZM7.53963 34.129L6.07931 33.6425L8.69492 23.1811L10.3871 24.168V24.3799L7.60194 34.129H7.53963ZM12.6129 36.265C12.6129 36.0462 12.7013 35.8317 12.8564 35.6767L14.1605 34.3725C14.3156 34.2174 14.5301 34.129 14.7489 34.129C15.2075 34.129 15.5806 34.5022 15.5806 34.9608C15.5806 35.1796 15.4923 35.3941 15.3372 35.5491L14.033 36.8533C13.878 37.0084 13.6635 37.0968 13.4447 37.0968C12.986 37.0968 12.6129 36.7236 12.6129 36.265ZM14.8387 38.4908C14.8387 38.272 14.9271 38.0575 15.0822 37.9025L16.3863 36.5983C16.5414 36.4432 16.7559 36.3548 16.9747 36.3548C17.4333 36.3548 17.8065 36.728 17.8065 37.1866C17.8065 37.4054 17.7181 37.6199 17.563 37.7749L16.2588 39.0791C16.1038 39.2342 15.8893 39.3226 15.6705 39.3226C15.2119 39.3226 14.8387 38.9494 14.8387 38.4908ZM17.0645 40.7166C17.0645 40.4978 17.1529 40.2833 17.308 40.1283L18.6121 38.8241C18.7672 38.669 18.9817 38.5806 19.2005 38.5806C19.6591 38.5806 20.0323 38.9538 20.0323 39.4124C20.0323 39.6312 19.9439 39.8457 19.7888 40.0008L18.4846 41.3049C18.3296 41.46 18.1151 41.5484 17.8963 41.5484C17.4377 41.5484 17.0645 41.1752 17.0645 40.7166ZM20.1221 43.7742C19.6635 43.7742 19.2903 43.4011 19.2903 42.9424C19.2903 42.7236 19.3787 42.5091 19.5338 42.3541L20.838 41.0499C20.993 40.8948 21.2075 40.8065 21.4263 40.8065C21.8849 40.8065 22.2581 41.1796 22.2581 41.6382C22.2581 41.857 22.1697 42.0715 22.0146 42.2266L20.7104 43.5307C20.5554 43.6858 20.3409 43.7742 20.1221 43.7742ZM23.7101 44.5161H23.5728C23.3836 44.5161 23.2025 44.4473 23.0616 44.3223L22.5066 43.8329L23.0638 43.2757C23.2626 43.0768 23.417 42.8403 23.5311 42.5863L24.2056 43.1478C24.3821 43.2949 24.4839 43.5115 24.4839 43.7423C24.4839 44.1691 24.1368 44.5161 23.7101 44.5161ZM30.3636 37.8387H30.2353C30.0491 37.8387 29.8673 37.7728 29.7249 37.6532L25.7015 34.3004L24.7509 35.4408L28.658 38.6962C28.8337 38.8433 28.9355 39.0599 28.9355 39.2907C28.9355 39.7175 28.5884 40.0645 28.1617 40.0645H27.9997C27.8197 40.0645 27.6436 40.0008 27.5049 39.8848L23.4749 36.5269L22.5243 37.6674L26.4315 40.9231C26.6079 41.0691 26.7097 41.2857 26.7097 41.5165C26.7097 41.9433 26.3626 42.2903 25.9359 42.2903C25.6511 42.2903 25.3736 42.1892 25.1552 42.0078L23.4992 40.6275C23.1344 39.8819 22.3849 39.3621 21.5071 39.3309C21.4643 38.1206 20.4916 37.1479 19.2813 37.1051C19.2385 35.8948 18.2658 34.9221 17.0555 34.8793C17.012 33.6407 15.9976 32.6452 14.7489 32.6452C14.1392 32.6452 13.5425 32.8922 13.1114 33.3233L11.8072 34.6275C11.7293 34.7054 11.6648 34.7938 11.5993 34.8815L9.3202 33.5139L11.3181 26.5213L16.3269 25.4077C17.6409 25.1139 19.0262 25.1776 20.3076 25.5877L21.4006 25.9373L17.6952 27.79C16.8486 28.2142 16.3226 29.0659 16.3226 30.0129V30.1596C16.3226 31.5301 17.4377 32.6452 18.8081 32.6452C19.2584 32.6452 19.7015 32.5227 20.0866 32.2905L22.8493 30.6338C23.4043 30.3013 24.1491 30.3741 24.6284 30.8052L30.8972 36.4469C31.0649 36.599 31.1613 36.8149 31.1613 37.041C31.1613 37.4811 30.8037 37.8387 30.3636 37.8387ZM44.5161 29.2188L32.0166 35.4691C31.976 35.426 31.9337 35.385 31.8891 35.3452L25.6214 29.7035C25.0722 29.2079 24.3621 28.9355 23.6224 28.9355C23.0815 28.9355 22.5504 29.0826 22.0853 29.3615L19.3215 31.0189C19.1664 31.1124 18.9893 31.1613 18.8081 31.1613C18.2553 31.1613 17.8065 30.7124 17.8065 30.1596V30.0129C17.8065 29.6307 18.0187 29.288 18.36 29.1173L22.4986 27.048C23.2069 26.6934 24.0477 26.614 24.811 26.8336L29.4735 28.1653L30.6027 28.1935L44.5161 20.8706V29.2188Z" fill="#5E72E4"/>
</g>
<defs>
<clipPath id="clip0">
<rect width="46" height="46" fill="white"/>
</clipPath>
</defs>
</svg>
