<svg width="38" height="38" viewBox="0 0 38 38" fill="none" xmlns="http://www.w3.org/2000/svg">
<g clip-path="url(#clip0)">
<path d="M23.6961 16.8952C23.6961 14.3057 21.5894 12.199 18.9999 12.199C16.4104 12.199 14.3037 14.3057 14.3037 16.8952C14.3037 19.4847 16.4104 21.5914 18.9999 21.5914C21.5894 21.5914 23.6961 19.4847 23.6961 16.8952ZM15.4171 16.8952C15.4171 14.9196 17.0244 13.3123 19 13.3123C20.9755 13.3123 22.5829 14.9196 22.5829 16.8952C22.5829 18.8707 20.9756 20.478 19 20.478C17.0244 20.478 15.4171 18.8708 15.4171 16.8952Z" fill="#5E72E4"/>
<path d="M17.31 27.3616C17.8708 27.5407 18.4355 27.6303 19.0002 27.6303C19.5648 27.6303 20.1296 27.5407 20.6903 27.3616C21.2379 27.1866 21.6398 26.7014 21.7143 26.1255C21.7744 25.6612 21.8211 25.1891 21.8533 24.7222C21.8634 24.576 21.957 24.449 22.101 24.3895L22.1098 24.3859C22.2507 24.3274 22.4071 24.3508 22.5175 24.4472C22.87 24.7542 23.2368 25.055 23.6078 25.341C24.0678 25.6956 24.695 25.7546 25.206 25.4911C26.2523 24.9514 27.0565 24.1472 27.5962 23.1009C27.8596 22.5901 27.8007 21.9628 27.4461 21.5027C27.1603 21.132 26.8596 20.7652 26.5523 20.4124C26.456 20.3018 26.4325 20.1456 26.4908 20.0051L26.4959 19.9928C26.554 19.852 26.6811 19.7582 26.8274 19.7481C27.2939 19.716 27.766 19.6692 28.2304 19.6092C28.8066 19.5347 29.2918 19.1327 29.4666 18.5852C29.8248 17.4637 29.8248 16.3265 29.4666 15.205C29.2918 14.6575 28.8065 14.2556 28.2304 14.1811C27.7661 14.121 27.294 14.0742 26.8274 14.0421C26.681 14.032 26.554 13.9383 26.4959 13.7975C26.4957 13.7972 26.4911 13.7859 26.491 13.7856C26.4325 13.6446 26.456 13.4884 26.5523 13.3778C26.8595 13.0252 27.1601 12.6583 27.4461 12.2875C27.8007 11.8275 27.8596 11.2002 27.5961 10.6893C27.0564 9.64301 26.2523 8.83886 25.206 8.29918C24.6951 8.03569 24.0678 8.09462 23.6078 8.44919C23.237 8.73502 22.8702 9.03578 22.5175 9.34299C22.407 9.43934 22.2507 9.46279 22.1084 9.40378L22.0978 9.3994C21.957 9.34121 21.8633 9.21421 21.8532 9.06784C21.821 8.60113 21.7743 8.12906 21.7142 7.66479C21.6397 7.08881 21.2378 6.60354 20.6903 6.42859C19.5688 6.07031 18.4314 6.07039 17.31 6.42859C16.7626 6.60346 16.3606 7.08874 16.2861 7.66479C16.2261 8.12869 16.1794 8.60075 16.1472 9.06784C16.1371 9.21421 16.0433 9.34129 15.903 9.39918L15.8906 9.4043C15.7498 9.46272 15.5935 9.43934 15.4829 9.34299C15.1301 9.03578 14.7633 8.73502 14.3925 8.44919C13.9325 8.09455 13.3053 8.03561 12.7943 8.29911C11.748 8.83879 10.9439 9.64293 10.4041 10.6893C10.1407 11.2001 10.1996 11.8274 10.5542 12.2875C10.8401 12.6583 11.1408 13.0252 11.448 13.3777C11.5442 13.4883 11.5678 13.6446 11.5093 13.7855C11.5092 13.7858 11.5045 13.7971 11.5044 13.7974C11.4462 13.9383 11.3192 14.032 11.1728 14.0421C10.7063 14.0742 10.2342 14.121 9.76978 14.1811C9.1938 14.2556 8.7086 14.6575 8.53366 15.205C8.1753 16.3264 8.1753 17.4637 8.53366 18.5852C8.7086 19.1327 9.1938 19.5346 9.76985 19.6091C10.2343 19.6692 10.7064 19.7159 11.1729 19.7481C11.3193 19.7582 11.4463 19.8519 11.5046 19.9932L11.5094 20.0047C11.5679 20.1456 11.5443 20.3019 11.4481 20.4124C11.1407 20.7652 10.8399 21.1321 10.5542 21.5028C10.1996 21.9628 10.1407 22.5901 10.4041 23.1009C10.9438 24.1472 11.7479 24.9515 12.7943 25.4911C13.3051 25.7546 13.9323 25.6957 14.3924 25.3411C14.7634 25.055 15.1302 24.7543 15.4828 24.4472C15.5933 24.3509 15.7495 24.3275 15.8901 24.3858L15.9024 24.3909C16.0433 24.4491 16.1371 24.5761 16.1471 24.7225C16.1793 25.1896 16.226 25.6617 16.286 26.1256C16.3606 26.7015 16.7626 27.1867 17.31 27.3616ZM15.7314 23.2399C15.3767 23.2399 15.0292 23.3658 14.7515 23.6077C14.4157 23.9003 14.0662 24.1868 13.7127 24.4593C13.5933 24.5513 13.433 24.5679 13.3046 24.5016C12.4562 24.064 11.8311 23.4389 11.3936 22.5906C11.3273 22.4621 11.3439 22.3019 11.4359 22.1825C11.7081 21.8294 11.9946 21.4799 12.2875 21.1438C12.6634 20.7122 12.7592 20.1122 12.5374 19.5776L12.5334 19.5678C12.3125 19.0333 11.8205 18.6768 11.2493 18.6375C10.8048 18.6069 10.3551 18.5623 9.91259 18.5051C9.7631 18.4858 9.63811 18.3843 9.59409 18.2465C9.30358 17.3373 9.30358 16.4532 9.59409 15.5439C9.63811 15.4062 9.7631 15.3047 9.91259 15.2853C10.355 15.2281 10.8048 15.1835 11.2494 15.1529C11.8206 15.1135 12.3126 14.757 12.5334 14.2225L12.5377 14.2123C12.7593 13.6781 12.6635 13.0782 12.2875 12.6465C11.9948 12.3106 11.7083 11.9611 11.4359 11.6078C11.3438 11.4884 11.3273 11.3283 11.3935 11.1997C11.8311 10.3513 12.4562 9.72621 13.3045 9.28866C13.433 9.22238 13.5932 9.23893 13.7126 9.33097C14.0659 9.6033 14.4154 9.88987 14.7515 10.1825C15.1829 10.5585 15.7829 10.6543 16.3177 10.4325L16.3274 10.4285C16.8619 10.2078 17.2184 9.71574 17.2578 9.14444C17.2885 8.6994 17.333 8.24968 17.3902 7.80775C17.4096 7.65826 17.511 7.53327 17.6488 7.48925C18.558 7.19881 19.442 7.19874 20.3514 7.48925C20.4891 7.53327 20.5907 7.65826 20.6099 7.80775C20.6672 8.25005 20.7118 8.69984 20.7424 9.14437C20.7816 9.71574 21.1382 10.2078 21.6697 10.4273L21.683 10.4327C22.2171 10.6543 22.8171 10.5585 23.2487 10.1825C23.5847 9.8898 23.9342 9.6033 24.2875 9.33097C24.4068 9.239 24.5669 9.2223 24.6956 9.28866C25.5439 9.72621 26.169 10.3513 26.6066 11.1997C26.6729 11.3283 26.6563 11.4884 26.5643 11.6077C26.2919 11.961 26.0053 12.3106 25.7127 12.6465C25.3367 13.0782 25.2408 13.6781 25.4625 14.2123L25.4667 14.2225C25.6875 14.7571 26.1796 15.1136 26.7509 15.1529C27.1954 15.1836 27.6452 15.2281 28.0876 15.2854C28.2371 15.3047 28.362 15.4062 28.406 15.5439C28.6966 16.4533 28.6966 17.3373 28.406 18.2466C28.362 18.3843 28.2371 18.4859 28.0876 18.5052C27.6451 18.5624 27.1954 18.6069 26.7509 18.6375C26.1796 18.6769 25.6875 19.0334 25.4669 19.5676L25.4625 19.5782C25.2409 20.1124 25.3367 20.7124 25.7127 21.1439C26.0054 21.4801 26.292 21.8296 26.5643 22.1828C26.6563 22.3021 26.6729 22.4623 26.6066 22.5908C26.1689 23.4391 25.5439 24.0643 24.6955 24.5018C24.5669 24.5682 24.4068 24.5515 24.2875 24.4595C23.934 24.1869 23.5845 23.9005 23.2487 23.6079C22.8173 23.232 22.2172 23.1361 21.6844 23.3572L21.6729 23.3619C21.1383 23.5827 20.7817 24.0748 20.7424 24.646C20.7119 25.0907 20.6672 25.5404 20.61 25.9828C20.5907 26.1322 20.4892 26.2572 20.3515 26.3012C19.4422 26.5917 18.5581 26.5917 17.6489 26.3012C17.5111 26.2572 17.4096 26.1322 17.3903 25.9828C17.333 25.5409 17.2886 25.0911 17.2579 24.646C17.2185 24.0747 16.862 23.5827 16.3269 23.3617L16.3173 23.3577C16.1268 23.2785 15.928 23.2399 15.7314 23.2399Z" fill="#5E72E4"/>
<path d="M37.5265 23.6769C37.1542 22.9897 36.5898 22.4376 35.9123 22.0802C36.5565 18.9724 37.1722 14.2749 36.6966 8.82574C36.6722 8.55319 36.5803 8.28799 36.4302 8.05797C36.3102 7.87478 35.1848 6.21588 32.6772 4.4C32.4282 4.21978 32.0802 4.2753 31.8998 4.52439C31.7194 4.77342 31.7751 5.12145 32.0241 5.30174C34.4108 7.03012 35.4556 8.60225 35.4984 8.66735C35.5486 8.74424 35.5794 8.83324 35.5874 8.92364C36.0353 14.0539 35.4912 18.502 34.8877 21.5317C34.8552 21.4033 34.8128 21.2765 34.7596 21.1524C34.5917 20.7613 34.3332 20.4269 34.0077 20.1711C34.6242 16.5745 34.792 12.9269 34.5037 9.32296C34.4952 9.21772 34.457 9.11692 34.3936 9.03253C33.9067 8.38581 33.1322 7.60847 32.2686 6.89985C31.0923 5.93457 29.7698 5.09265 28.3378 4.39755C25.4482 2.99509 22.2193 2.25374 19.0001 2.25374C15.7808 2.25374 12.5519 2.99509 9.66233 4.39755C5.81746 6.2639 3.94346 8.58644 3.60678 9.03312C3.54317 9.11759 3.50487 9.21838 3.49641 9.32378C3.20805 12.9275 3.37595 16.5748 3.99237 20.1711C3.66683 20.4271 3.40831 20.7615 3.24041 21.1526C3.18719 21.2766 3.14481 21.4033 3.1123 21.5317C2.50879 18.5018 1.96473 14.0538 2.41245 8.92498C2.42061 8.83331 2.45149 8.74424 2.50107 8.66824C2.58071 8.54658 4.50578 5.66336 9.17609 3.39597C12.2162 1.92048 15.6133 1.14053 19 1.14053C22.3864 1.14053 25.7837 1.92048 28.8242 3.39582C29.3118 3.63289 29.7832 3.8828 30.2251 4.13851C30.4912 4.29252 30.8317 4.20174 30.9857 3.93558C31.1397 3.66949 31.0489 3.32895 30.7828 3.17493C30.3178 2.90587 29.8226 2.64327 29.3107 2.39439C26.1193 0.84564 22.5538 0.0270996 19.0001 0.0270996C15.4459 0.0270996 11.8808 0.84564 8.69 2.39432C6.63445 3.39226 4.83029 4.62363 3.3274 6.0543C2.1782 7.14836 1.62864 7.96831 1.56919 8.05908C1.41985 8.28806 1.32796 8.55319 1.30347 8.82693C0.827917 14.2747 1.44353 18.9723 2.08772 22.0802C1.41035 22.4376 0.845879 22.9897 0.473572 23.677C-0.0685585 24.6776 -0.14924 25.8633 0.252237 26.93C0.772323 28.3105 1.32677 29.699 1.90038 31.0574C2.34416 32.1077 3.21963 32.912 4.30226 33.2639C4.69728 33.3923 5.10521 33.4557 5.51159 33.4557C6.21545 33.4557 6.91427 33.2655 7.53107 32.8939C7.53189 32.8934 7.53278 32.8929 7.53359 32.8924C7.6905 33.0092 7.86196 33.1088 8.04626 33.1879C8.36408 33.3243 8.6995 33.3927 9.03521 33.3927C9.35 33.3927 9.665 33.3327 9.96605 33.2124C10.9256 32.8296 11.5456 31.9148 11.5456 30.8821C11.5456 30.5621 11.4853 30.2491 11.3664 29.952L10.9841 28.9945C10.8701 28.709 10.5462 28.5698 10.2607 28.6839C9.97518 28.7979 9.83616 29.1217 9.9501 29.4073L10.3325 30.3651C10.3986 30.5305 10.4322 30.7044 10.4322 30.882C10.4322 31.4564 10.0873 31.9652 9.55315 32.1783C9.20697 32.3166 8.82791 32.3118 8.48536 32.1648C8.1429 32.0178 7.87807 31.7461 7.73979 31.4L4.24993 22.6599C4.11158 22.3138 4.1164 21.9344 4.26351 21.5918C4.41063 21.249 4.68251 20.9841 5.02913 20.8457C5.37531 20.7074 5.75445 20.7122 6.09684 20.8593C6.43938 21.0064 6.70422 21.2783 6.84257 21.6248L9.13015 27.3527C9.24415 27.6381 9.56807 27.7772 9.85361 27.6631C10.1391 27.5491 10.2782 27.2252 10.1641 26.9397L7.87651 21.2119C7.62786 20.5892 7.15186 20.1007 6.53617 19.8362C6.05713 19.6306 5.53831 19.5803 5.03849 19.6848C4.48797 16.3314 4.33818 12.9351 4.59351 9.57711C5.49704 8.43762 7.44675 6.71058 10.1486 5.39912C12.8875 4.06977 15.9483 3.3671 19.0001 3.3671C22.0519 3.3671 25.1128 4.06977 27.8517 5.39912C30.5567 6.71222 32.5052 8.43822 33.4067 9.57622C33.6622 12.9348 33.5124 16.3311 32.9617 19.685C32.462 19.5805 31.9431 19.6308 31.464 19.8365C30.8481 20.1009 30.372 20.5893 30.1235 21.2118L26.6336 29.9515C26.3419 30.6819 26.4194 31.4696 26.7762 32.1078C26.2046 32.7259 25.6078 33.2031 24.9964 33.5293H23.3476C22.8529 32.7765 22.0013 32.2782 21.0351 32.2782H19.0392C17.5143 32.2782 16.2736 33.5188 16.2736 35.0438V35.2073C16.2736 36.7323 17.5142 37.973 19.0392 37.973H21.0351C21.9368 37.973 22.7389 37.5391 23.2441 36.8694H25.3826C25.6155 36.8694 25.8514 36.819 26.0663 36.7233C28.0591 35.8284 29.4983 34.2003 30.3713 32.9576C30.4028 32.9363 30.4336 32.9137 30.4642 32.8909C30.4659 32.8919 30.4677 32.893 30.4694 32.8941C31.086 33.2656 31.7845 33.4557 32.4883 33.4557C32.8947 33.4557 33.3028 33.3923 33.6979 33.2639C34.7805 32.9119 35.656 32.1076 36.0998 31.0572C36.6739 29.6976 37.2283 28.309 37.7479 26.9298C38.1493 25.8633 38.0686 24.6776 37.5265 23.6769ZM6.706 31.8129C6.73517 31.8859 6.76768 31.9568 6.80293 32.0259C6.139 32.3714 5.36277 32.438 4.64658 32.2051C3.87124 31.9531 3.24405 31.3767 2.926 30.6242C2.35811 29.2793 1.80908 27.9044 1.29426 26.5377C1.00665 25.7734 1.06432 24.924 1.45258 24.2073C1.81153 23.5447 2.42031 23.0581 3.13925 22.8511C3.16136 22.9257 3.18675 22.9997 3.21599 23.0729L6.706 31.8129ZM27.6675 30.3644L31.1573 21.6247C31.2956 21.2784 31.5605 21.0067 31.9031 20.8596C32.08 20.7836 32.2666 20.7456 32.4535 20.7456C32.6286 20.7456 32.8039 20.779 32.9714 20.8459C33.3178 20.9842 33.5894 21.249 33.7365 21.5916C33.8836 21.9343 33.8885 22.3136 33.7503 22.6599L30.2603 31.3997C29.9749 32.1145 29.1611 32.464 28.4463 32.1785C27.7314 31.893 27.3821 31.0792 27.6675 30.3644ZM22.6874 35.2074C22.6874 36.1185 21.9462 36.8597 21.0351 36.8597H19.0392C18.1282 36.8597 17.3869 36.1185 17.3869 35.2074V35.0439C17.3869 34.1328 18.1281 33.3916 19.0392 33.3916H21.0351C21.9461 33.3916 22.6874 34.1328 22.6874 35.0439V35.2074ZM25.6116 35.7071C25.5397 35.7391 25.4605 35.7561 25.3826 35.7561H23.7459C23.7818 35.5787 23.8008 35.3952 23.8008 35.2074V35.0439C23.8008 34.9076 23.7905 34.7737 23.7713 34.6427H25.1316C25.2182 34.6427 25.3037 34.6225 25.3812 34.5836C26.127 34.2095 26.8461 33.6564 27.5247 32.937C27.68 33.0458 27.8497 33.1391 28.0333 33.2123C28.2316 33.2915 28.4341 33.3431 28.6368 33.3697C27.8706 34.2474 26.8581 35.1474 25.6116 35.7071ZM36.7058 26.5375C36.1915 27.903 35.6425 29.278 35.0742 30.624C34.7561 31.3767 34.1289 31.953 33.3535 32.2051C32.6368 32.4381 31.8601 32.3713 31.1963 32.0254C31.2315 31.9564 31.2649 31.886 31.2942 31.8126L34.784 23.0729C34.8133 22.9997 34.8386 22.9257 34.8607 22.851C35.5801 23.0582 36.1887 23.5448 36.5475 24.2071C36.9358 24.924 36.9935 25.7734 36.7058 26.5375Z" fill="#5E72E4"/>
</g>
<defs>
<clipPath id="clip0">
<rect width="38" height="38" fill="white"/>
</clipPath>
</defs>
</svg>
