<svg width="47" height="47" viewBox="0 0 47 47" fill="none" xmlns="http://www.w3.org/2000/svg">
<path d="M11.9336 38.0039H0.917969C0.411066 38.0039 0 38.415 0 38.9219V46.082C0 46.5889 0.411066 47 0.917969 47H11.9336C12.4405 47 12.8516 46.5889 12.8516 46.082V38.9219C12.8516 38.415 12.4405 38.0039 11.9336 38.0039ZM11.0156 45.1641H1.83594V39.8398H11.0156V45.1641Z" fill="#5E72E4"/>
<path d="M29.0078 34.8828H17.9922C17.4853 34.8828 17.0742 35.2939 17.0742 35.8008V46.082C17.0742 46.5889 17.4853 47 17.9922 47H29.0078C29.5147 47 29.9258 46.5889 29.9258 46.082V35.8008C29.9258 35.2939 29.5147 34.8828 29.0078 34.8828ZM28.0898 45.1641H18.9102V36.7188H28.0898V45.1641Z" fill="#5E72E4"/>
<path d="M46.082 31.9453H38.0636C38.1139 31.8537 38.1601 31.7591 38.2017 31.6617C38.532 30.8884 38.5413 30.0327 38.2281 29.2525L35.2631 21.8655C35.0033 21.2182 34.5282 20.6686 33.9257 20.3178L31.0287 18.6309C31.0299 18.6116 31.0316 18.5925 31.0316 18.5729V12.2955C34.6558 11.7508 37.9363 10.0913 40.5623 7.46538L40.6246 7.40305C41.7795 6.24806 41.7795 4.36871 40.6246 3.2139C40.0651 2.65431 39.3212 2.34614 38.5299 2.34614C37.7388 2.34614 36.9948 2.65431 36.4353 3.21381L36.3731 3.27605C34.5702 5.07894 32.2623 6.19308 29.7684 6.48738C30.0851 5.93375 30.2671 5.29374 30.2671 4.61151V3.79075C30.2671 1.70045 28.5666 0 26.4764 0C24.3862 0 22.6856 1.70045 22.6856 3.79075V4.61151C22.6856 5.32615 22.8846 5.99516 23.2298 6.56632H23.0988C18.5158 6.56632 14.2072 8.35104 10.9663 11.5917L10.9041 11.6541C9.74916 12.8091 9.74916 14.6884 10.9041 15.8433C12.059 16.9983 13.9384 16.9983 15.0934 15.8433L15.1556 15.7811C16.6494 14.2871 18.4796 13.266 20.4971 12.7919V18.573C20.4971 18.7776 20.5649 18.9661 20.6782 19.1187L17.9787 24.5995L11.2576 27.7886C10.4979 28.1491 9.92403 28.7838 9.64166 29.5759C9.35929 30.3681 9.40244 31.2226 9.76283 31.9822C10.2813 33.0751 11.3983 33.7814 12.6085 33.7814C13.0773 33.7814 13.5308 33.679 13.9566 33.4769L17.9355 31.589C18.3935 31.3717 18.5886 30.8242 18.3713 30.3661C18.154 29.9082 17.6067 29.7128 17.1484 29.9304L13.1695 31.8184C12.9916 31.9028 12.803 31.9456 12.6086 31.9456C12.1037 31.9456 11.6379 31.6511 11.4216 31.1953C11.2713 30.8787 11.2534 30.5226 11.371 30.1924C11.4887 29.8623 11.7279 29.5977 12.0446 29.4474L19.0545 26.1213C19.2415 26.0326 19.3931 25.8832 19.4845 25.6976L22.5414 19.4912H28.8571L33.002 21.9047C33.2532 22.051 33.4512 22.28 33.5594 22.5497L36.5245 29.9367C36.655 30.2619 36.6511 30.6186 36.5134 30.9408C36.3758 31.2632 36.1209 31.5126 35.7955 31.6431C35.6387 31.7061 35.4743 31.738 35.3076 31.7381C34.7684 31.7381 34.2901 31.4147 34.0893 30.9142L31.4096 24.2382C31.3216 24.0188 31.1524 23.842 30.9372 23.7443L26.3353 21.6545C25.9368 21.4736 25.4665 21.599 25.2109 21.9539L22.9439 25.1008C22.6476 25.512 22.7409 26.0857 23.1523 26.3821C23.5638 26.6785 24.1374 26.5852 24.4337 26.1738L26.261 23.6371L29.843 25.2637L32.3855 31.5979C32.716 32.4213 33.3595 33.0446 34.1487 33.355V46.082C34.1487 46.5889 34.5597 47 35.0666 47H46.0823C46.5892 47 47.0002 46.5889 47.0002 46.082V32.8633C47 32.3564 46.5889 31.9453 46.082 31.9453ZM24.5216 4.61151V3.79075C24.5216 2.71287 25.3985 1.83594 26.4764 1.83594C27.5543 1.83594 28.4312 2.71287 28.4312 3.79075V4.61151C28.4312 5.68939 27.5543 6.56632 26.4764 6.56632C25.3985 6.56632 24.5216 5.68948 24.5216 4.61151ZM22.3329 17.6549V11.6887C22.3329 11.4233 22.2181 11.171 22.0182 10.9967C21.8181 10.8224 21.5529 10.7432 21.2896 10.7793C18.4603 11.1691 15.8903 12.4498 13.8572 14.4829L13.795 14.5451C13.3559 14.9844 12.6413 14.9844 12.2022 14.5451C11.763 14.1061 11.763 13.3915 12.2022 12.9523L12.2644 12.89C15.1584 9.99613 19.006 8.40226 23.0986 8.40226H28.4296C31.9207 8.40226 35.2027 7.04275 37.6711 4.57433L37.7333 4.51209C37.946 4.2994 38.2289 4.18208 38.5298 4.18208C38.8307 4.18208 39.1134 4.29921 39.3262 4.512V4.51209C39.7654 4.95116 39.7654 5.6657 39.3262 6.10495L39.264 6.16719C36.7423 8.68885 33.5457 10.2124 30.02 10.5733C29.5517 10.6212 29.1956 11.0156 29.1956 11.4865V17.6549H22.3329ZM45.164 45.1641H35.9843V33.7812H45.164V45.1641Z" fill="#5E72E4"/>
<path d="M21.9239 29.6374C22.0946 29.4668 22.192 29.23 22.192 28.9885C22.192 28.7471 22.0946 28.5103 21.9239 28.3395C21.7522 28.1688 21.5163 28.0706 21.2749 28.0706C21.0335 28.0706 20.7966 28.1687 20.625 28.3395C20.4542 28.5103 20.3569 28.7471 20.3569 28.9885C20.3569 29.23 20.4542 29.4668 20.625 29.6374C20.7966 29.8082 21.0326 29.9065 21.2749 29.9065C21.5163 29.9065 21.7522 29.8083 21.9239 29.6374Z" fill="#5E72E4"/>
</svg>
