<svg width="35" height="35" viewBox="0 0 35 35" fill="none" xmlns="http://www.w3.org/2000/svg">
<path d="M30.9362 14.7082L29.6171 14.4446C29.1829 14.3577 28.8455 14.0208 28.7591 13.5866L28.5168 12.3752C29.0216 12.0023 29.4306 11.5095 29.7035 10.938H30.0781C31.2845 10.938 32.2656 9.95695 32.2656 8.75055C32.2656 8.25781 32.0961 7.80773 31.8199 7.44187L32.0201 6.84141C32.183 6.35141 32.2656 5.84336 32.2656 5.3282C32.2656 2.69172 30.1208 0.546875 27.4837 0.546875H26.034C24.6892 0.546875 23.4358 1.1807 22.639 2.25312L22.2403 2.3532C21.9302 2.43031 21.647 2.56266 21.3943 2.73438H1.64062V16.9531H6.9557L6.13539 20.2344H0.546875V21.3281H34.4531V18.9973C34.4531 16.9192 32.9738 15.1156 30.9362 14.7082ZM14.8854 16.9531L15.7057 20.2344H9.99742L10.8177 16.9531H14.8854ZM16.013 16.9531H18.5609C18.2339 17.5684 18.0469 18.2651 18.0469 18.9973V20.2344H16.8334L16.013 16.9531ZM19.1406 18.9973C19.1406 17.4387 20.2497 16.0858 21.7782 15.7801L22.2403 15.6877L24.307 20.2344H19.1406V18.9973ZM24.2233 14.9105L25.241 15.4191L23.8323 16.5463L23.3341 15.4503C23.6748 15.342 23.9788 15.1572 24.2233 14.9105ZM26.4026 16.9531H26.0974L25.882 16.3073L26.25 16.013L26.618 16.3073L26.4026 16.9531ZM25.1415 17.5443L24.9118 18.9219L24.2993 17.5738L24.972 17.0357L25.1415 17.5443ZM26.1663 18.0469H26.3337L26.6984 20.2344H25.8016L26.1663 18.0469ZM27.3585 17.5443L27.528 17.0357L28.2007 17.5738L27.5882 18.9219L27.3585 17.5443ZM29.1659 15.4509L28.6677 16.5468L27.259 15.4197L28.2767 14.9111C28.5212 15.1572 28.8252 15.342 29.1659 15.4509ZM27.6866 13.8004C27.6976 13.8551 27.7162 13.907 27.7309 13.9601L26.25 14.7011L24.7685 13.9606C24.7833 13.9076 24.8019 13.8556 24.8128 13.8009L24.9916 12.9084C25.3865 13.0463 25.8087 13.125 26.25 13.125C26.6913 13.125 27.1135 13.0463 27.5084 12.9079L27.6866 13.8004ZM28.9844 9.29688C28.9844 10.8046 27.7577 12.0312 26.25 12.0312C24.7423 12.0312 23.5156 10.8046 23.5156 9.29688V7.17664C23.5156 6.42523 24.0231 5.77281 24.7505 5.58687C25.0059 6.16109 25.5817 6.5625 26.25 6.5625H28.4375C28.7388 6.5625 28.9844 6.8075 28.9844 7.10938V9.29688ZM30.0781 9.84375H30.0344C30.0601 9.66438 30.0781 9.48281 30.0781 9.29688V7.65625C30.6813 7.65625 31.1719 8.1468 31.1719 8.75C31.1719 9.3532 30.6813 9.84375 30.0781 9.84375ZM22.5055 3.41359L23.3062 3.21344L23.4232 3.03789C24.0067 2.16289 24.9829 1.64062 26.034 1.64062H27.4837C29.5176 1.64062 31.1719 3.29492 31.1719 5.3282C31.1719 5.72523 31.1079 6.11734 30.9827 6.49469L30.905 6.72711C30.6496 6.62266 30.3707 6.5625 30.0781 6.5625H29.9775C29.7511 5.92758 29.1495 5.46875 28.4375 5.46875H26.25C25.9487 5.46875 25.7031 5.22375 25.7031 4.92188C25.7031 4.62 25.9487 4.375 26.25 4.375H26.7969V3.28125H26.25C25.4986 3.28125 24.8631 3.7893 24.6701 4.47945L24.4929 4.52375C23.4784 4.7775 22.727 5.57812 22.5001 6.5625H22.4219C22.1468 6.5625 21.8865 6.61937 21.6442 6.7118C21.4993 6.20812 21.3281 5.49336 21.3281 4.92188C21.3281 4.20711 21.8121 3.5875 22.5055 3.41359ZM22.4219 7.65625V9.29688C22.4219 9.48281 22.4399 9.66438 22.4656 9.84375H22.4219C21.8187 9.84375 21.3281 9.3532 21.3281 8.75C21.3281 8.1468 21.8187 7.65625 22.4219 7.65625ZM2.73438 3.82812H20.4794C20.3263 4.16445 20.2344 4.53305 20.2344 4.92188C20.2344 5.80125 20.5434 6.88352 20.7107 7.40414C20.417 7.77656 20.2344 8.23977 20.2344 8.75C20.2344 9.95641 21.2155 10.9375 22.4219 10.9375H22.7965C23.0694 11.509 23.4784 12.0017 23.9832 12.3747L23.7409 13.586C23.654 14.0202 23.3171 14.3571 22.8829 14.4441L21.5638 14.7077C20.7178 14.8766 19.9713 15.289 19.3834 15.8588H2.73438V3.82812ZM8.08336 16.9531H9.69008L8.86977 20.2344H7.26305L8.08336 16.9531ZM33.3594 20.2344H28.193L30.2597 15.6877L30.7218 15.7801C32.2503 16.0858 33.3594 17.4393 33.3594 18.9973V20.2344Z" fill="white"/>
<path d="M19.1406 6.01562H12.5781V8.20312H10.3906V4.92188H3.82812V11.4844H7.10938V14.7656H14.7656V11.4844H19.1406V6.01562ZM4.92188 6.01562H9.29688V10.3906H4.92188V6.01562ZM13.6719 13.6719H8.20312V11.4844H10.3906V9.29688H13.6719V13.6719ZM18.0469 10.3906H14.7656V8.20312H13.6719V7.10938H18.0469V10.3906Z" fill="white"/>
<path d="M30.8924 29.1769C31.745 28.4588 32.2656 27.3908 32.2656 26.25V25.7031C32.2656 23.8935 30.794 22.4219 28.9844 22.4219H27.8906C26.081 22.4219 24.6094 23.8935 24.6094 25.7031V26.25C24.6094 27.3913 25.1305 28.4599 25.982 29.1769C24.657 29.5548 23.5752 30.4642 22.9649 31.6542C22.3497 30.4653 21.2658 29.5591 19.9577 29.1807C20.7944 28.478 21.3281 27.4252 21.3281 26.25V25.7031C21.3281 23.8935 19.8565 22.4219 18.0469 22.4219H16.9531C15.1435 22.4219 13.6719 23.8935 13.6719 25.7031V26.25C13.6719 27.4252 14.2056 28.478 15.0423 29.1807C13.7326 29.5597 12.6481 30.467 12.0334 31.658C11.4193 30.467 10.3337 29.557 9.02398 29.1774C9.85852 28.4747 10.3906 27.4236 10.3906 26.25V25.1562C10.3906 23.6485 9.16398 22.4219 7.65625 22.4219H3.82812C3.22492 22.4219 2.73438 22.9124 2.73438 23.5156V26.25C2.73438 27.4252 3.26813 28.478 4.10484 29.1807C2.05297 29.7741 0.546875 31.6657 0.546875 33.9062V34.4531H34.4531V33.9062C34.4531 31.6712 32.9711 29.7697 30.8924 29.1769ZM29.5312 30.0781C29.5312 30.6813 29.0407 31.1719 28.4375 31.1719C27.8343 31.1719 27.3438 30.6813 27.3438 30.0781C27.3438 30.0234 27.3574 29.9726 27.3651 29.9201C27.7102 30.0207 28.0716 30.0781 28.4375 30.0781C28.8034 30.0781 29.1654 30.0207 29.5099 29.9201C29.5176 29.9726 29.5312 30.0234 29.5312 30.0781ZM25.7031 26.25V25.7031C25.7031 24.4967 26.6842 23.5156 27.8906 23.5156H28.9844C30.1908 23.5156 31.1719 24.4967 31.1719 25.7031V26.25C31.1719 27.3038 30.5545 28.2751 29.5947 28.7262C28.8936 29.0637 27.9858 29.0659 27.2759 28.7241C26.3205 28.2751 25.7031 27.3038 25.7031 26.25ZM14.7656 26.25V25.7031C14.7656 24.4967 15.7467 23.5156 16.9531 23.5156H18.0469C19.2533 23.5156 20.2344 24.4967 20.2344 25.7031V26.25C20.2344 27.7577 19.0077 28.9844 17.5 28.9844C15.9923 28.9844 14.7656 27.7577 14.7656 26.25ZM16.4062 30.0781H18.5938C20.5182 30.0781 22.1112 31.5077 22.3781 33.3594H12.6219C12.8888 31.5077 14.4818 30.0781 16.4062 30.0781ZM3.82812 26.25V23.5156H7.65625C8.56078 23.5156 9.29688 24.2517 9.29688 25.1562V26.25C9.29688 27.7577 8.07023 28.9844 6.5625 28.9844C5.05477 28.9844 3.82812 27.7577 3.82812 26.25ZM1.67945 33.3594C1.94578 31.5066 3.5432 30.0781 5.46875 30.0781H7.65625C9.5818 30.0781 11.1792 31.5066 11.4455 33.3594H1.67945ZM23.5583 33.3594C23.7705 31.8702 24.8314 30.6496 26.2653 30.2323C26.3463 31.3655 27.2841 32.2656 28.4375 32.2656C29.5903 32.2656 30.5282 31.366 30.6091 30.2334C32.0436 30.6507 33.1089 31.8702 33.3205 33.3594H23.5583Z" fill="white"/>
</svg>
