<svg xmlns="http://www.w3.org/2000/svg" xmlns:xlink="http://www.w3.org/1999/xlink" viewBox="0 0 248.37 212.1"><defs><style>.cls-1,.cls-15{fill:#0f054c;}.cls-1{opacity:0.5;}.cls-2{fill:#dd821f;}.cls-3{fill:#ffd85a;}.cls-4{fill:#f9bf30;}.cls-5{fill:#f2b42a;}.cls-13,.cls-16,.cls-6{opacity:0.8;}.cls-6{fill:url(#Безымянный_градиент_33);}.cls-7{fill:url(#Безымянный_градиент_424);}.cls-8{fill:url(#Безымянный_градиент_2);}.cls-10,.cls-9{fill:#24126a;}.cls-9{opacity:0.6;}.cls-11,.cls-13{fill:#453c9e;}.cls-12{opacity:0.96;fill:url(#Безымянный_градиент_480);}.cls-14{opacity:0.32;}.cls-15{opacity:0.3;}.cls-16{fill:url(#Безымянный_градиент_33-2);}</style><linearGradient id="Безымянный_градиент_33" y1="178.5" x2="116.33" y2="178.5" gradientUnits="userSpaceOnUse"><stop offset="0" stop-color="#e9e9fd"/><stop offset="0.13" stop-color="#eae4fb"/><stop offset="0.28" stop-color="#ebd7f4"/><stop offset="0.43" stop-color="#eec1e8"/><stop offset="0.59" stop-color="#f1a2d9"/><stop offset="0.75" stop-color="#f67ac4"/><stop offset="0.91" stop-color="#fb4aab"/><stop offset="1" stop-color="#ff2c9c"/></linearGradient><linearGradient id="Безымянный_градиент_424" x1="2080.99" y1="-856.49" x2="2132.7" y2="-949.59" gradientTransform="translate(1906.07 1540.24) rotate(-120.15)" gradientUnits="userSpaceOnUse"><stop offset="0" stop-color="#5761d7"/><stop offset="0.04" stop-color="#5c66d9"/><stop offset="0.09" stop-color="#6a73df"/><stop offset="0.14" stop-color="#8289e8"/><stop offset="0.19" stop-color="#a3a7f5"/><stop offset="0.22" stop-color="#bcbeff"/></linearGradient><linearGradient id="Безымянный_градиент_2" x1="2144.51" y1="-856.16" x2="2110.1" y2="-923.44" gradientTransform="translate(1906.07 1540.24) rotate(-120.15)" gradientUnits="userSpaceOnUse"><stop offset="0" stop-color="#c0bff6"/><stop offset="0.29" stop-color="#c5c4f7"/><stop offset="0.64" stop-color="#d3d2f9"/><stop offset="1" stop-color="#e9e9fd"/></linearGradient><linearGradient id="Безымянный_градиент_480" x1="2194.62" y1="-714.4" x2="2086.78" y2="-905.49" gradientTransform="translate(1906.07 1540.24) rotate(-120.15)" gradientUnits="userSpaceOnUse"><stop offset="0" stop-color="#c0bff6"/><stop offset="0.12" stop-color="#d0cff9"/><stop offset="0.26" stop-color="#e9e9fd"/><stop offset="0.51" stop-color="#c0bff6"/><stop offset="0.62" stop-color="#d0cff9"/><stop offset="0.75" stop-color="#e9e9fd"/><stop offset="1" stop-color="#c0bff6"/></linearGradient><linearGradient id="Безымянный_градиент_33-2" x1="176.02" y1="170.11" x2="220.09" y2="170.11" xlink:href="#Безымянный_градиент_33"/></defs><g id="Слой_2" data-name="Слой 2"><g id="Слой_1-2" data-name="Слой 1"><polygon class="cls-1" points="113.85 192.03 248.37 107.46 193.57 73.08 108.28 132.49 69.58 180.72 113.85 192.03"/><ellipse class="cls-1" cx="158.09" cy="55.78" rx="8.09" ry="26.38" transform="translate(53.22 186.58) rotate(-70.71)"/><polygon class="cls-2" points="168.01 31.72 167.84 27.38 166.83 24.84 166.19 26.94 168.01 31.72"/><path class="cls-3" d="M122.47,32.55l-.17-4.26s3.6,3.59,3.6,3.68S122.47,32.55,122.47,32.55Z"/><path class="cls-3" d="M145.55,45.18c12.58-.3,22.56-6.7,22.29-17.8S157.16,7.52,144.59,7.83,122,17.37,122.3,28.47,133,45.48,145.55,45.18Z"/><ellipse class="cls-3" cx="145.24" cy="32.27" rx="22.78" ry="20.11" transform="translate(-0.73 3.49) rotate(-1.37)"/><path class="cls-2" d="M161.13,17.78A18.88,18.88,0,0,1,168,31.72c.27,11.1-9.71,20.35-22.29,20.65A24.32,24.32,0,0,1,129.62,47Z"/><ellipse class="cls-4" cx="145.24" cy="32.27" rx="21.76" ry="19.21" transform="translate(-0.73 3.49) rotate(-1.37)"/><ellipse class="cls-5" cx="145.24" cy="32.27" rx="17.47" ry="15.42" transform="translate(-0.73 3.49) rotate(-1.37)"/><path class="cls-3" d="M127.78,32.68c0-.35,0-.7,0-1.05.8,8,8.52,14.18,17.76,14s16.66-6.75,17.08-14.79c0,.35.06.69.07,1.05.2,8.51-7.45,15.6-17.1,15.83S128,41.2,127.78,32.68Z"/><path class="cls-3" d="M141.89,33.57l3.58-3.32c3.45.78,9.88,2.24,15,3.45A14.63,14.63,0,0,1,152,42.39Z"/><path class="cls-3" d="M147.53,43.57c-.57.07-1.15.11-1.74.13a16.71,16.71,0,0,1-10.94-3.61l5.84-5.41Z"/><path class="cls-3" d="M149.32,26.69l6.74-6.25c2.27,2,4.3,4.17,4.85,7.09Z"/><path class="cls-2" d="M145.79,18.69c-9.65.23-17.3,7.32-17.1,15.84a13.78,13.78,0,0,0,1,4.91,14,14,0,0,1-1.95-6.76c-.2-8.51,7.45-15.6,17.09-15.83,7.69-.19,14.32,4,16.8,10.09C158.7,21.9,152.67,18.53,145.79,18.69Z"/><path class="cls-2" d="M167.84,27.38a15.24,15.24,0,0,1-.19,4.39c-.51-1.62-1.59-6.5-1.59-6.5l-1.74-3.87-1.44-1.19-2.45-1.78-.2-5.58A19,19,0,0,1,167.84,27.38Z"/><path class="cls-2" d="M123.77,26.81l-.09-1.14a.29.29,0,0,0-.29-.29h-.09a.29.29,0,0,0-.27.3l.1,1.15a.29.29,0,0,0,.28.29h.09A.29.29,0,0,0,123.77,26.81Z"/><path class="cls-2" d="M125.77,22.43l-.11-2.06a.33.33,0,0,0-.33-.33h-.2a.32.32,0,0,0-.31.34l.12,2.06a.33.33,0,0,0,.32.33h.2A.32.32,0,0,0,125.77,22.43Z"/><path class="cls-2" d="M128.55,18.6l-.12-2a.37.37,0,0,0-.37-.37h-.35a.39.39,0,0,0-.35.4l.12,2a.36.36,0,0,0,.37.37h.35A.39.39,0,0,0,128.55,18.6Z"/><path class="cls-2" d="M132.7,15.52l-.13-2.42a.36.36,0,0,0-.37-.37h-.34a.36.36,0,0,0-.35.39l.12,2.41a.38.38,0,0,0,.37.38h.35A.38.38,0,0,0,132.7,15.52Z"/><path class="cls-2" d="M136.88,13.49l-.14-2.78a.37.37,0,0,0-.37-.38H136a.38.38,0,0,0-.35.39l.14,2.79a.37.37,0,0,0,.37.37h.35A.38.38,0,0,0,136.88,13.49Z"/><path class="cls-2" d="M141.07,12.25l-.13-2.67a.38.38,0,0,0-.37-.38h-.35a.38.38,0,0,0-.35.39l.14,2.68a.36.36,0,0,0,.36.37h.35A.36.36,0,0,0,141.07,12.25Z"/><path class="cls-2" d="M145.29,11.83l-.14-2.72a.37.37,0,0,0-.36-.37h-.35a.36.36,0,0,0-.35.39l.13,2.72a.38.38,0,0,0,.37.37h.35A.37.37,0,0,0,145.29,11.83Z"/><path class="cls-2" d="M149.52,11.92l-.13-2.54A.38.38,0,0,0,149,9h-.35a.36.36,0,0,0-.35.39l.13,2.55a.37.37,0,0,0,.37.37h.35A.38.38,0,0,0,149.52,11.92Z"/><path class="cls-2" d="M153.76,12.85l-.12-2.47a.37.37,0,0,0-.37-.37h-.35a.36.36,0,0,0-.35.39l.13,2.46a.38.38,0,0,0,.37.38h.34A.37.37,0,0,0,153.76,12.85Z"/><path class="cls-2" d="M158,14.92l-.13-2.67a.37.37,0,0,0-.37-.37h-.35a.37.37,0,0,0-.35.39L157,15a.37.37,0,0,0,.37.37h.35A.37.37,0,0,0,158,14.92Z"/><path class="cls-6" d="M99,212.1a1.53,1.53,0,0,1-.72-.17L.4,155.76a.73.73,0,0,1-.4-.63.88.88,0,0,1,.49-.73l16-9.26a1.71,1.71,0,0,1,1.61-.06l97.88,56.16a.73.73,0,0,1,.4.63.85.85,0,0,1-.49.73l-16,9.27A1.82,1.82,0,0,1,99,212.1ZM17.33,145.65a1.06,1.06,0,0,0-.52.13L.86,155a.28.28,0,0,0-.12.11l97.91,56.13a1,1,0,0,0,.87-.05l16-9.27c.11-.06.13-.1.13-.1L17.69,145.72A.77.77,0,0,0,17.33,145.65Z"/><path class="cls-7" d="M.37,139.83l0,9h0a.38.38,0,0,0,.21.33L98.5,205.32a1.39,1.39,0,0,0,1.24,0l16-9.27a.54.54,0,0,0,.29-.36h0v0l0-9.09-7.74,4.42L17.91,139.12a1.38,1.38,0,0,0-1.25,0l-5.47,3.18Z"/><path class="cls-8" d="M17.87,130.07l97.88,56.16c.32.19.28.51-.09.72l-16,9.27a1.38,1.38,0,0,1-1.25.05L.59,140.11c-.32-.18-.28-.5.08-.72l16-9.26A1.37,1.37,0,0,1,17.87,130.07Z"/><path class="cls-9" d="M21.41,143.6l76.91,43.33a52.9,52.9,0,0,1,2.63-9.19L24.18,133.69A51.94,51.94,0,0,0,21.41,143.6Z"/><path class="cls-10" d="M14.48,135.27l92.29,52.95c.22.13.19.35-.06.49l-4,2.33a1,1,0,0,1-.85,0l-92.29-53c-.22-.12-.19-.34.06-.49l4-2.33A1,1,0,0,1,14.48,135.27Z"/><path class="cls-11" d="M9.56,138.12l1.88,1.08,2.16-1.26a1,1,0,0,1,.85,0l90.42,51.88,1.84-1.08c.25-.14.28-.36.06-.49L14.48,135.27a1,1,0,0,0-.85,0l-4,2.33C9.37,137.78,9.34,138,9.56,138.12Z"/><path class="cls-12" d="M247.13,44.06,170.35,0h0c0,13.76-9.57,30.51-21.47,37.42L43.07,98.89c-14,8.12-25.28,27.81-25.24,44h0l76.78,44.06h0c0-16.17,11.26-35.87,25.24-44L225.66,81.48c11.9-6.91,21.51-23.67,21.47-37.42Z"/><path class="cls-13" d="M17.83,142.87l76.78,44.06c0-.71,0-1.43.07-2.15h0l-76.77-44C17.86,141.45,17.83,142.16,17.83,142.87Z"/><g class="cls-14"><polygon class="cls-11" points="129.01 109.83 146.41 119.81 144.73 120.78 127.34 110.81 129.01 109.83"/><polygon class="cls-11" points="120.1 104.72 126.36 108.31 124.69 109.28 118.42 105.69 120.1 104.72"/><polygon class="cls-11" points="113.19 100.75 117.44 103.19 115.77 104.16 111.51 101.72 113.19 100.75"/><polygon class="cls-11" points="140.75 112.16 150.23 117.59 148.56 118.56 139.08 113.13 140.75 112.16"/><polygon class="cls-11" points="126.48 103.97 138.09 110.63 136.42 111.6 124.81 104.94 126.48 103.97"/><polygon class="cls-11" points="119.57 100 123.83 102.44 122.15 103.42 117.9 100.97 119.57 100"/><polygon class="cls-11" points="112.99 96.23 117.25 98.67 115.58 99.64 111.32 97.2 112.99 96.23"/><polygon class="cls-11" points="147.19 111.44 154.05 115.37 152.38 116.34 145.52 112.41 147.19 111.44"/><polygon class="cls-11" points="142.19 108.57 144.54 109.91 142.86 110.89 140.52 109.54 142.19 108.57"/><polygon class="cls-11" points="135.28 104.6 139.54 107.05 137.86 108.02 133.61 105.58 135.28 104.6"/><polygon class="cls-11" points="132.57 98.63 157.87 113.15 156.2 114.12 130.89 99.6 132.57 98.63"/><polygon class="cls-11" points="123.65 93.52 129.91 97.11 128.24 98.08 121.97 94.49 123.65 93.52"/><polygon class="cls-11" points="154.84 107 161.69 110.93 160.02 111.9 153.16 107.97 154.84 107"/><polygon class="cls-11" points="138.75 97.77 152.18 105.47 150.51 106.45 137.07 98.74 138.75 97.77"/><polygon class="cls-11" points="131.84 93.8 136.09 96.24 134.42 97.21 130.16 94.77 131.84 93.8"/><polygon class="cls-11" points="151.49 100.66 165.51 108.71 163.84 109.68 149.81 101.64 151.49 100.66"/><polygon class="cls-11" points="138.69 93.32 148.83 99.14 147.16 100.11 137.01 94.29 138.69 93.32"/><polygon class="cls-11" points="129.17 87.86 136.03 91.79 134.36 92.77 127.5 88.83 129.17 87.86"/><polygon class="cls-11" points="164.6 103.77 169.34 106.49 167.66 107.46 162.93 104.75 164.6 103.77"/><polygon class="cls-11" points="155.68 98.66 161.94 102.25 160.27 103.22 154.01 99.63 155.68 98.66"/><polygon class="cls-11" points="142.94 91.34 153.02 97.13 151.35 98.1 141.26 92.31 142.94 91.34"/><polygon class="cls-11" points="158.65 95.94 173.16 104.27 171.49 105.24 156.97 96.92 158.65 95.94"/><polygon class="cls-11" points="142.39 86.62 155.99 94.42 154.32 95.39 140.72 87.59 142.39 86.62"/><polygon class="cls-11" points="135.48 82.65 139.73 85.09 138.06 86.06 133.81 83.62 135.48 82.65"/><polygon class="cls-11" points="128.85 78.84 133.1 81.29 131.43 82.26 127.17 79.82 128.85 78.84"/><polygon class="cls-11" points="168.28 97.06 176.98 102.05 175.31 103.02 166.61 98.03 168.28 97.06"/><polygon class="cls-11" points="93.74 89.59 81.68 82.67 80.01 83.65 92.07 90.56 93.74 89.59"/><polygon class="cls-11" points="94.98 85.89 85.5 80.45 83.83 81.43 93.31 86.86 94.98 85.89"/><polygon class="cls-11" points="96.18 82.17 89.33 78.23 87.65 79.21 94.51 83.14 96.18 82.17"/><polygon class="cls-11" points="103.12 81.74 93.15 76.01 91.47 76.99 101.45 82.71 103.12 81.74"/><polygon class="cls-11" points="103.83 77.73 96.97 73.79 95.3 74.77 102.15 78.7 103.83 77.73"/><polygon class="cls-11" points="109.49 76.56 100.79 71.57 99.12 72.55 107.81 77.53 109.49 76.56"/><polygon class="cls-11" points="109.35 72.07 104.61 69.35 102.94 70.33 107.68 73.04 109.35 72.07"/><polygon class="cls-11" points="117.62 72.4 108.44 67.13 106.76 68.11 115.94 73.37 117.62 72.4"/><polygon class="cls-11" points="120.95 69.9 112.26 64.91 110.58 65.89 119.28 70.87 120.95 69.9"/><polygon class="cls-11" points="161.93 93.42 165.63 95.54 163.96 96.51 160.26 94.39 161.93 93.42"/><polygon class="cls-11" points="150.95 87.11 159.27 91.89 157.6 92.86 149.28 88.09 150.95 87.11"/><polygon class="cls-11" points="161.35 70.08 175.39 78.14 173.72 79.11 159.67 71.05 161.35 70.08"/><polygon class="cls-11" points="151.73 64.56 157.26 67.74 155.59 68.71 150.05 65.53 151.73 64.56"/></g><ellipse class="cls-15" cx="112.22" cy="105.68" rx="10.42" ry="33.97" transform="translate(-24.59 176.69) rotate(-70.71)"/><polygon class="cls-2" points="124.99 74.69 124.77 69.11 123.47 65.84 122.64 68.54 124.99 74.69"/><path class="cls-3" d="M66.35,75.76l-.22-5.48S70.77,74.9,70.77,75,66.35,75.76,66.35,75.76Z"/><path class="cls-3" d="M96.07,92c16.19-.39,29-8.62,28.69-22.91S111,43.54,94.83,43.93s-29,12.29-28.69,26.58S79.88,92.41,96.07,92Z"/><ellipse class="cls-3" cx="95.67" cy="75.4" rx="29.32" ry="25.89" transform="translate(-1.78 2.31) rotate(-1.37)"/><path class="cls-2" d="M116.13,56.75A24.35,24.35,0,0,1,125,74.69c.34,14.3-12.51,26.2-28.7,26.59a31.31,31.31,0,0,1-20.73-7Z"/><ellipse class="cls-4" cx="95.67" cy="75.4" rx="28.01" ry="24.73" transform="translate(-1.78 2.31) rotate(-1.37)"/><ellipse class="cls-5" cx="95.67" cy="75.4" rx="22.49" ry="19.85" transform="translate(-1.78 2.31) rotate(-1.37)"/><path class="cls-3" d="M73.19,75.93c0-.45,0-.9,0-1.35,1,10.32,11,18.25,22.87,18s21.45-8.68,22-19c0,.45.07.89.09,1.35.26,11-9.6,20.09-22,20.38S73.45,86.9,73.19,75.93Z"/><path class="cls-3" d="M91.36,77.07,96,72.8c4.44,1,12.72,2.89,19.33,4.44a18.84,18.84,0,0,1-10.89,11.2Z"/><path class="cls-3" d="M98.62,90c-.74.09-1.48.15-2.24.17a21.52,21.52,0,0,1-14.09-4.65l7.53-7Z"/><path class="cls-3" d="M100.92,68.22l8.68-8c2.93,2.55,5.54,5.36,6.24,9.13Z"/><path class="cls-2" d="M96.37,57.92c-12.41.3-22.27,9.43-22,20.39a17.68,17.68,0,0,0,1.33,6.32,17.89,17.89,0,0,1-2.51-8.7c-.26-11,9.59-20.08,22-20.38,9.9-.24,18.43,5.21,21.62,13C113,62.05,105.23,57.71,96.37,57.92Z"/><path class="cls-2" d="M124.76,69.11a19,19,0,0,1-.25,5.65c-.64-2.09-2-8.36-2-8.36l-2.23-5-1.86-1.53-3.15-2.29L115,50.4A24.47,24.47,0,0,1,124.76,69.11Z"/><path class="cls-2" d="M68,68.38l-.12-1.48a.37.37,0,0,0-.37-.37h-.11a.37.37,0,0,0-.35.39l.12,1.47a.38.38,0,0,0,.37.38h.11A.38.38,0,0,0,68,68.38Z"/><path class="cls-2" d="M70.61,62.73l-.16-2.65a.41.41,0,0,0-.41-.42h-.26a.43.43,0,0,0-.4.45l.15,2.65a.42.42,0,0,0,.42.42h.26A.44.44,0,0,0,70.61,62.73Z"/><path class="cls-2" d="M74.18,57.81,74,55.24a.48.48,0,0,0-.48-.48H73.1a.49.49,0,0,0-.45.5l.15,2.57a.48.48,0,0,0,.48.48h.45A.48.48,0,0,0,74.18,57.81Z"/><path class="cls-2" d="M79.52,53.83l-.16-3.11a.48.48,0,0,0-.47-.48h-.45a.48.48,0,0,0-.45.51l.16,3.11a.48.48,0,0,0,.47.48h.45A.48.48,0,0,0,79.52,53.83Z"/><path class="cls-2" d="M84.9,51.22l-.17-3.58a.48.48,0,0,0-.48-.48H83.8a.48.48,0,0,0-.45.5l.18,3.59a.48.48,0,0,0,.47.48h.45A.48.48,0,0,0,84.9,51.22Z"/><path class="cls-2" d="M90.3,49.63l-.17-3.44a.47.47,0,0,0-.47-.48h-.45a.47.47,0,0,0-.45.5l.17,3.44a.49.49,0,0,0,.47.49l.45,0A.47.47,0,0,0,90.3,49.63Z"/><path class="cls-2" d="M95.73,49.09l-.17-3.5a.48.48,0,0,0-.48-.48h-.45a.49.49,0,0,0-.45.5l.18,3.5a.47.47,0,0,0,.47.48h.45A.47.47,0,0,0,95.73,49.09Z"/><path class="cls-2" d="M101.17,49.2,101,45.93a.47.47,0,0,0-.48-.48h-.45a.48.48,0,0,0-.45.5l.17,3.28a.48.48,0,0,0,.47.48h.45A.48.48,0,0,0,101.17,49.2Z"/><path class="cls-2" d="M106.64,50.39l-.16-3.17a.48.48,0,0,0-.48-.48h-.45a.49.49,0,0,0-.45.5l.17,3.18a.48.48,0,0,0,.47.48h.45A.48.48,0,0,0,106.64,50.39Z"/><path class="cls-2" d="M112.15,53.07,112,49.63a.48.48,0,0,0-.48-.48h-.45a.49.49,0,0,0-.45.5l.17,3.44a.48.48,0,0,0,.48.48h.45A.49.49,0,0,0,112.15,53.07Z"/><ellipse class="cls-1" cx="213.17" cy="176.36" rx="9.15" ry="29.82" transform="translate(-23.7 319.3) rotate(-70.71)"/><path class="cls-16" d="M198.06,183a31.68,31.68,0,0,1-15.51-3.71c-4.21-2.43-6.53-5.68-6.53-9.16s2.32-6.74,6.53-9.17c8.55-4.93,22.46-4.93,31,0,4.21,2.43,6.53,5.69,6.53,9.17s-2.32,6.73-6.53,9.16h0A31.67,31.67,0,0,1,198.06,183Zm0-25a30.92,30.92,0,0,0-15.13,3.61c-4,2.3-6.16,5.32-6.16,8.53s2.19,6.23,6.16,8.52c8.35,4.82,21.92,4.82,30.27,0h0c4-2.29,6.16-5.32,6.16-8.52s-2.19-6.23-6.16-8.53A31,31,0,0,0,198.05,158Z"/><polygon class="cls-2" points="224.38 149.16 224.18 144.25 223.04 141.38 222.32 143.76 224.38 149.16"/><path class="cls-3" d="M172.9,150.09l-.19-4.81s4.07,4.06,4.07,4.16S172.9,150.09,172.9,150.09Z"/><path class="cls-3" d="M199,164.37c14.22-.34,25.49-7.57,25.19-20.12s-12.06-22.44-26.28-22.1-25.49,10.79-25.19,23.33S184.78,164.71,199,164.37Z"/><ellipse class="cls-3" cx="198.64" cy="149.77" rx="25.74" ry="22.73" transform="translate(-3.53 4.8) rotate(-1.37)"/><path class="cls-2" d="M216.6,133.4a21.39,21.39,0,0,1,7.78,15.76c.3,12.54-11,23-25.19,23.33A27.54,27.54,0,0,1,181,166.4Z"/><ellipse class="cls-4" cx="198.64" cy="149.77" rx="24.59" ry="21.71" transform="translate(-3.53 4.8) rotate(-1.37)"/><ellipse class="cls-5" cx="198.64" cy="149.77" rx="19.74" ry="17.43" transform="translate(-3.53 4.8) rotate(-1.37)"/><path class="cls-3" d="M178.9,150.24c0-.39,0-.79,0-1.18.9,9.05,9.62,16,20.07,15.77s18.83-7.63,19.3-16.71c0,.39.07.78.08,1.18.23,9.62-8.42,17.64-19.32,17.9S179.13,159.87,178.9,150.24Z"/><path class="cls-3" d="M194.86,151.24l4-3.75c3.9.89,11.17,2.54,17,3.9a16.51,16.51,0,0,1-9.56,9.83Z"/><path class="cls-3" d="M201.23,162.55a18.26,18.26,0,0,1-2,.14,18.9,18.9,0,0,1-12.38-4.07l6.61-6.12Z"/><path class="cls-3" d="M203.25,143.47l7.62-7.07c2.57,2.24,4.86,4.71,5.48,8Z"/><path class="cls-2" d="M199.26,134.43c-10.9.26-19.55,8.27-19.32,17.9a15.47,15.47,0,0,0,1.17,5.55,15.75,15.75,0,0,1-2.21-7.64c-.23-9.62,8.42-17.63,19.32-17.89,8.7-.21,16.19,4.57,19,11.4C213.85,138.06,207,134.24,199.26,134.43Z"/><path class="cls-2" d="M224.18,144.25a16.76,16.76,0,0,1-.22,5c-.56-1.84-1.79-7.35-1.79-7.35l-2-4.38-1.64-1.34-2.76-2-.23-6.32A21.51,21.51,0,0,1,224.18,144.25Z"/><path class="cls-2" d="M174.37,143.61l-.1-1.3a.32.32,0,0,0-.33-.32h-.09a.32.32,0,0,0-.31.34l.11,1.3a.32.32,0,0,0,.32.32h.1A.32.32,0,0,0,174.37,143.61Z"/><path class="cls-2" d="M176.64,138.65l-.14-2.32a.38.38,0,0,0-.37-.38h-.22a.36.36,0,0,0-.35.39l.13,2.33a.38.38,0,0,0,.37.37h.23A.38.38,0,0,0,176.64,138.65Z"/><path class="cls-2" d="M179.77,134.33l-.13-2.25a.43.43,0,0,0-.42-.43h-.39a.43.43,0,0,0-.4.45l.13,2.25a.42.42,0,0,0,.42.42h.39A.41.41,0,0,0,179.77,134.33Z"/><path class="cls-2" d="M184.46,130.84l-.14-2.73a.42.42,0,0,0-.42-.42h-.39a.42.42,0,0,0-.4.44l.15,2.73a.41.41,0,0,0,.41.42h.4A.41.41,0,0,0,184.46,130.84Z"/><path class="cls-2" d="M189.18,128.55,189,125.4a.41.41,0,0,0-.41-.42h-.4a.42.42,0,0,0-.39.44l.15,3.15a.41.41,0,0,0,.41.42h.4A.41.41,0,0,0,189.18,128.55Z"/><path class="cls-2" d="M193.93,127.15l-.15-3a.42.42,0,0,0-.42-.42H193a.42.42,0,0,0-.4.44l.15,3a.42.42,0,0,0,.42.42h.39A.42.42,0,0,0,193.93,127.15Z"/><path class="cls-2" d="M198.69,126.68l-.15-3.08a.42.42,0,0,0-.41-.42h-.4a.42.42,0,0,0-.39.44l.15,3.07a.42.42,0,0,0,.41.43h.4A.42.42,0,0,0,198.69,126.68Z"/><path class="cls-2" d="M203.47,126.78l-.15-2.88a.41.41,0,0,0-.41-.42h-.4a.41.41,0,0,0-.39.44l.15,2.88a.42.42,0,0,0,.41.42h.4A.42.42,0,0,0,203.47,126.78Z"/><path class="cls-2" d="M208.27,127.82l-.14-2.78a.43.43,0,0,0-.42-.43h-.39a.43.43,0,0,0-.4.45l.15,2.78a.41.41,0,0,0,.41.42h.4A.41.41,0,0,0,208.27,127.82Z"/><path class="cls-2" d="M213.1,130.17l-.14-3a.42.42,0,0,0-.42-.42h-.39a.41.41,0,0,0-.4.44l.15,3a.42.42,0,0,0,.42.42h.39A.42.42,0,0,0,213.1,130.17Z"/></g></g></svg>