<svg width="531" height="546" viewBox="0 0 531 546" fill="none" xmlns="http://www.w3.org/2000/svg">
<g opacity="0.228091">
<path opacity="0.228091" d="M433 269.5C433 363.53 356.53 440 262.5 440C168.47 440 92 363.813 92 269.5C92 175.47 168.47 99 262.5 99C356.813 99 433 175.47 433 269.5Z" fill="url(#paint0_linear)"/>
<path opacity="0.228091" d="M433 269.5C433 363.53 356.53 440 262.5 440C168.47 440 92 363.813 92 269.5C92 175.47 168.47 99 262.5 99C356.813 99 433 175.47 433 269.5Z" fill="url(#paint1_linear)"/>
</g>
<path d="M399.95 456.272C399.95 456.272 399.654 456.568 398.914 457.012C398.322 457.456 397.286 458.195 396.103 458.935C394.919 459.675 393.292 460.711 391.664 461.746C389.889 462.93 387.965 464.114 385.746 465.297C377.017 470.476 364.884 476.542 352.308 481.276C339.732 486.011 326.564 489.414 316.651 491.337C314.136 491.781 311.916 492.225 309.845 492.521C307.774 492.817 305.998 492.965 304.519 493.261C301.56 493.705 299.932 493.852 299.932 493.852" stroke="#5FC6FF" stroke-width="0.5175" stroke-miterlimit="10"/>
<path d="M213.527 483.792C213.527 483.792 212.787 483.644 211.455 483.2C210.124 482.756 208.2 482.016 205.685 481.276C203.17 480.537 200.211 479.205 196.66 477.873C193.257 476.542 189.41 474.766 185.267 472.991C177.13 468.996 167.661 464.114 158.192 457.752C148.722 451.39 139.105 443.992 130.228 435.706C112.326 419.283 97.974 399.309 89.2446 383.478C88.061 381.555 87.0253 379.631 86.1376 377.708C85.2499 375.933 84.3621 374.157 83.4744 372.53C81.8469 369.127 80.6633 366.168 79.4796 363.8C78.296 361.433 77.7042 359.362 77.1123 358.03C76.5205 356.699 76.3726 355.959 76.3726 355.959" stroke="#5FC6FF" stroke-width="0.5175" stroke-miterlimit="10"/>
<path d="M325.528 474.915C325.528 474.915 323.901 475.358 320.942 475.95C319.462 476.246 317.687 476.838 315.615 477.134C313.544 477.43 311.177 477.874 308.662 478.318C298.453 479.945 284.841 481.277 271.081 480.833C257.321 480.537 243.71 478.614 233.649 476.394C231.133 475.802 228.914 475.359 226.843 474.767C224.771 474.323 223.144 473.731 221.664 473.287C218.705 472.399 217.078 471.956 217.078 471.956" stroke="#5FC6FF" stroke-width="0.5175" stroke-miterlimit="10"/>
<path d="M449.81 382.443C449.81 382.443 449.514 383.035 448.923 383.922C448.331 384.958 447.443 386.29 446.259 388.213C445.076 389.989 443.744 392.356 441.821 394.723C440.045 397.238 438.122 400.049 435.755 402.861C434.571 404.34 433.387 405.82 432.204 407.447C430.872 408.927 429.54 410.554 428.061 412.182C427.321 412.922 426.581 413.809 425.99 414.697C425.25 415.437 424.51 416.325 423.77 417.064C422.291 418.692 420.663 420.319 419.036 422.095C412.378 428.605 404.832 435.115 396.99 441.181C389.001 447.099 380.568 452.425 372.43 456.864C368.287 458.935 364.293 461.155 360.446 462.782C358.522 463.67 356.599 464.558 354.823 465.298C352.9 466.037 351.125 466.777 349.349 467.369C345.946 468.848 342.691 469.884 339.732 470.772C336.921 471.808 334.258 472.547 332.186 473.139C330.115 473.731 328.487 474.175 327.304 474.471C326.12 474.767 325.528 474.915 325.528 474.915" stroke="#5FC6FF" stroke-width="0.5175" stroke-miterlimit="10"/>
<path d="M476.738 391.764C476.738 391.764 475.259 394.279 472.891 398.57C471.56 400.641 469.932 403.156 468.009 406.116C466.085 409.075 463.866 412.182 461.351 415.585C460.167 417.36 458.688 418.988 457.356 420.763C455.877 422.539 454.545 424.462 452.917 426.237C449.662 429.936 446.407 433.783 442.709 437.63C439.158 441.477 435.015 445.176 431.02 449.022C426.877 452.721 422.587 456.42 418.148 459.823C413.709 463.374 409.123 466.629 404.536 469.736C399.802 472.695 395.215 475.802 390.628 478.317C386.042 480.981 381.455 483.348 377.165 485.567C374.945 486.603 372.874 487.639 370.803 488.526C368.731 489.414 366.66 490.45 364.736 491.19C360.742 492.669 357.191 494.297 353.936 495.332C350.681 496.368 347.87 497.404 345.502 498.143C343.135 498.883 341.212 499.327 340.028 499.771C338.696 500.067 338.104 500.363 338.104 500.363" stroke="#5FC6FF" stroke-width="0.5175" stroke-miterlimit="10"/>
<path d="M231.725 467.369C231.725 467.369 231.133 467.221 230.097 466.925C229.506 466.777 228.914 466.629 228.026 466.481C227.286 466.333 226.399 466.037 225.363 465.741C223.292 465.15 220.924 464.558 218.113 463.67C215.302 462.782 212.195 461.747 208.94 460.563C195.624 455.533 178.313 447.247 162.926 435.855C147.391 424.758 133.927 410.998 125.05 399.754C122.83 396.942 120.759 394.427 119.131 391.912C117.504 389.545 115.876 387.473 114.841 385.698C112.621 382.147 111.29 380.224 111.29 380.224" stroke="#5FC6FF" stroke-width="0.5175" stroke-miterlimit="10"/>
<path d="M321.386 504.506C321.386 504.506 319.462 504.801 316.059 505.393C314.432 505.689 312.36 506.133 309.993 506.429C307.626 506.725 304.963 507.021 302.004 507.465C290.315 508.796 274.78 509.388 259.097 508.204C243.561 507.169 228.026 504.21 216.782 501.103C213.971 500.363 211.307 499.623 209.088 498.883C206.721 498.291 204.797 497.552 203.17 496.96C199.915 495.924 198.139 495.184 198.139 495.184" stroke="#5FC6FF" stroke-width="0.5175" stroke-miterlimit="10"/>
<path d="M352.012 450.946C352.012 450.946 346.242 453.609 337.217 456.716C328.192 459.823 315.763 463.226 303.187 465.001C290.611 466.777 277.739 467.221 268.122 466.777C265.755 466.777 263.535 466.481 261.612 466.333C259.689 466.185 257.913 466.037 256.581 465.889C253.77 465.593 252.291 465.297 252.291 465.297" stroke="#5FC6FF" stroke-width="0.5175" stroke-miterlimit="10"/>
<path d="M96.7903 443.252C96.7903 443.252 103.744 443.992 110.402 444.288C117.208 444.584 123.718 444.436 123.718 444.436C123.718 444.436 123.866 444.584 124.31 444.88C124.606 445.176 125.198 445.767 125.789 446.211C127.121 447.395 129.044 449.022 131.412 451.094C132.595 452.129 133.927 453.165 135.259 454.201C136.59 455.237 138.07 456.42 139.697 457.604C141.177 458.787 142.804 459.971 144.432 461.155C146.059 462.338 147.835 463.522 149.462 464.706C152.865 467.073 156.416 469.144 159.671 471.216C163.074 473.139 166.181 474.915 168.844 476.542C174.319 479.353 178.017 481.277 178.017 481.277C178.017 481.277 178.165 481.572 178.313 482.164C178.609 482.756 178.905 483.644 179.349 484.68C180.237 486.751 181.272 489.414 182.456 492.225C183.048 493.557 183.64 495.036 184.232 496.22C184.823 497.552 185.415 498.587 185.859 499.623C186.895 501.694 187.487 503.026 187.487 503.026C187.487 503.026 188.67 503.47 190.889 504.357C192.961 505.245 196.216 506.281 199.915 507.613C207.46 510.276 217.669 512.939 228.026 515.158C238.383 517.082 248.888 518.709 256.877 519.153C260.872 519.449 264.127 519.745 266.494 519.745C268.862 519.745 270.193 519.893 270.193 519.893" stroke="#5FC6FF" stroke-width="0.5175" stroke-miterlimit="10"/>
<path d="M279.958 452.425C279.958 452.425 279.219 452.425 278.035 452.425C277.443 452.425 276.703 452.425 275.816 452.425C274.928 452.425 274.04 452.425 273.004 452.277C270.933 452.129 268.566 452.277 265.903 451.982C263.387 451.834 260.576 451.538 257.765 451.39C255.102 451.094 252.291 450.65 249.776 450.354C247.26 449.91 244.893 449.466 242.822 449.17C240.75 448.875 239.123 448.431 237.939 448.135C236.755 447.839 236.164 447.691 236.164 447.691C236.164 447.691 233.501 442.364 231.429 436.89C230.393 434.227 229.358 431.564 228.618 429.492C227.878 427.421 227.434 426.089 227.434 426.089C227.434 426.089 226.843 425.942 225.807 425.498C224.771 425.054 223.144 424.758 221.368 423.87C217.521 422.391 212.047 420.171 205.833 416.916C193.109 410.702 177.426 399.754 164.406 386.142C157.896 379.336 151.977 371.938 147.095 364.54C142.064 357.291 138.366 349.893 135.406 343.531C134.667 341.903 133.927 340.424 133.335 338.944C132.743 337.465 132.151 335.985 131.708 334.653C130.524 331.99 129.932 329.623 129.192 327.7C128.896 326.664 128.601 325.924 128.305 325.036C128.009 324.297 127.861 323.557 127.713 323.113C127.417 322.077 127.269 321.485 127.269 321.485C127.269 321.485 126.381 321.19 125.05 320.598C123.57 320.006 121.499 319.266 119.131 318.23C114.397 316.159 107.739 313.052 101.377 309.353C99.7494 308.465 98.1219 307.43 96.6423 306.542C95.1628 305.654 93.6833 304.619 92.2037 303.583C89.2446 301.66 86.5814 299.736 84.2142 298.109C79.7755 294.706 76.6685 292.19 76.6685 292.19" stroke="#5FC6FF" stroke-width="0.5175" stroke-miterlimit="10"/>
<path d="M331.447 438.666C331.447 438.666 332.482 438.222 334.554 437.63C336.477 436.89 339.14 435.854 342.395 434.523C348.757 431.712 357.191 427.569 365.18 422.686C373.17 417.804 380.567 412.034 385.894 407.595C387.225 406.411 388.409 405.376 389.445 404.488C390.48 403.6 391.368 402.713 392.108 401.973C393.588 400.493 394.475 399.754 394.475 399.754C394.475 399.754 395.955 399.901 398.026 400.197C400.098 400.345 402.909 400.641 405.72 400.789C408.531 400.937 411.49 401.085 413.709 401.085C415.929 401.085 417.408 401.085 417.408 401.085C417.408 401.085 417.852 400.493 418.74 399.458C419.184 399.014 419.776 398.274 420.367 397.682C420.959 396.942 421.551 396.055 422.291 395.167C425.25 391.616 428.801 386.734 432.204 381.555C433.092 380.223 433.831 379.04 434.719 377.708C435.607 376.525 436.346 375.193 437.086 374.009C438.566 371.494 439.897 369.275 440.933 367.203C443.004 363.061 444.484 360.398 444.484 360.398C444.484 360.398 445.076 360.25 445.964 359.954C446.851 359.658 448.183 359.362 449.662 358.77C451.29 358.326 453.065 357.734 454.989 356.995C456.912 356.403 459.132 355.663 461.203 354.775C465.346 353.148 469.636 351.372 472.743 350.041C475.85 348.561 477.922 347.526 477.922 347.526C477.922 347.526 478.218 346.49 478.957 344.714C479.253 343.827 479.697 342.643 479.993 341.459C480.289 340.128 480.733 338.796 481.177 337.169C481.621 335.541 482.064 333.914 482.656 332.138C483.1 330.363 483.544 328.439 483.988 326.368C485.024 322.373 485.763 318.083 486.503 313.792C486.947 311.573 487.243 309.501 487.391 307.282C487.687 305.21 487.983 302.991 488.131 301.068C488.427 296.925 488.722 293.226 489.018 289.823C489.166 283.313 489.314 278.875 489.314 278.875" stroke="#5FC6FF" stroke-width="0.5175" stroke-miterlimit="10"/>
<path d="M512.543 285.088C512.543 285.088 512.543 286.124 512.543 287.9C512.543 288.787 512.543 289.823 512.395 291.155C512.247 292.338 512.247 293.818 512.099 295.297C511.803 301.363 510.916 309.501 509.584 317.491C509.288 319.562 508.844 321.485 508.548 323.409C508.4 324.444 508.252 325.332 507.957 326.368C507.809 327.256 507.513 328.291 507.365 329.179C506.477 332.878 505.737 336.429 504.997 339.388C503.37 345.306 502.186 349.153 502.186 349.153C502.186 349.153 504.85 355.219 507.365 361.581C508.696 364.836 509.732 367.943 510.62 370.458C511.508 372.974 511.951 374.601 511.951 374.601C511.951 374.601 511.803 375.045 511.36 375.933C511.064 376.82 510.472 378.152 509.732 379.779C508.992 381.407 508.105 383.33 507.069 385.55C506.625 386.733 506.033 387.917 505.441 389.101C504.85 390.284 504.11 391.616 503.518 392.947C502.186 395.611 500.707 398.57 498.931 401.677C497.156 404.636 495.38 407.891 493.457 411.146C491.386 414.401 489.314 417.656 487.095 421.059C484.876 424.314 482.508 427.569 480.141 430.972C470.524 443.992 459.427 455.828 450.55 464.114C441.673 472.399 435.311 477.43 435.311 477.43" stroke="#5FC6FF" stroke-width="0.5175" stroke-miterlimit="10"/>
<path d="M453.657 288.788C453.657 288.788 453.509 291.303 453.213 295.002C453.065 296.925 452.769 298.996 452.474 301.364C452.178 303.731 451.882 306.246 451.438 308.614C450.994 311.129 450.698 313.496 450.106 315.863C449.515 318.083 449.071 320.302 448.627 322.077C448.183 323.853 447.739 325.332 447.443 326.516C447.147 327.552 446.999 328.144 446.999 328.144C446.999 328.144 444.928 329.031 441.969 330.363C438.862 331.547 434.719 333.026 430.724 334.358C426.582 335.689 422.439 336.725 419.48 337.465C418 337.909 416.669 338.204 415.781 338.352C414.893 338.5 414.301 338.648 414.301 338.648C414.301 338.648 414.005 339.388 413.414 340.572C412.822 341.755 412.23 343.531 411.046 345.602C410.011 347.674 408.827 350.041 407.347 352.556C406.608 353.74 405.868 355.071 405.128 356.403C404.388 357.735 403.501 358.918 402.613 360.25C400.985 362.913 399.062 365.28 397.434 367.648C395.807 370.015 394.031 372.086 392.552 373.862C389.593 377.412 387.521 379.632 387.521 379.632" stroke="#5FC6FF" stroke-width="0.5175" stroke-miterlimit="10"/>
<path d="M94.1272 411.442C94.1272 411.442 92.6476 409.371 90.4283 406.264C89.2447 404.784 88.209 402.861 86.8774 400.789C85.5458 398.718 84.2142 396.646 82.8826 394.427C80.3674 389.989 77.7042 385.55 76.0767 382.147C75.189 380.371 74.4492 379.04 74.0053 378.004C73.5615 376.969 73.2655 376.377 73.2655 376.377C73.2655 376.377 70.8983 375.489 67.1994 373.861C63.5006 372.382 58.6181 370.163 53.8835 367.795C51.5162 366.612 49.1489 365.28 46.7817 364.096C44.5623 362.913 42.491 361.729 40.7155 360.693C37.1646 358.622 34.7973 357.143 34.7973 357.143C34.7973 357.143 34.3535 355.959 33.7617 353.888C33.1698 351.816 32.2821 348.857 31.2464 345.158C30.9505 344.27 30.8025 343.383 30.5066 342.347C30.2107 341.311 30.0628 340.424 29.7669 339.388C29.323 337.317 28.7312 335.097 28.2873 332.878C27.6955 330.659 27.2516 328.291 26.8078 325.776C26.3639 323.409 25.92 320.894 25.4762 318.526C24.7364 313.644 24.1446 308.613 23.7007 304.027C23.4048 299.44 22.961 295.002 22.813 291.303C22.6651 283.905 22.5171 278.875 22.5171 278.875" stroke="#5FC6FF" stroke-width="0.5175" stroke-miterlimit="10"/>
<path d="M398.914 491.337C398.914 491.337 397.73 492.077 395.659 493.113C393.588 494.296 390.628 495.924 387.078 497.699C379.976 501.398 370.063 505.689 359.854 509.536C354.675 511.311 349.645 513.087 344.762 514.418C342.395 515.158 340.028 515.75 337.809 516.342C335.589 516.934 333.37 517.377 331.446 517.821C329.523 518.265 327.6 518.709 326.12 519.005C324.493 519.301 323.161 519.597 321.977 519.745C319.61 520.189 318.279 520.336 318.279 520.336C318.279 520.336 316.947 521.816 315.171 524.183C313.248 526.551 310.585 529.362 307.774 532.321C304.963 535.28 302.151 538.239 299.932 540.31C297.713 542.382 296.233 543.861 296.233 543.861C296.233 543.861 294.902 544.009 292.682 544.157C290.463 544.305 287.208 544.453 283.509 544.601C281.586 544.601 279.514 544.749 277.295 544.749C275.076 544.749 272.856 544.749 270.489 544.601C268.122 544.601 265.607 544.453 263.091 544.453C260.576 544.305 258.061 544.157 255.546 543.861C253.03 543.713 250.515 543.565 248 543.269C245.485 542.974 243.118 542.678 240.75 542.382C236.016 541.79 231.577 540.902 227.878 540.31C225.955 540.014 224.327 539.571 222.7 539.423C221.22 539.127 219.889 538.831 218.705 538.535C216.486 538.091 215.302 537.795 215.302 537.795" stroke="#5FC6FF" stroke-width="0.5175" stroke-miterlimit="10"/>
<path d="M152.421 101.625C152.421 101.625 152.717 101.329 153.457 100.885C154.049 100.441 155.085 99.7015 156.268 98.9618C157.452 98.222 159.079 97.1863 160.707 96.1506C162.482 94.967 164.406 93.7833 166.625 92.5997C175.354 87.4213 187.487 81.3551 200.063 76.6206C212.639 71.886 225.807 68.4831 235.72 66.5597C238.235 66.1158 240.455 65.6719 242.526 65.376C244.597 65.0801 246.373 64.9322 247.852 64.6363C250.811 64.1924 252.439 64.0444 252.439 64.0444" stroke="#5FC6FF" stroke-width="0.5175" stroke-miterlimit="10"/>
<path d="M338.992 73.9575C338.992 73.9575 339.732 74.1054 341.063 74.5493C342.395 74.9932 344.319 75.7329 346.834 76.4727C349.349 77.2125 352.308 78.5441 355.859 79.8757C359.262 81.2073 363.109 82.9827 367.252 84.7582C375.389 88.753 384.858 93.6355 394.327 99.9975C403.796 106.359 413.413 113.757 422.291 122.043C440.193 138.466 454.545 158.439 463.274 174.271C464.458 176.194 465.493 178.117 466.381 180.041C467.269 181.816 468.157 183.592 469.044 185.219C470.672 188.622 471.856 191.581 473.039 193.949C474.223 196.316 474.815 198.387 475.406 199.719C475.998 201.05 476.146 201.79 476.146 201.79" stroke="#5FC6FF" stroke-width="0.5175" stroke-miterlimit="10"/>
<path d="M226.99 82.8342C226.99 82.8342 228.618 82.3903 231.577 81.7985C233.057 81.5026 234.832 80.9108 236.903 80.6149C238.975 80.319 241.342 79.8751 243.857 79.4312C254.066 77.8037 267.678 76.4721 281.438 76.916C295.198 77.2119 308.809 79.1353 318.87 81.3546C321.386 81.9465 323.605 82.3903 325.676 82.9821C327.748 83.426 329.375 84.0178 330.855 84.4617C333.814 85.3494 335.441 85.7933 335.441 85.7933" stroke="#5FC6FF" stroke-width="0.5175" stroke-miterlimit="10"/>
<path d="M102.561 175.454C102.561 175.454 102.856 174.863 103.448 173.975C104.04 172.939 104.928 171.608 106.111 169.684C107.295 167.909 108.627 165.541 110.55 163.174C112.326 160.659 114.249 157.848 116.616 155.037C117.8 153.557 118.984 152.078 120.167 150.45C121.499 148.97 122.83 147.343 124.31 145.715C125.05 144.976 125.789 144.088 126.381 143.2C127.121 142.46 127.861 141.573 128.601 140.833C130.08 139.205 131.708 137.578 133.335 135.803C139.993 129.293 147.539 122.783 155.38 116.716C163.37 110.798 171.803 105.472 179.941 101.033C184.084 98.962 188.078 96.7427 191.925 95.1152C193.849 94.2274 195.772 93.3397 197.547 92.5999C199.471 91.8602 201.246 91.1204 203.022 90.5286C206.425 89.049 209.68 88.0133 212.639 87.1256C215.45 86.0899 218.113 85.3501 220.185 84.7583C222.256 84.1665 223.883 83.7226 225.067 83.4267C226.251 83.1308 226.843 82.9829 226.843 82.9829" stroke="#5FC6FF" stroke-width="0.5175" stroke-miterlimit="10"/>
<path d="M75.7808 166.133C75.7808 166.133 77.2603 163.618 79.6276 159.327C80.9592 157.256 82.5867 154.74 84.5101 151.781C86.4335 148.822 88.6528 145.715 91.168 142.312C92.3517 140.537 93.8313 138.909 95.1628 137.134C96.6424 135.358 97.974 133.435 99.6015 131.66C102.856 127.961 106.111 124.114 109.81 120.267C113.361 116.42 117.504 112.721 121.499 108.874C125.642 105.176 129.932 101.477 134.371 98.0738C138.81 94.5229 143.396 91.2679 147.983 88.1608C152.717 85.2017 157.304 82.0947 161.89 79.5794C166.477 76.9163 171.064 74.549 175.354 72.3297C177.574 71.294 179.645 70.2583 181.716 69.3706C183.788 68.4828 185.859 67.4471 187.783 66.7074C191.777 65.2278 195.328 63.6003 198.583 62.5646C201.838 61.529 204.649 60.4933 207.017 59.7535C209.384 59.0137 211.307 58.5699 212.491 58.126C213.823 57.8301 214.414 57.5342 214.414 57.5342" stroke="#5FC6FF" stroke-width="0.5175" stroke-miterlimit="10"/>
<path d="M320.794 90.3799C320.794 90.3799 321.386 90.5278 322.421 90.8238C323.013 90.9717 323.605 91.1197 324.493 91.2676C325.232 91.4156 326.12 91.7115 327.156 92.0074C329.227 92.5992 331.594 93.191 334.406 94.0788C337.217 94.9665 340.324 96.0022 343.579 97.1858C356.895 102.216 374.205 110.502 389.593 121.894C405.128 132.991 418.592 146.751 427.469 157.995C429.688 160.806 431.76 163.322 433.387 165.837C435.015 168.204 436.642 170.275 437.678 172.051C439.897 175.602 441.229 177.525 441.229 177.525" stroke="#5FC6FF" stroke-width="0.5175" stroke-miterlimit="10"/>
<path d="M231.133 53.2433C231.133 53.2433 233.057 52.9474 236.46 52.3556C238.087 52.0597 240.159 51.6158 242.526 51.3199C244.893 51.024 247.556 50.7281 250.515 50.2842C262.204 48.9526 277.739 48.3608 293.422 49.5445C308.958 50.5801 324.493 53.5392 335.737 56.6463C338.548 57.3861 341.212 58.1258 343.431 58.8656C345.798 59.4574 347.722 60.1972 349.349 60.789C352.604 61.8247 354.38 62.5645 354.38 62.5645" stroke="#5FC6FF" stroke-width="0.5175" stroke-miterlimit="10"/>
<path d="M200.359 106.951C200.359 106.951 206.129 104.288 215.154 101.181C224.179 98.0739 236.608 94.671 249.184 92.8955C261.76 91.12 274.632 90.6762 284.249 91.1201C286.616 91.1201 288.836 91.416 290.759 91.5639C292.682 91.7119 294.458 91.8598 295.789 92.0078C298.601 92.3037 300.08 92.5996 300.08 92.5996" stroke="#5FC6FF" stroke-width="0.5175" stroke-miterlimit="10"/>
<path d="M455.728 114.645C455.728 114.645 448.775 113.905 442.117 113.609C435.311 113.313 428.801 113.461 428.801 113.461C428.801 113.461 428.653 113.313 428.209 113.017C427.913 112.721 427.321 112.129 426.729 111.686C425.398 110.502 423.474 108.874 421.107 106.803C419.923 105.767 418.592 104.732 417.26 103.696C415.929 102.66 414.449 101.477 412.822 100.293C411.342 99.1097 409.714 97.926 408.087 96.7424C406.459 95.5587 404.684 94.3751 403.057 93.1915C399.654 90.8242 396.103 88.7528 392.848 86.6815C389.445 84.758 386.338 82.9826 383.674 81.3551C378.2 78.5439 374.501 76.6205 374.501 76.6205C374.501 76.6205 374.353 76.3246 374.205 75.7328C373.909 75.141 373.614 74.2533 373.17 73.2176C372.282 71.1462 371.246 68.483 370.063 65.6719C369.471 64.3403 368.879 62.8608 368.287 61.6771C367.695 60.3455 367.103 59.3098 366.66 58.2741C365.624 56.2028 365.032 54.8712 365.032 54.8712C365.032 54.8712 363.849 54.4273 361.629 53.5396C359.558 52.6519 356.303 51.6162 352.604 50.2846C345.058 47.6214 334.849 44.9582 324.493 42.7389C314.136 40.8155 303.631 39.188 295.641 38.7441C291.647 38.4482 288.392 38.1523 286.024 38.1523C283.657 38.1523 282.325 38.0044 282.325 38.0044" stroke="#5FC6FF" stroke-width="0.5175" stroke-miterlimit="10"/>
<path d="M272.561 105.324C272.561 105.324 273.3 105.324 274.484 105.324C275.076 105.324 275.816 105.324 276.703 105.324C277.591 105.324 278.479 105.324 279.514 105.472C281.586 105.62 283.953 105.472 286.616 105.768C289.131 105.916 291.943 106.212 294.754 106.36C297.417 106.656 300.228 107.099 302.743 107.395C305.259 107.839 307.626 108.283 309.697 108.579C311.769 108.875 313.396 109.319 314.58 109.615C315.763 109.911 316.355 110.059 316.355 110.059C316.355 110.059 319.018 115.385 321.09 120.859C322.125 123.522 323.161 126.186 323.901 128.257C324.641 130.328 325.084 131.66 325.084 131.66C325.084 131.66 325.676 131.808 326.712 132.252C327.748 132.696 329.375 132.992 331.151 133.879C334.997 135.359 340.472 137.578 346.686 140.833C359.41 147.047 375.093 157.996 388.113 171.608C394.623 178.414 400.541 185.811 405.424 193.209C410.454 200.459 414.153 207.857 417.112 214.219C417.852 215.846 418.592 217.326 419.184 218.805C419.775 220.285 420.367 221.764 420.811 223.096C421.995 225.759 422.587 228.126 423.326 230.05C423.622 231.086 423.918 231.825 424.214 232.713C424.51 233.453 424.658 234.193 424.806 234.636C425.102 235.672 425.25 236.264 425.25 236.264C425.25 236.264 426.138 236.56 427.469 237.152C428.949 237.743 431.02 238.483 433.387 239.519C438.122 241.59 444.78 244.697 451.142 248.396C452.769 249.284 454.397 250.32 455.877 251.207C457.356 252.095 458.836 253.131 460.315 254.166C463.274 256.09 465.937 258.013 468.305 259.641C472.743 263.044 475.85 265.559 475.85 265.559" stroke="#5FC6FF" stroke-width="0.5175" stroke-miterlimit="10"/>
<path d="M221.072 119.083C221.072 119.083 220.037 119.527 217.965 120.119C216.042 120.859 213.379 121.895 210.124 123.226C203.762 126.037 195.328 130.18 187.339 135.063C179.349 139.945 171.951 145.715 166.625 150.154C165.293 151.338 164.11 152.373 163.074 153.261C162.038 154.149 161.151 155.036 160.411 155.776C158.931 157.256 158.044 157.996 158.044 157.996C158.044 157.996 156.564 157.848 154.493 157.552C152.421 157.404 149.61 157.108 146.799 156.96C143.988 156.812 141.029 156.664 138.809 156.664C136.59 156.664 135.111 156.664 135.111 156.664C135.111 156.664 134.667 157.256 133.779 158.292C133.335 158.735 132.743 159.475 132.152 160.067C131.56 160.807 130.968 161.694 130.228 162.582C127.269 166.133 123.718 171.016 120.315 176.194C119.427 177.526 118.688 178.709 117.8 180.041C116.912 181.224 116.172 182.556 115.433 183.74C113.953 186.255 112.621 188.474 111.586 190.546C109.514 194.688 108.035 197.352 108.035 197.352C108.035 197.352 107.443 197.5 106.555 197.795C105.668 198.091 104.336 198.387 102.856 198.979C101.229 199.423 99.4535 200.015 97.5301 200.755C95.6067 201.346 93.3874 202.086 91.316 202.974C87.1733 204.601 82.8826 206.377 79.7755 207.708C76.6685 209.188 74.5971 210.224 74.5971 210.224C74.5971 210.224 74.3012 211.259 73.5614 213.035C73.2655 213.922 72.8216 215.106 72.5257 216.29C72.2298 217.621 71.786 218.953 71.3421 220.58C70.8982 222.208 70.4544 223.835 69.8626 225.611C69.4187 227.386 68.9748 229.31 68.531 231.381C67.4953 235.376 66.7555 239.667 66.0157 243.957C65.5719 246.177 65.2759 248.248 65.128 250.467C64.8321 252.539 64.5362 254.758 64.3882 256.681C64.0923 260.824 63.7964 264.523 63.5005 267.926C63.3526 274.436 63.2046 278.875 63.2046 278.875" stroke="#5FC6FF" stroke-width="0.5175" stroke-miterlimit="10"/>
<path d="M39.9756 272.661C39.9756 272.661 39.9756 271.625 39.9756 269.85C39.9756 268.962 39.9756 267.926 40.1235 266.595C40.2715 265.411 40.2715 263.931 40.4195 262.452C40.7154 256.386 41.6031 248.248 42.9347 240.259C43.2306 238.187 43.6745 236.264 43.9704 234.34C44.1183 233.305 44.2663 232.417 44.5622 231.381C44.7101 230.494 45.006 229.458 45.154 228.57C46.0417 224.871 46.7815 221.32 47.5213 218.361C49.1488 212.443 50.3324 208.596 50.3324 208.596C50.3324 208.596 47.6692 202.53 45.154 196.168C43.8224 192.913 42.7868 189.806 41.899 187.291C41.0113 184.776 40.5674 183.148 40.5674 183.148C40.5674 183.148 40.7154 182.704 41.1593 181.817C41.4552 180.929 42.047 179.597 42.7868 177.97C43.5265 176.342 44.4142 174.419 45.4499 172.199C45.8938 171.016 46.4856 169.832 47.0774 168.649C47.6693 167.465 48.409 166.133 49.0008 164.802C50.3324 162.139 51.812 159.179 53.5874 156.072C55.3629 153.113 57.1384 149.858 59.0618 146.603C61.1332 143.348 63.2045 140.093 65.4238 136.69C67.6431 133.435 70.0104 130.18 72.3777 126.777C81.9948 113.757 93.0914 101.921 101.969 93.6357C110.846 85.3502 117.208 80.3198 117.208 80.3198" stroke="#5FC6FF" stroke-width="0.5175" stroke-miterlimit="10"/>
<path d="M98.8616 268.962C98.8616 268.962 99.0095 266.447 99.3054 262.748C99.4534 260.824 99.7493 258.753 100.045 256.386C100.341 254.018 100.637 251.503 101.081 249.136C101.525 246.621 101.821 244.253 102.412 241.886C103.004 239.667 103.448 237.448 103.892 235.672C104.336 233.897 104.78 232.417 105.076 231.233C105.372 230.198 105.52 229.606 105.52 229.606C105.52 229.606 107.591 228.718 110.55 227.387C113.657 226.203 117.8 224.723 121.795 223.392C125.937 222.06 130.08 221.025 133.039 220.285C134.519 219.841 135.85 219.545 136.738 219.397C137.626 219.249 138.218 219.101 138.218 219.101C138.218 219.101 138.513 218.361 139.105 217.178C139.697 215.994 140.289 214.219 141.473 212.147C142.508 210.076 143.692 207.709 145.171 205.193C145.911 204.01 146.651 202.678 147.391 201.347C148.13 200.015 149.018 198.831 149.906 197.5C151.533 194.837 153.457 192.469 155.084 190.102C156.712 187.735 158.487 185.663 159.967 183.888C162.926 180.337 164.997 178.118 164.997 178.118" stroke="#5FC6FF" stroke-width="0.5175" stroke-miterlimit="10"/>
<path d="M458.392 146.455C458.392 146.455 459.871 148.526 462.09 151.633C463.274 153.113 464.31 155.036 465.641 157.108C466.973 159.179 468.305 161.251 469.636 163.47C472.151 167.909 474.815 172.347 476.442 175.75C477.33 177.526 478.07 178.857 478.514 179.893C478.957 180.929 479.253 181.52 479.253 181.52C479.253 181.52 481.621 182.408 485.319 184.036C489.018 185.515 493.901 187.734 498.635 190.102C501.003 191.285 503.37 192.617 505.737 193.801C507.956 194.984 510.028 196.168 511.803 197.204C515.354 199.275 517.722 200.754 517.722 200.754C517.722 200.754 518.165 201.938 518.757 204.009C519.349 206.081 520.237 209.04 521.272 212.739C521.568 213.627 521.716 214.514 522.012 215.55C522.308 216.586 522.456 217.473 522.752 218.509C523.196 220.58 523.788 222.8 524.231 225.019C524.823 227.238 525.267 229.606 525.711 232.121C526.155 234.488 526.599 237.003 527.043 239.371C527.782 244.253 528.374 249.284 528.818 253.87C529.114 258.457 529.558 262.895 529.706 266.594C529.854 273.992 530.002 279.023 530.002 279.023" stroke="#5FC6FF" stroke-width="0.5175" stroke-miterlimit="10"/>
<path d="M153.605 66.4117C153.605 66.4117 154.788 65.6719 156.86 64.6362C158.931 63.4526 161.89 61.973 165.441 60.0496C172.543 56.3507 182.456 52.06 192.665 48.2132C197.843 46.4378 202.874 44.6623 207.756 43.3307C210.123 42.591 212.491 41.9991 214.71 41.4073C216.929 40.8155 219.149 40.3716 221.072 39.9278C222.996 39.4839 224.919 39.04 226.398 38.7441C228.026 38.4482 229.358 38.1523 230.541 38.0044C232.908 37.5605 234.24 37.4125 234.24 37.4125C234.24 37.4125 235.572 35.933 237.347 33.5657C239.271 31.1984 241.934 28.3873 244.745 25.4282C247.556 22.4691 250.367 19.51 252.586 17.4386C254.806 15.3673 256.285 13.8877 256.285 13.8877C256.285 13.8877 257.617 13.7398 259.836 13.5918C262.056 13.4439 265.311 13.2959 269.009 13.148C270.933 13.148 273.004 13 275.224 13C277.443 13 279.662 13 282.029 13.148C284.397 13.148 286.912 13.2959 289.427 13.2959C291.942 13.4439 294.458 13.5918 296.973 13.8877C299.488 14.0357 302.003 14.1836 304.519 14.4795C307.034 14.7755 309.401 15.0714 311.768 15.3673C316.503 15.9591 320.942 16.8468 324.64 17.4386C326.564 17.7346 328.191 18.0305 329.819 18.3264C331.298 18.6223 332.63 18.9182 333.814 19.2141C336.033 19.658 337.217 19.9539 337.217 19.9539" stroke="#5FC6FF" stroke-width="0.5175" stroke-miterlimit="10"/>
<path d="M311.325 41.7033L304.815 40.9636C304.223 40.9636 303.631 40.3717 303.779 39.632L303.927 38.3004C303.927 37.7086 304.519 37.1167 305.259 37.2647L311.769 38.0045C312.36 38.0045 312.952 38.5963 312.804 39.3361L312.656 40.6676C312.508 41.2595 311.917 41.8513 311.325 41.7033Z" fill="#60C8FF"/>
<path d="M216.338 73.2175L209.976 75.1409C209.384 75.2889 208.644 74.993 208.496 74.4012L208.052 73.0696C207.904 72.4778 208.2 71.738 208.792 71.59L215.154 69.6666C215.746 69.5187 216.486 69.8146 216.634 70.4064L217.078 71.738C217.374 72.3298 217.078 73.0696 216.338 73.2175Z" fill="#60C8FF"/>
<path d="M27.9916 341.903L26.5121 333.766C26.3641 333.026 26.9559 332.138 27.6957 331.99L29.3232 331.694C30.063 331.546 30.9507 332.138 31.0986 332.878L32.5782 341.016C32.7261 341.755 32.1343 342.643 31.3946 342.791L29.7671 343.087C28.8793 343.235 28.1396 342.643 27.9916 341.903Z" fill="#60C8FF"/>
<path d="M267.974 482.46L262.056 482.164C261.464 482.164 261.02 481.573 261.02 480.981V479.797C261.02 479.205 261.612 478.761 262.204 478.761L268.122 479.057C268.714 479.057 269.158 479.649 269.158 480.241V481.425C269.158 482.016 268.566 482.46 267.974 482.46Z" fill="#60C8FF"/>
<path d="M483.544 317.934L484.58 312.016C484.728 311.424 485.172 310.981 485.763 311.129L486.947 311.276C487.539 311.424 487.983 311.868 487.835 312.46L486.799 318.378C486.651 318.97 486.207 319.414 485.615 319.266L484.432 319.118C483.84 319.118 483.396 318.526 483.544 317.934Z" fill="#60C8FF"/>
<path d="M423.919 125.889L419.332 121.895C418.888 121.451 418.888 120.859 419.184 120.415L420.072 119.527C420.516 119.083 421.107 119.083 421.551 119.379L426.138 123.374C426.582 123.818 426.582 124.41 426.286 124.854L425.398 125.741C424.954 126.185 424.362 126.333 423.919 125.889Z" fill="#60C8FF"/>
<path d="M404.241 468.257L409.271 464.854C409.715 464.558 410.455 464.706 410.751 465.15L411.49 466.185C411.786 466.629 411.638 467.369 411.194 467.665L406.164 471.068C405.72 471.364 404.98 471.216 404.684 470.772L403.945 469.736C403.649 469.292 403.649 468.701 404.241 468.257Z" fill="#60C8FF"/>
<path d="M79.4797 120.563L75.7808 125.298C75.4849 125.741 74.7451 125.889 74.3012 125.446L73.2655 124.706C72.8217 124.41 72.6738 123.67 73.1176 123.226L76.8165 118.492C77.1124 118.048 77.8522 117.9 78.296 118.344L79.3317 119.083C79.7756 119.379 79.7756 120.119 79.4797 120.563Z" fill="#60C8FF"/>
<path d="M116.912 82.9826C118.22 82.9826 119.28 81.9227 119.28 80.6153C119.28 79.3079 118.22 78.248 116.912 78.248C115.605 78.248 114.545 79.3079 114.545 80.6153C114.545 81.9227 115.605 82.9826 116.912 82.9826Z" fill="#5FC6FF"/>
<path d="M338.105 76.0285C339.412 76.0285 340.472 74.9686 340.472 73.6612C340.472 72.3538 339.412 71.2939 338.105 71.2939C336.797 71.2939 335.737 72.3538 335.737 73.6612C335.737 74.9686 336.797 76.0285 338.105 76.0285Z" fill="#5FC6FF"/>
<path d="M75.0411 169.684C76.3485 169.684 77.4084 168.624 77.4084 167.316C77.4084 166.009 76.3485 164.949 75.0411 164.949C73.7337 164.949 72.6738 166.009 72.6738 167.316C72.6738 168.624 73.7337 169.684 75.0411 169.684Z" fill="#5FC6FF"/>
<path d="M457.504 146.899C458.812 146.899 459.871 145.839 459.871 144.532C459.871 143.225 458.812 142.165 457.504 142.165C456.197 142.165 455.137 143.225 455.137 144.532C455.137 145.839 456.197 146.899 457.504 146.899Z" fill="#5FC6FF"/>
<path d="M356.007 65.3761C357.315 65.3761 358.374 64.3162 358.374 63.0088C358.374 61.7014 357.315 60.6416 356.007 60.6416C354.7 60.6416 353.64 61.7014 353.64 63.0088C353.64 64.3162 354.7 65.3761 356.007 65.3761Z" fill="#5FC6FF"/>
<path d="M450.55 383.183C451.858 383.183 452.918 382.123 452.918 380.816C452.918 379.508 451.858 378.448 450.55 378.448C449.243 378.448 448.183 379.508 448.183 380.816C448.183 382.123 449.243 383.183 450.55 383.183Z" fill="#5FC6FF"/>
<path d="M453.657 289.527C454.965 289.527 456.025 288.468 456.025 287.16C456.025 285.853 454.965 284.793 453.657 284.793C452.35 284.793 451.29 285.853 451.29 287.16C451.29 288.468 452.35 289.527 453.657 289.527Z" fill="#5FC6FF"/>
<path d="M281.29 454.793C282.598 454.793 283.657 453.733 283.657 452.425C283.657 451.118 282.598 450.058 281.29 450.058C279.983 450.058 278.923 451.118 278.923 452.425C278.923 453.733 279.983 454.793 281.29 454.793Z" fill="#5FC6FF"/>
<path d="M197.104 497.108C198.411 497.108 199.471 496.048 199.471 494.741C199.471 493.433 198.411 492.374 197.104 492.374C195.796 492.374 194.737 493.433 194.737 494.741C194.737 496.048 195.796 497.108 197.104 497.108Z" fill="#5FC6FF"/>
<path d="M298.157 496.368C299.464 496.368 300.524 495.308 300.524 494.001C300.524 492.694 299.464 491.634 298.157 491.634C296.849 491.634 295.79 492.694 295.79 494.001C295.79 495.308 296.849 496.368 298.157 496.368Z" fill="#5FC6FF"/>
<path d="M433.979 480.537C435.287 480.537 436.347 479.477 436.347 478.17C436.347 476.863 435.287 475.803 433.979 475.803C432.672 475.803 431.612 476.863 431.612 478.17C431.612 479.477 432.672 480.537 433.979 480.537Z" fill="#5FC6FF"/>
<path d="M22.3692 279.171C23.6766 279.171 24.7365 278.111 24.7365 276.803C24.7365 275.496 23.6766 274.436 22.3692 274.436C21.0618 274.436 20.002 275.496 20.002 276.803C20.002 278.111 21.0618 279.171 22.3692 279.171Z" fill="#5FC6FF"/>
<path d="M95.1629 415.585C96.4703 415.585 97.5302 414.525 97.5302 413.218C97.5302 411.91 96.4703 410.85 95.1629 410.85C93.8555 410.85 92.7957 411.91 92.7957 413.218C92.7957 414.525 93.8555 415.585 95.1629 415.585Z" fill="#5FC6FF"/>
<path d="M94.4232 445.028C95.7306 445.028 96.7905 443.968 96.7905 442.661C96.7905 441.353 95.7306 440.293 94.4232 440.293C93.1158 440.293 92.0559 441.353 92.0559 442.661C92.0559 443.968 93.1158 445.028 94.4232 445.028Z" stroke="#5FC6FF" stroke-width="0.5175" stroke-miterlimit="10"/>
<path d="M74.5973 293.374C75.9047 293.374 76.9645 292.314 76.9645 291.007C76.9645 289.699 75.9047 288.64 74.5973 288.64C73.2899 288.64 72.23 289.699 72.23 291.007C72.23 292.314 73.2899 293.374 74.5973 293.374Z" stroke="#5FC6FF" stroke-width="0.5175" stroke-miterlimit="10"/>
<path d="M223.292 120.267C224.599 120.267 225.659 119.207 225.659 117.9C225.659 116.593 224.599 115.533 223.292 115.533C221.984 115.533 220.925 116.593 220.925 117.9C220.925 119.207 221.984 120.267 223.292 120.267Z" stroke="#5FC6FF" stroke-width="0.5175" stroke-miterlimit="10"/>
<path d="M339.584 23.2087C340.892 23.2087 341.952 22.1488 341.952 20.8414C341.952 19.534 340.892 18.4741 339.584 18.4741C338.277 18.4741 337.217 19.534 337.217 20.8414C337.217 22.1488 338.277 23.2087 339.584 23.2087Z" stroke="#5FC6FF" stroke-width="0.5175" stroke-miterlimit="10"/>
<path d="M270.341 107.839C271.649 107.839 272.709 106.779 272.709 105.472C272.709 104.164 271.649 103.104 270.341 103.104C269.034 103.104 267.974 104.164 267.974 105.472C267.974 106.779 269.034 107.839 270.341 107.839Z" stroke="#5FC6FF" stroke-width="0.5175" stroke-miterlimit="10"/>
<path d="M458.096 117.308C459.404 117.308 460.463 116.248 460.463 114.941C460.463 113.634 459.404 112.574 458.096 112.574C456.789 112.574 455.729 113.634 455.729 114.941C455.729 116.248 456.789 117.308 458.096 117.308Z" stroke="#5FC6FF" stroke-width="0.5175" stroke-miterlimit="10"/>
<path d="M442.413 181.817C443.72 181.817 444.78 180.757 444.78 179.449C444.78 178.142 443.72 177.082 442.413 177.082C441.105 177.082 440.046 178.142 440.046 179.449C440.046 180.757 441.105 181.817 442.413 181.817Z" stroke="#5FC6FF" stroke-width="0.5175" stroke-miterlimit="10"/>
<path d="M512.395 285.385C513.703 285.385 514.763 284.325 514.763 283.018C514.763 281.71 513.703 280.65 512.395 280.65C511.088 280.65 510.028 281.71 510.028 283.018C510.028 284.325 511.088 285.385 512.395 285.385Z" stroke="#5FC6FF" stroke-width="0.5175" stroke-miterlimit="10"/>
<path d="M477.034 206.229C478.341 206.229 479.401 205.169 479.401 203.862C479.401 202.554 478.341 201.495 477.034 201.495C475.727 201.495 474.667 202.554 474.667 203.862C474.667 205.169 475.727 206.229 477.034 206.229Z" stroke="#5FC6FF" stroke-width="0.5175" stroke-miterlimit="10"/>
<path d="M329.523 441.921C330.831 441.921 331.89 440.861 331.89 439.553C331.89 438.246 330.831 437.186 329.523 437.186C328.216 437.186 327.156 438.246 327.156 439.553C327.156 440.861 328.216 441.921 329.523 441.921Z" stroke="#5FC6FF" stroke-width="0.5175" stroke-miterlimit="10"/>
<g opacity="0.8">
<path opacity="0.8" d="M405 380.5C405 393.46 394.46 404 381.5 404C368.54 404 358 393.499 358 380.5C358 367.54 368.54 357 381.5 357C394.499 357 405 367.54 405 380.5Z" fill="url(#paint2_linear)"/>
<path opacity="0.8" d="M405 380.5C405 393.46 394.46 404 381.5 404C368.54 404 358 393.499 358 380.5C358 367.54 368.54 357 381.5 357C394.499 357 405 367.54 405 380.5Z" fill="url(#paint3_linear)"/>
</g>
<path d="M26 239C26 246.169 20.1694 252 13 252C5.83056 252 0 246.191 0 239C0 231.831 5.83056 226 13 226C20.191 226 26 231.831 26 239Z" fill="url(#paint4_linear)"/>
<path d="M26 239C26 246.169 20.1694 252 13 252C5.83056 252 0 246.191 0 239C0 231.831 5.83056 226 13 226C20.191 226 26 231.831 26 239Z" fill="url(#paint5_linear)"/>
<path d="M352.1 167.8V405.4L245.8 465.5V228.4L352.1 167.8Z" fill="url(#paint6_linear)"/>
<path d="M342.6 187V382.1L255.3 431.4V236.8L342.6 187Z" fill="url(#paint7_linear)"/>
<path d="M245.8 228.4L241.2 217.4L347.8 157.3L352.1 167.8L245.8 228.4Z" fill="url(#paint8_linear)"/>
<path d="M332.5 192.8V376.8L342.6 382.1V187L332.5 192.8Z" fill="#013674"/>
<path d="M332.5 376.8L255.3 419.2V431.4L342.6 382.1L332.5 376.8Z" fill="#00A3D2"/>
<path d="M245.8 465.5L156.4 415.7V167.8L241.2 217.4L245.8 228.4V465.5Z" fill="url(#paint9_linear)"/>
<path d="M347.8 157.3L261.9 108L156.4 167.8L241.2 217.4L347.8 157.3Z" fill="url(#paint10_linear)"/>
<path d="M245 465.5H246.6V228.3L241.8 216.8L156.8 167.1L156 168.6L240.5 217.9L245 228.6V465.5Z" fill="url(#paint11_linear)"/>
<path d="M332.5 198.6L255.3 242.6V263.8L332.5 219.1V198.6Z" fill="url(#paint12_linear)"/>
<path d="M330.2 202.6V208.1L326 210.4V205L330.2 202.6Z" fill="#0086FF"/>
<path d="M320.8 207.9V213.3L316.7 215.7V210.3L320.8 207.9Z" fill="#00CFFF"/>
<path d="M311.1 213.5V218.9L307 221.3V215.9L311.1 213.5Z" fill="#FF85A5"/>
<path d="M301.8 218.8V224.2L297.6 226.6V221.2L301.8 218.8Z" fill="#00CFFF"/>
<path d="M292.1 224.2V229.6L288 232V226.5L292.1 224.2Z" fill="#F8FF9C"/>
<path d="M282.8 229.5V234.9L278.6 237.3V231.8L282.8 229.5Z" fill="#FF85A5"/>
<path d="M273.1 235.1V240.5L268.9 242.9V237.4L273.1 235.1Z" fill="#FF85A5"/>
<path d="M263.7 240.3V245.8L259.5 248.2V242.7L263.7 240.3Z" fill="#F8FF9C"/>
<path d="M330.2 212.6V218.1L326 220.4V215L330.2 212.6Z" fill="#F8FF9C"/>
<path d="M320.8 217.9V223.4L316.7 225.7V220.3L320.8 217.9Z" fill="#FF85A5"/>
<path d="M311.1 223.5V229L307 231.3V225.9L311.1 223.5Z" fill="#00CFFF"/>
<path d="M301.8 228.8V234.3L297.6 236.6V231.2L301.8 228.8Z" fill="#FF85A5"/>
<path d="M292.1 234.2V239.6L288 242V236.6L292.1 234.2Z" fill="#F8FF9C"/>
<path d="M282.8 239.5V244.9L278.6 247.3V241.8L282.8 239.5Z" fill="#00CFFF"/>
<path d="M273.1 245.1V250.5L268.9 252.9V247.4L273.1 245.1Z" fill="#FF85A5"/>
<path d="M263.7 250.4V255.8L259.5 258.2V252.7L263.7 250.4Z" fill="#FF85A5"/>
<path d="M332.5 228.1L255.3 272.1V293.3L332.5 248.6V228.1Z" fill="url(#paint13_linear)"/>
<path d="M330.2 232.1V237.6L326 239.9V234.5L330.2 232.1Z" fill="#FF85A5"/>
<path d="M320.8 237.4V242.9L316.7 245.2V239.8L320.8 237.4Z" fill="#F8FF9C"/>
<path d="M311.1 243V248.5L307 250.8V245.4L311.1 243Z" fill="#FF85A5"/>
<path d="M301.8 248.3V253.7L297.6 256.1V250.7L301.8 248.3Z" fill="#00CFFF"/>
<path d="M292.1 253.7V259.1L288 261.5V256L292.1 253.7Z" fill="#F8FF9C"/>
<path d="M282.8 259V264.4L278.6 266.8V261.3L282.8 259Z" fill="#00CFFF"/>
<path d="M273.1 264.6V270L268.9 272.4V266.9L273.1 264.6Z" fill="#FF85A5"/>
<path d="M263.7 269.9V275.3L259.5 277.7V272.2L263.7 269.9Z" fill="#00CFFF"/>
<path d="M330.2 242.2V247.6L326 250V244.5L330.2 242.2Z" fill="#F8FF9C"/>
<path d="M320.8 247.4V252.9L316.7 255.2V249.8L320.8 247.4Z" fill="#FF85A5"/>
<path d="M311.1 253V258.5L307 260.8V255.4L311.1 253Z" fill="#00CFFF"/>
<path d="M301.8 258.3V263.8L297.6 266.1V260.7L301.8 258.3Z" fill="#F8FF9C"/>
<path d="M292.1 263.7V269.1L288 271.5V266.1L292.1 263.7Z" fill="#FF85A5"/>
<path d="M282.8 269V274.4L278.6 276.8V271.4L282.8 269Z" fill="#00CFFF"/>
<path d="M273.1 274.6V280L268.9 282.4V277L273.1 274.6Z" fill="#F8FF9C"/>
<path d="M263.7 279.9V285.3L259.5 287.7V282.2L263.7 279.9Z" fill="#F8FF9C"/>
<path d="M332.5 257.6L255.3 301.6V322.8L332.5 278.1V257.6Z" fill="url(#paint14_linear)"/>
<path d="M330.2 261.6V267.1L326 269.4V264L330.2 261.6Z" fill="#F8FF9C"/>
<path d="M320.8 266.9V272.4L316.7 274.7V269.3L320.8 266.9Z" fill="#00CFFF"/>
<path d="M311.1 272.5V278L307 280.3V274.9L311.1 272.5Z" fill="#FF85A5"/>
<path d="M301.8 277.8V283.3L297.6 285.6V280.2L301.8 277.8Z" fill="#F8FF9C"/>
<path d="M292.1 283.2V288.6L288 291V285.5L292.1 283.2Z" fill="#F8FF9C"/>
<path d="M282.8 288.5V293.9L278.6 296.3V290.8L282.8 288.5Z" fill="#00CFFF"/>
<path d="M273.1 294.1V299.5L268.9 301.9V296.4L273.1 294.1Z" fill="#F8FF9C"/>
<path d="M263.7 299.4V304.8L259.5 307.2V301.7L263.7 299.4Z" fill="#F8FF9C"/>
<path d="M330.2 271.7V277.1L326 279.5V274L330.2 271.7Z" fill="#F8FF9C"/>
<path d="M320.8 276.9V282.4L316.7 284.8V279.3L320.8 276.9Z" fill="#F8FF9C"/>
<path d="M311.1 282.5V288L307 290.4V284.9L311.1 282.5Z" fill="#F8FF9C"/>
<path d="M301.8 287.8V293.3L297.6 295.6V290.2L301.8 287.8Z" fill="#FF85A5"/>
<path d="M292.1 293.2V298.6L288 301V295.6L292.1 293.2Z" fill="#F8FF9C"/>
<path d="M282.8 298.5V303.9L278.6 306.3V300.9L282.8 298.5Z" fill="#F8FF9C"/>
<path d="M273.1 304.1V309.5L268.9 311.9V306.5L273.1 304.1Z" fill="#FF85A5"/>
<path d="M263.7 309.4V314.8L259.5 317.2V311.8L263.7 309.4Z" fill="#FF85A5"/>
<path d="M332.5 287.1L255.3 331.1V352.3L332.5 307.6V287.1Z" fill="url(#paint15_linear)"/>
<path d="M330.2 291.1V296.6L326 298.9V293.5L330.2 291.1Z" fill="#FF85A5"/>
<path d="M320.8 296.4V301.9L316.7 304.2V298.8L320.8 296.4Z" fill="#FF85A5"/>
<path d="M311.1 302V307.5L307 309.8V304.4L311.1 302Z" fill="#FF85A5"/>
<path d="M301.8 307.3V312.8L297.6 315.1V309.7L301.8 307.3Z" fill="#FF85A5"/>
<path d="M292.1 312.7V318.1L288 320.5V315L292.1 312.7Z" fill="#F8FF9C"/>
<path d="M282.8 318V323.4L278.6 325.8V320.3L282.8 318Z" fill="#00CFFF"/>
<path d="M273.1 323.6V329L268.9 331.4V325.9L273.1 323.6Z" fill="#00CFFF"/>
<path d="M263.7 328.9V334.3L259.5 336.7V331.2L263.7 328.9Z" fill="#FF85A5"/>
<path d="M330.2 301.2V306.6L326 309V303.5L330.2 301.2Z" fill="#F8FF9C"/>
<path d="M320.8 306.5V311.9L316.7 314.3V308.8L320.8 306.5Z" fill="#FF85A5"/>
<path d="M311.1 312.1V317.5L307 319.9V314.4L311.1 312.1Z" fill="#00CFFF"/>
<path d="M301.8 317.3V322.8L297.6 325.2V319.7L301.8 317.3Z" fill="#FF85A5"/>
<path d="M292.1 322.7V328.1L288 330.5V325.1L292.1 322.7Z" fill="#00CFFF"/>
<path d="M282.8 328V333.4L278.6 335.8V330.4L282.8 328Z" fill="#00CFFF"/>
<path d="M273.1 333.6V339L268.9 341.4V336L273.1 333.6Z" fill="#FF85A5"/>
<path d="M263.7 338.9V344.3L259.5 346.7V341.3L263.7 338.9Z" fill="#FF85A5"/>
<path d="M332.5 316.6L255.3 360.6V381.8L332.5 337.1V316.6Z" fill="url(#paint16_linear)"/>
<path d="M330.2 320.6V326.1L326 328.4V323L330.2 320.6Z" fill="#0086FF"/>
<path d="M320.8 325.9V331.4L316.7 333.7V328.3L320.8 325.9Z" fill="#00CFFF"/>
<path d="M311.1 331.5V337L307 339.3V333.9L311.1 331.5Z" fill="#00CFFF"/>
<path d="M301.8 336.8V342.3L297.6 344.6V339.2L301.8 336.8Z" fill="#00CFFF"/>
<path d="M292.1 342.2V347.6L288 350V344.6L292.1 342.2Z" fill="#00CFFF"/>
<path d="M282.8 347.5V352.9L278.6 355.3V349.8L282.8 347.5Z" fill="#FF85A5"/>
<path d="M273.1 353.1V358.5L268.9 360.9V355.4L273.1 353.1Z" fill="#FF85A5"/>
<path d="M263.7 358.4V363.8L259.5 366.2V360.7L263.7 358.4Z" fill="#FF85A5"/>
<path d="M330.2 330.7V336.1L326 338.5V333L330.2 330.7Z" fill="#00CFFF"/>
<path d="M320.8 336V341.4L316.7 343.8V338.3L320.8 336Z" fill="#00CFFF"/>
<path d="M311.1 341.6V347L307 349.4V343.9L311.1 341.6Z" fill="#00CFFF"/>
<path d="M301.8 346.9V352.3L297.6 354.7V349.2L301.8 346.9Z" fill="#FF85A5"/>
<path d="M292.1 352.2V357.6L288 360V354.6L292.1 352.2Z" fill="#F8FF9C"/>
<path d="M282.8 357.5V362.9L278.6 365.3V359.9L282.8 357.5Z" fill="#00CFFF"/>
<path d="M273.1 363.1V368.5L268.9 370.9V365.5L273.1 363.1Z" fill="#FF85A5"/>
<path d="M263.7 368.4V373.8L259.5 376.2V370.8L263.7 368.4Z" fill="#FF85A5"/>
<path d="M332.5 346.1L255.3 390.1V411.3L332.5 366.6V346.1Z" fill="url(#paint17_linear)"/>
<path d="M330.2 350.2V355.6L326 358V352.5L330.2 350.2Z" fill="#F8FF9C"/>
<path d="M320.8 355.4V360.9L316.7 363.2V357.8L320.8 355.4Z" fill="#00CFFF"/>
<path d="M311.1 361V366.5L307 368.8V363.4L311.1 361Z" fill="#FF85A5"/>
<path d="M301.8 366.3V371.8L297.6 374.1V368.7L301.8 366.3Z" fill="#00CFFF"/>
<path d="M292.1 371.7V377.1L288 379.5V374.1L292.1 371.7Z" fill="#00CFFF"/>
<path d="M282.8 377V382.4L278.6 384.8V379.4L282.8 377Z" fill="#FF85A5"/>
<path d="M273.1 382.6V388L268.9 390.4V385L273.1 382.6Z" fill="#FF85A5"/>
<path d="M263.7 387.9V393.3L259.5 395.7V390.2L263.7 387.9Z" fill="#00CFFF"/>
<path d="M330.2 360.2V365.6L326 368V362.5L330.2 360.2Z" fill="#F8FF9C"/>
<path d="M320.8 365.5V370.9L316.7 373.3V367.8L320.8 365.5Z" fill="#FF85A5"/>
<path d="M311.1 371.1V376.5L307 378.9V373.4L311.1 371.1Z" fill="#00CFFF"/>
<path d="M301.8 376.4V381.8L297.6 384.2V378.7L301.8 376.4Z" fill="#FF85A5"/>
<path d="M292.1 381.7V387.1L288 389.5V384.1L292.1 381.7Z" fill="#F8FF9C"/>
<path d="M282.8 387V392.4L278.6 394.8V389.4L282.8 387Z" fill="#00CFFF"/>
<path d="M273.1 392.6V398L268.9 400.4V395L273.1 392.6Z" fill="#00CFFF"/>
<path d="M263.7 397.9V403.3L259.5 405.7V400.3L263.7 397.9Z" fill="#FF85A5"/>
<path d="M194.277 347V307.52L186.416 304.52V294.168L194.277 297.168V289.676C194.277 283.751 195.97 279.161 199.355 275.906C202.773 272.619 220.693 284 220.693 284V292.889C219.521 292.596 218.089 292.449 216.396 292.449C211.09 292.449 208.438 294.939 208.438 299.92V301.168L218.936 304.168V314.52L208.438 311.52V357L194.277 347Z" fill="white" fill-opacity="0.8"/>
<defs>
<linearGradient id="paint0_linear" x1="-95.0186" y1="237.886" x2="256.83" y2="747.913" gradientUnits="userSpaceOnUse">
<stop stop-color="#1B3BD8"/>
<stop offset="0.314739" stop-color="#176CE0"/>
<stop offset="0.491837" stop-color="#0B92E7"/>
<stop offset="0.71324" stop-color="#0BB6EB"/>
<stop offset="1" stop-color="#00E0F2"/>
</linearGradient>
<linearGradient id="paint1_linear" x1="92" y1="99" x2="92" y2="440" gradientUnits="userSpaceOnUse">
<stop stop-color="white" stop-opacity="0.5"/>
<stop offset="1" stop-opacity="0.5"/>
</linearGradient>
<linearGradient id="paint2_linear" x1="332.223" y1="376.143" x2="380.719" y2="446.44" gradientUnits="userSpaceOnUse">
<stop stop-color="#1B3BD8"/>
<stop offset="0.314739" stop-color="#176CE0"/>
<stop offset="0.491837" stop-color="#0B92E7"/>
<stop offset="0.71324" stop-color="#0BB6EB"/>
<stop offset="1" stop-color="#00E0F2"/>
</linearGradient>
<linearGradient id="paint3_linear" x1="358" y1="357" x2="358" y2="404" gradientUnits="userSpaceOnUse">
<stop stop-color="white" stop-opacity="0.5"/>
<stop offset="1" stop-opacity="0.5"/>
</linearGradient>
<linearGradient id="paint4_linear" x1="-14.2595" y1="236.59" x2="12.5677" y2="275.477" gradientUnits="userSpaceOnUse">
<stop stop-color="#1B3BD8"/>
<stop offset="0.314739" stop-color="#176CE0"/>
<stop offset="0.491837" stop-color="#0B92E7"/>
<stop offset="0.71324" stop-color="#0BB6EB"/>
<stop offset="1" stop-color="#00E0F2"/>
</linearGradient>
<linearGradient id="paint5_linear" x1="0" y1="226" x2="0" y2="252" gradientUnits="userSpaceOnUse">
<stop stop-color="white" stop-opacity="0.5"/>
<stop offset="1" stop-opacity="0.5"/>
</linearGradient>
<linearGradient id="paint6_linear" x1="352.068" y1="316.679" x2="245.796" y2="316.679" gradientUnits="userSpaceOnUse">
<stop stop-color="#01064A"/>
<stop offset="0.126" stop-color="#010A4E"/>
<stop offset="0.2641" stop-color="#011859"/>
<stop offset="0.4081" stop-color="#012E6C"/>
<stop offset="0.556" stop-color="#014C87"/>
<stop offset="0.7072" stop-color="#0074A9"/>
<stop offset="0.8585" stop-color="#00A3D2"/>
<stop offset="1" stop-color="#00D7FF"/>
</linearGradient>
<linearGradient id="paint7_linear" x1="342.559" y1="309.237" x2="255.305" y2="309.237" gradientUnits="userSpaceOnUse">
<stop stop-color="#01064A"/>
<stop offset="0.126" stop-color="#010A4E"/>
<stop offset="0.2641" stop-color="#011859"/>
<stop offset="0.4081" stop-color="#012E6C"/>
<stop offset="0.556" stop-color="#014C87"/>
<stop offset="0.7072" stop-color="#0074A9"/>
<stop offset="0.8585" stop-color="#00A3D2"/>
<stop offset="1" stop-color="#00D7FF"/>
</linearGradient>
<linearGradient id="paint8_linear" x1="302.665" y1="202.927" x2="290.996" y2="182.991" gradientUnits="userSpaceOnUse">
<stop stop-color="#00D7FF"/>
<stop offset="0.1104" stop-color="#00BFEA"/>
<stop offset="0.4193" stop-color="#0181B4"/>
<stop offset="0.6812" stop-color="#01548D"/>
<stop offset="0.8829" stop-color="#013875"/>
<stop offset="1" stop-color="#012E6C"/>
</linearGradient>
<linearGradient id="paint9_linear" x1="245.796" y1="316.679" x2="156.37" y2="316.679" gradientUnits="userSpaceOnUse">
<stop stop-color="#01064A"/>
<stop offset="0.1789" stop-color="#010A4E"/>
<stop offset="0.3749" stop-color="#011859"/>
<stop offset="0.5791" stop-color="#012E6C"/>
<stop offset="0.789" stop-color="#004C87"/>
<stop offset="1" stop-color="#0073A9"/>
</linearGradient>
<linearGradient id="paint10_linear" x1="228.726" y1="118.352" x2="281.096" y2="217.58" gradientUnits="userSpaceOnUse">
<stop stop-color="#01064A"/>
<stop offset="0.1789" stop-color="#010A4E"/>
<stop offset="0.3749" stop-color="#011859"/>
<stop offset="0.5791" stop-color="#012E6C"/>
<stop offset="0.789" stop-color="#004C87"/>
<stop offset="1" stop-color="#0073A9"/>
</linearGradient>
<linearGradient id="paint11_linear" x1="246.623" y1="316.322" x2="155.953" y2="316.322" gradientUnits="userSpaceOnUse">
<stop stop-color="#00D7FF"/>
<stop offset="0.1415" stop-color="#00A3D2"/>
<stop offset="0.2928" stop-color="#0074A9"/>
<stop offset="0.444" stop-color="#014C87"/>
<stop offset="0.5919" stop-color="#012E6C"/>
<stop offset="0.7359" stop-color="#011859"/>
<stop offset="0.874" stop-color="#010A4E"/>
<stop offset="1" stop-color="#01064A"/>
</linearGradient>
<linearGradient id="paint12_linear" x1="331.022" y1="200.406" x2="253.884" y2="263.655" gradientUnits="userSpaceOnUse">
<stop stop-color="#011153"/>
<stop offset="0.1659" stop-color="#011456"/>
<stop offset="0.3097" stop-color="#011F5F"/>
<stop offset="0.4454" stop-color="#01316F"/>
<stop offset="0.5761" stop-color="#014A85"/>
<stop offset="0.7032" stop-color="#016AA1"/>
<stop offset="0.8277" stop-color="#0092C3"/>
<stop offset="0.9477" stop-color="#00C0EB"/>
<stop offset="1" stop-color="#00D7FF"/>
</linearGradient>
<linearGradient id="paint13_linear" x1="331.022" y1="229.912" x2="253.884" y2="293.161" gradientUnits="userSpaceOnUse">
<stop stop-color="#011153"/>
<stop offset="0.1659" stop-color="#011456"/>
<stop offset="0.3097" stop-color="#011F5F"/>
<stop offset="0.4454" stop-color="#01316F"/>
<stop offset="0.5761" stop-color="#014A85"/>
<stop offset="0.7032" stop-color="#016AA1"/>
<stop offset="0.8277" stop-color="#0092C3"/>
<stop offset="0.9477" stop-color="#00C0EB"/>
<stop offset="1" stop-color="#00D7FF"/>
</linearGradient>
<linearGradient id="paint14_linear" x1="331.022" y1="259.418" x2="253.884" y2="322.667" gradientUnits="userSpaceOnUse">
<stop stop-color="#011153"/>
<stop offset="0.1659" stop-color="#011456"/>
<stop offset="0.3097" stop-color="#011F5F"/>
<stop offset="0.4454" stop-color="#01316F"/>
<stop offset="0.5761" stop-color="#014A85"/>
<stop offset="0.7032" stop-color="#016AA1"/>
<stop offset="0.8277" stop-color="#0092C3"/>
<stop offset="0.9477" stop-color="#00C0EB"/>
<stop offset="1" stop-color="#00D7FF"/>
</linearGradient>
<linearGradient id="paint15_linear" x1="331.022" y1="288.924" x2="253.884" y2="352.173" gradientUnits="userSpaceOnUse">
<stop stop-color="#011153"/>
<stop offset="0.1659" stop-color="#011456"/>
<stop offset="0.3097" stop-color="#011F5F"/>
<stop offset="0.4454" stop-color="#01316F"/>
<stop offset="0.5761" stop-color="#014A85"/>
<stop offset="0.7032" stop-color="#016AA1"/>
<stop offset="0.8277" stop-color="#0092C3"/>
<stop offset="0.9477" stop-color="#00C0EB"/>
<stop offset="1" stop-color="#00D7FF"/>
</linearGradient>
<linearGradient id="paint16_linear" x1="331.022" y1="318.429" x2="253.884" y2="381.679" gradientUnits="userSpaceOnUse">
<stop stop-color="#011153"/>
<stop offset="0.1659" stop-color="#011456"/>
<stop offset="0.3097" stop-color="#011F5F"/>
<stop offset="0.4454" stop-color="#01316F"/>
<stop offset="0.5761" stop-color="#014A85"/>
<stop offset="0.7032" stop-color="#016AA1"/>
<stop offset="0.8277" stop-color="#0092C3"/>
<stop offset="0.9477" stop-color="#00C0EB"/>
<stop offset="1" stop-color="#00D7FF"/>
</linearGradient>
<linearGradient id="paint17_linear" x1="331.022" y1="347.935" x2="253.884" y2="411.184" gradientUnits="userSpaceOnUse">
<stop stop-color="#011153"/>
<stop offset="0.1659" stop-color="#011456"/>
<stop offset="0.3097" stop-color="#011F5F"/>
<stop offset="0.4454" stop-color="#01316F"/>
<stop offset="0.5761" stop-color="#014A85"/>
<stop offset="0.7032" stop-color="#016AA1"/>
<stop offset="0.8277" stop-color="#0092C3"/>
<stop offset="0.9477" stop-color="#00C0EB"/>
<stop offset="1" stop-color="#00D7FF"/>
</linearGradient>
</defs>
</svg>
