<svg xmlns="http://www.w3.org/2000/svg" xmlns:xlink="http://www.w3.org/1999/xlink" viewBox="0 0 115.57 108.92"><defs><style>.cls-1{mask:url(#mask);filter:url(#luminosity-noclip-3);}.cls-2,.cls-21,.cls-4,.cls-46,.cls-91{mix-blend-mode:multiply;}.cls-2{fill:url(#linear-gradient);}.cls-3{mask:url(#mask-2);filter:url(#luminosity-noclip-4);}.cls-4{fill:url(#linear-gradient-2);}.cls-5{fill:#f0f3f9;}.cls-6{fill:url(#linear-gradient-3);}.cls-7{fill:#cdd1f6;}.cls-8{fill:#d78400;}.cls-9{fill:#381977;}.cls-10{isolation:isolate;}.cls-11,.cls-34{mix-blend-mode:overlay;}.cls-12{fill:#fdfdfd;}.cls-13{fill:#f5f5fd;}.cls-14{fill:#b5b9dc;}.cls-15{fill:#f3e7e0;}.cls-16{fill:#f2eae6;}.cls-17{fill:#e3e5f5;}.cls-18{fill:url(#linear-gradient-4);}.cls-19{opacity:0.7;}.cls-20,.cls-29{fill:#b6ccdf;}.cls-20,.cls-28,.cls-46,.cls-54{opacity:0.3;}.cls-20,.cls-28,.cls-54,.cls-82{mix-blend-mode:screen;}.cls-21{fill:#1c4b5f;}.cls-21,.cls-42,.cls-82{opacity:0.2;}.cls-22{clip-path:url(#clip-path);}.cls-23{clip-path:url(#clip-path-2);}.cls-24,.cls-71{fill:#f1f5fa;}.cls-25{fill:url(#linear-gradient-6);}.cls-26{fill:#141e30;}.cls-27{fill:#316c99;}.cls-30{clip-path:url(#clip-path-3);}.cls-31{fill:#e8ecf2;}.cls-32{fill:url(#linear-gradient-7);}.cls-33{fill:#fff;}.cls-34{opacity:0.89;}.cls-35{fill:#feaff1;opacity:0;}.cls-36{fill:#dab9f3;opacity:0.17;}.cls-37{fill:#b5c2f6;opacity:0.33;}.cls-38{fill:#91ccf8;opacity:0.5;}.cls-39{fill:#6dd6fa;opacity:0.67;}.cls-40{fill:#48dffd;opacity:0.83;}.cls-41{fill:#24e9ff;}.cls-42{fill:#e7f5f6;}.cls-43{fill:#fc0;}.cls-44{fill:#f69503;}.cls-45{fill:#ffb300;}.cls-47{fill:#ffa200;}.cls-48{fill:#ffd950;}.cls-49{fill:#ffc100;}.cls-50{clip-path:url(#clip-path-4);}.cls-51{clip-path:url(#clip-path-5);}.cls-52{clip-path:url(#clip-path-6);}.cls-53{clip-path:url(#clip-path-7);}.cls-54{fill:#f5ebcb;}.cls-55{opacity:0.9;}.cls-56{mask:url(#mask-3);}.cls-57{fill:#f1f2f2;}.cls-58{mask:url(#mask-4);}.cls-59{opacity:0.8;}.cls-60{fill:#f5c2a6;}.cls-61{fill:#8caed5;}.cls-62{fill:#1f1f24;}.cls-63{fill:#1f0159;}.cls-64{fill:#f0f4f9;}.cls-65{fill:#ffd6bf;}.cls-66{fill:#816e5d;}.cls-67{fill:#746150;}.cls-68{fill:#154902;}.cls-69{fill:#a5a9d3;}.cls-70{fill:url(#linear-gradient-8);}.cls-71{opacity:0.4;}.cls-72{fill:#ffc533;}.cls-73{clip-path:url(#clip-path-8);}.cls-74{clip-path:url(#clip-path-9);}.cls-75{fill:#21deff;}.cls-76{clip-path:url(#clip-path-10);}.cls-77{fill:#28292f;}.cls-78{fill:#ebb091;}.cls-79{fill:#e8edf9;}.cls-80{fill:#022540;}.cls-81{fill:#ffb200;}.cls-83{fill:#bf66a4;}.cls-84{fill:#f02031;}.cls-85{fill:#995033;}.cls-86{fill:#66311c;}.cls-87{fill:#951616;}.cls-88{fill:#d4ddf3;}.cls-89{fill:#ffda6a;}.cls-90{fill:#171716;}.cls-91{fill:#bcc0d2;}.cls-92{fill:#78401f;}.cls-93{fill:#64361c;}.cls-94{fill:#263b51;}.cls-95{fill:#d7dfea;}.cls-96{fill:#351b0d;}.cls-97{fill:url(#linear-gradient-9);}.cls-98{fill:url(#linear-gradient-10);}.cls-99{fill:#ffc6a6;}.cls-100{fill:#050505;}.cls-101{fill:#282a2e;}.cls-102{fill:#1b1c1e;}.cls-103{fill:#ccc;}.cls-104{fill:#e6e6e6;}.cls-105{fill:#f2f2f2;}.cls-106{fill:url(#linear-gradient-11);}.cls-107{filter:url(#luminosity-noclip-2);}.cls-108{filter:url(#luminosity-noclip);}</style><filter id="luminosity-noclip" x="16.11" y="-8304.05" width="6.55" height="32766" filterUnits="userSpaceOnUse" color-interpolation-filters="sRGB"><feFlood flood-color="#fff" result="bg"/><feBlend in="SourceGraphic" in2="bg"/></filter><mask id="mask" x="16.11" y="-8304.05" width="6.55" height="32766" maskUnits="userSpaceOnUse"><g class="cls-108"/></mask><linearGradient id="linear-gradient" x1="22.5" y1="40.32" x2="18.85" y2="37.16" gradientUnits="userSpaceOnUse"><stop offset="0.23" stop-color="#fff"/><stop offset="0.42" stop-color="#fbfbfb"/><stop offset="0.59" stop-color="#f0f0f0"/><stop offset="0.76" stop-color="#ddd"/><stop offset="0.92" stop-color="#c2c2c2"/><stop offset="1" stop-color="#b3b3b3"/></linearGradient><filter id="luminosity-noclip-2" x="0" y="-8304.05" width="16.68" height="32766" filterUnits="userSpaceOnUse" color-interpolation-filters="sRGB"><feFlood flood-color="#fff" result="bg"/><feBlend in="SourceGraphic" in2="bg"/></filter><mask id="mask-2" x="0" y="-8304.05" width="16.68" height="32766" maskUnits="userSpaceOnUse"><g class="cls-107"/></mask><linearGradient id="linear-gradient-2" x1="12.17" y1="48.68" x2="5.5" y2="42.29" xlink:href="#linear-gradient"/><linearGradient id="linear-gradient-3" x1="-13148.7" y1="58.5" x2="-13146.21" y2="58.5" gradientTransform="matrix(-1, 0, 0, 1, -13127.82, 0)" gradientUnits="userSpaceOnUse"><stop offset="0.01" stop-color="#e4e9f2"/><stop offset="1" stop-color="#b4c2da"/></linearGradient><linearGradient id="linear-gradient-4" x1="15.58" y1="7.32" x2="84.98" y2="88.77" gradientUnits="userSpaceOnUse"><stop offset="0" stop-color="#21deff"/><stop offset="1" stop-color="#0ab4ef"/></linearGradient><clipPath id="clip-path"><path class="cls-5" d="M30.91,50.88l1.47.86a.71.71,0,0,0-.72.07L30.18,51A.73.73,0,0,1,30.91,50.88Z"/></clipPath><clipPath id="clip-path-2"><path class="cls-6" d="M19.86,59.81,18.38,59a2.24,2.24,0,0,1,1-1.76l1.47.86A2.26,2.26,0,0,0,19.86,59.81Z"/></clipPath><linearGradient id="linear-gradient-6" x1="-13160.57" y1="69.2" x2="-13147.69" y2="69.2" gradientTransform="matrix(-1, 0, 0, 1, -13127.82, 0)" gradientUnits="userSpaceOnUse"><stop offset="0" stop-color="#21deff"/><stop offset="0.29" stop-color="#1ad2fa"/><stop offset="1" stop-color="#0ab4ef"/></linearGradient><clipPath id="clip-path-3"><path class="cls-7" d="M102.64,67.28l0,2.7c0,3.48-2.29,7-6.85,9.6-9.19,5.34-24.13,5.34-33.37,0-4.65-2.69-7-6.21-7-9.73l0-2.7c0,3.52,2.31,7,7,9.73,9.24,5.34,24.18,5.34,33.36,0C100.35,74.23,102.63,70.76,102.64,67.28Z"/></clipPath><linearGradient id="linear-gradient-7" x1="73.59" y1="64.73" x2="94.4" y2="74.87" xlink:href="#linear-gradient-4"/><clipPath id="clip-path-4"><path class="cls-8" d="M83.89,56.51l1,.58c.21.12.28.49.28.92a1.74,1.74,0,0,1-.76,1.7l-1-.58a1.73,1.73,0,0,0,.76-1.7C84.16,57,84.09,56.63,83.89,56.51Z"/></clipPath><clipPath id="clip-path-5"><path class="cls-8" d="M86.46,54.21l1,.57a1.38,1.38,0,0,0-1.23,0l-1-.58A1.38,1.38,0,0,1,86.46,54.21Z"/></clipPath><clipPath id="clip-path-6"><path class="cls-8" d="M83.7,51.91l1,.57c.13.08.22.28.23.68a1.56,1.56,0,0,1-.7,1.33l-1-.58a1.52,1.52,0,0,0,.7-1.32C83.93,52.19,83.83,52,83.7,51.91Z"/></clipPath><clipPath id="clip-path-7"><path class="cls-8" d="M86.11,48.36l1,.57c-.54-.31-1.37-.18-2.56.48l-1-.57C84.74,48.17,85.58,48,86.11,48.36Z"/></clipPath><filter id="luminosity-noclip-3" x="16.11" y="36.07" width="6.55" height="2.78" filterUnits="userSpaceOnUse" color-interpolation-filters="sRGB"><feFlood flood-color="#fff" result="bg"/><feBlend in="SourceGraphic" in2="bg"/></filter><mask id="mask-3" x="16.11" y="36.07" width="6.55" height="2.78" maskUnits="userSpaceOnUse"><g class="cls-1"><path class="cls-2" d="M20.63,36.37a2.57,2.57,0,0,0-1.84-.23,4.62,4.62,0,0,0-1.37.55,6.68,6.68,0,0,0-1.31,1l2,1.18a7.58,7.58,0,0,1,1.32-1,4.75,4.75,0,0,1,1.37-.54,2.54,2.54,0,0,1,1.83.23Z"/></g></mask><filter id="luminosity-noclip-4" x="0" y="34.84" width="16.68" height="21.15" filterUnits="userSpaceOnUse" color-interpolation-filters="sRGB"><feFlood flood-color="#fff" result="bg"/><feBlend in="SourceGraphic" in2="bg"/></filter><mask id="mask-4" x="0" y="34.84" width="16.68" height="21.15" maskUnits="userSpaceOnUse"><g class="cls-3"><path class="cls-4" d="M14.65,35.2a2.9,2.9,0,0,0-2.12-.28,5.58,5.58,0,0,0-1.59.64,9.52,9.52,0,0,0-2.53,2.21,11.92,11.92,0,0,0-2.6,5.85,4.73,4.73,0,0,0-1.32.53,8.28,8.28,0,0,0-2.18,1.91A9.78,9.78,0,0,0,0,51.93a3.16,3.16,0,0,0,1.31,2.89l2,1.17A3.12,3.12,0,0,1,2,53.11a9.78,9.78,0,0,1,2.31-5.87,8.13,8.13,0,0,1,2.18-1.91,4.8,4.8,0,0,1,1.31-.53A11.85,11.85,0,0,1,10.44,39,9.52,9.52,0,0,1,13,36.74a5.52,5.52,0,0,1,1.58-.64,3,3,0,0,1,2.13.27Z"/></g></mask><linearGradient id="linear-gradient-8" x1="-15062.84" y1="64.4" x2="-15061.31" y2="64.4" gradientTransform="matrix(-1, 0, 0, 1, -15012.13, 0)" xlink:href="#linear-gradient-4"/><clipPath id="clip-path-8"><path class="cls-9" d="M97.33,73.62,98.47,73s0-.07,0-.12l-1.15.66C97.36,73.54,97.36,73.6,97.33,73.62Z"/></clipPath><clipPath id="clip-path-9"><path class="cls-9" d="M97.2,70.63l-1.14.66h0s0,0,0,0l1.15-.67Z"/></clipPath><clipPath id="clip-path-10"><path class="cls-9" d="M96.17,71.36l1.15-.66-.06-.07-1.15.67A.09.09,0,0,1,96.17,71.36Z"/></clipPath><linearGradient id="linear-gradient-9" x1="72.9" y1="85.03" x2="77.61" y2="85.03" gradientUnits="userSpaceOnUse"><stop offset="0.01" stop-color="#d9e1ee"/><stop offset="1" stop-color="#aabad6"/></linearGradient><linearGradient id="linear-gradient-10" x1="75.5" y1="83.03" x2="78.11" y2="83.03" xlink:href="#linear-gradient-9"/><linearGradient id="linear-gradient-11" x1="78.08" y1="85.97" x2="82.44" y2="85.97" xlink:href="#linear-gradient-9"/></defs><g class="cls-10"><g id="Слой_2" data-name="Слой 2"><g id="Layer_1" data-name="Layer 1"><g class="cls-11"><path class="cls-12" d="M63.46,91.35H63.4L40,77.85a.12.12,0,0,1,0-.16.13.13,0,0,1,.16,0L63.51,91.13a.12.12,0,0,1,.05.16A.11.11,0,0,1,63.46,91.35Z"/><path class="cls-12" d="M60.6,97.16a.12.12,0,0,1-.1,0h-.06l-1-.56L48.9,90.53l-.24-.13.24-.14.23.14,10.58,6.1.85.5A.11.11,0,0,1,60.6,97.16Z"/><path class="cls-12" d="M44.88,92.83h-.06L29.32,83.9a.12.12,0,0,1,0-.16.13.13,0,0,1,.16,0l15.49,8.91a.12.12,0,0,1,0,.22Z"/><path class="cls-12" d="M51.8,71.11h0l-10.1-5.83a.11.11,0,0,1,0-.16.11.11,0,0,1,.16,0l10.09,5.82a.12.12,0,0,1,0,.16A.14.14,0,0,1,51.8,71.11Z"/><path class="cls-12" d="M63.46,91.35a.13.13,0,0,1-.11-.06.12.12,0,0,1,0-.16l11.69-6.75a.12.12,0,0,1,.12.2l-11.7,6.76Z"/><path class="cls-12" d="M51.11,84.18a.13.13,0,0,1-.1-.06.12.12,0,0,1,0-.16l15.74-9.09a.13.13,0,0,1,.16,0,.12.12,0,0,1,0,.16L51.17,84.16Z"/><path class="cls-12" d="M55.41,86.77,49.13,90.4l-.23.13-4,2.29-.06,0a.12.12,0,0,1-.1-.06.12.12,0,0,1,0-.16l3.84-2.22.24-.14,6.39-3.69a.12.12,0,0,1,.16,0A.11.11,0,0,1,55.41,86.77Z"/><path class="cls-12" d="M40.1,77.87a.11.11,0,0,1-.1-.06.12.12,0,0,1,0-.16l11.71-6.76a.12.12,0,0,1,.16,0,.12.12,0,0,1,0,.16l-11.7,6.75Z"/><path class="cls-13" d="M31.94,90a2,2,0,0,0-1.84,0,.56.56,0,0,0,0,1.06,2.05,2.05,0,0,0,1.84,0A.56.56,0,0,0,31.94,90Z"/><path class="cls-13" d="M61.42,96.57a2,2,0,0,0-1.84,0,.56.56,0,0,0,0,1.06,2.05,2.05,0,0,0,1.84,0A.56.56,0,0,0,61.42,96.57Z"/><path class="cls-13" d="M76.07,83.9a2,2,0,0,0-1.84,0c-.51.29-.51.76,0,1.06a2.05,2.05,0,0,0,1.84,0C76.58,84.66,76.58,84.19,76.07,83.9Z"/><path class="cls-12" d="M30.82,90.8a.11.11,0,0,1-.1-.06.12.12,0,0,1,0-.16l5.21-3a.12.12,0,0,1,.16.05.11.11,0,0,1,0,.16l-5.21,3Z"/><path class="cls-13" d="M30.25,83.28a2.05,2.05,0,0,0-1.84,0,.56.56,0,0,0,0,1.06,2.05,2.05,0,0,0,1.84,0A.56.56,0,0,0,30.25,83.28Z"/></g><path class="cls-14" d="M36.12,67.69,34.1,66a5,5,0,0,1-1.81-3.86V48.66h.64V62.14a4.39,4.39,0,0,0,1.58,3.37l2.26,1.9Z"/><polygon class="cls-15" points="39.38 69.81 39.37 69.81 39.37 70.26 36.12 67.69 36.1 67.67 36.43 67.48 36.49 67.54 39.38 69.81"/><polygon class="cls-14" points="39.38 69.81 39.37 69.81 39.37 70.26 36.12 67.69 36.1 67.67 36.1 67.22 36.32 67.39 36.43 67.48 36.49 67.54 39.38 69.81"/><path class="cls-13" d="M55.58,60.54l-16.2,9.27-2.89-2.27-.06-.06-.11-.09h0l-.19-.17L34.28,65.7l-.06,0a4.35,4.35,0,0,1-1.58-3.33v-13l.29-.16L43,43.54l3.59-3.27h.64V53.74a1.77,1.77,0,0,0,0,.24,4.4,4.4,0,0,0,1.57,3.14l.22.16C49.94,57.87,52.69,59.19,55.58,60.54Z"/><path class="cls-14" d="M47.24,54l-14.6,8.34V50.24c1-1,1.79-1.69,1.89-1.58.24.29,9.56-2.3,12.7-2.74v7.82A1.77,1.77,0,0,0,47.24,54Z"/><polygon class="cls-16" points="39.38 69.81 55.58 60.54 55.58 61 39.37 70.26 39.38 69.81"/><path class="cls-7" d="M49,57.28,34.28,65.7l-.06,0a4.35,4.35,0,0,1-1.58-3.33L47.24,54a4.4,4.4,0,0,0,1.57,3.14Z"/><path class="cls-14" d="M65.14,1.06l-.35.07h0l-.73.14c0,.08,0,.16,0,.24s0,.43,0,.67l-.07,7.68-.18,26.19a6.7,6.7,0,0,1-2.82,5.3L14,68.45l-.08,0,.36,1.31-1.6-.94a2.29,2.29,0,0,1-1-1.91c0-.11,0-.24,0-.36l.26-33.82v-.05a7,7,0,0,1,1.49-4.1,4.63,4.63,0,0,1,1.33-1.19L61.85.32A1.81,1.81,0,0,1,63.61.16h0l1.33.78Z"/><path class="cls-13" d="M64.94.94l-.15.19h0l-.68.38L15,29.39l-1.61-.77a4.63,4.63,0,0,1,1.33-1.19L61.85.32A1.81,1.81,0,0,1,63.61.16h0Z"/><path class="cls-14" d="M17.1,30.4l-1.75,4.31-3.41-1.94v-.05a7,7,0,0,1,1.49-4.1Z"/><path class="cls-17" d="M66.12,3.33l0,3.38h0l0,4.3-.18,26.19a6.67,6.67,0,0,1-2.82,5.29L45.8,52.29,27.27,62.79l-.44.26L16,69.61a1.66,1.66,0,0,1-2.66-1.12,3.87,3.87,0,0,1-.1-.65c0-.12,0-.23,0-.36l0-3.85.07-9.93.15-20.09a6.7,6.7,0,0,1,2.82-5.3l19.44-11,0,0,6.64-4,8.42-5h0l9.73-5.52,2.82-1.6a1.62,1.62,0,0,1,2.4.47A3.45,3.45,0,0,1,66.12,3.33Z"/><path class="cls-18" d="M64.25,3.9V38.41L33.84,56.18,15,67.18V32.68C42.43,16.64,55.84,8.82,63.9,4.11Z"/><polygon class="cls-14" points="63.54 4.31 63.54 38.02 15.01 66.39 15.01 67.18 64.25 38.41 64.25 3.9 63.54 4.31"/><polygon class="cls-13" points="15.01 67.18 64.25 38.41 63.54 38.02 15.01 66.39 15.01 67.18"/><g class="cls-19"><path class="cls-5" d="M33.76,49.49A6.33,6.33,0,0,1,30,48.35c-2.12-1.51-3.11-4.33-2.76-7.93a23,23,0,0,1,4.32-10.77A22.85,22.85,0,0,1,40.28,22l.23.49L40.28,22c3.25-1.48,6.2-1.47,8.3,0s3.11,4.33,2.77,7.93A23,23,0,0,1,47,40.77a22.74,22.74,0,0,1-8.71,7.61A11,11,0,0,1,33.76,49.49ZM44.83,22a10,10,0,0,0-4.1,1h0C34.53,25.84,29,33.7,28.31,40.52c-.31,3.21.52,5.68,2.32,7s4.36,1.24,7.24-.08c6.2-2.83,11.77-10.69,12.42-17.52.3-3.21-.52-5.68-2.32-7A5.34,5.34,0,0,0,44.83,22Z"/><path class="cls-5" d="M43.09,33.3c1.16-.45,1.93.31,1.93,1.64a6.29,6.29,0,0,1-3.54,6v1.49l-1.44.83V41.77l-.88.51v1.49l-1.44.83V43.11l-.86.49-.37.22L34.27,45.1V43.45l2.23-1.28,0-9.61-2.23,1.29V32.2l2.23-1.29.36-.21.86-.49v-1.5l1.44-.83v1.5l.88-.51v-1.5l1.43-.83V28c2.31-1.3,3.27-.52,3.28,1.64A4.77,4.77,0,0,1,43.09,33.3Zm-1.8,4.85A1.67,1.67,0,0,0,42,36.49c0-.66-.15-1.18-.75-.84l-1.83,1.06v2.5l1.82-1.06Zm-1.84-6.06V34l1.68-1a1.48,1.48,0,0,0,.68-1.3c0-.78-.35-.8-.69-.61l-1.67,1Z"/></g><polygon class="cls-20" points="33.69 21.76 15.01 54.12 15.01 44.84 25.61 26.48 26.07 26.21 28.01 25.08 29.49 24.21 32.72 22.33 33.69 21.76"/><polygon class="cls-20" points="63.9 4.11 33.84 56.18 29.84 58.51 29.66 58.62 15.01 67.18 15.01 65.43 43.55 15.99 44.59 15.39 44.8 15.27 45.06 15.11 45.63 14.78 46.53 14.25 46.97 14 63.9 4.11"/><path class="cls-21" d="M26.57,75.45c-3.06,1.54.51-1.53-2.57,0-1.5.73-3,1.45-4.49,2.19l-1,.51,0,6.72v.77a.73.73,0,0,0,.31.67l1.52.89,0,0a.7.7,0,0,0,.78,0l11.12-6.44a2.3,2.3,0,0,0,1.05-1.81V78Z"/><g class="cls-10"><path class="cls-5" d="M30.91,50.88l1.47.86a.71.71,0,0,0-.72.07L30.18,51A.73.73,0,0,1,30.91,50.88Z"/><g class="cls-22"><g class="cls-10"><path class="cls-5" d="M31.66,51.81,30.18,51a1.1,1.1,0,0,1,.31-.12l1.48.86a1.1,1.1,0,0,0-.31.12Z"/><path class="cls-5" d="M32,51.69l-1.48-.86a.59.59,0,0,1,.4,0l1.48.86a.6.6,0,0,0-.4,0Z"/><path class="cls-5" d="M32.37,51.73l-1.48-.86h0l1.47.86Z"/></g></g><polygon class="cls-13" points="20.88 58.05 19.4 57.19 30.18 50.95 31.66 51.81 20.88 58.05"/><path class="cls-6" d="M19.86,59.81,18.38,59a2.24,2.24,0,0,1,1-1.76l1.47.86A2.26,2.26,0,0,0,19.86,59.81Z"/><g class="cls-23"><path class="cls-7" d="M19.4,57.19a1.82,1.82,0,0,0-.5.43,2.88,2.88,0,0,0-.34.56,2,2,0,0,0-.18.77l1.48.86A2,2,0,0,1,20,59a2.88,2.88,0,0,1,.34-.56,1.94,1.94,0,0,1,.49-.43Z"/></g><path class="cls-24" d="M32.75,78.34a2.22,2.22,0,0,1-1,1.76L21,86.34c-.56.32-1,.06-1-.59v-.82l12.82-7.41Z"/><polygon class="cls-25" points="32.69 53.47 32.75 77.52 19.93 84.93 19.86 60.89 32.69 53.47"/><path class="cls-24" d="M19.86,59.81a2.26,2.26,0,0,1,1-1.76l10.79-6.24c.56-.32,1-.06,1,.58v1.08L19.86,60.89Z"/></g><path class="cls-7" d="M22.62,55.92a.32.32,0,0,0,.18.24,1,1,0,0,0,.87,0,.29.29,0,0,0,.13-.11c.1-.14.06-.29-.13-.4a1,1,0,0,0-.87,0Q22.61,55.77,22.62,55.92Z"/><path class="cls-26" d="M22.62,55.92a.32.32,0,0,0,.18.24,1,1,0,0,0,.87,0,.29.29,0,0,0,.13-.11.3.3,0,0,0-.17-.24,1,1,0,0,0-.88,0A.36.36,0,0,0,22.62,55.92Z"/><path class="cls-7" d="M20.4,57.29a.31.31,0,0,0,.14.14.87.87,0,0,0,.8,0l.85-.5a.51.51,0,0,0,.13-.12c.07-.12,0-.26-.14-.35a.87.87,0,0,0-.8,0l-.84.51C20.38,57.05,20.34,57.18,20.4,57.29Z"/><path class="cls-26" d="M20.4,57.29a.31.31,0,0,0,.14.14.87.87,0,0,0,.8,0l.85-.5a.51.51,0,0,0,.13-.12.32.32,0,0,0-.14-.14.87.87,0,0,0-.8,0l-.85.51A.51.51,0,0,0,20.4,57.29Z"/><path class="cls-7" d="M27.75,55.66l-3.93,2.27c-.17.1-.31,0-.31-.17h0a.69.69,0,0,1,.31-.54L27.75,55c.17-.1.31,0,.31.18h0A.69.69,0,0,1,27.75,55.66Z"/><path class="cls-7" d="M19.93,85.75a.74.74,0,0,0,.3.66l-1.48-.86a.74.74,0,0,1-.3-.66v-.74l1.48.85Z"/><polygon class="cls-7" points="18.38 58.95 19.86 59.81 19.86 60.88 18.39 60.03 18.38 58.95"/><polygon class="cls-7" points="19.86 60.88 19.93 85 18.45 84.15 18.39 60.03 19.86 60.88"/><polygon class="cls-27" points="19.1 60.45 19.86 60.88 19.93 85 19.1 84.53 19.1 60.45"/><polygon class="cls-20" points="32.69 53.47 32.75 77.52 19.93 84.93 19.86 60.89 32.69 53.47"/><g class="cls-19"><path class="cls-5" d="M24.07,76.26a2.77,2.77,0,0,1-1.64-.5,3.62,3.62,0,0,1-1.21-3.47,9.94,9.94,0,0,1,1.89-4.71,10,10,0,0,1,3.81-3.34l.1.22-.1-.22a3.59,3.59,0,0,1,3.63,0,3.62,3.62,0,0,1,1.21,3.47,10.08,10.08,0,0,1-1.89,4.71,10,10,0,0,1-3.81,3.33A4.92,4.92,0,0,1,24.07,76.26Zm4.84-12a4.47,4.47,0,0,0-1.8.44h0a10.39,10.39,0,0,0-5.43,7.66,3.2,3.2,0,0,0,1,3,3.13,3.13,0,0,0,3.16,0,10.43,10.43,0,0,0,5.44-7.67,3.19,3.19,0,0,0-1-3A2.27,2.27,0,0,0,28.91,64.23Z"/><path class="cls-5" d="M28.15,69.17c.5-.19.84.14.84.72a2.76,2.76,0,0,1-1.54,2.63v.65l-.63.36v-.65l-.39.22v.65l-.63.37v-.66l-.37.22-.16.09-1,.57v-.72l1-.57v-4.2l-1,.57v-.73l1-.56.16-.09.38-.22v-.65l.63-.37v.66l.38-.23v-.65l.63-.36v.65c1-.57,1.43-.22,1.43.72A2,2,0,0,1,28.15,69.17Zm-.79,2.13a.74.74,0,0,0,.33-.73c0-.29-.07-.52-.33-.37l-.8.46v1.1l.8-.46Zm-.81-2.66v.84l.73-.43a.64.64,0,0,0,.3-.56c0-.34-.16-.35-.3-.27l-.74.42Z"/></g><g class="cls-28"><polygon class="cls-29" points="28.63 55.82 19.89 70.11 19.9 73.35 31.71 54.04 28.63 55.82"/><polygon class="cls-29" points="32.69 56 19.91 76.9 19.92 82.02 32.7 61.12 32.69 56"/><polygon class="cls-29" points="32.7 61.12 19.92 82.02 19.93 84.93 22.64 83.36 32.72 66.89 32.7 61.12"/></g><path class="cls-21" d="M96.27,59.66c-9.25-5.34-24.19-5.34-33.37,0C58.32,62.32,56,65.8,56,69.29v0L56,72c0,5.49,5.37,9.41,10.48,11.41,9.25,3.6,21.81,3,29.86-1.68,7.67-4.46,6.85-9.45,6.87-12.29C103.23,70.25,104.27,64.28,96.27,59.66Z"/><g class="cls-10"><g class="cls-10"><path class="cls-7" d="M102.64,67.28l0,2.7c0,3.48-2.29,7-6.85,9.6-9.19,5.34-24.13,5.34-33.37,0-4.65-2.69-7-6.21-7-9.73l0-2.7c0,3.52,2.31,7,7,9.73,9.24,5.34,24.18,5.34,33.36,0C100.35,74.23,102.63,70.76,102.64,67.28Z"/><g class="cls-30"><g class="cls-10"><path class="cls-7" d="M102.64,67.28l0,2.7a9.28,9.28,0,0,1-2.47,6.07l0-2.7a9.28,9.28,0,0,0,2.47-6.07Z"/><path class="cls-7" d="M100.17,73.35l0,2.7a17.2,17.2,0,0,1-4.38,3.53,25.44,25.44,0,0,1-2.39,1.21l0-2.7a24.1,24.1,0,0,0,2.38-1.21,17.09,17.09,0,0,0,4.39-3.53Z"/><path class="cls-7" d="M93.4,78.09l0,2.7a37.5,37.5,0,0,1-18.44,2.58l0-2.7A37.38,37.38,0,0,0,93.4,78.09Z"/><path class="cls-7" d="M75,80.67l0,2.7A34.21,34.21,0,0,1,65.22,81l0-2.7A34.21,34.21,0,0,0,75,80.67Z"/><path class="cls-7" d="M65.24,78.27l0,2.7a24.63,24.63,0,0,1-2.82-1.39c-4.65-2.69-7-6.21-7-9.73l0-2.7c0,3.52,2.31,7,7,9.73a24.63,24.63,0,0,0,2.82,1.39Z"/></g></g></g><path class="cls-31" d="M95.68,57.55c9.24,5.34,9.29,14,.1,19.33s-24.12,5.34-33.36,0-9.3-14-.11-19.33S86.43,52.21,95.68,57.55Z"/></g><path class="cls-14" d="M94.32,67.35c0,2-1.52,4-4.27,5.46a23.51,23.51,0,0,1-11,2.46,23.76,23.76,0,0,1-11-2.46c-2.79-1.51-4.33-3.46-4.33-5.51v-.38c0-2,1.51-4,4.26-5.46A23.69,23.69,0,0,1,79,59a23.88,23.88,0,0,1,11,2.45C92.77,63,94.31,64.93,94.32,67c0,.06,0,.12,0,.19h0C94.31,67.23,94.32,67.29,94.32,67.35ZM92.8,58.94A29.64,29.64,0,0,0,79,55.83a29.47,29.47,0,0,0-13.8,3.11c-3.85,2.09-6,4.92-6,8v.21c0,.07,0,.14,0,.22.19,2.91,2.32,5.6,6,7.6A29.7,29.7,0,0,0,79.1,78.06,29.55,29.55,0,0,0,92.89,75c3.66-2,5.75-4.65,6-7.53a1.7,1.7,0,0,1,0-.22V67C98.85,63.89,96.7,61,92.8,58.94Z"/><path class="cls-32" d="M92.8,59.82A29.76,29.76,0,0,0,79,56.71a29.59,29.59,0,0,0-13.8,3.11c-3.65,2-5.75,4.65-5.94,7.53.19,2.91,2.32,5.6,6,7.6A29.7,29.7,0,0,0,79.1,78.06,29.55,29.55,0,0,0,92.89,75c3.66-2,5.75-4.65,6-7.53C98.64,64.51,96.52,61.82,92.8,59.82Z"/><path class="cls-14" d="M88.62,62.41A20.71,20.71,0,0,0,79,60.25a20.53,20.53,0,0,0-9.61,2.17c-2.54,1.38-4,3.23-4.14,5.24.13,2,1.62,3.9,4.21,5.3a20.64,20.64,0,0,0,9.63,2.17A20.53,20.53,0,0,0,88.69,73c2.55-1.38,4-3.24,4.14-5.25C92.7,65.69,91.22,63.81,88.62,62.41Z"/><path class="cls-33" d="M88.62,61.6A20.59,20.59,0,0,0,79,59.43a20.53,20.53,0,0,0-9.61,2.17c-2.54,1.38-4,3.24-4.14,5.24.13,2,1.62,3.9,4.21,5.3a20.64,20.64,0,0,0,9.63,2.17,20.53,20.53,0,0,0,9.61-2.17c2.55-1.38,4-3.24,4.14-5.25C92.7,64.87,91.22,63,88.62,61.6Z"/><g class="cls-34"><path class="cls-35" d="M53,30.05c14.37,6.23,37.59,6.22,51.87,0s14.2-16.3-.17-22.52-37.59-6.23-51.87,0-14.2,16.3.17,22.52"/><path class="cls-36" d="M55,37.6c13.27,5.93,34.7,5.93,47.88,0s13.1-15.54-.16-21.47-34.7-5.92-47.87,0S41.77,31.67,55,37.6"/><path class="cls-37" d="M57,45.15c12.16,5.63,31.81,5.63,43.88,0s12-14.77-.14-20.41-31.8-5.63-43.88,0-12,14.77.14,20.41"/><path class="cls-38" d="M59,52.69c11,5.35,28.9,5.35,39.88,0s10.92-14-.13-19.34-28.91-5.34-39.89,0S48,47.35,59,52.69"/><path class="cls-39" d="M61,60.24c9.94,5.05,26,5.05,35.89,0S106.72,47,96.78,42s-26-5.05-35.89,0S51.06,55.19,61,60.24"/><path class="cls-40" d="M63,67.79c8.83,4.75,23.11,4.75,31.89,0s8.73-12.47-.1-17.23-23.12-4.75-31.9,0S54.16,63,63,67.79"/><path class="cls-41" d="M65,75.33c7.73,4.47,20.22,4.47,27.9,0s7.64-11.7-.09-16.16-20.22-4.46-27.9,0-7.64,11.7.09,16.16"/></g><rect class="cls-42" x="98.75" y="17.2" width="1.27" height="7.07"/><rect class="cls-42" x="78.07" y="32.43" width="1.27" height="5.82"/><rect class="cls-42" x="83.3" y="9.78" width="1.27" height="5.82"/><rect class="cls-42" x="104.3" y="42.89" width="1.27" height="2.66"/><rect class="cls-42" x="60.28" y="49.7" width="1.27" height="5.82"/><rect class="cls-42" x="98.42" y="51.89" width="1.27" height="1.33"/><rect class="cls-42" x="104.36" y="26.6" width="1.27" height="1.33"/><rect class="cls-42" x="84.51" y="43.21" width="1.27" height="1.33"/><rect class="cls-42" x="93.97" y="32.92" width="1.27" height="1.33"/><rect class="cls-42" x="69.23" y="24.09" width="1.27" height="1.33"/><rect class="cls-42" x="98.93" y="14.2" width="1.27" height="1.29"/><rect class="cls-42" x="90.4" y="22.95" width="1.27" height="1.29"/><rect class="cls-42" x="68.51" y="43.65" width="1.27" height="1.29"/><path class="cls-43" d="M78.56,42.75l.46-.28.07,0a3.07,3.07,0,0,1,.31-.17,12,12,0,0,1,1.18-.61l.21-.09.13-.06.3-.12.34-.13c.44-.16.86-.29,1.28-.4l.53-.11.6-.09a6.39,6.39,0,0,1,1-.07l.61,0a7.38,7.38,0,0,1,.84.12,5.54,5.54,0,0,1,2.08.89h0l3.11,2.21a5.58,5.58,0,0,0-2.18-1,4.1,4.1,0,0,0-.69-.1l-.15,0a7.83,7.83,0,0,0-1,0h0a8.88,8.88,0,0,0-1.21.15l-.53.11-.84.24-.66.24-.12.05-.43.17-.21.1c-.38.17-.76.37-1.14.58l0,0-.38.22-.12.07-.76.49-3.32-1.92Z"/><path class="cls-44" d="M67.62,60v0s0,0,0,0c0-.17,0-.33.05-.5,0-.34.1-.68.17-1a3.15,3.15,0,0,1,.09-.42c0-.12,0-.24.08-.37s.09-.35.13-.53l.15-.53a1.55,1.55,0,0,0,.07-.23l3.11,1.8a.84.84,0,0,1,0,.17l-.12.4a1.21,1.21,0,0,0,0,.18,4.61,4.61,0,0,0-.15.53c-.06.24-.12.48-.17.72l-.09.42c0,.22-.08.43-.11.64s0,.39-.08.58l0,.3v0c0,.14,0,.29,0,.43a11.52,11.52,0,0,0,0,1.17c0,.17,0,.34,0,.51a.49.49,0,0,0,0,.12l0,.38a9.35,9.35,0,0,0,.4,1.87s0,.09,0,.13a5.85,5.85,0,0,0,.27.67s0,0,0,0a5.75,5.75,0,0,0,1.78,2.23l-3-2.18h0a5.46,5.46,0,0,1-1.43-1.62,6,6,0,0,1-.3-.56c0-.1-.1-.21-.14-.31l-.15-.38a8.93,8.93,0,0,1-.44-2v0c0-.17,0-.34,0-.51v-.1a12,12,0,0,1,0-1.58Z"/><path class="cls-45" d="M68.42,56.13c.09-.26.17-.52.27-.77s.12-.34.19-.51l0-.06c0-.13.1-.26.16-.39.15-.38.33-.77.5-1.15l.06-.12.18-.36h0c.21-.42.42-.82.65-1.23l.18-.3s0,0,0,0,.16-.28.25-.42.31-.49.47-.74l.23-.33c.08-.13.16-.25.25-.37l.31-.44.23-.31.24-.31c.2-.26.4-.51.61-.76l.25-.3.1-.11.17-.2c.31-.34.62-.68.94-1l.1-.09.19-.19.21-.2c.27-.26.54-.51.82-.75l.3-.27.24-.19.45-.36.43-.33.35-.25,0,0,3.32,1.92-.35.24-.35.25-.13.1-.46.35-.52.43L79,46.8c-.19.17-.37.33-.55.51l-.41.38-.06.06-.29.29c-.3.3-.59.62-.88.94l-.06.07-.27.31,0,0c-.29.33-.57.67-.84,1l-.24.31v0c-.11.15-.22.29-.32.44s-.31.43-.46.65l-.23.34-.28.44c-.1.15-.19.31-.28.46l-.16.26-.19.34c-.17.3-.34.6-.5.91,0,.11-.1.21-.16.32l-.08.16-.09.2c-.21.42-.4.84-.57,1.27l0,.12c0,.09-.07.18-.11.27l-.09.23-.33.93-3.11-1.8A1,1,0,0,0,68.42,56.13Z"/><g class="cls-46"><path class="cls-47" d="M76.56,44.21l3.29,1.9.46-.35L77,43.85Z"/><path class="cls-47" d="M74.8,45.81l3.26,1.88.41-.38L75.2,45.42l-.21.2Z"/><path class="cls-47" d="M84,40.65l3.61,2.08h0a7.83,7.83,0,0,1,1,0l.15,0-3.77-2.18A6.39,6.39,0,0,0,84,40.65Z"/><path class="cls-47" d="M80.92,41.5l3.42,2,.66-.24-3.44-2-.34.13Z"/><path class="cls-47" d="M78.56,42.75l3.34,1.93.12-.07.38-.22,0,0-3.35-1.94-.07,0Z"/><path class="cls-47" d="M68.69,55.36l3.12,1.8.09-.23c0-.09.08-.18.11-.27l-3.13-1.81C68.81,55,68.75,55.18,68.69,55.36Z"/><path class="cls-47" d="M67.62,60l3,1.76c0-.19,0-.38.08-.58l-3.06-1.76c0,.17,0,.33-.05.5,0,0,0,0,0,0Z"/><path class="cls-47" d="M73.24,47.52l3.23,1.87,0,0,.27-.31.06-.07-3.24-1.87-.1.11Z"/><path class="cls-47" d="M71.85,49.34l3.21,1.85c.1-.15.21-.29.32-.44L72.16,48.9Z"/><path class="cls-47" d="M70.63,51.24l3.18,1.84c.09-.15.18-.31.28-.46L70.9,50.78c-.09.14-.17.28-.25.42S70.63,51.23,70.63,51.24Z"/><path class="cls-47" d="M69.56,53.25l3.16,1.82.08-.16c.06-.11.11-.21.16-.32L69.8,52.77h0l-.18.36Z"/><path class="cls-47" d="M67.58,61.94V62c0,.17,0,.34,0,.51v0l3,1.71a.49.49,0,0,1,0-.12c0-.17,0-.34,0-.51Z"/><path class="cls-47" d="M68.22,64.93c0,.1.09.21.14.31a6,6,0,0,0,.3.56l2.69,1.55a5.85,5.85,0,0,1-.27-.67s0-.08,0-.13Z"/><path class="cls-47" d="M68,57.58l3.09,1.79a4.61,4.61,0,0,1,.15-.53l-3.11-1.79C68.11,57.23,68.06,57.41,68,57.58Z"/></g><path class="cls-48" d="M83.58,43.79c-6.47,3-12.28,11.14-13,18.28s4,10.51,10.49,7.55,12.28-11.14,13-18.27S90.06,40.83,83.58,43.79Z"/><path class="cls-49" d="M76.73,69.36a9.4,9.4,0,0,0,3.84-1c6.08-2.78,11.54-10.49,12.18-17.19.24-2.49-.25-4.55-1.38-5.79A4.38,4.38,0,0,0,88,44.05a9.23,9.23,0,0,0-3.84,1C78.06,47.78,72.59,55.49,72,62.19c-.24,2.49.25,4.55,1.38,5.79A4.38,4.38,0,0,0,76.73,69.36Z"/><g class="cls-10"><polygon class="cls-8" points="83.12 64.91 82.14 64.33 82.13 62.81 83.12 63.38 83.12 64.91"/><polygon class="cls-8" points="80.76 66.27 79.77 65.69 79.77 64.17 80.76 64.75 80.76 66.27"/><g class="cls-10"><path class="cls-8" d="M83.89,56.51l1,.58c.21.12.28.49.28.92a1.74,1.74,0,0,1-.76,1.7l-1-.58a1.73,1.73,0,0,0,.76-1.7C84.16,57,84.09,56.63,83.89,56.51Z"/><g class="cls-50"><g class="cls-10"><path class="cls-8" d="M84.39,59.71l-1-.58a1.73,1.73,0,0,0,.76-1.7c0-.42-.07-.8-.27-.92l1,.58c.21.12.28.49.28.92a1.74,1.74,0,0,1-.76,1.7Z"/></g></g></g><g class="cls-10"><path class="cls-8" d="M86.46,54.21l1,.57a1.38,1.38,0,0,0-1.23,0l-1-.58A1.38,1.38,0,0,1,86.46,54.21Z"/><g class="cls-51"><g class="cls-10"><path class="cls-8" d="M86.22,54.77l-1-.58a1.38,1.38,0,0,1,1.23,0l1,.57a1.38,1.38,0,0,0-1.23,0Z"/></g></g></g><polygon class="cls-8" points="82.53 60.78 81.54 60.2 83.4 59.13 84.39 59.7 82.53 60.78"/><g class="cls-10"><path class="cls-8" d="M83.7,51.91l1,.57c.13.08.22.28.23.68a1.56,1.56,0,0,1-.7,1.33l-1-.58a1.52,1.52,0,0,0,.7-1.32C83.93,52.19,83.83,52,83.7,51.91Z"/><g class="cls-52"><g class="cls-10"><path class="cls-8" d="M84.22,54.49l-1-.58a1.52,1.52,0,0,0,.7-1.32c0-.4-.1-.6-.23-.68l1,.57c.13.08.22.28.23.68a1.56,1.56,0,0,1-.7,1.33Z"/></g></g></g><polygon class="cls-8" points="77.24 66.78 76.25 66.21 76.25 64.53 77.23 65.1 77.24 66.78"/><polygon class="cls-8" points="77.23 65.1 76.25 64.53 78.52 63.22 79.5 63.79 77.23 65.1"/><polygon class="cls-8" points="82.51 55.47 81.53 54.89 83.23 53.91 84.22 54.48 82.51 55.47"/><g class="cls-10"><path class="cls-8" d="M86.11,48.36l1,.57c-.54-.31-1.37-.18-2.56.48l-1-.57C84.74,48.17,85.58,48,86.11,48.36Z"/><g class="cls-53"><g class="cls-10"><path class="cls-8" d="M84.54,49.41l-1-.57c1.19-.67,2-.8,2.56-.48l1,.57c-.54-.31-1.37-.18-2.56.48Z"/></g></g></g><polygon class="cls-8" points="82.18 50.77 81.19 50.2 82.09 49.68 83.08 50.25 82.18 50.77"/><polygon class="cls-8" points="83.08 48.73 82.09 48.16 83.55 47.31 84.54 47.89 83.08 48.73"/><polygon class="cls-8" points="83.08 50.25 82.09 49.68 82.09 48.16 83.08 48.73 83.08 50.25"/><polygon class="cls-8" points="79.5 63.79 78.52 63.22 78.49 53.44 79.47 54.02 79.5 63.79"/><polygon class="cls-8" points="79.85 52.12 78.86 51.55 79.73 51.04 80.72 51.61 79.85 52.12"/><polygon class="cls-8" points="79.47 52.34 78.48 51.76 78.86 51.55 79.85 52.12 79.47 52.34"/><polygon class="cls-8" points="80.72 51.61 79.73 51.04 79.73 49.52 80.72 50.09 80.72 51.61"/><polygon class="cls-8" points="80.72 50.09 79.73 49.52 81.19 48.68 82.18 49.25 80.72 50.09"/><polygon class="cls-8" points="77.2 55.33 76.22 54.75 76.21 53.07 77.2 53.65 77.2 55.33"/><path class="cls-48" d="M86.22,54.77c1.17-.47,2,.3,2,1.67a6.41,6.41,0,0,1-3.6,6.1v1.52l-1.46.84V63.38l-.9.52v1.52l-1.46.85V64.75l-.88.5-.37.22-2.27,1.31V65.1l2.27-1.31,0-9.78-2.26,1.32V53.65l2.27-1.31.38-.22.87-.51V50.09l1.46-.84v1.52l.9-.52V48.73l1.46-.84v1.52c2.36-1.32,3.34-.53,3.34,1.66A4.91,4.91,0,0,1,86.22,54.77Zm-1.83,4.94a1.74,1.74,0,0,0,.76-1.7c0-.67-.16-1.2-.77-.85l-1.86,1.07v2.55l1.86-1.07Zm-1.88-6.18v1.94l1.71-1a1.56,1.56,0,0,0,.7-1.33c0-.79-.37-.81-.71-.61l-1.7,1Z"/><polygon class="cls-8" points="77.2 53.65 76.21 53.07 78.48 51.76 79.47 52.34 77.2 53.65"/></g><path class="cls-54" d="M74.77,54.06q6.65,4,13,8.45a21.14,21.14,0,0,1-6.64,5.63c-3-2.15-6-4.11-9.17-6A20.53,20.53,0,0,1,74.77,54.06Z"/><path class="cls-54" d="M82.64,45.8c3.4,2.18,6.72,4.45,9.88,6.94a19.27,19.27,0,0,1-1.21,3.88,139.81,139.81,0,0,0-12-8.27A19.34,19.34,0,0,1,82.64,45.8Z"/><path class="cls-43" d="M79.4,67.83a17.23,17.23,0,0,0,3.88-2.49l1.1.64a17.71,17.71,0,0,1-3.81,2.43,9.36,9.36,0,0,1-3.84,1A4.6,4.6,0,0,1,74,68.55a5.31,5.31,0,0,0,1.59.23A9.36,9.36,0,0,0,79.4,67.83Z"/><path class="cls-44" d="M91.58,50.64c.24-2.49-.25-4.55-1.38-5.79a4.14,4.14,0,0,0-.63-.56,4.08,4.08,0,0,1,1.8,1.14c1.13,1.24,1.62,3.3,1.38,5.79q-.07.72-.21,1.47L91.39,52C91.47,51.56,91.54,51.1,91.58,50.64Z"/><path class="cls-45" d="M91.39,52l1.15.67A24.35,24.35,0,0,1,84.38,66l-1.1-.64A24.26,24.26,0,0,0,91.39,52Z"/><g class="cls-55"><g class="cls-10"><g class="cls-19"><g class="cls-56"><path class="cls-57" d="M20.63,36.37a2.57,2.57,0,0,0-1.84-.23,4.62,4.62,0,0,0-1.37.55,6.68,6.68,0,0,0-1.31,1l2,1.18a7.58,7.58,0,0,1,1.32-1,4.75,4.75,0,0,1,1.37-.54,2.54,2.54,0,0,1,1.83.23Z"/></g><g class="cls-58"><path class="cls-57" d="M14.65,35.2a2.9,2.9,0,0,0-2.12-.28,5.58,5.58,0,0,0-1.59.64,9.52,9.52,0,0,0-2.53,2.21,11.92,11.92,0,0,0-2.6,5.85,4.73,4.73,0,0,0-1.32.53,8.28,8.28,0,0,0-2.18,1.91A9.78,9.78,0,0,0,0,51.93a3.16,3.16,0,0,0,1.31,2.89l2,1.17A3.12,3.12,0,0,1,2,53.11a9.78,9.78,0,0,1,2.31-5.87,8.13,8.13,0,0,1,2.18-1.91,4.8,4.8,0,0,1,1.31-.53A11.85,11.85,0,0,1,10.44,39,9.52,9.52,0,0,1,13,36.74a5.52,5.52,0,0,1,1.58-.64,3,3,0,0,1,2.13.27Z"/></g></g><g class="cls-59"><path class="cls-57" d="M13,36.74c2.61-1.51,4.78-.55,5.16,2.11a7.58,7.58,0,0,1,1.32-1c2.48-1.43,4.51-.28,4.52,2.58a10,10,0,0,1-4.49,7.78L6.55,55.68C4.06,57.12,2,56,2,53.11a9.88,9.88,0,0,1,4.49-7.78,4.8,4.8,0,0,1,1.31-.53A11.6,11.6,0,0,1,13,36.74Z"/></g></g></g><path class="cls-21" d="M48.61,85c2.08,1.21,2.08,3.16,0,4.36a8.31,8.31,0,0,1-7.55,0C39,88.16,39,86.21,41.06,85A8.37,8.37,0,0,1,48.61,85Z"/><path class="cls-60" d="M49.84,62.86a5,5,0,0,0-.64.17,8.55,8.55,0,0,0-1.28.88,21.22,21.22,0,0,1-3.18.71c0-.29.43,1.92.44,1.94s2.24-1.55,2.43-1.62a3.51,3.51,0,0,1,.84-.14,2.05,2.05,0,0,1,.17-.56,1.17,1.17,0,0,1,.6-.46c.12-.17.19-.3.27-.34a2.13,2.13,0,0,1,.35-.14Z"/><path class="cls-61" d="M41.1,66c9.12,19.57,1.42,1.73,2.2,2.58a1.86,1.86,0,0,0,1.77-1.79,34.08,34.08,0,0,0-2.39-2.5C41.89,63.53,40.57,64.9,41.1,66Z"/><path class="cls-62" d="M46,88.5c-.51.21-1.13.67-1.68.32s-.2-.87,0-1.3a1.29,1.29,0,0,1,.83-.81c.13,0,.38-.09.49,0,.39.39,1.23.34,1.76.32a1.91,1.91,0,0,1,.48,0c.44.12.58.61-.07,1C47,88.47,46.47,88.29,46,88.5Z"/><path class="cls-62" d="M42,86.24s-.43,1-.15,1.35a1.35,1.35,0,0,0,.93.15c.31,0,.65-.17.95-.17a2.55,2.55,0,0,0,1.86-.83c.89-.91-.53-.78-1.47-.58A7.66,7.66,0,0,1,42,86.24Z"/><path class="cls-63" d="M43.67,86.33,44.9,75.06a1.36,1.36,0,0,0-1.11-1.6c-.78-.09-2.24-.18-2.37.59-.35,2.17,1.12,3,.61,5.49a36.19,36.19,0,0,0,0,6.7C42.1,86.94,43.34,86.9,43.67,86.33Z"/><path class="cls-9" d="M45.9,87A36,36,0,0,0,46.69,82c.06-1.5.28-6,.28-6,0-.77-.06-3.37-.77-3.37s-3.94,0-3.94,1.63a3.37,3.37,0,0,0,.79,2.83,7.63,7.63,0,0,1,.89,4.21,30.25,30.25,0,0,0,.4,5.74C44.42,87.73,45.84,87.38,45.9,87Z"/><path class="cls-64" d="M46.75,70.24c-.1,1.21.36,3.43.27,4.28s-5.58,1-5.81-.22c-.19-.93.54-2.91.44-3.78-.2-1.85-.46-4.32-.44-5.16a1.19,1.19,0,0,1,.29-.88,2.31,2.31,0,0,1,1.81-.35l1.62.23c.4.23,2.18.48,2.35,1.5a4.28,4.28,0,0,0-.23.93C47,67.59,46.77,70.07,46.75,70.24Z"/><path class="cls-65" d="M45.84,62.75h0c-.1-.22-.81-.22-1-.23a7.67,7.67,0,0,0-1.27,0l-.08.34h0a1.66,1.66,0,0,0,0,.7,1.83,1.83,0,0,1-.11.66c-.09.23-.11.47.19.61.78.39,1.73.32,1.93,0s-.13-.52,0-1,.48-.91.45-1.06Z"/><path class="cls-65" d="M46.48,61.15c.08,1.08.07,2.18-.51,2.64a.92.92,0,0,1-.72.13l-.16,0a3.06,3.06,0,0,1-.78-.32,3.79,3.79,0,0,1-.65-1.47c-.25-1.05.55-1.15,1.22-1.66S46.4,60.07,46.48,61.15Z"/><path class="cls-66" d="M45.83,59.58a2.94,2.94,0,0,0-1-.41,2.54,2.54,0,0,0-.47-.07A1.6,1.6,0,0,0,43,60s-2.14,1.11.13,3.63a.84.84,0,0,1,.2.4,2.7,2.7,0,0,0,1.09,0,1.12,1.12,0,0,0,.33-.42c.08-.17.13-.34.21-.5a.61.61,0,0,1,.18-.26c.13-.12.33-.15.45-.27a.68.68,0,0,0,.14-.46l0-.32v-.05a.67.67,0,0,1,.21-.47c.22-.19.46-.16.63-.45S46.47,60,45.83,59.58Z"/><path class="cls-66" d="M45.83,59.58a2.94,2.94,0,0,0-1-.41,2.54,2.54,0,0,0-.47-.07A1.6,1.6,0,0,0,43,60,1.75,1.75,0,0,0,42.13,62a2.85,2.85,0,0,1,3.24-.63,1.23,1.23,0,0,1,.31.14.56.56,0,0,1,.19-.35c.22-.19.46-.16.63-.45S46.47,60,45.83,59.58Z"/><path class="cls-67" d="M42.13,62a4.16,4.16,0,0,0,.95,1.55.84.84,0,0,1,.2.4,2.7,2.7,0,0,0,1.09,0c.3-.21.39-.62.54-.92a.61.61,0,0,1,.18-.26c.13-.12.33-.15.45-.27a.68.68,0,0,0,.14-.46l0-.32v-.05a.5.5,0,0,1,0-.12,1.23,1.23,0,0,0-.31-.14A2.85,2.85,0,0,0,42.13,62Z"/><path class="cls-65" d="M45.46,62.55a.42.42,0,0,1-.09.59.43.43,0,0,1-.55-.25.44.44,0,0,1,.08-.6A.45.45,0,0,1,45.46,62.55Z"/><path class="cls-60" d="M45.27,62.65a.18.18,0,0,1,0,.24c-.07,0-.17,0-.22-.1s0-.2,0-.24S45.21,62.56,45.27,62.65Z"/><path class="cls-68" d="M49.74,64.92l0,0a.08.08,0,0,1,0,.07l0,0a.08.08,0,0,0,0-.07Z"/><path class="cls-69" d="M49.82,65.74s0,0,0,0v.17a.07.07,0,0,0,0,.07l.14.09s0,0,0,0V65.9a.08.08,0,0,0,0-.07Z"/><polygon class="cls-69" points="49.81 62.84 49.8 62.88 50.19 63.12 50.19 63.08 49.81 62.84"/><path class="cls-70" d="M49.36,62.64s-.08,0-.09,0l-.09,2.54a.19.19,0,0,0,.07.14l1.28.79a0,0,0,0,0,.08,0l.09-2.54a.16.16,0,0,0-.07-.14Z"/><path class="cls-13" d="M50.6,63.19a.43.43,0,0,1,.18.33l-.11,2.89c0,.12-.09.17-.19.1l-1.2-.74a.38.38,0,0,1-.18-.33l.11-2.9c0-.11.09-.16.19-.1Zm-1.38,2a.16.16,0,0,0,.07.13l1.21.75s.07,0,.07,0l.1-2.41a.19.19,0,0,0-.07-.13l-1.21-.75s-.08,0-.08,0l-.09,2.41Zm.55.75a.07.07,0,0,0,0,.07l.14.09s0,0,0,0V65.9a.08.08,0,0,0,0-.07l-.14-.09s0,0,0,0v.17Zm.42-2.85-.38-.24v0l.39.24v0Z"/><path class="cls-7" d="M49.45,62.33a.11.11,0,0,1,.08,0s0,0,.06,0l1.2.74.09.08a.39.39,0,0,1,.08.25l-.11,2.9c0,.05,0,.1-.05.11l-.19.1a.14.14,0,0,0,.06-.12l.11-2.89a.4.4,0,0,0-.09-.25.24.24,0,0,0-.09-.08l-1.2-.75,0,0a.11.11,0,0,0-.08,0Z"/><path class="cls-65" d="M51.19,64c-.09-.1-.21-.13-.25,0s.07.85-.16,1.09c-.05,0-.17.26-.37.06a3.73,3.73,0,0,1-.29-.44c-.13-.21-.31,0-.22.11a2.53,2.53,0,0,1,.19.45c0,.26.3.46.34.58s0,.14,0,.13c-.11.16-.49,1.38-1,1.42-.79.07-2.35-2.09-2.35-2.09A1,1,0,0,0,46,65.11a1.31,1.31,0,0,0-.4.32c-.56.67,0,1.28.42,1.6a2,2,0,0,0,.56.59c1,.69,2.66,2.11,3.63,1.61.64-.34.9-1.81,1-2.08.2-.6.22-1.17.42-1.77a1.42,1.42,0,0,0,.16-.53C51.75,64.64,51.24,64.05,51.19,64Z"/><path class="cls-60" d="M48.45,64.8a.76.76,0,0,0,.33-.11,1.22,1.22,0,0,1,.5-.21,1.33,1.33,0,0,0,.53-.12c.12-.09.13-.24,0-.28s-.43.09-.63.06-.09-.19,0-.34a1,1,0,0,0-.54.44A2.05,2.05,0,0,0,48.45,64.8Z"/><path class="cls-13" d="M49.12,67.07l-2-1.74A1,1,0,0,0,46,65.11a1.31,1.31,0,0,0-.4.32,1.5,1.5,0,0,0,.2,2h0l2.31,1.55A2.51,2.51,0,0,0,49.12,67.07Z"/><path class="cls-71" d="M75,27.28c0-2.35-1.65-3.3-3.68-2.13a8.16,8.16,0,0,0-3.68,6.38c0,2.35,1.65,3.3,3.68,2.12A8.12,8.12,0,0,0,75,27.28Z"/><g id="screen"><g id="screen-2" data-name="screen"><polygon class="cls-24" points="70.51 31.49 70.51 32.26 72.15 31.31 72.15 30.54 70.51 31.49"/><polygon class="cls-24" points="69.64 33.2 73.01 31.25 73.01 30.91 69.64 32.85 69.64 33.2"/><path class="cls-24" d="M73.66,25.64,69,28.33a.51.51,0,0,0-.23.4v3.41c0,.14.1.2.23.13l4.66-2.69a.49.49,0,0,0,.23-.4v-3.4C73.89,25.63,73.79,25.57,73.66,25.64Zm0,3.22a.31.31,0,0,1-.13.24l-4.48,2.59a.09.09,0,0,1-.14-.08V28.76a.32.32,0,0,1,.14-.24l4.48-2.59c.07,0,.13,0,.13.08Z"/><path class="cls-24" d="M72.61,27.17l.14.08-.47.81-.06,0a.47.47,0,0,0-.11.13l-.38.06c0-.08-.06-.11-.13-.07a.29.29,0,0,0-.14.23.43.43,0,0,0,0,.05L71,29.7h0l-.08.08-.52-.06c0-.07-.07-.09-.13-.06a.3.3,0,0,0-.14.24v0L69.65,31l.15-.09.39-.93h0a.24.24,0,0,0,.08-.09l.51.06c0,.08.07.1.14.06a.29.29,0,0,0,.13-.23v-.05l.48-1.22h0s.05,0,.08-.07l.42-.06s.07,0,.12,0a.27.27,0,0,0,.14-.23v0l.48-.84.14.08.14-.66Z"/></g></g><path class="cls-71" d="M75,17.4c0-2.35-1.65-3.3-3.68-2.12a8.14,8.14,0,0,0-3.68,6.37c0,2.35,1.65,3.3,3.68,2.13A8.14,8.14,0,0,0,75,17.4Z"/><path class="cls-24" d="M71.56,17.56a1.06,1.06,0,0,1,.36,0,.48.48,0,0,0-.62,0,1.45,1.45,0,0,0-.37.34A1.17,1.17,0,0,1,71.56,17.56Z"/><path class="cls-24" d="M71.28,18.92c.29-.07.55.37.73.68a1,1,0,0,0,.23.32l.07,0s0-.09,0-.14h0a.88.88,0,0,1-.21-.29c-.2-.34-.46-.79-.8-.72a2,2,0,0,0-1,.87,1,1,0,0,0,0,.17A1.92,1.92,0,0,1,71.28,18.92Z"/><path class="cls-24" d="M71.42,18.59c.34,0,.53.26.73.54a2.73,2.73,0,0,0,.21.3,1.34,1.34,0,0,0,0-.2,2.43,2.43,0,0,1-.14-.2c-.21-.3-.4-.58-.77-.57s-.82.44-1.12.8l0,.17C70.59,19.07,71,18.6,71.42,18.59Z"/><path class="cls-24" d="M71.47,18.2c.33,0,.52.2.73.45.06.05.11.12.17.18s0-.14,0-.21l-.08-.08c-.22-.26-.42-.48-.77-.46a1.69,1.69,0,0,0-1,.69l-.06.2C70.69,18.63,71.1,18.22,71.47,18.2Z"/><path class="cls-24" d="M71.59,17.78a.87.87,0,0,1,.69.4,2,2,0,0,0-.12-.32.76.76,0,0,0-.53-.2,1.56,1.56,0,0,0-.93.6c0,.09-.09.19-.14.29C70.86,18.19,71.25,17.8,71.59,17.78Z"/><path class="cls-24" d="M71.34,19.89c0-.18-.09-.27-.23-.23a.79.79,0,0,0-.5.57c-.1.28-.12.6,0,.65s.17,0,.26-.11a1.21,1.21,0,0,0,.27-.64c0-.11,0-.17-.1-.18a.21.21,0,0,0-.18.11.72.72,0,0,0-.15.42c0,.07,0,.11.08.11s.05,0,.06-.07,0-.06,0-.06,0,0,0,0a.6.6,0,0,1,.1-.3.1.1,0,0,1,.08-.05s.06,0,0,.11a.92.92,0,0,1-.21.51c-.06.06-.11.09-.16.07s-.1-.27,0-.53.17-.4.39-.45.16.08.16.17a2.8,2.8,0,0,1-.73,1.58l.06.06A3,3,0,0,0,71.34,19.89Z"/><path class="cls-24" d="M71.49,19.46a.24.24,0,0,0-.33-.12,1.05,1.05,0,0,0-.48.38,1.76,1.76,0,0,0-.31.81c-.06.5,0,.64.14.66a.3.3,0,0,0,.27-.11s0-.07,0-.09,0,0-.06,0a.22.22,0,0,1-.18.07c-.07,0-.15-.14-.09-.58a1.39,1.39,0,0,1,.27-.71.81.81,0,0,1,.4-.32c.13,0,.22,0,.26.09a1.48,1.48,0,0,1-.06.87,6.58,6.58,0,0,1-.7,1.21l.08,0a6.75,6.75,0,0,0,.7-1.23A1.65,1.65,0,0,0,71.49,19.46Z"/><path class="cls-24" d="M71.64,19.2c-.11-.16-.31-.19-.58-.08h0a1.74,1.74,0,0,0-.81,1v.21A1.79,1.79,0,0,1,71,19.24h0c.25-.1.42-.08.52.07a1.17,1.17,0,0,1,0,.91A10,10,0,0,1,71,21.64l.1,0a10.17,10.17,0,0,0,.56-1.4A1.32,1.32,0,0,0,71.64,19.2Z"/><path class="cls-24" d="M72.26,20.19l0-.13a.43.43,0,0,1-.4-.38v0s0,0-.06,0a.12.12,0,0,0,0,.08v0a5.45,5.45,0,0,1-.58,1.8l.1-.06h0A6.62,6.62,0,0,0,71.87,20,.48.48,0,0,0,72.26,20.19Z"/><path class="cls-24" d="M72.12,20.62a.69.69,0,0,1,0-.13.28.28,0,0,1-.21-.2v0s0,0,0,0a.07.07,0,0,0,0,.08v0a2.77,2.77,0,0,1-.29.95l.14-.12a4,4,0,0,0,.22-.68A.5.5,0,0,0,72.12,20.62Z"/><path class="cls-24" d="M72.71,16.12,70,17.72a2,2,0,0,0-.88,1.51v3.2c0,.55.4.78.88.5l2.76-1.6a1.92,1.92,0,0,0,.88-1.51V16.63C73.59,16.07,73.19,15.85,72.71,16.12ZM73.34,20a1.39,1.39,0,0,1-.63,1.09L70,22.65c-.35.2-.63,0-.63-.36v-3.2A1.39,1.39,0,0,1,70,18l2.76-1.59c.35-.2.63,0,.63.36Z"/><path class="cls-71" d="M75,7.53c0-2.35-1.65-3.3-3.68-2.12a8.14,8.14,0,0,0-3.68,6.37c0,2.35,1.65,3.3,3.68,2.13A8.16,8.16,0,0,0,75,7.53Z"/><path class="cls-24" d="M73.06,6.3l-3.46,2a.9.9,0,0,0-.4.7v3.78c0,.26.18.36.4.23l3.46-2a.91.91,0,0,0,.4-.7V6.54C73.46,6.28,73.28,6.17,73.06,6.3ZM71.85,7.44a.22.22,0,0,1,.12-.2.49.49,0,0,1,.17-.08v.09s-.11.06-.14.07,0,0,0,.07v0s0,0,0,0l.06,0c.09,0,.11,0,.11.08v0a.22.22,0,0,1-.12.21.42.42,0,0,1-.18.08V7.7L72,7.62a.06.06,0,0,0,0-.06v0s0,0,0,0l-.06,0c-.11.06-.11,0-.11-.08Zm-.5.16.08.31.07-.4.11-.06,0,.13.07.21.06-.4.11-.06-.12.57L71.59,8l0-.16L71.49,8l-.11.07-.14-.43ZM70.92,8a.18.18,0,0,1,.1-.17l.19-.1v.09l-.16.1a.06.06,0,0,0,0,.06V8l.17-.09V8L71,8.1v.06s0,0,0,0l.16-.09v.09a1.36,1.36,0,0,1-.18.12s-.11.06-.11,0Zm-.4.12L70.61,8l.16.21V7.94l.09-.06v.5l-.09.06-.16-.2v.29l-.09.06Zm.58,3.76-1.7,1v-.17l1.7-1Zm0-.38-1.7,1v-.18l1.7-1Zm0-.37-1.7,1V11.9l1.7-1ZM71,10.35a1.62,1.62,0,0,1-.68.87.54.54,0,0,1-.54.06l.54-.93Zm-.67,0v-.9a.5.5,0,0,1,.54-.05.53.53,0,0,1,.22.49h0a1.36,1.36,0,0,1-.08.44Zm0,0-.54.93a.58.58,0,0,1-.23-.49h0a1.25,1.25,0,0,1,.08-.42,1.73,1.73,0,0,1,.69-.91Zm1.45,1.16-.29.16v-.43l.29-.16Zm0-.84s0,0,0,0a1.15,1.15,0,0,0,.5-.53l-.06,0,.16-.18v.21h-.06a1.4,1.4,0,0,1-.51.56h0S71.73,10.67,71.73,10.66Zm.31.63-.28.17v-.61l.28-.16Zm.35-.2-.28.16v-.79l.28-.16Zm.36-.2-.29.16v-1l.29-.17Zm.35-.21-.28.17V9.69l.28-.16Zm0-1.37-1.71,1v-.17l1.71-1Zm0-.34L71.4,10V9.78l1.71-1Zm0-.34-1.71,1V9.44l1.71-1Zm0-.33-1.71,1V9.11l1.71-1Zm0-.34-1.71,1V8.77l1.71-1Zm0-.47L69.4,9.64V9.43l3.71-2.14Z"/><path class="cls-21" d="M99.61,90.13c-2.28,1.32-2.28,3.45,0,4.77a9.17,9.17,0,0,0,8.26,0c2.28-1.32,2.28-3.45,0-4.77A9.11,9.11,0,0,0,99.61,90.13Z"/><path class="cls-60" d="M96.78,71.14c-.07-.25.82-.31,1-.3a8,8,0,0,1,1.44.36,23.7,23.7,0,0,0,3.15-.21s.15,1.59.15,1.61-2.55-.68-2.74-.69a3.4,3.4,0,0,0-.78.18,1.78,1.78,0,0,0-.32-.42c-.17-.13-.18-.14-.38-.13-.12-.2-.58-.21-.67-.22S96.85,71.38,96.78,71.14Z"/><path class="cls-72" d="M99.46,71.07c.82,0,3.38-.08,3.7-.12,0,0-.68,1.63-.68,1.65L99.54,72C99.18,71.81,99.27,71.35,99.46,71.07Z"/><g class="cls-10"><g class="cls-10"><path class="cls-9" d="M97.33,73.62,98.47,73s0-.07,0-.12l-1.15.66C97.36,73.54,97.36,73.6,97.33,73.62Z"/><g class="cls-73"><g class="cls-10"><path class="cls-9" d="M97.33,73.62,98.47,73s0,0,0-.1l-1.15.66s0,.09,0,.11Z"/><path class="cls-9" d="M97.34,73.51l1.15-.66v0l-1.15.66v0Z"/></g></g></g><g class="cls-10"><path class="cls-9" d="M97.2,70.63l-1.14.66h0s0,0,0,0l1.15-.67Z"/><g class="cls-74"><g class="cls-10"><path class="cls-9" d="M96.11,71.3l1.15-.67h0l-1.15.67Z"/><path class="cls-9" d="M96.07,71.29l1.15-.67h0l-1.14.66h0Z"/></g></g></g><polygon class="cls-9" points="97.33 73.49 98.47 72.83 97.32 70.7 96.17 71.36 97.33 73.49"/><polygon class="cls-75" points="98.31 72.78 97.27 70.87 96.34 71.41 97.38 73.32 98.31 72.78"/><g class="cls-10"><path class="cls-9" d="M96.17,71.36l1.15-.66-.06-.07-1.15.67A.09.09,0,0,1,96.17,71.36Z"/><g class="cls-76"><g class="cls-10"><path class="cls-9" d="M96.17,71.36l1.15-.66h0l-1.14.66Z"/><path class="cls-9" d="M96.17,71.35l1.14-.66s0,0,0-.06l-1.15.67.06,0Z"/></g></g></g><path class="cls-77" d="M96.11,71.3s0,0,0,0,0,.07,0,.13l1.16,2.13.06.06a.07.07,0,0,0,.06,0s0-.07,0-.13l-1.16-2.13A.09.09,0,0,0,96.11,71.3Z"/></g><path class="cls-60" d="M106.54,93.94c-.16,0-.16-2.38-.5-3-.56-1.06-1.46-3.31-1.87-4.11a5.2,5.2,0,0,1,0-2.64l2.46-.35c0,.76-.62,1.69-.49,2.27.76,1,.87,2.64,1,3.74a9.65,9.65,0,0,1,.06,1.23C107.05,91.33,107,94,106.54,93.94Z"/><path class="cls-78" d="M104.17,86.79a5.2,5.2,0,0,1,0-2.64l2.46-.35a5.5,5.5,0,0,1-.44,1.68c-1.45.24-1.8,1.77-1.13,3s1.74,3.09,1.32,4.62A8.19,8.19,0,0,0,106,90.9C105.48,89.84,104.58,87.59,104.17,86.79Z"/><path class="cls-65" d="M102,92.64c.35.12.66.15.73-.3.31-2-.14-2.39-.31-4.35,0-.22-.45-1.8-.69-3.71l3.38-.16a12.3,12.3,0,0,1-.64,2.61c.53,1.86-.32,5-.52,5.92,0,.14.33.54.06.85-.11.13-3.29-.28-2.84-.81C101.27,92.54,101.69,92.53,102,92.64Z"/><path class="cls-60" d="M101.15,92.69c.12-.15.54-.16.83,0s.66.15.73-.3c.31-2-.14-2.39-.31-4.35,0-.22-.45-1.8-.69-3.71l3.38-.16a11.68,11.68,0,0,1-.38,1.79c-.67.22-1.38.17-2.13.34-.1,0-.15.2-.1.3a38.3,38.3,0,0,1,.6,6.25c0,.15.3.55.5.4a1.37,1.37,0,0,0,.38-.41c.08.18.23.47,0,.71S100.7,93.22,101.15,92.69Z"/><path class="cls-79" d="M104.19,93.75v0a.53.53,0,0,1-.32.36h-.4a1.89,1.89,0,0,1-.21-.09,1.33,1.33,0,0,1-.19-.14,1.1,1.1,0,0,0-.64-.17,1.79,1.79,0,0,1-.65-.08c-.1,0-.77-.27-.92-.61a.64.64,0,0,1,0-.43.42.42,0,0,1,.36-.26,1,1,0,0,1,.45.07l.62.18a.55.55,0,0,0,.27,0c-.1.12-.55,0-.82.08a.13.13,0,0,0-.1,0,.15.15,0,0,0,0,.2.47.47,0,0,0,.19.12,3.09,3.09,0,0,0,1.2.2c.14,0,.87.12.92-.45a.69.69,0,0,1,.2.42A1.16,1.16,0,0,1,104.19,93.75Z"/><polygon class="cls-80" points="106.62 76.39 106.61 76.39 106.61 76.39 106.62 76.39"/><path class="cls-63" d="M101,83.7c.06-1,.24-2,.28-3a6.69,6.69,0,0,1,.72-3.21c.28-.6.53-1.12,1.23-1.27a4.11,4.11,0,0,1,2.79,0,3.09,3.09,0,0,1,.89,1.13c.9,1.49.78,3.32.8,5.86a1.86,1.86,0,0,1-.88,1.9,4,4,0,0,1-1,.24c-2.17.54-2.94.2-3.92-.29C101.07,84.74,100.92,84.47,101,83.7Z"/><path class="cls-81" d="M102.19,72.84c-.85-2.4-.28-2.06,1.4-3l1.82-.32c1.68-.23,2,1.5,1.82,2.53a18.58,18.58,0,0,0-.62,4.88c.06,1-3.51,1.23-4.38.36C101.93,77,102.29,73.11,102.19,72.84Z"/><g class="cls-82"><path class="cls-83" d="M108.65,73l-.1,0Z"/></g><path class="cls-65" d="M102.13,66.51c0,3.24,1.06,2.33,1.24,2.91,0,.08,0,.07,0,.69,0,.43,1.94.22,1.86-.38l-.14-.9a10.43,10.43,0,0,1-.09-1.52c.15-1.14-.58-1.18-1.22-1.67S102.13,65.35,102.13,66.51Z"/><path class="cls-84" d="M105.23,68.74a1.34,1.34,0,0,1-.47.21,2.78,2.78,0,0,1-.58,0,1.43,1.43,0,0,1-.57-.19c-.38-.28-.36-.67-.48-.86-.2-.34-.63-.27-.89-.74a2.08,2.08,0,0,1-.25-.88,2.74,2.74,0,0,1,.08-.7,1.22,1.22,0,0,1,.35-.4,2.34,2.34,0,0,1,2.68-.34,2.29,2.29,0,0,1,1.15,1.27s0,.05,0,.07C106.63,67.29,105.29,68.69,105.23,68.74Z"/><path class="cls-85" d="M102.42,65.14a2.34,2.34,0,0,1,2.68-.34,2.29,2.29,0,0,1,1.15,1.27s0,.05,0,.07a1.73,1.73,0,0,1,0,1,.71.71,0,0,1-.63-.13c-1-.78-2.1-1.56-3.41-1.31l-.16,0a1.25,1.25,0,0,1,0-.24A1.22,1.22,0,0,1,102.42,65.14Z"/><path class="cls-86" d="M105.59,67a.71.71,0,0,0,.63.13,4.34,4.34,0,0,1-1,1.57,1.34,1.34,0,0,1-.47.21,2.78,2.78,0,0,1-.58,0,1.43,1.43,0,0,1-.57-.19c-.38-.28-.36-.67-.48-.86-.2-.34-.63-.27-.89-.74a2.08,2.08,0,0,1-.25-.88,4.37,4.37,0,0,1,0-.46l.16,0C103.49,65.48,104.57,66.26,105.59,67Z"/><path class="cls-65" d="M103.39,68c-.16.25-.32.37-.49.31s-.21-.26-.1-.53a.51.51,0,0,1,.55-.35C103.52,67.48,103.56,67.72,103.39,68Z"/><path class="cls-60" d="M103.23,67.92c-.06.1-.13.16-.2.13s-.1-.11,0-.23a.21.21,0,0,1,.24-.15C103.29,67.69,103.31,67.8,103.23,67.92Z"/><path class="cls-85" d="M105.61,65.61c.18-.39.82,0,1.11.41a4.33,4.33,0,0,1,.7,2,6.64,6.64,0,0,1,0,2,9.27,9.27,0,0,0-.29,1.39,1.68,1.68,0,0,0,.08.74,1.29,1.29,0,0,0,1,.8c-.15-.05-.32.07-.47.12a3.35,3.35,0,0,1-.78.13,2.16,2.16,0,0,1-.84,0,2.4,2.4,0,0,1-1-.9,2.54,2.54,0,0,1-.39-1.66,2.35,2.35,0,0,1,.32-1.33,3.31,3.31,0,0,0,.54-1.33,4.83,4.83,0,0,0,.14-.66c0-.14,0-.27,0-.41C105.85,66.5,105.4,66.05,105.61,65.61Z"/><path class="cls-87" d="M108.25,72.93h0Z"/><path class="cls-86" d="M104.8,70.63a2.35,2.35,0,0,1,.32-1.33,3.31,3.31,0,0,0,.54-1.33,4.83,4.83,0,0,0,.14-.66c0-.14,0-.27,0-.41,0-.4-.4-.85-.19-1.29h0c.84.7.56,2.15.27,3-.5,1.5-.9,3.49.65,4.24a2.51,2.51,0,0,0,1.37.19l-.12,0a3.35,3.35,0,0,1-.78.13,2.16,2.16,0,0,1-.84,0,2.4,2.4,0,0,1-1-.9A2.54,2.54,0,0,1,104.8,70.63Z"/><path class="cls-79" d="M106.41,93.17a2.7,2.7,0,0,0,.16,1,.61.61,0,0,0,.17.19c.09.07.21-.06.29-.14,1-1.14.48-1.54.57-2,.05-.23.25-.42.23-.65a.75.75,0,0,0-.14-.36.62.62,0,0,0-.66-.27c-.21,0-.36.35-.42.5a2.12,2.12,0,0,0-.08.83,5.63,5.63,0,0,1-.11.81S106.41,93.14,106.41,93.17Z"/><path class="cls-88" d="M106.59,94s0,.09,0,.14a.61.61,0,0,0,.17.19c.09.07.21-.06.28-.14,1-1.14.48-1.54.58-2,.05-.23.25-.42.23-.65a.75.75,0,0,0-.14-.36.57.57,0,0,0-.22,0,.36.36,0,0,0-.32.1.35.35,0,0,0-.08.22c0,.25.06.5,0,.74a1.54,1.54,0,0,1-.09.37c-.08.24-.17.47-.25.71s-.08.25-.13.37a.58.58,0,0,0-.06.17A.92.92,0,0,0,106.59,94Z"/><path class="cls-89" d="M101,75.33c-.4,0-.66,0-.93-.37a4.87,4.87,0,0,1,.77-1.95l.65-1.33a2,2,0,0,1,.62-.91c.66-.41,1.41.25,1.55.88a1.39,1.39,0,0,1-.13,1c-.34.59-1,1.64-1.47,2.36A3.41,3.41,0,0,1,101,75.33Z"/><path class="cls-60" d="M99,72.09a.92.92,0,0,1-.33,0,1.36,1.36,0,0,0-.53,0,1.1,1.1,0,0,1-.51,0c-.14,0-.19-.16,0-.24s.42,0,.6-.13.12-.15.12-.27,0-.23,0-.23.23.33.35.43A1.78,1.78,0,0,1,99,72.09Z"/><path class="cls-65" d="M96,72.64c0-.11,0-.21.15-.16a3.22,3.22,0,0,0,1,.31c.06,0,.27,0,.25-.21a2.54,2.54,0,0,0-.15-.44c-.07-.2.13-.24.2-.09a2,2,0,0,0,.2.38c.16.16.08.57.15.67a2,2,0,0,0,.54.19c0,.37-.32.44-.63.67-.32-.1-.54-.16-.94-.31a1.46,1.46,0,0,1-.45-.18A2.25,2.25,0,0,1,96,72.64Z"/><path class="cls-89" d="M98.19,73l3.88,1.06a.85.85,0,0,1,.31.17c0,.13-.5,1.66-1.86,1.37A13,13,0,0,1,97.58,74C97.44,73.64,98.09,73,98.19,73Z"/><path class="cls-21" d="M65.89,99.83c-2.28,1.31-2.28,3.45,0,4.76a9.11,9.11,0,0,0,8.26,0c2.28-1.31,2.28-3.45,0-4.76A9.11,9.11,0,0,0,65.89,99.83Z"/><path class="cls-21" d="M75,103.16c-2.28,1.32-2.28,3.45,0,4.77a9.09,9.09,0,0,0,8.25,0c2.28-1.32,2.28-3.45,0-4.77A9.15,9.15,0,0,0,75,103.16Z"/><path d="M73.21,101.6a.61.61,0,0,1,0,.3,2.11,2.11,0,0,0,.13.7,2.56,2.56,0,0,1,.09.73,1.61,1.61,0,0,1-.42,1,1,1,0,0,1-.45.32.68.68,0,0,1-.54-.05.72.72,0,0,1-.28-.45,1.83,1.83,0,0,1,0-.47v-.06a6.54,6.54,0,0,0,0-1c0-.24-.12-.46-.14-.7a.54.54,0,0,1,0-.28.43.43,0,0,0,0-.07l.11-.12a1.37,1.37,0,0,1,.25-.23s.48-.25.48-.27a.72.72,0,0,0,.4.45l.23.1A.38.38,0,0,1,73.21,101.6Z"/><path class="cls-90" d="M71.72,102.44a2.64,2.64,0,0,1,0,.29c0,.23,0,.47,0,.7v.07a1.91,1.91,0,0,0,0,.47.72.72,0,0,0,.28.44.64.64,0,0,0,.54,0,1.1,1.1,0,0,0,.45-.31,1.66,1.66,0,0,0,.42-1,1.9,1.9,0,0,0,0-.34c0-.14-.05-.27-.08-.4a5.18,5.18,0,0,1-.14-.53v-.17a.57.57,0,0,0,0-.29.28.28,0,0,0-.09-.1c-.07,0-.16-.06-.24-.1a.75.75,0,0,1-.4-.44s-.43.23-.47.26a1.43,1.43,0,0,0-.26.23,1.47,1.47,0,0,0-.1.13h0l0,0a.68.68,0,0,0,0,.28C71.59,102,71.68,102.21,71.72,102.44Z"/><path class="cls-91" d="M71.57,101.74c0,.24.11.47.15.7a2.64,2.64,0,0,1,0,.29l1.69.08c0-.14-.05-.27-.08-.4a5.18,5.18,0,0,1-.14-.53,3.79,3.79,0,0,0-1.54-.47h0l0,0A.68.68,0,0,0,71.57,101.74Z"/><path d="M68.91,100.11s1-.47,1.14.91c0,.36-.42.5-.62.52a.49.49,0,0,0-.34.1,1.61,1.61,0,0,0-.26.3,1.46,1.46,0,0,1-1.71.32c-.41-.35.24-.87.88-1.36A7.53,7.53,0,0,0,68.91,100.11Z"/><path class="cls-90" d="M67.12,102.06a1.46,1.46,0,0,0,1.71-.32,2.33,2.33,0,0,1,.25-.31.59.59,0,0,1,.35-.1.92.92,0,0,0,.5-.21.37.37,0,0,0,.12-.3,1.41,1.41,0,0,0-.17-.64.68.68,0,0,0-.75-.34,1.16,1.16,0,0,0-.23.06,5.91,5.91,0,0,1-.9.79l-.35.28C67.16,101.37,66.78,101.77,67.12,102.06Z"/><path class="cls-91" d="M67.65,101a1.2,1.2,0,0,0,.31.13,2.6,2.6,0,0,0,.39.05l.58,0a4.87,4.87,0,0,0,.54,0,2.61,2.61,0,0,0,.46-.08.37.37,0,0,0,.12-.3,1.41,1.41,0,0,0-.17-.64c-.24-.12-.5-.24-.75-.34a1.16,1.16,0,0,0-.23.06,5.91,5.91,0,0,1-.9.79Z"/><path class="cls-92" d="M67.7,80.53c.19-.28.48,0,.66-.06a.3.3,0,0,1,.2,0l.17.18c.18.22.36.39.29.71a14.12,14.12,0,0,1-1.56,3.75l-1.12-.56,0-.26s-.32,0-.31-.06A19.08,19.08,0,0,1,67.7,80.53Z"/><path class="cls-9" d="M69.71,89.13l.05.1,0,.13.15.38c0,.11.08.21.13.32l.16.42a.88.88,0,0,1,0,.15,8.2,8.2,0,0,1,.41,1.19h0c0,.58.05,1.73.08,2.27h0c0,.05,0,.1,0,.14,0,.3.16,1.68.2,2,.28,2.15.32,4.43.43,6.14h0l.12,0,.14,0a9.84,9.84,0,0,0,1.16.1h.44l.21,0s0-.17,0-.4a9.44,9.44,0,0,1,.06-1.36c0-.1,0-.2.06-.29h0a8.47,8.47,0,0,0,.12-1,15.58,15.58,0,0,0-.32-4.12.83.83,0,0,0,0-.15c0-.09,0-.2,0-.31.08-1.12.17-2.81.24-4.24,0-.43,0-.83.06-1.19,0-.14,0-.27,0-.39Z"/><path class="cls-63" d="M68,98.58c0,.56,0,1.08,0,1.47s0,.71.11.74a3.41,3.41,0,0,0,2,.1c.1-.06.17-.33.22-.74.16-1.28.13-3.9.22-5.68,0-.54,0-1.1.06-1.65h0v-.2c0-.27,0-.53,0-.79s0-.35,0-.52,0-.47,0-.7v-.49c0-.22,0-.44,0-.63v-.12s0-.12,0-.24c0-.32.08-.83.08-.88L68,88.41c0,.29-.05,1.32-.07,1.66a2.17,2.17,0,0,1,0,.26c0,.86.16,3.61.14,4.62,0,.81-.07,2.21-.08,3.44Z"/><path class="cls-81" d="M66.9,81.82a1.45,1.45,0,0,0,.52.73,1.32,1.32,0,0,0,.29.15,1,1,0,0,0,.25.07,3.12,3.12,0,0,0,.52,0,30.16,30.16,0,0,0,1.3-3.11c0-.19-.29-.26-.27-.31a.44.44,0,0,0,0-.1.52.52,0,0,0-.21-.59l-.06,0a.52.52,0,0,0-.18-.1.78.78,0,0,0-.22,0H68.8a1.09,1.09,0,0,0-.92.54c-.11.2-.45,1.19-.77,2.15Z"/><path class="cls-89" d="M67.94,88.83c0,.39,2,1.07,3.62,1a4.23,4.23,0,0,0,2.17-.35c.42-.83-.15-2.83-.21-4.16-.07-1.76.74-2.52.93-3.7v0s0,0,0-.06a3.83,3.83,0,0,0,0-1.51s0,0,0,0,.2-.09.15-.17a2.85,2.85,0,0,0-.66-.33l-.2-.08c-.27-.12-2.36-.8-2.54-.82-.34-.06-1-.2-1.08-.18a8.52,8.52,0,0,0-1.22,0,1.37,1.37,0,0,0-.54.28c-.54.6,0,2.38-.07,2.8s0,.65,0,1.1,0,.83.05,1.29a14.15,14.15,0,0,1-.21,1.9A8.84,8.84,0,0,0,67.94,88.83Z"/><path class="cls-93" d="M73.52,81.56c0-.33.41-.24.56-.36a.34.34,0,0,1,.17-.09l.24.08c.26.11.5.17.59.49a13.34,13.34,0,0,1,.53,4.07H74.2q0-.1-.09-.24s-.09,0-.11-.05A8.59,8.59,0,0,1,73.52,81.56Z"/><path class="cls-81" d="M75.14,83.78a1.66,1.66,0,0,1-.93.21,2.3,2.3,0,0,1-.71-.15,11.21,11.21,0,0,1-.2-3.26A1.07,1.07,0,0,1,74,79.7a1,1,0,0,1,.24,0c.41.06.64.42.79.92.08.27.29,1.57.44,2.87A1.53,1.53,0,0,1,75.14,83.78Z"/><path class="cls-92" d="M67.3,83.89c1.39,1.06,1.54,1.54,1.54,1.54,0,.18.21.48.11.61a1,1,0,0,1-.32.26,9.74,9.74,0,0,1-2.26-1.09A.87.87,0,0,1,66.22,84,.86.86,0,0,1,67.3,83.89Z"/><path class="cls-94" d="M69.19,87V86.9c-.06,0-.14,0-.16-.06a.24.24,0,0,1,0-.08,12.73,12.73,0,0,1,.09-2c0-.16.16-.35.19-.09a6.27,6.27,0,0,1,0,.75C69.23,86,69.16,86.53,69.19,87Z"/><path class="cls-92" d="M68,86.32a.45.45,0,0,1,.15-.49.8.8,0,0,1,.28-.27.69.69,0,0,0,.13,0s.06-.06.1-.09a.26.26,0,0,1,.25-.11H69a.72.72,0,0,1,.34-.07,1.38,1.38,0,0,1,.33.33.2.2,0,0,1,0,.24.87.87,0,0,1,.11.31.79.79,0,0,1,0,.09c-.08.12-.13.07-.2.15l-.26.29c-.08.08-.11.17-.21.24s-.22.12-.29.08a.91.91,0,0,0-.07-.14h-.09a2.1,2.1,0,0,1-.65-.49Z"/><path class="cls-95" d="M65.14,85.41c.06,0,3.56,2.25,3.56,2.25l4,1L69,86.13Z"/><path class="cls-93" d="M71,86.6c.1,0,.2-.1.26-.08a14.49,14.49,0,0,1,3-1.62s.3,0,.33,0l.14,0h.13a.77.77,0,0,1,.72.52.83.83,0,0,1,0,.54h0a.76.76,0,0,1-.35.38h0a.67.67,0,0,1-.12.06l-.2.06-3.52,1c-.27.14-.52.33-.8.46a2.32,2.32,0,0,1-1,.07l-.12,0a.1.1,0,0,1-.06-.09c0-.06.07-.08.12-.1-.12-.08-.53-.2-.19-.31a2.15,2.15,0,0,1,.62,0,.55.55,0,0,0,.5-.35.62.62,0,0,0-.33,0,.71.71,0,0,1-.24.06.17.17,0,0,1-.18-.13C69.62,86.91,70.52,86.63,71,86.6Z"/><path class="cls-93" d="M71.52,79.47c.32-.08.7-.24.71-.44,0-.55.12-1.66.12-1.66l-2,.65a9.29,9.29,0,0,0-.09,1.17C70.29,79.48,71,79.59,71.52,79.47Z"/><path class="cls-92" d="M69.83,78.84a1.22,1.22,0,0,0,.87.2,2.24,2.24,0,0,0,1.14-.5.3.3,0,0,0,.08-.08h0a5.33,5.33,0,0,0,.82-1.56c0-.06,0-.13,0-.2.15-1.12-.86-1.39-1.64-2a1.3,1.3,0,0,0-1.32-.27,1.24,1.24,0,0,0-.63,1.13C69.1,76.9,69.12,78.27,69.83,78.84Z"/><path class="cls-96" d="M72.5,74.36a1.86,1.86,0,0,0-2.34-.52,1.69,1.69,0,0,0-1,1.69,2.22,2.22,0,0,1,2.24-.24c.31.1.83.56.72,1a7.64,7.64,0,0,0-.23,1.09c.21.1.34.52.34.57s.23-.16.31-.23a2.58,2.58,0,0,0,.34-.42,4.13,4.13,0,0,0,.45-1C73.82,74.59,72.5,74.36,72.5,74.36Z"/><path class="cls-92" d="M71.74,77.78c.13.16.44.12.69-.09s.36-.51.23-.66-.44-.12-.69.09S71.61,77.63,71.74,77.78Z"/><path class="cls-93" d="M72,77.58c.06.08.2.06.32,0s.17-.24.11-.31-.21-.06-.33,0S71.93,77.51,72,77.58Z"/><path class="cls-65" d="M70.79,83.86c.18-.17.57.19.75.27s.46.26.66.16a.19.19,0,0,0,0-.23c-.1-.16-.35-.24-.42-.41s0-.21.16-.17.28.2.4.3a1.2,1.2,0,0,0,.44.25,1,1,0,0,1,.27.17c.12.12.22.27.35.39h0l1.88.9c.17-.63.43-1.68.72-2.5l1.6.54c-.27.81-.67,2-1,2.71,0,.19-.5,1.13-1.25.74a18.34,18.34,0,0,1-2.64-2,7.54,7.54,0,0,1-1.32-.43C71.29,84.53,70.6,84,70.79,83.86Z"/><path class="cls-65" d="M73.05,84.2a1,1,0,0,0-.27-.17,1.2,1.2,0,0,1-.44-.25c-.12-.1-.24-.26-.4-.3s-.23,0-.16.17.32.25.42.41a.19.19,0,0,1,0,.23c-.2.1-.58-.13-.66-.16s-.57-.44-.75-.27.5.67.62.74a7.54,7.54,0,0,0,1.32.43l.35.27a2.08,2.08,0,0,1,.3-.72C73.27,84.46,73.17,84.32,73.05,84.2Z"/><path class="cls-97" d="M76,83c-.29.82-.63,1.47-.8,2.1-.3-.15-1.76-.61-1.77-.62a4.69,4.69,0,0,0-.54,1A14.33,14.33,0,0,0,75.37,87c.75.39,1.21-.55,1.25-.74.32-.68.72-1.9,1-2.71Z"/><path class="cls-98" d="M75.5,84.24a29.85,29.85,0,0,1,1.12-2.9c.25-.5,1.16-.48,1.49-.24,0,0-.3.07-.29.08a.86.86,0,0,1,.29.72.53.53,0,0,1,0,.13c0,.07,0,.23-.11.44,0,0-.36,1.63-.71,2.65C76.88,85.16,75.42,84.64,75.5,84.24Z"/><path class="cls-65" d="M77.4,103.47a33.3,33.3,0,0,0-.55-5,4.8,4.8,0,0,1-.31-1.69c0-.64-.08-1.48-.1-2.52l2.84-.31,0,.07c-.12.39-.23.79-.34,1.18a9.14,9.14,0,0,0-.22,1.67c0,.76.37,2.56.33,3.61a12.65,12.65,0,0,1-.56,2.76,1.4,1.4,0,0,0,.14.72,2.12,2.12,0,0,1-.88,1.38,1.16,1.16,0,0,1-1.08.12s.19-.68.17-.7C77.16,104,77.25,103.9,77.4,103.47Z"/><path class="cls-99" d="M77.78,104.64a8.22,8.22,0,0,0,.77-3.28c.09-1.25.5-3.27-.76-3.86a8.32,8.32,0,0,0-1.23-.33c0-.12,0-.25,0-.4,0-.64-.08-1.48-.1-2.52l2.84-.31,0,.07c-.12.39-.23.79-.34,1.18a9.14,9.14,0,0,0-.22,1.67c0,.76.37,2.56.33,3.61a12.65,12.65,0,0,1-.56,2.76,1.4,1.4,0,0,0,.14.72,2.12,2.12,0,0,1-.88,1.38,1.16,1.16,0,0,1-1.08.12s0-.06,0-.15A1.26,1.26,0,0,0,77.78,104.64Z"/><path class="cls-100" d="M78.69,105.45a1.39,1.39,0,0,1-.19.06c0-.18,0-.42-.09-.92l.45-.26c0,.43-.06.73-.06,1Z"/><path class="cls-101" d="M77,104.45s-.14.39-.15.48.16.38.41.35c.61-.07,1.56-1.07,1.31-1.59a.74.74,0,0,1,.32.41c.11.61-.27.56-.41.7s-.16.61-.3.84a2,2,0,0,1-2,.52c-.07,0-.14-.06-.16-.12C75.89,105.72,76.85,104.66,77,104.45Z"/><path class="cls-65" d="M81.36,94.77c-.48.12-2.11.45-2.2.71s0,1.53.52,5.82a8.29,8.29,0,0,1-.12,3.64,3.71,3.71,0,0,0,0,.7l.55.41.85-.46a3.72,3.72,0,0,0-.14-1.94,20.37,20.37,0,0,0,.56-5.56C81.43,98,81.39,95.19,81.36,94.77Z"/><path class="cls-60" d="M81.43,98.09c0-.11,0-2.9-.07-3.32-.48.12-2.11.45-2.2.71a14.08,14.08,0,0,0,.18,2.9,8.48,8.48,0,0,1,.88-.06,1.6,1.6,0,0,1,.81.11c.44.25.31,1,.24,1.41-.13.75-.31,1.48-.47,2.22a8.55,8.55,0,0,0-.11,1.6,5.9,5.9,0,0,0,.14,1.51c0,.16,0,.32.07.48l.11-.06a3.72,3.72,0,0,0-.14-1.94A20.37,20.37,0,0,0,81.43,98.09Z"/><path class="cls-101" d="M81.07,104.76c.15.52-.14,2-.88,2.06s-.67-1.06-.68-1.38c0-.12,0-.5,0-.5a2,2,0,0,0,.17.56.63.63,0,0,0,1,.12A1.77,1.77,0,0,0,81.07,104.76Z"/><path class="cls-33" d="M81.22,87.42a3,3,0,0,1-.08-.52,12.42,12.42,0,0,1,.44-1.8c.12-.64.58-3.16,0-3.43a4.55,4.55,0,0,0-1.38-.51c-.46,1-1.14.64-1.57.6-.84-.07-.48-.94-.48-.94a3.49,3.49,0,0,0-1,.27c-.51.26-1.09,2-1.12,2.42a2.71,2.71,0,0,0,.21,1,5.64,5.64,0,0,1,.63,2.68,4.57,4.57,0,0,1,0,.49A7.73,7.73,0,0,0,81.22,87.42Z"/><path class="cls-102" d="M81.22,87.42a7.73,7.73,0,0,1-4.34.25,12.28,12.28,0,0,1-.43,1.93c-.38,1.55-.28,6.46-.22,8,0,.07.36.41,2.19.5a6.77,6.77,0,0,0,3.32-.38,7.87,7.87,0,0,1,.11-1.16,19.77,19.77,0,0,0-.11-7C81.58,89,81.35,88.05,81.22,87.42Z"/><path class="cls-101" d="M81.74,89.5c-.15-.48-.39-1.45-.52-2.08l-.34.11a3.72,3.72,0,0,1,.25.73,20,20,0,0,1,.68,4.67c0,1.91-.48,4.91-.39,4.88a2.48,2.48,0,0,0,.32-.12,7.87,7.87,0,0,1,.11-1.16A19.77,19.77,0,0,0,81.74,89.5Z"/><path class="cls-101" d="M78.57,82.91a.18.18,0,0,0-.18-.18.19.19,0,0,0-.18.18.18.18,0,1,0,.36,0Z"/><path class="cls-101" d="M78.26,84.21a.18.18,0,0,0-.18-.18.18.18,0,0,0,0,.36A.18.18,0,0,0,78.26,84.21Z"/><path class="cls-101" d="M78.23,85.52a.18.18,0,1,0-.36,0,.19.19,0,0,0,.18.18A.18.18,0,0,0,78.23,85.52Z"/><path class="cls-101" d="M78.26,86.7a.18.18,0,0,0-.18-.18.18.18,0,0,0,0,.36A.18.18,0,0,0,78.26,86.7Z"/><path class="cls-65" d="M79.12,92.21v0h0Z"/><path class="cls-60" d="M78,80.85a1.75,1.75,0,0,0,.26,0s.13.53.42.55a1.68,1.68,0,0,0,1.18-.47V81l.36.15c-.11.53-.78.85-1.48.85S77.87,81.44,78,80.85Z"/><path class="cls-60" d="M80,79.57l-.08,1.34,0,.24a1.28,1.28,0,0,1-.18.22h0a.22.22,0,0,1-.09.07,1,1,0,0,1-.33.17,1.75,1.75,0,0,1-.6.09l-.18,0a.55.55,0,0,1-.31-.21,1.45,1.45,0,0,1-.09-.22l0-.78,0-.38Z"/><path class="cls-101" d="M81.14,86.92a5.78,5.78,0,0,1-4.23.15,8.24,8.24,0,0,1-.09,1c.29.2,3,.73,4.48-.29C81.25,87.51,81.21,87.25,81.14,86.92Z"/><path class="cls-33" d="M78,80.85a.83.83,0,0,0,.7.9l-.61.51a1.39,1.39,0,0,1-.66-1.18C77.49,80.92,77.83,80.83,78,80.85Z"/><path class="cls-33" d="M78.7,81.72l.29.67s1.29,0,1.31-1.07c0-.22-.43-.31-.43-.31s.08.3-.67.62A1.36,1.36,0,0,1,78.7,81.72Z"/><path class="cls-102" d="M78.4,81.8a.24.24,0,0,1,.28-.17.23.23,0,0,1,.17.28.22.22,0,0,1-.28.17A.23.23,0,0,1,78.4,81.8Z"/><path class="cls-65" d="M80.15,86.11h0Z"/><path class="cls-65" d="M81.65,86.83s0,0,0,0S81.64,86.85,81.65,86.83Z"/><path class="cls-103" d="M80.12,79.66c1,.23,1.44-.7,1.59-1.08a1.33,1.33,0,0,0-.07-1.17,1,1,0,0,0-1-.48,1.09,1.09,0,0,0-.62.41,2,2,0,0,0-.33.68,4.09,4.09,0,0,0-.2,1.25.76.76,0,0,0,.27.68Z"/><path class="cls-104" d="M80.8,79.43c-.87.88-1.42,1.4-2.31.84a3.67,3.67,0,0,1-1.35-3.15c0-.73,1.79-1.61,2.93-1A2.12,2.12,0,0,1,80.8,79.43Z"/><path class="cls-65" d="M77.12,78c0,1.17.14,2.37.81,2.8a1,1,0,0,0,.78.07l.17,0a3.27,3.27,0,0,0,.8-.42,4,4,0,0,0,.55-1.65c.17-1.16-.7-1.18-1.47-1.67S77.1,76.81,77.12,78Z"/><path class="cls-104" d="M77.71,76.39c.31,0,.62.36.93.41l.9.17c.4.12.8.25,1.2.36a2.14,2.14,0,0,1,.13.72,2.68,2.68,0,0,1-.24,1.12c0,.07-.51-.53-.54-.46s-.58.84-.8.62S79.18,78,79.18,78s-1.85.33-2.14,0C77.08,77.52,76.92,76.84,77.71,76.39Z"/><path class="cls-65" d="M79.61,79c-.18.26-.19.56,0,.66s.42,0,.6-.28.19-.55,0-.66S79.78,78.76,79.61,79Z"/><path class="cls-99" d="M79.75,79.12c-.09.13-.1.27,0,.32s.21,0,.29-.14.1-.27,0-.32S79.83,79,79.75,79.12Z"/><path class="cls-105" d="M77.65,76.78s0,0,0,0l0,0S77.64,76.77,77.65,76.78Z"/><path class="cls-65" d="M77.2,89.48a1.89,1.89,0,0,1-.33.13c-.1,0-.42.07-.33.18s.26.15.42.09S77.23,89.67,77.2,89.48Z"/><rect class="cls-33" x="73.65" y="88.06" width="3.58" height="5.34" transform="translate(-22.4 24.77) rotate(-16.27)"/><path class="cls-65" d="M80.88,85.19a8.91,8.91,0,0,1-.31,1.57,8.21,8.21,0,0,1-2.68,2.53c-.11,0-.22,0-.34,0a1.7,1.7,0,0,0-.35.14c0,.15-.16.33-.16.33v0h0l-.24.16c-.1.07-.59.38-.51.5s.13,0,.18,0a4.42,4.42,0,0,0,.6-.34l-.48.34c-.42.3-.26.44-.16.39a2.34,2.34,0,0,0,.47-.3c-.3.25-.4.32-.36.41s.14,0,.19,0a3.51,3.51,0,0,0,.59-.42,4.51,4.51,0,0,0-.42.48h0c0,.08.08.07.16,0a6,6,0,0,0,1-.63,4.53,4.53,0,0,1,.75-.64A19.55,19.55,0,0,0,82,87.54,5.89,5.89,0,0,0,82.4,85,3.33,3.33,0,0,1,80.88,85.19Z"/><path class="cls-106" d="M78.11,89.05a10.47,10.47,0,0,0,2.28-2.53,5.61,5.61,0,0,0,0-3.39c-.07-.44.35-1.52,1-1.43a1,1,0,0,1,.95,1c0,1.18.19,4.27-.22,4.77a25.79,25.79,0,0,1-3.5,2.73C78.4,90.26,78,89.14,78.11,89.05Z"/></g></g></g></svg>