<?xml version="1.0" standalone="no"?>
<!DOCTYPE svg PUBLIC "-//W3C//DTD SVG 1.1//EN" "http://www.w3.org/Graphics/SVG/1.1/DTD/svg11.dtd" >
<svg xmlns="http://www.w3.org/2000/svg" xmlns:xlink="http://www.w3.org/1999/xlink" version="1.1">
<metadata>
Created by FontForge 20190801 at Thu Jul 12 18:20:55 2012
 By Jimmy Wärting
Copyright (c) 2012 by Gabriel de Souza. All rights reserved.
</metadata>
<defs>
<font id="ClioCBoldIt-Bold" horiz-adv-x="502" >
  <font-face 
    font-family="Clio C BoldIt"
    font-weight="700"
    font-stretch="normal"
    units-per-em="1000"
    panose-1="2 0 0 0 0 0 0 0 0 0"
    ascent="750"
    descent="-250"
    x-height="499"
    cap-height="666"
    bbox="-23 -281 971.232 951"
    underline-thickness="50"
    underline-position="-100"
    unicode-range="U+0020-FB04"
  />
<missing-glyph horiz-adv-x="197" 
 />
    <glyph glyph-name="fi" unicode="fi" horiz-adv-x="598" 
d="M473 609c7 56 13 65 72 65c58 0 65 -5 58 -65c-5 -53 -14 -66 -72 -66c-59 0 -63 13 -58 66zM71 499h68c16 163 48 193 178 193c25 0 53 -1 101 -8l-6 -72h-88c-54 0 -63 -6 -71 -113h333l-55 -499h-118l48 419h-215l-53 -464c-12 -113 -67 -146 -128 -146
c-7 0 -19 0 -53 5l3 55c45 8 61 37 66 69c4 33 4 65 50 481h-67z" />
    <glyph glyph-name="fl" unicode="fl" horiz-adv-x="594" 
d="M71 499h68c16 163 48 193 178 193c23 0 146 -1 272 -11l-62 -559c-2 -29 -5 -53 41 -61l-7 -63c-35 -6 -40 -6 -46 -6c-69 0 -115 27 -102 147l51 473h-140c-54 0 -63 -6 -71 -113h106l-7 -80h-106l-53 -464c-12 -113 -67 -146 -128 -146c-7 0 -19 0 -53 5l3 55
c45 8 61 37 66 69c4 33 4 65 50 481h-67z" />
    <glyph glyph-name="ff" unicode="ff" horiz-adv-x="715" 
d="M71 499h68c16 163 48 193 178 193c25 0 53 -1 101 -8l-6 -72h-88c-54 0 -63 -6 -71 -113h251c16 163 49 193 178 193c25 0 53 -1 102 -8l-6 -72h-89c-54 0 -63 -6 -71 -113h106l-7 -80h-106l-52 -464c-13 -113 -68 -146 -129 -146c-6 0 -19 0 -53 5l4 55
c45 8 61 37 65 69c5 33 5 65 51 481h-251l-53 -464c-12 -113 -67 -146 -128 -146c-7 0 -19 0 -53 5l3 55c45 8 61 37 66 69c4 33 4 65 50 481h-67z" />
    <glyph glyph-name="ffi" unicode="ffi" horiz-adv-x="950" 
d="M840 609c6 56 12 65 72 65c57 0 64 -5 57 -65c-5 -53 -13 -66 -72 -66s-63 13 -57 66zM71 499h68c16 163 48 193 178 193c25 0 53 -1 101 -8l-6 -72h-88c-54 0 -63 -6 -71 -113h251c16 163 49 193 178 193c25 0 53 -1 102 -8l-6 -72h-89c-54 0 -63 -6 -71 -113h334
l-55 -499h-118l46 419h-214l-52 -464c-13 -113 -68 -146 -129 -146c-6 0 -19 0 -53 5l4 55c45 8 61 37 65 69c5 33 5 65 51 481h-251l-53 -464c-12 -113 -67 -146 -128 -146c-7 0 -19 0 -53 5l3 55c45 8 61 37 66 69c4 33 4 65 50 481h-67z" />
    <glyph glyph-name="ffl" unicode="ffl" horiz-adv-x="950" 
d="M71 499h68c16 163 48 193 178 193c25 0 53 -1 101 -8l-6 -72h-88c-54 0 -63 -6 -71 -113h251c16 163 49 193 178 193c24 0 135 -1 273 -11v-2h1l-62 -557c-3 -29 -6 -53 40 -61l-7 -63c-35 -6 -40 -6 -46 -6c-68 0 -114 27 -102 147l51 473h-141c-54 0 -63 -6 -71 -113
h106l-7 -80h-106l-52 -464c-13 -113 -68 -146 -129 -146c-6 0 -19 0 -53 5l4 55c45 8 61 37 65 69c5 33 5 65 51 481h-251l-53 -464c-12 -113 -67 -146 -128 -146c-7 0 -19 0 -53 5l3 55c45 8 61 37 66 69c4 33 4 65 50 481h-67z" />
    <glyph glyph-name=".notdef" horiz-adv-x="197" 
 />
    <glyph glyph-name="B" unicode="B" horiz-adv-x="531" 
d="M238 0h-174l74 668h174c121 0 228 -15 211 -169l-6 -43c-6 -62 -33 -92 -74 -120c38 -26 53 -83 47 -128l-4 -40c-14 -134 -89 -168 -248 -168zM213 285l-21 -199h60c71 0 109 21 116 88l4 35c7 61 -21 76 -65 76h-94zM307 581h-60l-23 -199h94c44 0 74 17 82 76l3 33
c9 85 -30 90 -96 90z" />
    <glyph glyph-name="C" unicode="C" horiz-adv-x="525" 
d="M201 298c-25 -214 27 -214 142 -214c35 0 89 3 138 7l-9 -79c-64 -13 -140 -21 -191 -21c-170 0 -235 33 -205 310c33 293 60 378 275 378c11 0 112 -4 193 -16l-9 -88c-116 10 -160 13 -173 13c-120 0 -133 -45 -161 -290z" />
    <glyph glyph-name="D" unicode="D" horiz-adv-x="584" 
d="M64 0l74 668l229 1c163 1 222 -56 191 -338c-30 -271 -89 -331 -255 -331h-239zM361 581h-114l-54 -490l116 -1c71 1 108 40 130 241c25 225 5 250 -78 250z" />
    <glyph glyph-name="E" unicode="E" horiz-adv-x="514" 
d="M454 0h-390l74 668h389l-10 -96h-271l-21 -184h248l-10 -97h-249l-21 -196h270z" />
    <glyph glyph-name="F" unicode="F" horiz-adv-x="495" 
d="M184 0h-120l73 667h394l-10 -94h-274l-21 -187h236l-11 -95h-236z" />
    <glyph glyph-name="G" unicode="G" horiz-adv-x="535" 
d="M291 253l8 78h212l-35 -318c-62 -17 -128 -22 -195 -22c-170 0 -235 33 -205 310c33 293 60 378 275 378c11 0 112 -4 193 -16l-9 -88c-116 10 -160 13 -173 13c-120 0 -135 -58 -161 -290c-26 -235 27 -212 142 -212h24l19 167h-95z" />
    <glyph glyph-name="H" unicode="H" horiz-adv-x="601" 
d="M522 0h-121l33 295h-217l-33 -295h-120l74 668h120l-31 -281h217l31 281h121z" />
    <glyph glyph-name="I" unicode="I" horiz-adv-x="259" 
d="M256 667l-72 -667h-120l73 667h119z" />
    <glyph glyph-name="J" unicode="J" horiz-adv-x="302" 
d="M319 670l-59 -536c-13 -119 -66 -153 -175 -144l-72 4l9 81c64 4 116 3 122 56l59 539h116z" />
    <glyph glyph-name="K" unicode="K" horiz-adv-x="553" 
d="M183 0h-119l74 668h118l-31 -284h59l183 284h130l-212 -323l147 -345h-129l-127 293h-62z" />
    <glyph glyph-name="L" unicode="L" horiz-adv-x="469" 
d="M441 0h-377l73 667h120l-63 -572h257z" />
    <glyph glyph-name="M" unicode="M" horiz-adv-x="738" 
d="M181 0h-117l74 668h139l116 -384l201 384h143l-74 -668h-115l50 459l-176 -344h-95l-96 344z" />
    <glyph glyph-name="N" unicode="N" horiz-adv-x="616" 
d="M538 0h-143l-166 450l-49 -450h-116l74 668h136l168 -464l51 464h119z" />
    <glyph glyph-name="O" unicode="O" horiz-adv-x="580" 
d="M281 -10c-205 0 -222 72 -192 343c32 279 68 344 268 344c207 0 225 -68 195 -344c-31 -279 -65 -343 -271 -343zM291 79c106 0 120 37 144 254c24 216 19 256 -88 256s-117 -44 -140 -256c-23 -209 -23 -254 84 -254z" />
    <glyph glyph-name="P" unicode="P" horiz-adv-x="562" 
d="M184 0h-120l73 667h247c116 0 206 -35 192 -168l-9 -78c-9 -80 -77 -152 -162 -165c-26 -4 -53 -4 -194 -4zM248 579l-27 -237h125c50 0 97 10 104 79l9 77c7 71 -38 81 -86 81h-125z" />
    <glyph glyph-name="Q" unicode="Q" horiz-adv-x="572" 
d="M545 333c-21 -200 -45 -288 -135 -322l57 -28l-47 -94l-200 104c-152 16 -163 97 -137 340c31 279 67 344 269 344c207 0 224 -68 193 -344zM285 79c106 0 120 37 143 254c25 216 21 256 -86 256c-108 0 -118 -44 -141 -256c-23 -209 -23 -254 84 -254z" />
    <glyph glyph-name="R" unicode="R" horiz-adv-x="581" 
d="M184 0h-120l73 667h249c116 0 206 -35 192 -168l-9 -78c-6 -54 -30 -95 -78 -132l17 -289h-125l-11 253c-20 -1 -35 -1 -161 -1zM248 579l-27 -237h125c50 0 97 10 104 79l9 77c7 71 -38 81 -86 81h-125z" />
    <glyph glyph-name="S" unicode="S" 
d="M208 516c-14 -125 290 -127 266 -344c-14 -127 -100 -182 -204 -182c-86 0 -144 5 -205 10l10 95s119 -11 199 -11c48 0 72 23 78 77c15 134 -288 133 -266 337c14 128 97 182 203 182c109 0 164 -5 206 -9l-11 -97s-122 13 -199 13c-46 0 -72 -22 -77 -71z" />
    <glyph glyph-name="T" unicode="T" horiz-adv-x="518" 
d="M311 0h-121l63 573h-176l10 94h473l-10 -94h-176z" />
    <glyph glyph-name="U" unicode="U" horiz-adv-x="601" 
d="M301 79c108 0 122 37 145 254l38 336h119l-38 -336c-30 -279 -65 -343 -274 -343c-208 0 -225 72 -196 343l38 336h120l-38 -336c-22 -209 -22 -254 86 -254z" />
    <glyph glyph-name="V" unicode="V" horiz-adv-x="569" 
d="M76 667h121l87 -553l215 553h119l-265 -667h-162z" />
    <glyph glyph-name="W" unicode="W" horiz-adv-x="823" 
d="M250 135l174 534h111l49 -536l163 534h116l-206 -667h-155l-47 467l-156 -467h-148l-65 667h117z" />
    <glyph glyph-name="X" unicode="X" horiz-adv-x="533" 
d="M515 0h-128l-99 228l-147 -228h-129l221 337l-141 330h128l92 -214l141 214h127l-212 -328z" />
    <glyph glyph-name="Y" unicode="Y" horiz-adv-x="521" 
d="M310 0h-122l23 212l-143 456h134l85 -315l158 315h134l-246 -456z" />
    <glyph glyph-name="Z" unicode="Z" horiz-adv-x="523" 
d="M477 0h-446l9 84l356 489h-296l11 96h433l-10 -88l-352 -487h305z" />
    <glyph glyph-name="a" unicode="a" horiz-adv-x="473" 
d="M58 282c17 158 65 226 172 226c38 0 141 -10 221 -33l-50 -478h-85l-9 41c-45 -29 -99 -47 -136 -47c-99 0 -119 82 -119 171c0 32 1 64 6 120zM250 428c-62 -2 -71 -110 -77 -164c-5 -43 -8 -112 -2 -155c5 -37 18 -43 51 -34c27 7 55 22 82 34l33 313
c-28 4 -62 7 -87 6z" />
    <glyph glyph-name="b" unicode="b" horiz-adv-x="473" 
d="M453 285c-23 -204 -50 -293 -223 -293c-43 0 -118 7 -175 15l75 682h114l-22 -196c34 8 79 15 102 15c112 0 147 -64 129 -223zM337 279c9 83 9 129 -23 137c-21 7 -57 1 -101 -10l-35 -320c16 -1 36 -1 59 -1h1c76 0 83 59 99 194z" />
    <glyph glyph-name="c" unicode="c" horiz-adv-x="456" 
d="M185 223c-14 -128 14 -142 91 -142c34 0 95 5 137 9l-9 -76c-50 -14 -126 -23 -175 -23c-128 0 -184 25 -161 235c25 220 51 284 215 284c9 0 108 -5 170 -17l-9 -85c-100 9 -145 12 -156 12c-79 0 -85 -36 -103 -197z" />
    <glyph glyph-name="d" unicode="d" horiz-adv-x="473" 
d="M71 256l3 29c21 160 61 225 174 225c29 0 53 -1 98 -12l20 190h115l-75 -688h-93c-2 12 -3 22 -4 34c-48 -24 -89 -40 -124 -40c-100 0 -135 77 -114 262zM192 282c-16 -139 -16 -194 20 -194c24 0 53 10 91 30l33 294c-106 27 -130 2 -144 -130z" />
    <glyph glyph-name="e" unicode="e" horiz-adv-x="473" 
d="M465 361v-19c0 -19 -1 -122 -143 -124l-145 -2c-2 -27 -3 -51 -3 -69c0 -74 37 -76 82 -76c17 0 79 2 154 12l-6 -72c-64 -13 -127 -20 -184 -20c-118 0 -158 42 -158 154c0 29 3 64 7 106c23 201 54 261 221 261c132 0 175 -39 175 -151zM284 434
c-75 0 -83 -39 -97 -138h141c29 0 30 34 30 46v12c0 65 -20 80 -74 80z" />
    <glyph glyph-name="f" unicode="f" horiz-adv-x="355" 
d="M71 499h68c16 163 48 193 178 193c25 0 53 -1 101 -8l-6 -72h-88c-54 0 -63 -6 -71 -113h106l-7 -80h-106l-53 -464c-12 -113 -67 -146 -128 -146c-7 0 -19 0 -53 5l3 55c45 8 61 37 66 69c4 33 4 65 50 481h-67z" />
    <glyph glyph-name="g" unicode="g" horiz-adv-x="452" 
d="M459 500l-57 -550c-11 -101 -71 -141 -171 -141c-61 0 -106 6 -170 21c0 4 22 76 23 78c37 -6 83 -17 142 -17c66 0 69 55 78 151c-21 -1 -47 -1 -66 -1c-81 0 -169 17 -169 139c0 15 2 41 5 61c21 193 63 274 229 274c15 0 41 -1 156 -15zM184 242
c-15 -126 14 -122 125 -120l36 310c-26 2 -36 2 -42 2c-95 0 -98 -19 -119 -192z" />
    <glyph glyph-name="h" unicode="h" horiz-adv-x="495" 
d="M430 0h-116l41 373c2 21 -3 38 -24 38c-24 0 -69 -5 -119 -23l-42 -388h-114l74 681h114l-23 -205c41 12 98 31 141 31c83 0 119 -42 110 -126z" />
    <glyph glyph-name="i" unicode="i" horiz-adv-x="239" 
d="M174 0h-118l55 499h118zM116 609c6 56 13 65 72 65c58 0 65 -5 58 -65c-6 -53 -14 -66 -72 -66c-60 0 -63 13 -58 66z" />
    <glyph glyph-name="j" unicode="j" horiz-adv-x="229" 
d="M-19 -182l7 63c47 8 56 32 60 62l61 557h117l-60 -541c-13 -121 -65 -146 -133 -146c-6 0 -16 0 -52 5zM115 609c6 56 12 65 71 65c58 0 66 -5 59 -65c-6 -53 -15 -66 -73 -66c-60 0 -62 13 -57 66z" />
    <glyph glyph-name="k" unicode="k" 
d="M170 0h-114l74 679h115l-39 -346h59l142 238h120l-168 -283l129 -288h-124l-108 242h-60z" />
    <glyph glyph-name="l" unicode="l" horiz-adv-x="249" 
d="M225 61l-7 -63c-35 -6 -40 -6 -46 -6c-69 0 -115 27 -102 147l60 540h117l-63 -557c-2 -29 -5 -53 41 -61z" />
    <glyph glyph-name="m" unicode="m" horiz-adv-x="748" 
d="M682 0h-118l41 368c2 25 -5 40 -23 40c-22 0 -68 -7 -110 -19c-14 -126 -28 -263 -42 -389h-117l41 372c2 24 -5 37 -23 37c-25 0 -76 -12 -118 -27l-41 -382h-116l55 499h96l7 -33c47 21 97 43 146 43c37 0 67 -18 90 -45c55 21 109 45 162 45c83 0 121 -44 112 -128z
" />
    <glyph glyph-name="n" unicode="n" horiz-adv-x="495" 
d="M432 0h-117l40 372c3 24 -5 37 -25 37c-23 0 -74 -11 -116 -27l-41 -382h-117l55 499h97l6 -35c49 20 98 45 147 45c69 0 121 -37 112 -124z" />
    <glyph glyph-name="o" unicode="o" horiz-adv-x="498" 
d="M237 -9c-170 0 -188 59 -167 259c23 205 57 259 224 259c170 0 191 -58 169 -259s-57 -259 -226 -259zM247 75c75 0 85 30 101 175c17 150 12 178 -63 178s-84 -32 -101 -178c-16 -145 -13 -175 63 -175z" />
    <glyph glyph-name="p" unicode="p" horiz-adv-x="473" 
d="M445 243l-3 -29c-22 -160 -61 -225 -175 -225c-29 0 -52 1 -96 12l-22 -190h-115l77 688h92c1 -12 3 -22 5 -34c48 24 88 40 123 40c100 0 134 -77 114 -262zM324 217c15 139 15 194 -21 194c-23 0 -51 -10 -91 -30l-32 -294c105 -27 130 -2 144 130z" />
    <glyph glyph-name="q" unicode="q" horiz-adv-x="474" 
d="M65 218c22 204 50 293 223 293c43 0 118 -7 175 -15l-75 -682h-114l22 196c-33 -8 -79 -15 -102 -15c-112 0 -146 64 -129 223zM182 224c-9 -83 -10 -129 22 -137c20 -7 57 -1 100 10l36 320c-16 1 -36 1 -58 1h-2c-76 0 -83 -59 -98 -194z" />
    <glyph glyph-name="r" unicode="r" horiz-adv-x="334" 
d="M216 463c37 18 76 39 152 47l-10 -93c-47 -4 -102 -25 -144 -42l-41 -375h-117l55 500h104z" />
    <glyph glyph-name="s" unicode="s" horiz-adv-x="425" 
d="M189 378c-8 -69 227 -76 208 -241c-11 -97 -82 -140 -169 -140c-91 0 -171 11 -171 11l10 88s77 -10 153 -10c33 0 54 10 57 42c9 81 -225 75 -206 240c11 98 81 141 168 141c92 0 172 -11 172 -11l-10 -89s-90 10 -168 10c-27 0 -41 -13 -44 -41z" />
    <glyph glyph-name="t" unicode="t" horiz-adv-x="369" 
d="M271 -9c-112 0 -139 45 -139 123c0 21 2 44 30 302h-99c3 28 7 58 10 84h100c4 39 9 81 13 121h114l-14 -121h101c-3 -27 -7 -57 -10 -84h-102l-30 -295c0 -39 14 -44 40 -46c14 -1 34 -1 65 5c-4 -28 -4 -52 -7 -79c-33 -8 -56 -10 -72 -10z" />
    <glyph glyph-name="u" unicode="u" horiz-adv-x="494" 
d="M108 499h117l-41 -373c-3 -23 6 -36 26 -36c23 0 73 11 115 27l42 382h117l-55 -499h-97l-7 35c-49 -20 -98 -45 -147 -45c-69 0 -121 37 -112 124z" />
    <glyph glyph-name="v" unicode="v" horiz-adv-x="462" 
d="M295 0h-132l-99 500h120l61 -357l139 357h118z" />
    <glyph glyph-name="w" unicode="w" horiz-adv-x="686" 
d="M122 0l-46 500h116l25 -306l111 306h124l45 -306l93 306h115l-155 -500h-133l-46 323l-115 -323h-134z" />
    <glyph glyph-name="x" unicode="x" horiz-adv-x="411" 
d="M400 0h-117l-58 142l-86 -142h-121l157 248l-99 251h119l53 -148l84 148h119l-154 -251z" />
    <glyph glyph-name="y" unicode="y" horiz-adv-x="463" 
d="M55 -162l25 54c29 -8 31 -8 32 -8c35 0 63 84 81 116h-22l-96 500h118l62 -326l131 326h115l-241 -588c-31 -69 -76 -104 -122 -104c-26 0 -55 8 -83 30z" />
    <glyph glyph-name="z" unicode="z" horiz-adv-x="414" 
d="M40 72l230 340h-189l10 89h327l-9 -74l-229 -337h196l-10 -90h-334z" />
    <glyph glyph-name="zero" unicode="0" horiz-adv-x="498" 
d="M238 -9c-127 0 -167 38 -167 156c0 33 4 80 9 126c24 208 63 281 221 281c127 0 168 -39 168 -159c0 -30 -5 -79 -9 -122c-24 -205 -63 -282 -222 -282zM247 76c69 0 80 33 98 197c6 54 10 94 10 122c0 63 -18 77 -63 77c-67 0 -78 -34 -97 -199c-5 -52 -9 -91 -9 -120
c0 -61 16 -77 61 -77z" />
    <glyph glyph-name="one" unicode="1" horiz-adv-x="319" 
d="M67 447l2 96h234l-59 -543h-119l54 447h-112z" />
    <glyph glyph-name="two" unicode="2" horiz-adv-x="425" 
d="M417 403c-9 -84 -116 -186 -210 -306h170l-10 -92h-310l10 78c146 188 224 263 230 321c4 38 -11 54 -49 54c-48 0 -98 -3 -150 -3l10 89l138 2c106 0 184 -17 171 -143z" />
    <glyph glyph-name="three" unicode="3" horiz-adv-x="447" 
d="M426 383l-6 -49c-7 -64 -35 -93 -76 -121c39 -26 54 -82 48 -127l-4 -38c-15 -131 -87 -167 -235 -167l-125 2l9 83c30 0 58 -1 84 -1c90 0 142 9 151 87l3 34c8 63 -19 82 -63 82h-108l10 88h108c44 0 74 20 81 80l5 41c8 74 -43 80 -121 80l-96 -2l10 85l128 3
c116 3 213 -8 197 -160z" />
    <glyph glyph-name="four" unicode="4" horiz-adv-x="512" 
d="M494 178l-10 -93h-86l-22 -197h-113l21 197h-258l8 75l268 383h146l-40 -365h86zM166 178h129l25 228z" />
    <glyph glyph-name="five" unicode="5" horiz-adv-x="439" 
d="M230 260c150 0 180 -41 165 -181l-4 -33c-14 -129 -94 -167 -246 -167c-70 0 -94 1 -105 1l9 83h110c75 0 111 18 119 88l4 37c8 72 -12 84 -66 84h-141l40 371h306l-10 -95h-192l-22 -188h33z" />
    <glyph glyph-name="six" unicode="6" horiz-adv-x="507" 
d="M311 381c143 0 177 -60 165 -167l-5 -45c-12 -107 -71 -180 -212 -180s-189 66 -177 173c28 248 37 312 42 340c24 112 81 163 223 163c13 0 112 -8 150 -11l-10 -92c-49 4 -136 9 -150 9c-80 -3 -92 -29 -111 -197c29 4 61 7 85 7zM350 167l5 50c6 51 -3 73 -54 73
c-24 0 -56 -5 -86 -14l-13 -116c-7 -63 20 -79 67 -79c53 0 75 26 81 86z" />
    <glyph glyph-name="seven" unicode="7" horiz-adv-x="402" 
d="M246 -112h-116l156 560h-231l10 95h362z" />
    <glyph glyph-name="eight" unicode="8" horiz-adv-x="505" 
d="M492 500l-4 -41c-7 -66 -34 -97 -76 -126c43 -26 60 -81 54 -131l-3 -39c-15 -124 -85 -173 -211 -173c-136 0 -202 39 -187 172l4 39c6 49 36 106 84 131c-36 29 -55 60 -48 126l5 40c15 140 101 168 203 170c108 0 195 -21 179 -168zM181 166c-6 -58 17 -90 67 -90
c60 0 93 27 100 91l4 36c7 62 -22 83 -67 83h-13c-44 0 -80 -21 -88 -84zM219 458c-8 -62 19 -82 62 -82h12c44 0 74 21 81 83l4 34c8 73 -17 87 -60 87c-51 0 -87 -7 -96 -88z" />
    <glyph glyph-name="nine" unicode="9" horiz-adv-x="485" 
d="M231 149c-143 0 -176 60 -164 167l5 45c12 107 70 180 211 180c142 0 189 -66 178 -173c-28 -248 -37 -312 -43 -340c-23 -112 -81 -163 -223 -163c-12 0 -111 8 -149 11l11 92c47 -4 135 -9 148 -9c80 3 93 29 112 197c-29 -4 -61 -7 -86 -7zM193 363l-6 -50
c-5 -51 4 -73 55 -73c23 0 56 5 86 14l12 116c7 63 -20 79 -66 79c-54 0 -75 -26 -81 -86z" />
    <glyph glyph-name="breve" unicode="&#x2d8;" horiz-adv-x="384" 
d="M387 602c-26 -27 -88 -67 -143 -67s-105 37 -132 67l43 63c27 -25 63 -50 97 -50c33 0 76 25 110 48z" />
    <glyph glyph-name="dotaccent" unicode="&#x2d9;" horiz-adv-x="217" 
d="M108 625c6 57 14 67 75 67c58 0 66 -9 60 -67c-6 -55 -14 -69 -75 -69c-60 0 -66 13 -60 69z" />
    <glyph glyph-name="ring" unicode="&#x2da;" horiz-adv-x="281" 
d="M119 619c5 49 40 89 92 89c54 0 81 -40 75 -89c-6 -50 -40 -89 -93 -89s-81 37 -74 89zM171 619c-3 -23 8 -38 27 -38s33 15 36 38c2 22 -9 38 -28 38s-33 -16 -35 -38z" />
    <glyph glyph-name="hungarumlaut" unicode="&#x2dd;" horiz-adv-x="434" 
d="M371 741l70 -43l-112 -175l-66 42zM240 742l71 -44l-111 -175l-67 42z" />
    <glyph glyph-name="ogonek" unicode="&#x2db;" horiz-adv-x="298" 
d="M121 -212c-45 0 -85 27 -79 84c6 48 50 92 89 128h82c-61 -68 -76 -104 -79 -124c-1 -9 6 -17 23 -17c14 0 32 4 46 8l-2 -65c-14 -5 -53 -14 -80 -14z" />
    <glyph glyph-name="caron" unicode="&#x2c7;" horiz-adv-x="393" 
d="M361 715l37 -60l-156 -126l-130 123l46 61l95 -79z" />
    <glyph glyph-name="dotlessi" unicode="&#x131;" horiz-adv-x="237" 
d="M175 0h-119l53 488h119z" />
    <glyph glyph-name="Lslash" unicode="&#x141;" horiz-adv-x="488" 
d="M50 235l-20 84l86 33l34 315h122l-30 -268l71 27l17 -84l-98 -38l-23 -212h255l-10 -92h-377l28 257z" />
    <glyph glyph-name="lslash" unicode="&#x142;" horiz-adv-x="338" 
d="M68 246l-20 82l91 36l36 314h116l-30 -269l67 26l19 -83l-97 -37l-21 -194c-3 -29 -7 -53 40 -61l-7 -63c-34 -6 -42 -6 -46 -6c-72 0 -114 27 -102 147l16 131z" />
    <glyph glyph-name="ampersand" unicode="&#x26;" horiz-adv-x="501" 
d="M346 423h111l-4 -47h42l-10 -90h-42l-31 -273c-75 -15 -125 -21 -161 -21c-146 0 -192 51 -184 170l5 40c5 45 35 104 79 130c-38 29 -54 60 -50 126l4 41c12 111 89 163 217 163c35 0 82 -4 149 -15l-9 -81c-74 7 -122 11 -151 11c-62 0 -82 -28 -88 -84l-3 -34
c-8 -62 19 -83 66 -83h56zM191 203l-4 -36c-8 -76 30 -91 80 -91c14 0 27 2 42 5l23 205h-56c-47 0 -78 -19 -85 -83z" />
    <glyph glyph-name="space" unicode=" " horiz-adv-x="190" 
 />
    <glyph glyph-name="exclam" unicode="!" horiz-adv-x="242" 
d="M78 174l57 493h115l-57 -493h-115zM65 57c6 50 12 60 65 60c51 0 58 -7 52 -60c-5 -48 -13 -60 -65 -60c-53 0 -58 11 -52 60z" />
    <glyph glyph-name="quotedbl" unicode="&#x22;" horiz-adv-x="355" 
d="M184 449h-94l53 216h112zM322 449h-98l63 216h113z" />
    <glyph glyph-name="numbersign" unicode="#" horiz-adv-x="526" 
d="M386 131l-15 -133h-85l15 133h-59l-15 -133h-86l16 133h-99l7 70h99l11 104h-99l9 75h99l14 131h85l-14 -131h59l15 131h84l-14 -131h100l-8 -75h-100l-12 -104h100l-7 -70h-100zM320 305h-59l-12 -104h60z" />
    <glyph glyph-name="dollar" unicode="$" horiz-adv-x="450" 
d="M155 -92l10 91c-59 2 -103 7 -111 9l11 94s85 -11 166 -11c37 0 61 11 65 48c10 92 -247 82 -227 263c11 96 73 143 157 150l11 97h103l-11 -97c62 -4 106 -10 109 -10l-10 -93s-100 11 -183 11c-30 0 -47 -15 -51 -48c-8 -75 249 -86 229 -264
c-11 -94 -74 -141 -155 -149l-10 -91h-103z" />
    <glyph glyph-name="percent" unicode="%" horiz-adv-x="644" 
d="M481 -3c-87 0 -117 18 -101 160c15 142 41 159 140 159c82 0 107 -30 93 -159c-14 -118 -37 -160 -132 -160zM507 248c-31 0 -35 -14 -43 -91l-1 -18c-8 -58 -9 -71 26 -71c27 2 31 0 41 89c8 77 5 91 -23 91zM191 354c-87 0 -117 18 -102 159c16 142 43 160 141 160
c83 0 107 -31 92 -160c-12 -118 -36 -159 -131 -159zM217 605c-31 0 -34 -15 -42 -91l-3 -18c-6 -58 -7 -72 27 -72c27 2 32 1 42 90c8 76 5 91 -24 91zM598 667l-421 -667h-83l420 667h84z" />
    <glyph glyph-name="quotesingle" unicode="'" horiz-adv-x="226" 
d="M185 449h-97l59 216h112z" />
    <glyph glyph-name="parenleft" unicode="(" horiz-adv-x="262" 
d="M225 -121l-85 -65c-79 136 -94 340 -78 482c15 143 76 348 183 481l72 -64c-87 -145 -127 -310 -139 -417c-12 -112 -18 -268 47 -417z" />
    <glyph glyph-name="parenright" unicode=")" horiz-adv-x="263" 
d="M73 -185l-71 64c93 149 124 305 137 417c11 108 8 272 -47 418l88 64c76 -135 92 -338 76 -482c-17 -143 -76 -346 -183 -481z" />
    <glyph glyph-name="asterisk" unicode="*" horiz-adv-x="428" 
d="M436 523l-115 -34l57 -100l-69 -57l-55 100l-78 -101l-59 58l76 99l-105 35l31 83l104 -41l14 123h87l-14 -123l111 41z" />
    <glyph glyph-name="plus" unicode="+" horiz-adv-x="473" 
d="M55 202l10 91h140l18 159h111l-18 -159h141l-10 -91h-141l-18 -166h-111l18 166h-140z" />
    <glyph glyph-name="comma" unicode="," horiz-adv-x="238" 
d="M67 -86l-30 55c16 10 31 24 38 33c-26 7 -28 28 -24 66c7 57 14 65 74 65c59 0 64 -9 58 -65c-8 -67 -50 -114 -116 -154z" />
    <glyph glyph-name="hyphen" unicode="-" horiz-adv-x="363" 
d="M74 227l11 102h244l-11 -102h-244z" />
    <glyph glyph-name="period" unicode="." horiz-adv-x="238" 
d="M51 66c7 57 13 66 74 66c59 0 66 -7 59 -66c-6 -55 -12 -69 -74 -69c-61 0 -65 13 -59 69z" />
    <glyph glyph-name="slash" unicode="/" horiz-adv-x="384" 
d="M427 664l-302 -772h-116l301 772h117z" />
    <glyph glyph-name="colon" unicode=":" horiz-adv-x="250" 
d="M57 66c6 57 12 66 73 66c60 0 66 -7 60 -66c-6 -55 -13 -69 -75 -69c-61 0 -65 13 -58 69zM89 362c6 56 13 66 74 66c59 0 66 -8 59 -66c-6 -55 -12 -69 -74 -69s-65 13 -59 69z" />
    <glyph glyph-name="semicolon" unicode=";" horiz-adv-x="252" 
d="M91 362c6 56 12 66 74 66c59 0 65 -8 59 -66c-6 -55 -13 -69 -75 -69c-61 0 -64 13 -58 69zM75 -86l-30 55c16 10 31 24 38 33c-26 7 -28 28 -24 66c7 57 14 65 74 65s64 -9 58 -65c-7 -67 -50 -114 -116 -154z" />
    <glyph glyph-name="less" unicode="&#x3c;" horiz-adv-x="517" 
d="M445 32l-391 180l7 65l432 180l-12 -104l-277 -108l252 -109z" />
    <glyph glyph-name="equal" unicode="=" horiz-adv-x="499" 
d="M86 276l11 93h368l-11 -93h-368zM70 123l10 94h368l-10 -94h-368z" />
    <glyph glyph-name="greater" unicode="&#x3e;" horiz-adv-x="517" 
d="M490 211l-432 -180l11 105l277 109l-253 107l11 105l393 -181z" />
    <glyph glyph-name="question" unicode="?" horiz-adv-x="427" 
d="M226 679c122 0 234 -7 217 -164l-3 -24c-13 -117 -70 -171 -212 -171l-14 -123h-112l23 213l112 1c45 0 74 20 82 81l1 16c9 87 -31 85 -100 85h-120l10 86h116zM81 57c6 50 13 60 66 60c50 0 57 -7 51 -60c-5 -48 -13 -60 -65 -60c-53 0 -57 11 -52 60z" />
    <glyph glyph-name="at" unicode="@" horiz-adv-x="652" 
d="M78 289c26 239 71 355 322 355c214 0 260 -85 238 -286c-22 -190 -73 -245 -160 -245c-33 0 -67 17 -87 49c-26 -12 -55 -23 -84 -23c-77 0 -97 46 -85 154c14 125 42 200 153 200c27 0 57 2 122 -24c-13 -93 -26 -185 -39 -277c5 -8 13 -12 21 -12c50 0 57 90 66 154
c18 166 10 228 -150 228c-177 0 -200 -70 -223 -284c-16 -143 30 -192 159 -192h91c-3 -28 -7 -55 -10 -83h-110c-179 0 -246 80 -224 286zM367 417c-38 0 -50 -33 -59 -113c-7 -67 -3 -89 15 -89c22 0 37 3 60 12c10 61 19 126 28 187c-20 3 -35 3 -44 3z" />
    <glyph glyph-name="braceleft" unicode="{" horiz-adv-x="310" 
d="M189 13c-5 -45 -4 -59 40 -59h46l-10 -88h-46c-139 0 -157 57 -147 147l19 173c7 61 -6 85 -49 121l7 54c50 37 68 61 75 123l19 173c10 92 41 145 179 145h47l-10 -87h-47c-43 0 -47 -16 -52 -58l-19 -173c-7 -66 -27 -109 -75 -150c38 -39 49 -84 42 -148z" />
    <glyph glyph-name="bar" unicode="|" horiz-adv-x="208" 
d="M232 769l-106 -964h-95l107 964h94z" />
    <glyph glyph-name="braceright" unicode="}" horiz-adv-x="310" 
d="M110 13l19 173c7 65 28 110 74 149c-37 40 -48 84 -41 149l19 173c4 42 3 58 -41 58h-46l9 87h47c140 0 158 -53 148 -145l-19 -173c-7 -63 5 -86 48 -124l-7 -52c-49 -37 -67 -60 -74 -122l-19 -173c-10 -90 -41 -147 -180 -147h-47l10 88h47c43 0 48 14 53 59z" />
    <glyph glyph-name="asciitilde" unicode="~" horiz-adv-x="467" 
d="M438 278c-32 -43 -88 -67 -125 -67c-74 0 -93 26 -120 29c-19 0 -40 -9 -83 -48c-9 20 -28 57 -38 76c44 39 82 60 113 60c50 0 89 -28 134 -28c24 0 54 22 81 45z" />
    <glyph glyph-name="quoteleft" unicode="&#x2018;" horiz-adv-x="229" 
d="M210 630l26 -55c-15 -9 -29 -21 -37 -33c25 -6 27 -25 22 -64c-6 -57 -12 -66 -73 -66c-59 0 -64 10 -58 66c7 67 41 107 120 152z" />
    <glyph glyph-name="quoteright" unicode="&#x2019;" horiz-adv-x="222" 
d="M119 418l-28 54c16 10 30 22 39 33c-27 7 -28 26 -25 65c7 56 14 65 74 65c59 0 64 -9 58 -65c-8 -67 -42 -107 -118 -152z" />
    <glyph glyph-name="quotedblleft" unicode="&#x201c;" horiz-adv-x="380" 
d="M209 631l27 -55c-15 -9 -29 -22 -37 -33c25 -7 27 -26 22 -65c-6 -56 -13 -65 -73 -65c-59 0 -64 9 -58 65c8 68 41 107 119 153zM370 631l26 -55c-14 -9 -29 -22 -37 -33c25 -7 27 -26 23 -65c-7 -56 -13 -65 -73 -65s-65 9 -59 65c8 68 42 107 120 153z" />
    <glyph glyph-name="quotedblright" unicode="&#x201d;" horiz-adv-x="372" 
d="M277 414l-27 55c15 9 31 21 37 33c-25 6 -27 25 -22 64c6 57 13 66 73 66c59 0 64 -10 58 -66c-7 -67 -41 -107 -119 -152zM117 414l-27 55c14 9 30 21 37 33c-25 6 -27 25 -23 64c7 57 13 66 73 66s65 -10 59 -66c-7 -67 -42 -107 -119 -152z" />
    <glyph glyph-name="bullet" unicode="&#x2022;" horiz-adv-x="383" 
d="M98 324c8 71 66 129 130 129s110 -58 102 -129c-7 -71 -66 -129 -131 -129c-64 0 -108 58 -101 129z" />
    <glyph glyph-name="endash" unicode="&#x2013;" horiz-adv-x="459" 
d="M74 227l11 106h335l-11 -106h-335z" />
    <glyph glyph-name="emdash" unicode="&#x2014;" horiz-adv-x="583" 
d="M74 227l11 106h467l-12 -106h-466z" />
    <glyph glyph-name="tilde" unicode="&#x2dc;" horiz-adv-x="406" 
d="M304 547c-35 0 -63 36 -95 36c-14 0 -30 -21 -46 -41c-15 13 -32 27 -47 40c24 44 63 79 101 79c35 0 71 -36 90 -36c12 0 27 16 43 37c16 -14 33 -26 50 -40c-22 -41 -55 -75 -96 -75z" />
    <glyph glyph-name="trademark" unicode="&#x2122;" horiz-adv-x="499" 
d="M202 452h-49l19 174h-54l5 45h157l-6 -45h-54zM320 452h-48l24 219h53l32 -107l57 107h52l-24 -219h-47l13 112l-41 -75h-36l-22 76z" />
    <glyph glyph-name="bracketleft" unicode="[" horiz-adv-x="287" 
d="M244 -134h-206l103 936h206l-10 -88h-92l-84 -758h93z" />
    <glyph glyph-name="backslash" unicode="\" horiz-adv-x="385" 
d="M225 -108l-131 771h117l130 -771h-116z" />
    <glyph glyph-name="bracketright" unicode="]" horiz-adv-x="287" 
d="M207 -134h-206l10 90h92l83 758h-92l10 88h206z" />
    <glyph glyph-name="asciicircum" unicode="^" horiz-adv-x="445" 
d="M183 382h-113l170 291h100l105 -291h-111l-56 179z" />
    <glyph glyph-name="underscore" unicode="_" horiz-adv-x="537" 
d="M460 -69h-419l8 67h418z" />
    <glyph glyph-name="grave" unicode="`" horiz-adv-x="316" 
d="M130 720l79 43l70 -176l-77 -42z" />
    <glyph glyph-name="fraction" unicode="&#x2044;" horiz-adv-x="349" 
d="M398 628l-307 -670l-90 47l306 669z" />
    <glyph glyph-name="Euro" unicode="&#x20ac;" horiz-adv-x="585" 
d="M70 361l6 51h70c28 188 77 267 260 267c11 0 111 -4 193 -16l-10 -88c-115 10 -159 13 -172 13c-98 0 -126 -39 -147 -176h225l-5 -51h-227c-3 -17 -5 -36 -7 -55h227l-5 -51h-226c-14 -166 27 -169 125 -169c51 0 102 2 163 4l-9 -77c-62 -17 -128 -22 -195 -22
c-160 0 -224 50 -208 264h-70l6 51h68l7 55h-69z" />
    <glyph glyph-name="florin" unicode="&#x192;" horiz-adv-x="451" 
d="M121 499h67c32 163 68 193 197 193c25 0 53 -1 101 -8l-14 -72h-88c-54 0 -63 -6 -82 -113h107l-16 -80h-106l-98 -464c-24 -113 -83 -146 -144 -146c-6 0 -19 0 -51 5l8 55c46 8 65 37 73 69c7 33 10 65 98 481h-68z" />
    <glyph glyph-name="sterling" unicode="&#xa3;" horiz-adv-x="465" 
d="M245 315l-17 -153c-3 -24 -5 -48 -17 -74h205l-9 -88h-375l9 83c52 3 63 22 72 98l15 134h-52l8 75h52l7 60c16 149 59 212 179 215c48 0 98 -9 150 -23l-8 -76c-43 8 -105 17 -141 17c-46 0 -55 -60 -61 -118l-9 -75h164l-8 -75h-164z" />
    <glyph glyph-name="currency" unicode="&#xa4;" horiz-adv-x="517" 
d="M452 588l60 -79l-67 -67c9 -28 8 -70 3 -109c-3 -39 -12 -82 -27 -112l51 -66l-78 -72l-61 74c-21 -5 -41 -9 -60 -9c-24 0 -47 4 -69 10l-84 -79l-57 79l62 62c-8 27 -8 70 -4 107c5 40 15 86 28 117l-48 64l76 75l62 -76c21 7 40 9 63 9c24 0 46 -2 67 -9zM233 333
c-8 -75 -4 -97 41 -97c44 0 54 22 63 97c9 76 2 98 -42 98s-53 -22 -62 -98z" />
    <glyph glyph-name="quotesinglbase" unicode="&#x201a;" horiz-adv-x="238" 
d="M65 -84l-27 55c15 9 30 21 37 32c-26 7 -27 26 -23 65c6 57 14 65 74 65c58 0 64 -9 58 -65c-8 -67 -42 -107 -119 -152z" />
    <glyph glyph-name="quotedblbase" unicode="&#x201e;" horiz-adv-x="387" 
d="M65 -84l-27 55c15 9 30 21 37 32c-26 7 -27 26 -23 65c6 57 14 65 74 65c58 0 64 -9 58 -65c-8 -67 -42 -107 -119 -152zM225 -84l-27 55c15 9 31 21 37 32c-25 7 -27 26 -23 65c7 57 14 65 74 65c59 0 64 -9 58 -65c-7 -67 -42 -107 -119 -152z" />
    <glyph glyph-name="ellipsis" unicode="&#x2026;" horiz-adv-x="618" 
d="M51 66c7 57 14 67 74 67c59 0 67 -8 60 -67c-6 -54 -14 -68 -75 -68s-65 13 -59 68zM245 66c6 57 12 67 74 67c59 0 66 -8 60 -67c-6 -54 -15 -68 -75 -68c-62 0 -66 13 -59 68zM434 66c6 57 13 67 74 67c59 0 66 -8 60 -67c-6 -54 -14 -68 -76 -68c-60 0 -65 13 -58 68z
" />
    <glyph glyph-name="dagger" unicode="&#x2020;" horiz-adv-x="436" 
d="M79 501h126l17 154h118l-17 -154h127l-11 -95h-127l-44 -406h-118l44 406h-126z" />
    <glyph glyph-name="daggerdbl" unicode="&#x2021;" horiz-adv-x="476" 
d="M99 501h126l17 154h118l-17 -154h127l-11 -95h-127l-17 -158h127l-11 -95h-127l-16 -153h-118l16 153h-126l11 95h126l17 158h-126z" />
    <glyph glyph-name="circumflex" unicode="&#x2c6;" horiz-adv-x="393" 
d="M397 549l-58 -66l-89 89l-115 -87l-37 66l166 132z" />
    <glyph glyph-name="perthousand" unicode="&#x2030;" horiz-adv-x="910" 
d="M480 -2c-87 0 -117 18 -101 159c15 142 41 160 140 160c82 0 107 -31 93 -160c-14 -118 -37 -159 -132 -159zM506 249c-31 0 -34 -14 -43 -91l-1 -18c-7 -58 -8 -72 26 -72c27 3 31 1 41 90c8 77 6 91 -23 91zM756 -2c-86 0 -117 18 -101 159c15 142 42 160 141 160
c81 0 107 -31 92 -160c-13 -118 -37 -159 -132 -159zM782 249c-31 0 -34 -14 -42 -91l-2 -18c-6 -58 -8 -72 25 -72c28 3 33 1 42 90c9 77 6 91 -23 91zM192 354c-86 0 -117 18 -101 160c15 142 42 159 140 159c83 0 107 -30 94 -159c-14 -118 -38 -160 -133 -160zM218 605
c-31 0 -34 -14 -42 -91l-2 -18c-7 -58 -8 -71 26 -71c27 2 32 0 42 89c8 77 5 91 -24 91zM598 667l-421 -667h-83l420 667h84z" />
    <glyph glyph-name="yen.001" horiz-adv-x="505" 
d="M198 284l-137 386h119l94 -276l158 276h119l-222 -386h108l-10 -84h-344l10 84h105zM82 170h345l-9 -83h-118l-13 -87h-114l12 87h-112z" />
    <glyph glyph-name="yen" unicode="&#xa5;" horiz-adv-x="537" 
d="M234 284l-137 386h119l94 -276l158 276h119l-222 -386h108l-10 -84h-344l10 84h105zM118 170h345l-9 -83h-118l-13 -87h-114l12 87h-112z" />
    <glyph glyph-name="brokenbar" unicode="&#xa6;" horiz-adv-x="220" 
d="M243 769l-47 -422h-103l46 422h104zM137 -195h-104l46 423h104z" />
    <glyph glyph-name="section" unicode="&#xa7;" horiz-adv-x="477" 
d="M246 534c-8 -69 226 -76 208 -241c-8 -71 -48 -113 -104 -131c29 -27 49 -64 42 -115c-10 -97 -82 -140 -169 -140c-91 0 -171 11 -171 11l10 88s77 -10 153 -10c33 0 54 10 58 42c9 81 -225 75 -206 240c7 72 48 115 104 132c-30 26 -50 61 -43 114
c11 98 81 141 168 141c92 0 172 -11 172 -11l-10 -89s-90 10 -168 10c-27 0 -41 -13 -44 -41zM184 288c-1 -18 12 -32 33 -45c20 -1 39 -1 59 -1c34 0 54 10 58 42c2 17 -7 30 -22 42c-27 1 -55 3 -83 3c-27 0 -42 -13 -45 -41z" />
    <glyph glyph-name="dieresis" unicode="&#xa8;" horiz-adv-x="388" 
d="M121 611c6 50 12 59 63 59c48 0 55 -8 50 -59c-5 -45 -13 -57 -63 -57s-55 11 -50 57zM284 611c6 50 11 59 62 59c50 0 56 -8 51 -59c-6 -45 -11 -57 -64 -57c-50 0 -54 11 -49 57z" />
    <glyph glyph-name="copyright" unicode="&#xa9;" horiz-adv-x="705" 
d="M73 327c21 188 161 339 349 339c189 0 298 -151 277 -339c-20 -185 -163 -336 -352 -336c-188 0 -295 151 -274 336zM152 327c-16 -145 65 -263 203 -263c141 0 250 118 266 263c16 147 -67 265 -207 265c-139 0 -246 -118 -262 -265zM335 310c-10 -90 9 -99 62 -99
c24 0 66 3 94 6l-5 -54c-35 -8 -87 -15 -121 -15c-90 0 -128 17 -112 164c17 153 34 197 149 197c6 0 75 -3 118 -12l-7 -58c-69 6 -100 7 -108 7c-55 0 -59 -25 -70 -136z" />
    <glyph glyph-name="ordfeminine" unicode="&#xaa;" horiz-adv-x="324" 
d="M327 593l-25 -220h-69l-3 22c-19 -13 -45 -28 -71 -28c-64 0 -80 48 -74 102c8 66 45 83 97 83c7 0 13 -1 20 -1l45 -3l2 26c3 24 2 44 -22 44c-29 0 -69 -7 -97 -11l-1 62c47 10 76 13 110 13c66 0 96 -17 88 -89zM233 454l5 38c-56 0 -72 -1 -74 -24
c-2 -19 1 -33 13 -33c15 0 42 14 56 19z" />
    <glyph glyph-name="guillemotleft" unicode="&#xab;" horiz-adv-x="467" 
d="M57 251l152 217l78 -61l-109 -156l75 -155l-92 -60zM247 251l153 215l79 -59l-110 -156l76 -154l-92 -60z" />
    <glyph glyph-name="logicalnot" unicode="&#xac;" horiz-adv-x="533" 
d="M373 196h-295l10 92h399l-27 -244h-105z" />
    <glyph glyph-name="minus" unicode="&#x2212;" horiz-adv-x="452" 
d="M78 200l11 97h319l-11 -97h-319z" />
    <glyph glyph-name="registered" unicode="&#xae;" horiz-adv-x="439" 
d="M94 493c11 105 89 190 195 190s166 -85 155 -190c-12 -104 -90 -189 -197 -189c-106 0 -165 85 -153 189zM133 492c-9 -83 41 -150 118 -150c78 0 144 67 153 150c9 84 -40 152 -119 152c-77 0 -143 -68 -152 -152zM236 399h-38l21 185h69c33 0 58 -11 54 -48l-2 -21
c-2 -14 -10 -27 -21 -36l5 -80h-40l-2 69h-38zM254 555l-7 -58h30c13 0 24 3 26 18l2 21c1 17 -10 19 -22 19h-29z" />
    <glyph glyph-name="macron" unicode="&#xaf;" horiz-adv-x="360" 
d="M112 561l10 84h240l-10 -84h-240z" />
    <glyph glyph-name="degree" unicode="&#xb0;" horiz-adv-x="321" 
d="M328 528c-8 -72 -58 -129 -132 -129c-75 0 -113 57 -105 129c8 71 60 129 134 129s112 -58 103 -129zM265 528c4 36 -11 65 -47 65c-37 0 -57 -29 -61 -65s10 -66 46 -66s58 30 62 66z" />
    <glyph glyph-name="plusminus" unicode="&#xb1;" horiz-adv-x="517" 
d="M79 293l10 89h146l18 161h112l-18 -161h144l-10 -89h-144l-18 -165h-112l18 165h-146zM459 89l-9 -89h-402l9 89h402z" />
    <glyph glyph-name="twosuperior" unicode="&#xb2;" horiz-adv-x="375" 
d="M373 537c-6 -63 -94 -140 -171 -229h142l-7 -69h-259l8 59c119 140 183 196 188 240c3 28 -10 39 -41 39l-124 -1l7 66l113 1c89 0 155 -13 144 -106z" />
    <glyph glyph-name="threesuperior" unicode="&#xb3;" horiz-adv-x="343" 
d="M339 538l-3 -31c-5 -41 -25 -60 -54 -78c28 -17 39 -52 36 -81l-3 -24c-9 -84 -62 -107 -167 -107l-78 1l6 53c22 0 30 -1 48 -1c64 0 102 7 107 56l2 22c5 40 -13 52 -45 52h-76l5 56h76c32 0 54 13 58 52l3 26c5 47 -32 51 -88 51l-55 -1l6 54l80 2
c81 2 152 -5 142 -102z" />
    <glyph glyph-name="acute" unicode="&#xb4;" horiz-adv-x="307" 
d="M245 768l70 -43l-113 -175l-66 42z" />
    <glyph glyph-name="mu" unicode="&#xb5;" horiz-adv-x="496" 
d="M35 -186l76 684h116c-34 -317 -39 -355 -42 -382c-1 -18 8 -27 26 -27c17 0 57 5 116 27l42 383h117l-56 -500h-104c0 6 0 18 -1 26c-34 -14 -69 -24 -106 -28c-16 -3 -32 -3 -48 -3l-20 -180h-116z" />
    <glyph glyph-name="guilsinglleft" unicode="&#x2039;" horiz-adv-x="290" 
d="M57 251l152 215l79 -59l-110 -156l76 -154l-93 -60z" />
    <glyph glyph-name="guilsinglright" unicode="&#x203a;" horiz-adv-x="290" 
d="M173 466l104 -215l-152 -214l-79 60l109 154l-75 156z" />
    <glyph glyph-name="OE" unicode="&#x152;" horiz-adv-x="811" 
d="M280 0c-109 3 -204 15 -207 174c-1 40 3 96 10 162c26 237 64 332 271 332h472l-11 -95h-271l-20 -185h247l-11 -97h-247l-22 -198h271l-10 -93h-472zM201 128c14 -35 59 -35 90 -35h82l53 481h-82c-83 0 -115 -16 -139 -238c-12 -114 -15 -178 -4 -208z" />
    <glyph glyph-name="oe" unicode="&#x153;" horiz-adv-x="777" 
d="M236 -9c-170 0 -188 59 -167 259c23 205 57 259 224 259c65 0 108 -9 135 -30c32 23 76 33 142 33c132 0 175 -39 175 -151v-19c0 -19 -1 -122 -143 -124l-144 -2c0 -6 -1 -11 -2 -16c-2 -20 -2 -39 -2 -53c0 -74 37 -76 81 -76c18 0 80 2 155 12l-6 -72
c-64 -13 -127 -20 -184 -20c-56 0 -95 9 -120 32c-33 -23 -78 -32 -144 -32zM246 75c75 0 85 30 101 175c17 150 12 178 -63 178s-84 -32 -100 -178c-17 -145 -14 -175 62 -175zM564 434c-75 0 -83 -39 -97 -138h141c29 0 30 34 30 46v12c0 65 -20 80 -74 80z" />
    <glyph glyph-name="cent" unicode="&#xa2;" horiz-adv-x="481" 
d="M193 -9l9 75c-99 8 -141 51 -120 236c22 203 47 273 176 283l9 77h104l-9 -79c34 -3 75 -9 103 -14l-9 -85c-100 8 -146 11 -155 11c-80 0 -85 -34 -103 -196c-14 -127 13 -144 92 -144c37 0 88 5 136 8l-9 -76c-32 -8 -76 -15 -112 -19l-9 -77h-103z" />
    <glyph glyph-name="guillemotright" unicode="&#xbb;" horiz-adv-x="468" 
d="M364 469l104 -217l-152 -215l-78 60l108 155l-73 156zM173 467l104 -215l-152 -214l-78 60l108 154l-74 156z" />
    <glyph glyph-name="paragraph" unicode="&#xb6;" horiz-adv-x="544" 
d="M76 472c19 175 40 216 202 216h264l-97 -878h-81l87 785h-30l-87 -785h-97l55 495h-40c-149 0 -194 3 -176 167z" />
    <glyph glyph-name="periodcentered" unicode="&#xb7;" horiz-adv-x="249" 
d="M84 312c6 57 14 67 74 67c59 0 66 -8 60 -67c-7 -54 -15 -68 -75 -68s-66 13 -59 68z" />
    <glyph glyph-name="cedilla" unicode="&#xb8;" horiz-adv-x="318" 
d="M216 0l-18 -68c48 -3 60 -28 57 -61c-11 -72 -39 -93 -91 -93c-17 0 -43 3 -78 9c4 17 9 35 14 52c18 0 36 -3 54 -3c20 0 21 4 23 24c1 7 2 17 -14 17h-3c-16 1 -33 1 -51 2l30 121h77z" />
    <glyph glyph-name="onesuperior" unicode="&#xb9;" horiz-adv-x="252" 
d="M85 574l5 74h162l-47 -421h-89l39 347h-70z" />
    <glyph glyph-name="ordmasculine" unicode="&#xba;" horiz-adv-x="363" 
d="M216 365c-86 0 -117 18 -102 159c16 142 43 160 142 160c81 0 107 -31 92 -160c-13 -118 -37 -159 -132 -159zM241 616c-30 0 -33 -15 -41 -91l-2 -18c-6 -58 -8 -72 25 -72c28 2 33 1 42 90c9 76 5 91 -24 91z" />
    <glyph glyph-name="onequarter" unicode="&#xbc;" horiz-adv-x="466" 
d="M361 -51l-8 -73h-51l-13 -124h-76l14 124h-173l6 56l169 243h107l-26 -226h51zM162 -51h73l14 129zM59 306h404l-9 -79h-404zM209 704l5 74h162l-47 -421h-89l39 347h-70z" />
    <glyph glyph-name="onehalf" unicode="&#xbd;" horiz-adv-x="463" 
d="M56 302l405 1l-9 -79h-405zM195 703l6 74h162l-47 -421h-89l38 347h-70zM374 58c-7 -63 -95 -148 -171 -237h142l-8 -69h-259l8 59c119 140 183 204 188 248c3 28 -9 39 -40 39l-125 -1l8 66l113 1c89 0 154 -13 144 -106z" />
    <glyph glyph-name="threequarters" unicode="&#xbe;" horiz-adv-x="463" 
d="M359 -49l-7 -73h-51l-14 -124h-76l15 124h-173l5 56l170 243h106l-25 -226h50zM160 -49h73l14 129zM58 308h404l-8 -78l-405 -1zM421 674l-3 -31c-5 -41 -25 -60 -54 -78c28 -17 39 -52 36 -81l-3 -24c-9 -84 -62 -107 -168 -107l-77 1l6 53c22 0 30 -1 48 -1
c64 0 102 7 107 56l2 22c4 40 -14 52 -45 52h-77l6 56h76c32 0 53 13 58 52l3 26c5 47 -32 51 -88 51l-55 -1l6 54l80 2c81 2 152 -5 142 -102z" />
    <glyph glyph-name="questiondown" unicode="&#xbf;" horiz-adv-x="419" 
d="M237 -193c-123 0 -233 7 -216 164l2 23c13 120 70 173 212 173l13 123h112l-23 -213l-111 -1c-45 -1 -76 -20 -82 -82l-2 -15c-10 -88 31 -85 98 -85h122l-9 -87h-116zM381 444c-6 -50 -11 -60 -64 -60c-51 0 -58 8 -52 60c5 48 13 61 65 61c53 0 56 -13 51 -61z" />
    <glyph glyph-name="exclamdown" unicode="&#xa1;" horiz-adv-x="225" 
d="M29 -199l60 546h115l-60 -546h-115zM102 463c5 48 12 60 65 60s57 -13 52 -60c-6 -53 -15 -59 -65 -59c-53 0 -58 9 -52 59z" />
    <glyph glyph-name="AE" unicode="&#xc6;" horiz-adv-x="767" 
d="M120 0h-122l261 667h522l-10 -94h-333l34 -188h256l-11 -93h-229l35 -196h201l-11 -97l-291 1l-30 171h-208zM328 553l-108 -287h156z" />
    <glyph glyph-name="ae" unicode="&#xe6;" horiz-adv-x="738" 
d="M712 361v-19c0 -19 -1 -122 -143 -124l-145 -2c-3 -27 -4 -51 -4 -69c0 -74 38 -76 82 -76c17 0 79 2 155 12l-6 -72c-64 -13 -127 -20 -184 -20c-76 0 -120 17 -141 59c-89 -47 -132 -59 -162 -59c-99 0 -119 82 -119 171c0 32 1 64 6 120c16 158 65 226 172 226
c32 0 109 -7 180 -23c31 19 73 27 133 27c133 0 176 -39 176 -151zM243 428c-62 -2 -71 -110 -77 -164c-5 -43 -9 -112 -2 -155c5 -37 18 -43 51 -34c27 7 55 22 82 34l33 313c-29 4 -62 7 -87 6zM531 434c-76 0 -84 -39 -97 -138h141c29 0 30 34 30 46v12
c0 65 -20 80 -74 80z" />
    <glyph glyph-name="divide" unicode="&#xf7;" horiz-adv-x="490" 
d="M66 198l11 110h388l-11 -110h-388zM316 93c-8 -72 -15 -80 -76 -80c-62 0 -66 11 -59 69c6 61 15 69 75 69c54 0 65 -7 60 -58zM354 436c-8 -72 -15 -80 -76 -80c-62 0 -66 12 -59 70c6 61 15 69 74 69c54 0 66 -7 61 -59z" />
    <glyph glyph-name="multiply" unicode="&#xd7;" horiz-adv-x="498" 
d="M421 464l60 -74l-146 -146l114 -144l-76 -75l-114 143l-146 -143l-59 75l145 144l-113 146l76 74l114 -144z" />
    <glyph glyph-name="afii10023" unicode="&#x401;" horiz-adv-x="514" 
d="M454 0h-390l74 668h389l-10 -96h-271l-21 -184h248l-10 -97h-249l-21 -196h270zM206 788c6 51 12 58 62 58c51 0 59 -6 52 -58c-4 -46 -11 -59 -64 -59c-51 0 -55 12 -50 59zM372 788c6 51 10 58 62 58c50 0 57 -6 51 -58c-4 -46 -13 -59 -64 -59s-55 12 -49 59z" />
    <glyph glyph-name="afii10051" unicode="&#x402;" horiz-adv-x="593" 
d="M312 0h-120l63 573h-178l10 94h474l-10 -94h-176l-17 -154c33 7 63 13 93 13c102 0 132 -52 115 -207v-2c-19 -170 -67 -234 -158 -234c-21 0 -32 4 -59 12c3 28 6 56 10 84c10 -2 25 -2 34 -2c33 2 43 21 56 139c7 65 14 115 -27 115c-24 0 -48 -1 -73 -2z" />
    <glyph glyph-name="afii10052" unicode="&#x403;" horiz-adv-x="469" 
d="M138 670h378l-11 -95h-257l-63 -574h-121zM288 726l-38 77l169 115l40 -82z" />
    <glyph glyph-name="afii10053" unicode="&#x404;" horiz-adv-x="530" 
d="M483 106l-8 -83c-74 -20 -148 -32 -211 -32c-167 0 -211 73 -180 345c30 280 103 343 265 343c51 0 133 -8 201 -26l-18 -86c-79 15 -150 21 -195 21c-73 0 -105 -38 -127 -201h259l-10 -92h-259c-18 -178 -1 -213 77 -213c30 0 138 11 206 24z" />
    <glyph glyph-name="afii10054" unicode="&#x405;" 
d="M208 516c-14 -125 290 -127 266 -344c-14 -127 -100 -182 -204 -182c-86 0 -144 5 -205 10l10 95s119 -11 199 -11c48 0 72 23 78 77c15 134 -288 133 -266 337c14 128 97 182 203 182c109 0 164 -5 206 -9l-11 -97s-122 13 -199 13c-46 0 -72 -22 -77 -71z" />
    <glyph glyph-name="uni0406" unicode="&#x406;" horiz-adv-x="254" 
d="M256 667l-72 -667h-120l73 667h119z" />
    <glyph glyph-name="afii10056" unicode="&#x407;" horiz-adv-x="252" 
d="M254 667l-73 -667h-119l73 667h119zM72 784c5 50 11 59 61 59c51 0 58 -8 52 -59c-5 -46 -12 -59 -64 -59c-51 0 -54 12 -49 59zM237 784c5 50 10 59 62 59c49 0 56 -8 51 -59c-5 -46 -12 -59 -64 -59s-55 12 -49 59z" />
    <glyph glyph-name="afii10057" unicode="&#x408;" horiz-adv-x="302" 
d="M319 670l-59 -536c-13 -119 -66 -153 -175 -144l-72 4l9 81c64 4 116 3 122 56l59 539h116z" />
    <glyph glyph-name="afii10058" unicode="&#x409;" horiz-adv-x="839" 
d="M90 124l59 543h373l-28 -252c120 0 146 -1 171 -3c87 -7 160 -51 148 -166l-9 -78c-15 -133 -110 -168 -227 -168h-248l62 570h-135l-46 -430c-14 -120 -67 -149 -136 -149c-7 0 -13 0 -48 6l7 64c51 8 53 33 57 63zM484 325l-26 -237h124c50 0 98 10 106 81l9 77
c7 70 -38 79 -89 79h-124z" />
    <glyph glyph-name="afii10059" unicode="&#x40a;" horiz-adv-x="876" 
d="M259 668l-29 -254h180l28 253h120l-28 -253h90c149 0 240 -24 230 -168l-9 -78c-15 -133 -111 -168 -227 -168h-249l35 322h-180l-35 -322h-121l74 668h121zM520 325l-26 -237h125c49 0 97 10 105 81l9 77c7 70 -37 79 -88 79h-125z" />
    <glyph glyph-name="afii10060" unicode="&#x40b;" horiz-adv-x="623" 
d="M311 0h-120l63 573h-177l10 94h474l-10 -94h-177l-19 -172c40 12 83 28 127 28c87 0 123 -41 114 -127l-34 -302h-117l35 311c1 18 -5 27 -21 27c-23 0 -68 -8 -113 -24z" />
    <glyph glyph-name="afii10061" unicode="&#x40c;" horiz-adv-x="548" 
d="M183 0h-119l74 668h118l-31 -284h59l183 284h130l-212 -323l147 -345h-129l-127 293h-62zM341 728l-35 78l170 114l39 -82z" />
    <glyph glyph-name="afii10062" unicode="&#x40e;" horiz-adv-x="463" 
d="M451 793c-25 -27 -87 -68 -143 -68c-54 0 -106 37 -131 68l42 62c27 -25 62 -50 97 -50c32 0 75 25 110 48zM67 7l26 54c28 -8 30 -8 31 -8c35 0 63 84 81 116h-21l-97 500h118l62 -326l132 326h115l-241 -588c-32 -69 -77 -104 -123 -104c-26 0 -55 8 -83 30z" />
    <glyph glyph-name="afii10145" unicode="&#x40f;" horiz-adv-x="613" 
d="M64 0l73 666h120l-63 -573h229l63 573h121l-73 -666h-174l-16 -144h-122l16 144h-174z" />
    <glyph glyph-name="afii10017" unicode="&#x410;" horiz-adv-x="565" 
d="M121 0h-122l261 667h162l120 -667h-119l-30 171h-209zM329 553l-109 -287h157z" />
    <glyph glyph-name="afii10018" unicode="&#x411;" horiz-adv-x="568" 
d="M312 0h-248l73 667h371l-10 -92h-251l-18 -160c145 0 167 -1 192 -4c82 -10 139 -56 127 -165l-9 -78c-14 -133 -112 -168 -227 -168zM220 325l-27 -237h125c48 0 97 10 104 81l9 77c7 70 -38 79 -87 79h-124z" />
    <glyph glyph-name="afii10019" unicode="&#x412;" horiz-adv-x="531" 
d="M238 0h-174l74 668h174c121 0 228 -15 211 -169l-6 -43c-6 -62 -34 -92 -74 -120c38 -26 53 -83 47 -128l-4 -40c-14 -134 -91 -168 -248 -168zM214 289l-22 -203h60c71 0 109 21 116 88l4 35c7 61 -20 80 -64 80h-94zM307 581h-60l-23 -203h94c44 0 74 20 82 80l3 33
c9 85 -30 90 -96 90z" />
    <glyph glyph-name="afii10020" unicode="&#x413;" horiz-adv-x="469" 
d="M137 667h377l-10 -95h-257l-63 -572h-120z" />
    <glyph glyph-name="afii10021" unicode="&#x414;" horiz-adv-x="637" 
d="M214 667h392l-64 -579h65l-25 -226h-117l16 138h-351l-15 -138h-115l23 226h58c81 119 94 215 110 364zM478 579h-155c-14 -127 -17 -151 -20 -176c-11 -106 -24 -192 -98 -315h218z" />
    <glyph glyph-name="afii10022" unicode="&#x415;" horiz-adv-x="514" 
d="M454 0h-390l74 668h389l-10 -96h-271l-21 -184h248l-10 -97h-249l-21 -196h270z" />
    <glyph glyph-name="afii10024" unicode="&#x416;" horiz-adv-x="769" 
d="M442 0h-114l27 252h-51l-166 -252h-124l197 299l-140 368h122l121 -325h50l37 332h115l-37 -332h48l156 327h122l-183 -370l131 -299h-123l-113 252h-48z" />
    <glyph glyph-name="afii10025" unicode="&#x417;" horiz-adv-x="450" 
d="M440 461c-11 -65 -35 -95 -76 -123c36 -27 54 -84 48 -129l-4 -40c-15 -132 -87 -170 -237 -170h-25c-35 0 -72 2 -105 2l9 86c41 0 81 -2 122 -2c74 0 110 22 117 89l3 36c8 61 -18 81 -64 81h-110l10 91h110c45 0 76 20 82 81l5 41c9 80 -38 83 -97 83
c-33 0 -92 -4 -123 -5l10 88c47 1 94 4 141 4c112 0 206 -17 189 -163z" />
    <glyph glyph-name="afii10026" unicode="&#x418;" horiz-adv-x="616" 
d="M206 0h-142l74 668h120l-50 -453l268 453h136l-74 -668h-119l50 448z" />
    <glyph glyph-name="afii10027" unicode="&#x419;" horiz-adv-x="616" 
d="M206 0h-142l74 668h120l-50 -453l268 453h136l-74 -668h-119l50 448zM534 796c-26 -27 -88 -68 -143 -68s-107 37 -132 68l42 62c27 -25 63 -50 98 -50c33 0 75 25 110 48z" />
    <glyph glyph-name="afii10028" unicode="&#x41a;" horiz-adv-x="548" 
d="M183 0h-119l74 668h118l-31 -284h59l183 284h130l-212 -323l147 -345h-129l-127 293h-62z" />
    <glyph glyph-name="afii10029" unicode="&#x41b;" horiz-adv-x="558" 
d="M88 124l60 542h406l-73 -666h-119l62 570h-168l-46 -430c-14 -120 -68 -149 -138 -149c-9 0 -14 0 -46 6l7 64c49 8 52 33 55 63z" />
    <glyph glyph-name="afii10030" unicode="&#x41c;" horiz-adv-x="746" 
d="M181 0h-117l74 668h139l116 -384l201 384h143l-74 -668h-115l50 459l-176 -344h-95l-96 344z" />
    <glyph glyph-name="afii10031" unicode="&#x41d;" horiz-adv-x="601" 
d="M522 0h-121l33 295h-217l-33 -295h-120l74 668h120l-31 -281h217l31 281h121z" />
    <glyph glyph-name="afii10032" unicode="&#x41e;" horiz-adv-x="577" 
d="M278 -8c-179 2 -224 62 -193 343c28 258 65 343 269 343c180 0 231 -47 199 -343c-32 -286 -92 -343 -275 -343zM290 80c101 0 119 41 145 255c18 194 12 254 -89 254c-98 0 -117 -37 -140 -254c-27 -238 -7 -255 84 -255z" />
    <glyph glyph-name="afii10033" unicode="&#x41f;" horiz-adv-x="549" 
d="M246 570l-62 -570h-120l73 666h407l-72 -666h-120l62 570h-168z" />
    <glyph glyph-name="afii10034" unicode="&#x420;" horiz-adv-x="565" 
d="M184 0h-120l73 667h247c116 0 206 -35 192 -168l-9 -78c-9 -80 -77 -152 -162 -165c-26 -4 -53 -4 -194 -4zM248 579l-27 -237h125c50 0 97 10 104 79l9 77c7 71 -38 81 -86 81h-125z" />
    <glyph glyph-name="afii10035" unicode="&#x421;" horiz-adv-x="528" 
d="M201 298c-25 -214 27 -214 142 -214c35 0 89 3 138 7l-9 -79c-64 -13 -140 -21 -191 -21c-170 0 -235 33 -205 310c33 293 60 378 275 378c11 0 112 -4 193 -16l-9 -88c-116 10 -160 13 -173 13c-120 0 -133 -45 -161 -290z" />
    <glyph glyph-name="afii10036" unicode="&#x422;" horiz-adv-x="517" 
d="M311 0h-121l63 573h-176l10 94h473l-10 -94h-176z" />
    <glyph glyph-name="afii10037" unicode="&#x423;" horiz-adv-x="463" 
d="M68 9l26 54c28 -8 30 -8 31 -8c35 0 63 84 81 116h-22l-96 500h118l62 -326l132 326h115l-241 -588c-32 -69 -77 -104 -123 -104c-26 0 -55 8 -83 30z" />
    <glyph glyph-name="afii10038" unicode="&#x424;" horiz-adv-x="734" 
d="M299 0l10 93c-192 6 -260 44 -241 245c22 170 71 229 294 239l10 90h120l-10 -89c203 -5 258 -46 236 -240c-19 -170 -66 -231 -289 -244l-10 -94h-120zM182 337c-13 -115 10 -140 137 -145l31 287c-131 -4 -156 -31 -168 -142zM607 338c13 111 -6 137 -135 141l-32 -287
c125 5 155 31 167 146z" />
    <glyph glyph-name="afii10039" unicode="&#x425;" horiz-adv-x="533" 
d="M515 0h-128l-99 228l-147 -228h-129l221 337l-141 330h128l92 -214l141 214h127l-212 -328z" />
    <glyph glyph-name="afii10040" unicode="&#x426;" horiz-adv-x="634" 
d="M64 0l73 666h119l-63 -572h227l63 572h121l-63 -572h63l-22 -197h-115l12 103h-415z" />
    <glyph glyph-name="afii10041" unicode="&#x427;" horiz-adv-x="499" 
d="M112 665h118l-30 -278c-2 -16 6 -23 20 -23s75 5 125 25l30 276h120l-74 -666h-113l31 294c-50 -19 -97 -26 -144 -26c-85 0 -122 43 -113 128z" />
    <glyph glyph-name="afii10042" unicode="&#x428;" horiz-adv-x="839" 
d="M420 667h120l-63 -574h165l63 574h120l-73 -667h-688l73 667h120l-63 -574h163z" />
    <glyph glyph-name="afii10043" unicode="&#x429;" horiz-adv-x="862" 
d="M421 667h122l-63 -573h162l63 573h120l-63 -573h64l-21 -197h-117l12 103h-636l73 667h121l-63 -573h163z" />
    <glyph glyph-name="afii10044" unicode="&#x42a;" horiz-adv-x="603" 
d="M89 667h204l-28 -252c141 0 164 -1 190 -4c85 -10 139 -72 129 -165l-9 -78c-14 -133 -111 -168 -227 -168h-248l63 573h-84zM256 325l-27 -237h125c48 0 98 10 105 81l9 77c7 70 -39 79 -88 79h-124z" />
    <glyph glyph-name="afii10045" unicode="&#x42b;" horiz-adv-x="740" 
d="M760 667l-72 -667h-117l72 667h117zM137 667h119l-27 -252c67 0 105 1 133 1c120 0 200 -46 186 -170l-9 -78c-14 -133 -111 -168 -228 -168h-247zM219 325l-26 -237h125c48 0 97 10 104 81l9 77c7 70 -38 79 -87 79h-125z" />
    <glyph glyph-name="afii10046" unicode="&#x42c;" horiz-adv-x="566" 
d="M137 667h120l-28 -252c65 0 104 1 133 1c120 0 200 -47 187 -170l-9 -78c-14 -133 -112 -168 -229 -168h-247zM219 325l-26 -237h124c48 0 97 10 104 81l9 77c7 70 -37 79 -87 79h-124z" />
    <glyph glyph-name="afii10092" unicode="&#x44a;" horiz-adv-x="484" 
d="M76 498h176l-20 -179h21c128 0 218 -1 202 -133l-5 -54c-12 -104 -87 -132 -177 -132h-193l45 408h-58zM222 230l-16 -144h73c26 0 54 5 58 46l6 54c4 41 -20 44 -48 44h-73z" />
    <glyph glyph-name="afii10093" unicode="&#x44b;" horiz-adv-x="616" 
d="M626 501l-55 -501h-114l55 501h114zM111 501h115l-20 -180c150 0 240 -4 226 -134l-5 -55c-12 -104 -90 -132 -180 -132h-191zM196 232l-16 -146h74c27 0 55 5 59 47l6 54c4 40 -20 45 -49 45h-74z" />
    <glyph glyph-name="afii10047" unicode="&#x42d;" horiz-adv-x="529" 
d="M44 23l12 85c65 -14 171 -26 200 -26c77 0 102 39 124 213h-259l9 92h260c14 166 -8 201 -82 201c-45 0 -120 -6 -199 -21v86c71 18 156 26 205 26c163 0 221 -63 191 -343c-31 -272 -91 -345 -258 -345c-62 0 -134 12 -203 32z" />
    <glyph glyph-name="afii10048" unicode="&#x42e;" horiz-adv-x="762" 
d="M256 667l-30 -281h49c30 219 75 292 265 292c180 0 231 -47 199 -343c-33 -287 -92 -343 -276 -343c-167 2 -222 56 -198 300h-50l-31 -292h-120l73 667h119zM474 80c103 0 121 41 146 255c18 194 14 254 -89 254c-97 0 -116 -37 -140 -254c-27 -238 -7 -255 83 -255z
" />
    <glyph glyph-name="afii10049" unicode="&#x42f;" horiz-adv-x="581" 
d="M502 0h-120l27 252h-108c-21 0 -35 0 -51 1l-68 -253h-124c25 90 54 199 79 289c-38 37 -53 78 -48 132l9 78c14 133 112 168 227 168h250zM418 342l27 237h-126c-46 0 -97 -10 -104 -81l-9 -77c-7 -69 38 -79 86 -79h126z" />
    <glyph glyph-name="afii10065" unicode="&#x430;" horiz-adv-x="471" 
d="M58 282c17 158 65 226 172 226c38 0 141 -10 221 -33l-50 -478h-85l-9 41c-45 -29 -99 -47 -136 -47c-99 0 -119 82 -119 171c0 32 1 64 6 120zM250 428c-62 -2 -71 -110 -77 -164c-5 -43 -8 -112 -2 -155c5 -37 18 -43 51 -34c27 7 55 22 82 34l33 313
c-28 4 -62 7 -87 6z" />
    <glyph glyph-name="afii10066" unicode="&#x431;" horiz-adv-x="486" 
d="M580 727c-4 -29 -9 -60 -11 -90c-70 -10 -249 12 -329 -137c14 6 30 9 47 9c171 0 186 -84 168 -246c-21 -197 -56 -270 -225 -270c-157 0 -175 79 -154 270c54 487 318 439 504 464zM279 422c-62 0 -71 -41 -84 -159c-14 -131 -16 -184 46 -184c70 0 82 56 96 184
c12 109 20 159 -58 159z" />
    <glyph glyph-name="afii10067" unicode="&#x432;" horiz-adv-x="434" 
d="M195 0h-139l55 499h139c92 0 176 -12 163 -132l-3 -19c-5 -50 -17 -72 -48 -97c27 -30 30 -69 27 -102l-2 -17c-12 -105 -68 -132 -192 -132zM194 210l-13 -121h29c43 0 69 4 74 52l3 24c4 32 -9 45 -31 45h-62zM244 413h-27l-14 -121h62c22 0 37 14 41 45l3 24
c5 51 -22 52 -65 52z" />
    <glyph glyph-name="afii10068" unicode="&#x433;" horiz-adv-x="385" 
d="M111 499h299l-10 -92h-181l-44 -407h-119z" />
    <glyph glyph-name="afii10069" unicode="&#x434;" horiz-adv-x="506" 
d="M162 498h308l-46 -412h47l-20 -183h-112l11 97h-221l-11 -97h-111l20 183h46c48 73 58 137 68 230zM347 412h-82l-9 -89c-9 -79 -17 -148 -65 -237h120z" />
    <glyph glyph-name="afii10070" unicode="&#x435;" horiz-adv-x="482" 
d="M465 361v-19c0 -19 -1 -122 -143 -124l-145 -2c-2 -27 -3 -51 -3 -69c0 -74 37 -76 82 -76c17 0 79 2 154 12l-6 -72c-64 -13 -127 -20 -184 -20c-118 0 -158 42 -158 154c0 29 3 64 7 106c23 201 54 261 221 261c132 0 175 -39 175 -151zM284 434
c-75 0 -83 -39 -97 -138h141c29 0 30 34 30 46v12c0 65 -20 80 -74 80z" />
    <glyph glyph-name="afii10072" unicode="&#x436;" horiz-adv-x="719" 
d="M411 0h-114l26 194h-39l-161 -194h-122l191 230l-117 271h120l99 -235h39l34 235h114l-34 -235h34l145 235h121l-172 -271l125 -228h-122l-108 192h-33z" />
    <glyph glyph-name="afii10073" unicode="&#x437;" horiz-adv-x="374" 
d="M354 370l-4 -35c-8 -47 -16 -65 -46 -86c20 -23 30 -61 26 -91l-2 -27c-12 -104 -69 -132 -189 -132c-39 0 -53 1 -100 1l8 81h87c50 0 76 9 80 53l3 25c4 42 -15 47 -44 47h-79l9 85h79c29 0 50 4 55 45l2 30c6 47 -17 50 -53 50l-102 -1l9 80c34 0 65 2 97 2
c93 0 177 -4 164 -127z" />
    <glyph glyph-name="afii10074" unicode="&#x438;" horiz-adv-x="485" 
d="M183 0h-127l55 499h114l-29 -270l160 270h123l-55 -499h-114l28 266z" />
    <glyph glyph-name="afii10075" unicode="&#x439;" horiz-adv-x="485" 
d="M446 619c-27 -27 -89 -67 -144 -67s-105 37 -130 67c13 21 28 42 41 63c27 -25 63 -50 97 -50c35 0 76 24 110 48c9 -20 17 -41 26 -61zM183 0h-127l55 499h115l-30 -270l160 270h123l-55 -499h-114l28 266z" />
    <glyph glyph-name="afii10076" unicode="&#x43a;" horiz-adv-x="499" 
d="M171 0h-115l70 501h115l-33 -234h52l141 231h122l-169 -268l127 -230h-124l-109 193h-51z" />
    <glyph glyph-name="afii10077" unicode="&#x43b;" horiz-adv-x="456" 
d="M76 100l45 401h322l-55 -501h-115l45 409h-91l-34 -296c-10 -97 -54 -120 -113 -120c-10 0 -16 0 -48 7l8 66c33 6 35 19 36 34z" />
    <glyph glyph-name="afii10078" unicode="&#x43c;" horiz-adv-x="567" 
d="M164 0h-108l55 500h118l75 -245l128 245h121l-54 -500h-108l28 257l-91 -171h-87l-49 167z" />
    <glyph glyph-name="afii10079" unicode="&#x43d;" horiz-adv-x="483" 
d="M411 0h-116l23 210h-125l-22 -210h-115l55 499h115l-23 -199h125l22 199h116z" />
    <glyph glyph-name="afii10080" unicode="&#x43e;" horiz-adv-x="485" 
d="M233 -8c-165 0 -184 68 -163 264c19 171 46 253 220 253c171 0 187 -70 167 -253c-21 -198 -55 -264 -224 -264zM242 79c72 0 83 40 98 177c15 131 15 168 -59 168c-69 0 -79 -35 -93 -168c-15 -139 -14 -177 54 -177z" />
    <glyph glyph-name="afii10081" unicode="&#x43f;" horiz-adv-x="445" 
d="M216 408l-45 -408h-115l55 500h320l-55 -500h-115l45 408h-90z" />
    <glyph glyph-name="afii10082" unicode="&#x440;" horiz-adv-x="473" 
d="M445 245l-3 -29c-22 -160 -60 -225 -175 -225c-30 0 -55 4 -97 7l-20 -185h-115l76 688h92l6 -34c47 24 87 40 123 40c99 0 133 -77 113 -262zM326 219c15 139 14 190 -23 190c-23 0 -52 -10 -91 -30l-31 -286c25 -5 55 -7 76 -7h2c49 0 60 73 67 133z" />
    <glyph glyph-name="afii10083" unicode="&#x441;" horiz-adv-x="454" 
d="M184 223c-15 -128 13 -142 90 -142c38 0 90 5 138 9l-9 -76c-51 -14 -127 -23 -175 -23c-129 0 -184 25 -161 235c25 220 51 284 214 284c9 0 109 -5 171 -17l-9 -85c-101 9 -146 12 -156 12c-80 0 -85 -36 -103 -197z" />
    <glyph glyph-name="afii10084" unicode="&#x442;" horiz-adv-x="431" 
d="M265 0h-117l45 410h-133l10 90h383l-10 -90h-133z" />
    <glyph glyph-name="afii10085" unicode="&#x443;" horiz-adv-x="471" 
d="M55 -162l25 54c29 -8 31 -8 32 -8c35 0 63 84 81 116h-22l-96 500h118l62 -326l131 326h115l-241 -588c-31 -69 -76 -104 -122 -104c-26 0 -55 8 -83 30z" />
    <glyph glyph-name="afii10086" unicode="&#x444;" horiz-adv-x="599" 
d="M396 28c-13 0 -25 2 -49 2l-24 -219h-112l25 217c-102 0 -189 -22 -163 210l2 18c17 159 60 202 166 202c15 0 26 1 42 -2l22 199h112l-23 -201c10 1 24 4 37 4c112 0 144 -40 126 -202l-2 -18c-21 -191 -82 -210 -159 -210zM217 113c6 0 17 0 26 1l28 252
c-6 1 -12 1 -17 1c-47 0 -57 -36 -65 -113c-14 -128 -9 -141 28 -141zM410 367c-10 0 -14 0 -26 -1l-28 -252c8 -1 16 -1 24 -1c39 0 48 14 63 141c8 74 8 113 -33 113z" />
    <glyph glyph-name="afii10087" unicode="&#x445;" horiz-adv-x="420" 
d="M401 0h-117l-57 142l-88 -142h-120l158 248l-100 251h120l53 -141l83 141h119l-153 -251z" />
    <glyph glyph-name="afii10088" unicode="&#x446;" horiz-adv-x="508" 
d="M56 0l55 500h115l-46 -411c44 0 87 1 131 1l45 410h117l-45 -410h45l-18 -163h-113l8 73h-294z" />
    <glyph glyph-name="afii10089" unicode="&#x447;" horiz-adv-x="410" 
d="M91 500h115l-22 -201c-1 -6 0 -16 10 -16c16 0 42 4 64 11l23 206h114l-55 -500h-110l22 204c-31 -10 -60 -13 -88 -13c-70 0 -104 35 -96 105z" />
    <glyph glyph-name="afii10090" unicode="&#x448;" horiz-adv-x="652" 
d="M312 498h115l-45 -408h88l45 408h114l-55 -498h-518l55 498h114l-45 -408h87z" />
    <glyph glyph-name="afii10091" unicode="&#x449;" horiz-adv-x="671" 
d="M313 499h116l-45 -409h87l45 409h116l-45 -409h44l-18 -163h-113l8 73h-452l55 499h116l-45 -409h86z" />
    <glyph glyph-name="afii10094" unicode="&#x44c;" horiz-adv-x="458" 
d="M111 501h116l-20 -180c76 0 109 0 132 -4c62 -12 102 -58 94 -130l-6 -55c-11 -104 -90 -132 -180 -132h-191zM197 232l-16 -146h74c27 0 54 5 58 47l6 54c4 40 -21 45 -48 45h-74z" />
    <glyph glyph-name="afii10095" unicode="&#x44d;" horiz-adv-x="432" 
d="M41 19l11 84c56 -12 139 -21 159 -21c45 0 58 18 72 129h-187l10 90h187c9 108 -4 121 -47 121c-34 0 -90 -5 -157 -16v84c59 16 127 22 164 22c129 0 175 -48 152 -260c-23 -204 -72 -261 -202 -261c-46 0 -104 11 -162 28z" />
    <glyph glyph-name="afii10096" unicode="&#x44e;" horiz-adv-x="648" 
d="M174 0h-118l55 499h118l-23 -198h41c20 142 58 208 215 208c171 0 188 -70 168 -253c-22 -198 -57 -264 -225 -264c-148 0 -181 61 -168 219h-41zM414 76c74 0 85 42 100 180l2 13c13 124 11 157 -63 157c-70 0 -79 -35 -94 -170c-15 -140 -14 -180 55 -180z" />
    <glyph glyph-name="afii10097" unicode="&#x44f;" horiz-adv-x="466" 
d="M398 0h-116l19 180h-86c-16 -58 -33 -123 -48 -180h-118l58 214c-28 27 -36 55 -31 99l6 55c12 105 86 133 178 133h193zM311 270l16 144h-75c-26 0 -53 -5 -58 -47l-6 -54c-4 -40 21 -44 49 -44z" />
    <glyph glyph-name="afii61352" unicode="&#x2116;" horiz-adv-x="883" 
d="M538 0h-143l-166 450l-49 -450h-116l74 668h135l169 -464l51 464h119zM758 361c-87 0 -118 17 -103 159c16 142 43 160 142 160c82 0 107 -31 92 -160c-12 -118 -36 -159 -131 -159zM783 612c-30 0 -33 -15 -42 -91l-2 -19c-6 -57 -8 -71 25 -71c29 2 33 1 42 90
c9 76 6 91 -23 91zM868 257h-247l8 75h247z" />
    <glyph glyph-name="afii10071" unicode="&#x451;" horiz-adv-x="482" 
d="M158 611c6 50 12 59 62 59c49 0 56 -8 51 -59c-6 -45 -13 -57 -63 -57c-51 0 -55 11 -50 57zM321 611c6 50 12 59 61 59c51 0 57 -8 52 -59c-6 -45 -11 -57 -64 -57c-50 0 -54 11 -49 57zM465 361v-19c0 -19 -1 -122 -143 -124l-145 -2c-2 -27 -3 -51 -3 -69
c0 -74 37 -76 82 -76c17 0 79 2 154 12l-6 -72c-64 -13 -127 -20 -184 -20c-118 0 -158 42 -158 154c0 29 3 64 7 106c23 201 54 261 221 261c132 0 175 -39 175 -151zM284 434c-75 0 -83 -39 -97 -138h141c29 0 30 34 30 46v12c0 65 -20 80 -74 80z" />
    <glyph glyph-name="afii10099" unicode="&#x452;" horiz-adv-x="492" 
d="M69 547l9 81h45l6 53h113l-5 -53h91l-9 -81h-91l-8 -67c45 14 94 27 140 27c84 0 119 -42 109 -126l-48 -427c-13 -121 -62 -146 -131 -146c-6 0 -16 0 -52 5l6 63c48 8 58 33 62 62l48 441c2 24 -1 35 -19 35c-25 0 -79 -7 -124 -26l-43 -388h-114l60 547h-45z" />
    <glyph glyph-name="afii10100" unicode="&#x453;" horiz-adv-x="385" 
d="M111 499h299l-10 -92h-181l-44 -407h-119zM233 552l-36 75l165 114l40 -80z" />
    <glyph glyph-name="afii10101" unicode="&#x454;" horiz-adv-x="433" 
d="M385 101l-3 -82c-63 -17 -122 -28 -170 -28c-131 0 -165 56 -143 260c24 211 80 258 207 258c39 0 105 -6 160 -21l-18 -84c-63 11 -121 16 -153 16c-42 0 -59 -12 -74 -120h186l-10 -90h-186c-9 -110 0 -129 44 -129c21 0 103 8 160 20z" />
    <glyph glyph-name="afii10102" unicode="&#x455;" horiz-adv-x="428" 
d="M189 378c-8 -69 227 -76 208 -241c-11 -97 -82 -140 -169 -140c-91 0 -171 11 -171 11l10 88s77 -10 153 -10c33 0 54 10 57 42c9 81 -225 75 -206 240c11 98 81 141 168 141c92 0 172 -11 172 -11l-10 -89s-90 10 -168 10c-27 0 -41 -13 -44 -41z" />
    <glyph glyph-name="afii10103" unicode="&#x456;" horiz-adv-x="237" 
d="M174 0h-118l55 499h118zM118 619c6 58 13 68 72 68c57 0 64 -6 57 -68c-6 -55 -13 -69 -72 -69s-63 13 -57 69z" />
    <glyph glyph-name="afii10104" unicode="&#x457;" horiz-adv-x="237" 
d="M45 611c5 49 11 59 61 59c49 0 57 -9 51 -59c-5 -45 -13 -58 -64 -58s-53 11 -48 58zM207 611c5 49 12 59 61 59c51 0 57 -9 51 -59c-5 -45 -11 -58 -64 -58c-50 0 -53 11 -48 58zM174 0h-118l55 499h118z" />
    <glyph glyph-name="afii10105" unicode="&#x458;" horiz-adv-x="237" 
d="M-19 -182l7 63c47 8 56 32 60 62l61 557h117l-60 -541c-13 -121 -65 -146 -133 -146c-6 0 -16 0 -52 5zM117 621c6 58 13 68 71 68c57 0 65 -6 59 -68c-7 -55 -16 -69 -74 -69c-59 0 -62 13 -56 69z" />
    <glyph glyph-name="afii10106" unicode="&#x459;" horiz-adv-x="656" 
d="M77 100l44 402h298l-19 -181c45 0 71 1 86 1c84 0 151 -33 140 -134l-6 -56c-12 -104 -89 -132 -180 -132h-193l45 410h-65l-34 -297c-9 -96 -54 -120 -113 -120c-7 0 -13 0 -48 8l8 65c34 6 36 19 37 34zM390 232l-17 -146h74c27 0 55 5 60 47l6 55c4 39 -22 44 -50 44
h-73z" />
    <glyph glyph-name="afii10107" unicode="&#x45a;" horiz-adv-x="676" 
d="M228 500l-20 -180h98l20 179h115l-20 -178c78 0 102 -2 119 -3c64 -6 114 -51 105 -131l-5 -55c-12 -104 -85 -132 -178 -132h-191l25 229h-98l-25 -229h-117l55 500h117zM411 231l-16 -144h73c28 0 55 4 59 45l6 55c4 39 -20 44 -49 44h-73z" />
    <glyph glyph-name="afii10108" unicode="&#x45b;" horiz-adv-x="495" 
d="M69 548l9 81h45l6 52h113l-5 -52h101l-9 -81h-101l-8 -68c45 14 94 27 139 27c85 0 120 -42 110 -126l-42 -381h-115l42 376c2 24 -1 39 -19 39c-25 0 -77 -6 -124 -27l-43 -388h-114l60 548h-45z" />
    <glyph glyph-name="afii10109" unicode="&#x45c;" horiz-adv-x="501" 
d="M309 543l-37 76l166 113l39 -80zM171 0h-115l70 501h115l-33 -234h52l141 231h122l-169 -268l127 -230h-124l-109 193h-51z" />
    <glyph glyph-name="afii10110" unicode="&#x45e;" horiz-adv-x="471" 
d="M445 619c-26 -27 -88 -67 -144 -67c-54 0 -104 37 -129 67l41 63c27 -25 62 -50 97 -50c33 0 76 25 110 48zM55 -162l25 54c29 -8 31 -8 32 -8c35 0 63 84 81 116h-22l-96 500h118l62 -326l131 326h115l-241 -588c-31 -69 -76 -104 -122 -104c-26 0 -55 8 -83 30z" />
    <glyph glyph-name="afii10193" unicode="&#x45f;" horiz-adv-x="492" 
d="M56 0l55 502h116l-45 -412h133l45 412h116l-55 -502h-125l-12 -102h-116l12 102h-124z" />
    <glyph glyph-name="A" unicode="A" horiz-adv-x="562" 
d="M121 0h-122l261 667h162l120 -667h-119l-30 171h-209zM329 553l-109 -287h157z" />
    <glyph glyph-name="Zcaron" unicode="&#x17d;" horiz-adv-x="523" 
d="M477 0h-446l9 84l356 489h-296l11 96h433l-10 -88l-352 -487h305zM461 915l36 -60l-155 -126l-131 123l47 61l95 -79z" />
    <glyph glyph-name="zcaron" unicode="&#x17e;" horiz-adv-x="416" 
d="M40 72l230 340h-189l10 89h327l-9 -74l-229 -337h196l-10 -90h-334zM387 738l37 -60l-156 -126l-131 123l47 61l95 -79z" />
    <glyph glyph-name="Scaron" unicode="&#x160;" 
d="M208 516c-14 -125 290 -127 266 -344c-14 -127 -100 -182 -204 -182c-86 0 -144 5 -205 10l10 95s119 -11 199 -11c48 0 72 23 78 77c15 134 -288 133 -266 337c14 128 97 182 203 182c109 0 164 -5 206 -9l-11 -97s-122 13 -199 13c-46 0 -72 -22 -77 -71zM460 915
l36 -60l-155 -126l-131 123l47 61l95 -79z" />
    <glyph glyph-name="scaron" unicode="&#x161;" horiz-adv-x="428" 
d="M189 378c-8 -69 227 -76 208 -241c-11 -97 -82 -140 -169 -140c-91 0 -171 11 -171 11l10 88s77 -10 153 -10c33 0 54 10 57 42c9 81 -225 75 -206 240c11 98 81 141 168 141c92 0 172 -11 172 -11l-10 -89s-90 10 -168 10c-27 0 -41 -13 -44 -41zM395 739l37 -60
l-156 -126l-130 123l47 61l94 -79z" />
    <glyph glyph-name="Ydieresis" unicode="&#x178;" horiz-adv-x="521" 
d="M310 0h-122l23 212l-143 456h134l85 -315l158 315h134l-246 -456zM204 784c6 50 12 59 62 59c49 0 56 -8 51 -59c-6 -45 -13 -57 -63 -57c-51 0 -55 11 -50 57zM367 784c6 50 11 59 61 59c51 0 57 -8 52 -59c-6 -45 -11 -57 -64 -57c-51 0 -54 11 -49 57z" />
    <glyph glyph-name="Ccedilla" unicode="&#xc7;" horiz-adv-x="525" 
d="M201 298c-21 -187 27 -214 142 -214c35 0 89 3 138 7l-9 -79c-52 -11 -112 -18 -160 -20l-5 -22c47 -3 59 -28 56 -61c-11 -72 -38 -93 -90 -93c-17 0 -44 3 -78 9c4 17 8 35 13 52c18 0 37 -3 55 -3c20 0 21 4 23 24c1 7 2 17 -14 17h-3c-17 1 -34 1 -52 2l19 75
c-136 8 -187 58 -160 309c33 293 60 378 275 378c11 0 112 -4 193 -16l-9 -88c-116 10 -160 13 -173 13c-120 0 -135 -58 -161 -290z" />
    <glyph glyph-name="Egrave" unicode="&#xc8;" horiz-adv-x="514" 
d="M454 0h-390l74 668h389l-10 -96h-271l-21 -184h248l-10 -97h-249l-21 -196h270zM263 902l80 43l69 -176l-75 -42z" />
    <glyph glyph-name="Eacute" unicode="&#xc9;" horiz-adv-x="514" 
d="M454 0h-390l74 668h389l-10 -96h-271l-21 -184h248l-10 -97h-249l-21 -196h270zM399 944l70 -43l-112 -175l-66 42z" />
    <glyph glyph-name="Ecircumflex" unicode="&#xca;" horiz-adv-x="514" 
d="M454 0h-390l74 668h389l-10 -96h-271l-21 -184h248l-10 -97h-249l-21 -196h270zM504 795l-58 -66l-89 89l-115 -87l-37 66l167 132z" />
    <glyph glyph-name="Edieresis" unicode="&#xcb;" horiz-adv-x="514" 
d="M454 0h-390l74 668h389l-10 -96h-271l-21 -184h248l-10 -97h-249l-21 -196h270zM210 784c5 50 11 59 62 59c48 0 56 -8 50 -59c-5 -45 -12 -57 -63 -57c-50 0 -55 11 -49 57zM373 784c5 50 10 59 61 59c50 0 56 -8 51 -59c-5 -45 -11 -57 -64 -57c-50 0 -54 11 -48 57z
" />
    <glyph glyph-name="Igrave" unicode="&#xcc;" horiz-adv-x="259" 
d="M106 902l80 43l70 -176l-76 -42zM256 667l-72 -667h-120l73 667h119z" />
    <glyph glyph-name="Iacute" unicode="&#xcd;" horiz-adv-x="258" 
d="M261 946l69 -43l-111 -175l-67 42zM256 667l-72 -667h-120l73 667h119z" />
    <glyph glyph-name="Icircumflex" unicode="&#xce;" horiz-adv-x="259" 
d="M359 796l-58 -66l-89 89l-115 -87l-37 66l167 132zM256 667l-72 -667h-120l73 667h119z" />
    <glyph glyph-name="Idieresis" unicode="&#xcf;" horiz-adv-x="259" 
d="M72 782c5 50 12 59 62 59c49 0 56 -8 50 -59c-5 -45 -12 -57 -63 -57c-50 0 -54 11 -49 57zM235 782c5 50 11 59 61 59s57 -8 51 -59c-5 -45 -10 -57 -64 -57c-50 0 -54 11 -48 57zM256 667l-72 -667h-120l73 667h119z" />
    <glyph glyph-name="Eth" unicode="&#xd0;" horiz-adv-x="580" 
d="M49 302l10 102h40l30 264l229 1c163 1 222 -56 191 -338c-30 -271 -89 -331 -255 -331h-239l33 302h-39zM352 581h-114l-20 -177h85l-11 -102h-85l-23 -211l116 -1c71 1 108 40 130 241c25 225 5 250 -78 250z" />
    <glyph glyph-name="Ntilde" unicode="&#xd1;" horiz-adv-x="616" 
d="M538 0h-143l-166 450l-49 -450h-116l74 668h136l168 -464l51 464h119zM441 727c-35 0 -63 36 -95 36c-14 0 -30 -21 -46 -41c-16 13 -32 27 -47 40c24 44 63 79 101 79c35 0 71 -36 90 -36c12 0 27 16 43 37c16 -14 33 -26 49 -40c-21 -41 -55 -75 -95 -75z" />
    <glyph glyph-name="Ograve" unicode="&#xd2;" horiz-adv-x="584" 
d="M281 -10c-205 0 -222 72 -192 343c32 279 68 344 268 344c207 0 225 -68 195 -344c-31 -279 -65 -343 -271 -343zM291 79c106 0 120 37 144 254c24 216 19 256 -88 256s-117 -44 -140 -256c-23 -209 -23 -254 84 -254zM291 901l79 43l70 -176l-76 -42z" />
    <glyph glyph-name="Oacute" unicode="&#xd3;" horiz-adv-x="584" 
d="M281 -10c-205 0 -222 72 -192 343c32 279 68 344 268 344c207 0 225 -68 195 -344c-31 -279 -65 -343 -271 -343zM291 79c106 0 120 37 144 254c24 216 19 256 -88 256s-117 -44 -140 -256c-23 -209 -23 -254 84 -254zM409 946l70 -43l-112 -175l-66 42z" />
    <glyph glyph-name="Ocircumflex" unicode="&#xd4;" horiz-adv-x="584" 
d="M281 -10c-205 0 -222 72 -192 343c32 279 68 344 268 344c207 0 225 -68 195 -344c-31 -279 -65 -343 -271 -343zM291 79c106 0 120 37 144 254c24 216 19 256 -88 256s-117 -44 -140 -256c-23 -209 -23 -254 84 -254zM526 794l-57 -66l-89 89l-115 -87l-37 66l165 132z
" />
    <glyph glyph-name="Otilde" unicode="&#xd5;" horiz-adv-x="584" 
d="M410 736c-35 0 -63 36 -95 36c-14 0 -30 -21 -46 -41c-15 13 -31 27 -47 40c25 44 63 79 101 79c35 0 71 -36 90 -36c13 0 27 16 43 37c16 -14 34 -26 50 -40c-22 -41 -55 -75 -96 -75zM281 -10c-205 0 -222 72 -192 343c32 279 68 344 268 344c207 0 225 -68 195 -344
c-31 -279 -65 -343 -271 -343zM291 79c106 0 120 37 144 254c24 216 19 256 -88 256s-117 -44 -140 -256c-23 -209 -23 -254 84 -254z" />
    <glyph glyph-name="Odieresis" unicode="&#xd6;" horiz-adv-x="584" 
d="M281 -10c-205 0 -222 72 -192 343c32 279 68 344 268 344c207 0 225 -68 195 -344c-31 -279 -65 -343 -271 -343zM291 79c106 0 120 37 144 254c24 216 19 256 -88 256s-117 -44 -140 -256c-23 -209 -23 -254 84 -254zM237 784c5 50 11 59 62 59c48 0 56 -8 50 -59
c-5 -45 -12 -57 -63 -57c-50 0 -55 11 -49 57zM400 784c5 50 10 59 61 59c50 0 56 -8 51 -59c-5 -45 -11 -57 -64 -57c-50 0 -54 11 -48 57z" />
    <glyph glyph-name="Oslash" unicode="&#xd8;" horiz-adv-x="584" 
d="M504 722l-23 -61c90 -32 94 -122 71 -328c-31 -279 -65 -343 -271 -343c-23 0 -43 1 -61 3l-18 -43h-62l22 55c-91 32 -95 124 -73 328c32 279 68 344 268 344c25 0 46 -1 65 -3l19 48h63zM207 333c-13 -117 -18 -183 -2 -218l183 471c-11 2 -25 3 -41 3
c-107 0 -117 -44 -140 -256zM291 79c106 0 120 37 144 254c13 116 18 182 1 217l-181 -468c10 -2 21 -3 36 -3z" />
    <glyph glyph-name="Ugrave" unicode="&#xd9;" horiz-adv-x="601" 
d="M292 903l81 43l69 -176l-76 -42zM301 79c108 0 122 37 145 254l38 336h119l-38 -336c-30 -279 -65 -343 -274 -343c-208 0 -225 72 -196 343l38 336h120l-38 -336c-22 -209 -22 -254 86 -254z" />
    <glyph glyph-name="Uacute" unicode="&#xda;" horiz-adv-x="601" 
d="M419 946l70 -43l-112 -175l-67 42zM301 79c108 0 122 37 145 254l38 336h119l-38 -336c-30 -279 -65 -343 -274 -343c-208 0 -225 72 -196 343l38 336h120l-38 -336c-22 -209 -22 -254 86 -254z" />
    <glyph glyph-name="Ucircumflex" unicode="&#xdb;" horiz-adv-x="601" 
d="M535 792l-57 -66l-89 89l-115 -87l-37 66l165 132zM301 79c108 0 122 37 145 254l38 336h119l-38 -336c-30 -279 -65 -343 -274 -343c-208 0 -225 72 -196 343l38 336h120l-38 -336c-22 -209 -22 -254 86 -254z" />
    <glyph glyph-name="Udieresis" unicode="&#xdc;" horiz-adv-x="601" 
d="M248 784c6 50 12 59 62 59c49 0 56 -8 51 -59c-6 -45 -13 -57 -63 -57c-51 0 -55 11 -50 57zM411 784c6 50 11 59 61 59c51 0 57 -8 52 -59c-6 -45 -11 -57 -64 -57c-51 0 -54 11 -49 57zM301 79c108 0 122 37 145 254l38 336h119l-38 -336c-30 -279 -65 -343 -274 -343
c-208 0 -225 72 -196 343l38 336h120l-38 -336c-22 -209 -22 -254 86 -254z" />
    <glyph glyph-name="Yacute" unicode="&#xdd;" horiz-adv-x="521" 
d="M310 0h-122l23 212l-143 456h134l85 -315l158 315h134l-246 -456zM376 948l70 -43l-112 -175l-67 42z" />
    <glyph glyph-name="Thorn" unicode="&#xde;" horiz-adv-x="568" 
d="M63 0l75 668h118l-12 -109h122c114 0 202 -35 187 -172l-9 -80c-9 -82 -78 -152 -162 -167c-23 -4 -48 -4 -186 -4l-14 -136h-119zM231 454l-23 -210h120c48 0 92 4 99 63l9 79c6 59 -38 68 -84 68h-121z" />
    <glyph glyph-name="germandbls" unicode="&#xdf;" horiz-adv-x="531" 
d="M510 523c0 -67 -30 -125 -74 -177c54 -32 54 -92 48 -155l-6 -54c-16 -135 -104 -141 -252 -141h-59c-12 -136 -56 -175 -131 -175c-13 0 -17 -1 -45 4c3 23 5 47 8 70c41 6 46 25 49 49l61 548c12 110 84 177 190 177c94 0 211 -18 211 -146zM310 273h-111l-21 -182h60
c70 0 119 2 126 54c7 61 8 68 8 75c0 44 -21 53 -62 53zM223 489l-12 -122h106c38 34 78 87 78 135c0 59 -57 65 -109 65c-24 0 -57 -16 -63 -78z" />
    <glyph glyph-name="agrave" unicode="&#xe0;" horiz-adv-x="473" 
d="M223 729l79 43l71 -176l-76 -42zM58 282c17 158 65 226 172 226c38 0 141 -10 221 -33l-50 -478h-85l-9 41c-45 -29 -99 -47 -136 -47c-99 0 -119 82 -119 171c0 32 1 64 6 120zM250 428c-62 -2 -71 -110 -77 -164c-5 -43 -8 -112 -2 -155c5 -37 18 -43 51 -34
c27 7 55 22 82 34l33 313c-28 4 -62 7 -87 6z" />
    <glyph glyph-name="aacute" unicode="&#xe1;" horiz-adv-x="473" 
d="M347 767l70 -43l-112 -175l-67 42zM58 282c17 158 65 226 172 226c38 0 141 -10 221 -33l-50 -478h-85l-9 41c-45 -29 -99 -47 -136 -47c-99 0 -119 82 -119 171c0 32 1 64 6 120zM250 428c-62 -2 -71 -110 -77 -164c-5 -43 -8 -112 -2 -155c5 -37 18 -43 51 -34
c27 7 55 22 82 34l33 313c-28 4 -62 7 -87 6z" />
    <glyph glyph-name="acircumflex" unicode="&#xe2;" horiz-adv-x="474" 
d="M449 618l-58 -66l-89 89l-114 -87l-37 66l166 132zM58 282c17 158 65 226 172 226c38 0 141 -10 221 -33l-50 -478h-85l-9 41c-45 -29 -99 -47 -136 -47c-99 0 -119 82 -119 171c0 32 1 64 6 120zM250 428c-62 -2 -71 -110 -77 -164c-5 -43 -8 -112 -2 -155
c5 -37 18 -43 51 -34c27 7 55 22 82 34l33 313c-28 4 -62 7 -87 6z" />
    <glyph glyph-name="Agrave" unicode="&#xc0;" horiz-adv-x="565" 
d="M121 0h-122l261 667h162l120 -667h-119l-30 171h-209zM329 553l-109 -287h157zM261 906l79 43l69 -176l-75 -42z" />
    <glyph glyph-name="Aacute" unicode="&#xc1;" horiz-adv-x="565" 
d="M121 0h-122l261 667h162l120 -667h-119l-30 171h-209zM329 553l-109 -287h157zM401 950l71 -43l-113 -175l-66 42z" />
    <glyph glyph-name="Acircumflex" unicode="&#xc2;" horiz-adv-x="565" 
d="M121 0h-122l261 667h162l120 -667h-119l-30 171h-209zM329 553l-109 -287h157zM509 792l-57 -66l-89 89l-116 -87l-36 66l165 132z" />
    <glyph glyph-name="Atilde" unicode="&#xc3;" horiz-adv-x="565" 
d="M121 0h-122l261 667h162l120 -667h-119l-30 171h-209zM329 553l-109 -287h157zM406 729c-35 0 -63 36 -96 36c-13 0 -29 -21 -45 -41c-16 13 -31 27 -47 40c25 44 63 79 101 79c35 0 72 -36 90 -36c13 0 27 16 43 37c16 -14 33 -26 49 -40c-21 -41 -55 -75 -95 -75z" />
    <glyph glyph-name="Adieresis" unicode="&#xc4;" horiz-adv-x="565" 
d="M121 0h-122l261 667h162l120 -667h-119l-30 171h-209zM329 553l-109 -287h157zM223 779c6 50 12 59 62 59c49 0 56 -8 51 -59c-5 -45 -13 -57 -63 -57c-51 0 -54 11 -50 57zM386 779c5 50 11 59 61 59c51 0 57 -8 52 -59c-5 -45 -11 -57 -64 -57c-51 0 -53 11 -49 57z
" />
    <glyph glyph-name="Aring" unicode="&#xc5;" horiz-adv-x="565" 
d="M121 0h-122l261 667h162l120 -667h-119l-30 171h-209zM329 553l-109 -287h157zM275 816c6 49 42 89 94 89c53 0 79 -40 74 -89c-6 -50 -41 -89 -94 -89c-52 0 -80 37 -74 89zM328 816c-3 -23 8 -38 27 -38c18 0 33 15 36 38c1 22 -9 38 -28 38s-34 -16 -35 -38z" />
    <glyph glyph-name="atilde" unicode="&#xe3;" horiz-adv-x="473" 
d="M332 554c-35 0 -63 36 -95 36c-14 0 -31 -21 -46 -41c-16 13 -32 27 -47 40c24 44 63 79 101 79c35 0 71 -36 90 -36c12 0 27 16 43 37c16 -14 32 -26 49 -40c-21 -41 -54 -75 -95 -75zM58 282c17 158 65 226 172 226c38 0 141 -10 221 -33l-50 -478h-85l-9 41
c-45 -29 -99 -47 -136 -47c-99 0 -119 82 -119 171c0 32 1 64 6 120zM250 428c-62 -2 -71 -110 -77 -164c-5 -43 -8 -112 -2 -155c5 -37 18 -43 51 -34c27 7 55 22 82 34l33 313c-28 4 -62 7 -87 6z" />
    <glyph glyph-name="adieresis" unicode="&#xe4;" horiz-adv-x="473" 
d="M157 611c6 50 12 59 63 59c48 0 55 -8 50 -59c-5 -45 -13 -57 -63 -57s-55 11 -50 57zM320 611c6 50 11 59 62 59c50 0 56 -8 51 -59c-6 -45 -11 -57 -64 -57c-50 0 -54 11 -49 57zM58 282c17 158 65 226 172 226c38 0 141 -10 221 -33l-50 -478h-85l-9 41
c-45 -29 -99 -47 -136 -47c-99 0 -119 82 -119 171c0 32 1 64 6 120zM250 428c-62 -2 -71 -110 -77 -164c-5 -43 -8 -112 -2 -155c5 -37 18 -43 51 -34c27 7 55 22 82 34l33 313c-28 4 -62 7 -87 6z" />
    <glyph glyph-name="aring" unicode="&#xe5;" horiz-adv-x="473" 
d="M217 643c5 49 41 89 93 89c54 0 80 -40 74 -89c-5 -50 -39 -89 -92 -89s-81 37 -75 89zM269 643c-2 -23 9 -38 28 -38s33 15 35 38c3 22 -8 38 -27 38s-33 -16 -36 -38zM58 282c17 158 65 226 172 226c38 0 141 -10 221 -33l-50 -478h-85l-9 41c-45 -29 -99 -47 -136 -47
c-99 0 -119 82 -119 171c0 32 1 64 6 120zM250 428c-62 -2 -71 -110 -77 -164c-5 -43 -8 -112 -2 -155c5 -37 18 -43 51 -34c27 7 55 22 82 34l33 313c-28 4 -62 7 -87 6z" />
    <glyph glyph-name="ccedilla" unicode="&#xe7;" horiz-adv-x="457" 
d="M185 223c-14 -128 14 -142 91 -142c34 0 95 5 137 9l-9 -76c-38 -11 -87 -17 -130 -21l-7 -25c47 -3 60 -28 56 -61c-11 -72 -38 -93 -90 -93c-17 0 -43 3 -77 9c3 17 8 35 12 52c18 0 37 -3 55 -3c20 0 21 4 24 24c0 7 1 17 -15 17h-3c-17 1 -34 1 -52 2l19 77
c-105 6 -148 43 -128 234c25 220 51 284 215 284c9 0 108 -5 170 -17l-9 -85c-100 9 -145 12 -156 12c-79 0 -85 -36 -103 -197z" />
    <glyph glyph-name="egrave" unicode="&#xe8;" horiz-adv-x="478" 
d="M219 724l80 43l69 -176l-76 -42zM465 361v-19c0 -19 -1 -122 -143 -124l-145 -2c-2 -27 -3 -51 -3 -69c0 -74 37 -76 82 -76c17 0 79 2 154 12l-6 -72c-64 -13 -127 -20 -184 -20c-118 0 -158 42 -158 154c0 29 3 64 7 106c23 201 54 261 221 261c132 0 175 -39 175 -151
zM284 434c-75 0 -83 -39 -97 -138h141c29 0 30 34 30 46v12c0 65 -20 80 -74 80z" />
    <glyph glyph-name="eacute" unicode="&#xe9;" horiz-adv-x="478" 
d="M337 769l71 -43l-113 -175l-66 42zM465 361v-19c0 -19 -1 -122 -143 -124l-145 -2c-2 -27 -3 -51 -3 -69c0 -74 37 -76 82 -76c17 0 79 2 154 12l-6 -72c-64 -13 -127 -20 -184 -20c-118 0 -158 42 -158 154c0 29 3 64 7 106c23 201 54 261 221 261
c132 0 175 -39 175 -151zM284 434c-75 0 -83 -39 -97 -138h141c29 0 30 34 30 46v12c0 65 -20 80 -74 80z" />
    <glyph glyph-name="ecircumflex" unicode="&#xea;" horiz-adv-x="478" 
d="M454 616l-57 -66l-89 89l-115 -87l-37 66l166 132zM465 361v-19c0 -19 -1 -122 -143 -124l-145 -2c-2 -27 -3 -51 -3 -69c0 -74 37 -76 82 -76c17 0 79 2 154 12l-6 -72c-64 -13 -127 -20 -184 -20c-118 0 -158 42 -158 154c0 29 3 64 7 106c23 201 54 261 221 261
c132 0 175 -39 175 -151zM284 434c-75 0 -83 -39 -97 -138h141c29 0 30 34 30 46v12c0 65 -20 80 -74 80z" />
    <glyph glyph-name="edieresis" unicode="&#xeb;" horiz-adv-x="478" 
d="M166 611c6 50 12 59 63 59c48 0 55 -8 50 -59c-5 -45 -13 -57 -63 -57s-55 11 -50 57zM329 611c6 50 11 59 62 59c50 0 56 -8 51 -59c-6 -45 -11 -57 -64 -57c-50 0 -54 11 -49 57zM465 361v-19c0 -19 -1 -122 -143 -124l-145 -2c-2 -27 -3 -51 -3 -69
c0 -74 37 -76 82 -76c17 0 79 2 154 12l-6 -72c-64 -13 -127 -20 -184 -20c-118 0 -158 42 -158 154c0 29 3 64 7 106c23 201 54 261 221 261c132 0 175 -39 175 -151zM284 434c-75 0 -83 -39 -97 -138h141c29 0 30 34 30 46v12c0 65 -20 80 -74 80z" />
    <glyph glyph-name="igrave" unicode="&#xec;" horiz-adv-x="242" 
d="M84 729l79 43l70 -176l-76 -42zM174 0h-118l55 499h118z" />
    <glyph glyph-name="iacute" unicode="&#xed;" horiz-adv-x="241" 
d="M229 768l71 -43l-113 -175l-66 42zM174 0h-118l55 499h118z" />
    <glyph glyph-name="icircumflex" unicode="&#xee;" horiz-adv-x="242" 
d="M330 615l-57 -66l-89 89l-116 -87l-37 66l166 132zM174 0h-118l55 499h118z" />
    <glyph glyph-name="idieresis" unicode="&#xef;" horiz-adv-x="242" 
d="M44 611c5 50 12 59 62 59c49 0 56 -8 51 -59c-6 -45 -13 -57 -63 -57c-51 0 -55 11 -50 57zM207 611c5 50 11 59 61 59c51 0 57 -8 51 -59c-5 -45 -10 -57 -63 -57c-51 0 -54 11 -49 57zM174 0h-118l55 499h118z" />
    <glyph glyph-name="eth" unicode="&#xf0;" horiz-adv-x="471" 
d="M230 474l48 54c-22 8 -45 18 -82 29l12 102c69 -16 115 -31 147 -49l53 61l56 -62l-45 -51c41 -52 35 -116 15 -296l-6 -48c-20 -186 -52 -214 -191 -214c-145 0 -202 17 -183 188c20 180 72 199 203 199c29 0 54 0 78 -8c4 38 4 68 2 90l-51 -59zM250 287
c-58 0 -74 -1 -84 -90c-10 -93 7 -99 63 -99c70 0 75 3 87 110c9 81 -20 79 -66 79z" />
    <glyph glyph-name="ntilde" unicode="&#xf1;" horiz-adv-x="498" 
d="M432 0h-117l40 372c3 24 -5 37 -25 37c-23 0 -74 -11 -116 -27l-41 -382h-117l55 499h97l6 -35c49 20 98 45 147 45c69 0 121 -37 112 -124zM360 555c-35 0 -63 36 -95 36c-14 0 -31 -21 -46 -41c-16 13 -32 27 -47 40c24 44 63 79 101 79c35 0 71 -36 90 -36
c12 0 27 16 43 37c16 -14 33 -26 49 -40c-21 -41 -55 -75 -95 -75z" />
    <glyph glyph-name="ograve" unicode="&#xf2;" horiz-adv-x="498" 
d="M237 -9c-170 0 -188 59 -167 259c23 205 57 259 224 259c170 0 191 -58 169 -259s-57 -259 -226 -259zM247 75c75 0 85 30 101 175c17 150 12 178 -63 178s-84 -32 -101 -178c-16 -145 -13 -175 63 -175zM223 728l79 43l71 -176l-77 -42z" />
    <glyph glyph-name="oacute" unicode="&#xf3;" horiz-adv-x="498" 
d="M237 -9c-170 0 -188 59 -167 259c23 205 57 259 224 259c170 0 191 -58 169 -259s-57 -259 -226 -259zM247 75c75 0 85 30 101 175c17 150 12 178 -63 178s-84 -32 -101 -178c-16 -145 -13 -175 63 -175zM343 769l70 -43l-112 -175l-67 42z" />
    <glyph glyph-name="ocircumflex" unicode="&#xf4;" horiz-adv-x="499" 
d="M238 -9c-171 0 -189 59 -167 259c23 205 57 259 224 259c170 0 191 -58 168 -259c-21 -201 -56 -259 -225 -259zM247 75c76 0 86 30 102 175c17 150 12 178 -63 178s-84 -32 -101 -178c-16 -145 -13 -175 62 -175zM454 617l-58 -66l-89 89l-115 -87l-36 66l165 132z" />
    <glyph glyph-name="otilde" unicode="&#xf5;" horiz-adv-x="498" 
d="M237 -9c-170 0 -188 59 -167 259c23 205 57 259 224 259c170 0 191 -58 169 -259s-57 -259 -226 -259zM247 75c75 0 85 30 101 175c17 150 12 178 -63 178s-84 -32 -101 -178c-16 -145 -13 -175 63 -175zM347 552c-35 0 -62 36 -94 36c-14 0 -31 -21 -46 -41
c-16 13 -32 27 -47 40c24 44 62 79 100 79c35 0 72 -36 91 -36c13 0 27 16 42 37c17 -14 34 -26 50 -40c-22 -41 -55 -75 -96 -75z" />
    <glyph glyph-name="odieresis" unicode="&#xf6;" horiz-adv-x="498" 
d="M237 -9c-170 0 -188 59 -167 259c23 205 57 259 224 259c170 0 191 -58 169 -259s-57 -259 -226 -259zM247 75c75 0 85 30 101 175c17 150 12 178 -63 178s-84 -32 -101 -178c-16 -145 -13 -175 63 -175zM165 611c5 50 11 59 62 59c48 0 56 -8 50 -59
c-5 -45 -12 -57 -63 -57c-50 0 -55 11 -49 57zM328 611c5 50 10 59 61 59c50 0 56 -8 51 -59c-5 -45 -11 -57 -64 -57c-50 0 -54 11 -48 57z" />
    <glyph glyph-name="oslash" unicode="&#xf8;" horiz-adv-x="498" 
d="M400 548l-19 -47c90 -22 100 -92 82 -251c-22 -201 -57 -259 -226 -259c-21 0 -38 1 -54 3l-17 -44h-45l21 51c-82 25 -89 95 -72 249c23 205 57 259 224 259c16 0 31 -1 44 -2l17 41h45zM247 75c75 0 85 30 101 175c10 89 12 135 -3 158l-130 -331c9 -2 19 -2 32 -2z
M184 250c-8 -76 -12 -120 -2 -145l125 322c-6 1 -14 1 -22 1c-75 0 -84 -32 -101 -178z" />
    <glyph glyph-name="ugrave" unicode="&#xf9;" 
d="M108 499h117l-41 -373c-3 -23 6 -36 26 -36c23 0 73 11 115 27l42 382h117l-55 -499h-97l-7 35c-49 -20 -98 -45 -147 -45c-69 0 -121 37 -112 124zM222 728l79 43l71 -176l-77 -42z" />
    <glyph glyph-name="uacute" unicode="&#xfa;" 
d="M108 499h117l-41 -373c-3 -23 6 -36 26 -36c23 0 73 11 115 27l42 382h117l-55 -499h-97l-7 35c-49 -20 -98 -45 -147 -45c-69 0 -121 37 -112 124zM342 768l70 -43l-112 -175l-67 42z" />
    <glyph glyph-name="ucircumflex" unicode="&#xfb;" 
d="M108 499h117l-41 -373c-3 -23 6 -36 26 -36c23 0 73 11 115 27l42 382h117l-55 -499h-97l-7 35c-49 -20 -98 -45 -147 -45c-69 0 -121 37 -112 124zM469 614l-58 -66l-89 89l-115 -87l-37 66l166 132z" />
    <glyph glyph-name="udieresis" unicode="&#xfc;" 
d="M108 499h117l-41 -373c-3 -23 6 -36 26 -36c23 0 73 11 115 27l42 382h117l-55 -499h-97l-7 35c-49 -20 -98 -45 -147 -45c-69 0 -121 37 -112 124zM175 611c6 50 12 59 63 59c48 0 55 -8 50 -59c-5 -45 -13 -57 -63 -57s-55 11 -50 57zM338 611c6 50 11 59 62 59
c50 0 56 -8 51 -59c-6 -45 -11 -57 -64 -57c-50 0 -54 11 -49 57z" />
    <glyph glyph-name="yacute" unicode="&#xfd;" horiz-adv-x="471" 
d="M359 768l70 -43l-112 -175l-67 42zM55 -162l25 54c29 -8 31 -8 32 -8c35 0 63 84 81 116h-22l-96 500h118l62 -326l131 326h115l-241 -588c-31 -69 -76 -104 -122 -104c-26 0 -55 8 -83 30z" />
    <glyph glyph-name="thorn" unicode="&#xfe;" horiz-adv-x="466" 
d="M36 -187l95 876h114l-22 -196c33 8 79 15 102 15c112 0 147 -64 129 -223c-23 -204 -50 -293 -223 -293c-18 0 -40 1 -65 3l-19 -182h-111zM337 279c9 83 10 129 -22 137c-21 7 -57 1 -101 -10l-35 -320c16 -1 36 -1 59 -1h1c76 0 83 59 98 194z" />
    <glyph glyph-name="ydieresis" unicode="&#xff;" horiz-adv-x="471" 
d="M169 611c6 50 12 59 62 59c49 0 56 -8 51 -59c-6 -45 -13 -57 -63 -57c-51 0 -55 11 -50 57zM332 611c5 50 11 59 61 59c51 0 57 -8 52 -59c-6 -45 -11 -57 -64 -57c-51 0 -54 11 -49 57zM55 -162l25 54c29 -8 31 -8 32 -8c35 0 63 84 81 116h-22l-96 500h118l62 -326
l131 326h115l-241 -588c-31 -69 -76 -104 -122 -104c-26 0 -55 8 -83 30z" />
    <glyph glyph-name="Aogonek" unicode="&#x104;" horiz-adv-x="560" 
d="M444 -185c-46 0 -87 27 -80 84c4 37 30 71 61 101h-2l-30 171h-209l-63 -171h-122l261 667h162l120 -667h-31c-42 -51 -53 -80 -55 -97c-2 -9 7 -17 24 -17c13 0 30 4 45 8l-2 -65c-15 -5 -53 -14 -79 -14zM329 553l-109 -287h157z" />
    <glyph glyph-name="Lcaron" unicode="&#x13d;" horiz-adv-x="469" 
d="M441 0h-377l73 667h120l-63 -572h257zM319 512l-27 54c16 10 31 22 38 33c-26 7 -28 26 -23 65c6 56 13 65 74 65c59 0 64 -9 57 -65c-7 -67 -41 -107 -119 -152z" />
    <glyph glyph-name="Sacute" unicode="&#x15a;" 
d="M208 516c-14 -125 290 -127 266 -344c-14 -127 -100 -182 -204 -182c-86 0 -144 5 -205 10l10 95s119 -11 199 -11c48 0 72 23 78 77c15 134 -288 133 -266 337c14 128 97 182 203 182c109 0 164 -5 206 -9l-11 -97s-122 13 -199 13c-46 0 -72 -22 -77 -71zM391 945
l69 -43l-112 -175l-66 42z" />
    <glyph glyph-name="Scommaaccent" unicode="&#x218;" 
d="M208 516c-14 -125 290 -127 266 -344c-14 -127 -100 -182 -204 -182c-86 0 -144 5 -205 10l10 95s119 -11 199 -11c48 0 72 23 78 77c15 134 -288 133 -266 337c14 128 97 182 203 182c109 0 164 -5 206 -9l-11 -97s-122 13 -199 13c-46 0 -72 -22 -77 -71zM193 -274
l-28 54c16 10 30 22 38 33c-27 7 -28 26 -23 65c5 56 13 65 74 65c59 0 63 -9 57 -65c-8 -67 -42 -107 -118 -152z" />
    <glyph glyph-name="Tcaron" unicode="&#x164;" horiz-adv-x="518" 
d="M311 0h-121l63 573h-176l10 94h473l-10 -94h-176zM452 915l36 -60l-155 -126l-131 123l47 61l95 -79z" />
    <glyph glyph-name="Zacute" unicode="&#x179;" horiz-adv-x="523" 
d="M477 0h-446l9 84l356 489h-296l11 96h433l-10 -88l-352 -487h305zM399 947l69 -43l-112 -175l-66 42z" />
    <glyph glyph-name="uni00AD" unicode="&#xad;" horiz-adv-x="384" 
d="M76 273l4 43h224l-4 -43h-224z" />
    <glyph glyph-name="Zdotaccent" unicode="&#x17b;" horiz-adv-x="523" 
d="M477 0h-446l9 84l356 489h-296l11 96h433l-10 -88l-352 -487h305zM298 792c6 57 14 67 75 67c58 0 66 -9 60 -67c-6 -55 -15 -69 -76 -69c-60 0 -65 13 -59 69z" />
    <glyph glyph-name="aogonek" unicode="&#x105;" horiz-adv-x="471" 
d="M58 282c17 158 65 226 172 226c38 0 141 -10 221 -33l-50 -478h-4c-42 -50 -54 -79 -56 -97c-1 -9 6 -17 23 -17c14 0 32 4 46 8l-2 -65c-14 -5 -53 -14 -80 -14c-45 0 -85 27 -79 84c5 40 34 76 65 106l-7 36c-45 -29 -99 -47 -136 -47c-99 0 -119 82 -119 171
c0 32 1 64 6 120zM250 428c-62 -2 -71 -110 -77 -164c-5 -43 -8 -112 -2 -155c5 -37 18 -43 51 -34c27 7 55 22 82 34l33 313c-28 4 -62 7 -87 6z" />
    <glyph glyph-name="lcaron" unicode="&#x13e;" horiz-adv-x="288" 
d="M225 61l-7 -63c-35 -6 -40 -6 -46 -6c-69 0 -115 27 -102 147l60 540h117l-63 -557c-2 -29 -5 -53 41 -61zM288 462l-27 54c15 10 31 22 38 33c-26 7 -28 26 -24 65c7 56 14 65 74 65s64 -9 58 -65c-7 -67 -42 -107 -119 -152z" />
    <glyph glyph-name="sacute" unicode="&#x15b;" horiz-adv-x="428" 
d="M189 378c-8 -69 227 -76 208 -241c-11 -97 -82 -140 -169 -140c-91 0 -171 11 -171 11l10 88s77 -10 153 -10c33 0 54 10 57 42c9 81 -225 75 -206 240c11 98 81 141 168 141c92 0 172 -11 172 -11l-10 -89s-90 10 -168 10c-27 0 -41 -13 -44 -41zM331 768l70 -43
l-112 -175l-67 42z" />
    <glyph glyph-name="scommaaccent" unicode="&#x219;" horiz-adv-x="428" 
d="M189 378c-8 -69 227 -76 208 -241c-11 -97 -82 -140 -169 -140c-91 0 -171 11 -171 11l10 88s77 -10 153 -10c33 0 54 10 57 42c9 81 -225 75 -206 240c11 98 81 141 168 141c92 0 172 -11 172 -11l-10 -89s-90 10 -168 10c-27 0 -41 -13 -44 -41zM158 -274l-28 54
c17 10 31 22 39 33c-27 7 -28 26 -23 65c5 56 13 65 74 65c59 0 63 -9 57 -65c-8 -67 -42 -107 -119 -152z" />
    <glyph glyph-name="tcaron" unicode="&#x165;" horiz-adv-x="380" 
d="M381 546l-28 54c15 10 30 22 38 33c-27 7 -28 26 -24 65c6 56 14 65 74 65c59 0 64 -9 58 -65c-8 -67 -42 -107 -118 -152zM271 -9c-112 0 -139 45 -139 123c0 21 2 44 30 302h-99c3 28 7 58 10 84h100c4 39 9 81 13 121h114l-14 -121h101c-3 -27 -7 -57 -10 -84h-102
l-30 -295c0 -39 14 -44 40 -46c14 -1 34 -1 65 5c-4 -28 -4 -52 -7 -79c-33 -8 -56 -10 -72 -10z" />
    <glyph glyph-name="zacute" unicode="&#x17a;" horiz-adv-x="413" 
d="M40 72l230 340h-189l10 89h327l-9 -74l-229 -337h196l-10 -90h-334zM324 771l70 -43l-112 -175l-66 42z" />
    <glyph glyph-name="zdotaccent" unicode="&#x17c;" horiz-adv-x="416" 
d="M40 72l230 340h-189l10 89h327l-9 -74l-229 -337h196l-10 -90h-334zM206 623c6 57 14 67 75 67c58 0 66 -9 60 -67c-6 -55 -14 -69 -75 -69c-60 0 -66 13 -60 69z" />
    <glyph glyph-name="Racute" unicode="&#x154;" horiz-adv-x="581" 
d="M184 0h-120l73 667h249c116 0 206 -35 192 -168l-9 -78c-6 -54 -30 -95 -78 -132l17 -289h-125l-11 253c-20 -1 -35 -1 -161 -1zM248 579l-27 -237h125c50 0 97 10 104 79l9 77c7 71 -38 81 -86 81h-125zM407 948l70 -43l-113 -175l-66 42z" />
    <glyph glyph-name="Abreve" unicode="&#x102;" horiz-adv-x="562" 
d="M121 0h-122l261 667h162l120 -667h-119l-30 171h-209zM329 553l-109 -287h157zM494 793c-26 -27 -88 -67 -143 -67s-106 37 -131 67l42 63c27 -25 62 -50 96 -50c33 0 77 25 110 48z" />
    <glyph glyph-name="Lacute" unicode="&#x139;" horiz-adv-x="469" 
d="M441 0h-377l73 667h120l-63 -572h257zM280 951l70 -43l-112 -175l-66 42z" />
    <glyph glyph-name="Cacute" unicode="&#x106;" horiz-adv-x="525" 
d="M413 947l69 -43l-111 -175l-67 42zM201 298c-25 -214 27 -214 142 -214c35 0 89 3 138 7l-9 -79c-64 -13 -140 -21 -191 -21c-170 0 -235 33 -205 310c33 293 60 378 275 378c11 0 112 -4 193 -16l-9 -88c-116 10 -160 13 -173 13c-120 0 -133 -45 -161 -290z" />
    <glyph glyph-name="Ccaron" unicode="&#x10c;" horiz-adv-x="525" 
d="M487 915l36 -60l-155 -126l-131 123l47 61l95 -79zM201 298c-25 -214 27 -214 142 -214c35 0 89 3 138 7l-9 -79c-64 -13 -140 -21 -191 -21c-170 0 -235 33 -205 310c33 293 60 378 275 378c11 0 112 -4 193 -16l-9 -88c-116 10 -160 13 -173 13
c-120 0 -133 -45 -161 -290z" />
    <glyph glyph-name="Eogonek" unicode="&#x118;" horiz-adv-x="514" 
d="M355 -186c-46 0 -87 27 -81 84c5 37 32 72 63 102h-273l74 668h389l-10 -96h-271l-21 -184h248l-10 -97h-249l-21 -196h270l-9 -95h-31c-42 -51 -54 -80 -57 -98c-1 -9 7 -17 24 -17c13 0 31 4 46 8l-3 -65c-14 -5 -52 -14 -78 -14z" />
    <glyph glyph-name="Ecaron" unicode="&#x11a;" horiz-adv-x="514" 
d="M454 0h-390l74 668h389l-10 -96h-271l-21 -184h248l-10 -97h-249l-21 -196h270zM462 915l36 -60l-155 -126l-132 123l48 61l95 -79z" />
    <glyph glyph-name="Dcaron" unicode="&#x10e;" horiz-adv-x="581" 
d="M64 0l74 668l229 1c163 1 222 -56 191 -338c-30 -271 -89 -331 -255 -331h-239zM361 581h-114l-54 -490l116 -1c71 1 108 40 130 241c25 225 5 250 -78 250zM469 915l36 -60l-155 -126l-131 123l47 61l95 -79z" />
    <glyph glyph-name="Dcroat" unicode="&#x110;" horiz-adv-x="572" 
d="M49 302l10 102h40l30 264l229 1c163 1 222 -56 191 -338c-30 -271 -89 -331 -255 -331h-239l33 302h-39zM352 581h-114l-20 -177h85l-11 -102h-85l-23 -211l116 -1c71 1 108 40 130 241c25 225 5 250 -78 250z" />
    <glyph glyph-name="Nacute" unicode="&#x143;" horiz-adv-x="619" 
d="M538 0h-143l-166 450l-49 -450h-116l74 668h136l168 -464l51 464h119zM436 945l70 -43l-112 -175l-66 42z" />
    <glyph glyph-name="Ncaron" unicode="&#x147;" horiz-adv-x="619" 
d="M538 0h-143l-166 450l-49 -450h-116l74 668h136l168 -464l51 464h119zM508 915l36 -60l-154 -126l-132 123l48 61l94 -79z" />
    <glyph glyph-name="Ohungarumlaut" unicode="&#x150;" horiz-adv-x="584" 
d="M281 -10c-205 0 -222 72 -192 343c32 279 68 344 268 344c207 0 225 -68 195 -344c-31 -279 -65 -343 -271 -343zM291 79c106 0 120 37 144 254c24 216 19 256 -88 256s-117 -44 -140 -256c-23 -209 -23 -254 84 -254zM482 941l71 -43l-113 -175l-67 42zM351 942l72 -44
l-113 -175l-66 42z" />
    <glyph glyph-name="Rcaron" unicode="&#x158;" horiz-adv-x="581" 
d="M184 0h-120l73 667h249c116 0 206 -35 192 -168l-9 -78c-6 -54 -30 -95 -78 -132l17 -289h-125l-11 253c-20 -1 -35 -1 -161 -1zM248 579l-27 -237h125c50 0 97 10 104 79l9 77c7 71 -38 81 -86 81h-125zM487 914l36 -60l-155 -126l-131 123l46 61l96 -79z" />
    <glyph glyph-name="Uring" unicode="&#x16e;" horiz-adv-x="607" 
d="M301 814c6 49 42 89 94 89c53 0 79 -40 74 -89c-6 -50 -40 -89 -93 -89c-52 0 -80 37 -75 89zM354 814c-2 -23 9 -38 28 -38c18 0 33 15 35 38c2 22 -8 38 -27 38s-34 -16 -36 -38zM301 79c108 0 122 37 145 254l38 336h119l-38 -336c-30 -279 -65 -343 -274 -343
c-208 0 -225 72 -196 343l38 336h120l-38 -336c-22 -209 -22 -254 86 -254z" />
    <glyph glyph-name="Uhungarumlaut" unicode="&#x170;" horiz-adv-x="607" 
d="M490 941l70 -43l-113 -175l-66 42zM358 942l72 -44l-112 -175l-67 42zM301 79c108 0 122 37 145 254l38 336h119l-38 -336c-30 -279 -65 -343 -274 -343c-208 0 -225 72 -196 343l38 336h120l-38 -336c-22 -209 -22 -254 86 -254z" />
    <glyph glyph-name="Tcommaaccent" unicode="&#x162;" horiz-adv-x="518" 
d="M311 0h-121l63 573h-176l10 94h473l-10 -94h-176zM183 -278l-27 54c15 10 30 22 37 33c-26 7 -27 26 -23 65c6 56 14 65 74 65c59 0 64 -9 57 -65c-7 -67 -41 -107 -118 -152z" />
    <glyph glyph-name="racute" unicode="&#x155;" horiz-adv-x="342" 
d="M216 463c37 18 76 39 152 47l-10 -93c-47 -4 -102 -25 -144 -42l-41 -375h-117l55 500h104zM256 768l70 -43l-113 -175l-66 42z" />
    <glyph glyph-name="abreve" unicode="&#x103;" horiz-adv-x="473" 
d="M430 621c-27 -27 -88 -67 -143 -67s-106 37 -131 67l41 63c27 -25 63 -50 97 -50s76 25 110 48zM58 282c17 158 65 226 172 226c38 0 141 -10 221 -33l-50 -478h-85l-9 41c-45 -29 -99 -47 -136 -47c-99 0 -119 82 -119 171c0 32 1 64 6 120zM250 428
c-62 -2 -71 -110 -77 -164c-5 -43 -8 -112 -2 -155c5 -37 18 -43 51 -34c27 7 55 22 82 34l33 313c-28 4 -62 7 -87 6z" />
    <glyph glyph-name="lacute" unicode="&#x13a;" horiz-adv-x="247" 
d="M225 61l-7 -63c-35 -6 -40 -6 -46 -6c-69 0 -115 27 -102 147l60 540h117l-63 -557c-2 -29 -5 -53 41 -61zM260 949l70 -43l-112 -175l-67 42z" />
    <glyph glyph-name="cacute" unicode="&#x107;" horiz-adv-x="457" 
d="M185 223c-14 -128 14 -142 91 -142c34 0 95 5 137 9l-9 -76c-50 -14 -126 -23 -175 -23c-128 0 -184 25 -161 235c25 220 51 284 215 284c9 0 108 -5 170 -17l-9 -85c-100 9 -145 12 -156 12c-79 0 -85 -36 -103 -197zM350 768l70 -43l-112 -175l-67 42z" />
    <glyph glyph-name="ccaron" unicode="&#x10d;" horiz-adv-x="457" 
d="M185 223c-14 -128 14 -142 91 -142c34 0 95 5 137 9l-9 -76c-50 -14 -126 -23 -175 -23c-128 0 -184 25 -161 235c25 220 51 284 215 284c9 0 108 -5 170 -17l-9 -85c-100 9 -145 12 -156 12c-79 0 -85 -36 -103 -197zM417 737l37 -60l-156 -126l-132 123l48 61l95 -79z
" />
    <glyph glyph-name="eogonek" unicode="&#x119;" horiz-adv-x="484" 
d="M465 361v-19c0 -19 -1 -122 -143 -124l-145 -2c-2 -27 -3 -51 -3 -69c0 -74 37 -76 82 -76c17 0 79 2 154 12l-6 -72c-9 -2 -18 -4 -27 -5c-47 -55 -58 -87 -61 -105c-1 -9 6 -17 23 -17c14 0 32 4 46 8l-3 -65c-13 -5 -52 -14 -78 -14c-46 0 -86 27 -80 84
c4 35 27 67 56 96c-21 -1 -41 -2 -60 -2c-118 0 -158 42 -158 154c0 29 3 64 7 106c23 201 54 261 221 261c132 0 175 -39 175 -151zM284 434c-75 0 -83 -39 -97 -138h141c29 0 30 34 30 46v12c0 65 -20 80 -74 80z" />
    <glyph glyph-name="ecaron" unicode="&#x11b;" horiz-adv-x="482" 
d="M420 735l36 -60l-155 -126l-131 123l48 61l94 -79zM465 361v-19c0 -19 -1 -122 -143 -124l-145 -2c-2 -27 -3 -51 -3 -69c0 -74 37 -76 82 -76c17 0 79 2 154 12l-6 -72c-64 -13 -127 -20 -184 -20c-118 0 -158 42 -158 154c0 29 3 64 7 106c23 201 54 261 221 261
c132 0 175 -39 175 -151zM284 434c-75 0 -83 -39 -97 -138h141c29 0 30 34 30 46v12c0 65 -20 80 -74 80z" />
    <glyph glyph-name="dcaron" unicode="&#x10f;" horiz-adv-x="514" 
d="M71 256l3 29c21 160 61 225 174 225c29 0 53 -1 98 -12l20 190h115l-75 -688h-93c-2 12 -3 22 -4 34c-48 -24 -89 -40 -124 -40c-100 0 -135 77 -114 262zM192 282c-16 -139 -16 -194 20 -194c24 0 53 10 91 30l33 294c-106 27 -130 2 -144 -130zM513 447l-27 54
c15 10 31 22 38 33c-26 7 -28 26 -24 65c7 56 14 65 74 65s64 -9 58 -65c-7 -67 -42 -107 -119 -152z" />
    <glyph glyph-name="dcroat" unicode="&#x111;" horiz-adv-x="469" 
d="M266 552l10 91h85l5 45h115l-5 -45h44l-10 -91h-44l-60 -552h-93c-2 12 -3 22 -4 34c-48 -24 -89 -40 -124 -40c-100 0 -135 77 -114 262l3 29c21 160 61 225 174 225c29 0 53 -1 98 -12l5 54h-85zM192 282c-16 -139 -16 -194 20 -194c24 0 53 10 91 30l33 294
c-106 27 -130 2 -144 -130z" />
    <glyph glyph-name="nacute" unicode="&#x144;" 
d="M432 0h-117l40 372c3 24 -5 37 -25 37c-23 0 -74 -11 -116 -27l-41 -382h-117l55 499h97l6 -35c49 20 98 45 147 45c69 0 121 -37 112 -124zM369 768l70 -43l-112 -175l-67 42z" />
    <glyph glyph-name="ncaron" unicode="&#x148;" 
d="M432 0h-117l40 372c3 24 -5 37 -25 37c-23 0 -74 -11 -116 -27l-41 -382h-117l55 499h97l6 -35c49 20 98 45 147 45c69 0 121 -37 112 -124zM431 740l37 -60l-155 -126l-131 123l47 61l94 -79z" />
    <glyph glyph-name="ohungarumlaut" unicode="&#x151;" horiz-adv-x="498" 
d="M237 -9c-170 0 -188 59 -167 259c23 205 57 259 224 259c170 0 191 -58 169 -259s-57 -259 -226 -259zM247 75c75 0 85 30 101 175c17 150 12 178 -63 178s-84 -32 -101 -178c-16 -145 -13 -175 63 -175zM416 770l70 -43l-113 -175l-66 42zM284 771l72 -44l-112 -175
l-67 42z" />
    <glyph glyph-name="rcaron" unicode="&#x159;" horiz-adv-x="338" 
d="M209 463c37 18 76 39 152 47l-10 -93c-47 -4 -102 -25 -144 -42l-41 -375h-117l54 500h105zM351 737l37 -60l-156 -126l-131 123l47 61l95 -79z" />
    <glyph glyph-name="uring" unicode="&#x16f;" 
d="M108 499h117l-41 -373c-3 -23 6 -36 26 -36c23 0 73 11 115 27l42 382h117l-55 -499h-97l-7 35c-49 -20 -98 -45 -147 -45c-69 0 -121 37 -112 124zM234 640c5 49 41 89 94 89s79 -40 73 -89c-5 -50 -40 -89 -93 -89c-52 0 -79 37 -74 89zM286 640c-3 -23 8 -38 27 -38
s33 15 36 38c3 22 -8 38 -27 38s-33 -16 -36 -38z" />
    <glyph glyph-name="uhungarumlaut" unicode="&#x171;" 
d="M108 499h117l-41 -373c-3 -23 6 -36 26 -36c23 0 73 11 115 27l42 382h117l-55 -499h-97l-7 35c-49 -20 -98 -45 -147 -45c-69 0 -121 37 -112 124zM417 771l70 -43l-113 -175l-65 42zM285 772l72 -44l-112 -175l-66 42z" />
    <glyph glyph-name="tcommaaccent" unicode="&#x163;" horiz-adv-x="377" 
d="M170 -274l-28 54c16 10 31 22 39 33c-27 7 -28 26 -24 65c6 56 14 65 74 65s63 -9 58 -65c-8 -67 -42 -107 -119 -152zM271 -9c-112 0 -139 45 -139 123c0 21 2 44 30 302h-99c3 28 7 58 10 84h100c4 39 9 81 13 121h114l-14 -121h101c-3 -27 -7 -57 -10 -84h-102
l-30 -295c0 -39 14 -44 40 -46c14 -1 34 -1 65 5c-4 -28 -4 -52 -7 -79c-33 -8 -56 -10 -72 -10z" />
    <glyph glyph-name="Hcircumflex" unicode="&#x124;" horiz-adv-x="601" 
d="M522 0h-121l33 295h-217l-33 -295h-120l74 668h120l-31 -281h217l31 281h121zM535 795l-58 -66l-89 89l-115 -87l-37 66l166 132z" />
    <glyph glyph-name="Hbar" unicode="&#x126;" horiz-adv-x="598" 
d="M82 459l9 84h30l15 125h120l-14 -125h217l14 125h121l-14 -125h30l-9 -84h-30l-51 -459h-120l32 295h-217l-32 -295h-121l50 459h-30zM225 387h217l8 72h-217z" />
    <glyph glyph-name="uni00A0" unicode="&#xa0;" horiz-adv-x="0" 
 />
    <glyph glyph-name="Idotaccent" unicode="&#x130;" horiz-adv-x="254" 
d="M250 667l-73 -667h-119l72 667h120zM140 798c7 57 16 67 76 67c58 0 67 -9 59 -67c-5 -55 -14 -69 -74 -69c-61 0 -66 13 -61 69z" />
    <glyph glyph-name="Scedilla" unicode="&#x15e;" 
d="M208 516c-14 -125 290 -127 266 -344c-14 -124 -95 -179 -197 -182l-6 -24c48 -3 60 -28 57 -61c-11 -72 -39 -93 -91 -93c-17 0 -43 3 -77 9c4 17 8 35 13 52c18 0 37 -3 55 -3c19 0 20 4 22 24c1 7 3 17 -13 17h-3c-17 1 -34 1 -52 2l18 78c-51 2 -93 6 -135 9l10 95
s119 -11 199 -11c48 0 72 23 78 77c15 134 -288 133 -266 337c14 128 97 182 203 182c109 0 164 -5 206 -9l-11 -97s-122 13 -199 13c-46 0 -72 -22 -77 -71z" />
    <glyph glyph-name="Gbreve" unicode="&#x11e;" horiz-adv-x="535" 
d="M291 253l8 78h212l-35 -318c-62 -17 -128 -22 -195 -22c-170 0 -235 33 -205 310c33 293 60 378 275 378c11 0 112 -4 193 -16l-9 -88c-116 10 -160 13 -173 13c-120 0 -135 -58 -161 -290c-26 -235 27 -212 142 -212h24l19 167h-95zM502 792c-27 -27 -88 -67 -143 -67
s-106 37 -131 67l41 63c27 -25 63 -50 97 -50s76 25 110 48z" />
    <glyph glyph-name="Jcircumflex" unicode="&#x134;" horiz-adv-x="300" 
d="M423 795l-58 -66l-89 89l-115 -87l-37 66l167 132zM319 670l-59 -536c-13 -119 -66 -153 -175 -144l-72 4l9 81c64 4 116 3 122 56l59 539h116z" />
    <glyph glyph-name="hbar" unicode="&#x127;" horiz-adv-x="483" 
d="M61 568l9 77h45l4 36h113l-3 -36h81l-9 -77h-81l-10 -92c40 12 98 31 140 31c84 0 120 -42 110 -126l-42 -381h-116l41 373c3 21 -3 38 -24 38c-24 0 -69 -5 -118 -23l-43 -388h-114l62 568h-45z" />
    <glyph glyph-name="hcircumflex" unicode="&#x125;" horiz-adv-x="488" 
d="M425 0h-116l40 373c3 21 -3 38 -23 38c-25 0 -70 -5 -119 -23l-42 -388h-115l75 681h113l-22 -205c40 12 98 31 140 31c84 0 120 -42 110 -126zM339 794l-57 -66l-89 89l-116 -87l-37 66l166 132z" />
    <glyph glyph-name="scedilla" unicode="&#x15f;" horiz-adv-x="428" 
d="M189 378c-8 -69 227 -76 208 -241c-10 -94 -78 -137 -161 -140l-7 -27c47 -3 60 -28 56 -61c-11 -72 -38 -93 -90 -93c-17 0 -43 3 -77 9c3 17 8 35 12 52c18 0 37 -3 55 -3c20 0 22 4 24 24c1 7 2 17 -15 17h-2c-17 1 -35 1 -53 2l20 82c-58 2 -102 9 -102 9l10 88
s77 -10 153 -10c33 0 54 10 57 42c9 81 -225 75 -206 240c11 98 81 141 168 141c92 0 172 -11 172 -11l-10 -89s-90 10 -168 10c-27 0 -41 -13 -44 -41z" />
    <glyph glyph-name="gbreve" unicode="&#x11f;" horiz-adv-x="452" 
d="M463 621c-27 -27 -89 -67 -144 -67c-54 0 -106 37 -131 67l41 63c27 -25 63 -50 98 -50c33 0 75 25 109 48zM459 500l-57 -550c-11 -101 -71 -141 -171 -141c-61 0 -106 6 -170 21c0 4 22 76 23 78c37 -6 83 -17 142 -17c66 0 69 55 78 151c-21 -1 -47 -1 -66 -1
c-81 0 -169 17 -169 139c0 15 2 41 5 61c21 193 63 274 229 274c15 0 41 -1 156 -15zM184 242c-15 -126 14 -122 125 -120l36 310c-26 2 -36 2 -42 2c-95 0 -98 -19 -119 -192z" />
    <glyph glyph-name="jcircumflex" unicode="&#x135;" horiz-adv-x="237" 
d="M-23 -182l8 63c46 8 55 32 59 62l61 557h117l-60 -541c-13 -121 -65 -146 -132 -146c-7 0 -17 0 -53 5zM324 617l-58 -66l-89 89l-115 -87l-36 66l166 132z" />
    <glyph glyph-name="Cdotaccent" unicode="&#x10a;" horiz-adv-x="525" 
d="M296 795c6 57 14 67 75 67c58 0 66 -9 60 -67c-6 -55 -14 -69 -75 -69c-60 0 -66 13 -60 69zM201 298c-25 -214 27 -214 142 -214c35 0 89 3 138 7l-9 -79c-64 -13 -140 -21 -191 -21c-170 0 -235 33 -205 310c33 293 60 378 275 378c11 0 112 -4 193 -16l-9 -88
c-116 10 -160 13 -173 13c-120 0 -133 -45 -161 -290z" />
    <glyph glyph-name="Ccircumflex" unicode="&#x108;" horiz-adv-x="525" 
d="M517 794l-57 -66l-89 89l-115 -87l-37 66l165 132zM201 298c-25 -214 27 -214 142 -214c35 0 89 3 138 7l-9 -79c-64 -13 -140 -21 -191 -21c-170 0 -235 33 -205 310c33 293 60 378 275 378c11 0 112 -4 193 -16l-9 -88c-116 10 -160 13 -173 13
c-120 0 -133 -45 -161 -290z" />
    <glyph glyph-name="Gdotaccent" unicode="&#x120;" horiz-adv-x="535" 
d="M291 253l8 78h212l-35 -318c-62 -17 -128 -22 -195 -22c-170 0 -235 33 -205 310c33 293 60 378 275 378c11 0 112 -4 193 -16l-9 -88c-116 10 -160 13 -173 13c-120 0 -135 -58 -161 -290c-26 -235 27 -212 142 -212h24l19 167h-95zM297 798c6 57 15 67 76 67
c58 0 66 -9 59 -67c-5 -55 -14 -69 -75 -69c-60 0 -65 13 -60 69z" />
    <glyph glyph-name="Gcircumflex" unicode="&#x11c;" horiz-adv-x="535" 
d="M291 253l8 78h212l-35 -318c-62 -17 -128 -22 -195 -22c-170 0 -235 33 -205 310c33 293 60 378 275 378c11 0 112 -4 193 -16l-9 -88c-116 10 -160 13 -173 13c-120 0 -135 -58 -161 -290c-26 -235 27 -212 142 -212h24l19 167h-95zM501 793l-57 -66l-89 89l-116 -87
l-37 66l166 132z" />
    <glyph glyph-name="Ubreve" unicode="&#x16c;" horiz-adv-x="607" 
d="M521 792c-27 -27 -88 -67 -143 -67s-106 37 -131 67l41 63c27 -25 63 -50 97 -50c33 0 76 25 110 48zM301 79c108 0 122 37 145 254l38 336h119l-38 -336c-30 -279 -65 -343 -274 -343c-208 0 -225 72 -196 343l38 336h120l-38 -336c-22 -209 -22 -254 86 -254z" />
    <glyph glyph-name="Scircumflex" unicode="&#x15c;" 
d="M208 516c-14 -125 290 -127 266 -344c-14 -127 -100 -182 -204 -182c-86 0 -144 5 -205 10l10 95s119 -11 199 -11c48 0 72 23 78 77c15 134 -288 133 -266 337c14 128 97 182 203 182c109 0 164 -5 206 -9l-11 -97s-122 13 -199 13c-46 0 -72 -22 -77 -71zM492 793
l-57 -66l-89 89l-116 -87l-37 66l166 132z" />
    <glyph glyph-name="cdotaccent" unicode="&#x10b;" horiz-adv-x="457" 
d="M185 223c-14 -128 14 -142 91 -142c34 0 95 5 137 9l-9 -76c-50 -14 -126 -23 -175 -23c-128 0 -184 25 -161 235c25 220 51 284 215 284c9 0 108 -5 170 -17l-9 -85c-100 9 -145 12 -156 12c-79 0 -85 -36 -103 -197zM232 623c6 57 15 67 75 67c58 0 66 -9 60 -67
c-6 -55 -14 -69 -75 -69c-60 0 -66 13 -60 69z" />
    <glyph glyph-name="ccircumflex" unicode="&#x109;" horiz-adv-x="457" 
d="M185 223c-14 -128 14 -142 91 -142c34 0 95 5 137 9l-9 -76c-50 -14 -126 -23 -175 -23c-128 0 -184 25 -161 235c25 220 51 284 215 284c9 0 108 -5 170 -17l-9 -85c-100 9 -145 12 -156 12c-79 0 -85 -36 -103 -197zM445 619l-59 -66l-89 89l-114 -87l-37 66l165 132z
" />
    <glyph glyph-name="gdotaccent" unicode="&#x121;" horiz-adv-x="452" 
d="M258 624c7 57 15 67 75 67c58 0 67 -9 60 -67c-6 -55 -14 -69 -74 -69c-61 0 -67 13 -61 69zM459 500l-57 -550c-11 -101 -71 -141 -171 -141c-61 0 -106 6 -170 21c0 4 22 76 23 78c37 -6 83 -17 142 -17c66 0 69 55 78 151c-21 -1 -47 -1 -66 -1
c-81 0 -169 17 -169 139c0 15 2 41 5 61c21 193 63 274 229 274c15 0 41 -1 156 -15zM184 242c-15 -126 14 -122 125 -120l36 310c-26 2 -36 2 -42 2c-95 0 -98 -19 -119 -192z" />
    <glyph glyph-name="gcircumflex" unicode="&#x11d;" horiz-adv-x="452" 
d="M475 620l-57 -66l-90 89l-115 -87l-37 66l166 132zM459 500l-57 -550c-11 -101 -71 -141 -171 -141c-61 0 -106 6 -170 21c0 4 22 76 23 78c37 -6 83 -17 142 -17c66 0 69 55 78 151c-21 -1 -47 -1 -66 -1c-81 0 -169 17 -169 139c0 15 2 41 5 61c21 193 63 274 229 274
c15 0 41 -1 156 -15zM184 242c-15 -126 14 -122 125 -120l36 310c-26 2 -36 2 -42 2c-95 0 -98 -19 -119 -192z" />
    <glyph glyph-name="ubreve" unicode="&#x16d;" 
d="M108 499h117l-41 -373c-3 -23 6 -36 26 -36c23 0 73 11 115 27l42 382h117l-55 -499h-97l-7 35c-49 -20 -98 -45 -147 -45c-69 0 -121 37 -112 124zM455 623c-26 -27 -88 -67 -143 -67s-106 37 -131 67l42 63c27 -25 63 -50 97 -50s76 25 109 48z" />
    <glyph glyph-name="scircumflex" unicode="&#x15d;" horiz-adv-x="429" 
d="M190 378c-8 -69 227 -76 208 -241c-11 -97 -82 -140 -169 -140c-91 0 -171 11 -171 11l9 88s78 -10 153 -10c34 0 54 10 58 42c9 81 -225 75 -206 240c11 98 81 141 168 141c92 0 172 -11 172 -11l-10 -89s-90 10 -168 10c-27 0 -41 -13 -44 -41zM429 619l-58 -66l-89 89
l-115 -87l-37 66l166 132z" />
    <glyph glyph-name="Imacron" horiz-adv-x="249" 
d="M77 726l9 84h240l-9 -84h-240zM256 667l-72 -667h-120l73 667h119z" />
    <glyph glyph-name="kgreenlandic" unicode="&#x138;" horiz-adv-x="499" 
d="M170 0h-114l74 679h115l-39 -346h59l142 238h120l-168 -283l129 -288h-124l-108 242h-60z" />
    <glyph glyph-name="Rcommaaccent" unicode="&#x156;" horiz-adv-x="581" 
d="M184 0h-120l73 667h249c116 0 206 -35 192 -168l-9 -78c-6 -54 -30 -95 -78 -132l17 -289h-125l-11 253c-20 -1 -35 -1 -161 -1zM248 579l-27 -237h125c50 0 97 10 104 79l9 77c7 71 -38 81 -86 81h-125zM221 -274l-28 54c17 10 31 22 39 33c-27 7 -28 26 -23 65
c5 56 13 65 74 65c59 0 63 -9 57 -65c-8 -67 -42 -107 -119 -152z" />
    <glyph glyph-name="Itilde" unicode="&#x128;" horiz-adv-x="254" 
d="M247 732c-35 0 -62 36 -94 36c-14 0 -31 -21 -46 -41c-16 13 -31 27 -47 40c25 44 62 79 100 79c35 0 72 -36 91 -36c13 0 27 16 42 37c17 -14 34 -26 51 -40c-22 -41 -56 -75 -97 -75zM256 667l-72 -667h-120l73 667h119z" />
    <glyph glyph-name="Lcommaaccent" unicode="&#x13b;" horiz-adv-x="469" 
d="M441 0h-377l73 667h120l-63 -572h257zM193 -279l-27 54c15 10 30 22 37 33c-26 7 -28 26 -23 65c6 56 13 65 74 65c59 0 64 -9 57 -65c-7 -67 -41 -107 -118 -152z" />
    <glyph glyph-name="Emacron" unicode="&#x112;" horiz-adv-x="514" 
d="M454 0h-390l74 668h389l-10 -96h-271l-21 -184h248l-10 -97h-249l-21 -196h270zM218 725l9 84h239l-9 -84h-239z" />
    <glyph glyph-name="Gcommaaccent" unicode="&#x122;" horiz-adv-x="535" 
d="M291 253l8 78h212l-35 -318c-62 -17 -128 -22 -195 -22c-170 0 -235 33 -205 310c33 293 60 378 275 378c11 0 112 -4 193 -16l-9 -88c-116 10 -160 13 -173 13c-120 0 -135 -58 -161 -290c-26 -235 27 -212 142 -212h24l19 167h-95zM220 -278l-27 54c16 10 31 22 38 33
c-26 7 -28 26 -23 65c6 56 13 65 74 65c59 0 64 -9 57 -65c-7 -67 -41 -107 -119 -152z" />
    <glyph glyph-name="Tbar" unicode="&#x166;" horiz-adv-x="518" 
d="M126 360l9 84h103l15 129h-176l10 94h473l-10 -94h-176l-14 -129h104l-9 -84h-104l-40 -360h-121l39 360h-103z" />
    <glyph glyph-name="rcommaaccent" unicode="&#x157;" horiz-adv-x="346" 
d="M225 463c37 18 76 39 152 47l-10 -93c-47 -4 -102 -25 -144 -42l-41 -375h-117l55 500h104zM56 -281l-27 54c15 10 29 22 38 33c-27 7 -28 26 -24 65c6 56 14 65 74 65c59 0 64 -9 58 -65c-9 -67 -42 -107 -119 -152z" />
    <glyph glyph-name="itilde" unicode="&#x129;" horiz-adv-x="237" 
d="M166 0h-118l55 499h117zM222 552c-35 0 -62 36 -94 36c-14 0 -31 -21 -46 -41c-16 13 -32 27 -47 40c24 44 62 79 100 79c35 0 72 -36 91 -36c12 0 27 16 42 37c17 -14 33 -26 50 -40c-22 -41 -55 -75 -96 -75z" />
    <glyph glyph-name="lcommaaccent" unicode="&#x13c;" horiz-adv-x="247" 
d="M225 61l-7 -63c-35 -6 -40 -6 -46 -6c-69 0 -115 27 -102 147l60 540h117l-63 -557c-2 -29 -5 -53 41 -61zM83 -274l-28 54c16 10 30 22 39 33c-27 7 -28 26 -24 65c6 56 14 65 74 65c59 0 63 -9 58 -65c-9 -67 -43 -107 -119 -152z" />
    <glyph glyph-name="emacron" unicode="&#x113;" horiz-adv-x="482" 
d="M177 552l10 84h240l-10 -84h-240zM465 361v-19c0 -19 -1 -122 -143 -124l-145 -2c-2 -27 -3 -51 -3 -69c0 -74 37 -76 82 -76c17 0 79 2 154 12l-6 -72c-64 -13 -127 -20 -184 -20c-118 0 -158 42 -158 154c0 29 3 64 7 106c23 201 54 261 221 261
c132 0 175 -39 175 -151zM284 434c-75 0 -83 -39 -97 -138h141c29 0 30 34 30 46v12c0 65 -20 80 -74 80z" />
    <glyph glyph-name="gcommaaccent" unicode="&#x123;" horiz-adv-x="452" 
d="M382 770l27 -55c-15 -9 -29 -21 -37 -33c26 -6 27 -25 22 -64c-6 -57 -12 -66 -73 -66c-59 0 -64 10 -58 66c8 67 42 107 119 152zM459 500l-57 -550c-11 -101 -71 -141 -171 -141c-61 0 -106 6 -170 21c0 4 22 76 23 78c37 -6 83 -17 142 -17c66 0 69 55 78 151
c-21 -1 -47 -1 -66 -1c-81 0 -169 17 -169 139c0 15 2 41 5 61c21 193 63 274 229 274c15 0 41 -1 156 -15zM184 242c-15 -126 14 -122 125 -120l36 310c-26 2 -36 2 -42 2c-95 0 -98 -19 -119 -192z" />
    <glyph glyph-name="tbar" unicode="&#x167;" horiz-adv-x="377" 
d="M82 275l10 84h63l5 54h-99l10 87h99l14 120h116l-14 -120h101l-10 -87h-101l-5 -54h60l-10 -84h-60l-13 -113c-8 -74 2 -82 35 -84c14 -2 35 0 68 6c-4 -27 -5 -55 -8 -82c-33 -8 -58 -11 -73 -11c-142 0 -149 74 -135 193l10 91h-63z" />
    <glyph glyph-name="Eng" unicode="&#x14a;" horiz-adv-x="613" 
d="M612 669l-79 -710c-13 -119 -64 -144 -174 -144h-51l10 89c64 0 93 -1 99 52l5 44h-27l-166 450l-49 -450h-116l74 668h136l168 -464l51 464h3v1h116z" />
    <glyph glyph-name="eng" unicode="&#x14b;" horiz-adv-x="499" 
d="M240 -182l7 63c48 8 57 32 61 62l47 429c3 24 -5 37 -25 37c-23 0 -74 -11 -116 -27l-41 -382h-117l55 499h97l6 -35c49 20 98 45 147 45c69 0 121 -37 112 -124l-47 -426c-13 -121 -65 -146 -133 -146c-6 0 -16 0 -53 5z" />
    <glyph glyph-name="Amacron" unicode="&#x100;" horiz-adv-x="565" 
d="M121 0h-122l261 667h162l120 -667h-119l-30 171h-209zM329 553l-109 -287h157zM230 726l9 84h240l-9 -84h-240z" />
    <glyph glyph-name="Iogonek" unicode="&#x12e;" horiz-adv-x="242" 
d="M77 -184c-46 0 -85 27 -79 84c4 37 30 71 60 101l73 666h120l-73 -667h-33c-42 -50 -53 -79 -55 -96c-1 -9 6 -17 23 -17c14 0 31 4 46 8l-2 -65c-15 -5 -54 -14 -80 -14z" />
    <glyph glyph-name="Edotaccent" unicode="&#x116;" horiz-adv-x="512" 
d="M454 0h-390l74 668h389l-10 -96h-271l-21 -184h248l-10 -97h-249l-21 -196h270zM290 795c6 57 14 67 74 67c59 0 67 -9 61 -67c-7 -55 -15 -69 -75 -69s-67 13 -60 69z" />
    <glyph glyph-name="Ncommaaccent" unicode="&#x145;" horiz-adv-x="613" 
d="M538 0h-143l-166 450l-49 -450h-116l74 668h136l168 -464l51 464h119zM234 -275l-28 54c16 10 31 22 38 33c-26 7 -27 26 -24 65c7 56 14 65 74 65s64 -9 58 -65c-7 -67 -42 -107 -118 -152z" />
    <glyph glyph-name="Omacron" unicode="&#x14c;" horiz-adv-x="584" 
d="M281 -10c-205 0 -222 72 -192 343c32 279 68 344 268 344c207 0 225 -68 195 -344c-31 -279 -65 -343 -271 -343zM291 79c106 0 120 37 144 254c24 216 19 256 -88 256s-117 -44 -140 -256c-23 -209 -23 -254 84 -254zM250 726l9 84h240l-9 -84h-240z" />
    <glyph glyph-name="Kcommaaccent" unicode="&#x136;" horiz-adv-x="548" 
d="M183 0h-119l74 668h118l-31 -284h59l183 284h130l-212 -323l147 -345h-129l-127 293h-62zM211 -275l-27 54c16 10 30 22 37 33c-26 7 -27 26 -23 65c6 56 13 65 74 65c59 0 64 -9 57 -65c-7 -67 -41 -107 -118 -152z" />
    <glyph glyph-name="Uogonek" unicode="&#x172;" horiz-adv-x="601" 
d="M301 79c108 0 122 37 145 254l38 336h119l-38 -336c-29 -261 -60 -333 -236 -342c-37 -46 -47 -74 -49 -91c-1 -9 6 -17 23 -17c14 0 32 4 46 8l-3 -65c-13 -5 -53 -14 -79 -14c-46 0 -85 27 -79 84c4 35 27 68 54 96c-162 12 -174 92 -147 341l38 336h120l-38 -336
c-22 -209 -22 -254 86 -254z" />
    <glyph glyph-name="Utilde" unicode="&#x168;" horiz-adv-x="601" 
d="M423 729c-35 0 -63 36 -95 36c-14 0 -30 -21 -46 -41c-16 13 -31 27 -47 40c25 44 63 79 101 79c35 0 72 -36 91 -36c12 0 27 16 42 37c16 -14 33 -26 49 -40c-21 -41 -55 -75 -95 -75zM301 79c108 0 122 37 145 254l38 336h119l-38 -336c-30 -279 -65 -343 -274 -343
c-208 0 -225 72 -196 343l38 336h120l-38 -336c-22 -209 -22 -254 86 -254z" />
    <glyph glyph-name="Umacron" unicode="&#x16a;" horiz-adv-x="601" 
d="M262 726l9 84h239l-9 -84h-239zM301 79c108 0 122 37 145 254l38 336h119l-38 -336c-30 -279 -65 -343 -274 -343c-208 0 -225 72 -196 343l38 336h120l-38 -336c-22 -209 -22 -254 86 -254z" />
    <glyph glyph-name="amacron" unicode="&#x101;" horiz-adv-x="473" 
d="M165 552l10 84h239l-10 -84h-239zM58 282c17 158 65 226 172 226c38 0 141 -10 221 -33l-50 -478h-85l-9 41c-45 -29 -99 -47 -136 -47c-99 0 -119 82 -119 171c0 32 1 64 6 120zM250 428c-62 -2 -71 -110 -77 -164c-5 -43 -8 -112 -2 -155c5 -37 18 -43 51 -34
c27 7 55 22 82 34l33 313c-28 4 -62 7 -87 6z" />
    <glyph glyph-name="iogonek" unicode="&#x12f;" horiz-adv-x="237" 
d="M112 617c7 56 13 65 72 65c58 0 65 -5 58 -65c-5 -53 -13 -66 -72 -66s-63 13 -58 66zM74 -183c-46 0 -86 27 -79 84c4 36 28 70 58 99h-2l55 499h118l-55 -499h-29c-41 -49 -52 -78 -54 -95c-1 -9 7 -17 24 -17c13 0 30 4 46 8l-3 -65c-14 -5 -53 -14 -79 -14z" />
    <glyph glyph-name="edotaccent" unicode="&#x117;" horiz-adv-x="482" 
d="M238 625c6 57 14 67 74 67c59 0 67 -9 61 -67c-7 -55 -15 -69 -75 -69s-67 13 -60 69zM465 361v-19c0 -19 -1 -122 -143 -124l-145 -2c-2 -27 -3 -51 -3 -69c0 -74 37 -76 82 -76c17 0 79 2 154 12l-6 -72c-64 -13 -127 -20 -184 -20c-118 0 -158 42 -158 154
c0 29 3 64 7 106c23 201 54 261 221 261c132 0 175 -39 175 -151zM284 434c-75 0 -83 -39 -97 -138h141c29 0 30 34 30 46v12c0 65 -20 80 -74 80z" />
    <glyph glyph-name="imacron" unicode="&#x12b;" horiz-adv-x="237" 
d="M170 0h-118l55 499h118zM55 552l10 84h239l-10 -84h-239z" />
    <glyph glyph-name="ncommaaccent" unicode="&#x146;" 
d="M432 0h-117l40 372c3 24 -5 37 -25 37c-23 0 -74 -11 -116 -27l-41 -382h-117l55 499h97l6 -35c49 20 98 45 147 45c69 0 121 -37 112 -124zM172 -275l-28 54c16 10 31 22 38 33c-26 7 -27 26 -24 65c7 56 14 65 74 65s64 -9 58 -65c-7 -67 -42 -107 -118 -152z" />
    <glyph glyph-name="omacron" unicode="&#x14d;" horiz-adv-x="498" 
d="M237 -9c-170 0 -188 59 -167 259c23 205 57 259 224 259c170 0 191 -58 169 -259s-57 -259 -226 -259zM247 75c75 0 85 30 101 175c17 150 12 178 -63 178s-84 -32 -101 -178c-16 -145 -13 -175 63 -175zM181 552l10 84h239l-10 -84h-239z" />
    <glyph glyph-name="kcommaaccent" unicode="&#x137;" horiz-adv-x="499" 
d="M170 0h-114l74 679h115l-39 -346h59l142 238h120l-168 -283l129 -288h-124l-108 242h-60zM198 -275l-28 54c16 10 31 22 38 33c-26 7 -27 26 -24 65c7 56 14 65 74 65s64 -9 58 -65c-7 -67 -42 -107 -118 -152z" />
    <glyph glyph-name="uogonek" unicode="&#x173;" 
d="M337 -183c-46 0 -87 27 -81 84c6 42 38 80 72 112l-3 22c-49 -20 -98 -45 -147 -45c-69 0 -121 37 -112 124l42 385h117l-41 -373c-3 -23 6 -36 26 -36c23 0 73 11 115 27l42 382h117l-55 -499h-26c-41 -49 -52 -78 -54 -95c-1 -9 6 -17 24 -17c13 0 30 4 45 8l-2 -65
c-15 -5 -53 -14 -79 -14z" />
    <glyph glyph-name="utilde" unicode="&#x169;" 
d="M108 499h117l-41 -373c-3 -23 6 -36 26 -36c23 0 73 11 115 27l42 382h117l-55 -499h-97l-7 35c-49 -20 -98 -45 -147 -45c-69 0 -121 37 -112 124zM361 552c-35 0 -62 36 -95 36c-13 0 -30 -21 -46 -41c-16 13 -31 27 -46 40c24 44 62 79 100 79c35 0 72 -36 90 -36
c13 0 27 16 43 37c17 -14 33 -26 49 -40c-21 -41 -55 -75 -95 -75z" />
    <glyph glyph-name="umacron" unicode="&#x16b;" 
d="M108 499h117l-41 -373c-3 -23 6 -36 26 -36c23 0 73 11 115 27l42 382h117l-55 -499h-97l-7 35c-49 -20 -98 -45 -147 -45c-69 0 -121 37 -112 124zM187 551l9 84h240l-9 -84h-240z" />
    <glyph glyph-name="afii00208" unicode="&#x2015;" horiz-adv-x="600" 
d="M74 227l11 106h467l-12 -106h-466z" />
    <glyph glyph-name="uni1E02" unicode="&#x1e02;" horiz-adv-x="533" 
d="M238 0h-174l74 668h174c121 0 228 -15 211 -169l-6 -43c-6 -62 -33 -92 -74 -120c38 -26 53 -83 47 -128l-4 -40c-14 -134 -89 -168 -248 -168zM213 285l-21 -199h60c71 0 109 21 116 88l4 35c7 61 -21 76 -65 76h-94zM307 581h-60l-23 -199h94c44 0 74 17 82 76l3 33
c9 85 -30 90 -96 90zM275 798c7 57 16 67 76 67c58 0 67 -9 59 -67c-5 -55 -14 -69 -74 -69c-61 0 -66 13 -61 69z" />
    <glyph glyph-name="uni1E03" unicode="&#x1e03;" horiz-adv-x="481" 
d="M453 285c-23 -204 -50 -293 -223 -293c-43 0 -118 7 -175 15l75 682h114l-22 -196c34 8 79 15 102 15c112 0 147 -64 129 -223zM337 279c9 83 9 129 -23 137c-21 7 -57 1 -101 -10l-35 -320c16 -1 36 -1 59 -1h1c76 0 83 59 99 194zM274 623c6 57 14 67 74 67
c59 0 67 -9 61 -67c-7 -55 -15 -69 -75 -69s-67 13 -60 69z" />
    <glyph glyph-name="uni1E0A" unicode="&#x1e0a;" horiz-adv-x="584" 
d="M64 0l74 668l229 1c163 1 222 -56 191 -338c-30 -271 -89 -331 -255 -331h-239zM361 581h-114l-54 -490l116 -1c71 1 108 40 130 241c25 225 5 250 -78 250zM292 796c6 57 14 67 74 67c59 0 67 -9 61 -67c-7 -55 -15 -69 -75 -69s-67 13 -60 69z" />
    <glyph glyph-name="Wgrave" unicode="&#x1e80;" horiz-adv-x="823" 
d="M376 907l79 43l71 -176l-77 -42zM250 135l174 534h111l49 -536l163 534h116l-206 -667h-155l-47 467l-156 -467h-148l-65 667h117z" />
    <glyph glyph-name="Wacute" unicode="&#x1e82;" horiz-adv-x="823" 
d="M561 946l69 -43l-112 -175l-66 42zM250 135l174 534h111l49 -536l163 534h116l-206 -667h-155l-47 467l-156 -467h-148l-65 667h117z" />
    <glyph glyph-name="uni1E0B" unicode="&#x1e0b;" horiz-adv-x="476" 
d="M71 256l3 29c21 160 61 225 174 225c29 0 53 -1 98 -12l20 190h115l-75 -688h-93c-2 12 -3 22 -4 34c-48 -24 -89 -40 -124 -40c-100 0 -135 77 -114 262zM192 282c-16 -139 -16 -194 20 -194c24 0 53 10 91 30l33 294c-106 27 -130 2 -144 -130zM191 626
c6 57 15 67 75 67c59 0 66 -9 60 -67c-6 -55 -15 -69 -75 -69s-67 13 -60 69z" />
    <glyph glyph-name="Ygrave" unicode="&#x1ef2;" horiz-adv-x="521" 
d="M310 0h-122l23 212l-143 456h134l85 -315l158 315h134l-246 -456zM242 902l80 43l69 -176l-75 -42z" />
    <glyph glyph-name="uni1E1E" unicode="&#x1e1e;" horiz-adv-x="495" 
d="M184 0h-120l73 667h394l-10 -94h-274l-21 -187h236l-11 -95h-236zM290 795c6 57 14 67 74 67c59 0 67 -9 61 -67c-7 -55 -15 -69 -75 -69s-67 13 -60 69z" />
    <glyph glyph-name="uni1E1F" unicode="&#x1e1f;" horiz-adv-x="353" 
d="M239 796c7 57 15 67 75 67c59 0 67 -9 60 -67c-6 -55 -14 -69 -74 -69c-61 0 -67 13 -61 69zM71 499h68c16 163 48 193 178 193c25 0 53 -1 101 -8l-6 -72h-88c-54 0 -63 -6 -71 -113h106l-7 -80h-106l-53 -464c-12 -113 -67 -146 -128 -146c-7 0 -19 0 -53 5l3 55
c45 8 61 37 66 69c4 33 4 65 50 481h-67z" />
    <glyph glyph-name="uni1E40" unicode="&#x1e40;" horiz-adv-x="743" 
d="M181 0h-117l74 668h139l116 -384l201 384h143l-74 -668h-115l50 459l-176 -344h-95l-96 344zM384 798c7 57 16 67 76 67c58 0 66 -9 59 -67c-5 -55 -14 -69 -74 -69c-61 0 -66 13 -61 69z" />
    <glyph glyph-name="uni1E41" unicode="&#x1e41;" horiz-adv-x="760" 
d="M682 0h-118l41 368c2 25 -5 40 -23 40c-22 0 -68 -7 -110 -19c-14 -126 -28 -263 -42 -389h-117l41 372c2 24 -5 37 -23 37c-25 0 -76 -12 -118 -27l-41 -382h-116l55 499h96l7 -33c47 21 97 43 146 43c37 0 67 -18 90 -45c55 21 109 45 162 45c83 0 121 -44 112 -128z
M384 620c7 57 15 67 75 67c58 0 67 -9 60 -67c-6 -55 -15 -69 -75 -69c-61 0 -66 13 -60 69z" />
    <glyph glyph-name="uni1E56" unicode="&#x1e56;" horiz-adv-x="565" 
d="M184 0h-120l73 667h247c116 0 206 -35 192 -168l-9 -78c-9 -80 -77 -152 -162 -165c-26 -4 -53 -4 -194 -4zM248 579l-27 -237h125c50 0 97 10 104 79l9 77c7 71 -38 81 -86 81h-125zM298 795c6 57 14 67 75 67c58 0 66 -9 60 -67c-6 -55 -15 -69 -75 -69s-66 13 -60 69z
" />
    <glyph glyph-name="wgrave" unicode="&#x1e81;" horiz-adv-x="688" 
d="M122 0l-46 500h116l25 -306l111 306h124l45 -306l93 306h115l-155 -500h-133l-46 323l-115 -323h-134zM297 726l79 43l69 -176l-75 -42z" />
    <glyph glyph-name="uni1E57" unicode="&#x1e57;" horiz-adv-x="479" 
d="M445 243l-3 -29c-22 -160 -61 -225 -175 -225c-29 0 -52 1 -96 12l-22 -190h-115l77 688h92c1 -12 3 -22 5 -34c48 24 88 40 123 40c100 0 134 -77 114 -262zM324 217c15 139 15 194 -21 194c-23 0 -51 -10 -91 -30l-32 -294c105 -27 130 -2 144 130zM238 625
c7 57 15 67 75 67c59 0 67 -9 60 -67c-6 -55 -14 -69 -74 -69c-61 0 -67 13 -61 69z" />
    <glyph glyph-name="wacute" unicode="&#x1e83;" horiz-adv-x="690" 
d="M122 0l-46 500h116l25 -306l111 306h124l45 -306l93 306h115l-155 -500h-133l-46 323l-115 -323h-134zM471 768l70 -43l-113 -175l-66 42z" />
    <glyph glyph-name="uni1E60" unicode="&#x1e60;" 
d="M208 516c-14 -125 290 -127 266 -344c-14 -127 -100 -182 -204 -182c-86 0 -144 5 -205 10l10 95s119 -11 199 -11c48 0 72 23 78 77c15 134 -288 133 -266 337c14 128 97 182 203 182c109 0 164 -5 206 -9l-11 -97s-122 13 -199 13c-46 0 -72 -22 -77 -71zM268 795
c6 57 15 67 75 67c58 0 66 -9 60 -67c-6 -55 -14 -69 -75 -69c-60 0 -66 13 -60 69z" />
    <glyph glyph-name="ygrave" unicode="&#x1ef3;" horiz-adv-x="471" 
d="M212 726l80 43l69 -176l-76 -42zM55 -162l25 54c29 -8 31 -8 32 -8c35 0 63 84 81 116h-22l-96 500h118l62 -326l131 326h115l-241 -588c-31 -69 -76 -104 -122 -104c-26 0 -55 8 -83 30z" />
    <glyph glyph-name="Wdieresis" unicode="&#x1e84;" horiz-adv-x="823" 
d="M351 782c5 50 12 59 62 59c49 0 56 -8 50 -59c-5 -45 -12 -57 -63 -57c-50 0 -54 11 -49 57zM514 782c5 50 11 59 61 59s57 -8 51 -59c-5 -45 -10 -57 -64 -57c-50 0 -54 11 -48 57zM250 135l174 534h111l49 -536l163 534h116l-206 -667h-155l-47 467l-156 -467h-148
l-65 667h117z" />
    <glyph glyph-name="wdieresis" unicode="&#x1e85;" horiz-adv-x="693" 
d="M122 0l-46 500h116l25 -306l111 306h124l45 -306l93 306h115l-155 -500h-133l-46 323l-115 -323h-134zM268 609c6 50 13 59 63 59c49 0 56 -8 50 -59c-5 -45 -13 -57 -63 -57c-51 0 -54 11 -50 57zM431 609c5 50 12 59 62 59c51 0 57 -8 51 -59c-5 -45 -11 -57 -64 -57
c-51 0 -53 11 -49 57z" />
    <glyph glyph-name="uni1E61" unicode="&#x1e61;" horiz-adv-x="428" 
d="M189 378c-8 -69 227 -76 208 -241c-11 -97 -82 -140 -169 -140c-91 0 -171 11 -171 11l10 88s77 -10 153 -10c33 0 54 10 57 42c9 81 -225 75 -206 240c11 98 81 141 168 141c92 0 172 -11 172 -11l-10 -89s-90 10 -168 10c-27 0 -41 -13 -44 -41zM204 622
c7 57 15 67 75 67c58 0 67 -9 60 -67c-6 -55 -15 -69 -75 -69c-61 0 -66 13 -60 69z" />
    <glyph glyph-name="Wcircumflex" unicode="&#x174;" horiz-adv-x="823" 
d="M639 793l-58 -66l-89 89l-115 -87l-37 66l166 132zM250 135l174 534h111l49 -536l163 534h116l-206 -667h-155l-47 467l-156 -467h-148l-65 667h117z" />
    <glyph glyph-name="uni1E6A" unicode="&#x1e6a;" horiz-adv-x="518" 
d="M311 0h-121l63 573h-176l10 94h473l-10 -94h-176zM272 798c6 57 15 67 75 67c59 0 67 -9 60 -67c-6 -55 -15 -69 -75 -69s-66 13 -60 69z" />
    <glyph glyph-name="Ycircumflex" unicode="&#x176;" horiz-adv-x="521" 
d="M310 0h-122l23 212l-143 456h134l85 -315l158 315h134l-246 -456zM486 795l-58 -66l-89 89l-115 -87l-37 66l167 132z" />
    <glyph glyph-name="wcircumflex" unicode="&#x175;" horiz-adv-x="690" 
d="M122 0l-46 500h116l25 -306l111 306h124l45 -306l93 306h115l-155 -500h-133l-46 323l-115 -323h-134zM558 614l-58 -66l-89 89l-115 -87l-37 66l166 132z" />
    <glyph glyph-name="uni1E6B" unicode="&#x1e6b;" horiz-adv-x="377" 
d="M191 742c6 57 14 67 74 67c59 0 67 -9 61 -67c-7 -55 -16 -69 -76 -69s-66 13 -59 69zM271 -9c-112 0 -139 45 -139 123c0 21 2 44 30 302h-99c3 28 7 58 10 84h100c4 39 9 81 13 121h114l-14 -121h101c-3 -27 -7 -57 -10 -84h-102l-30 -295c0 -39 14 -44 40 -46
c14 -1 34 -1 65 5c-4 -28 -4 -52 -7 -79c-33 -8 -56 -10 -72 -10z" />
    <glyph glyph-name="ycircumflex" unicode="&#x177;" horiz-adv-x="471" 
d="M451 618l-58 -66l-89 89l-114 -87l-37 66l166 132zM55 -162l25 54c29 -8 31 -8 32 -8c35 0 63 84 81 116h-22l-96 500h118l62 -326l131 326h115l-241 -588c-31 -69 -76 -104 -122 -104c-26 0 -55 8 -83 30z" />
    <glyph glyph-name="lessequal" unicode="&#x2264;" horiz-adv-x="547" 
d="M491 245l-391 180l7 65l432 180l-12 -104l-277 -108l252 -109zM66 112l10 97h410l-11 -97h-409z" />
    <glyph glyph-name="greaterequal" unicode="&#x2265;" horiz-adv-x="547" 
d="M520 425l-431 -180l11 104l277 109l-254 108l12 104l392 -180zM495 209l-11 -97h-409l10 97h410z" />
    <glyph glyph-name="ampersand.salt" horiz-adv-x="579" 
d="M489 159l79 -159h-134l-36 68c-46 -41 -96 -84 -170 -84c-113 0 -191 100 -181 194c11 101 92 166 164 221l-15 40c-12 34 -27 80 -23 109c11 98 75 123 160 120l182 -6l-9 -80l-162 2c-28 0 -42 -13 -44 -37c-8 -60 88 -204 136 -298l47 43l58 -83zM340 166
c-24 44 -47 88 -72 133c-38 -31 -88 -67 -93 -109c-5 -47 34 -89 64 -89c33 0 58 29 101 65z" />
    </font>
</defs>
</svg>
