<svg height="512pt" fill="#121212" viewBox="-11 0 512 512" width="512pt" xmlns="http://www.w3.org/2000/svg"><path d="m166.28125 98.636719h-89.523438c-8.285156 0-15 6.714843-15 15 0 8.285156 6.714844 15 15 15h89.519532c8.285156 0 15-6.714844 15-15 0-8.285157-6.714844-15-14.996094-15zm0 0"/><path d="m166.28125 158.640625h-89.523438c-8.285156 0-15 6.714844-15 15s6.714844 15 15 15h89.519532c8.285156 0 15-6.714844 15-15s-6.714844-15-14.996094-15zm0 0"/><path d="m166.28125 218.644531h-89.523438c-8.285156 0-15 6.714844-15 15 0 8.285157 6.714844 15 15 15h89.519532c8.285156 0 15-6.714843 15-15 0-8.285156-6.714844-15-14.996094-15zm0 0"/><path d="m166.28125 278.648438h-89.523438c-8.285156 0-15 6.714843-15 15 0 8.285156 6.714844 15 15 15h89.519532c8.285156 0 15-6.714844 15-15 0-8.285157-6.714844-15-14.996094-15zm0 0"/><path d="m166.28125 339.65625h-89.523438c-8.285156 0-15 6.71875-15 15 0 8.285156 6.714844 15 15 15h89.519532c8.285156 0 15-6.714844 15-15 0-8.28125-6.714844-15-14.996094-15zm0 0"/><path d="m216.660156 128.636719h89.519532c8.285156 0 15-6.714844 15-15 0-8.285157-6.714844-15-15-15h-89.519532c-8.285156 0-15 6.714843-15 15 0 8.285156 6.714844 15 15 15zm0 0"/><path d="m216.660156 188.640625h89.519532c8.285156 0 15-6.714844 15-15s-6.714844-15-15-15h-89.519532c-8.285156 0-15 6.714844-15 15s6.714844 15 15 15zm0 0"/><path d="m274.773438 233.644531c0-8.285156-6.714844-15-15-15h-43.113282c-8.285156 0-15 6.714844-15 15 0 8.285157 6.714844 15 15 15h43.113282c8.285156 0 15-6.714843 15-15zm0 0"/><path d="m408.6875 345.507812c-5.796875-5.917968-15.292969-6.023437-21.214844-.226562l-21.511718 21.066406-21.515626-21.066406c-5.917968-5.792969-15.417968-5.695312-21.210937.226562-5.796875 5.917969-5.695313 15.414063.222656 21.210938l21.0625 20.621094-21.0625 20.621094c-5.917969 5.796874-6.019531 15.292968-.222656 21.210937 2.9375 3 6.824219 4.507813 10.71875 4.507813 3.785156 0 7.574219-1.425782 10.492187-4.285157l21.515626-21.0625 21.511718 21.0625c2.921875 2.859375 6.707032 4.285157 10.496094 4.285157 3.890625 0 7.777344-1.507813 10.71875-4.507813 5.792969-5.917969 5.695312-15.417969-.226562-21.210937l-21.058594-20.621094 21.058594-20.621094c5.921874-5.796875 6.019531-15.292969.226562-21.210938zm0 0"/><path d="m454.785156 299.941406c-19.539062-19.882812-44.644531-32.414062-71.847656-36.105468v-203.425782c0-33.308594-27.101562-60.410156-60.410156-60.410156h-262.113282c-33.3125 0-60.414062 27.101562-60.414062 60.410156v347.472656c0 33.3125 27.101562 60.414063 60.410156 60.414063h210.816406c23.722657 27.867187 57.832032 43.703125 94.734376 43.703125 68.691406 0 124.574218-55.921875 124.574218-124.660156 0-32.90625-12.695312-63.945313-35.75-87.398438zm-424.785156 107.941406v-347.472656c0-16.765625 13.644531-30.410156 30.414062-30.410156h262.113282c16.769531 0 30.410156 13.644531 30.410156 30.410156v202.949219c-62.59375 6.535156-111.550781 59.640625-111.550781 123.980469 0 17.832031 3.71875 35.074218 10.851562 50.953125h-191.824219c-16.769531 0-30.414062-13.640625-30.414062-30.410157zm335.960938 74.117188c-29.957032 0-57.496094-13.753906-75.5625-37.730469-12.4375-16.507812-19.011719-36.195312-19.011719-56.929687 0-52.195313 42.425781-94.660156 94.574219-94.660156.492187 0 .988281.007812 1.480468.015624l.230469.003907c24.894531.441406 48.234375 10.480469 65.71875 28.269531 17.503906 17.808594 27.144531 41.382812 27.144531 66.371094 0 52.195312-42.425781 94.660156-94.574218 94.660156zm0 0"/></svg>