<svg width="604" height="514" viewBox="0 0 604 514" fill="none" xmlns="http://www.w3.org/2000/svg">
<path d="M473.352 394.665C516.056 352.549 485.64 327.57 504.568 279.147C523.495 230.723 560.461 200.777 539.986 145.733C519.511 90.6892 385.867 36.1133 246.883 68.4459C107.899 100.778 110.627 172.03 117.682 198.359C124.737 224.688 139.253 233.069 124.018 261.691C108.783 290.312 50.5321 291.197 57.9027 347.707C65.2733 404.216 124.534 417.785 156.249 423.193C187.964 428.601 252.655 410.858 299.004 415.615C345.354 420.372 370.498 444.31 419.772 428.244C449.305 417.876 460.16 408.015 473.352 394.664V394.665Z" fill="#F5F8FF"/>
<path d="M297.494 191.247L321.919 138.406C318.429 134.082 314.46 130.587 310.012 127.92C305.564 125.254 298.743 122.28 289.548 119L189 177.913C198.487 180.282 205.224 182.847 209.212 185.608C213.199 188.369 216.985 193.09 220.568 199.771L297.494 191.247Z" fill="url(#paint0_linear)"/>
<path style="mix-blend-mode:color-burn" opacity="0.318806" d="M306.028 308.062C302.596 298.379 297.597 290.378 291.03 284.059C284.463 277.74 274.302 271.152 260.547 264.295C252.196 255.355 247.023 248.108 245.027 242.552C243.031 236.997 242.49 228.338 243.404 216.576C243.518 207.687 242.498 201.218 240.344 197.167C238.19 193.115 233.229 188.336 225.461 182.828C228.565 179.36 230.113 176.591 230.105 174.521C230.096 172.451 228.526 169.939 225.395 166.984L283.901 130.426C287.105 135.199 289.83 137.8 292.075 138.226C294.32 138.653 298.092 137.289 303.391 134.132C311.764 141.731 317.049 148.537 319.245 154.552C321.442 160.566 322.663 171.572 322.907 187.569C327.411 200.837 332.277 210.383 337.504 216.207C341.264 220.397 349.105 225.13 361.026 230.406C370.669 234.673 376.945 244.162 377.097 254.706L377.226 263.573L306.028 308.062Z" fill="url(#paint1_linear)"/>
<path d="M274.231 187.27C274.231 187.27 270.412 178.847 276.228 162.873C277.883 158.325 283.139 150.193 291.995 138.476L383.529 117C373.721 126.986 367.289 135.023 364.23 141.111C361.172 147.199 359.925 154.453 360.487 162.873C302.983 179.137 274.231 187.27 274.231 187.27Z" fill="url(#paint2_linear)"/>
<path style="mix-blend-mode:color-burn" opacity="0.623828" d="M367.689 249.908C364.723 243.082 363.419 236.373 363.776 229.78C364.133 223.188 366.262 214.678 370.162 204.249C370.17 195.386 369.33 188.99 367.643 185.061C365.955 181.132 361.964 176.277 355.668 170.496C351.216 165.844 348.56 161.912 347.7 158.701C346.84 155.491 347.107 150.507 348.501 143.751C345.143 143.448 342.955 142.745 341.937 141.644C340.919 140.543 340.509 138.437 340.708 135.324L291.649 144.861C292.309 148.973 292.151 151.697 291.172 153.032C290.194 154.367 287.521 155.508 283.154 156.454C282.472 164.616 283.035 170.833 284.843 175.105C286.65 179.377 291.441 185.811 299.215 194.408C303.384 203.662 305.522 211.124 305.631 216.792C305.697 220.265 304.39 225.407 301.71 232.22C297.953 241.77 299.936 252.624 306.825 260.23L307.987 261.512L367.689 249.908Z" fill="url(#paint3_linear)"/>
<g filter="url(#filter0_d)">
<path d="M268.878 355.576L409.625 317.881C413.359 316.881 415.576 313.043 414.575 309.308C414.574 309.303 414.573 309.298 414.571 309.293L375.42 164.39C374.411 160.658 370.568 158.45 366.836 159.458C366.757 159.479 366.679 159.502 366.601 159.526C312.783 176.108 272.648 187.483 246.195 193.651C235.115 196.912 225.717 196.912 218 193.651L260.308 350.636C261.313 354.364 265.147 356.575 268.878 355.576Z" fill="url(#paint4_linear)"/>
<path opacity="0.127958" d="M222 215.784L361.015 177L399 307.624L257.938 346L222 215.784Z" fill="#AFCAF0"/>
<mask id="mask0" mask-type="alpha" maskUnits="userSpaceOnUse" x="225" y="186" width="190" height="159">
<path d="M258.983 344.161L414.298 302.847L381.569 186C324.198 203.745 281.71 215.831 254.107 222.261C243.016 225.521 233.314 225.521 225 222.261L258.983 344.161Z" fill="white"/>
</mask>
<g mask="url(#mask0)">
<path d="M258.983 344.161L414.298 302.847L381.569 186C324.198 203.745 281.71 215.831 254.107 222.261C243.016 225.521 233.314 225.521 225 222.261L258.983 344.161Z" fill="#63A5FF" fill-opacity="0.33"/>
<path opacity="0.0859375" d="M265.95 189.532L297.179 195.602L266.841 351.681L235.611 345.611L265.95 189.532Z" fill="white"/>
<path opacity="0.0859375" d="M362.699 148.964L440.773 164.14L401.175 367.851L323.102 352.675L362.699 148.964Z" fill="white"/>
<path opacity="0.0859375" d="M252.425 186.707L261.831 188.535L231.492 344.613L222.087 342.785L252.425 186.707Z" fill="white"/>
<path opacity="0.371094" d="M390.044 221L326.912 237.051C324.236 237.731 322.618 240.452 323.298 243.129C323.31 243.175 323.322 243.221 323.336 243.266L328.454 261.232C329.204 263.864 331.931 265.404 334.572 264.687L397 247.744L390.044 221Z" fill="#0E359A"/>
<path d="M388.028 209L317.833 227.984C315.168 228.705 313.591 231.45 314.312 234.116C314.318 234.137 314.324 234.159 314.33 234.18L319.47 252.229C320.226 254.885 322.992 256.424 325.648 255.668C325.65 255.667 325.652 255.667 325.655 255.666L395 235.816L388.028 209Z" fill="#1034A3"/>
<path d="M334.5 247C339.194 247 343 243.194 343 238.5C343 233.806 339.194 230 334.5 230C329.806 230 326 233.806 326 238.5C326 243.194 329.806 247 334.5 247Z" fill="#D7E5F8"/>
</g>
<mask id="mask1" mask-type="alpha" maskUnits="userSpaceOnUse" x="219" y="162" width="194" height="193">
<path d="M219.415 200.6L260.628 354.184L412.738 313.072L369.491 162.389L219.415 200.6Z" fill="white"/>
</mask>
<g mask="url(#mask1)">
<g opacity="0.610993">
<path opacity="0.610993" d="M262.459 348.48L402.99 314.116C406.745 313.198 409.045 309.409 408.127 305.654C408.1 305.545 408.071 305.438 408.039 305.33L369.245 174.236C368.159 170.564 364.323 168.447 360.637 169.484C306.725 184.653 266.531 195.056 240.055 200.693C228.984 203.668 219.593 203.668 211.883 200.693L254.083 343.662C255.141 347.247 258.829 349.368 262.459 348.48Z" stroke="black" stroke-width="2" stroke-dasharray="3 3"/>
</g>
</g>
</g>
<path opacity="0.395592" d="M288 198C302.912 198 315 185.912 315 171C315 156.088 302.912 144 288 144C273.088 144 261 156.088 261 171C261 185.912 273.088 198 288 198Z" fill="#1F273F"/>
<path d="M288 192C302.912 192 315 179.912 315 165C315 150.088 302.912 138 288 138C273.088 138 261 150.088 261 165C261 179.912 273.088 192 288 192Z" fill="#FFAA17"/>
<path d="M286.081 174.936L286.631 176.988L289.227 176.292L288.677 174.241L288.85 174.194L290.317 173.801L290.866 175.853L293.462 175.157L292.906 173.082C293.814 172.819 294.461 172.618 294.78 172.496C295.592 172.183 296.234 171.758 296.701 171.217C297.169 170.677 297.479 170.039 297.638 169.304C297.793 168.568 297.78 167.858 297.597 167.174C297.364 166.305 296.904 165.617 296.222 165.111C295.539 164.605 294.686 164.344 293.665 164.332C294.26 163.857 294.675 163.271 294.911 162.578C295.147 161.885 295.17 161.184 294.981 160.479C294.807 159.829 294.491 159.284 294.031 158.846C293.571 158.408 293.06 158.096 292.497 157.91C291.934 157.722 291.336 157.661 290.703 157.725C290.251 157.77 289.639 157.887 288.883 158.068L288.286 155.839L285.69 156.534L286.284 158.75L284.817 159.142L284.644 159.189L284.05 156.974L281.454 157.669L282.048 159.884L281.668 159.986L279.278 160.627L279.949 163.132L282.339 162.492L285.03 172.533L282.64 173.173L283.311 175.679L285.701 175.038L286.081 174.937V174.936ZM285.488 161.648L287.298 161.163C288.78 160.766 289.682 160.543 290.002 160.493C290.543 160.414 290.987 160.484 291.332 160.704C291.673 160.922 291.908 161.266 292.033 161.73C292.163 162.217 292.115 162.652 291.886 163.031C291.658 163.412 291.281 163.706 290.759 163.91C290.469 164.025 289.712 164.247 288.486 164.576L286.421 165.129L285.489 161.648H285.488ZM287.092 167.633L289.635 166.952C291.067 166.568 292.019 166.392 292.485 166.419C292.953 166.448 293.342 166.59 293.653 166.845C293.966 167.098 294.183 167.451 294.305 167.904C294.447 168.436 294.412 168.903 294.204 169.299C293.994 169.697 293.668 169.999 293.221 170.207C292.932 170.35 292.221 170.574 291.086 170.878L288.171 171.659L287.092 167.633Z" fill="#A26907"/>
<path d="M288.5 185C299.27 185 308 176.27 308 165.5C308 154.73 299.27 146 288.5 146C277.73 146 269 154.73 269 165.5C269 176.27 277.73 185 288.5 185Z" stroke="#A26907" stroke-width="2"/>
<defs>
<filter id="filter0_d" x="174" y="127.214" width="284.815" height="284.602" filterUnits="userSpaceOnUse" color-interpolation-filters="sRGB">
<feFlood flood-opacity="0" result="BackgroundImageFix"/>
<feColorMatrix in="SourceAlpha" type="matrix" values="0 0 0 0 0 0 0 0 0 0 0 0 0 0 0 0 0 0 127 0"/>
<feOffset dy="12"/>
<feGaussianBlur stdDeviation="22"/>
<feColorMatrix type="matrix" values="0 0 0 0 0 0 0 0 0 0 0 0 0 0 0 0 0 0 0.148522 0"/>
<feBlend mode="normal" in2="BackgroundImageFix" result="effect1_dropShadow"/>
<feBlend mode="normal" in="SourceGraphic" in2="effect1_dropShadow" result="shape"/>
</filter>
<linearGradient id="paint0_linear" x1="257.898" y1="150.911" x2="265.848" y2="167.397" gradientUnits="userSpaceOnUse">
<stop stop-color="#62F1C5"/>
<stop offset="1" stop-color="#46A99F"/>
</linearGradient>
<linearGradient id="paint1_linear" x1="251.993" y1="150.364" x2="338.035" y2="288.062" gradientUnits="userSpaceOnUse">
<stop stop-color="#1E62D5"/>
<stop offset="1" stop-color="#09279A"/>
</linearGradient>
<linearGradient id="paint2_linear" x1="330.292" y1="144.064" x2="332.671" y2="157.59" gradientUnits="userSpaceOnUse">
<stop stop-color="#62F1C5"/>
<stop offset="1" stop-color="#46A99F"/>
</linearGradient>
<linearGradient id="paint3_linear" x1="318.405" y1="139.66" x2="340.849" y2="255.125" gradientUnits="userSpaceOnUse">
<stop stop-color="#1E62D5"/>
<stop offset="1" stop-color="#09279A"/>
</linearGradient>
<linearGradient id="paint4_linear" x1="307.119" y1="328.9" x2="297.574" y2="182.78" gradientUnits="userSpaceOnUse">
<stop stop-color="#2A83F6"/>
<stop offset="1" stop-color="#1240B3"/>
</linearGradient>
</defs>
</svg>
