<svg width="809" height="400" viewBox="0 0 809 400" fill="none" xmlns="http://www.w3.org/2000/svg">
<path fill-rule="evenodd" clip-rule="evenodd" d="M419.188 239.259C419.292 239.275 419.399 239.283 419.508 239.283C423.471 239.34 426.3 239.379 427.997 239.4L410.534 269.615L394.273 241.473H402.936L410.452 255.134L419.188 239.259ZM430.54 228.209C433.45 228.209 433.712 229.099 433.319 232.714C432.912 236.367 432.427 237.205 429.544 237.205C426.661 237.205 426.412 236.262 426.805 232.714C427.225 229.06 427.709 228.209 430.54 228.209ZM368.995 228.183C368.995 228.183 370.476 228.143 371.773 228.34L371.616 229.715C370.2 229.597 369.1 229.649 368.929 229.649C367.894 229.649 367.855 230.304 367.54 233.172L367.501 233.499C367.291 235.398 367.671 235.725 368.667 235.725H368.903L369.1 234.023H368.051L368.208 232.661H371.38L370.921 236.865C370.069 237.113 369.1 237.192 368.274 237.192C365.915 237.192 364.84 236.76 365.234 233.119C365.653 229.361 366.19 228.183 368.995 228.183ZM411.265 234.953C412.222 234.953 412.34 235.071 412.235 236.013C412.143 236.904 412.025 237.127 411.029 237.127C410.033 237.127 409.968 236.917 410.06 236.013C410.165 235.11 410.269 234.953 411.265 234.953ZM423.674 228.34C425.312 228.34 426.597 228.798 426.4 230.618L426.295 231.6C426.23 232.255 425.902 232.792 425.312 233.29L425.535 237.074H423.32L423.176 233.918H421.997L421.656 237.074H419.48L420.437 228.34H423.674ZM416.847 228.34C418.499 228.34 419.783 228.798 419.573 230.618L419.468 231.6C419.324 232.818 418.315 233.669 417.122 233.866C416.884 233.911 416.674 233.917 415.698 233.918L415.196 233.918L414.855 237.074H412.68L413.636 228.34H416.847ZM411.371 228.34L411.214 229.885H408.999L408.213 237.074H406.024L406.811 229.885H404.622L404.779 228.34H411.371ZM404.676 228.327L404.492 229.898H401.085L400.875 231.836H403.994L403.824 233.421H400.691L400.456 235.516H403.863L403.706 237.074H398.149L399.119 228.327H404.676ZM395.031 228.327C396.735 228.327 398.229 228.523 397.993 230.618L397.94 231.181C397.862 231.823 397.534 232.295 397.115 232.635C397.482 233.106 397.639 233.8 397.6 234.272L397.534 234.796C397.338 236.603 396.289 237.074 394.074 237.074H391.558L392.528 228.327H395.031ZM387.365 228.327L388.217 231.98L389.934 228.327H392.28L389.03 234.56L388.768 237.074H386.566L386.841 234.56L385.019 228.327H387.365ZM384.169 228.34L385.492 237.074H383.422L383.094 234.756H380.656L379.896 237.074H377.786L380.945 228.34H384.169ZM375.809 228.34C377.447 228.34 378.731 228.798 378.534 230.618L378.43 231.6C378.364 232.255 378.036 232.792 377.447 233.29L377.67 237.074H375.455L375.311 233.918H374.131L373.79 237.074H371.615L372.571 228.34H375.809ZM363.332 216.29C364.053 218.556 365.147 220.582 366.667 222.38C366.973 222.743 367.292 223.091 367.623 223.424L366.007 226.219C364.908 226.494 364.048 227.052 363.394 227.982C362.663 229.024 362.337 230.267 362.069 232.491L362.055 232.615L362.02 232.917C361.888 234.141 361.887 235.157 362.061 236.012L351.935 236.012L363.332 216.29ZM455.045 208.406L471 236.012L436.241 236.012L440.445 228.734L458.38 228.734L449.629 213.593C450.24 213.133 450.866 212.626 451.554 212.071C452.899 210.984 454.063 209.757 455.045 208.406ZM430.418 229.689L430.383 229.689C429.335 229.689 429.23 230.212 428.941 232.714C428.666 235.175 428.666 235.712 429.701 235.712C430.763 235.712 430.907 235.28 431.196 232.714C431.471 230.16 431.445 229.689 430.383 229.689L430.418 229.689ZM394.939 233.539H394.087L393.851 235.634H394.271C394.939 235.634 395.306 235.411 395.385 234.704L395.437 234.259C395.503 233.656 395.267 233.539 394.939 233.539ZM382.413 229.898L381.272 233.119H382.858L382.413 229.898ZM423.477 229.806H422.468L422.167 232.399L423.202 232.399C423.65 232.396 424.043 232.294 424.12 231.6L424.238 230.631C424.342 229.898 423.897 229.806 423.477 229.806ZM416.677 229.806H415.668L415.366 232.399L416.403 232.399C416.863 232.396 417.255 232.294 417.332 231.6L417.437 230.631C417.529 229.898 417.109 229.806 416.677 229.806ZM375.612 229.806H374.603L374.301 232.399L375.337 232.399C375.785 232.396 376.177 232.294 376.254 231.6L376.372 230.631C376.477 229.898 376.031 229.806 375.612 229.806ZM394.913 229.78H394.507L394.271 231.862H395.123C395.45 231.862 395.726 231.731 395.778 231.142L395.83 230.723C395.922 229.846 395.568 229.78 394.913 229.78ZM398.315 177.985C398.671 178.026 399.02 178.069 399.365 178.115L411.089 178.115C412.577 178.116 415.448 178.133 419.704 178.165H437.628C442.184 178.165 445.891 178.942 448.896 181.034C452.857 183.791 454.612 188.257 454.069 193.617L453.648 197.61C453.167 201.932 451.45 205.431 448.534 207.917C446.18 209.924 443.361 211.053 439.976 211.658L439.51 211.74C438.675 211.883 438.001 211.947 436.413 211.975L436.24 211.978L434.929 224.264H414.652C411.692 224.259 409.27 224.259 407.387 224.264L407.198 224.264L391.66 224.264C389.569 224.552 387.567 224.717 385.88 224.717L385.562 224.716C382.731 224.704 380.635 224.533 378.691 224.063C375.815 223.368 373.428 222.006 371.646 219.78C369.929 217.634 369.016 214.988 368.684 211.783C368.413 209.165 368.515 206.041 368.955 202.102L369.102 200.804C369.525 197.115 369.852 194.791 370.274 192.668L370.305 192.509C370.959 189.269 371.818 186.752 373.149 184.605C374.777 181.977 377.044 180.076 379.939 178.934C382.362 177.978 385.122 177.575 388.525 177.562L388.617 177.562L388.934 177.556C391.726 177.516 395.048 177.616 398.315 177.985ZM390.124 183.834H389.648C389.048 183.836 388.699 183.846 388.699 183.846C377.876 183.846 376.819 188.37 375.208 202.798C373.663 216.634 376.756 218.398 385.61 218.432L385.88 218.433L386.032 218.432C387.58 218.421 389.445 218.241 391.341 217.961L391.657 217.914C393.071 217.697 394.493 217.427 395.804 217.131L396.048 217.075L397.861 200.637H386.484L385.93 205.463H390.31L389.555 212.652L388.694 212.684C387.689 212.719 386.737 212.741 386.031 212.702C383.34 212.503 382.03 211.22 382.786 204.463L382.809 204.256L382.91 202.999L383.125 201.126C384.195 191.833 384.598 189.82 388.23 189.778L388.451 189.777C388.866 189.77 389.883 189.735 391.331 189.733L391.681 189.734C392.512 189.736 393.468 189.75 394.523 189.785L394.762 189.794C395.904 189.836 397.155 189.903 398.482 190.01L398.716 190.029L399.27 184.449L399.122 184.427C397.988 184.258 396.821 184.136 395.696 184.049L395.322 184.021L394.943 183.995C393.018 183.868 391.276 183.837 390.124 183.834ZM437.628 184.449H425.345L421.671 217.98H429.272L430.581 205.714L433.506 205.713C436.943 205.707 437.74 205.675 438.635 205.513C440.244 205.242 441.742 204.816 443.033 204.108L443.157 204.038L443.184 204.023C445.385 202.762 446.952 200.646 447.381 197.027L447.394 196.916L447.796 193.096L447.817 192.891C448.449 186.241 443.802 184.484 437.81 184.449L437.628 184.449ZM411.115 184.399H401.611L397.886 217.98H407.198L407.448 217.98C410.755 217.965 413.355 217.656 415.329 216.846L415.476 216.784C418.265 215.585 419.768 213.344 420.223 209.452L420.236 209.334L420.488 207.323L420.496 207.242C420.671 205.287 420.013 202.575 418.474 200.988C420.192 199.714 421.431 198.058 421.772 195.46L421.785 195.359L422.048 193.096L422.074 192.86C422.835 185.215 417.413 184.414 411.115 184.399ZM410.621 204.156C412.182 204.156 413.239 204.709 412.987 207.272L412.736 209.032C412.484 211.747 411.075 212.702 408.407 212.702H408.004L405.99 212.652L406.896 204.156H410.621ZM436.974 189.677C438.887 189.677 440.749 190.079 440.346 193.146L439.944 196.916C439.645 199.853 437.816 200.276 435.875 200.284L431.235 200.285L432.393 189.677H436.974ZM414.447 193.498L414.296 195.157C413.994 197.62 412.887 198.274 411.276 198.274H407.551L408.507 189.577H410.571C413.34 189.577 414.85 189.828 414.447 193.498ZM385.753 166.603L381.545 173.887L363.622 173.888L368.253 181.898C368.069 182.147 367.892 182.402 367.721 182.663C366.315 184.814 365.317 187.191 364.56 190.068L351 166.604L385.753 166.603ZM418.107 166.593L418.107 166.607H435.055L435.055 166.603L470.07 166.604L458.438 186.731C457.594 184.074 456.135 181.692 454.084 179.709L457.449 173.889L438.754 173.889C438.16 173.862 437.553 173.847 436.934 173.844L436.737 173.844H413.446L413.444 173.862L413.251 173.853C412.362 173.814 411.407 173.797 410.343 173.797C407.754 173.762 405.316 173.738 403.028 173.726L407.148 166.593H418.107ZM411.469 133L427.728 161.143H418.962L411.469 147.563L403.811 161.441L396.716 173.724C393.33 173.742 390.38 173.793 387.864 173.877L394.643 162.141L394.631 162.134L411.469 133Z" fill="black"/>
<mask id="path-2-inside-1" fill="white">
<path d="M610.899 193.626C609.243 141.706 587.452 92.4678 550.137 56.33C512.821 20.1921 462.91 -0.00950761 410.964 3.35232e-06L410.979 84.3972C441.005 84.3917 469.854 96.0686 491.423 116.957C512.992 137.845 525.587 166.305 526.544 196.316L610.899 193.626Z"/>
</mask>
<path d="M610.899 193.626C609.243 141.706 587.452 92.4678 550.137 56.33C512.821 20.1921 462.91 -0.00950761 410.964 3.35232e-06L410.979 84.3972C441.005 84.3917 469.854 96.0686 491.423 116.957C512.992 137.845 525.587 166.305 526.544 196.316L610.899 193.626Z" stroke="black" stroke-width="6" mask="url(#path-2-inside-1)"/>
<mask id="path-3-inside-2" fill="white">
<path d="M247.388 84.9735C266.148 58.2895 291.15 36.5988 320.215 21.7923C349.279 6.98576 381.524 -0.487258 414.139 0.0246286L412.814 84.4115C393.963 84.1156 375.325 88.4351 358.525 96.9935C341.725 105.552 327.274 118.089 316.43 133.513L247.388 84.9735Z"/>
</mask>
<path d="M247.388 84.9735C266.148 58.2895 291.15 36.5988 320.215 21.7923C349.279 6.98576 381.524 -0.487258 414.139 0.0246286L412.814 84.4115C393.963 84.1156 375.325 88.4351 358.525 96.9935C341.725 105.552 327.274 118.089 316.43 133.513L247.388 84.9735Z" stroke="black" stroke-width="6" mask="url(#path-3-inside-2)"/>
<mask id="path-4-inside-3" fill="white">
<path d="M220.789 261.803C211.036 231.786 208.525 199.887 213.463 168.713C218.4 137.54 230.645 107.977 249.197 82.443L317.476 132.05C306.752 146.81 299.675 163.897 296.821 181.916C293.967 199.934 295.418 218.373 301.055 235.723L220.789 261.803Z"/>
</mask>
<path d="M220.789 261.803C211.036 231.786 208.525 199.887 213.463 168.713C218.4 137.54 230.645 107.977 249.197 82.443L317.476 132.05C306.752 146.81 299.675 163.897 296.821 181.916C293.967 199.934 295.418 218.373 301.055 235.723L220.789 261.803Z" stroke="black" stroke-width="6" mask="url(#path-4-inside-3)"/>
<mask id="path-5-inside-4" fill="white">
<path d="M610.744 189.871C613.214 238.593 597.792 286.538 567.379 324.682C536.966 362.827 493.66 388.54 445.612 396.982C397.563 405.425 348.086 396.015 306.491 370.522C264.897 345.03 234.054 305.215 219.768 258.569L300.465 233.854C308.723 260.815 326.551 283.83 350.593 298.564C374.635 313.299 403.233 318.738 431.006 313.859C458.779 308.979 483.81 294.116 501.389 272.068C518.968 250.02 527.883 222.307 526.455 194.145L610.744 189.871Z"/>
</mask>
<path d="M610.744 189.871C613.214 238.593 597.792 286.538 567.379 324.682C536.966 362.827 493.66 388.54 445.612 396.982C397.563 405.425 348.086 396.015 306.491 370.522C264.897 345.03 234.054 305.215 219.768 258.569L300.465 233.854C308.723 260.815 326.551 283.83 350.593 298.564C374.635 313.299 403.233 318.738 431.006 313.859C458.779 308.979 483.81 294.116 501.389 272.068C518.968 250.02 527.883 222.307 526.455 194.145L610.744 189.871Z" stroke="black" stroke-width="6" mask="url(#path-5-inside-4)"/>
<line x1="559.297" y1="69.0821" x2="586.582" y2="41.7966" stroke="black" stroke-width="3"/>
<line x1="176.26" y1="163.672" x2="214.261" y2="170.373" stroke="black" stroke-width="3"/>
<line x1="257.383" y1="30.4916" x2="293.643" y2="43.6893" stroke="black" stroke-width="3"/>
<line x1="562.418" y1="330.797" x2="589.704" y2="358.082" stroke="black" stroke-width="3"/>
<line x1="585.706" y1="42" x2="791.706" y2="42" stroke="black" stroke-width="3"/>
<path d="M600.494 33V20.526H608.378V22.452H602.762V25.638H607.748V27.564H602.762V33H600.494ZM615.207 25.548C615.027 25.488 614.775 25.428 614.451 25.368C614.139 25.296 613.773 25.26 613.353 25.26C613.113 25.26 612.855 25.284 612.579 25.332C612.315 25.38 612.129 25.422 612.021 25.458V33H609.843V24.036C610.263 23.88 610.785 23.736 611.409 23.604C612.045 23.46 612.747 23.388 613.515 23.388C613.659 23.388 613.827 23.4 614.019 23.424C614.211 23.436 614.403 23.46 614.595 23.496C614.787 23.52 614.973 23.556 615.153 23.604C615.333 23.64 615.477 23.676 615.585 23.712L615.207 25.548ZM616.581 28.338C616.581 27.51 616.701 26.784 616.941 26.16C617.193 25.536 617.523 25.02 617.931 24.612C618.339 24.192 618.807 23.88 619.335 23.676C619.863 23.46 620.403 23.352 620.955 23.352C622.251 23.352 623.259 23.754 623.979 24.558C624.711 25.362 625.077 26.562 625.077 28.158C625.077 28.278 625.071 28.416 625.059 28.572C625.059 28.716 625.053 28.848 625.041 28.968H618.831C618.891 29.724 619.155 30.312 619.623 30.732C620.103 31.14 620.793 31.344 621.693 31.344C622.221 31.344 622.701 31.296 623.133 31.2C623.577 31.104 623.925 31.002 624.177 30.894L624.465 32.676C624.345 32.736 624.177 32.802 623.961 32.874C623.757 32.934 623.517 32.988 623.241 33.036C622.977 33.096 622.689 33.144 622.377 33.18C622.065 33.216 621.747 33.234 621.423 33.234C620.595 33.234 619.875 33.114 619.263 32.874C618.651 32.622 618.147 32.28 617.751 31.848C617.355 31.404 617.061 30.888 616.869 30.3C616.677 29.7 616.581 29.046 616.581 28.338ZM622.899 27.366C622.899 27.066 622.857 26.784 622.773 26.52C622.689 26.244 622.563 26.01 622.395 25.818C622.239 25.614 622.041 25.458 621.801 25.35C621.573 25.23 621.297 25.17 620.973 25.17C620.637 25.17 620.343 25.236 620.091 25.368C619.839 25.488 619.623 25.65 619.443 25.854C619.275 26.058 619.143 26.292 619.047 26.556C618.951 26.82 618.885 27.09 618.849 27.366H622.899ZM626.864 28.338C626.864 27.51 626.984 26.784 627.224 26.16C627.476 25.536 627.806 25.02 628.214 24.612C628.622 24.192 629.09 23.88 629.618 23.676C630.146 23.46 630.686 23.352 631.238 23.352C632.534 23.352 633.542 23.754 634.262 24.558C634.994 25.362 635.36 26.562 635.36 28.158C635.36 28.278 635.354 28.416 635.342 28.572C635.342 28.716 635.336 28.848 635.324 28.968H629.114C629.174 29.724 629.438 30.312 629.906 30.732C630.386 31.14 631.076 31.344 631.976 31.344C632.504 31.344 632.984 31.296 633.416 31.2C633.86 31.104 634.208 31.002 634.46 30.894L634.748 32.676C634.628 32.736 634.46 32.802 634.244 32.874C634.04 32.934 633.8 32.988 633.524 33.036C633.26 33.096 632.972 33.144 632.66 33.18C632.348 33.216 632.03 33.234 631.706 33.234C630.878 33.234 630.158 33.114 629.546 32.874C628.934 32.622 628.43 32.28 628.034 31.848C627.638 31.404 627.344 30.888 627.152 30.3C626.96 29.7 626.864 29.046 626.864 28.338ZM633.182 27.366C633.182 27.066 633.14 26.784 633.056 26.52C632.972 26.244 632.846 26.01 632.678 25.818C632.522 25.614 632.324 25.458 632.084 25.35C631.856 25.23 631.58 25.17 631.256 25.17C630.92 25.17 630.626 25.236 630.374 25.368C630.122 25.488 629.906 25.65 629.726 25.854C629.558 26.058 629.426 26.292 629.33 26.556C629.234 26.82 629.168 27.09 629.132 27.366H633.182ZM643.915 28.266C643.915 27.342 643.729 26.61 643.357 26.07C642.997 25.53 642.421 25.26 641.629 25.26C641.269 25.26 640.927 25.314 640.603 25.422C640.291 25.53 640.039 25.65 639.847 25.782V31.2C640.003 31.236 640.201 31.272 640.441 31.308C640.693 31.332 640.993 31.344 641.341 31.344C642.145 31.344 642.775 31.074 643.231 30.534C643.687 29.982 643.915 29.226 643.915 28.266ZM646.147 28.302C646.147 29.058 646.033 29.742 645.805 30.354C645.589 30.954 645.271 31.47 644.851 31.902C644.443 32.334 643.945 32.664 643.357 32.892C642.769 33.12 642.103 33.234 641.359 33.234C640.639 33.234 639.949 33.18 639.289 33.072C638.641 32.964 638.101 32.844 637.669 32.712V19.392L639.847 19.032V23.91C640.099 23.778 640.405 23.658 640.765 23.55C641.137 23.442 641.545 23.388 641.989 23.388C642.649 23.388 643.237 23.508 643.753 23.748C644.281 23.976 644.719 24.306 645.067 24.738C645.415 25.17 645.679 25.692 645.859 26.304C646.051 26.904 646.147 27.57 646.147 28.302ZM650.588 33H648.41V23.586H650.588V33ZM650.822 20.832C650.822 21.24 650.69 21.564 650.426 21.804C650.162 22.044 649.85 22.164 649.49 22.164C649.118 22.164 648.8 22.044 648.536 21.804C648.272 21.564 648.14 21.24 648.14 20.832C648.14 20.412 648.272 20.082 648.536 19.842C648.8 19.602 649.118 19.482 649.49 19.482C649.85 19.482 650.162 19.602 650.426 19.842C650.69 20.082 650.822 20.412 650.822 20.832ZM653.259 21.102L655.437 20.742V23.586H658.785V25.404H655.437V29.238C655.437 29.994 655.557 30.534 655.797 30.858C656.037 31.182 656.445 31.344 657.021 31.344C657.417 31.344 657.765 31.302 658.065 31.218C658.377 31.134 658.623 31.056 658.803 30.984L659.163 32.712C658.911 32.82 658.581 32.928 658.173 33.036C657.765 33.156 657.285 33.216 656.733 33.216C656.061 33.216 655.497 33.126 655.041 32.946C654.597 32.766 654.243 32.508 653.979 32.172C653.715 31.824 653.529 31.41 653.421 30.93C653.313 30.438 653.259 29.88 653.259 29.256V21.102ZM660.175 28.302C660.175 27.606 660.283 26.958 660.499 26.358C660.715 25.746 661.021 25.218 661.417 24.774C661.825 24.33 662.317 23.982 662.893 23.73C663.469 23.478 664.117 23.352 664.837 23.352C665.725 23.352 666.565 23.514 667.357 23.838L666.889 25.62C666.637 25.512 666.349 25.422 666.025 25.35C665.713 25.278 665.377 25.242 665.017 25.242C664.165 25.242 663.517 25.512 663.073 26.052C662.629 26.58 662.407 27.33 662.407 28.302C662.407 29.238 662.617 29.982 663.037 30.534C663.457 31.074 664.165 31.344 665.161 31.344C665.533 31.344 665.899 31.308 666.259 31.236C666.619 31.164 666.931 31.074 667.195 30.966L667.501 32.766C667.261 32.886 666.895 32.994 666.403 33.09C665.923 33.186 665.425 33.234 664.909 33.234C664.105 33.234 663.403 33.114 662.803 32.874C662.215 32.622 661.723 32.28 661.327 31.848C660.943 31.404 660.655 30.882 660.463 30.282C660.271 29.67 660.175 29.01 660.175 28.302ZM677.508 28.284C677.508 29.028 677.4 29.706 677.184 30.318C676.968 30.93 676.662 31.452 676.266 31.884C675.87 32.316 675.39 32.652 674.826 32.892C674.274 33.132 673.662 33.252 672.99 33.252C672.318 33.252 671.706 33.132 671.154 32.892C670.602 32.652 670.128 32.316 669.732 31.884C669.336 31.452 669.024 30.93 668.796 30.318C668.58 29.706 668.472 29.028 668.472 28.284C668.472 27.54 668.58 26.868 668.796 26.268C669.024 25.656 669.336 25.134 669.732 24.702C670.14 24.27 670.62 23.94 671.172 23.712C671.724 23.472 672.33 23.352 672.99 23.352C673.65 23.352 674.256 23.472 674.808 23.712C675.372 23.94 675.852 24.27 676.248 24.702C676.644 25.134 676.95 25.656 677.166 26.268C677.394 26.868 677.508 27.54 677.508 28.284ZM675.276 28.284C675.276 27.348 675.072 26.61 674.664 26.07C674.268 25.518 673.71 25.242 672.99 25.242C672.27 25.242 671.706 25.518 671.298 26.07C670.902 26.61 670.704 27.348 670.704 28.284C670.704 29.232 670.902 29.982 671.298 30.534C671.706 31.086 672.27 31.362 672.99 31.362C673.71 31.362 674.268 31.086 674.664 30.534C675.072 29.982 675.276 29.232 675.276 28.284ZM682.199 31.812C682.199 32.232 682.055 32.574 681.767 32.838C681.491 33.102 681.155 33.234 680.759 33.234C680.351 33.234 680.009 33.102 679.733 32.838C679.457 32.574 679.319 32.232 679.319 31.812C679.319 31.392 679.457 31.05 679.733 30.786C680.009 30.51 680.351 30.372 680.759 30.372C681.155 30.372 681.491 30.51 681.767 30.786C682.055 31.05 682.199 31.392 682.199 31.812ZM686.729 33H684.551V23.586H686.729V33ZM686.963 20.832C686.963 21.24 686.831 21.564 686.567 21.804C686.303 22.044 685.991 22.164 685.631 22.164C685.259 22.164 684.941 22.044 684.677 21.804C684.413 21.564 684.281 21.24 684.281 20.832C684.281 20.412 684.413 20.082 684.677 19.842C684.941 19.602 685.259 19.482 685.631 19.482C685.991 19.482 686.303 19.602 686.567 19.842C686.831 20.082 686.963 20.412 686.963 20.832ZM689.507 23.892C689.927 23.772 690.473 23.658 691.145 23.55C691.817 23.442 692.561 23.388 693.377 23.388C694.145 23.388 694.787 23.496 695.303 23.712C695.819 23.916 696.227 24.21 696.527 24.594C696.839 24.966 697.055 25.422 697.175 25.962C697.307 26.49 697.373 27.072 697.373 27.708V33H695.195V28.05C695.195 27.546 695.159 27.12 695.087 26.772C695.027 26.412 694.919 26.124 694.763 25.908C694.619 25.68 694.415 25.518 694.151 25.422C693.899 25.314 693.587 25.26 693.215 25.26C692.939 25.26 692.651 25.278 692.351 25.314C692.051 25.35 691.829 25.38 691.685 25.404V33H689.507V23.892ZM703.626 29.688C703.626 29.232 703.692 28.818 703.824 28.446C703.968 28.074 704.154 27.738 704.382 27.438C704.622 27.138 704.892 26.874 705.192 26.646C705.504 26.418 705.828 26.214 706.164 26.034C705.804 25.65 705.51 25.242 705.282 24.81C705.066 24.378 704.958 23.922 704.958 23.442C704.958 22.434 705.264 21.648 705.876 21.084C706.5 20.52 707.316 20.238 708.324 20.238C708.84 20.238 709.296 20.31 709.692 20.454C710.1 20.598 710.436 20.796 710.7 21.048C710.964 21.3 711.162 21.6 711.294 21.948C711.438 22.284 711.51 22.644 711.51 23.028C711.51 23.412 711.444 23.772 711.312 24.108C711.192 24.444 711.024 24.756 710.808 25.044C710.592 25.32 710.34 25.578 710.052 25.818C709.776 26.046 709.476 26.25 709.152 26.43L711.618 28.914C711.786 28.602 711.924 28.254 712.032 27.87C712.14 27.474 712.224 27.09 712.284 26.718L714.102 26.952C714.042 27.432 713.916 27.966 713.724 28.554C713.532 29.13 713.28 29.682 712.968 30.21C713.364 30.654 713.742 31.116 714.102 31.596C714.474 32.064 714.78 32.532 715.02 33H712.752C712.632 32.796 712.476 32.574 712.284 32.334C712.104 32.094 711.912 31.872 711.708 31.668C711.216 32.112 710.652 32.472 710.016 32.748C709.38 33.024 708.66 33.162 707.856 33.162C707.052 33.162 706.38 33.054 705.84 32.838C705.3 32.622 704.862 32.346 704.526 32.01C704.202 31.674 703.968 31.302 703.824 30.894C703.692 30.486 703.626 30.084 703.626 29.688ZM705.714 29.544C705.714 29.748 705.75 29.958 705.822 30.174C705.906 30.39 706.032 30.594 706.2 30.786C706.38 30.966 706.608 31.116 706.884 31.236C707.172 31.356 707.514 31.416 707.91 31.416C708.45 31.416 708.936 31.332 709.368 31.164C709.812 30.996 710.19 30.756 710.502 30.444L707.334 27.222C707.154 27.318 706.968 27.432 706.776 27.564C706.584 27.696 706.41 27.858 706.254 28.05C706.098 28.23 705.966 28.446 705.858 28.698C705.762 28.938 705.714 29.22 705.714 29.544ZM709.62 23.118C709.62 22.77 709.506 22.476 709.278 22.236C709.05 21.984 708.72 21.858 708.288 21.858C707.832 21.858 707.484 21.996 707.244 22.272C707.004 22.548 706.884 22.896 706.884 23.316C706.884 23.664 706.98 24.012 707.172 24.36C707.364 24.696 707.628 25.02 707.964 25.332C708.192 25.212 708.402 25.08 708.594 24.936C708.798 24.792 708.972 24.63 709.116 24.45C709.272 24.27 709.392 24.072 709.476 23.856C709.572 23.64 709.62 23.394 709.62 23.118ZM724.614 33.144C723.954 33.144 723.288 33.12 722.616 33.072C721.944 33.036 721.356 32.952 720.852 32.82V20.706C721.116 20.658 721.398 20.616 721.698 20.58C721.998 20.532 722.304 20.496 722.616 20.472C722.928 20.448 723.234 20.43 723.534 20.418C723.846 20.406 724.14 20.4 724.416 20.4C725.172 20.4 725.874 20.46 726.522 20.58C727.17 20.688 727.728 20.874 728.196 21.138C728.676 21.402 729.048 21.75 729.312 22.182C729.576 22.614 729.708 23.148 729.708 23.784C729.708 24.372 729.564 24.876 729.276 25.296C729 25.716 728.61 26.052 728.106 26.304C728.862 26.556 729.42 26.928 729.78 27.42C730.14 27.912 730.32 28.536 730.32 29.292C730.32 30.576 729.852 31.542 728.916 32.19C727.98 32.826 726.546 33.144 724.614 33.144ZM723.084 27.384V31.182C723.336 31.206 723.606 31.224 723.894 31.236C724.182 31.248 724.446 31.254 724.686 31.254C725.154 31.254 725.586 31.224 725.982 31.164C726.39 31.104 726.738 31.002 727.026 30.858C727.326 30.702 727.56 30.498 727.728 30.246C727.908 29.994 727.998 29.67 727.998 29.274C727.998 28.566 727.74 28.074 727.224 27.798C726.708 27.522 725.994 27.384 725.082 27.384H723.084ZM723.084 25.602H724.686C725.55 25.602 726.228 25.482 726.72 25.242C727.212 24.99 727.458 24.546 727.458 23.91C727.458 23.31 727.2 22.884 726.684 22.632C726.18 22.38 725.52 22.254 724.704 22.254C724.356 22.254 724.044 22.26 723.768 22.272C723.504 22.284 723.276 22.302 723.084 22.326V25.602ZM732.052 28.338C732.052 27.51 732.172 26.784 732.412 26.16C732.664 25.536 732.994 25.02 733.402 24.612C733.81 24.192 734.278 23.88 734.806 23.676C735.334 23.46 735.874 23.352 736.426 23.352C737.722 23.352 738.73 23.754 739.45 24.558C740.182 25.362 740.548 26.562 740.548 28.158C740.548 28.278 740.542 28.416 740.53 28.572C740.53 28.716 740.524 28.848 740.512 28.968H734.302C734.362 29.724 734.626 30.312 735.094 30.732C735.574 31.14 736.264 31.344 737.164 31.344C737.692 31.344 738.172 31.296 738.604 31.2C739.048 31.104 739.396 31.002 739.648 30.894L739.936 32.676C739.816 32.736 739.648 32.802 739.432 32.874C739.228 32.934 738.988 32.988 738.712 33.036C738.448 33.096 738.16 33.144 737.848 33.18C737.536 33.216 737.218 33.234 736.894 33.234C736.066 33.234 735.346 33.114 734.734 32.874C734.122 32.622 733.618 32.28 733.222 31.848C732.826 31.404 732.532 30.888 732.34 30.3C732.148 29.7 732.052 29.046 732.052 28.338ZM738.37 27.366C738.37 27.066 738.328 26.784 738.244 26.52C738.16 26.244 738.034 26.01 737.866 25.818C737.71 25.614 737.512 25.458 737.272 25.35C737.044 25.23 736.768 25.17 736.444 25.17C736.108 25.17 735.814 25.236 735.562 25.368C735.31 25.488 735.094 25.65 734.914 25.854C734.746 26.058 734.614 26.292 734.518 26.556C734.422 26.82 734.356 27.09 734.32 27.366H738.37ZM742.749 21.102L744.927 20.742V23.586H748.275V25.404H744.927V29.238C744.927 29.994 745.047 30.534 745.287 30.858C745.527 31.182 745.935 31.344 746.511 31.344C746.907 31.344 747.255 31.302 747.555 31.218C747.867 31.134 748.113 31.056 748.293 30.984L748.653 32.712C748.401 32.82 748.071 32.928 747.663 33.036C747.255 33.156 746.775 33.216 746.223 33.216C745.551 33.216 744.987 33.126 744.531 32.946C744.087 32.766 743.733 32.508 743.469 32.172C743.205 31.824 743.019 31.41 742.911 30.93C742.803 30.438 742.749 29.88 742.749 29.256V21.102ZM754.214 19.032C754.718 19.032 755.162 19.08 755.546 19.176C755.93 19.26 756.218 19.338 756.41 19.41L755.996 21.21C755.792 21.114 755.552 21.036 755.276 20.976C755.012 20.916 754.724 20.886 754.412 20.886C754.064 20.886 753.77 20.94 753.53 21.048C753.29 21.144 753.098 21.282 752.954 21.462C752.81 21.642 752.708 21.864 752.648 22.128C752.588 22.38 752.558 22.656 752.558 22.956V23.586H755.978V25.404H752.558V33H750.38V22.92C750.38 21.708 750.698 20.76 751.334 20.076C751.97 19.38 752.93 19.032 754.214 19.032ZM760.899 31.47C761.571 31.47 762.081 31.434 762.429 31.362V28.95C762.309 28.914 762.135 28.878 761.907 28.842C761.679 28.806 761.427 28.788 761.151 28.788C760.911 28.788 760.665 28.806 760.413 28.842C760.173 28.878 759.951 28.944 759.747 29.04C759.555 29.136 759.399 29.274 759.279 29.454C759.159 29.622 759.099 29.838 759.099 30.102C759.099 30.618 759.261 30.978 759.585 31.182C759.909 31.374 760.347 31.47 760.899 31.47ZM760.719 23.352C761.439 23.352 762.045 23.442 762.537 23.622C763.029 23.802 763.419 24.054 763.707 24.378C764.007 24.702 764.217 25.098 764.337 25.566C764.469 26.022 764.535 26.526 764.535 27.078V32.784C764.199 32.856 763.689 32.94 763.005 33.036C762.333 33.144 761.571 33.198 760.719 33.198C760.155 33.198 759.639 33.144 759.171 33.036C758.703 32.928 758.301 32.754 757.965 32.514C757.641 32.274 757.383 31.962 757.191 31.578C757.011 31.194 756.921 30.72 756.921 30.156C756.921 29.616 757.023 29.16 757.227 28.788C757.443 28.416 757.731 28.116 758.091 27.888C758.451 27.648 758.865 27.48 759.333 27.384C759.813 27.276 760.311 27.222 760.827 27.222C761.067 27.222 761.319 27.24 761.583 27.276C761.847 27.3 762.129 27.348 762.429 27.42V27.06C762.429 26.808 762.399 26.568 762.339 26.34C762.279 26.112 762.171 25.914 762.015 25.746C761.871 25.566 761.673 25.428 761.421 25.332C761.181 25.236 760.875 25.188 760.503 25.188C759.999 25.188 759.537 25.224 759.117 25.296C758.697 25.368 758.355 25.452 758.091 25.548L757.821 23.784C758.097 23.688 758.499 23.592 759.027 23.496C759.555 23.4 760.119 23.352 760.719 23.352ZM769.399 33H767.221V23.586H769.399V33ZM769.633 20.832C769.633 21.24 769.501 21.564 769.237 21.804C768.973 22.044 768.661 22.164 768.301 22.164C767.929 22.164 767.611 22.044 767.347 21.804C767.083 21.564 766.951 21.24 766.951 20.832C766.951 20.412 767.083 20.082 767.347 19.842C767.611 19.602 767.929 19.482 768.301 19.482C768.661 19.482 768.973 19.602 769.237 19.842C769.501 20.082 769.633 20.412 769.633 20.832ZM777.541 25.548C777.361 25.488 777.109 25.428 776.785 25.368C776.473 25.296 776.107 25.26 775.687 25.26C775.447 25.26 775.189 25.284 774.913 25.332C774.649 25.38 774.463 25.422 774.355 25.458V33H772.177V24.036C772.597 23.88 773.119 23.736 773.743 23.604C774.379 23.46 775.081 23.388 775.849 23.388C775.993 23.388 776.161 23.4 776.353 23.424C776.545 23.436 776.737 23.46 776.929 23.496C777.121 23.52 777.307 23.556 777.487 23.604C777.667 23.64 777.811 23.676 777.919 23.712L777.541 25.548Z" fill="black"/>
<line y1="163.75" x2="176.707" y2="163.75" stroke="black" stroke-width="3"/>
<path d="M13.348 148.754C13.348 149.438 13.432 150.062 13.6 150.626C13.768 151.178 14.008 151.652 14.32 152.048C14.644 152.432 15.034 152.732 15.49 152.948C15.946 153.164 16.462 153.272 17.038 153.272C17.602 153.272 18.112 153.164 18.568 152.948C19.024 152.732 19.408 152.432 19.72 152.048C20.044 151.652 20.29 151.178 20.458 150.626C20.626 150.062 20.71 149.438 20.71 148.754C20.71 148.07 20.626 147.452 20.458 146.9C20.29 146.336 20.044 145.862 19.72 145.478C19.408 145.082 19.024 144.776 18.568 144.56C18.112 144.344 17.602 144.236 17.038 144.236C16.462 144.236 15.946 144.344 15.49 144.56C15.034 144.776 14.644 145.082 14.32 145.478C14.008 145.874 13.768 146.348 13.6 146.9C13.432 147.452 13.348 148.07 13.348 148.754ZM23.086 148.754C23.086 149.822 22.924 150.764 22.6 151.58C22.288 152.396 21.856 153.08 21.304 153.632C20.764 154.172 20.128 154.58 19.396 154.856C18.664 155.132 17.884 155.27 17.056 155.27C16.228 155.27 15.442 155.132 14.698 154.856C13.966 154.58 13.324 154.172 12.772 153.632C12.232 153.08 11.8 152.396 11.476 151.58C11.152 150.764 10.99 149.822 10.99 148.754C10.99 147.686 11.152 146.75 11.476 145.946C11.8 145.13 12.238 144.446 12.79 143.894C13.354 143.342 14.002 142.928 14.734 142.652C15.466 142.376 16.24 142.238 17.056 142.238C17.872 142.238 18.646 142.376 19.378 142.652C20.11 142.928 20.746 143.342 21.286 143.894C21.838 144.446 22.276 145.13 22.6 145.946C22.924 146.75 23.086 147.686 23.086 148.754ZM33.1881 154.712C32.7681 154.82 32.2221 154.928 31.5501 155.036C30.8781 155.156 30.1401 155.216 29.3361 155.216C28.5801 155.216 27.9441 155.108 27.4281 154.892C26.9241 154.676 26.5161 154.376 26.2041 153.992C25.9041 153.608 25.6881 153.152 25.5561 152.624C25.4241 152.084 25.3581 151.496 25.3581 150.86V145.586H27.5361V150.518C27.5361 151.526 27.6801 152.246 27.9681 152.678C28.2681 153.11 28.7841 153.326 29.5161 153.326C29.7801 153.326 30.0561 153.314 30.3441 153.29C30.6441 153.266 30.8661 153.236 31.0101 153.2V145.586H33.1881V154.712ZM41.3242 147.548C41.1442 147.488 40.8922 147.428 40.5682 147.368C40.2562 147.296 39.8902 147.26 39.4702 147.26C39.2302 147.26 38.9722 147.284 38.6962 147.332C38.4322 147.38 38.2462 147.422 38.1382 147.458V155H35.9602V146.036C36.3802 145.88 36.9022 145.736 37.5262 145.604C38.1622 145.46 38.8642 145.388 39.6322 145.388C39.7762 145.388 39.9442 145.4 40.1362 145.424C40.3282 145.436 40.5202 145.46 40.7122 145.496C40.9042 145.52 41.0902 145.556 41.2702 145.604C41.4502 145.64 41.5942 145.676 41.7022 145.712L41.3242 147.548ZM49.1312 150.266C49.1312 151.226 49.3592 151.982 49.8152 152.534C50.2712 153.074 50.9012 153.344 51.7052 153.344C52.0532 153.344 52.3472 153.332 52.5872 153.308C52.8392 153.272 53.0432 153.236 53.1992 153.2V147.8C53.0072 147.668 52.7492 147.548 52.4252 147.44C52.1132 147.32 51.7772 147.26 51.4172 147.26C50.6252 147.26 50.0432 147.53 49.6712 148.07C49.3112 148.61 49.1312 149.342 49.1312 150.266ZM55.3772 154.712C54.9452 154.844 54.3992 154.964 53.7392 155.072C53.0912 155.18 52.4072 155.234 51.6872 155.234C50.9432 155.234 50.2772 155.12 49.6892 154.892C49.1012 154.664 48.5972 154.34 48.1772 153.92C47.7692 153.488 47.4512 152.972 47.2232 152.372C47.0072 151.76 46.8992 151.076 46.8992 150.32C46.8992 149.576 46.9892 148.904 47.1692 148.304C47.3612 147.692 47.6372 147.17 47.9972 146.738C48.3572 146.306 48.7952 145.976 49.3112 145.748C49.8272 145.508 50.4212 145.388 51.0932 145.388C51.5492 145.388 51.9512 145.442 52.2992 145.55C52.6472 145.658 52.9472 145.778 53.1992 145.91V141.392L55.3772 141.032V154.712ZM57.6218 150.338C57.6218 149.51 57.7418 148.784 57.9818 148.16C58.2338 147.536 58.5638 147.02 58.9718 146.612C59.3798 146.192 59.8478 145.88 60.3758 145.676C60.9038 145.46 61.4438 145.352 61.9958 145.352C63.2918 145.352 64.2998 145.754 65.0198 146.558C65.7518 147.362 66.1178 148.562 66.1178 150.158C66.1178 150.278 66.1118 150.416 66.0998 150.572C66.0998 150.716 66.0938 150.848 66.0818 150.968H59.8718C59.9318 151.724 60.1958 152.312 60.6638 152.732C61.1438 153.14 61.8338 153.344 62.7338 153.344C63.2618 153.344 63.7418 153.296 64.1738 153.2C64.6178 153.104 64.9658 153.002 65.2178 152.894L65.5058 154.676C65.3858 154.736 65.2178 154.802 65.0018 154.874C64.7978 154.934 64.5578 154.988 64.2818 155.036C64.0178 155.096 63.7298 155.144 63.4178 155.18C63.1058 155.216 62.7878 155.234 62.4638 155.234C61.6358 155.234 60.9158 155.114 60.3038 154.874C59.6918 154.622 59.1878 154.28 58.7918 153.848C58.3958 153.404 58.1018 152.888 57.9098 152.3C57.7178 151.7 57.6218 151.046 57.6218 150.338ZM63.9398 149.366C63.9398 149.066 63.8978 148.784 63.8138 148.52C63.7298 148.244 63.6038 148.01 63.4358 147.818C63.2798 147.614 63.0818 147.458 62.8418 147.35C62.6138 147.23 62.3378 147.17 62.0138 147.17C61.6778 147.17 61.3838 147.236 61.1318 147.368C60.8798 147.488 60.6638 147.65 60.4838 147.854C60.3158 148.058 60.1838 148.292 60.0878 148.556C59.9918 148.82 59.9258 149.09 59.8898 149.366H63.9398ZM70.839 155C70.239 153.764 69.621 152.348 68.985 150.752C68.361 149.144 67.791 147.422 67.275 145.586H69.597C69.729 146.114 69.879 146.684 70.047 147.296C70.227 147.896 70.413 148.502 70.605 149.114C70.809 149.714 71.013 150.302 71.217 150.878C71.433 151.442 71.631 151.952 71.811 152.408C71.991 151.952 72.183 151.442 72.387 150.878C72.591 150.302 72.789 149.714 72.981 149.114C73.185 148.502 73.377 147.896 73.557 147.296C73.737 146.684 73.893 146.114 74.025 145.586H76.275C75.759 147.422 75.183 149.144 74.547 150.752C73.923 152.348 73.311 153.764 72.711 155H70.839ZM77.1687 150.338C77.1687 149.51 77.2887 148.784 77.5287 148.16C77.7807 147.536 78.1107 147.02 78.5187 146.612C78.9267 146.192 79.3947 145.88 79.9227 145.676C80.4507 145.46 80.9907 145.352 81.5427 145.352C82.8387 145.352 83.8467 145.754 84.5667 146.558C85.2987 147.362 85.6647 148.562 85.6647 150.158C85.6647 150.278 85.6587 150.416 85.6467 150.572C85.6467 150.716 85.6407 150.848 85.6287 150.968H79.4187C79.4787 151.724 79.7427 152.312 80.2107 152.732C80.6907 153.14 81.3807 153.344 82.2807 153.344C82.8087 153.344 83.2887 153.296 83.7207 153.2C84.1647 153.104 84.5127 153.002 84.7647 152.894L85.0527 154.676C84.9327 154.736 84.7647 154.802 84.5487 154.874C84.3447 154.934 84.1047 154.988 83.8287 155.036C83.5647 155.096 83.2767 155.144 82.9647 155.18C82.6527 155.216 82.3347 155.234 82.0107 155.234C81.1827 155.234 80.4627 155.114 79.8507 154.874C79.2387 154.622 78.7347 154.28 78.3387 153.848C77.9427 153.404 77.6487 152.888 77.4567 152.3C77.2647 151.7 77.1687 151.046 77.1687 150.338ZM83.4867 149.366C83.4867 149.066 83.4447 148.784 83.3607 148.52C83.2767 148.244 83.1507 148.01 82.9827 147.818C82.8267 147.614 82.6287 147.458 82.3887 147.35C82.1607 147.23 81.8847 147.17 81.5607 147.17C81.2247 147.17 80.9307 147.236 80.6787 147.368C80.4267 147.488 80.2107 147.65 80.0307 147.854C79.8627 148.058 79.7307 148.292 79.6347 148.556C79.5387 148.82 79.4727 149.09 79.4367 149.366H83.4867ZM91.2499 155.18C90.6019 155.168 90.0619 155.096 89.6299 154.964C89.2099 154.832 88.8739 154.646 88.6219 154.406C88.3699 154.154 88.1899 153.848 88.0819 153.488C87.9859 153.116 87.9379 152.696 87.9379 152.228V141.392L90.1159 141.032V151.814C90.1159 152.078 90.1339 152.3 90.1699 152.48C90.2179 152.66 90.2959 152.816 90.4039 152.948C90.5119 153.068 90.6559 153.164 90.8359 153.236C91.0279 153.296 91.2679 153.344 91.5559 153.38L91.2499 155.18ZM101.832 150.284C101.832 151.028 101.724 151.706 101.508 152.318C101.292 152.93 100.986 153.452 100.59 153.884C100.194 154.316 99.7136 154.652 99.1496 154.892C98.5976 155.132 97.9856 155.252 97.3136 155.252C96.6416 155.252 96.0296 155.132 95.4776 154.892C94.9256 154.652 94.4516 154.316 94.0556 153.884C93.6596 153.452 93.3476 152.93 93.1196 152.318C92.9036 151.706 92.7956 151.028 92.7956 150.284C92.7956 149.54 92.9036 148.868 93.1196 148.268C93.3476 147.656 93.6596 147.134 94.0556 146.702C94.4636 146.27 94.9436 145.94 95.4956 145.712C96.0476 145.472 96.6536 145.352 97.3136 145.352C97.9736 145.352 98.5796 145.472 99.1316 145.712C99.6956 145.94 100.176 146.27 100.572 146.702C100.968 147.134 101.274 147.656 101.49 148.268C101.718 148.868 101.832 149.54 101.832 150.284ZM99.5996 150.284C99.5996 149.348 99.3956 148.61 98.9876 148.07C98.5916 147.518 98.0336 147.242 97.3136 147.242C96.5936 147.242 96.0296 147.518 95.6216 148.07C95.2256 148.61 95.0276 149.348 95.0276 150.284C95.0276 151.232 95.2256 151.982 95.6216 152.534C96.0296 153.086 96.5936 153.362 97.3136 153.362C98.0336 153.362 98.5916 153.086 98.9876 152.534C99.3956 151.982 99.5996 151.232 99.5996 150.284ZM110.321 150.338C110.321 149.366 110.099 148.61 109.655 148.07C109.223 147.53 108.521 147.26 107.549 147.26C107.345 147.26 107.129 147.272 106.901 147.296C106.685 147.308 106.469 147.344 106.253 147.404V152.786C106.445 152.918 106.697 153.044 107.009 153.164C107.333 153.272 107.675 153.326 108.035 153.326C108.827 153.326 109.403 153.056 109.763 152.516C110.135 151.976 110.321 151.25 110.321 150.338ZM112.553 150.302C112.553 151.022 112.457 151.682 112.265 152.282C112.085 152.882 111.821 153.398 111.473 153.83C111.125 154.262 110.687 154.598 110.159 154.838C109.643 155.078 109.055 155.198 108.395 155.198C107.951 155.198 107.543 155.144 107.171 155.036C106.799 154.928 106.493 154.808 106.253 154.676V158.33H104.075V145.892C104.519 145.772 105.065 145.658 105.713 145.55C106.361 145.442 107.045 145.388 107.765 145.388C108.509 145.388 109.175 145.502 109.763 145.73C110.351 145.958 110.849 146.288 111.257 146.72C111.677 147.14 111.995 147.656 112.211 148.268C112.439 148.868 112.553 149.546 112.553 150.302ZM120.162 150.05C120.162 149.066 120.036 148.358 119.784 147.926C119.544 147.482 119.088 147.26 118.416 147.26C118.176 147.26 117.912 147.278 117.624 147.314C117.336 147.35 117.12 147.38 116.976 147.404V155H114.798V145.892C115.218 145.772 115.764 145.658 116.436 145.55C117.12 145.442 117.84 145.388 118.596 145.388C119.244 145.388 119.772 145.472 120.18 145.64C120.6 145.808 120.948 146.03 121.224 146.306C121.356 146.21 121.524 146.108 121.728 146C121.932 145.892 122.16 145.796 122.412 145.712C122.664 145.616 122.928 145.538 123.204 145.478C123.492 145.418 123.78 145.388 124.068 145.388C124.8 145.388 125.4 145.496 125.868 145.712C126.348 145.916 126.72 146.21 126.984 146.594C127.26 146.966 127.446 147.422 127.542 147.962C127.65 148.49 127.704 149.072 127.704 149.708V155H125.526V150.05C125.526 149.066 125.406 148.358 125.166 147.926C124.926 147.482 124.464 147.26 123.78 147.26C123.432 147.26 123.102 147.32 122.79 147.44C122.478 147.548 122.244 147.656 122.088 147.764C122.184 148.064 122.25 148.382 122.286 148.718C122.322 149.054 122.34 149.414 122.34 149.798V155H120.162V150.05ZM129.85 150.338C129.85 149.51 129.97 148.784 130.21 148.16C130.462 147.536 130.792 147.02 131.2 146.612C131.608 146.192 132.076 145.88 132.604 145.676C133.132 145.46 133.672 145.352 134.224 145.352C135.52 145.352 136.528 145.754 137.248 146.558C137.98 147.362 138.346 148.562 138.346 150.158C138.346 150.278 138.34 150.416 138.328 150.572C138.328 150.716 138.322 150.848 138.31 150.968H132.1C132.16 151.724 132.424 152.312 132.892 152.732C133.372 153.14 134.062 153.344 134.962 153.344C135.49 153.344 135.97 153.296 136.402 153.2C136.846 153.104 137.194 153.002 137.446 152.894L137.734 154.676C137.614 154.736 137.446 154.802 137.23 154.874C137.026 154.934 136.786 154.988 136.51 155.036C136.246 155.096 135.958 155.144 135.646 155.18C135.334 155.216 135.016 155.234 134.692 155.234C133.864 155.234 133.144 155.114 132.532 154.874C131.92 154.622 131.416 154.28 131.02 153.848C130.624 153.404 130.33 152.888 130.138 152.3C129.946 151.7 129.85 151.046 129.85 150.338ZM136.168 149.366C136.168 149.066 136.126 148.784 136.042 148.52C135.958 148.244 135.832 148.01 135.664 147.818C135.508 147.614 135.31 147.458 135.07 147.35C134.842 147.23 134.566 147.17 134.242 147.17C133.906 147.17 133.612 147.236 133.36 147.368C133.108 147.488 132.892 147.65 132.712 147.854C132.544 148.058 132.412 148.292 132.316 148.556C132.22 148.82 132.154 149.09 132.118 149.366H136.168ZM140.656 145.892C141.076 145.772 141.622 145.658 142.294 145.55C142.966 145.442 143.71 145.388 144.526 145.388C145.294 145.388 145.936 145.496 146.452 145.712C146.968 145.916 147.376 146.21 147.676 146.594C147.988 146.966 148.204 147.422 148.324 147.962C148.456 148.49 148.522 149.072 148.522 149.708V155H146.344V150.05C146.344 149.546 146.308 149.12 146.236 148.772C146.176 148.412 146.068 148.124 145.912 147.908C145.768 147.68 145.564 147.518 145.3 147.422C145.048 147.314 144.736 147.26 144.364 147.26C144.088 147.26 143.8 147.278 143.5 147.314C143.2 147.35 142.978 147.38 142.834 147.404V155H140.656V145.892ZM151.077 143.102L153.255 142.742V145.586H156.603V147.404H153.255V151.238C153.255 151.994 153.375 152.534 153.615 152.858C153.855 153.182 154.263 153.344 154.839 153.344C155.235 153.344 155.583 153.302 155.883 153.218C156.195 153.134 156.441 153.056 156.621 152.984L156.981 154.712C156.729 154.82 156.399 154.928 155.991 155.036C155.583 155.156 155.103 155.216 154.551 155.216C153.879 155.216 153.315 155.126 152.859 154.946C152.415 154.766 152.061 154.508 151.797 154.172C151.533 153.824 151.347 153.41 151.239 152.93C151.131 152.438 151.077 151.88 151.077 151.256V143.102ZM161.066 153.434C161.642 153.434 162.062 153.368 162.326 153.236C162.59 153.092 162.722 152.852 162.722 152.516C162.722 152.204 162.578 151.946 162.29 151.742C162.014 151.538 161.552 151.316 160.904 151.076C160.508 150.932 160.142 150.782 159.806 150.626C159.482 150.458 159.2 150.266 158.96 150.05C158.72 149.834 158.528 149.576 158.384 149.276C158.252 148.964 158.186 148.586 158.186 148.142C158.186 147.278 158.504 146.6 159.14 146.108C159.776 145.604 160.64 145.352 161.732 145.352C162.284 145.352 162.812 145.406 163.316 145.514C163.82 145.61 164.198 145.706 164.45 145.802L164.054 147.566C163.814 147.458 163.508 147.362 163.136 147.278C162.764 147.182 162.332 147.134 161.84 147.134C161.396 147.134 161.036 147.212 160.76 147.368C160.484 147.512 160.346 147.74 160.346 148.052C160.346 148.208 160.37 148.346 160.418 148.466C160.478 148.586 160.574 148.7 160.706 148.808C160.838 148.904 161.012 149.006 161.228 149.114C161.444 149.21 161.708 149.312 162.02 149.42C162.536 149.612 162.974 149.804 163.334 149.996C163.694 150.176 163.988 150.386 164.216 150.626C164.456 150.854 164.63 151.118 164.738 151.418C164.846 151.718 164.9 152.078 164.9 152.498C164.9 153.398 164.564 154.082 163.892 154.55C163.232 155.006 162.284 155.234 161.048 155.234C160.22 155.234 159.554 155.162 159.05 155.018C158.546 154.886 158.192 154.778 157.988 154.694L158.366 152.876C158.69 153.008 159.074 153.134 159.518 153.254C159.974 153.374 160.49 153.434 161.066 153.434Z" fill="black"/>
<line x1="167.991" y1="30.625" x2="257.991" y2="30.625" stroke="black" stroke-width="3"/>
<path d="M185.256 22.144C184.596 22.144 183.93 22.12 183.258 22.072C182.586 22.036 181.998 21.952 181.494 21.82V9.706C181.758 9.658 182.04 9.616 182.34 9.58C182.64 9.532 182.946 9.496 183.258 9.472C183.57 9.448 183.876 9.43 184.176 9.418C184.488 9.406 184.782 9.4 185.058 9.4C185.814 9.4 186.516 9.46 187.164 9.58C187.812 9.688 188.37 9.874 188.838 10.138C189.318 10.402 189.69 10.75 189.954 11.182C190.218 11.614 190.35 12.148 190.35 12.784C190.35 13.372 190.206 13.876 189.918 14.296C189.642 14.716 189.252 15.052 188.748 15.304C189.504 15.556 190.062 15.928 190.422 16.42C190.782 16.912 190.962 17.536 190.962 18.292C190.962 19.576 190.494 20.542 189.558 21.19C188.622 21.826 187.188 22.144 185.256 22.144ZM183.726 16.384V20.182C183.978 20.206 184.248 20.224 184.536 20.236C184.824 20.248 185.088 20.254 185.328 20.254C185.796 20.254 186.228 20.224 186.624 20.164C187.032 20.104 187.38 20.002 187.668 19.858C187.968 19.702 188.202 19.498 188.37 19.246C188.55 18.994 188.64 18.67 188.64 18.274C188.64 17.566 188.382 17.074 187.866 16.798C187.35 16.522 186.636 16.384 185.724 16.384H183.726ZM183.726 14.602H185.328C186.192 14.602 186.87 14.482 187.362 14.242C187.854 13.99 188.1 13.546 188.1 12.91C188.1 12.31 187.842 11.884 187.326 11.632C186.822 11.38 186.162 11.254 185.346 11.254C184.998 11.254 184.686 11.26 184.41 11.272C184.146 11.284 183.918 11.302 183.726 11.326V14.602ZM192.694 17.338C192.694 16.51 192.814 15.784 193.054 15.16C193.306 14.536 193.636 14.02 194.044 13.612C194.452 13.192 194.92 12.88 195.448 12.676C195.976 12.46 196.516 12.352 197.068 12.352C198.364 12.352 199.372 12.754 200.092 13.558C200.824 14.362 201.19 15.562 201.19 17.158C201.19 17.278 201.184 17.416 201.172 17.572C201.172 17.716 201.166 17.848 201.154 17.968H194.944C195.004 18.724 195.268 19.312 195.736 19.732C196.216 20.14 196.906 20.344 197.806 20.344C198.334 20.344 198.814 20.296 199.246 20.2C199.69 20.104 200.038 20.002 200.29 19.894L200.578 21.676C200.458 21.736 200.29 21.802 200.074 21.874C199.87 21.934 199.63 21.988 199.354 22.036C199.09 22.096 198.802 22.144 198.49 22.18C198.178 22.216 197.86 22.234 197.536 22.234C196.708 22.234 195.988 22.114 195.376 21.874C194.764 21.622 194.26 21.28 193.864 20.848C193.468 20.404 193.174 19.888 192.982 19.3C192.79 18.7 192.694 18.046 192.694 17.338ZM199.012 16.366C199.012 16.066 198.97 15.784 198.886 15.52C198.802 15.244 198.676 15.01 198.508 14.818C198.352 14.614 198.154 14.458 197.914 14.35C197.686 14.23 197.41 14.17 197.086 14.17C196.75 14.17 196.456 14.236 196.204 14.368C195.952 14.488 195.736 14.65 195.556 14.854C195.388 15.058 195.256 15.292 195.16 15.556C195.064 15.82 194.998 16.09 194.962 16.366H199.012ZM203.392 10.102L205.57 9.742V12.586H208.918V14.404H205.57V18.238C205.57 18.994 205.69 19.534 205.93 19.858C206.17 20.182 206.578 20.344 207.154 20.344C207.55 20.344 207.898 20.302 208.198 20.218C208.51 20.134 208.756 20.056 208.936 19.984L209.296 21.712C209.044 21.82 208.714 21.928 208.306 22.036C207.898 22.156 207.418 22.216 206.866 22.216C206.194 22.216 205.63 22.126 205.174 21.946C204.73 21.766 204.376 21.508 204.112 21.172C203.848 20.824 203.662 20.41 203.554 19.93C203.446 19.438 203.392 18.88 203.392 18.256V10.102ZM210.915 10.102L213.093 9.742V12.586H216.441V14.404H213.093V18.238C213.093 18.994 213.213 19.534 213.453 19.858C213.693 20.182 214.101 20.344 214.677 20.344C215.073 20.344 215.421 20.302 215.721 20.218C216.033 20.134 216.279 20.056 216.459 19.984L216.819 21.712C216.567 21.82 216.237 21.928 215.829 22.036C215.421 22.156 214.941 22.216 214.389 22.216C213.717 22.216 213.153 22.126 212.697 21.946C212.253 21.766 211.899 21.508 211.635 21.172C211.371 20.824 211.185 20.41 211.077 19.93C210.969 19.438 210.915 18.88 210.915 18.256V10.102ZM220.742 22H218.564V12.586H220.742V22ZM220.976 9.832C220.976 10.24 220.844 10.564 220.58 10.804C220.316 11.044 220.004 11.164 219.644 11.164C219.272 11.164 218.954 11.044 218.69 10.804C218.426 10.564 218.294 10.24 218.294 9.832C218.294 9.412 218.426 9.082 218.69 8.842C218.954 8.602 219.272 8.482 219.644 8.482C220.004 8.482 220.316 8.602 220.58 8.842C220.844 9.082 220.976 9.412 220.976 9.832ZM223.521 12.892C223.941 12.772 224.487 12.658 225.159 12.55C225.831 12.442 226.575 12.388 227.391 12.388C228.159 12.388 228.801 12.496 229.317 12.712C229.833 12.916 230.241 13.21 230.541 13.594C230.853 13.966 231.069 14.422 231.189 14.962C231.321 15.49 231.387 16.072 231.387 16.708V22H229.209V17.05C229.209 16.546 229.173 16.12 229.101 15.772C229.041 15.412 228.933 15.124 228.777 14.908C228.633 14.68 228.429 14.518 228.165 14.422C227.913 14.314 227.601 14.26 227.229 14.26C226.953 14.26 226.665 14.278 226.365 14.314C226.065 14.35 225.843 14.38 225.699 14.404V22H223.521V12.892ZM235.76 17.05C235.76 17.974 235.958 18.652 236.354 19.084C236.762 19.504 237.284 19.714 237.92 19.714C238.268 19.714 238.592 19.666 238.892 19.57C239.204 19.474 239.456 19.36 239.648 19.228V14.35C239.492 14.314 239.3 14.284 239.072 14.26C238.844 14.224 238.556 14.206 238.208 14.206C237.416 14.206 236.81 14.47 236.39 14.998C235.97 15.514 235.76 16.198 235.76 17.05ZM241.826 21.046C241.826 22.546 241.442 23.644 240.674 24.34C239.918 25.036 238.754 25.384 237.182 25.384C236.606 25.384 236.042 25.336 235.49 25.24C234.95 25.144 234.458 25.018 234.014 24.862L234.41 23.008C234.782 23.164 235.202 23.29 235.67 23.386C236.15 23.482 236.666 23.53 237.218 23.53C238.094 23.53 238.718 23.35 239.09 22.99C239.462 22.63 239.648 22.096 239.648 21.388V21.028C239.432 21.136 239.144 21.244 238.784 21.352C238.436 21.46 238.034 21.514 237.578 21.514C236.978 21.514 236.426 21.418 235.922 21.226C235.43 21.034 235.004 20.752 234.644 20.38C234.296 20.008 234.02 19.546 233.816 18.994C233.624 18.43 233.528 17.782 233.528 17.05C233.528 16.366 233.63 15.736 233.834 15.16C234.05 14.584 234.356 14.092 234.752 13.684C235.16 13.276 235.652 12.958 236.228 12.73C236.804 12.502 237.458 12.388 238.19 12.388C238.898 12.388 239.57 12.442 240.206 12.55C240.842 12.658 241.382 12.772 241.826 12.892V21.046Z" fill="black"/>
<line x1="588.706" y1="357" x2="788.706" y2="357" stroke="black" stroke-width="3"/>
<path d="M603.494 348V335.526H611.378V337.452H605.762V340.638H610.748V342.564H605.762V348H603.494ZM621.603 343.284C621.603 344.028 621.495 344.706 621.279 345.318C621.063 345.93 620.757 346.452 620.361 346.884C619.965 347.316 619.485 347.652 618.921 347.892C618.369 348.132 617.757 348.252 617.085 348.252C616.413 348.252 615.801 348.132 615.249 347.892C614.697 347.652 614.223 347.316 613.827 346.884C613.431 346.452 613.119 345.93 612.891 345.318C612.675 344.706 612.567 344.028 612.567 343.284C612.567 342.54 612.675 341.868 612.891 341.268C613.119 340.656 613.431 340.134 613.827 339.702C614.235 339.27 614.715 338.94 615.267 338.712C615.819 338.472 616.425 338.352 617.085 338.352C617.745 338.352 618.351 338.472 618.903 338.712C619.467 338.94 619.947 339.27 620.343 339.702C620.739 340.134 621.045 340.656 621.261 341.268C621.489 341.868 621.603 342.54 621.603 343.284ZM619.371 343.284C619.371 342.348 619.167 341.61 618.759 341.07C618.363 340.518 617.805 340.242 617.085 340.242C616.365 340.242 615.801 340.518 615.393 341.07C614.997 341.61 614.799 342.348 614.799 343.284C614.799 344.232 614.997 344.982 615.393 345.534C615.801 346.086 616.365 346.362 617.085 346.362C617.805 346.362 618.363 346.086 618.759 345.534C619.167 344.982 619.371 344.232 619.371 343.284ZM629.211 340.548C629.031 340.488 628.779 340.428 628.455 340.368C628.143 340.296 627.777 340.26 627.357 340.26C627.117 340.26 626.859 340.284 626.583 340.332C626.319 340.38 626.133 340.422 626.025 340.458V348H623.847V339.036C624.267 338.88 624.789 338.736 625.413 338.604C626.049 338.46 626.751 338.388 627.519 338.388C627.663 338.388 627.831 338.4 628.023 338.424C628.215 338.436 628.407 338.46 628.599 338.496C628.791 338.52 628.977 338.556 629.157 338.604C629.337 338.64 629.481 338.676 629.589 338.712L629.211 340.548ZM630.585 343.338C630.585 342.51 630.705 341.784 630.945 341.16C631.197 340.536 631.527 340.02 631.935 339.612C632.343 339.192 632.811 338.88 633.339 338.676C633.867 338.46 634.407 338.352 634.959 338.352C636.255 338.352 637.263 338.754 637.983 339.558C638.715 340.362 639.081 341.562 639.081 343.158C639.081 343.278 639.075 343.416 639.063 343.572C639.063 343.716 639.057 343.848 639.045 343.968H632.835C632.895 344.724 633.159 345.312 633.627 345.732C634.107 346.14 634.797 346.344 635.697 346.344C636.225 346.344 636.705 346.296 637.137 346.2C637.581 346.104 637.929 346.002 638.181 345.894L638.469 347.676C638.349 347.736 638.181 347.802 637.965 347.874C637.761 347.934 637.521 347.988 637.245 348.036C636.981 348.096 636.693 348.144 636.381 348.18C636.069 348.216 635.751 348.234 635.427 348.234C634.599 348.234 633.879 348.114 633.267 347.874C632.655 347.622 632.151 347.28 631.755 346.848C631.359 346.404 631.065 345.888 630.873 345.3C630.681 344.7 630.585 344.046 630.585 343.338ZM636.903 342.366C636.903 342.066 636.861 341.784 636.777 341.52C636.693 341.244 636.567 341.01 636.399 340.818C636.243 340.614 636.045 340.458 635.805 340.35C635.577 340.23 635.301 340.17 634.977 340.17C634.641 340.17 634.347 340.236 634.095 340.368C633.843 340.488 633.627 340.65 633.447 340.854C633.279 341.058 633.147 341.292 633.051 341.556C632.955 341.82 632.889 342.09 632.853 342.366H636.903ZM644.774 341.664L646.772 338.586H649.058L645.962 343.032C646.61 343.872 647.228 344.724 647.816 345.588C648.416 346.44 648.908 347.244 649.292 348H646.934C646.826 347.772 646.682 347.514 646.502 347.226C646.334 346.926 646.148 346.62 645.944 346.308C645.752 345.984 645.548 345.666 645.332 345.354C645.116 345.042 644.906 344.748 644.702 344.472C644.282 345.012 643.868 345.612 643.46 346.272C643.064 346.92 642.734 347.496 642.47 348H640.238C640.418 347.64 640.634 347.256 640.886 346.848C641.138 346.44 641.408 346.026 641.696 345.606C641.984 345.174 642.278 344.748 642.578 344.328C642.89 343.896 643.196 343.488 643.496 343.104L640.382 338.586H642.776L644.774 341.664ZM654.507 344.688C654.507 344.232 654.573 343.818 654.705 343.446C654.849 343.074 655.035 342.738 655.263 342.438C655.503 342.138 655.773 341.874 656.073 341.646C656.385 341.418 656.709 341.214 657.045 341.034C656.685 340.65 656.391 340.242 656.163 339.81C655.947 339.378 655.839 338.922 655.839 338.442C655.839 337.434 656.145 336.648 656.757 336.084C657.381 335.52 658.197 335.238 659.205 335.238C659.721 335.238 660.177 335.31 660.573 335.454C660.981 335.598 661.317 335.796 661.581 336.048C661.845 336.3 662.043 336.6 662.175 336.948C662.319 337.284 662.391 337.644 662.391 338.028C662.391 338.412 662.325 338.772 662.193 339.108C662.073 339.444 661.905 339.756 661.689 340.044C661.473 340.32 661.221 340.578 660.933 340.818C660.657 341.046 660.357 341.25 660.033 341.43L662.499 343.914C662.667 343.602 662.805 343.254 662.913 342.87C663.021 342.474 663.105 342.09 663.165 341.718L664.983 341.952C664.923 342.432 664.797 342.966 664.605 343.554C664.413 344.13 664.161 344.682 663.849 345.21C664.245 345.654 664.623 346.116 664.983 346.596C665.355 347.064 665.661 347.532 665.901 348H663.633C663.513 347.796 663.357 347.574 663.165 347.334C662.985 347.094 662.793 346.872 662.589 346.668C662.097 347.112 661.533 347.472 660.897 347.748C660.261 348.024 659.541 348.162 658.737 348.162C657.933 348.162 657.261 348.054 656.721 347.838C656.181 347.622 655.743 347.346 655.407 347.01C655.083 346.674 654.849 346.302 654.705 345.894C654.573 345.486 654.507 345.084 654.507 344.688ZM656.595 344.544C656.595 344.748 656.631 344.958 656.703 345.174C656.787 345.39 656.913 345.594 657.081 345.786C657.261 345.966 657.489 346.116 657.765 346.236C658.053 346.356 658.395 346.416 658.791 346.416C659.331 346.416 659.817 346.332 660.249 346.164C660.693 345.996 661.071 345.756 661.383 345.444L658.215 342.222C658.035 342.318 657.849 342.432 657.657 342.564C657.465 342.696 657.291 342.858 657.135 343.05C656.979 343.23 656.847 343.446 656.739 343.698C656.643 343.938 656.595 344.22 656.595 344.544ZM660.501 338.118C660.501 337.77 660.387 337.476 660.159 337.236C659.931 336.984 659.601 336.858 659.169 336.858C658.713 336.858 658.365 336.996 658.125 337.272C657.885 337.548 657.765 337.896 657.765 338.316C657.765 338.664 657.861 339.012 658.053 339.36C658.245 339.696 658.509 340.02 658.845 340.332C659.073 340.212 659.283 340.08 659.475 339.936C659.679 339.792 659.853 339.63 659.997 339.45C660.153 339.27 660.273 339.072 660.357 338.856C660.453 338.64 660.501 338.394 660.501 338.118ZM671.103 343.302C671.103 342.606 671.211 341.958 671.427 341.358C671.643 340.746 671.949 340.218 672.345 339.774C672.753 339.33 673.245 338.982 673.821 338.73C674.397 338.478 675.045 338.352 675.765 338.352C676.653 338.352 677.493 338.514 678.285 338.838L677.817 340.62C677.565 340.512 677.277 340.422 676.953 340.35C676.641 340.278 676.305 340.242 675.945 340.242C675.093 340.242 674.445 340.512 674.001 341.052C673.557 341.58 673.335 342.33 673.335 343.302C673.335 344.238 673.545 344.982 673.965 345.534C674.385 346.074 675.093 346.344 676.089 346.344C676.461 346.344 676.827 346.308 677.187 346.236C677.547 346.164 677.859 346.074 678.123 345.966L678.429 347.766C678.189 347.886 677.823 347.994 677.331 348.09C676.851 348.186 676.353 348.234 675.837 348.234C675.033 348.234 674.331 348.114 673.731 347.874C673.143 347.622 672.651 347.28 672.255 346.848C671.871 346.404 671.583 345.882 671.391 345.282C671.199 344.67 671.103 344.01 671.103 343.302ZM685.479 340.548C685.299 340.488 685.047 340.428 684.723 340.368C684.411 340.296 684.045 340.26 683.625 340.26C683.385 340.26 683.127 340.284 682.851 340.332C682.587 340.38 682.401 340.422 682.293 340.458V348H680.115V339.036C680.535 338.88 681.057 338.736 681.681 338.604C682.317 338.46 683.019 338.388 683.787 338.388C683.931 338.388 684.099 338.4 684.291 338.424C684.483 338.436 684.675 338.46 684.867 338.496C685.059 338.52 685.245 338.556 685.425 338.604C685.605 338.64 685.749 338.676 685.857 338.712L685.479 340.548ZM695.377 338.586C694.405 342.162 693.277 345.402 691.993 348.306C691.753 348.846 691.507 349.308 691.255 349.692C691.003 350.076 690.721 350.394 690.409 350.646C690.097 350.898 689.749 351.078 689.365 351.186C688.981 351.306 688.537 351.366 688.033 351.366C687.697 351.366 687.361 351.33 687.025 351.258C686.701 351.186 686.455 351.108 686.287 351.024L686.683 349.278C687.115 349.446 687.541 349.53 687.961 349.53C688.525 349.53 688.963 349.392 689.275 349.116C689.599 348.852 689.881 348.438 690.121 347.874C689.437 346.554 688.777 345.114 688.141 343.554C687.517 341.994 686.959 340.338 686.467 338.586H688.789C688.909 339.09 689.053 339.636 689.221 340.224C689.401 340.812 689.593 341.412 689.797 342.024C690.001 342.624 690.217 343.224 690.445 343.824C690.673 344.424 690.901 344.982 691.129 345.498C691.513 344.43 691.873 343.296 692.209 342.096C692.545 340.884 692.851 339.714 693.127 338.586H695.377ZM703.271 343.338C703.271 342.366 703.049 341.61 702.605 341.07C702.173 340.53 701.471 340.26 700.499 340.26C700.295 340.26 700.079 340.272 699.851 340.296C699.635 340.308 699.419 340.344 699.203 340.404V345.786C699.395 345.918 699.647 346.044 699.959 346.164C700.283 346.272 700.625 346.326 700.985 346.326C701.777 346.326 702.353 346.056 702.713 345.516C703.085 344.976 703.271 344.25 703.271 343.338ZM705.503 343.302C705.503 344.022 705.407 344.682 705.215 345.282C705.035 345.882 704.771 346.398 704.423 346.83C704.075 347.262 703.637 347.598 703.109 347.838C702.593 348.078 702.005 348.198 701.345 348.198C700.901 348.198 700.493 348.144 700.121 348.036C699.749 347.928 699.443 347.808 699.203 347.676V351.33H697.025V338.892C697.469 338.772 698.015 338.658 698.663 338.55C699.311 338.442 699.995 338.388 700.715 338.388C701.459 338.388 702.125 338.502 702.713 338.73C703.301 338.958 703.799 339.288 704.207 339.72C704.627 340.14 704.945 340.656 705.161 341.268C705.389 341.868 705.503 342.546 705.503 343.302ZM707.64 336.102L709.818 335.742V338.586H713.166V340.404H709.818V344.238C709.818 344.994 709.938 345.534 710.178 345.858C710.418 346.182 710.826 346.344 711.402 346.344C711.798 346.344 712.146 346.302 712.446 346.218C712.758 346.134 713.004 346.056 713.184 345.984L713.544 347.712C713.292 347.82 712.962 347.928 712.554 348.036C712.146 348.156 711.666 348.216 711.114 348.216C710.442 348.216 709.878 348.126 709.422 347.946C708.978 347.766 708.624 347.508 708.36 347.172C708.096 346.824 707.91 346.41 707.802 345.93C707.694 345.438 707.64 344.88 707.64 344.256V336.102ZM723.574 343.284C723.574 344.028 723.466 344.706 723.25 345.318C723.034 345.93 722.728 346.452 722.332 346.884C721.936 347.316 721.456 347.652 720.892 347.892C720.34 348.132 719.728 348.252 719.056 348.252C718.384 348.252 717.772 348.132 717.22 347.892C716.668 347.652 716.194 347.316 715.798 346.884C715.402 346.452 715.09 345.93 714.862 345.318C714.646 344.706 714.538 344.028 714.538 343.284C714.538 342.54 714.646 341.868 714.862 341.268C715.09 340.656 715.402 340.134 715.798 339.702C716.206 339.27 716.686 338.94 717.238 338.712C717.79 338.472 718.396 338.352 719.056 338.352C719.716 338.352 720.322 338.472 720.874 338.712C721.438 338.94 721.918 339.27 722.314 339.702C722.71 340.134 723.016 340.656 723.232 341.268C723.46 341.868 723.574 342.54 723.574 343.284ZM721.342 343.284C721.342 342.348 721.138 341.61 720.73 341.07C720.334 340.518 719.776 340.242 719.056 340.242C718.336 340.242 717.772 340.518 717.364 341.07C716.968 341.61 716.77 342.348 716.77 343.284C716.77 344.232 716.968 344.982 717.364 345.534C717.772 346.086 718.336 346.362 719.056 346.362C719.776 346.362 720.334 346.086 720.73 345.534C721.138 344.982 721.342 344.232 721.342 343.284ZM724.846 341.862H729.688V343.86H724.846V341.862ZM736.86 340.548C736.68 340.488 736.428 340.428 736.104 340.368C735.792 340.296 735.426 340.26 735.006 340.26C734.766 340.26 734.508 340.284 734.232 340.332C733.968 340.38 733.782 340.422 733.674 340.458V348H731.496V339.036C731.916 338.88 732.438 338.736 733.062 338.604C733.698 338.46 734.4 338.388 735.168 338.388C735.312 338.388 735.48 338.4 735.672 338.424C735.864 338.436 736.056 338.46 736.248 338.496C736.44 338.52 736.626 338.556 736.806 338.604C736.986 338.64 737.13 338.676 737.238 338.712L736.86 340.548ZM747.269 343.284C747.269 344.028 747.161 344.706 746.945 345.318C746.729 345.93 746.423 346.452 746.027 346.884C745.631 347.316 745.151 347.652 744.587 347.892C744.035 348.132 743.423 348.252 742.751 348.252C742.079 348.252 741.467 348.132 740.915 347.892C740.363 347.652 739.889 347.316 739.493 346.884C739.097 346.452 738.785 345.93 738.557 345.318C738.341 344.706 738.233 344.028 738.233 343.284C738.233 342.54 738.341 341.868 738.557 341.268C738.785 340.656 739.097 340.134 739.493 339.702C739.901 339.27 740.381 338.94 740.933 338.712C741.485 338.472 742.091 338.352 742.751 338.352C743.411 338.352 744.017 338.472 744.569 338.712C745.133 338.94 745.613 339.27 746.009 339.702C746.405 340.134 746.711 340.656 746.927 341.268C747.155 341.868 747.269 342.54 747.269 343.284ZM745.037 343.284C745.037 342.348 744.833 341.61 744.425 341.07C744.029 340.518 743.471 340.242 742.751 340.242C742.031 340.242 741.467 340.518 741.059 341.07C740.663 341.61 740.465 342.348 740.465 343.284C740.465 344.232 740.663 344.982 741.059 345.534C741.467 346.086 742.031 346.362 742.751 346.362C743.471 346.362 744.029 346.086 744.425 345.534C744.833 344.982 745.037 344.232 745.037 343.284ZM755.759 343.266C755.759 342.342 755.573 341.61 755.201 341.07C754.841 340.53 754.265 340.26 753.473 340.26C753.113 340.26 752.771 340.314 752.447 340.422C752.135 340.53 751.883 340.65 751.691 340.782V346.2C751.847 346.236 752.045 346.272 752.285 346.308C752.537 346.332 752.837 346.344 753.185 346.344C753.989 346.344 754.619 346.074 755.075 345.534C755.531 344.982 755.759 344.226 755.759 343.266ZM757.991 343.302C757.991 344.058 757.877 344.742 757.649 345.354C757.433 345.954 757.115 346.47 756.695 346.902C756.287 347.334 755.789 347.664 755.201 347.892C754.613 348.12 753.947 348.234 753.203 348.234C752.483 348.234 751.793 348.18 751.133 348.072C750.485 347.964 749.945 347.844 749.513 347.712V334.392L751.691 334.032V338.91C751.943 338.778 752.249 338.658 752.609 338.55C752.981 338.442 753.389 338.388 753.833 338.388C754.493 338.388 755.081 338.508 755.597 338.748C756.125 338.976 756.563 339.306 756.911 339.738C757.259 340.17 757.523 340.692 757.703 341.304C757.895 341.904 757.991 342.57 757.991 343.302ZM768.75 343.284C768.75 344.028 768.642 344.706 768.426 345.318C768.21 345.93 767.904 346.452 767.508 346.884C767.112 347.316 766.632 347.652 766.068 347.892C765.516 348.132 764.904 348.252 764.232 348.252C763.56 348.252 762.948 348.132 762.396 347.892C761.844 347.652 761.37 347.316 760.974 346.884C760.578 346.452 760.266 345.93 760.038 345.318C759.822 344.706 759.714 344.028 759.714 343.284C759.714 342.54 759.822 341.868 760.038 341.268C760.266 340.656 760.578 340.134 760.974 339.702C761.382 339.27 761.862 338.94 762.414 338.712C762.966 338.472 763.572 338.352 764.232 338.352C764.892 338.352 765.498 338.472 766.05 338.712C766.614 338.94 767.094 339.27 767.49 339.702C767.886 340.134 768.192 340.656 768.408 341.268C768.636 341.868 768.75 342.54 768.75 343.284ZM766.518 343.284C766.518 342.348 766.314 341.61 765.906 341.07C765.51 340.518 764.952 340.242 764.232 340.242C763.512 340.242 762.948 340.518 762.54 341.07C762.144 341.61 761.946 342.348 761.946 343.284C761.946 344.232 762.144 344.982 762.54 345.534C762.948 346.086 763.512 346.362 764.232 346.362C764.952 346.362 765.51 346.086 765.906 345.534C766.314 344.982 766.518 344.232 766.518 343.284ZM770.886 336.102L773.064 335.742V338.586H776.412V340.404H773.064V344.238C773.064 344.994 773.184 345.534 773.424 345.858C773.664 346.182 774.072 346.344 774.648 346.344C775.044 346.344 775.392 346.302 775.692 346.218C776.004 346.134 776.25 346.056 776.43 345.984L776.79 347.712C776.538 347.82 776.208 347.928 775.8 348.036C775.392 348.156 774.912 348.216 774.36 348.216C773.688 348.216 773.124 348.126 772.668 347.946C772.224 347.766 771.87 347.508 771.606 347.172C771.342 346.824 771.156 346.41 771.048 345.93C770.94 345.438 770.886 344.88 770.886 344.256V336.102Z" fill="black"/>
</svg>
