<svg width="1360" height="382" viewBox="0 0 1360 382" fill="none" xmlns="http://www.w3.org/2000/svg">
<path d="M973.36 330.619V322.473C973.36 316.284 974.623 311.074 977.149 306.843C979.675 302.549 984.159 298.381 990.601 294.339C995.716 291.118 999.379 288.213 1001.59 285.624C1003.86 283.035 1005 280.067 1005 276.72C1005 274.067 1003.8 271.983 1001.4 270.468C999 268.889 995.874 268.1 992.021 268.1C982.486 268.1 971.34 271.478 958.583 278.235L945.416 252.47C961.141 243.502 977.56 239.019 994.674 239.019C1008.76 239.019 1019.81 242.113 1027.83 248.302C1035.85 254.491 1039.86 262.921 1039.86 273.594C1039.86 281.235 1038.06 287.866 1034.46 293.486C1030.92 299.044 1025.24 304.317 1017.41 309.306C1010.78 313.6 1006.61 316.757 1004.9 318.778C1003.26 320.736 1002.44 323.073 1002.44 325.788V330.619H973.36ZM969.287 363.773C969.287 357.964 970.961 353.48 974.308 350.322C977.718 347.165 982.707 345.586 989.274 345.586C995.59 345.586 1000.42 347.196 1003.77 350.417C1007.18 353.575 1008.88 358.027 1008.88 363.773C1008.88 369.52 1007.11 373.972 1003.58 377.13C1000.1 380.287 995.337 381.866 989.274 381.866C983.022 381.866 978.128 380.319 974.592 377.225C971.055 374.067 969.287 369.583 969.287 363.773Z" fill="white" fill-opacity="0.07"/>
<path d="M1256.87 239.468V228.382C1256.87 219.96 1258.58 212.87 1262.02 207.112C1265.46 201.269 1271.56 195.597 1280.33 190.097C1287.29 185.714 1292.27 181.761 1295.28 178.237C1298.37 174.714 1299.92 170.675 1299.92 166.12C1299.92 162.511 1298.29 159.675 1295.02 157.612C1291.76 155.464 1287.5 154.39 1282.26 154.39C1269.28 154.39 1254.12 158.987 1236.76 168.183L1218.84 133.12C1240.24 120.917 1262.58 114.815 1285.87 114.815C1305.03 114.815 1320.07 119.026 1330.99 127.448C1341.9 135.87 1347.36 147.343 1347.36 161.866C1347.36 172.265 1344.91 181.288 1340.01 188.937C1335.2 196.499 1327.46 203.675 1316.81 210.464C1307.78 216.308 1302.11 220.604 1299.79 223.354C1297.56 226.019 1296.44 229.198 1296.44 232.894V239.468H1256.87ZM1251.32 284.585C1251.32 276.679 1253.6 270.577 1258.15 266.28C1262.79 261.983 1269.58 259.835 1278.52 259.835C1287.12 259.835 1293.69 262.026 1298.24 266.409C1302.88 270.706 1305.21 276.765 1305.21 284.585C1305.21 292.405 1302.8 298.464 1297.99 302.761C1293.26 307.058 1286.77 309.206 1278.52 309.206C1270.01 309.206 1263.35 307.101 1258.54 302.89C1253.73 298.593 1251.32 292.491 1251.32 284.585Z" fill="white" fill-opacity="0.07"/>
<path d="M389.859 215.484V204.398C389.859 195.977 391.578 188.887 395.016 183.129C398.453 177.285 404.555 171.613 413.32 166.113C420.281 161.73 425.266 157.777 428.273 154.254C431.367 150.73 432.914 146.691 432.914 142.137C432.914 138.527 431.281 135.691 428.016 133.629C424.75 131.48 420.496 130.406 415.254 130.406C402.277 130.406 387.109 135.004 369.75 144.199L351.832 109.137C373.23 96.9336 395.574 90.832 418.863 90.832C438.027 90.832 453.066 95.043 463.98 103.465C474.895 111.887 480.352 123.359 480.352 137.883C480.352 148.281 477.902 157.305 473.004 164.953C468.191 172.516 460.457 179.691 449.801 186.48C440.777 192.324 435.105 196.621 432.785 199.371C430.551 202.035 429.434 205.215 429.434 208.91V215.484H389.859ZM384.316 260.602C384.316 252.695 386.594 246.594 391.148 242.297C395.789 238 402.578 235.852 411.516 235.852C420.109 235.852 426.684 238.043 431.238 242.426C435.879 246.723 438.199 252.781 438.199 260.602C438.199 268.422 435.793 274.48 430.98 278.777C426.254 283.074 419.766 285.223 411.516 285.223C403.008 285.223 396.348 283.117 391.535 278.906C386.723 274.609 384.316 268.508 384.316 260.602Z" fill="white" fill-opacity="0.07"/>
<path d="M27.9443 318.226V310.079C27.9443 303.89 29.2074 298.68 31.7334 294.449C34.2594 290.155 38.7432 285.987 45.1846 281.945C50.2998 278.725 53.9626 275.82 56.1729 273.23C58.4463 270.641 59.583 267.673 59.583 264.326C59.583 261.674 58.3831 259.59 55.9834 258.074C53.5837 256.495 50.4577 255.706 46.6055 255.706C37.0697 255.706 25.9235 259.085 13.167 265.842L0 240.076C15.7246 231.109 32.1439 226.625 49.2578 226.625C63.3405 226.625 74.3919 229.719 82.4121 235.908C90.4323 242.097 94.4424 250.528 94.4424 261.2C94.4424 268.841 92.6426 275.472 89.043 281.093C85.5065 286.65 79.8229 291.923 71.9922 296.912C65.3613 301.206 61.1934 304.364 59.4883 306.385C57.8464 308.342 57.0254 310.679 57.0254 313.395V318.226H27.9443ZM23.8711 351.38C23.8711 345.57 25.5446 341.086 28.8916 337.929C32.3018 334.771 37.2907 333.192 43.8584 333.192C50.1735 333.192 55.0046 334.803 58.3516 338.023C61.7617 341.181 63.4668 345.633 63.4668 351.38C63.4668 357.127 61.6986 361.579 58.1621 364.736C54.6888 367.894 49.9209 369.473 43.8584 369.473C37.6064 369.473 32.7122 367.925 29.1758 364.831C25.6393 361.674 23.8711 357.19 23.8711 351.38Z" fill="white" fill-opacity="0.07"/>
<path d="M849.703 146.706V141.919C849.703 138.282 850.445 135.221 851.93 132.734C853.414 130.211 856.049 127.762 859.834 125.387C862.84 123.494 864.992 121.787 866.291 120.266C867.627 118.744 868.295 117 868.295 115.033C868.295 113.475 867.59 112.25 866.18 111.359C864.77 110.432 862.933 109.968 860.669 109.968C855.065 109.968 848.516 111.953 841.02 115.924L833.282 100.783C842.522 95.5137 852.171 92.8789 862.228 92.8789C870.503 92.8789 876.997 94.6973 881.71 98.334C886.423 101.971 888.779 106.925 888.779 113.196C888.779 117.687 887.722 121.583 885.606 124.886C883.528 128.151 880.188 131.25 875.587 134.182C871.69 136.705 869.241 138.561 868.239 139.748C867.274 140.898 866.792 142.271 866.792 143.867V146.706H849.703ZM847.31 166.188C847.31 162.774 848.293 160.14 850.26 158.284C852.264 156.429 855.195 155.501 859.055 155.501C862.766 155.501 865.604 156.447 867.571 158.34C869.575 160.195 870.577 162.812 870.577 166.188C870.577 169.565 869.538 172.182 867.46 174.037C865.419 175.893 862.617 176.82 859.055 176.82C855.381 176.82 852.505 175.911 850.427 174.093C848.349 172.237 847.31 169.603 847.31 166.188Z" fill="white" fill-opacity="0.07"/>
</svg>
