<svg width="67" height="80" viewBox="0 0 67 80" fill="none" xmlns="http://www.w3.org/2000/svg">
<g clip-path="url(#clip0)">
<mask id="mask0" mask-type="alpha" maskUnits="userSpaceOnUse" x="-34" y="0" width="101" height="81">
<path d="M51.2488 0.236526C53.3909 1.32314 54.2099 4.2444 53.2964 7.49637C52.5089 10.3231 50.5243 13.0161 47.9727 14.7405C47.5711 15.0161 47.2403 15.268 47.2325 15.2995C47.2325 15.331 47.3585 15.4176 47.516 15.4806C47.8782 15.6302 48.1539 15.5909 49.4218 15.1893C50.8393 14.7405 51.2331 14.7877 51.4063 15.4334C51.5796 16.0869 51.1386 16.6224 49.8313 17.3704C49.4612 17.5751 48.9099 17.8901 48.6106 18.0633C47.9806 18.4176 47.2167 19.1105 47.0749 19.4491C46.9883 19.6539 47.0119 19.7247 47.3821 20.331C48.2484 21.7798 48.9178 23.5279 49.2091 25.1657C49.3509 25.9216 49.3824 26.4255 49.3903 27.7562C49.3982 29.4334 49.343 30.0082 49.028 31.7562C48.8311 32.8349 48.8548 33.1578 49.3194 35.2759C49.469 35.9452 49.7289 37.142 49.9022 37.9294C50.3511 39.9846 50.4771 40.8901 50.4692 42.205C50.4692 43.6381 50.3117 44.4806 49.847 45.6302L49.6895 46.0318L50.0991 46.2444C50.3274 46.3625 50.7448 46.6538 51.0205 46.8901C52.2096 47.8743 52.8948 49.142 53.8398 52.1263C54.1076 52.9688 54.399 53.8822 54.4935 54.1578C54.5801 54.4255 55.1629 55.7011 55.785 56.9924C57.9664 61.4727 58.3681 62.1578 59.825 63.8979C62.5971 67.1972 62.5971 67.1972 64.6211 68.8586C66.2985 70.2287 66.8813 70.9767 66.9758 71.9216C67.0151 72.3074 66.9915 72.4255 66.771 72.8743C66.5032 73.4098 66.204 73.709 65.5818 74.0475C64.306 74.7405 61.9828 74.7483 60.6283 74.0633C59.5888 73.5357 59.2422 72.9216 58.88 70.9924C58.502 68.9846 58.2893 68.4491 57.3758 67.2365C56.478 66.0475 55.5802 65.3231 52.4616 63.2759C49.9573 61.6381 49.2485 61.0003 48.461 59.7011C48.1775 59.2287 47.7837 58.6932 47.5947 58.52C47.2088 58.1657 46.9174 58.0869 46.9174 58.3389C46.9174 58.4255 46.8229 58.7877 46.7127 59.1499C46.122 61.0318 44.988 62.0869 43.2003 62.4098C42.0663 62.6224 40.2628 62.4649 38.5933 62.0161L38.1759 61.9058L38.0893 62.2287C37.9633 62.6932 37.979 63.5751 38.1286 64.1735C38.3098 64.9137 38.9477 66.142 39.6092 67.0239C40.5621 68.2916 42.5624 70.5357 43.0901 70.9216C43.7437 71.4019 44.8462 71.9216 46.6812 72.5987C49.0989 73.4964 50.0439 74.0633 50.4928 74.8822C50.9496 75.7247 50.7527 76.7956 49.9967 77.5515C49.3824 78.1657 48.1224 78.709 46.8859 78.8979C45.6259 79.0869 43.9248 78.9846 43.3421 78.6853C42.8853 78.4491 42.2474 77.7483 41.5623 76.7326C40.57 75.268 40.129 74.8586 37.7427 73.1893C36.782 72.5121 35.1833 71.3389 31.8363 68.8586C31.3559 68.5042 30.5447 67.8507 30.025 67.4098C29.3792 66.8664 28.8594 66.4964 28.379 66.2601C28.001 66.0633 27.6388 65.9058 27.5836 65.9058C27.5285 65.9058 26.8434 66.2208 26.0637 66.6066C23.6618 67.7877 22.3623 68.1657 20.4408 68.2444C19.0311 68.2995 17.7553 68.1814 16.0464 67.8428C15.3533 67.7011 14.7627 67.6066 14.7469 67.6302C14.6682 67.7011 14.7076 67.9609 14.8257 68.1893C14.8887 68.3153 15.2903 68.6932 15.7077 69.0318C16.133 69.3704 16.5583 69.772 16.6528 69.9137C17.1253 70.6145 16.6843 71.4019 15.2903 72.3231C13.9673 73.1972 13.6523 73.2995 11.2897 73.6224C9.06887 73.9373 8.47823 74.1342 7.95846 74.7247C7.74582 74.9688 7.60407 75.4964 7.66707 75.8271C7.79308 76.4491 8.4231 76.7641 10.6124 77.3231C12.7781 77.8743 13.3294 78.1814 13.2743 78.8113L13.2506 79.0948L11.8803 79.4255C10.2895 79.8113 9.24213 80.0003 8.72236 80.0003C8.5176 80.0003 7.94271 79.9294 7.45444 79.8428C6.9583 79.7641 5.98964 79.6224 5.29662 79.5279C2.91041 79.2129 1.4771 78.8586 0.571449 78.3468C-0.318459 77.8428 -0.964233 76.9216 -0.964233 76.142C-0.964233 75.3389 -0.491714 74.7562 1.24084 73.4334C3.18604 71.9531 3.64281 71.3861 3.64281 70.4727C3.63493 69.6145 3.19392 69.0948 1.91025 68.457C0.799835 67.9058 0.169807 67.8192 -1.72025 67.9216L-2.59441 67.9767L-2.77554 68.3389C-3.03542 68.8743 -3.57095 69.5987 -4.01196 70.0161C-5.39801 71.2995 -6.80769 71.0239 -7.98898 69.2365L-8.25674 68.8271L-9.17814 69.5121C-10.2964 70.3546 -10.7059 70.5751 -11.3045 70.6145C-11.7455 70.646 -11.7612 70.646 -12.0999 70.3074C-12.3125 70.0869 -12.5015 69.7877 -12.6039 69.5121C-12.8086 68.9688 -12.9898 67.646 -13.0607 66.2838L-13.1079 65.2838L-13.3835 65.2287C-13.8639 65.142 -15.0688 65.2523 -15.5886 65.4334C-15.8643 65.5279 -16.7305 65.9767 -17.5181 66.4334C-19.6523 67.6696 -21.1801 68.3546 -23.1646 68.9924C-24.3144 69.3546 -24.5113 69.5672 -25.4248 71.3546C-26.2675 73.0161 -26.6927 73.5042 -27.7244 73.9846C-28.2678 74.2444 -28.3859 74.331 -28.4804 74.5672C-28.6064 74.8822 -28.7246 75.6066 -28.8427 76.7326C-28.9372 77.6145 -29.0317 78.0239 -29.2365 78.4255C-29.5121 78.9531 -29.6696 79.0397 -30.654 79.1735C-31.7172 79.3074 -32.5992 79.3231 -32.9142 79.205C-33.497 78.9846 -33.8671 78.2365 -33.7805 77.4334C-33.7332 76.9452 -33.3867 76.1972 -32.9378 75.5909C-32.7646 75.3546 -32.1346 74.6145 -31.536 73.9452C-30.9454 73.2838 -30.2603 72.4806 -30.0161 72.1578C-29.6145 71.6224 -29.5672 71.52 -29.4806 70.9216C-29.4176 70.5672 -29.2365 69.709 -29.0632 69.0161C-28.1891 65.4885 -26.9999 63.646 -24.8027 62.4019L-23.9679 61.9294L-22.4795 59.6853C-21.6605 58.4491 -20.6052 56.9373 -20.1327 56.3153C-19.6601 55.6932 -19.0537 54.7798 -18.786 54.2838C-17.6204 52.1184 -16.699 51.1893 -13.8403 49.2916C-12.9504 48.7011 -12.2968 48.1972 -11.8951 47.7956C-11.5565 47.457 -11.2808 47.1499 -11.2808 47.1105C-11.2808 47.0712 -11.588 46.8113 -11.966 46.5357C-13.8482 45.142 -16.1084 43.0633 -17.0534 41.8664C-19.8885 38.2601 -18.7545 36.0003 -13.4465 34.6932C-12.2495 34.4019 -10.7138 34.1342 -7.90234 33.7326C-6.50055 33.5357 -5.272 33.3389 -5.17751 33.3074C-5.04362 33.2601 -4.97275 33.1184 -4.87037 32.7247C-4.50023 31.2365 -4.90974 30.394 -6.36667 29.6853C-6.72893 29.5042 -8.17798 28.9767 -9.57191 28.5121C-12.1392 27.6539 -13.4623 27.1499 -14.8326 26.5121L-15.5886 26.1578L-15.6752 25.4649C-15.817 24.4098 -15.8327 24.0397 -15.7619 23.2601C-15.6516 21.9846 -15.2736 21.1342 -14.1789 19.6775C-13.226 18.4098 -13.0607 18.0397 -13.1158 17.2444C-13.1315 16.8901 -13.2182 16.5042 -13.3205 16.2759L-13.4859 15.8901L-13.1552 15.9452C-11.3675 16.2129 -10.4697 16.5436 -9.85542 17.1578C-9.12302 17.8901 -9.06789 18.5672 -9.55615 20.4727C-9.87116 21.7011 -9.90266 22.4885 -9.65066 22.9531C-9.23327 23.7405 -8.08348 24.772 -6.16191 26.0948C-4.56323 27.1972 -3.7127 27.8192 -3.21656 28.2523C-2.16914 29.1735 -1.39737 30.3468 -1.20049 31.3153C-0.775223 33.3468 -2.04314 34.7168 -5.16962 35.6224C-6.07529 35.8901 -7.76847 36.2208 -10.2177 36.6145C-12.4621 36.9767 -13.7222 37.2444 -14.4624 37.5042C-17.14 38.4806 -16.3683 40.1184 -11.7927 43.1893C-10.4461 44.0948 -8.37486 45.3546 -8.23311 45.3546C-8.18586 45.3546 -7.13844 44.9058 -5.9099 44.3625C0.0989304 41.6932 2.83953 40.8664 6.43853 40.6302C7.52532 40.5515 7.6907 40.5279 7.93483 40.3546C8.44672 40.0003 9.46264 39.1263 11.0692 37.6617C13.2585 35.6538 13.983 35.0397 14.9123 34.4098C15.9991 33.6696 17.0938 33.1342 18.3696 32.7168C19.2437 32.4334 19.5587 32.2838 20.1021 31.9137C21.8819 30.6853 23.2837 29.1578 24.1343 27.5121C24.5674 26.6853 24.7564 26.1972 25.0084 25.2444C25.1974 24.5121 25.2132 24.3231 25.2132 22.9137C25.2132 21.4412 25.2053 21.3389 24.9691 20.457C24.8352 19.9531 24.6383 19.3704 24.5359 19.1578C24.1736 18.4412 23.4964 18.1499 21.4094 17.8349C20.0549 17.6224 19.4327 17.4491 19.039 17.1657C18.5743 16.8349 18.3932 16.1499 18.6846 15.8271C18.7633 15.7405 19.1492 15.4964 19.5351 15.2916C20.299 14.8901 20.5668 14.6381 20.6928 14.1893C20.8818 13.5121 20.677 12.8664 20.1573 12.4491C19.9998 12.3231 19.1807 11.8743 18.3459 11.457C17.1017 10.8271 16.7315 10.5987 16.2984 10.1972C15.3612 9.32314 15.0541 8.52786 15.125 7.0948C15.1722 5.92944 15.5266 4.68535 16.2511 3.11054C16.4795 2.61448 17.5269 0.630226 17.6135 0.535736C17.6372 0.504242 17.645 1.32314 17.6372 2.34676C17.582 5.67747 17.9128 7.52786 18.7791 8.83495C19.5194 9.96094 20.2911 10.2995 22.7403 10.583C23.8193 10.709 24.591 10.8901 25.1108 11.142L25.4022 11.2838L26.2527 10.7483C28.4184 9.38613 29.7572 9.10267 31.7575 9.56724C33.1042 9.88219 33.8051 9.89794 34.7501 9.66172C36.5536 9.19716 38.8532 8.92156 40.1998 9.00818C41.9954 9.12629 42.9326 9.4255 44.3659 10.3546C44.7202 10.583 45.0746 10.7956 45.1613 10.8192C45.2794 10.8586 45.8149 10.6145 46.9804 10.0082C48.9729 8.97668 49.2249 8.81133 49.9967 8.0318C51.0205 7.00031 51.43 5.89794 51.43 4.17353C51.43 3.10267 51.2803 2.04755 50.9653 0.842827C50.8472 0.417625 50.7684 0.0554199 50.7842 0.0396729C50.7999 0.0317993 51.0126 0.118416 51.2488 0.236526Z" fill="#5E72E4"/>
</mask>
<g mask="url(#mask0)">
<rect x="0.134338" width="66.8657" height="80" fill="#FB6340"/>
</g>
</g>
<defs>
<clipPath id="clip0">
<rect width="66.8657" height="80" transform="matrix(-1 0 0 1 67 0)" fill="white"/>
</clipPath>
</defs>
</svg>
