<svg width="20" height="20" viewBox="0 0 20 20" fill="none" xmlns="http://www.w3.org/2000/svg">
<path opacity="0.1" fill-rule="evenodd" clip-rule="evenodd" d="M13.206 5.64622C13.3661 5.44693 13.5821 5.33477 13.8074 5.33399C14.0327 5.33321 14.2492 5.44387 14.4101 5.64205C14.571 5.84022 14.6634 6.10999 14.6672 6.39303C14.671 6.67608 14.5861 6.94964 14.4306 7.15459L9.86613 14.323C9.78768 14.4291 9.693 14.5143 9.58775 14.5735C9.4825 14.6326 9.36883 14.6645 9.25355 14.6671C9.13827 14.6698 9.02375 14.6433 8.91682 14.5891C8.8099 14.5349 8.71277 14.4541 8.63125 14.3517L5.60693 10.5506C5.52267 10.452 5.45509 10.333 5.40822 10.2008C5.36135 10.0687 5.33615 9.92602 5.33412 9.78136C5.33209 9.63669 5.35327 9.49299 5.3964 9.35884C5.43953 9.22468 5.50373 9.10281 5.58516 9.0005C5.66659 8.89819 5.76359 8.81754 5.87037 8.76335C5.97715 8.70916 6.09153 8.68255 6.20667 8.6851C6.32182 8.68766 6.43537 8.71932 6.54057 8.77821C6.64576 8.8371 6.74043 8.922 6.81894 9.02785L9.21325 12.0345L13.1843 5.67782C13.1914 5.6667 13.199 5.65614 13.2072 5.64622H13.206Z" fill="#001032"/>
<rect x="0.5" y="0.5" width="19" height="19" rx="6.5" stroke="#001032"/>
</svg>
