<?xml version="1.0" encoding="UTF-8"?>
<svg width="585px" height="666px" viewBox="0 0 585 666" version="1.1" xmlns="http://www.w3.org/2000/svg" xmlns:xlink="http://www.w3.org/1999/xlink" fill="#fff">
    <title>safety area copy 3</title>
    <desc>Created with Sketch.</desc>
    <g id="safety-area-copy-3" stroke="none" stroke-width="1">
        <g id="Group" opacity="0" transform="translate(-333.000000, -167.000000)">
            <rect id="Rectangle" x="0" y="0" width="333.214886" height="999.644658"></rect>
        </g>
        <path d="M332.415278,518.012713 C332.92367,518.090577 333.445095,518.131024 333.976837,518.131024 C353.29485,518.408819 367.08838,518.597928 375.357427,518.698354 L290.22534,666 L210.953,528.804 L253.187,528.804 L289.827239,595.404 L332.415278,518.012713 Z M387.757498,464.14331 C401.940889,464.14331 403.218672,468.484292 401.301997,486.103574 C399.321434,503.914369 396.957535,508 382.901923,508 C368.84631,508 367.632416,503.403666 369.549091,486.103574 C371.593543,468.292778 373.957442,464.14331 387.757498,464.14331 Z M87.723408,464.015634 C87.723408,464.015634 94.9428818,463.82412 101.267907,464.78169 L101.267907,464.78169 L100.501238,471.484677 C93.6012097,470.910135 88.2345212,471.165487 87.4039622,471.165487 C82.3567195,471.165487 82.1650521,474.357386 80.6317125,488.337903 L80.6317125,488.337903 L80.440045,489.933852 C79.4178187,499.190359 81.270604,500.786309 86.1261793,500.786309 L86.1261793,500.786309 L87.2761839,500.786309 L88.2345212,492.487372 L83.1233893,492.487372 L83.8900591,485.848222 L99.351233,485.848222 L97.1151128,506.340213 C92.9623182,507.553134 88.2345212,507.936162 84.2095048,507.936162 C72.7094581,507.936162 67.4705479,505.829509 69.3872223,488.082551 C71.4316751,469.761052 74.0511302,464.015634 87.723408,464.015634 Z M293.792533,497.019868 C298.45644,497.019868 299.031443,497.59441 298.52033,502.190744 C298.073106,506.531727 297.498103,507.616972 292.642528,507.616972 C287.786953,507.616972 287.467507,506.595565 287.914731,502.190744 C288.425844,497.785924 288.936957,497.019868 293.792533,497.019868 Z M354.284908,464.78169 C362.271052,464.78169 368.532188,467.016019 367.573851,475.889498 L367.573851,475.889498 L367.062738,480.677346 C366.743292,483.869245 365.146063,486.486602 362.271052,488.912445 L362.271052,488.912445 L363.357167,507.36162 L352.559901,507.36162 L351.85712,491.976668 L346.107097,491.976668 L344.445979,507.36162 L333.840381,507.36162 L338.504288,464.78169 Z M321.003986,464.78169 C329.054019,464.78169 335.315155,467.016019 334.292929,475.889498 L334.292929,475.889498 L333.781816,480.677346 C333.079035,486.614278 328.15957,490.763746 322.345658,491.721316 C321.181188,491.942942 320.161099,491.972213 315.400707,491.976079 L312.953953,491.976668 L311.292835,507.36162 L300.687237,507.36162 L305.351144,464.78169 Z M294.30897,464.78169 L293.5423,472.314571 L282.745034,472.314571 L278.911685,507.36162 L268.242197,507.36162 L272.075546,472.314571 L261.406058,472.314571 L262.172728,464.78169 L294.30897,464.78169 Z M261.666939,464.717852 L260.772491,472.378409 L244.161312,472.378409 L243.139086,481.826429 L258.344703,481.826429 L257.514144,489.550825 L242.244638,489.550825 L241.094633,499.764901 L257.705812,499.764901 L256.939142,507.36162 L229.850143,507.36162 L234.57794,464.717852 L261.666939,464.717852 Z M214.64985,464.717852 C222.955439,464.717852 230.238802,465.675421 229.088797,475.889498 L229.088797,475.889498 L228.833241,478.634531 C228.449906,481.762591 226.852677,484.060759 224.808224,485.720546 C226.597121,488.018713 227.36379,491.402126 227.172123,493.700293 L227.172123,493.700293 L226.852677,496.253812 C225.89434,505.063453 220.783208,507.36162 209.985942,507.36162 L209.985942,507.36162 L197.719225,507.36162 L202.447022,464.717852 Z M177.280022,464.717852 L181.432817,482.528647 L189.802295,464.717852 L201.238453,464.717852 L185.393944,495.104729 L184.116161,507.36162 L173.382784,507.36162 L174.724456,495.104729 L165.843864,464.717852 L177.280022,464.717852 Z M161.696394,464.78169 L168.149198,507.36162 L158.054712,507.36162 L156.457484,496.062298 L144.574102,496.062298 L140.868531,507.36162 L130.582378,507.36162 L145.979663,464.78169 L161.696394,464.78169 Z M120.940441,464.78169 C128.926585,464.78169 135.187721,467.016019 134.229384,475.889498 L134.229384,475.889498 L133.718271,480.677346 C133.398825,483.869245 131.801596,486.486602 128.926585,488.912445 L128.926585,488.912445 L130.0127,507.36162 L119.215434,507.36162 L118.512654,491.976668 L112.76263,491.976668 L111.101512,507.36162 L100.495914,507.36162 L105.159821,464.78169 Z M60.1154503,406.041013 C63.6315288,417.083774 68.9673783,426.961562 76.3734599,435.729096 C77.867396,437.49766 79.4227033,439.192898 81.0376786,440.815279 L73.1601441,454.444877 C67.7991384,455.781549 63.6060221,458.503981 60.4215659,463.038177 C56.8562405,468.114674 55.2670405,474.175949 53.9617395,485.016587 L53.8895041,485.623786 L53.7211757,487.094781 C53.0770398,493.063767 53.0713644,498.015747 53.9190842,502.182828 L4.55783967,502.182737 L60.1154503,406.041013 Z M507.216211,367.602413 L585,502.182737 L415.549,502.183 L436.042,466.703 L523.476328,466.704146 L480.817129,392.890049 C483.791478,390.646053 486.845759,388.177287 490.197163,385.469752 C496.754422,380.172267 502.432421,374.189692 507.216211,367.602413 Z M387.161464,471.357863 L386.990828,471.357001 C381.879696,471.357001 381.368583,473.91052 379.963022,486.103574 C378.62135,498.105114 378.62135,500.722471 383.668592,500.722471 C388.843613,500.722471 389.546394,498.615817 390.951955,486.103574 C392.293627,473.655168 392.165849,471.357001 386.990828,471.357001 Z M214.202626,490.125366 L210.049831,490.125366 L208.899826,500.339443 L210.944279,500.339443 C214.202626,500.339443 215.991522,499.254197 216.374857,495.806946 L216.374857,495.806946 L216.630413,493.636455 C216.949859,490.699908 215.799854,490.125366 214.202626,490.125366 L214.202626,490.125366 Z M153.135248,472.378409 L147.576892,488.082551 L155.307479,488.082551 L153.135248,472.378409 Z M353.326571,471.931543 L348.407106,471.931543 L346.937656,484.571462 L351.985834,484.570948 C354.168826,484.553166 356.081176,484.058303 356.457139,480.677346 L356.457139,480.677346 L357.032142,475.953336 C357.543255,472.378409 355.371024,471.931543 353.326571,471.931543 L353.326571,471.931543 Z M320.173427,471.931543 L315.253962,471.931543 L313.784512,484.571462 L318.836306,484.570948 C321.079571,484.553166 322.991921,484.058303 323.367884,480.677346 L323.367884,480.677346 L323.878998,475.953336 C324.326222,472.378409 322.281769,471.931543 320.173427,471.931543 L320.173427,471.931543 Z M119.982104,471.931543 L115.062639,471.931543 L113.593189,484.571462 L118.641367,484.570948 C120.824359,484.553166 122.736709,484.058303 123.112672,480.677346 L123.112672,480.677346 L123.687675,475.953336 C124.198788,472.378409 122.026557,471.931543 119.982104,471.931543 L119.982104,471.931543 Z M214.074847,471.803867 L212.094284,471.803867 L210.944279,481.954105 L215.097074,481.954105 C216.694303,481.954105 218.035975,481.315726 218.291531,478.443017 L218.291531,478.443017 L218.547088,476.400201 C218.994312,472.123057 217.269305,471.803867 214.074847,471.803867 L214.074847,471.803867 Z M230.661747,219.304122 C232.392682,219.499624 234.098233,219.709299 235.77742,219.933771 L292.93282,219.934381 C300.185395,219.940209 314.185169,220.021788 334.932141,220.179121 L422.310777,220.179121 C444.519672,220.179121 462.590102,223.967475 477.243405,234.166881 C496.549593,247.604919 505.106082,269.377487 502.458114,295.507708 L500.405851,314.975425 C498.061802,336.043973 489.691438,353.10323 475.478662,365.220047 C464.001421,375.004739 450.25763,380.50808 433.758497,383.458645 L431.484876,383.856854 C427.41344,384.555459 424.128811,384.867005 416.384982,385.00544 L415.544954,385.019152 L409.154372,444.913673 L310.303444,444.913673 C295.87215,444.885811 284.066766,444.885362 274.887292,444.912327 L273.966306,444.913673 L198.218071,444.914276 C188.024968,446.31463 178.263519,447.119355 170.039286,447.119355 L168.490653,447.116215 C154.687098,447.059374 144.470305,446.222696 134.990634,443.931716 C120.969887,440.54328 109.33471,433.903398 100.649587,423.053462 C92.2756345,412.592258 87.8264965,399.693006 86.2096757,384.067039 C84.8893377,371.306467 85.3842817,356.07326 87.5283052,336.871631 L88.244363,330.542854 C90.3091897,312.562635 91.9037639,301.229756 93.9578393,290.882178 L94.112771,290.107869 C97.2981804,274.313144 101.484791,262.043271 107.973176,251.572441 C115.910405,238.763494 126.962643,229.497361 141.078828,223.927055 C152.886459,219.267714 166.34218,217.304003 182.935274,217.23984 L183.38325,217.238695 L184.927623,217.21145 C198.537982,217.013503 214.734391,217.505195 230.661747,219.304122 Z M190.72989,247.813902 L188.405461,247.813902 C185.48147,247.827222 183.781702,247.872692 183.781702,247.872692 C131.020641,247.872692 125.867235,269.929518 118.014426,340.266286 C110.483092,407.716061 125.560338,416.31712 168.722733,416.482396 L170.039286,416.484875 L170.780648,416.482171 C178.324681,416.427645 187.419316,415.552009 196.661202,414.187197 L198.199818,413.955688 C205.094219,412.899207 212.027157,411.581418 218.418296,410.13959 L219.610143,409.867827 L228.444554,329.728025 L172.98409,329.728025 L170.284687,353.255306 L191.634511,353.255306 L187.953507,388.301152 L183.755232,388.457969 C178.855623,388.630456 174.219007,388.737282 170.775487,388.546228 C157.656388,387.575728 151.27176,381.320853 154.955165,348.379887 L155.069869,347.373486 L155.56067,341.24659 L156.605998,332.11495 C161.822155,286.811885 163.789295,276.996464 181.493506,276.794844 L182.573364,276.786969 C184.59579,276.756179 189.551609,276.583376 196.610872,276.574875 L198.316765,276.576072 C202.367832,276.58664 207.032138,276.6539 212.172702,276.828408 L213.336656,276.86948 C218.905252,277.073441 225.005948,277.404193 231.471606,277.923423 L232.616358,278.017021 L235.315762,250.813602 L234.593285,250.704636 C229.066966,249.882289 223.376456,249.288912 217.893891,248.862565 L216.068573,248.726119 L214.221801,248.598969 C204.838051,247.980043 196.345485,247.82853 190.72989,247.813902 Z M422.310777,250.813602 L362.433108,250.813602 L344.518887,414.279192 L381.57433,414.279192 L387.954738,354.480685 L402.215563,354.47379 C418.971108,354.444698 422.854388,354.292859 427.218783,353.500382 C435.062137,352.180216 442.367472,350.101498 448.657441,346.651308 L449.265411,346.311731 L449.394993,346.237738 C460.12358,340.088384 467.764899,329.772744 469.856744,312.129308 L469.918432,311.592412 L471.881634,292.966648 L471.983987,291.966869 C475.064598,259.548024 452.410508,250.984175 423.197993,250.81614 L422.310777,250.813602 Z M293.057587,250.568526 L246.726875,250.568526 L228.567254,414.279192 L273.966306,414.279192 L275.181927,414.276529 C291.30399,414.20532 303.980632,412.697378 313.604495,408.748873 L314.320567,408.448144 C327.916861,402.603992 335.242641,391.678955 337.459369,372.703624 L337.524979,372.126146 L338.751981,362.323112 L338.789971,361.928137 C339.64535,352.39692 336.439167,339.178552 328.93597,331.443556 C337.308878,325.231904 343.349716,317.157063 345.012431,304.494567 L345.074992,303.998896 L346.35939,292.966648 L346.482436,291.815471 C350.193899,254.547948 323.760142,250.64399 293.057587,250.568526 Z M290.653525,346.883334 C298.260934,346.883334 303.41434,349.579168 302.187339,362.078037 L300.960337,370.655691 C299.733336,383.889787 292.862128,388.546228 279.855913,388.546228 L277.892711,388.546228 L268.076699,388.301152 L272.493904,346.883334 L290.653525,346.883334 Z M419.120574,276.30149 C428.445784,276.30149 437.525595,278.262097 435.562392,293.211723 L433.59919,311.592412 C432.141513,325.907292 423.227814,327.972032 413.763331,328.011895 L391.144941,328.012494 L396.789148,276.30149 L419.120574,276.30149 Z M309.303947,294.927254 L308.567746,303.014757 C307.095344,315.023474 301.696538,318.20946 293.843729,318.20946 L275.684108,318.20946 L280.346713,275.811338 L290.408125,275.811338 C303.905141,275.811338 311.267149,277.036718 309.303947,294.927254 Z M169.418,163.817 L148.908,199.326 L61.5329724,199.326987 L84.1067647,238.377594 C83.2104318,239.5922 82.3449397,240.835874 81.5121113,242.109487 C74.6575351,252.591939 69.7942702,264.181541 66.1044154,278.207592 L-6.52960352e-10,163.817263 L169.418,163.817 Z M327.146,163.766 L327.146925,163.836 L409.766515,163.836 L409.766,163.817 L580.465163,163.817263 L523.761159,261.940483 C519.645807,248.987577 512.530157,237.372769 502.534537,227.708652 L518.936559,199.333969 L427.800669,199.333794 C424.903383,199.200169 421.945892,199.128379 418.925784,199.115865 L417.965185,199.113881 L304.422171,199.113881 L304.410889,199.202562 L303.474128,199.159493 C299.137317,198.969756 294.481313,198.884348 289.2981,198.884348 C276.676084,198.713791 264.788294,198.599181 253.634728,198.540521 L273.72,163.766 L327.146,163.766 Z M294.786587,-6.91045443e-10 L374.049,137.196 L331.312,137.196 L294.783751,70.9926286 L257.451,138.652 L222.865839,198.529744 C206.359116,198.617047 191.974315,198.86604 179.711436,199.276725 L212.759108,142.062079 L212.699,142.028 L294.786587,-6.91045443e-10 Z" id="Combined-Shape"></path>
    </g>
</svg>