<svg id="object" xmlns="http://www.w3.org/2000/svg" viewBox="0 0 1041.35 581.33"><defs><style>.cls-1,.cls-13{opacity:0.14;}.cls-2{fill:#e5d1bd;}.cls-3{fill:#6e8e7c;}.cls-4{fill:#4d4d4d;}.cls-5{fill:#8c9193;}.cls-6{fill:#534741;}.cls-7{fill:#647381;}.cls-8{fill:#891830;}.cls-9{opacity:0.13;}.cls-10{opacity:0.05;}.cls-11{fill:#fff;}.cls-12{fill:#f2d042;}.cls-14{fill:#f6d738;}.cls-15{fill:#f3cc30;}.cls-16{fill:#edbd31;}.cls-17{fill:#f7db5e;}.cls-18{fill:#d49a34;}.cls-19{fill:#304956;}.cls-20{fill:#eacdb0;}.cls-21{fill:#3a3029;}.cls-22{fill:#8eb3ba;}</style></defs><g class="cls-1"><path d="M315.5,731.25c25,.31,50,.52,74.79-2.53,19.52-2.39,38.76-6.8,58.26-9.37,37-4.89,74.56-3.14,111.81-5.67,11.63-.78,24.2-2.42,32.5-10.6,2.09-2.05,3.92-4.81,3.48-7.7-.47-3.13-3.36-5.26-6.12-6.82-11.51-6.49-24.71-9.32-37.77-11.34C418.91,656.51,285,710.72,149.89,710.8c-26.51,0-53.08-2.24-79.57-.6-4.57.28-19.64-.34-22.24,4.74-4.56,8.91,10.46,9.61,15.69,10,53.92,3.79,108.47,3.66,162.51,4.82Q270.89,730.69,315.5,731.25Z" transform="translate(-43.56 -150.08)"/></g><path class="cls-2" d="M421.83,359a7.6,7.6,0,0,0-.7-.91c-2.45-2.62-5.86-1.8-8.58-3.48-1.22-.75-2.63-4.7-4.46-3.36-.67.5-3.08,2-5.4,3.64-2.33.58-4.63,1.27-7,1.62-6,.9-20.21-4.23-22.47,3.66a13,13,0,0,0-.74,4.69,12.09,12.09,0,0,0,1.15,3.8c.43.95.88,2.55,1.83,2.95s3.55-.28,4.64-.37l9.31-.73c3-.24,6.67-.24,8.59,2.19a16.33,16.33,0,0,0,1.22,1.62,5.75,5.75,0,0,0,2,1.1,38.21,38.21,0,0,0,8.18,2.14c5,.64,9.86-5.1,12.84-8.1a6.81,6.81,0,0,0,1.82-2.55c.52-1.64-.15-3.44-.82-5.08A16.15,16.15,0,0,0,421.83,359Z" transform="translate(-43.56 -150.08)"/><path class="cls-3" d="M308.42,367.7a47.48,47.48,0,0,0,10,6.45,41.37,41.37,0,0,0,9.16,2.41,191.58,191.58,0,0,0,58.08,1.19,67.46,67.46,0,0,0-1.9-26.74,312.17,312.17,0,0,1-47.46-8.18,38.25,38.25,0,0,1-9.32-3.28c-4.18-2.31-7.4-6-10.53-9.57l-36.39-41.71c-7.31-8.39-15-17-25-21.81-28-13.25-47.45,18.59-27.42,39.33C250.12,329.08,282.65,347.83,308.42,367.7Z" transform="translate(-43.56 -150.08)"/><path class="cls-2" d="M54.47,689.24c1.94,3,4.54,5.25,6.79,7.89,10.2-6.45,19.62-13.09,28.3-21.7-6.8-1.67-7.43-7.82-16.17-2.43C70.56,674.75,59.28,686.86,54.47,689.24Z" transform="translate(-43.56 -150.08)"/><path class="cls-4" d="M67.31,694.16c1.57,1.55,1.52,3.16,1.27,5.1-.14,1.13-.7,2.23-.56,3.38a8,8,0,0,0,1.22,3.07c3.15,5.56,11.82,17.35-1.36,17.12-12-.21-19.69-17.78-23.82-28.16a3.73,3.73,0,0,1-.47-2.1,5.15,5.15,0,0,1,1.13-2.15c3-3.63,6.64-8.29,11.41-4.83,2,1.48,2,4.18,4.19,5.73C62.09,692.59,65.73,692.61,67.31,694.16Z" transform="translate(-43.56 -150.08)"/><path class="cls-5" d="M128.39,498.41c-4.38,23.29,28.42,50.36,20.06,68.76C131,605.66,98.71,636.76,71.9,665.64c-1.92,2.06-8,6.46-10.65,9,4.7,8,10.55,14,17,21,37.1-24.47,99.16-63,117.76-84.82,25.24-29.57,34.37-87.84,48.33-127.53,2.32-6.57,5.76-16,2-22.73-2.84-5.14-7.42-7.8-13.36-10-15.9-6-37.24-17.35-53.9-8.91C161,450.89,131.76,480.51,128.39,498.41Z" transform="translate(-43.56 -150.08)"/><path class="cls-2" d="M293.73,708.14c3.56.74,7.14.38,10.7.77,2.86-12.41,5.12-24.58,5.27-37.49-6.25,4.1-11,.25-13.39,10.8C295.53,685.63,295.71,702.8,293.73,708.14Z" transform="translate(-43.56 -150.08)"/><path class="cls-4" d="M306.69,702.28c2.23,0,3.34,1.3,4.57,2.83.71.88,1.06,2.14,1.89,2.92a6.28,6.28,0,0,0,3,1.31c6.25,1.55,20.84,3.77,11.32,13-8.65,8.42-26.6,1.52-37-2.83a4,4,0,0,1-1.88-1.16,5.08,5.08,0,0,1-.74-2.32c-.56-4.65-1.31-10.81,4.54-11.8,2.49-.42,4.58,1.51,7.25,1C301.87,704.92,304.46,702.28,306.69,702.28Z" transform="translate(-43.56 -150.08)"/><path class="cls-5" d="M200.73,521.37c17.11,17.09,66.08,29.63,74,49.3C278,578.56,288.49,636.9,290.1,678c.11,2.94-1.23,10.59-1.26,14.47,9.12,2.62,17.33,2.07,27.16,2.76C323.19,647.87,330.64,565,330.64,565c-9.73-41.39-56.71-88.87-82.78-126.16-4.32-6.18-9.37-14.64-17.12-15.68-5.94-.8-10.64,1.3-16,4.78-14.3,9.3-57.53,24.14-60.7,42.67C150.6,490.84,187.58,508.25,200.73,521.37Z" transform="translate(-43.56 -150.08)"/><path class="cls-3" d="M208.08,264.6c-14.89,13.08-37.33,25-46.27,43.25-21.65,44-34.78,91.34-41.62,139.66q-3,21.19-6,42.4c-2,13.9-1.48,17.13,9.9,18.15,21.11,1.9,64.71-2.86,85.13-10.52,9.72-3.64,19.07-9,29-11.26,14.51-3.31,28,3.33,42,2.36-1.46-14.85-4.78-28.92-5.11-44.19a420.76,420.76,0,0,1,2-45.76c2.34-26.53,3.56-53.18,5.75-79.65,1.56-19,5.5-33.8-7.43-49.81-7-8.72-21.58-15.21-33.25-15C229.85,254.45,216.88,256.88,208.08,264.6Z" transform="translate(-43.56 -150.08)"/><path class="cls-2" d="M276.83,239.77c-4.32,4.07-9.74,6.73-14.65,10.07s-7.47,6.84-10.35,11.69c-2.08,3.49-4.59,5.87-9.34,4.69-9-2.23-3.7-8.24-3.56-14.11.15-6.71-2.68-13.21-3.85-19.73-3.4-18.84,11.32-47.41,33.56-45.78C293,188.39,289.92,227.4,276.83,239.77Z" transform="translate(-43.56 -150.08)"/><path class="cls-6" d="M247.87,207.31c-2.44,1.57-3.78,5-2.43,7.54.72,1.37,2.06,2.32,2.89,3.64,2.44,3.85-.39,9-4,11.8s-8,4.79-10.44,8.66c-12.12-9.82-21.4-24.06-22.25-39.64a39.12,39.12,0,0,1,12.24-30.58c9.83-8.94,19.77-8.45,32.56-9.54,4.83-.41,9.82-.85,14.57.33,4.36,1.08,7.58,4.2,11.64,5.59,6.72,2.3,17.95-.1,23.2-5,3.21-3,5.11-7.64,9.17-9.38s8.82.21,11.16,3.77,2.31,8.36.55,12.25c-1.15,2.52-2.95,4.72-4,7.28-2.3,5.38-1.22,11.81-3.87,17-2.8,5.52-9,8.3-14.91,10.22-6.12,2-12.78,3.68-17.2,8.7.8-3.33-4.53-10.74-8.06-11.5-4.56-1-11.79,4.2-16.46,5.32C257.73,204.84,251.85,204.74,247.87,207.31Z" transform="translate(-43.56 -150.08)"/><polygon class="cls-7" points="347.2 200.45 340.05 154.25 299.8 157.26 307.13 204.62 347.2 200.45"/><polygon class="cls-7" points="378.88 405.18 371.73 358.97 332.27 367.11 339.6 414.47 378.88 405.18"/><path class="cls-8" d="M275.74,537.83c-55.57,11.45-109.86-19.7-117.66-70.13s34.52-96.54,91-102.41l99.36-10.35-7.34-47.42L241.25,315a165.71,165.71,0,0,0-58.44,15.31,156.08,156.08,0,0,0-48,34.89,140.23,140.23,0,0,0-30.62,50.86,128,128,0,0,0,18.14,117.18,140.23,140.23,0,0,0,44.55,39.23,156.26,156.26,0,0,0,56.34,18.74,165.71,165.71,0,0,0,60.34-3.08l97.4-23-7.34-47.43Z" transform="translate(-43.56 -150.08)"/><g class="cls-9"><path d="M220.54,369.87a131.12,131.12,0,0,0-22.62,6.07c-30.76,11.66-48.07,39.75-53.91,70.38-8.13,42.61,25.26,88.66,65.51,102.21,42.37,14.26,87,0,123.48-22.61-4.84,3-14.05,3.45-19.63,4.75-6.83,1.6-13.69,3.12-20.58,4.46a278.13,278.13,0,0,1-41.56,5.25C230.61,541.24,208.8,534,192,522c-18-12.76-30.75-32-34.14-53.89-7.22-46.63,28.43-89.56,78.46-100.41A143.27,143.27,0,0,0,220.54,369.87Z" transform="translate(-43.56 -150.08)"/></g><g class="cls-10"><polygon class="cls-11" points="340.05 154.25 312.97 156.28 346.13 193.52 340.05 154.25"/><path class="cls-11" d="M390.44,345.2l-35-39.27L384,303.8Zm-32.87-38.42L388.93,342l-5.75-37.15Z" transform="translate(-43.56 -150.08)"/></g><g class="cls-10"><polygon class="cls-11" points="371.73 358.97 342.05 365.09 377.51 396.35 371.73 358.97"/><path class="cls-11" d="M421.77,547.72l-37.25-32.84,31.18-6.42Zm-35.08-32.26,33.67,29.68-5.49-35.49Z" transform="translate(-43.56 -150.08)"/></g><polygon class="cls-12" points="392.11 406.87 398.88 377.57 458.99 367.36 454.02 388.83 502.77 382.04 435.93 414.85 439.38 390.46 392.11 406.87"/><g class="cls-10"><polygon points="392.11 406.87 398.88 377.57 416.36 374.6 392.11 406.87"/></g><polygon class="cls-12" points="362.7 187.43 369.47 158.13 429.58 147.91 424.62 169.39 473.37 162.59 406.52 195.4 409.98 171.02 362.7 187.43"/><g class="cls-10"><polygon points="362.7 187.43 369.47 158.13 386.95 155.15 362.7 187.43"/></g><path class="cls-2" d="M137.05,453.08a7.06,7.06,0,0,0,1-.52c2.91-1.89,2.57-5.34,4.59-7.67.9-1,5-1.69,3.89-3.7-.4-.74-1.53-3.35-2.83-5.9-.25-2.36-.6-4.72-.63-7.1-.06-6,6.91-18.8-.51-22.43a13.66,13.66,0,0,0-4.5-1.58,11.61,11.61,0,0,0-3.88.43c-1,.24-2.62.38-3.14,1.23s-.21,3.49-.27,4.55c-.19,3.06-.37,6.11-.56,9.16s-.67,6.5-3.31,7.92a15.21,15.21,0,0,0-1.76.88,5.37,5.37,0,0,0-1.35,1.74,36,36,0,0,0-3.21,7.53c-1.3,4.68,3.65,10.48,6.19,13.92a7,7,0,0,0,2.25,2.22c1.53.82,3.39.49,5.09.14A15.62,15.62,0,0,0,137.05,453.08Z" transform="translate(-43.56 -150.08)"/><path class="cls-3" d="M144,341.64c-2.81,2.61-5.67,5.27-7.69,8.53a39.09,39.09,0,0,0-3.61,8.43,183.53,183.53,0,0,0-9.09,56A68,68,0,0,0,150,417.69a294.57,294.57,0,0,1,14.49-44.47A35.45,35.45,0,0,1,169,364.8c2.83-3.63,6.87-6.08,10.81-8.45l45.83-27.61c9.22-5.55,18.73-11.37,24.79-20.26,16.79-24.67-11.75-49.36-34.8-33.76C189.75,292.24,166.94,320.31,144,341.64Z" transform="translate(-43.56 -150.08)"/><path class="cls-13" d="M737.53,687.89c-4.75,1.83-9.61,5.13-7.46,8.34,1.12,1.68,3.86,2.69,6.49,3.47,22.23,6.62,48,5.72,72.66,5.66,60.9-.14,122.95,5.7,182-3.59,2.54-.4,5.35-1,6.61-2.39,2.72-3.1-3.93-6.07-9.35-7.11-63.93-12.25-136.91-10.39-203.09-9.81C768.09,682.61,753,681.91,737.53,687.89Z" transform="translate(-43.56 -150.08)"/><circle class="cls-14" cx="658.63" cy="394.38" r="141.14" transform="translate(-129.52 431.15) rotate(-45)"/><circle class="cls-15" cx="615.08" cy="244.3" r="119.78"/><path class="cls-16" d="M723.73,293.68A119.8,119.8,0,0,1,556.18,456.32,119.79,119.79,0,1,0,723.73,293.68Z" transform="translate(-43.56 -150.08)"/><path class="cls-17" d="M559.6,403a105.73,105.73,0,0,1,191-59.89A105.74,105.74,0,1,0,572.38,456,105.29,105.29,0,0,1,559.6,403Z" transform="translate(-43.56 -150.08)"/><path class="cls-18" d="M670.37,317.33,670,332.59q9.13,1.7,14.87,6.43t10.79,14.35l-15.38,8.12q-6.54-12.62-17.6-12.88a16.4,16.4,0,0,0-11.46,3.77,13.07,13.07,0,0,0-4.76,10,12.47,12.47,0,0,0,3.44,9.28q3.5,3.66,14.27,8.83a143.45,143.45,0,0,1,15.38,8.43,41.64,41.64,0,0,1,9.08,7.49,32.61,32.61,0,0,1,8.25,23.18,36.8,36.8,0,0,1-8.5,23.16,38.43,38.43,0,0,1-21.34,13l-.39,16.12L653,471.58l.38-15.65q-15.2-2.85-23-11.06t-11.24-25l17.21-3.17q3.23,11.93,8.16,17.1,5.18,5,14,5.16A19.87,19.87,0,0,0,673,433.74q5.82-5.31,6-13.95.19-7.71-4.45-12.49a43.77,43.77,0,0,0-7-5.27,120.11,120.11,0,0,0-11.87-6.47q-14.94-7.14-19.55-12.93a31.17,31.17,0,0,1-5-30.89,28.86,28.86,0,0,1,5.39-8.63A32.22,32.22,0,0,1,645,336.5a45.14,45.14,0,0,1,11.4-4.24l.36-15.26Z" transform="translate(-43.56 -150.08)"/><path class="cls-2" d="M1052,401.24l2.82,10.28a220.05,220.05,0,0,1-35.23,11.22c.87-5.3-2.77-11.42,5.19-14.41C1027.31,407.36,1052.14,401.92,1052,401.24Z" transform="translate(-43.56 -150.08)"/><path class="cls-4" d="M1055.38,416.19a6.76,6.76,0,0,0,5.37,1.31,19.11,19.11,0,0,1,3.52-.57,6.69,6.69,0,0,1,3,1.07c4.75,2.65,17.17,12.13,17.66-2,.45-12.85-18.76-20.05-28.28-23.9a3.54,3.54,0,0,0-2-.35,5.22,5.22,0,0,0-2.19,1.32c-3.71,3.19-9.42,8-5.66,12,1.61,1.72,4.39,2.15,6,4.12C1054,410.79,1054.14,415.16,1055.38,416.19Z" transform="translate(-43.56 -150.08)"/><path class="cls-19" d="M869.57,356.47c17.06,10,27.18,26.19,43.11,37.78,30.8,22.4,122.53,6.07,122.53,6.07s3.16,20.49,2.11,23c-20.35,10.06-90.27,34.76-127,22.64q-53.8-17.74-105.94-40.26c-6.37-2.76-13.4-6.23-15.73-12.29-1.78-4.64-.23-9.51,1.53-13.88,4.7-11.69,12.06-33.7,26.11-37.93C831.64,337,856.46,348.76,869.57,356.47Z" transform="translate(-43.56 -150.08)"/><path class="cls-2" d="M1015.78,548.56q-1.51,5.67-3,11.34A243.77,243.77,0,0,1,973,551c3.77-4.57,3.71-12.41,13-10.84C988.93,540.69,1015.58,549.3,1015.78,548.56Z" transform="translate(-43.56 -150.08)"/><path class="cls-4" d="M1010.91,566.2a7.44,7.44,0,0,0,4.8,3.73,21.39,21.39,0,0,1,3.8,1,7.28,7.28,0,0,1,2.49,2.41c3.59,4.81,11.79,19.95,18.68,5.94,6.25-12.73-9.82-28.63-17.65-36.8a3.79,3.79,0,0,0-1.89-1.27,5.73,5.73,0,0,0-2.8.34c-5.16,1.53-13.06,3.76-11.11,9.52.84,2.46,3.44,4.15,4.16,6.85C1012,560.15,1010.13,564.6,1010.91,566.2Z" transform="translate(-43.56 -150.08)"/><path class="cls-19" d="M865.1,396.64c10.81,20.09,11.13,42.06,19.9,63,17,40.49,117.12,79.25,117.12,79.25S993,561,990.46,562.81c-26.07-2.25-109.75-19.72-138.71-53.62q-42.4-49.67-80.33-103c-4.63-6.52-9.48-14.15-8.15-21.51,1-5.65,5.46-9.51,9.8-12.77,11.63-8.71,32-26,48.41-21.77C839.37,354.74,856.79,381.2,865.1,396.64Z" transform="translate(-43.56 -150.08)"/><path class="cls-20" d="M694.54,266.06l10.69-12.42a81.21,81.21,0,0,0-9.62-8.82c2.19-4.27,4.33-9.61,1.63-13.59a13.47,13.47,0,0,0-3.3-3.08L678.88,217a16.54,16.54,0,0,0-5.63-3.13c-3.68-.92-7.5.79-10.66,2.9-8.05,5.38-14.15,14-15.2,23.67a14.71,14.71,0,0,0,.86,7.59c1.61,3.64,5.18,5.93,8.56,8l9.36,5.78c3.59,2.22,7.91,4.51,11.81,2.91,2.08-.86,3.7-2.73,5.89-3.16C687.75,260.79,690.84,264.68,694.54,266.06Z" transform="translate(-43.56 -150.08)"/><path class="cls-21" d="M612.3,259.54a40,40,0,0,0-5.27-1.08c-3.86-.49-7.82-.29-11.55-1.35s-7.37-3.88-7.79-7.74c-.26-2.49.84-4.92,2.09-7.09a46.63,46.63,0,0,1,17.42-17.21c6.85-3.85,14-6.23,17.59-13.59,3.37-6.92,7.89-9.72,15.2-13,7.91-3.52,16.31-10.57,24.49-12.69A21.87,21.87,0,0,1,675,186a32.81,32.81,0,0,1,24,25.06,46.69,46.69,0,0,1,.74,8.18c.09,5.68.31,12.58-2.45,17.35-3.36-3.34-10.53-17.12-15.84-17.43-8.42-.48-16.39,10.08-20.53,16.11-4.51,6.58-5.74,15.38-10.53,21.58-3.44,4.45-10.47,7.38-15.89,8.56C627.77,266.88,618.65,261.25,612.3,259.54Z" transform="translate(-43.56 -150.08)"/><path class="cls-22" d="M719,238.53c35-4.91,72.57,30.86,100.5,48.07,19.12,11.79,42.83,23.86,62.82,13.63,12.92-6.62,19.91-20.73,25.58-34.08,5.82,17,11.3,37,1.19,51.87-7.47,11-21.43,15.64-30.31,25.5-9.59,10.62-13,26.93-25.46,34-9.44,5.37-21.35,3.68-31.55,7.42-15.76,5.77-23.91,22.65-31.7,37.52-2.27,4.33-5.11,9-9.81,10.3-6,1.68-11.94-3-16-7.8-18.38-21.92-22.81-51-34.15-76.48C720,325.62,698,313.12,688,289.65c-7-16.5-1.73-34.49,13.2-44.46A42,42,0,0,1,719,238.53Z" transform="translate(-43.56 -150.08)"/><path class="cls-20" d="M576.24,275.28l9-3.67c.94-.37,3.29-1.94,4.09-.57.4.66,1.9,2.79,3.28,5,1.73,1.39,3.4,2.85,5.24,4.09,4.65,3.14,17.8,4.81,17.21,11.89a10.77,10.77,0,0,1-.85,4,8.9,8.9,0,0,1-2.12,2.5c-.65.58-1.51,1.65-2.41,1.58s-2.81-1.65-3.67-2.15l-7.37-4.31c-2.42-1.41-5.37-2.87-7.7-1.75a11.14,11.14,0,0,1-1.49.78,4.7,4.7,0,0,1-2,.06,35.2,35.2,0,0,1-7.33-1.61c-2.17-.76-2.58-2.45-3.59-4.29-1.17-2.15-3.35-3.23-4.56-5.33a3.68,3.68,0,0,1-.24-3.73,5.07,5.07,0,0,1,2.55-1.69Z" transform="translate(-43.56 -150.08)"/><path class="cls-22" d="M665.94,325.34a45.62,45.62,0,0,1-18.72-2.15,187.8,187.8,0,0,1-47.77-22.4,51.86,51.86,0,0,1,9.82-20.15,296.27,296.27,0,0,0,41.28,12.67c6.85,1.56,13.09,1.86,18.27-2.57a274.52,274.52,0,0,0,32-32.19c2.15-2.55,4.31-5.2,7.28-6.86,5.44-3,13-2.15,18.77,1.39A30.11,30.11,0,0,1,739,268.6c1.59,4.4,2.28,9.2.82,13.36s-5.12,7.43-8.71,10.27a201.53,201.53,0,0,1-53.69,30.27A46,46,0,0,1,665.94,325.34Z" transform="translate(-43.56 -150.08)"/></svg>