<svg height="512pt" viewBox="0 -21 512 512" width="512pt" xmlns="http://www.w3.org/2000/svg"><path d="m106.667969 213.332031c-58.816407 0-106.667969-47.847656-106.667969-106.664062 0-58.816407 47.851562-106.667969 106.667969-106.667969 58.816406 0 106.664062 47.851562 106.664062 106.667969 0 58.816406-47.847656 106.664062-106.664062 106.664062zm0-181.332031c-41.175781 0-74.667969 33.492188-74.667969 74.667969 0 41.171875 33.492188 74.664062 74.667969 74.664062 41.171875 0 74.664062-33.492187 74.664062-74.664062 0-41.175781-33.492187-74.667969-74.664062-74.667969zm0 0"/><path d="m448 165.332031h-261.332031c-8.832031 0-16-7.167969-16-16s7.167969-16 16-16h261.332031c17.644531 0 32-14.355469 32-32 0-17.640625-14.355469-32-32-32h-267.945312c-8.832032 0-16-7.167969-16-16s7.167968-16 16-16h267.945312c35.285156 0 64 28.714844 64 64 0 35.285157-28.714844 64-64 64zm0 0"/><path d="m405.332031 469.332031c-58.816406 0-106.664062-47.847656-106.664062-106.664062 0-58.816407 47.847656-106.667969 106.664062-106.667969 58.816407 0 106.667969 47.851562 106.667969 106.667969 0 58.816406-47.851562 106.664062-106.667969 106.664062zm0-181.332031c-41.171875 0-74.664062 33.492188-74.664062 74.667969 0 41.171875 33.492187 74.664062 74.664062 74.664062 41.175781 0 74.667969-33.492187 74.667969-74.664062 0-41.175781-33.492188-74.667969-74.667969-74.667969zm0 0"/><path d="m325.332031 421.332031h-261.332031c-35.285156 0-64-28.714843-64-64 0-35.285156 28.714844-64 64-64h267.945312c8.832032 0 16 7.167969 16 16s-7.167968 16-16 16h-267.945312c-17.644531 0-32 14.359375-32 32 0 17.644531 14.355469 32 32 32h261.332031c8.832031 0 16 7.167969 16 16s-7.167969 16-16 16zm0 0"/></svg>