<svg width="874" height="253" viewBox="0 0 874 253" fill="none" xmlns="http://www.w3.org/2000/svg">
<rect width="874" height="253" fill="white"/>
<rect x="449" y="125.156" width="58.8442" height="6" rx="3" transform="rotate(90 449 125.156)" fill="#3C76F2"/>
<rect x="318.178" y="178.656" width="39.3442" height="3" rx="1.5" transform="rotate(90 318.178 178.656)" fill="#3C76F2"/>
<rect x="520.178" y="178.656" width="39.3442" height="3" rx="1.5" transform="rotate(90 520.178 178.656)" fill="#3C76F2"/>
<rect x="707.178" y="178.656" width="39.3442" height="3" rx="1.5" transform="rotate(90 707.178 178.656)" fill="#3C76F2"/>
<rect x="861.178" y="178.656" width="39.3442" height="3" rx="1.5" transform="rotate(90 861.178 178.656)" fill="#3C76F2"/>
<rect x="34.1777" y="178.656" width="39.3442" height="3" rx="1.5" transform="rotate(90 34.1777 178.656)" fill="#3C76F2"/>
<rect width="830" height="6" rx="3" transform="matrix(-1 -8.74228e-08 -8.74228e-08 1 861 178.578)" fill="#3C76F2"/>
<g clip-path="url(#clip0)">
<rect width="132.018" height="132.018" transform="translate(379.982 0.138184)" fill="white"/>
<path d="M436.703 106.265C437.961 103.517 438.226 103.436 441.84 92.8567C442.263 91.6192 445.129 99.3692 444.307 100.076C442.868 101.314 440.977 104.408 438.758 108.121C438.141 109.153 435.852 108.121 436.703 106.265Z" fill="#3C76F2" stroke="#3C76F2" stroke-width="0.122239"/>
<path d="M450.677 63.9781C443.279 79.6552 445.54 96.1574 449.855 107.915C451.089 109.153 452.207 107.985 452.116 107.297C450.977 86.6741 451.013 76.9375 456.637 64.8032C457.115 63.7719 451.261 62.7406 450.677 63.9781Z" fill="#3C76F2" stroke="#3C76F2" stroke-width="0.122239"/>
<path d="M455.611 33.8632C456.632 34.2433 450.284 46.6226 446.772 54.9035C446.885 55.9284 447.457 57.1247 448.417 57.3788C449.376 57.6329 449.385 54.6783 450.061 54.9035C451.717 54.5481 451.983 55.0514 450.472 57.9977C450.472 57.9977 452.734 58.2022 453.965 60.0604C455.197 61.9187 457.459 62.1232 457.459 62.1232C460.567 45.0906 460.702 43.0024 461.366 42.2186C463.005 37.7754 467.653 40.6885 470.614 40.9534C471.364 41.0206 474.518 39.7433 470.614 37.8868C466.709 36.0303 466.092 31.3461 461.366 31.3461C462.804 25.7769 457.998 25.5705 458.694 28.0859C459.31 30.3147 458.121 32.5863 457.872 31.5526C457.623 30.5188 453.145 26.6019 450.472 29.1188C448.78 30.8177 454.59 33.4831 455.611 33.8632Z" fill="#3C76F2" stroke="#3C76F2" stroke-width="0.122239"/>
<path d="M412.247 108.329C411.63 108.535 410.315 108.618 409.986 107.298C412.733 100.6 413.694 97.1419 414.919 91.2079C416.429 83.4561 417.936 81.662 420.056 79.6562C426.913 73.9391 433.415 73.468 437.936 69.1362C441.535 64.8376 442.738 62.6303 444.307 58.8223C444.911 57.527 448.623 58.8216 447.801 59.4412C445.694 64.7459 444.18 67.8335 441.019 73.468C438.205 77.4367 436.681 78.978 434.031 81.1003C431.15 82.8196 429.827 83.4897 428.072 83.9882C425.005 85.0298 424.174 86.604 422.112 89.1451C420.424 91.9987 419.302 94.3213 416.974 100.078C413.947 106.004 413.446 106.587 412.247 108.329Z" fill="#3C76F2" stroke="#3C76F2" stroke-width="0.122239"/>
<path d="M429.921 108.534C429.305 103.377 427.551 99.4663 427.455 95.5387C427.455 94.5074 432.7 93.0635 432.593 93.8885C431.976 98.6329 432.903 104.555 432.593 108.534C432.545 109.153 429.995 109.153 429.921 108.534Z" fill="#3C76F2" stroke="#3C76F2" stroke-width="0.122239"/>
<path d="M508.646 66.147C508.646 101.03 480.475 129.291 445.747 129.291C411.018 129.291 382.847 101.03 382.847 66.147C382.847 31.2636 411.018 3.00318 445.747 3.00318C480.475 3.00318 508.646 31.2636 508.646 66.147Z" stroke="#3C76F2" stroke-width="5.73"/>
</g>
<path d="M6.416 247.824C5.208 247.824 4.156 247.588 3.26 247.116C2.364 246.636 1.668 245.964 1.172 245.1C0.684 244.228 0.44 243.192 0.44 241.992V237.732C0.44 236.54 0.684 235.508 1.172 234.636C1.668 233.764 2.364 233.092 3.26 232.62C4.156 232.148 5.208 231.912 6.416 231.912C7.616 231.912 8.664 232.152 9.56 232.632C10.456 233.104 11.152 233.776 11.648 234.648C12.144 235.52 12.392 236.548 12.392 237.732V241.992C12.392 243.176 12.144 244.204 11.648 245.076C11.16 245.948 10.468 246.624 9.572 247.104C8.676 247.584 7.624 247.824 6.416 247.824ZM6.416 246.06C7.768 246.06 8.808 245.704 9.536 244.992C10.264 244.272 10.628 243.256 10.628 241.944V237.792C10.628 236.44 10.264 235.416 9.536 234.72C8.808 234.024 7.768 233.676 6.416 233.676C5.064 233.676 4.024 234.032 3.296 234.744C2.568 235.448 2.204 236.464 2.204 237.792V241.944C2.204 243.256 2.568 244.272 3.296 244.992C4.024 245.704 5.064 246.06 6.416 246.06ZM21.3125 247.608C19.8885 247.608 18.7445 247.472 17.8805 247.2C17.0165 246.928 16.3925 246.472 16.0085 245.832C15.6245 245.184 15.4325 244.304 15.4325 243.192V236.616C15.4325 235.712 15.5925 234.964 15.9125 234.372C16.2405 233.772 16.7565 233.308 17.4605 232.98C18.1645 232.644 19.0925 232.424 20.2445 232.32C20.8605 232.248 21.6045 232.2 22.4765 232.176C23.3485 232.144 24.2725 232.128 25.2485 232.128C26.0005 232.128 26.3765 232.428 26.3765 233.028C26.3765 233.324 26.2725 233.544 26.0645 233.688C25.8645 233.824 25.5685 233.892 25.1765 233.892C24.6405 233.892 24.1805 233.892 23.7965 233.892C23.4125 233.892 23.0765 233.896 22.7885 233.904C22.5085 233.912 22.2445 233.92 21.9965 233.928C21.7485 233.936 21.4885 233.948 21.2165 233.964C20.3845 234.02 19.6685 234.12 19.0685 234.264C18.4765 234.408 18.0205 234.64 17.7005 234.96C17.3805 235.28 17.2205 235.736 17.2205 236.328H22.3565C23.6925 236.328 24.7685 236.464 25.5845 236.736C26.4005 237.008 26.9925 237.464 27.3605 238.104C27.7365 238.736 27.9245 239.596 27.9245 240.684V243.24C27.9245 244.344 27.7325 245.216 27.3485 245.856C26.9645 246.488 26.3405 246.94 25.4765 247.212C24.6125 247.476 23.4645 247.608 22.0325 247.608H21.3125ZM21.3125 245.844H22.0325C23.1845 245.844 24.0565 245.78 24.6485 245.652C25.2405 245.524 25.6405 245.272 25.8485 244.896C26.0565 244.512 26.1605 243.944 26.1605 243.192V240.744C26.1605 239.976 26.0565 239.404 25.8485 239.028C25.6485 238.652 25.2725 238.404 24.7205 238.284C24.1765 238.156 23.3885 238.092 22.3565 238.092H17.1965V243.192C17.1965 243.944 17.3005 244.512 17.5085 244.896C17.7165 245.272 18.1165 245.524 18.7085 245.652C19.3005 245.78 20.1685 245.844 21.3125 245.844ZM31.8373 251.976C31.2613 251.976 30.9733 251.608 30.9733 250.872V237.204C30.9733 236.508 31.2733 236.16 31.8733 236.16C32.1853 236.16 32.4053 236.26 32.5333 236.46C32.6613 236.652 32.7253 236.984 32.7253 237.456V238.404L32.4133 237.984C32.9013 237.408 33.5213 236.988 34.2733 236.724C35.0253 236.46 35.8973 236.328 36.8893 236.328H37.5853C39.0173 236.328 40.1613 236.464 41.0173 236.736C41.8813 237 42.5053 237.452 42.8893 238.092C43.2733 238.724 43.4653 239.588 43.4653 240.684V243.24C43.4653 244.344 43.2733 245.216 42.8893 245.856C42.5053 246.488 41.8853 246.94 41.0293 247.212C40.1813 247.476 39.0493 247.608 37.6333 247.608H32.7373V250.872C32.7373 251.608 32.4373 251.976 31.8373 251.976ZM32.7373 245.844H37.6333C38.7693 245.844 39.6293 245.78 40.2133 245.652C40.7973 245.524 41.1893 245.272 41.3893 244.896C41.5973 244.512 41.7013 243.944 41.7013 243.192V240.744C41.7013 239.976 41.5933 239.404 41.3773 239.028C41.1693 238.644 40.7693 238.392 40.1773 238.272C39.5853 238.152 38.7213 238.092 37.5853 238.092H36.8893C35.4813 238.092 34.4373 238.412 33.7573 239.052C33.0773 239.684 32.7373 240.644 32.7373 241.932V245.844ZM56.2438 247.776C56.0358 247.776 55.8758 247.712 55.7638 247.584C55.6518 247.456 55.5718 247.204 55.5238 246.828C55.4838 246.452 55.4638 245.896 55.4638 245.16L55.7038 245.724C55.2158 246.412 54.6038 246.9 53.8678 247.188C53.1318 247.468 52.2598 247.608 51.2518 247.608H49.0198C48.1878 247.608 47.5078 247.328 46.9798 246.768C46.4598 246.2 46.1998 245.34 46.1998 244.188C46.1998 243.404 46.3278 242.76 46.5838 242.256C46.8398 241.744 47.2198 241.34 47.7238 241.044C48.2358 240.748 48.8558 240.54 49.5838 240.42C50.3198 240.292 51.1598 240.228 52.1038 240.228H56.1718L55.3798 240.96V239.124C55.3798 238.724 55.3078 238.452 55.1638 238.308C55.0278 238.164 54.7438 238.092 54.3118 238.092H50.9278C50.1598 238.092 49.5638 238.124 49.1398 238.188C48.7158 238.244 48.4158 238.348 48.2398 238.5C48.0638 238.644 47.9718 238.84 47.9638 239.088C47.9398 239.456 47.8718 239.728 47.7598 239.904C47.6558 240.08 47.4278 240.168 47.0758 240.168C46.4918 240.168 46.1998 239.78 46.1998 239.004C46.1998 238.084 46.5798 237.408 47.3398 236.976C48.1078 236.544 49.2478 236.328 50.7598 236.328H54.4798C55.4718 236.328 56.1638 236.564 56.5558 237.036C56.9478 237.508 57.1438 238.336 57.1438 239.52V246.732C57.1438 247.428 56.8438 247.776 56.2438 247.776ZM49.0798 245.916H51.2518C52.7478 245.916 53.8118 245.572 54.4438 244.884C55.0758 244.196 55.3878 243.14 55.3798 241.716L55.5958 241.92H52.1038C51.1038 241.92 50.2998 241.976 49.6918 242.088C49.0838 242.192 48.6438 242.4 48.3717 242.712C48.0998 243.024 47.9638 243.488 47.9638 244.104C47.9638 244.696 48.0678 245.148 48.2758 245.46C48.4838 245.764 48.7518 245.916 49.0798 245.916ZM62.7382 247.608C61.7462 247.608 61.0542 247.36 60.6622 246.864C60.2782 246.36 60.0862 245.488 60.0862 244.248C60.0862 243.52 60.3782 243.156 60.9622 243.156C61.5542 243.156 61.8502 243.52 61.8502 244.248V244.68C61.8502 245.144 61.9182 245.456 62.0542 245.616C62.1982 245.768 62.4822 245.844 62.9062 245.844H67.2982C69.2822 245.844 70.2742 245.452 70.2742 244.668C70.2742 243.956 70.0542 243.444 69.6142 243.132C69.1742 242.82 68.4342 242.664 67.3942 242.664H65.3302C64.5862 242.664 64.2142 242.388 64.2142 241.836C64.2142 241.212 64.5862 240.9 65.3302 240.9H67.3942C68.1382 240.9 68.7182 240.856 69.1342 240.768C69.5582 240.672 69.8582 240.504 70.0342 240.264C70.2102 240.024 70.2982 239.688 70.2982 239.256C70.2982 238.48 69.2982 238.092 67.2982 238.092H62.9062C62.4822 238.092 62.1982 238.172 62.0542 238.332C61.9182 238.484 61.8502 238.788 61.8502 239.244V239.676C61.8502 240.412 61.5542 240.78 60.9622 240.78C60.3782 240.78 60.0862 240.412 60.0862 239.676C60.0862 238.436 60.2782 237.568 60.6622 237.072C61.0542 236.576 61.7462 236.328 62.7382 236.328H67.4662C68.9302 236.328 70.0582 236.592 70.8502 237.12C71.6422 237.648 72.0382 238.448 72.0382 239.52C72.0382 240.096 71.9342 240.572 71.7262 240.948C71.5182 241.324 71.2182 241.624 70.8262 241.848C71.6342 242.44 72.0382 243.284 72.0382 244.38C72.0382 245.476 71.6422 246.288 70.8502 246.816C70.0582 247.344 68.9302 247.608 67.4662 247.608H62.7382ZM80.7095 247.608C79.2775 247.608 78.1295 247.476 77.2655 247.212C76.4015 246.948 75.7735 246.5 75.3815 245.868C74.9975 245.228 74.8055 244.352 74.8055 243.24V240.684C74.8055 239.58 74.9975 238.712 75.3815 238.08C75.7735 237.44 76.4015 236.988 77.2655 236.724C78.1295 236.46 79.2775 236.328 80.7095 236.328H81.4055C82.8375 236.328 83.9855 236.464 84.8495 236.736C85.7135 237 86.3375 237.452 86.7215 238.092C87.1055 238.724 87.2975 239.588 87.2975 240.684V243.24C87.2975 244.344 87.1055 245.216 86.7215 245.856C86.3375 246.488 85.7135 246.94 84.8495 247.212C83.9855 247.476 82.8375 247.608 81.4055 247.608H80.7095ZM80.7095 245.844H81.4055C82.5575 245.844 83.4295 245.78 84.0215 245.652C84.6135 245.524 85.0135 245.272 85.2215 244.896C85.4295 244.512 85.5335 243.944 85.5335 243.192V240.744C85.5335 239.976 85.4255 239.404 85.2095 239.028C84.9935 238.644 84.5895 238.392 83.9975 238.272C83.4055 238.152 82.5415 238.092 81.4055 238.092H80.7095C79.5575 238.092 78.6815 238.152 78.0815 238.272C77.4895 238.392 77.0895 238.644 76.8815 239.028C76.6735 239.404 76.5695 239.976 76.5695 240.744V243.192C76.5695 243.944 76.6735 244.512 76.8815 244.896C77.0895 245.272 77.4895 245.524 78.0815 245.652C78.6815 245.78 79.5575 245.844 80.7095 245.844ZM90.3644 247.608V236.328H98.1764C99.4404 236.328 100.444 236.608 101.188 237.168C101.94 237.72 102.316 238.508 102.316 239.532C102.316 240.108 102.212 240.584 102.004 240.96C101.796 241.328 101.496 241.624 101.104 241.848C101.912 242.448 102.316 243.28 102.316 244.344C102.316 245.048 102.144 245.644 101.8 246.132C101.464 246.612 100.984 246.98 100.36 247.236C99.7444 247.484 99.0164 247.608 98.1764 247.608H90.3644ZM92.1284 245.844H98.0084C99.7044 245.844 100.552 245.416 100.552 244.56C100.552 243.888 100.36 243.404 99.9764 243.108C99.6004 242.812 98.9764 242.664 98.1044 242.664H92.1284V245.844ZM92.1284 240.9H98.1044C99.0644 240.9 99.7164 240.8 100.06 240.6C100.404 240.4 100.576 239.988 100.576 239.364C100.576 238.516 99.7204 238.092 98.0084 238.092H92.1284V240.9ZM115.119 247.776C114.911 247.776 114.751 247.712 114.639 247.584C114.527 247.456 114.447 247.204 114.399 246.828C114.359 246.452 114.339 245.896 114.339 245.16L114.579 245.724C114.091 246.412 113.479 246.9 112.743 247.188C112.007 247.468 111.135 247.608 110.127 247.608H107.895C107.063 247.608 106.383 247.328 105.855 246.768C105.335 246.2 105.075 245.34 105.075 244.188C105.075 243.404 105.203 242.76 105.459 242.256C105.715 241.744 106.095 241.34 106.599 241.044C107.111 240.748 107.731 240.54 108.459 240.42C109.195 240.292 110.035 240.228 110.979 240.228H115.047L114.255 240.96V239.124C114.255 238.724 114.183 238.452 114.039 238.308C113.903 238.164 113.619 238.092 113.187 238.092H109.803C109.035 238.092 108.439 238.124 108.015 238.188C107.591 238.244 107.291 238.348 107.115 238.5C106.939 238.644 106.847 238.84 106.839 239.088C106.815 239.456 106.747 239.728 106.635 239.904C106.531 240.08 106.303 240.168 105.951 240.168C105.367 240.168 105.075 239.78 105.075 239.004C105.075 238.084 105.455 237.408 106.215 236.976C106.983 236.544 108.123 236.328 109.635 236.328H113.355C114.347 236.328 115.039 236.564 115.431 237.036C115.823 237.508 116.019 238.336 116.019 239.52V246.732C116.019 247.428 115.719 247.776 115.119 247.776ZM107.955 245.916H110.127C111.623 245.916 112.687 245.572 113.319 244.884C113.951 244.196 114.263 243.14 114.255 241.716L114.471 241.92H110.979C109.979 241.92 109.175 241.976 108.567 242.088C107.959 242.192 107.519 242.4 107.247 242.712C106.975 243.024 106.839 243.488 106.839 244.104C106.839 244.696 106.943 245.148 107.151 245.46C107.359 245.764 107.627 245.916 107.955 245.916ZM120.185 247.776C119.601 247.776 119.309 247.428 119.309 246.732V237.228C119.309 236.516 119.585 236.16 120.137 236.16C120.761 236.16 121.073 236.516 121.073 237.228V240.756H129.257V237.228C129.257 236.516 129.549 236.16 130.133 236.16C130.725 236.16 131.021 236.516 131.021 237.228V246.732C131.021 247.428 130.725 247.776 130.133 247.776C129.549 247.776 129.257 247.428 129.257 246.732V242.52H121.073V246.732C121.073 247.428 120.777 247.776 120.185 247.776ZM145.251 247.776C144.667 247.776 144.375 247.4 144.375 246.648V238.812L136.131 247.608H134.427V237.228C134.427 236.516 134.719 236.16 135.303 236.16C135.895 236.16 136.191 236.532 136.191 237.276V245.208L144.495 236.328H146.139V246.708C146.139 247.42 145.843 247.776 145.251 247.776ZM155.124 247.608C153.692 247.608 152.544 247.476 151.68 247.212C150.816 246.948 150.188 246.5 149.796 245.868C149.412 245.228 149.22 244.352 149.22 243.24V240.684C149.22 239.58 149.412 238.712 149.796 238.08C150.188 237.44 150.816 236.988 151.68 236.724C152.544 236.46 153.692 236.328 155.124 236.328H155.82C157.252 236.328 158.4 236.464 159.264 236.736C160.128 237 160.752 237.452 161.136 238.092C161.52 238.724 161.712 239.588 161.712 240.684V241.872H150.984V243.192C150.984 243.944 151.088 244.512 151.296 244.896C151.504 245.272 151.904 245.524 152.496 245.652C153.096 245.78 153.972 245.844 155.124 245.844H158.7C159.116 245.844 159.396 245.764 159.54 245.604C159.692 245.436 159.768 245.136 159.768 244.704C159.768 244.344 159.848 244.064 160.008 243.864C160.168 243.664 160.384 243.564 160.656 243.564C160.936 243.572 161.152 243.68 161.304 243.888C161.456 244.088 161.532 244.376 161.532 244.752C161.532 245.368 161.444 245.892 161.268 246.324C161.092 246.748 160.808 247.068 160.416 247.284C160.024 247.5 159.508 247.608 158.868 247.608H155.124ZM150.984 240.108H159.936C159.872 239.308 159.6 238.78 159.12 238.524C158.832 238.364 158.408 238.252 157.848 238.188C157.296 238.124 156.62 238.092 155.82 238.092H155.124C154.284 238.092 153.588 238.124 153.036 238.188C152.484 238.252 152.068 238.36 151.788 238.512C151.3 238.768 151.032 239.3 150.984 240.108Z" fill="#001032"/>
<path d="M252.794 247.776C252.202 247.776 251.906 247.428 251.906 246.732V233.028C251.906 232.316 252.186 231.96 252.746 231.96C253.098 231.96 253.406 232.148 253.67 232.524L258.122 238.884L262.598 232.524C262.862 232.148 263.166 231.96 263.51 231.96C264.078 231.96 264.362 232.316 264.362 233.028V246.732C264.362 247.428 264.07 247.776 263.486 247.776C262.894 247.776 262.598 247.408 262.598 246.672V235.08L258.89 240.468C258.762 240.652 258.642 240.772 258.53 240.828C258.426 240.884 258.298 240.912 258.146 240.912C257.994 240.912 257.858 240.884 257.738 240.828C257.626 240.772 257.51 240.652 257.39 240.468L253.67 235.08V246.672C253.67 247.408 253.378 247.776 252.794 247.776ZM277.664 247.776C277.456 247.776 277.296 247.712 277.184 247.584C277.072 247.456 276.992 247.204 276.944 246.828C276.904 246.452 276.884 245.896 276.884 245.16L277.124 245.724C276.636 246.412 276.024 246.9 275.288 247.188C274.552 247.468 273.68 247.608 272.672 247.608H270.44C269.608 247.608 268.928 247.328 268.4 246.768C267.88 246.2 267.62 245.34 267.62 244.188C267.62 243.404 267.748 242.76 268.004 242.256C268.26 241.744 268.64 241.34 269.144 241.044C269.656 240.748 270.276 240.54 271.004 240.42C271.74 240.292 272.58 240.228 273.524 240.228H277.592L276.8 240.96V239.124C276.8 238.724 276.728 238.452 276.584 238.308C276.448 238.164 276.164 238.092 275.732 238.092H272.348C271.58 238.092 270.984 238.124 270.56 238.188C270.136 238.244 269.836 238.348 269.66 238.5C269.484 238.644 269.392 238.84 269.384 239.088C269.36 239.456 269.292 239.728 269.18 239.904C269.076 240.08 268.848 240.168 268.496 240.168C267.912 240.168 267.62 239.78 267.62 239.004C267.62 238.084 268 237.408 268.76 236.976C269.528 236.544 270.668 236.328 272.18 236.328H275.9C276.892 236.328 277.584 236.564 277.976 237.036C278.368 237.508 278.564 238.336 278.564 239.52V246.732C278.564 247.428 278.264 247.776 277.664 247.776ZM270.5 245.916H272.672C274.168 245.916 275.232 245.572 275.864 244.884C276.496 244.196 276.808 243.14 276.8 241.716L277.016 241.92H273.524C272.524 241.92 271.72 241.976 271.112 242.088C270.504 242.192 270.064 242.4 269.792 242.712C269.52 243.024 269.384 243.488 269.384 244.104C269.384 244.696 269.488 245.148 269.696 245.46C269.904 245.764 270.172 245.916 270.5 245.916ZM282.718 251.976C282.142 251.976 281.854 251.608 281.854 250.872V237.204C281.854 236.508 282.154 236.16 282.754 236.16C283.066 236.16 283.286 236.26 283.414 236.46C283.542 236.652 283.606 236.984 283.606 237.456V238.404L283.294 237.984C283.782 237.408 284.402 236.988 285.154 236.724C285.906 236.46 286.778 236.328 287.77 236.328H288.466C289.898 236.328 291.042 236.464 291.898 236.736C292.762 237 293.386 237.452 293.77 238.092C294.154 238.724 294.346 239.588 294.346 240.684V243.24C294.346 244.344 294.154 245.216 293.77 245.856C293.386 246.488 292.766 246.94 291.91 247.212C291.062 247.476 289.93 247.608 288.514 247.608H283.618V250.872C283.618 251.608 283.318 251.976 282.718 251.976ZM283.618 245.844H288.514C289.65 245.844 290.51 245.78 291.094 245.652C291.678 245.524 292.07 245.272 292.27 244.896C292.478 244.512 292.582 243.944 292.582 243.192V240.744C292.582 239.976 292.474 239.404 292.258 239.028C292.05 238.644 291.65 238.392 291.058 238.272C290.466 238.152 289.602 238.092 288.466 238.092H287.77C286.362 238.092 285.318 238.412 284.638 239.052C283.958 239.684 283.618 240.644 283.618 241.932V245.844ZM298.281 247.776C298.017 247.776 297.805 247.684 297.645 247.5C297.493 247.316 297.417 247.076 297.417 246.78V237.156C297.417 236.844 297.497 236.6 297.657 236.424C297.825 236.248 298.049 236.16 298.329 236.16C298.585 236.16 298.789 236.252 298.941 236.436C299.101 236.612 299.181 236.852 299.181 237.156V241.068H301.569C301.769 241.068 301.993 240.936 302.241 240.672C302.489 240.4 302.809 239.964 303.201 239.364C303.505 238.9 303.857 238.42 304.257 237.924C304.657 237.428 305.177 237.004 305.817 236.652C306.449 236.308 307.145 236.136 307.905 236.136C308.257 236.136 308.537 236.212 308.745 236.364C308.953 236.516 309.057 236.732 309.057 237.012C309.057 237.324 308.953 237.552 308.745 237.696C308.537 237.832 308.265 237.9 307.929 237.9C307.465 237.908 307.033 238.076 306.633 238.404C306.241 238.732 305.797 239.256 305.301 239.976C305.109 240.264 304.937 240.516 304.785 240.732C304.633 240.94 304.493 241.124 304.365 241.284C304.237 241.444 304.105 241.592 303.969 241.728C304.657 242.024 305.241 242.416 305.721 242.904C306.209 243.384 306.545 243.88 306.729 244.392C306.945 244.928 307.145 245.332 307.329 245.604C307.513 245.868 307.713 246.004 307.929 246.012C308.257 246.012 308.525 246.088 308.733 246.24C308.949 246.392 309.057 246.608 309.057 246.888C309.057 247.48 308.677 247.776 307.917 247.776C307.357 247.776 306.881 247.668 306.489 247.452C306.097 247.236 305.781 246.936 305.541 246.552C305.333 246.248 305.153 245.936 305.001 245.616C304.849 245.288 304.661 244.96 304.437 244.632C304.213 244.296 303.897 243.972 303.489 243.66C302.825 243.108 301.749 242.832 300.261 242.832H299.181V246.804C299.181 247.1 299.101 247.336 298.941 247.512C298.781 247.688 298.561 247.776 298.281 247.776ZM317.176 247.608C315.744 247.608 314.596 247.476 313.732 247.212C312.868 246.948 312.24 246.5 311.848 245.868C311.464 245.228 311.272 244.352 311.272 243.24V240.684C311.272 239.58 311.464 238.712 311.848 238.08C312.24 237.44 312.868 236.988 313.732 236.724C314.596 236.46 315.744 236.328 317.176 236.328H317.872C319.304 236.328 320.452 236.464 321.316 236.736C322.18 237 322.804 237.452 323.188 238.092C323.572 238.724 323.764 239.588 323.764 240.684V241.872H313.036V243.192C313.036 243.944 313.14 244.512 313.348 244.896C313.556 245.272 313.956 245.524 314.548 245.652C315.148 245.78 316.024 245.844 317.176 245.844H320.752C321.168 245.844 321.448 245.764 321.592 245.604C321.744 245.436 321.82 245.136 321.82 244.704C321.82 244.344 321.9 244.064 322.06 243.864C322.22 243.664 322.436 243.564 322.708 243.564C322.988 243.572 323.204 243.68 323.356 243.888C323.508 244.088 323.584 244.376 323.584 244.752C323.584 245.368 323.496 245.892 323.32 246.324C323.144 246.748 322.86 247.068 322.468 247.284C322.076 247.5 321.56 247.608 320.92 247.608H317.176ZM313.036 240.108H321.988C321.924 239.308 321.652 238.78 321.172 238.524C320.884 238.364 320.46 238.252 319.9 238.188C319.348 238.124 318.672 238.092 317.872 238.092H317.176C316.336 238.092 315.64 238.124 315.088 238.188C314.536 238.252 314.12 238.36 313.84 238.512C313.352 238.768 313.084 239.3 313.036 240.108ZM330.877 247.776C330.237 247.776 329.917 247.452 329.917 246.804V238.092H326.401C325.697 238.092 325.345 237.796 325.345 237.204C325.345 236.62 325.697 236.328 326.401 236.328H335.365C336.061 236.328 336.409 236.62 336.409 237.204C336.409 237.796 336.061 238.092 335.365 238.092H331.861V246.804C331.861 247.1 331.773 247.336 331.597 247.512C331.421 247.688 331.181 247.776 330.877 247.776ZM349.257 247.776C348.673 247.776 348.381 247.4 348.381 246.648V238.812L340.137 247.608H338.433V237.228C338.433 236.516 338.725 236.16 339.309 236.16C339.901 236.16 340.197 236.532 340.197 237.276V245.208L348.501 236.328H350.145V246.708C350.145 247.42 349.849 247.776 349.257 247.776ZM354.425 247.776C353.841 247.776 353.549 247.428 353.549 246.732V237.228C353.549 236.516 353.825 236.16 354.377 236.16C355.001 236.16 355.313 236.516 355.313 237.228V240.756H363.497V237.228C363.497 236.516 363.789 236.16 364.373 236.16C364.965 236.16 365.261 236.516 365.261 237.228V246.732C365.261 247.428 364.965 247.776 364.373 247.776C363.789 247.776 363.497 247.428 363.497 246.732V242.52H355.313V246.732C355.313 247.428 355.017 247.776 354.425 247.776ZM377.655 238.092H371.427C371.003 238.092 370.719 238.168 370.575 238.32C370.431 238.472 370.359 238.772 370.359 239.22V246.732C370.359 247.428 370.067 247.776 369.483 247.776C368.891 247.776 368.595 247.428 368.595 246.732V239.52C368.595 238.336 368.791 237.508 369.183 237.036C369.575 236.564 370.267 236.328 371.259 236.328H377.655C378.383 236.328 378.747 236.62 378.747 237.204C378.747 237.796 378.383 238.092 377.655 238.092Z" fill="#001032"/>
<path d="M470.296 247.5C470 247.5 469.776 247.428 469.624 247.284C469.48 247.132 469.408 246.908 469.408 246.612V232.392C469.408 232.088 469.48 231.864 469.624 231.72C469.776 231.576 470 231.504 470.296 231.504C470.592 231.504 470.812 231.576 470.956 231.72C471.1 231.864 471.172 232.088 471.172 232.392V246.612C471.172 246.908 471.1 247.132 470.956 247.284C470.812 247.428 470.592 247.5 470.296 247.5ZM480.77 247.5C480.482 247.5 480.262 247.428 480.11 247.284C479.958 247.132 479.882 246.912 479.882 246.624V233.268H475.082C474.794 233.268 474.574 233.196 474.422 233.052C474.27 232.9 474.194 232.68 474.194 232.392C474.194 232.104 474.27 231.884 474.422 231.732C474.574 231.58 474.794 231.504 475.082 231.504H486.458C486.746 231.504 486.962 231.58 487.106 231.732C487.258 231.884 487.334 232.104 487.334 232.392C487.334 232.68 487.258 232.9 487.106 233.052C486.962 233.196 486.746 233.268 486.458 233.268H481.646V246.624C481.646 246.896 481.57 247.112 481.418 247.272C481.266 247.424 481.05 247.5 480.77 247.5ZM487.286 241.776C487.086 241.776 486.91 241.7 486.758 241.548C486.606 241.396 486.53 241.22 486.53 241.02C486.53 240.812 486.606 240.636 486.758 240.492C486.91 240.34 487.086 240.264 487.286 240.264H493.91C494.118 240.264 494.294 240.34 494.438 240.492C494.59 240.636 494.666 240.812 494.666 241.02C494.666 241.22 494.59 241.396 494.438 241.548C494.294 241.7 494.118 241.776 493.91 241.776H487.286ZM503.87 247.608C502.438 247.608 501.29 247.476 500.426 247.212C499.562 246.948 498.934 246.5 498.542 245.868C498.158 245.228 497.966 244.352 497.966 243.24V240.684C497.966 239.58 498.158 238.712 498.542 238.08C498.934 237.44 499.562 236.988 500.426 236.724C501.29 236.46 502.438 236.328 503.87 236.328H504.566C505.998 236.328 507.146 236.464 508.01 236.736C508.874 237 509.498 237.452 509.882 238.092C510.266 238.724 510.458 239.588 510.458 240.684V243.24C510.458 244.344 510.266 245.216 509.882 245.856C509.498 246.488 508.874 246.94 508.01 247.212C507.146 247.476 505.998 247.608 504.566 247.608H503.87ZM503.87 245.844H504.566C505.718 245.844 506.59 245.78 507.182 245.652C507.774 245.524 508.174 245.272 508.382 244.896C508.59 244.512 508.694 243.944 508.694 243.192V240.744C508.694 239.976 508.586 239.404 508.37 239.028C508.154 238.644 507.75 238.392 507.158 238.272C506.566 238.152 505.702 238.092 504.566 238.092H503.87C502.718 238.092 501.842 238.152 501.242 238.272C500.65 238.392 500.25 238.644 500.042 239.028C499.834 239.404 499.73 239.976 499.73 240.744V243.192C499.73 243.944 499.834 244.512 500.042 244.896C500.25 245.272 500.65 245.524 501.242 245.652C501.842 245.78 502.718 245.844 503.87 245.844ZM517.665 247.776C517.025 247.776 516.705 247.452 516.705 246.804V238.092H513.189C512.485 238.092 512.133 237.796 512.133 237.204C512.133 236.62 512.485 236.328 513.189 236.328H522.153C522.849 236.328 523.197 236.62 523.197 237.204C523.197 237.796 522.849 238.092 522.153 238.092H518.649V246.804C518.649 247.1 518.561 247.336 518.385 247.512C518.209 247.688 517.969 247.776 517.665 247.776ZM524.632 249.816C524.04 249.816 523.744 249.448 523.744 248.712V247.56C523.744 246.4 524.28 245.828 525.352 245.844H526.012L525.052 246.264C526.796 243.552 527.66 240.24 527.644 236.328H534.784V245.844H535.564C536.548 245.844 537.04 246.416 537.04 247.56V248.712C537.04 249.448 536.748 249.816 536.164 249.816C535.572 249.816 535.276 249.448 535.276 248.712V247.608H525.508V248.712C525.508 249.448 525.216 249.816 524.632 249.816ZM527.32 245.844H532.972V238.092H529.528C529.456 240.892 528.72 243.476 527.32 245.844ZM544.862 247.608C543.43 247.608 542.282 247.476 541.418 247.212C540.554 246.948 539.926 246.5 539.534 245.868C539.15 245.228 538.958 244.352 538.958 243.24V240.684C538.958 239.58 539.15 238.712 539.534 238.08C539.926 237.44 540.554 236.988 541.418 236.724C542.282 236.46 543.43 236.328 544.862 236.328H545.558C546.99 236.328 548.138 236.464 549.002 236.736C549.866 237 550.49 237.452 550.874 238.092C551.258 238.724 551.45 239.588 551.45 240.684V241.872H540.722V243.192C540.722 243.944 540.826 244.512 541.034 244.896C541.242 245.272 541.642 245.524 542.234 245.652C542.834 245.78 543.71 245.844 544.862 245.844H548.438C548.854 245.844 549.134 245.764 549.278 245.604C549.43 245.436 549.506 245.136 549.506 244.704C549.506 244.344 549.586 244.064 549.746 243.864C549.906 243.664 550.122 243.564 550.394 243.564C550.674 243.572 550.89 243.68 551.042 243.888C551.194 244.088 551.27 244.376 551.27 244.752C551.27 245.368 551.182 245.892 551.006 246.324C550.83 246.748 550.546 247.068 550.154 247.284C549.762 247.5 549.246 247.608 548.606 247.608H544.862ZM540.722 240.108H549.674C549.61 239.308 549.338 238.78 548.858 238.524C548.57 238.364 548.146 238.252 547.586 238.188C547.034 238.124 546.358 238.092 545.558 238.092H544.862C544.022 238.092 543.326 238.124 542.774 238.188C542.222 238.252 541.806 238.36 541.526 238.512C541.038 238.768 540.77 239.3 540.722 240.108ZM564.395 247.776C563.811 247.776 563.519 247.42 563.519 246.708V238.092H558.671C558.135 238.092 557.775 238.172 557.591 238.332C557.415 238.484 557.327 238.78 557.327 239.22V244.416C557.327 245.2 557.227 245.828 557.027 246.3C556.827 246.764 556.515 247.1 556.091 247.308C555.667 247.516 555.123 247.62 554.459 247.62C554.083 247.62 553.779 247.556 553.547 247.428C553.323 247.292 553.211 247.056 553.211 246.72C553.211 246.136 553.595 245.844 554.363 245.844C554.811 245.844 555.123 245.764 555.299 245.604C555.475 245.444 555.563 245.156 555.563 244.74V239.52C555.563 238.696 555.647 238.052 555.815 237.588C555.991 237.124 556.291 236.8 556.715 236.616C557.147 236.424 557.739 236.328 558.491 236.328H565.283V246.684C565.283 247.412 564.987 247.776 564.395 247.776Z" fill="#001032"/>
<path d="M660.942 247.776C660.63 247.776 660.394 247.684 660.234 247.5C660.074 247.316 659.994 247.076 659.994 246.78V245.808C658.426 245.624 657.186 245.02 656.274 243.996C655.362 242.972 654.906 241.644 654.906 240.012V239.724C654.906 238.092 655.362 236.764 656.274 235.74C657.186 234.716 658.426 234.112 659.994 233.928V232.932C659.994 232.284 660.306 231.96 660.93 231.96C661.562 231.96 661.878 232.296 661.878 232.968V233.928C663.406 234.128 664.618 234.74 665.514 235.764C666.41 236.788 666.858 238.108 666.858 239.724V240.012C666.858 241.612 666.41 242.928 665.514 243.96C664.618 244.984 663.406 245.6 661.878 245.808V246.78C661.878 247.444 661.566 247.776 660.942 247.776ZM659.994 244.212V235.524C658.922 235.66 658.098 236.092 657.522 236.82C656.954 237.54 656.67 238.508 656.67 239.724V240.012C656.67 241.244 656.95 242.212 657.51 242.916C658.07 243.62 658.898 244.052 659.994 244.212ZM661.878 244.188C662.91 244.044 663.702 243.608 664.254 242.88C664.814 242.152 665.094 241.196 665.094 240.012V239.724C665.094 238.54 664.814 237.588 664.254 236.868C663.702 236.148 662.91 235.704 661.878 235.536V244.188ZM680.292 247.776C679.708 247.776 679.416 247.4 679.416 246.648V238.812L671.172 247.608H669.468V237.228C669.468 236.516 669.76 236.16 670.344 236.16C670.936 236.16 671.232 236.532 671.232 237.276V245.208L679.536 236.328H681.18V246.708C681.18 247.42 680.884 247.776 680.292 247.776ZM685.461 247.776C684.877 247.776 684.585 247.428 684.585 246.732V237.228C684.585 236.516 684.861 236.16 685.413 236.16C686.037 236.16 686.349 236.516 686.349 237.228V240.756H694.533V237.228C694.533 236.516 694.825 236.16 695.409 236.16C696.001 236.16 696.297 236.516 696.297 237.228V246.732C696.297 247.428 696.001 247.776 695.409 247.776C694.825 247.776 694.533 247.428 694.533 246.732V242.52H686.349V246.732C686.349 247.428 686.053 247.776 685.461 247.776ZM709.386 247.776C709.178 247.776 709.018 247.712 708.906 247.584C708.794 247.456 708.714 247.204 708.666 246.828C708.626 246.452 708.606 245.896 708.606 245.16L708.846 245.724C708.358 246.412 707.746 246.9 707.01 247.188C706.274 247.468 705.402 247.608 704.394 247.608H702.162C701.33 247.608 700.65 247.328 700.122 246.768C699.602 246.2 699.342 245.34 699.342 244.188C699.342 243.404 699.47 242.76 699.726 242.256C699.982 241.744 700.362 241.34 700.866 241.044C701.378 240.748 701.998 240.54 702.726 240.42C703.462 240.292 704.302 240.228 705.246 240.228H709.314L708.522 240.96V239.124C708.522 238.724 708.45 238.452 708.306 238.308C708.17 238.164 707.886 238.092 707.454 238.092H704.07C703.302 238.092 702.706 238.124 702.282 238.188C701.858 238.244 701.558 238.348 701.382 238.5C701.206 238.644 701.114 238.84 701.106 239.088C701.082 239.456 701.014 239.728 700.902 239.904C700.798 240.08 700.57 240.168 700.218 240.168C699.634 240.168 699.342 239.78 699.342 239.004C699.342 238.084 699.722 237.408 700.482 236.976C701.25 236.544 702.39 236.328 703.902 236.328H707.622C708.614 236.328 709.306 236.564 709.698 237.036C710.09 237.508 710.286 238.336 710.286 239.52V246.732C710.286 247.428 709.986 247.776 709.386 247.776ZM702.222 245.916H704.394C705.89 245.916 706.954 245.572 707.586 244.884C708.218 244.196 708.53 243.14 708.522 241.716L708.738 241.92H705.246C704.246 241.92 703.442 241.976 702.834 242.088C702.226 242.192 701.786 242.4 701.514 242.712C701.242 243.024 701.106 243.488 701.106 244.104C701.106 244.696 701.21 245.148 701.418 245.46C701.626 245.764 701.894 245.916 702.222 245.916ZM714.453 247.776C713.869 247.776 713.577 247.428 713.577 246.732V237.228C713.577 236.516 713.853 236.16 714.405 236.16C715.029 236.16 715.341 236.516 715.341 237.228V240.756H723.525V237.228C723.525 236.516 723.817 236.16 724.401 236.16C724.993 236.16 725.289 236.516 725.289 237.228V246.732C725.289 247.428 724.993 247.776 724.401 247.776C723.817 247.776 723.525 247.428 723.525 246.732V242.52H715.341V246.732C715.341 247.428 715.045 247.776 714.453 247.776ZM734.251 247.608C732.819 247.608 731.671 247.476 730.807 247.212C729.943 246.948 729.315 246.5 728.923 245.868C728.539 245.228 728.347 244.352 728.347 243.24V240.684C728.347 239.58 728.539 238.712 728.923 238.08C729.315 237.44 729.943 236.988 730.807 236.724C731.671 236.46 732.819 236.328 734.251 236.328H737.659C738.291 236.328 738.799 236.44 739.183 236.664C739.575 236.88 739.859 237.196 740.035 237.612C740.211 238.028 740.299 238.528 740.299 239.112C740.299 239.528 740.223 239.844 740.071 240.06C739.927 240.268 739.707 240.372 739.411 240.372C739.115 240.372 738.895 240.268 738.751 240.06C738.607 239.844 738.535 239.572 738.535 239.244C738.527 238.836 738.455 238.544 738.319 238.368C738.191 238.184 737.907 238.092 737.467 238.092H734.251C733.099 238.092 732.223 238.152 731.623 238.272C731.031 238.392 730.631 238.644 730.423 239.028C730.215 239.404 730.111 239.976 730.111 240.744V243.192C730.111 243.944 730.215 244.512 730.423 244.896C730.631 245.272 731.031 245.524 731.623 245.652C732.223 245.78 733.099 245.844 734.251 245.844H737.467C737.915 245.844 738.203 245.76 738.331 245.592C738.459 245.416 738.527 245.12 738.535 244.704C738.535 244.352 738.611 244.076 738.763 243.876C738.915 243.668 739.127 243.564 739.399 243.564C739.679 243.564 739.899 243.668 740.059 243.876C740.219 244.076 740.299 244.392 740.299 244.824C740.299 245.424 740.207 245.932 740.023 246.348C739.847 246.764 739.563 247.08 739.171 247.296C738.779 247.504 738.267 247.608 737.635 247.608H734.251ZM743.32 247.608V237.228C743.32 236.516 743.612 236.16 744.196 236.16C744.788 236.16 745.084 236.516 745.084 237.228V240.9H750.22C751.076 240.9 751.812 241.028 752.428 241.284C753.044 241.532 753.52 241.904 753.856 242.4C754.192 242.896 754.36 243.512 754.36 244.248C754.36 244.984 754.192 245.6 753.856 246.096C753.528 246.592 753.052 246.964 752.428 247.212C751.812 247.46 751.076 247.592 750.22 247.608H743.32ZM745.084 245.844H750.016C750.744 245.844 751.356 245.74 751.852 245.532C752.348 245.316 752.596 244.916 752.596 244.332C752.596 243.852 752.488 243.492 752.272 243.252C752.064 243.012 751.764 242.856 751.372 242.784C750.988 242.704 750.536 242.664 750.016 242.664H745.084V245.844ZM756.1 248.04C755.524 248.04 755.236 247.7 755.236 247.02V236.94C755.236 236.612 755.312 236.356 755.464 236.172C755.624 235.98 755.84 235.884 756.112 235.884C756.392 235.884 756.608 235.98 756.76 236.172C756.92 236.356 757 236.612 757 236.94V247.02C757 247.7 756.7 248.04 756.1 248.04Z" fill="#001032"/>
<path d="M849.292 247.5C848.7 247.5 848.404 247.204 848.404 246.612V232.38C848.404 231.788 848.7 231.492 849.292 231.492H854.908C856.34 231.492 857.432 231.872 858.184 232.632C858.936 233.384 859.312 234.476 859.312 235.908V236.628C859.312 238.06 858.936 239.152 858.184 239.904C857.432 240.656 856.34 241.032 854.908 241.032H850.168V246.612C850.168 247.204 849.876 247.5 849.292 247.5ZM850.168 239.268H854.908C855.852 239.268 856.528 239.064 856.936 238.656C857.344 238.248 857.548 237.572 857.548 236.628V235.908C857.548 234.964 857.344 234.288 856.936 233.88C856.528 233.464 855.852 233.256 854.908 233.256H850.168V239.268ZM873.165 247.536C872.933 247.688 872.713 247.736 872.505 247.68C872.297 247.624 872.117 247.48 871.965 247.248L868.173 241.032H864.465V246.612C864.465 247.204 864.173 247.5 863.589 247.5C862.997 247.5 862.701 247.204 862.701 246.612V232.38C862.701 231.788 862.997 231.492 863.589 231.492H869.205C870.637 231.492 871.729 231.872 872.481 232.632C873.233 233.384 873.609 234.476 873.609 235.908V236.628C873.609 237.876 873.317 238.868 872.733 239.604C872.157 240.34 871.317 240.792 870.213 240.96L873.489 246.336C873.769 246.832 873.661 247.232 873.165 247.536ZM864.465 239.268H869.205C870.149 239.268 870.825 239.064 871.233 238.656C871.641 238.248 871.845 237.572 871.845 236.628V235.908C871.845 234.964 871.641 234.288 871.233 233.88C870.825 233.464 870.149 233.256 869.205 233.256H864.465V239.268Z" fill="#001032"/>
<circle cx="32.5" cy="217" r="4.5" fill="#E6B058"/>
<circle cx="316.5" cy="217" r="4.5" fill="#E6B058"/>
<circle cx="518.5" cy="217" r="4.5" fill="#E6B058"/>
<circle cx="705.5" cy="217" r="4.5" fill="#E6B058"/>
<circle cx="859.5" cy="217" r="4.5" fill="#E6B058"/>
<defs>
<clipPath id="clip0">
<rect width="132.018" height="132.018" fill="white" transform="translate(379.982 0.138184)"/>
</clipPath>
</defs>
</svg>
