<svg width="874" height="253" viewBox="0 0 874 253" fill="none" xmlns="http://www.w3.org/2000/svg">
<rect width="874" height="253" fill="white"/>
<rect x="449" y="125.156" width="58.8442" height="6" rx="3" transform="rotate(90 449 125.156)" fill="#3C76F2"/>
<rect x="318.178" y="178.656" width="39.3442" height="3" rx="1.5" transform="rotate(90 318.178 178.656)" fill="#3C76F2"/>
<rect x="520.178" y="178.656" width="39.3442" height="3" rx="1.5" transform="rotate(90 520.178 178.656)" fill="#3C76F2"/>
<rect x="707.178" y="178.656" width="39.3442" height="3" rx="1.5" transform="rotate(90 707.178 178.656)" fill="#3C76F2"/>
<rect x="861.178" y="178.656" width="39.3442" height="3" rx="1.5" transform="rotate(90 861.178 178.656)" fill="#3C76F2"/>
<rect x="34.1777" y="178.656" width="39.3442" height="3" rx="1.5" transform="rotate(90 34.1777 178.656)" fill="#3C76F2"/>
<rect width="830" height="6" rx="3" transform="matrix(-1 -8.74228e-08 -8.74228e-08 1 861 178.578)" fill="#3C76F2"/>
<g clip-path="url(#clip0)">
<rect width="132.018" height="132.018" transform="translate(379.982 0.138184)" fill="white"/>
<path d="M436.703 106.265C437.961 103.517 438.226 103.436 441.84 92.8567C442.263 91.6192 445.129 99.3692 444.307 100.076C442.868 101.314 440.977 104.408 438.758 108.121C438.141 109.153 435.852 108.121 436.703 106.265Z" fill="#3C76F2" stroke="#3C76F2" stroke-width="0.122239"/>
<path d="M450.677 63.9781C443.279 79.6552 445.54 96.1574 449.855 107.915C451.089 109.153 452.207 107.985 452.116 107.297C450.977 86.6741 451.013 76.9375 456.637 64.8032C457.115 63.7719 451.261 62.7406 450.677 63.9781Z" fill="#3C76F2" stroke="#3C76F2" stroke-width="0.122239"/>
<path d="M455.611 33.8632C456.632 34.2433 450.284 46.6226 446.772 54.9035C446.885 55.9284 447.457 57.1247 448.417 57.3788C449.376 57.6329 449.385 54.6783 450.061 54.9035C451.717 54.5481 451.983 55.0514 450.472 57.9977C450.472 57.9977 452.734 58.2022 453.965 60.0604C455.197 61.9187 457.459 62.1232 457.459 62.1232C460.567 45.0906 460.702 43.0024 461.366 42.2186C463.005 37.7754 467.653 40.6885 470.614 40.9534C471.364 41.0206 474.518 39.7433 470.614 37.8868C466.709 36.0303 466.092 31.3461 461.366 31.3461C462.804 25.7769 457.998 25.5705 458.694 28.0859C459.31 30.3147 458.121 32.5863 457.872 31.5526C457.623 30.5188 453.145 26.6019 450.472 29.1188C448.78 30.8177 454.59 33.4831 455.611 33.8632Z" fill="#3C76F2" stroke="#3C76F2" stroke-width="0.122239"/>
<path d="M412.247 108.329C411.63 108.535 410.315 108.618 409.986 107.298C412.733 100.6 413.694 97.1419 414.919 91.2079C416.429 83.4561 417.936 81.662 420.056 79.6562C426.913 73.9391 433.415 73.468 437.936 69.1362C441.535 64.8376 442.738 62.6303 444.307 58.8223C444.911 57.527 448.623 58.8216 447.801 59.4412C445.694 64.7459 444.18 67.8335 441.019 73.468C438.205 77.4367 436.681 78.978 434.031 81.1003C431.15 82.8196 429.827 83.4897 428.072 83.9882C425.005 85.0298 424.174 86.604 422.112 89.1451C420.424 91.9987 419.302 94.3213 416.974 100.078C413.947 106.004 413.446 106.587 412.247 108.329Z" fill="#3C76F2" stroke="#3C76F2" stroke-width="0.122239"/>
<path d="M429.921 108.534C429.305 103.377 427.551 99.4663 427.455 95.5387C427.455 94.5074 432.7 93.0635 432.593 93.8885C431.976 98.6329 432.903 104.555 432.593 108.534C432.545 109.153 429.995 109.153 429.921 108.534Z" fill="#3C76F2" stroke="#3C76F2" stroke-width="0.122239"/>
<path d="M508.646 66.147C508.646 101.03 480.475 129.291 445.747 129.291C411.018 129.291 382.847 101.03 382.847 66.147C382.847 31.2636 411.018 3.00318 445.747 3.00318C480.475 3.00318 508.646 31.2636 508.646 66.147Z" stroke="#3C76F2" stroke-width="5.73"/>
</g>
<path d="M2.3 247.5C1.708 247.5 1.412 247.204 1.412 246.612V232.38C1.412 231.788 1.708 231.492 2.3 231.492H11.036C11.628 231.492 11.924 231.788 11.924 232.38C11.924 232.964 11.628 233.256 11.036 233.256H3.176V238.536H8.204C8.796 238.536 9.092 238.828 9.092 239.412C9.092 240.004 8.796 240.3 8.204 240.3H3.176V245.736H11.036C11.628 245.736 11.924 246.028 11.924 246.612C11.924 247.204 11.628 247.5 11.036 247.5H2.3ZM18.9103 247.5C17.3503 247.5 16.1943 247.128 15.4423 246.384C14.6983 245.632 14.3263 244.476 14.3263 242.916V240.18C14.3263 238.62 14.6983 237.468 15.4423 236.724C16.1943 235.98 17.3503 235.608 18.9103 235.608H23.6863V231.564C23.6863 230.98 23.9823 230.688 24.5743 230.688C25.1583 230.688 25.4503 230.98 25.4503 231.564V246.612C25.4503 247.204 25.1583 247.5 24.5743 247.5C23.9823 247.5 23.6863 247.204 23.6863 246.612V246.156C23.3183 246.596 22.8223 246.932 22.1983 247.164C21.5743 247.388 20.7823 247.5 19.8223 247.5H18.9103ZM18.9103 245.736H19.8223C20.9423 245.736 21.8663 245.58 22.5943 245.268C23.3223 244.956 23.6863 244.48 23.6863 243.84V237.372H18.9103C17.8303 237.372 17.0903 237.576 16.6903 237.984C16.2903 238.384 16.0903 239.116 16.0903 240.18V242.916C16.0903 243.996 16.2903 244.736 16.6903 245.136C17.0983 245.536 17.8383 245.736 18.9103 245.736ZM39.8206 235.608C40.4126 235.608 40.7086 235.904 40.7086 236.496V246.624C40.7086 247.208 40.4126 247.5 39.8206 247.5C39.2366 247.5 38.9446 247.208 38.9446 246.624V245.976C38.1286 246.992 36.8366 247.5 35.0686 247.5H34.3966C32.8366 247.5 31.6846 247.128 30.9406 246.384C30.1966 245.64 29.8246 244.488 29.8246 242.928V236.496C29.8246 235.904 30.1166 235.608 30.7006 235.608C31.2926 235.608 31.5886 235.904 31.5886 236.496V242.928C31.5886 244.008 31.7886 244.748 32.1886 245.148C32.5966 245.54 33.3326 245.736 34.3966 245.736H35.0686C36.1246 245.736 37.0086 245.6 37.7206 245.328C38.4326 245.048 38.8406 244.612 38.9446 244.02V236.496C38.9446 235.904 39.2366 235.608 39.8206 235.608ZM49.6134 247.5C48.0534 247.5 46.8974 247.128 46.1454 246.384C45.4014 245.632 45.0294 244.476 45.0294 242.916V240.156C45.0294 238.596 45.3974 237.444 46.1334 236.7C46.8774 235.956 48.0374 235.592 49.6134 235.608H51.5814C52.7654 235.608 53.6894 235.808 54.3534 236.208C55.0174 236.608 55.4334 237.224 55.6014 238.056C55.6574 238.352 55.6014 238.58 55.4334 238.74C55.2734 238.9 55.0414 238.98 54.7374 238.98C54.4654 238.98 54.2654 238.912 54.1374 238.776C54.0094 238.632 53.8974 238.432 53.8014 238.176C53.6894 237.88 53.4614 237.672 53.1174 237.552C52.7814 237.432 52.2694 237.372 51.5814 237.372H49.6134C48.5414 237.356 47.8014 237.548 47.3934 237.948C46.9934 238.34 46.7934 239.076 46.7934 240.156V242.916C46.7934 243.996 46.9934 244.736 47.3934 245.136C47.8014 245.536 48.5414 245.736 49.6134 245.736H51.5814C52.2694 245.736 52.7814 245.676 53.1174 245.556C53.4614 245.436 53.6894 245.224 53.8014 244.92C53.8974 244.656 54.0094 244.456 54.1374 244.32C54.2654 244.184 54.4694 244.116 54.7494 244.116C55.0454 244.116 55.2734 244.2 55.4334 244.368C55.6014 244.528 55.6574 244.752 55.6014 245.04C55.4334 245.872 55.0174 246.492 54.3534 246.9C53.6894 247.3 52.7654 247.5 51.5814 247.5H49.6134ZM62.8563 247.5C61.5443 247.5 60.5723 247.184 59.9403 246.552C59.3083 245.92 58.9923 244.948 58.9923 243.636C58.9923 242.324 59.3043 241.352 59.9283 240.72C60.5603 240.088 61.5363 239.772 62.8563 239.772H68.0523C68.0203 238.86 67.7963 238.232 67.3803 237.888C66.9643 237.544 66.2563 237.372 65.2563 237.372H63.8643C62.9923 237.372 62.3443 237.444 61.9203 237.588C61.5043 237.732 61.2243 237.984 61.0803 238.344C60.9683 238.632 60.8443 238.836 60.7083 238.956C60.5803 239.068 60.3803 239.124 60.1083 239.124C59.8123 239.124 59.5803 239.044 59.4123 238.884C59.2523 238.716 59.2043 238.496 59.2683 238.224C59.4603 237.32 59.9323 236.66 60.6843 236.244C61.4363 235.82 62.4963 235.608 63.8643 235.608H65.2563C66.8163 235.608 67.9683 235.98 68.7123 236.724C69.4563 237.468 69.8283 238.62 69.8283 240.18V246.612C69.8283 247.204 69.5363 247.5 68.9523 247.5C68.3603 247.5 68.0643 247.204 68.0643 246.612V245.856C67.2403 246.952 65.9523 247.5 64.2003 247.5H62.8563ZM62.8563 245.736H64.2003C64.8483 245.736 65.4443 245.672 65.9883 245.544C66.5323 245.416 66.9883 245.192 67.3563 244.872C67.7243 244.552 67.9603 244.104 68.0643 243.528V241.536H62.8563C62.0323 241.536 61.4763 241.684 61.1883 241.98C60.9003 242.268 60.7563 242.82 60.7563 243.636C60.7563 244.46 60.9003 245.016 61.1883 245.304C61.4763 245.592 62.0323 245.736 62.8563 245.736ZM79.3878 247.5C77.8438 247.5 76.7078 247.136 75.9798 246.408C75.2518 245.68 74.8878 244.548 74.8878 243.012V237.372H73.6278C73.0358 237.372 72.7398 237.076 72.7398 236.484C72.7398 235.9 73.0358 235.608 73.6278 235.608H74.8878V233.58C74.8878 232.988 75.1798 232.692 75.7638 232.692C76.3558 232.692 76.6518 232.988 76.6518 233.58V235.608H79.4958C80.0798 235.608 80.3718 235.9 80.3718 236.484C80.3718 237.076 80.0798 237.372 79.4958 237.372H76.6518V243.012C76.6518 244.068 76.8438 244.788 77.2278 245.172C77.6198 245.548 78.3398 245.736 79.3878 245.736C79.6758 245.736 79.8958 245.808 80.0478 245.952C80.1998 246.088 80.2758 246.308 80.2758 246.612C80.2758 247.204 79.9798 247.5 79.3878 247.5ZM84.8938 247.5C84.3018 247.5 84.0058 247.204 84.0058 246.612V236.484C84.0058 235.9 84.3018 235.608 84.8938 235.608C85.4778 235.608 85.7698 235.9 85.7698 236.484V246.612C85.7698 247.204 85.4778 247.5 84.8938 247.5ZM84.5938 233.556C83.8898 233.556 83.5378 233.208 83.5378 232.512V231.852C83.5378 231.172 83.8898 230.832 84.5938 230.832H85.2178C85.8898 230.832 86.2258 231.172 86.2258 231.852V232.512C86.2258 233.208 85.8898 233.556 85.2178 233.556H84.5938ZM94.6837 247.5C93.1237 247.5 91.9677 247.128 91.2157 246.384C90.4717 245.64 90.0997 244.492 90.0997 242.94V240.18C90.0997 238.604 90.4717 237.448 91.2157 236.712C91.9677 235.968 93.1237 235.6 94.6837 235.608H96.6517C98.2117 235.608 99.3637 235.98 100.108 236.724C100.852 237.468 101.224 238.62 101.224 240.18V242.916C101.224 244.476 100.852 245.632 100.108 246.384C99.3637 247.128 98.2117 247.5 96.6517 247.5H94.6837ZM91.8637 242.94C91.8637 244.004 92.0637 244.736 92.4637 245.136C92.8637 245.536 93.6037 245.736 94.6837 245.736H96.6517C97.7317 245.736 98.4677 245.536 98.8597 245.136C99.2597 244.736 99.4597 243.996 99.4597 242.916V240.18C99.4597 239.1 99.2597 238.364 98.8597 237.972C98.4677 237.572 97.7317 237.372 96.6517 237.372H94.6837C93.9637 237.372 93.3997 237.456 92.9917 237.624C92.5837 237.792 92.2917 238.08 92.1157 238.488C91.9477 238.896 91.8637 239.46 91.8637 240.18V242.94ZM106.433 247.5C105.841 247.5 105.545 247.204 105.545 246.612V236.484C105.545 235.9 105.841 235.608 106.433 235.608C107.017 235.608 107.309 235.9 107.309 236.484V237.132C108.125 236.116 109.417 235.608 111.185 235.608H111.857C113.417 235.608 114.569 235.98 115.313 236.724C116.057 237.468 116.429 238.62 116.429 240.18V246.612C116.429 247.204 116.137 247.5 115.553 247.5C114.961 247.5 114.665 247.204 114.665 246.612V240.18C114.665 239.1 114.461 238.364 114.053 237.972C113.653 237.572 112.921 237.372 111.857 237.372H111.185C110.129 237.372 109.245 237.512 108.533 237.792C107.821 238.064 107.413 238.496 107.309 239.088V246.612C107.309 247.204 107.017 247.5 106.433 247.5Z" fill="#001032"/>
<path d="M253.298 247.5C252.706 247.5 252.41 247.204 252.41 246.612V232.38C252.41 231.788 252.706 231.492 253.298 231.492C253.69 231.492 254.014 231.684 254.27 232.068L260.042 240.792L259.658 240.852L265.454 232.068C265.694 231.684 266.05 231.492 266.522 231.492C267.01 231.492 267.254 231.788 267.254 232.38V246.612C267.254 247.204 266.962 247.5 266.378 247.5C265.786 247.5 265.49 247.204 265.49 246.612V234.144L266.03 234.324L260.822 242.088C260.566 242.464 260.21 242.652 259.754 242.652C259.418 242.652 259.122 242.464 258.866 242.088L253.658 234.324L254.174 234.48V246.612C254.174 247.204 253.882 247.5 253.298 247.5ZM275.698 247.5C274.386 247.5 273.414 247.184 272.782 246.552C272.15 245.92 271.834 244.948 271.834 243.636C271.834 242.324 272.146 241.352 272.77 240.72C273.402 240.088 274.378 239.772 275.698 239.772H280.894C280.862 238.86 280.638 238.232 280.222 237.888C279.806 237.544 279.098 237.372 278.098 237.372H276.706C275.834 237.372 275.186 237.444 274.762 237.588C274.346 237.732 274.066 237.984 273.922 238.344C273.81 238.632 273.686 238.836 273.55 238.956C273.422 239.068 273.222 239.124 272.95 239.124C272.654 239.124 272.422 239.044 272.254 238.884C272.094 238.716 272.046 238.496 272.11 238.224C272.302 237.32 272.774 236.66 273.526 236.244C274.278 235.82 275.338 235.608 276.706 235.608H278.098C279.658 235.608 280.81 235.98 281.554 236.724C282.298 237.468 282.67 238.62 282.67 240.18V246.612C282.67 247.204 282.378 247.5 281.794 247.5C281.202 247.5 280.906 247.204 280.906 246.612V245.856C280.082 246.952 278.794 247.5 277.042 247.5H275.698ZM275.698 245.736H277.042C277.69 245.736 278.286 245.672 278.83 245.544C279.374 245.416 279.83 245.192 280.198 244.872C280.566 244.552 280.802 244.104 280.906 243.528V241.536H275.698C274.874 241.536 274.318 241.684 274.03 241.98C273.742 242.268 273.598 242.82 273.598 243.636C273.598 244.46 273.742 245.016 274.03 245.304C274.318 245.592 274.874 245.736 275.698 245.736ZM288.15 247.5C287.558 247.5 287.262 247.204 287.262 246.612V236.484C287.262 235.9 287.558 235.608 288.15 235.608C288.734 235.608 289.026 235.9 289.026 236.484V237.732C289.482 237.036 290.082 236.508 290.826 236.148C291.578 235.788 292.45 235.608 293.442 235.608C294.034 235.608 294.33 235.9 294.33 236.484C294.33 237.076 294.034 237.372 293.442 237.372C292.042 237.372 290.97 237.652 290.226 238.212C289.482 238.764 289.082 239.52 289.026 240.48V246.612C289.026 247.204 288.734 247.5 288.15 247.5ZM297.993 247.5C297.401 247.5 297.105 247.204 297.105 246.612V231.564C297.105 230.98 297.401 230.688 297.993 230.688C298.577 230.688 298.869 230.98 298.869 231.564V240.9L304.713 235.884C305.153 235.5 305.565 235.528 305.949 235.968C306.333 236.416 306.305 236.828 305.865 237.204L301.473 240.996L305.865 245.988C306.257 246.436 306.233 246.848 305.793 247.224C305.353 247.608 304.937 247.58 304.545 247.14L300.117 242.16L298.869 243.24V246.612C298.869 247.204 298.577 247.5 297.993 247.5ZM309.862 242.268V242.94C309.862 244.004 310.062 244.736 310.462 245.136C310.862 245.536 311.602 245.736 312.682 245.736H314.65C315.53 245.736 316.174 245.644 316.582 245.46C316.998 245.268 317.266 244.936 317.386 244.464C317.45 244.2 317.55 243.996 317.686 243.852C317.83 243.708 318.042 243.636 318.322 243.636C318.618 243.636 318.842 243.716 318.994 243.876C319.146 244.028 319.198 244.252 319.15 244.548C318.998 245.548 318.546 246.292 317.794 246.78C317.05 247.26 316.002 247.5 314.65 247.5H312.682C311.122 247.5 309.966 247.128 309.214 246.384C308.47 245.64 308.098 244.492 308.098 242.94V240.18C308.098 238.596 308.47 237.436 309.214 236.7C309.966 235.956 311.122 235.592 312.682 235.608H314.65C316.21 235.608 317.362 235.98 318.106 236.724C318.85 237.46 319.222 238.612 319.222 240.18V241.38C319.222 241.972 318.93 242.268 318.346 242.268H309.862ZM312.682 237.372C311.602 237.356 310.862 237.548 310.462 237.948C310.062 238.348 309.862 239.092 309.862 240.18V240.504H317.458V240.18C317.458 239.1 317.258 238.364 316.858 237.972C316.466 237.572 315.73 237.372 314.65 237.372H312.682ZM328.042 247.5C326.498 247.5 325.362 247.136 324.634 246.408C323.906 245.68 323.542 244.548 323.542 243.012V237.372H322.282C321.69 237.372 321.394 237.076 321.394 236.484C321.394 235.9 321.69 235.608 322.282 235.608H323.542V233.58C323.542 232.988 323.834 232.692 324.418 232.692C325.01 232.692 325.306 232.988 325.306 233.58V235.608H328.15C328.734 235.608 329.026 235.9 329.026 236.484C329.026 237.076 328.734 237.372 328.15 237.372H325.306V243.012C325.306 244.068 325.498 244.788 325.882 245.172C326.274 245.548 326.994 245.736 328.042 245.736C328.33 245.736 328.55 245.808 328.702 245.952C328.854 246.088 328.93 246.308 328.93 246.612C328.93 247.204 328.634 247.5 328.042 247.5ZM333.548 247.5C332.956 247.5 332.66 247.204 332.66 246.612V236.484C332.66 235.9 332.956 235.608 333.548 235.608C334.132 235.608 334.424 235.9 334.424 236.484V246.612C334.424 247.204 334.132 247.5 333.548 247.5ZM333.248 233.556C332.544 233.556 332.192 233.208 332.192 232.512V231.852C332.192 231.172 332.544 230.832 333.248 230.832H333.872C334.544 230.832 334.88 231.172 334.88 231.852V232.512C334.88 233.208 334.544 233.556 333.872 233.556H333.248ZM340.134 247.5C339.542 247.5 339.246 247.204 339.246 246.612V236.484C339.246 235.9 339.542 235.608 340.134 235.608C340.718 235.608 341.01 235.9 341.01 236.484V237.132C341.826 236.116 343.118 235.608 344.886 235.608H345.558C347.118 235.608 348.27 235.98 349.014 236.724C349.758 237.468 350.13 238.62 350.13 240.18V246.612C350.13 247.204 349.838 247.5 349.254 247.5C348.662 247.5 348.366 247.204 348.366 246.612V240.18C348.366 239.1 348.162 238.364 347.754 237.972C347.354 237.572 346.622 237.372 345.558 237.372H344.886C343.83 237.372 342.946 237.512 342.234 237.792C341.522 238.064 341.114 238.496 341.01 239.088V246.612C341.01 247.204 340.718 247.5 340.134 247.5ZM357.559 252.3C356.599 252.3 355.851 252.104 355.315 251.712C354.779 251.32 354.443 250.72 354.307 249.912C354.259 249.616 354.311 249.384 354.463 249.216C354.623 249.048 354.855 248.964 355.159 248.964C355.431 248.964 355.631 249.036 355.759 249.18C355.887 249.324 355.991 249.54 356.071 249.828C356.151 250.1 356.303 250.284 356.527 250.38C356.759 250.484 357.103 250.536 357.559 250.536H362.023C362.655 250.536 363.071 250.428 363.271 250.212C363.479 250.004 363.583 249.588 363.583 248.964V245.964C363.175 246.46 362.647 246.84 361.999 247.104C361.351 247.368 360.591 247.5 359.719 247.5H358.807C357.247 247.5 356.091 247.128 355.339 246.384C354.595 245.64 354.223 244.492 354.223 242.94V240.18C354.223 238.604 354.591 237.448 355.327 236.712C356.071 235.976 357.231 235.608 358.807 235.608H360.775C361.415 235.608 361.967 235.7 362.431 235.884C362.895 236.06 363.279 236.336 363.583 236.712V236.484C363.583 235.9 363.879 235.608 364.471 235.608C365.055 235.608 365.347 235.9 365.347 236.484V248.964C365.347 250.1 365.075 250.94 364.531 251.484C363.995 252.028 363.159 252.3 362.023 252.3H357.559ZM358.807 245.736H359.719C360.839 245.736 361.763 245.584 362.491 245.28C363.219 244.968 363.583 244.488 363.583 243.84V239.304C363.583 238.568 363.343 238.064 362.863 237.792C362.383 237.512 361.687 237.372 360.775 237.372H358.807C357.735 237.372 356.995 237.568 356.587 237.96C356.187 238.352 355.987 239.092 355.987 240.18V242.94C355.987 243.996 356.187 244.728 356.587 245.136C356.987 245.536 357.727 245.736 358.807 245.736Z" fill="#001032"/>
<path d="M442.296 247.5C442 247.5 441.776 247.428 441.624 247.284C441.48 247.132 441.408 246.908 441.408 246.612V232.392C441.408 232.088 441.48 231.864 441.624 231.72C441.776 231.576 442 231.504 442.296 231.504C442.592 231.504 442.812 231.576 442.956 231.72C443.1 231.864 443.172 232.088 443.172 232.392V246.612C443.172 246.908 443.1 247.132 442.956 247.284C442.812 247.428 442.592 247.5 442.296 247.5ZM452.77 247.5C452.482 247.5 452.262 247.428 452.11 247.284C451.958 247.132 451.882 246.912 451.882 246.624V233.268H447.082C446.794 233.268 446.574 233.196 446.422 233.052C446.27 232.9 446.194 232.68 446.194 232.392C446.194 232.104 446.27 231.884 446.422 231.732C446.574 231.58 446.794 231.504 447.082 231.504H458.458C458.746 231.504 458.962 231.58 459.106 231.732C459.258 231.884 459.334 232.104 459.334 232.392C459.334 232.68 459.258 232.9 459.106 233.052C458.962 233.196 458.746 233.268 458.458 233.268H453.646V246.624C453.646 246.896 453.57 247.112 453.418 247.272C453.266 247.424 453.05 247.5 452.77 247.5ZM459.286 241.776C459.086 241.776 458.91 241.7 458.758 241.548C458.606 241.396 458.53 241.22 458.53 241.02C458.53 240.812 458.606 240.636 458.758 240.492C458.91 240.34 459.086 240.264 459.286 240.264H465.91C466.118 240.264 466.294 240.34 466.438 240.492C466.59 240.636 466.666 240.812 466.666 241.02C466.666 241.22 466.59 241.396 466.438 241.548C466.294 241.7 466.118 241.776 465.91 241.776H459.286ZM474.375 247.5C472.815 247.5 471.659 247.128 470.907 246.384C470.163 245.632 469.791 244.476 469.791 242.916V240.18C469.791 238.62 470.163 237.468 470.907 236.724C471.659 235.98 472.815 235.608 474.375 235.608H479.151V231.564C479.151 230.98 479.447 230.688 480.039 230.688C480.623 230.688 480.915 230.98 480.915 231.564V246.612C480.915 247.204 480.623 247.5 480.039 247.5C479.447 247.5 479.151 247.204 479.151 246.612V246.156C478.783 246.596 478.287 246.932 477.663 247.164C477.039 247.388 476.247 247.5 475.287 247.5H474.375ZM474.375 245.736H475.287C476.407 245.736 477.331 245.58 478.059 245.268C478.787 244.956 479.151 244.48 479.151 243.84V237.372H474.375C473.295 237.372 472.555 237.576 472.155 237.984C471.755 238.384 471.555 239.116 471.555 240.18V242.916C471.555 243.996 471.755 244.736 472.155 245.136C472.563 245.536 473.303 245.736 474.375 245.736ZM486.789 242.268V242.94C486.789 244.004 486.989 244.736 487.389 245.136C487.789 245.536 488.529 245.736 489.609 245.736H491.577C492.457 245.736 493.101 245.644 493.509 245.46C493.925 245.268 494.193 244.936 494.313 244.464C494.377 244.2 494.477 243.996 494.613 243.852C494.757 243.708 494.969 243.636 495.249 243.636C495.545 243.636 495.769 243.716 495.921 243.876C496.073 244.028 496.125 244.252 496.077 244.548C495.925 245.548 495.473 246.292 494.721 246.78C493.977 247.26 492.929 247.5 491.577 247.5H489.609C488.049 247.5 486.893 247.128 486.141 246.384C485.397 245.64 485.025 244.492 485.025 242.94V240.18C485.025 238.596 485.397 237.436 486.141 236.7C486.893 235.956 488.049 235.592 489.609 235.608H491.577C493.137 235.608 494.289 235.98 495.033 236.724C495.777 237.46 496.149 238.612 496.149 240.18V241.38C496.149 241.972 495.857 242.268 495.273 242.268H486.789ZM489.609 237.372C488.529 237.356 487.789 237.548 487.389 237.948C486.989 238.348 486.789 239.092 486.789 240.18V240.504H494.385V240.18C494.385 239.1 494.185 238.364 493.785 237.972C493.393 237.572 492.657 237.372 491.577 237.372H489.609ZM501.359 252.3C500.767 252.3 500.471 252.004 500.471 251.412V236.484C500.471 235.9 500.767 235.608 501.359 235.608C501.943 235.608 502.235 235.9 502.235 236.484V237.048C502.643 236.568 503.171 236.208 503.819 235.968C504.467 235.728 505.231 235.608 506.111 235.608H507.023C508.583 235.608 509.735 235.98 510.479 236.724C511.223 237.468 511.595 238.62 511.595 240.18V242.916C511.595 244.476 511.223 245.632 510.479 246.384C509.735 247.128 508.583 247.5 507.023 247.5H502.235V251.412C502.235 252.004 501.943 252.3 501.359 252.3ZM502.235 245.736H507.023C508.103 245.736 508.839 245.536 509.231 245.136C509.631 244.736 509.831 243.996 509.831 242.916V240.18C509.831 239.1 509.631 238.364 509.231 237.972C508.839 237.572 508.103 237.372 507.023 237.372H506.111C505.015 237.372 504.111 237.52 503.399 237.816C502.687 238.104 502.299 238.56 502.235 239.184V245.736ZM519.54 247.5C518.228 247.5 517.256 247.184 516.624 246.552C515.992 245.92 515.676 244.948 515.676 243.636C515.676 242.324 515.988 241.352 516.612 240.72C517.244 240.088 518.22 239.772 519.54 239.772H524.736C524.704 238.86 524.48 238.232 524.064 237.888C523.648 237.544 522.94 237.372 521.94 237.372H520.548C519.676 237.372 519.028 237.444 518.604 237.588C518.188 237.732 517.908 237.984 517.764 238.344C517.652 238.632 517.528 238.836 517.392 238.956C517.264 239.068 517.064 239.124 516.792 239.124C516.496 239.124 516.264 239.044 516.096 238.884C515.936 238.716 515.888 238.496 515.952 238.224C516.144 237.32 516.616 236.66 517.368 236.244C518.12 235.82 519.18 235.608 520.548 235.608H521.94C523.5 235.608 524.652 235.98 525.396 236.724C526.14 237.468 526.512 238.62 526.512 240.18V246.612C526.512 247.204 526.22 247.5 525.636 247.5C525.044 247.5 524.748 247.204 524.748 246.612V245.856C523.924 246.952 522.636 247.5 520.884 247.5H519.54ZM519.54 245.736H520.884C521.532 245.736 522.128 245.672 522.672 245.544C523.216 245.416 523.672 245.192 524.04 244.872C524.408 244.552 524.644 244.104 524.748 243.528V241.536H519.54C518.716 241.536 518.16 241.684 517.872 241.98C517.584 242.268 517.44 242.82 517.44 243.636C517.44 244.46 517.584 245.016 517.872 245.304C518.16 245.592 518.716 245.736 519.54 245.736ZM531.991 247.5C531.399 247.5 531.103 247.204 531.103 246.612V236.484C531.103 235.9 531.399 235.608 531.991 235.608C532.575 235.608 532.867 235.9 532.867 236.484V237.732C533.323 237.036 533.923 236.508 534.667 236.148C535.419 235.788 536.291 235.608 537.283 235.608C537.875 235.608 538.171 235.9 538.171 236.484C538.171 237.076 537.875 237.372 537.283 237.372C535.883 237.372 534.811 237.652 534.067 238.212C533.323 238.764 532.923 239.52 532.867 240.48V246.612C532.867 247.204 532.575 247.5 531.991 247.5ZM545.915 247.5C544.371 247.5 543.235 247.136 542.507 246.408C541.779 245.68 541.415 244.548 541.415 243.012V237.372H540.155C539.563 237.372 539.267 237.076 539.267 236.484C539.267 235.9 539.563 235.608 540.155 235.608H541.415V233.58C541.415 232.988 541.707 232.692 542.291 232.692C542.883 232.692 543.179 232.988 543.179 233.58V235.608H546.023C546.607 235.608 546.899 235.9 546.899 236.484C546.899 237.076 546.607 237.372 546.023 237.372H543.179V243.012C543.179 244.068 543.371 244.788 543.755 245.172C544.147 245.548 544.867 245.736 545.915 245.736C546.203 245.736 546.423 245.808 546.575 245.952C546.727 246.088 546.803 246.308 546.803 246.612C546.803 247.204 546.507 247.5 545.915 247.5ZM563.649 235.596C565.089 235.596 566.121 235.944 566.745 236.64C567.369 237.336 567.681 238.484 567.681 240.084V246.624C567.681 247.208 567.389 247.5 566.805 247.5C566.213 247.5 565.917 247.208 565.917 246.624V240.084C565.917 239.124 565.741 238.432 565.389 238.008C565.037 237.576 564.457 237.36 563.649 237.36H562.665C561.705 237.36 561.017 237.576 560.601 238.008C560.193 238.432 559.989 239.124 559.989 240.084V246.624C559.989 247.208 559.697 247.5 559.113 247.5C558.521 247.5 558.225 247.208 558.225 246.624V240.084C558.225 239.124 558.049 238.432 557.697 238.008C557.345 237.576 556.765 237.36 555.957 237.36H554.973C554.013 237.36 553.325 237.576 552.909 238.008C552.501 238.432 552.297 239.124 552.297 240.084V246.624C552.297 247.208 552.005 247.5 551.421 247.5C550.829 247.5 550.533 247.208 550.533 246.624V236.484C550.533 235.9 550.829 235.608 551.421 235.608C552.005 235.608 552.297 235.9 552.297 236.484V237.168C552.697 236.608 553.145 236.208 553.641 235.968C554.145 235.72 554.757 235.596 555.477 235.596H555.957C556.901 235.596 557.645 235.74 558.189 236.028C558.741 236.308 559.165 236.764 559.461 237.396C559.861 236.748 560.305 236.288 560.793 236.016C561.281 235.736 561.905 235.596 562.665 235.596H563.649ZM573.555 242.268V242.94C573.555 244.004 573.755 244.736 574.155 245.136C574.555 245.536 575.295 245.736 576.375 245.736H578.343C579.223 245.736 579.867 245.644 580.275 245.46C580.691 245.268 580.959 244.936 581.079 244.464C581.143 244.2 581.243 243.996 581.379 243.852C581.523 243.708 581.735 243.636 582.015 243.636C582.311 243.636 582.535 243.716 582.687 243.876C582.839 244.028 582.891 244.252 582.843 244.548C582.691 245.548 582.239 246.292 581.487 246.78C580.743 247.26 579.695 247.5 578.343 247.5H576.375C574.815 247.5 573.659 247.128 572.907 246.384C572.163 245.64 571.791 244.492 571.791 242.94V240.18C571.791 238.596 572.163 237.436 572.907 236.7C573.659 235.956 574.815 235.592 576.375 235.608H578.343C579.903 235.608 581.055 235.98 581.799 236.724C582.543 237.46 582.915 238.612 582.915 240.18V241.38C582.915 241.972 582.623 242.268 582.039 242.268H573.555ZM576.375 237.372C575.295 237.356 574.555 237.548 574.155 237.948C573.755 238.348 573.555 239.092 573.555 240.18V240.504H581.151V240.18C581.151 239.1 580.951 238.364 580.551 237.972C580.159 237.572 579.423 237.372 578.343 237.372H576.375ZM588.124 247.5C587.532 247.5 587.236 247.204 587.236 246.612V236.484C587.236 235.9 587.532 235.608 588.124 235.608C588.708 235.608 589 235.9 589 236.484V237.132C589.816 236.116 591.108 235.608 592.876 235.608H593.548C595.108 235.608 596.26 235.98 597.004 236.724C597.748 237.468 598.12 238.62 598.12 240.18V246.612C598.12 247.204 597.828 247.5 597.244 247.5C596.652 247.5 596.356 247.204 596.356 246.612V240.18C596.356 239.1 596.152 238.364 595.744 237.972C595.344 237.572 594.612 237.372 593.548 237.372H592.876C591.82 237.372 590.936 237.512 590.224 237.792C589.512 238.064 589.104 238.496 589 239.088V246.612C589 247.204 588.708 247.5 588.124 247.5ZM607.673 247.5C606.129 247.5 604.993 247.136 604.265 246.408C603.537 245.68 603.173 244.548 603.173 243.012V237.372H601.913C601.321 237.372 601.025 237.076 601.025 236.484C601.025 235.9 601.321 235.608 601.913 235.608H603.173V233.58C603.173 232.988 603.465 232.692 604.049 232.692C604.641 232.692 604.937 232.988 604.937 233.58V235.608H607.781C608.365 235.608 608.657 235.9 608.657 236.484C608.657 237.076 608.365 237.372 607.781 237.372H604.937V243.012C604.937 244.068 605.129 244.788 605.513 245.172C605.905 245.548 606.625 245.736 607.673 245.736C607.961 245.736 608.181 245.808 608.333 245.952C608.485 246.088 608.561 246.308 608.561 246.612C608.561 247.204 608.265 247.5 607.673 247.5Z" fill="#001032"/>
<path d="M657.294 247.5C656.702 247.5 656.406 247.204 656.406 246.612V232.38C656.406 231.788 656.702 231.492 657.294 231.492H666.066C666.338 231.492 666.55 231.572 666.702 231.732C666.862 231.884 666.942 232.1 666.942 232.38C666.942 232.964 666.65 233.256 666.066 233.256H658.17V238.536H663.21C663.802 238.536 664.098 238.828 664.098 239.412C664.098 240.004 663.802 240.3 663.21 240.3H658.17V246.612C658.17 247.204 657.878 247.5 657.294 247.5ZM670.232 247.5C669.64 247.5 669.344 247.204 669.344 246.612V236.484C669.344 235.9 669.64 235.608 670.232 235.608C670.816 235.608 671.108 235.9 671.108 236.484V246.612C671.108 247.204 670.816 247.5 670.232 247.5ZM669.932 233.556C669.228 233.556 668.876 233.208 668.876 232.512V231.852C668.876 231.172 669.228 230.832 669.932 230.832H670.556C671.228 230.832 671.564 231.172 671.564 231.852V232.512C671.564 233.208 671.228 233.556 670.556 233.556H669.932ZM676.818 247.5C676.226 247.5 675.93 247.204 675.93 246.612V236.484C675.93 235.9 676.226 235.608 676.818 235.608C677.402 235.608 677.694 235.9 677.694 236.484V237.132C678.51 236.116 679.802 235.608 681.57 235.608H682.242C683.802 235.608 684.954 235.98 685.698 236.724C686.442 237.468 686.814 238.62 686.814 240.18V246.612C686.814 247.204 686.522 247.5 685.938 247.5C685.346 247.5 685.05 247.204 685.05 246.612V240.18C685.05 239.1 684.846 238.364 684.438 237.972C684.038 237.572 683.306 237.372 682.242 237.372H681.57C680.514 237.372 679.63 237.512 678.918 237.792C678.206 238.064 677.798 238.496 677.694 239.088V246.612C677.694 247.204 677.402 247.5 676.818 247.5ZM694.554 247.5C693.242 247.5 692.27 247.184 691.638 246.552C691.006 245.92 690.69 244.948 690.69 243.636C690.69 242.324 691.002 241.352 691.626 240.72C692.258 240.088 693.234 239.772 694.554 239.772H699.75C699.718 238.86 699.494 238.232 699.078 237.888C698.662 237.544 697.954 237.372 696.954 237.372H695.562C694.69 237.372 694.042 237.444 693.618 237.588C693.202 237.732 692.922 237.984 692.778 238.344C692.666 238.632 692.542 238.836 692.406 238.956C692.278 239.068 692.078 239.124 691.806 239.124C691.51 239.124 691.278 239.044 691.11 238.884C690.95 238.716 690.902 238.496 690.966 238.224C691.158 237.32 691.63 236.66 692.382 236.244C693.134 235.82 694.194 235.608 695.562 235.608H696.954C698.514 235.608 699.666 235.98 700.41 236.724C701.154 237.468 701.526 238.62 701.526 240.18V246.612C701.526 247.204 701.234 247.5 700.65 247.5C700.058 247.5 699.762 247.204 699.762 246.612V245.856C698.938 246.952 697.65 247.5 695.898 247.5H694.554ZM694.554 245.736H695.898C696.546 245.736 697.142 245.672 697.686 245.544C698.23 245.416 698.686 245.192 699.054 244.872C699.422 244.552 699.658 244.104 699.762 243.528V241.536H694.554C693.73 241.536 693.174 241.684 692.886 241.98C692.598 242.268 692.454 242.82 692.454 243.636C692.454 244.46 692.598 245.016 692.886 245.304C693.174 245.592 693.73 245.736 694.554 245.736ZM707.005 247.5C706.413 247.5 706.117 247.204 706.117 246.612V236.484C706.117 235.9 706.413 235.608 707.005 235.608C707.589 235.608 707.881 235.9 707.881 236.484V237.132C708.697 236.116 709.989 235.608 711.757 235.608H712.429C713.989 235.608 715.141 235.98 715.885 236.724C716.629 237.468 717.001 238.62 717.001 240.18V246.612C717.001 247.204 716.709 247.5 716.125 247.5C715.533 247.5 715.237 247.204 715.237 246.612V240.18C715.237 239.1 715.033 238.364 714.625 237.972C714.225 237.572 713.493 237.372 712.429 237.372H711.757C710.701 237.372 709.817 237.512 709.105 237.792C708.393 238.064 707.985 238.496 707.881 239.088V246.612C707.881 247.204 707.589 247.5 707.005 247.5ZM725.678 247.5C724.118 247.5 722.962 247.128 722.21 246.384C721.466 245.632 721.094 244.476 721.094 242.916V240.156C721.094 238.596 721.462 237.444 722.198 236.7C722.942 235.956 724.102 235.592 725.678 235.608H727.646C728.83 235.608 729.754 235.808 730.418 236.208C731.082 236.608 731.498 237.224 731.666 238.056C731.722 238.352 731.666 238.58 731.498 238.74C731.338 238.9 731.106 238.98 730.802 238.98C730.53 238.98 730.33 238.912 730.202 238.776C730.074 238.632 729.962 238.432 729.866 238.176C729.754 237.88 729.526 237.672 729.182 237.552C728.846 237.432 728.334 237.372 727.646 237.372H725.678C724.606 237.356 723.866 237.548 723.458 237.948C723.058 238.34 722.858 239.076 722.858 240.156V242.916C722.858 243.996 723.058 244.736 723.458 245.136C723.866 245.536 724.606 245.736 725.678 245.736H727.646C728.334 245.736 728.846 245.676 729.182 245.556C729.526 245.436 729.754 245.224 729.866 244.92C729.962 244.656 730.074 244.456 730.202 244.32C730.33 244.184 730.534 244.116 730.814 244.116C731.11 244.116 731.338 244.2 731.498 244.368C731.666 244.528 731.722 244.752 731.666 245.04C731.498 245.872 731.082 246.492 730.418 246.9C729.754 247.3 728.83 247.5 727.646 247.5H725.678ZM737.038 242.268V242.94C737.038 244.004 737.238 244.736 737.638 245.136C738.038 245.536 738.778 245.736 739.858 245.736H741.826C742.706 245.736 743.35 245.644 743.758 245.46C744.174 245.268 744.442 244.936 744.562 244.464C744.626 244.2 744.726 243.996 744.862 243.852C745.006 243.708 745.218 243.636 745.498 243.636C745.794 243.636 746.018 243.716 746.17 243.876C746.322 244.028 746.374 244.252 746.326 244.548C746.174 245.548 745.722 246.292 744.97 246.78C744.226 247.26 743.178 247.5 741.826 247.5H739.858C738.298 247.5 737.142 247.128 736.39 246.384C735.646 245.64 735.274 244.492 735.274 242.94V240.18C735.274 238.596 735.646 237.436 736.39 236.7C737.142 235.956 738.298 235.592 739.858 235.608H741.826C743.386 235.608 744.538 235.98 745.282 236.724C746.026 237.46 746.398 238.612 746.398 240.18V241.38C746.398 241.972 746.106 242.268 745.522 242.268H737.038ZM739.858 237.372C738.778 237.356 738.038 237.548 737.638 237.948C737.238 238.348 737.038 239.092 737.038 240.18V240.504H744.634V240.18C744.634 239.1 744.434 238.364 744.034 237.972C743.642 237.572 742.906 237.372 741.826 237.372H739.858ZM753.455 247.488C752.447 247.488 751.659 247.28 751.091 246.864C750.523 246.44 750.167 245.804 750.023 244.956C749.975 244.668 750.031 244.44 750.191 244.272C750.359 244.104 750.591 244.02 750.887 244.02C751.167 244.02 751.371 244.092 751.499 244.236C751.635 244.38 751.743 244.596 751.823 244.884C751.911 245.212 752.079 245.436 752.327 245.556C752.575 245.668 752.951 245.724 753.455 245.724H757.391C758.055 245.724 758.503 245.612 758.735 245.388C758.975 245.156 759.095 244.7 759.095 244.02C759.095 243.34 758.975 242.884 758.735 242.652C758.503 242.42 758.055 242.304 757.391 242.304H753.515C752.403 242.304 751.567 242.028 751.007 241.476C750.447 240.916 750.167 240.08 750.167 238.968C750.167 237.832 750.439 236.988 750.983 236.436C751.535 235.876 752.379 235.596 753.515 235.596H757.271C759.127 235.596 760.203 236.392 760.499 237.984C760.547 238.28 760.487 238.508 760.319 238.668C760.159 238.828 759.931 238.908 759.635 238.908C759.363 238.908 759.159 238.836 759.023 238.692C758.887 238.548 758.783 238.344 758.711 238.08C758.631 237.8 758.479 237.612 758.255 237.516C758.039 237.412 757.711 237.36 757.271 237.36H753.515C752.875 237.36 752.451 237.464 752.243 237.672C752.035 237.88 751.931 238.312 751.931 238.968C751.931 239.576 752.039 239.992 752.255 240.216C752.479 240.432 752.899 240.54 753.515 240.54H757.391C758.559 240.54 759.427 240.828 759.995 241.404C760.571 241.98 760.859 242.852 760.859 244.02C760.859 245.188 760.571 246.06 759.995 246.636C759.427 247.204 758.559 247.488 757.391 247.488H753.455Z" fill="#001032"/>
<path d="M849.292 247.5C848.7 247.5 848.404 247.204 848.404 246.612V232.38C848.404 231.788 848.7 231.492 849.292 231.492H854.908C856.34 231.492 857.432 231.872 858.184 232.632C858.936 233.384 859.312 234.476 859.312 235.908V236.628C859.312 238.06 858.936 239.152 858.184 239.904C857.432 240.656 856.34 241.032 854.908 241.032H850.168V246.612C850.168 247.204 849.876 247.5 849.292 247.5ZM850.168 239.268H854.908C855.852 239.268 856.528 239.064 856.936 238.656C857.344 238.248 857.548 237.572 857.548 236.628V235.908C857.548 234.964 857.344 234.288 856.936 233.88C856.528 233.464 855.852 233.256 854.908 233.256H850.168V239.268ZM873.165 247.536C872.933 247.688 872.713 247.736 872.505 247.68C872.297 247.624 872.117 247.48 871.965 247.248L868.173 241.032H864.465V246.612C864.465 247.204 864.173 247.5 863.589 247.5C862.997 247.5 862.701 247.204 862.701 246.612V232.38C862.701 231.788 862.997 231.492 863.589 231.492H869.205C870.637 231.492 871.729 231.872 872.481 232.632C873.233 233.384 873.609 234.476 873.609 235.908V236.628C873.609 237.876 873.317 238.868 872.733 239.604C872.157 240.34 871.317 240.792 870.213 240.96L873.489 246.336C873.769 246.832 873.661 247.232 873.165 247.536ZM864.465 239.268H869.205C870.149 239.268 870.825 239.064 871.233 238.656C871.641 238.248 871.845 237.572 871.845 236.628V235.908C871.845 234.964 871.641 234.288 871.233 233.88C870.825 233.464 870.149 233.256 869.205 233.256H864.465V239.268Z" fill="#001032"/>
<circle cx="32.5" cy="217" r="4.5" fill="#E6B058"/>
<circle cx="316.5" cy="217" r="4.5" fill="#E6B058"/>
<circle cx="518.5" cy="217" r="4.5" fill="#E6B058"/>
<circle cx="705.5" cy="217" r="4.5" fill="#E6B058"/>
<circle cx="859.5" cy="217" r="4.5" fill="#E6B058"/>
<defs>
<clipPath id="clip0">
<rect width="132.018" height="132.018" fill="white" transform="translate(379.982 0.138184)"/>
</clipPath>
</defs>
</svg>
