<svg id="Layer_5" enable-background="new 0 0 64 64" height="512" viewBox="0 0 64 64" width="512" xmlns="http://www.w3.org/2000/svg"><g><path d="m38.949 33h6.11c.5 4.493 4.317 8 8.941 8 4.962 0 9-4.038 9-9s-4.038-9-9-9c-4.624 0-8.441 3.507-8.941 8h-6.11c-.207-2.283-1.111-4.366-2.501-6.034l6.508-6.508c.952.345 1.974.542 3.044.542 4.962 0 9-4.038 9-9s-4.038-9-9-9-9 4.038-9 9c0 3.141 1.621 5.908 4.067 7.519l-6.033 6.033c-1.909-1.591-4.361-2.552-7.034-2.552-1.478 0-2.886.297-4.174.828-1.349-2.815-3.745-4.963-6.603-6.046 2.263-1.415 3.777-3.922 3.777-6.782 0-4.411-3.589-8-8-8s-8 3.589-8 8c0 2.86 1.514 5.367 3.777 6.782-4.536 1.714-7.777 6.089-7.777 11.218v10c0 2.206 1.794 4 4 4h1v18c0 2.206 1.794 4 4 4 1.2 0 2.266-.542 3-1.382.734.84 1.8 1.382 3 1.382 2.206 0 4-1.794 4-4v-19.474c2.008 2.133 4.847 3.474 8 3.474 2.673 0 5.125-.961 7.034-2.552l6.033 6.033c-2.446 1.611-4.067 4.378-4.067 7.519 0 4.962 4.038 9 9 9s9-4.038 9-9-4.038-9-9-9c-1.07 0-2.092.197-3.044.541l-6.508-6.508c1.391-1.667 2.294-3.75 2.501-6.033zm2.73-17.504c.885-1.534 2.513-2.496 4.321-2.496s3.436.962 4.321 2.496c-1.191.939-2.69 1.504-4.321 1.504s-3.13-.565-4.321-1.504zm2.321-6.496c0-1.103.897-2 2-2s2 .897 2 2-.897 2-2 2-2-.897-2-2zm2-6c3.86 0 7 3.14 7 7 0 1.492-.473 2.873-1.271 4.01-.708-1.021-1.655-1.834-2.763-2.351.635-.708 1.034-1.634 1.034-2.659 0-2.206-1.794-4-4-4s-4 1.794-4 4c0 1.025.399 1.951 1.034 2.659-1.108.517-2.055 1.33-2.763 2.351-.798-1.137-1.271-2.518-1.271-4.01 0-3.86 3.14-7 7-7zm-4.321 56.496c.885-1.534 2.513-2.496 4.321-2.496s3.436.962 4.321 2.496c-1.191.939-2.69 1.504-4.321 1.504s-3.13-.565-4.321-1.504zm2.321-6.496c0-1.103.897-2 2-2s2 .897 2 2-.897 2-2 2-2-.897-2-2zm9 1c0 1.492-.473 2.873-1.271 4.01-.708-1.021-1.655-1.834-2.763-2.351.635-.708 1.034-1.634 1.034-2.659 0-2.206-1.794-4-4-4s-4 1.794-4 4c0 1.025.399 1.951 1.034 2.659-1.108.517-2.055 1.33-2.763 2.351-.798-1.137-1.271-2.518-1.271-4.01 0-3.86 3.14-7 7-7s7 3.14 7 7zm-3.321-16.504c.885-1.534 2.513-2.496 4.321-2.496s3.436.962 4.321 2.496c-1.191.939-2.69 1.504-4.321 1.504s-3.13-.565-4.321-1.504zm2.321-6.496c0-1.103.897-2 2-2s2 .897 2 2-.897 2-2 2-2-.897-2-2zm2-6c3.86 0 7 3.14 7 7 0 1.492-.473 2.873-1.271 4.01-.708-1.021-1.655-1.834-2.763-2.351.635-.708 1.034-1.634 1.034-2.659 0-2.206-1.794-4-4-4s-4 1.794-4 4c0 1.025.399 1.951 1.034 2.659-1.108.517-2.055 1.33-2.763 2.351-.798-1.137-1.271-2.518-1.271-4.01 0-3.86 3.14-7 7-7zm-44.413-7.387c.383-.14.775-.259 1.178-.352l-.272 3.81c-.391-1.129-.695-2.286-.906-3.458zm3.201-.602c.071-.002.14-.011.212-.011.071 0 .141.007.212.008l.565 7.914c-.247.433-.503.86-.778 1.275-.274-.418-.53-.848-.777-1.283zm2.723 4.104-.276-3.857c.411.095.812.221 1.205.366-.217 1.184-.529 2.352-.929 3.491zm-8.511-12.115c0-3.309 2.691-6 6-6s6 2.691 6 6-2.691 6-6 6-6-2.691-6-6zm11 50c0 1.103-.897 2-2 2s-2-.897-2-2v-18-.757c0-.534.208-1.037.586-1.415l1.121-1.121-1.414-1.414-1.121 1.121c-.756.755-1.172 1.76-1.172 2.829v.757 18c0 1.103-.897 2-2 2s-2-.897-2-2v-37h-2v17h-1c-1.103 0-2-.897-2-2v-10c0-3.574 1.891-6.707 4.718-8.476.646 3.168 1.912 6.224 3.703 8.911l1.579 2.368 1.618-2.426c1.776-2.665 3.037-5.695 3.688-8.836 1.604 1.007 2.924 2.457 3.751 4.218-.755.487-1.443 1.064-2.056 1.715v-2.474h-2v5.444c-.636 1.39-1 2.93-1 4.556s.364 3.166 1 4.556v22.444zm10-18c-4.962 0-9-4.038-9-9s4.038-9 9-9 9 4.038 9 9-4.038 9-9 9z"/><path d="m29 29c.551 0 1 .449 1 1h2c0-1.654-1.346-3-3-3v-2h-2v2h-3v3c0 1.654 1.346 3 3 3h2c.551 0 1 .449 1 1v1h-3c-.551 0-1-.449-1-1h-2c0 1.654 1.346 3 3 3v2h2v-2h3v-3c0-1.654-1.346-3-3-3h-2c-.551 0-1-.449-1-1v-1z"/></g></svg>