<svg id="_x33_0" enable-background="new 0 0 64 64" height="512" viewBox="0 0 64 64" width="512" xmlns="http://www.w3.org/2000/svg"><g><path d="m33 27.184v-2.184h-2v2h-2v3c0 1.654 1.346 3 3 3 .551 0 1 .448 1 1v1h-1c-.551 0-1-.448-1-1v-1h-2v1c0 1.302.839 2.402 2 2.816v2.184h2v-2h2v-3c0-1.654-1.346-3-3-3-.551 0-1-.449-1-1v-1h1c.551 0 1 .449 1 1v1h2v-1c0-1.302-.839-2.402-2-2.816z"/><path d="m55 28c-2.206 0-4 1.794-4 4s1.794 4 4 4 4-1.794 4-4-1.794-4-4-4zm0 6c-1.103 0-2-.897-2-2s.897-2 2-2 2 .897 2 2-.897 2-2 2z"/><path d="m55 24c-4.072 0-7.436 3.06-7.931 7h-4.12c-.478-5.268-4.681-9.472-9.949-9.949v-14.235c1.161-.414 2-1.514 2-2.816 0-1.654-1.346-3-3-3s-3 1.346-3 3c0 1.302.839 2.402 2 2.816v14.235c-5.268.478-9.472 4.681-9.949 9.949h-4.12c-.495-3.94-3.859-7-7.931-7-4.411 0-8 3.589-8 8s3.589 8 8 8c4.072 0 7.436-3.06 7.931-7h4.12c.478 5.268 4.681 9.472 9.949 9.949v14.235c-1.161.414-2 1.514-2 2.816 0 1.654 1.346 3 3 3s3-1.346 3-3c0-1.302-.839-2.402-2-2.816v-14.235c5.268-.478 9.472-4.681 9.949-9.949h4.12c.495 3.94 3.859 7 7.931 7 4.411 0 8-3.589 8-8s-3.589-8-8-8zm-23-21c.551 0 1 .449 1 1s-.449 1-1 1-1-.449-1-1 .449-1 1-1zm-23 35c-3.309 0-6-2.691-6-6s2.691-6 6-6 6 2.691 6 6-2.691 6-6 6zm23 23c-.551 0-1-.448-1-1s.449-1 1-1 1 .448 1 1-.449 1-1 1zm0-20c-4.962 0-9-4.037-9-9 0-4.962 4.038-9 9-9s9 4.038 9 9c0 4.963-4.038 9-9 9zm23-3c-3.309 0-6-2.691-6-6s2.691-6 6-6 6 2.691 6 6-2.691 6-6 6z"/><path d="m9 28c-2.206 0-4 1.794-4 4s1.794 4 4 4 4-1.794 4-4-1.794-4-4-4zm0 6c-1.103 0-2-.897-2-2s.897-2 2-2 2 .897 2 2-.897 2-2 2z"/><path d="m46.726 40.499c-2.216 3.831-5.769 6.614-10.003 7.837l-.928.269 2.927 11.631.985-.271c7.864-2.162 14.493-7.589 18.186-14.89l.5-.987-11.239-4.328zm8.861 4.651c-3.354 6.006-8.891 10.525-15.43 12.596l-1.958-7.78c4.058-1.396 7.493-4.103 9.812-7.732z"/><path d="m17.274 23.5c2.216-3.832 5.769-6.614 10.003-7.836l.928-.268-2.926-11.632-.985.271c-7.864 2.163-14.493 7.59-18.186 14.891l-.5.987 11.238 4.327zm-8.861-4.65c3.354-6.006 8.89-10.526 15.43-12.596l1.958 7.78c-4.057 1.396-7.492 4.102-9.812 7.732z"/><path d="m46.726 23.501.428.74 11.238-4.327-.5-.987c-3.693-7.301-10.321-12.728-18.186-14.891l-.985-.271-2.926 11.632.928.268c4.234 1.222 7.787 4.004 10.003 7.836zm-6.569-17.247c6.54 2.07 12.076 6.59 15.43 12.596l-7.575 2.917c-2.32-3.631-5.755-6.337-9.812-7.732z"/><path d="m17.274 40.499-.428-.739-11.238 4.326.5.987c3.693 7.302 10.322 12.729 18.186 14.891l.985.271 2.926-11.633-.928-.268c-4.234-1.221-7.786-4.003-10.003-7.835zm6.569 17.247c-6.539-2.07-12.075-6.591-15.43-12.597l7.575-2.916c2.32 3.631 5.755 6.337 9.812 7.731z"/></g></svg>