<svg width="52" height="52" viewBox="0 0 52 52" fill="none" xmlns="http://www.w3.org/2000/svg">
<path d="M0.767637 20.8414C-0.536744 19.552 -0.958482 18.328 -0.48504 17.1938C-0.0115973 16.0596 1.34945 15.0274 3.78526 13.976C7.37536 12.4269 11.2229 11.9334 14.6184 12.5864C16.618 12.9708 18.3163 13.729 19.5287 14.7793C20.5678 15.6782 21.4536 17.2047 19.7785 19.3726C18.7295 20.7301 16.8547 22.0575 14.6353 23.0146C11.9564 24.1705 9.48977 24.5325 7.09573 24.1208C5.19434 23.794 3.39965 22.982 1.75716 21.708C1.39937 21.4293 1.06863 21.1397 0.767637 20.8414ZM-7.51341 25.9639C-8.2755 25.2106 -8.71704 24.3562 -8.77672 23.4942C-8.85809 22.2488 -8.13039 21.172 -6.75175 20.4976C-5.76922 20.0208 -4.75912 19.8685 -3.66226 20.0312C-1.88104 20.2955 -0.544671 21.2797 0.87043 22.321C1.01958 22.4309 1.17046 22.5425 1.32542 22.6552C1.65346 22.8946 2.00918 23.1336 2.35448 23.3653C3.64642 24.2335 4.98356 25.1316 5.01382 26.1671C5.03506 26.8598 4.44275 27.4162 3.20932 27.8722C1.78439 28.3967 0.0141338 28.5759 -1.77615 28.3767C-3.70264 28.1624 -5.469 27.5335 -6.74945 26.6075C-7.03092 26.4037 -7.28677 26.1881 -7.51341 25.9639ZM22.3744 32.7179C22.0745 32.4196 21.8051 32.1137 21.5683 31.8025C20.4772 30.3781 20.2073 29.1482 20.768 28.1467C21.4706 26.8863 23.4374 26.0312 26.7869 25.5372C29.5613 25.1258 32.7208 25.0714 35.4537 25.3874C39.8177 25.8915 41.7442 27.135 42.5945 28.0922C43.578 29.2008 43.8265 30.3542 43.312 31.429C42.4335 33.2643 39.4677 34.6423 34.9625 35.3095C31.9202 35.7593 29.5313 35.7635 27.4489 35.321C25.3665 34.8785 23.6788 34.0073 22.3744 32.7179ZM9.57389 33.3727C9.34774 33.1491 9.15169 32.9179 8.98847 32.6823C8.24456 31.6071 8.2479 30.4932 9.00039 29.5469C9.69802 28.666 10.9837 28.0077 12.6209 27.693C14.0432 27.4198 15.256 27.4808 16.3438 27.8834C17.9662 28.4826 18.6328 29.5644 19.2762 30.6103C19.4486 30.8894 19.6259 31.1773 19.8186 31.4538L20.09 31.8376C20.94 33.0345 21.7444 34.1645 21.1535 35.0789C20.7904 35.6416 19.976 35.9893 18.6663 36.1407C16.8177 36.351 14.6998 36.0539 12.7729 35.3141C11.4363 34.7969 10.3337 34.1237 9.57389 33.3727Z" fill="#6425FE" fill-opacity="0.38"/>
</svg>
