<svg width="107" height="64" viewBox="0 0 107 64" fill="none" xmlns="http://www.w3.org/2000/svg">
<path d="M26.621 33.4982C24.0203 35.0948 22.8746 36.9187 23.2133 38.9353C23.552 40.952 25.3674 43.1386 28.917 45.7624C34.149 49.6286 40.1968 51.8817 45.9454 52.1063C49.3306 52.2389 52.3689 51.6518 54.7301 50.408C56.7534 49.3441 58.7653 47.2052 56.87 43.0597C55.6831 40.4638 53.1467 37.6048 49.9121 35.2155C46.0081 32.3306 42.1481 30.8122 38.1134 30.575C34.9091 30.3862 31.6944 31.024 28.5517 32.4678C27.8667 32.7842 27.2214 33.1286 26.621 33.4982ZM15.138 22.0697C13.6186 23.0025 12.5804 24.22 12.158 25.5943C11.5558 27.5814 12.3281 29.6012 14.3072 31.2147C15.7191 32.3585 17.2983 32.9868 19.137 33.1376C22.123 33.3822 24.6602 32.2922 27.3465 31.1395C27.6297 31.0178 27.9163 30.8939 28.21 30.7699C28.8319 30.506 29.4986 30.2531 30.1456 30.0081C32.567 29.0894 35.0728 28.1393 35.513 26.4729C35.8091 25.3585 35.0596 24.2332 33.2333 23.0284C31.1226 21.6402 28.3219 20.6811 25.3458 20.3275C22.1433 19.9469 19.0436 20.2988 16.619 21.3154C16.0859 21.5394 15.59 21.792 15.138 22.0697ZM66.1176 22.4166C65.519 22.7865 64.9669 23.1805 64.4657 23.5953C62.1596 25.4911 61.2578 27.382 61.788 29.2166C62.4502 31.5242 65.3141 33.6528 70.5547 35.7185C74.8948 37.4332 79.9937 38.7149 84.5412 39.2353C91.8029 40.067 95.3941 38.7798 97.1335 37.5501C99.146 36.1253 99.9843 34.3503 99.5566 32.4143C98.8264 29.1088 94.5414 25.7556 87.4936 22.9727C82.734 21.0945 78.8647 20.1852 75.3233 20.1155C71.782 20.0459 68.7183 20.82 66.1176 22.4166ZM45.6239 16.52C45.173 16.7969 44.768 17.0975 44.4145 17.4175C42.803 18.8786 42.3876 20.6848 43.2494 22.5023C44.047 24.1934 45.8815 25.7456 48.4155 26.874C50.6169 27.854 52.6051 28.2134 54.5198 27.9719C57.3749 27.6139 58.8638 26.1128 60.3014 24.6611C60.6861 24.274 61.0822 23.8745 61.4989 23.4994L62.0835 22.98C63.913 21.3617 65.6432 19.8346 65.0312 18.1297C64.6555 17.0808 63.4673 16.2097 61.4022 15.4697C58.4864 14.4306 54.9424 14.1119 51.5408 14.5827C49.1796 14.9158 47.1387 15.5901 45.6239 16.52Z" fill="#6425FE" fill-opacity="0.38"/>
</svg>
