<svg width="119" height="71" viewBox="0 0 119 71" fill="none" xmlns="http://www.w3.org/2000/svg">
<path d="M29.6742 37.3407C26.7752 39.1204 25.4981 41.1535 25.8756 43.4015C26.2532 45.6494 28.2768 48.0869 32.2336 51.0116C38.0656 55.3213 44.8071 57.8328 51.215 58.0832C54.9885 58.231 58.3753 57.5765 61.0073 56.19C63.2627 55.0041 65.5053 52.6199 63.3926 47.9989C62.0696 45.1053 59.2423 41.9183 55.6367 39.255C51.285 36.0392 46.9822 34.3467 42.4848 34.0823C38.9129 33.8718 35.3294 34.5827 31.8263 36.1922C31.0628 36.5448 30.3434 36.9287 29.6742 37.3407ZM16.8742 24.6014C15.1804 25.6412 14.0232 26.9984 13.5524 28.5303C12.881 30.7453 13.7419 32.9967 15.948 34.7953C17.5219 36.0703 19.2822 36.7707 21.3318 36.9387C24.6603 37.2114 27.4885 35.9965 30.4829 34.7115C30.7986 34.5758 31.1181 34.4378 31.4454 34.2995C32.1387 34.0053 32.8818 33.7234 33.6031 33.4503C36.3021 32.4262 39.0954 31.3672 39.5861 29.5096C39.9162 28.2674 39.0806 27.0131 37.0449 25.67C34.6921 24.1226 31.5701 23.0535 28.2527 22.6594C24.6829 22.2352 21.2277 22.6274 18.525 23.7607C17.9308 24.0104 17.3779 24.2919 16.8742 24.6014ZM73.7009 24.9881C73.0337 25.4004 72.4182 25.8396 71.8595 26.302C69.289 28.4153 68.2837 30.523 68.8747 32.568C69.6129 35.1403 72.8053 37.5131 78.6469 39.8157C83.4848 41.7271 89.1685 43.1558 94.2376 43.7358C102.332 44.663 106.335 43.2281 108.274 41.8574C110.517 40.2692 111.452 38.2905 110.975 36.1326C110.161 32.4479 105.385 28.7101 97.5287 25.6079C92.2231 23.5143 87.9101 22.5007 83.9625 22.4231C80.0149 22.3455 76.5998 23.2084 73.7009 24.9881ZM50.8566 18.4152C50.354 18.7239 49.9026 19.0589 49.5086 19.4156C47.7122 21.0444 47.2491 23.0577 48.2098 25.0837C49.0989 26.9687 51.1438 28.699 53.9685 29.9567C56.4224 31.0492 58.6386 31.4498 60.7729 31.1806C63.9555 30.7815 65.6151 29.1083 67.2176 27.4901C67.6464 27.0586 68.088 26.6132 68.5524 26.1951L69.2041 25.6161C71.2434 23.8122 73.1721 22.1099 72.4899 20.2096C72.0711 19.0403 70.7467 18.0693 68.4447 17.2444C65.1944 16.0862 61.244 15.7309 57.4522 16.2557C54.8202 16.6271 52.5452 17.3786 50.8566 18.4152Z" fill="#6425FE" fill-opacity="0.38"/>
</svg>
