<svg width="146" height="87" viewBox="0 0 146 87" fill="none" xmlns="http://www.w3.org/2000/svg">
<path d="M37.0177 46.4497C33.4794 48.622 31.9206 51.1034 32.3814 53.8471C32.8422 56.5908 35.3121 59.5658 40.1415 63.1356C47.2598 68.3957 55.488 71.4611 63.3091 71.7667C67.9148 71.9471 72.0486 71.1484 75.261 69.4561C78.0138 68.0086 80.751 65.0985 78.1724 59.4585C76.5576 55.9267 73.1068 52.0369 68.706 48.7862C63.3945 44.8612 58.1428 42.7954 52.6535 42.4727C48.2939 42.2158 43.9202 43.0835 39.6445 45.0479C38.7125 45.4783 37.8345 45.9469 37.0177 46.4497ZM21.3948 30.9009C19.3275 32.1701 17.9151 33.8265 17.3404 35.6963C16.521 38.3998 17.5718 41.1477 20.2644 43.343C22.1853 44.8992 24.3338 45.754 26.8355 45.9591C30.8981 46.2919 34.3499 44.809 38.0048 43.2407C38.39 43.0751 38.78 42.9066 39.1795 42.7378C40.0257 42.3788 40.9328 42.0347 41.8131 41.7014C45.1074 40.4514 48.5167 39.1588 49.1156 36.8916C49.5185 35.3754 48.4987 33.8444 46.0139 32.2052C43.1422 30.3165 39.3318 29.0116 35.2827 28.5306C30.9256 28.0129 26.7084 28.4915 23.4097 29.8748C22.6844 30.1795 22.0096 30.5232 21.3948 30.9009ZM90.7541 31.3729C89.9397 31.8762 89.1885 32.4122 88.5066 32.9766C85.3691 35.5559 84.1421 38.1285 84.8634 40.6245C85.7645 43.7641 89.6609 46.6601 96.7909 49.4705C102.696 51.8035 109.633 53.5473 115.82 54.2553C125.7 55.3868 130.586 53.6356 132.952 51.9625C135.69 50.0241 136.831 47.609 136.249 44.9751C135.255 40.4779 129.426 35.9158 119.837 32.1294C113.361 29.5741 108.097 28.337 103.279 28.2422C98.4606 28.1475 94.2923 29.2007 90.7541 31.3729ZM62.8717 23.3505C62.2582 23.7272 61.7072 24.1361 61.2263 24.5714C59.0338 26.5594 58.4686 29.0168 59.6412 31.4896C60.7263 33.7902 63.2222 35.9022 66.6698 37.4373C69.6649 38.7707 72.3699 39.2596 74.9749 38.9311C78.8594 38.444 80.885 36.4018 82.8409 34.4266C83.3644 33.9 83.9033 33.3564 84.4702 32.8461L85.2656 32.1394C87.7546 29.9377 90.1086 27.86 89.2759 25.5405C88.7649 24.1133 87.1483 22.9282 84.3386 21.9214C80.3716 20.5078 75.5499 20.0741 70.9219 20.7146C67.7094 21.1679 64.9327 22.0852 62.8717 23.3505Z" fill="#6425FE" fill-opacity="0.38"/>
</svg>
