<svg width="71" height="52" viewBox="0 0 71 52" fill="none" xmlns="http://www.w3.org/2000/svg">
<path d="M19.7676 20.8414C18.4633 19.552 18.0415 18.328 18.515 17.1938C18.9884 16.0596 20.3495 15.0274 22.7853 13.976C26.3754 12.4269 30.2229 11.9334 33.6184 12.5864C35.618 12.9708 37.3163 13.729 38.5287 14.7793C39.5678 15.6782 40.4536 17.2047 38.7785 19.3726C37.7295 20.7301 35.8547 22.0575 33.6353 23.0146C30.9564 24.1705 28.4898 24.5325 26.0957 24.1208C24.1943 23.794 22.3997 22.982 20.7572 21.708C20.3994 21.4293 20.0686 21.1397 19.7676 20.8414ZM11.4866 25.9639C10.7245 25.2106 10.283 24.3562 10.2233 23.4942C10.1419 22.2488 10.8696 21.172 12.2483 20.4976C13.2308 20.0208 14.2409 19.8685 15.3377 20.0312C17.119 20.2955 18.4553 21.2797 19.8704 22.321C20.0196 22.4309 20.1705 22.5425 20.3254 22.6552C20.6535 22.8946 21.0092 23.1336 21.3545 23.3653C22.6464 24.2335 23.9836 25.1316 24.0138 26.1671C24.0351 26.8598 23.4428 27.4162 22.2093 27.8722C20.7844 28.3967 19.0141 28.5759 17.2238 28.3767C15.2974 28.1624 13.531 27.5335 12.2506 26.6075C11.9691 26.4037 11.7132 26.1881 11.4866 25.9639ZM41.3744 32.7179C41.0745 32.4196 40.8051 32.1137 40.5683 31.8025C39.4772 30.3781 39.2073 29.1482 39.768 28.1467C40.4706 26.8863 42.4374 26.0312 45.7869 25.5372C48.5613 25.1258 51.7208 25.0714 54.4537 25.3874C58.8177 25.8915 60.7442 27.135 61.5945 28.0922C62.578 29.2008 62.8265 30.3542 62.312 31.429C61.4335 33.2643 58.4677 34.6423 53.9625 35.3095C50.9202 35.7593 48.5313 35.7635 46.4489 35.321C44.3665 34.8785 42.6788 34.0073 41.3744 32.7179ZM28.5739 33.3727C28.3477 33.1491 28.1517 32.9179 27.9885 32.6823C27.2446 31.6071 27.2479 30.4932 28.0004 29.5469C28.698 28.666 29.9837 28.0077 31.6209 27.693C33.0432 27.4198 34.256 27.4808 35.3438 27.8834C36.9662 28.4826 37.6328 29.5644 38.2762 30.6103C38.4486 30.8894 38.6259 31.1773 38.8186 31.4538L39.09 31.8376C39.94 33.0345 40.7444 34.1645 40.1535 35.0789C39.7904 35.6416 38.976 35.9893 37.6663 36.1407C35.8177 36.351 33.6998 36.0539 31.7729 35.3141C30.4363 34.7969 29.3337 34.1237 28.5739 33.3727Z" fill="#6425FE" fill-opacity="0.38"/>
</svg>
