<svg width="113" height="96" viewBox="0 0 113 96" fill="none" xmlns="http://www.w3.org/2000/svg">
<path d="M35.0117 35.2504C33.5209 32.8307 33.3349 30.8334 34.4637 29.2995C35.5925 27.7656 38.0201 26.7108 42.0729 26.0213C48.046 25.0059 54.0195 25.6741 58.8919 27.9026C61.7614 29.2147 64.0402 30.9792 65.4801 33.0051C66.7149 34.7395 67.4885 37.3626 64.1714 40.0119C62.0943 41.6709 58.7849 42.9817 55.0925 43.6086C50.6355 44.3662 46.7892 44.0066 43.3359 42.5086C40.5932 41.3192 38.1892 39.4385 36.1836 36.918C35.7472 36.3673 35.3555 35.8099 35.0117 35.2504ZM20.6657 39.9251C19.7947 38.5114 19.4433 37.0633 19.6697 35.7435C20.0039 33.8388 21.4944 32.4845 23.8173 31.9749C25.4714 31.6174 27.048 31.7586 28.6397 32.4058C31.2244 33.4571 32.8753 35.429 34.6238 37.5157C34.808 37.7359 34.9943 37.9593 35.1862 38.1857C35.5923 38.6664 36.0402 39.1567 36.475 39.6322C38.1016 41.4131 39.7853 43.2556 39.4511 44.8257C39.229 45.8764 38.1332 46.4968 36.109 46.7309C33.7713 46.9979 31.0405 46.6184 28.4182 45.6619C25.5965 44.6327 23.1679 43.038 21.5798 41.1743C21.2308 40.7641 20.9247 40.3458 20.6657 39.9251ZM63.1849 61.0555C62.8428 60.4965 62.5494 59.9371 62.3071 59.3817C61.1868 56.8371 61.2316 54.8865 62.4431 53.5843C63.9631 51.9445 67.2378 51.3785 72.4616 51.8633C76.7894 52.2616 81.5661 53.3385 85.5645 54.8165C91.9497 57.1762 94.3939 59.7549 95.323 61.5078C96.3971 63.5376 96.3482 65.3652 95.1793 66.7946C93.1836 69.2353 88.2132 70.2221 81.1859 69.5742C76.4407 69.1356 72.8426 68.2658 69.8698 66.8358C66.897 65.4058 64.6757 63.4752 63.1849 61.0555ZM43.6734 57.3463C43.415 56.9267 43.2046 56.5068 43.0453 56.0923C42.3197 54.2007 42.7333 52.5249 44.2132 51.3763C45.5866 50.3058 47.7636 49.7864 50.3439 49.9132C52.5855 50.0235 54.389 50.5601 55.879 51.5652C58.1017 53.0624 58.7085 54.9356 59.2935 56.7462C59.4507 57.2296 59.6121 57.7281 59.8008 58.215L60.0685 58.8923C60.9092 61.006 61.7057 63.0023 60.4808 64.1622C59.7278 64.8762 58.3742 65.101 56.3468 64.8485C53.4867 64.4871 50.4071 63.2631 47.7775 61.4426C45.9549 60.1736 44.5418 58.7557 43.6734 57.3463Z" fill="#6425FE" fill-opacity="0.38"/>
</svg>
