<svg width="113" height="94" viewBox="0 0 113 94" fill="none" xmlns="http://www.w3.org/2000/svg">
<path d="M34.4697 35.2064C32.8732 32.8552 32.5988 30.868 33.6585 29.2856C34.7182 27.7032 37.0967 26.5419 41.115 25.6735C47.0372 24.3944 53.0344 24.7972 58.0008 26.8076C60.9256 27.9913 63.2803 29.6531 64.8086 31.6131C66.1191 33.2911 67.0081 35.8773 63.8118 38.6711C61.8102 40.4205 58.5621 41.8766 54.9011 42.6666C50.4821 43.621 46.6236 43.4321 43.1074 42.0886C40.3147 41.0219 37.8296 39.2496 35.7144 36.8205C35.2539 36.2896 34.8379 35.7501 34.4697 35.2064ZM20.3449 40.5123C19.4121 39.1385 18.9969 37.7074 19.1646 36.3789C19.4141 34.4613 20.8431 33.0423 23.1412 32.4302C24.7778 31.9997 26.3591 32.071 27.9779 32.647C30.6066 33.5827 32.3433 35.4795 34.1826 37.4867C34.3764 37.6985 34.5723 37.9134 34.7741 38.1311C35.2011 38.5933 35.6702 39.0633 36.1257 39.5191C37.8297 41.2262 39.5933 42.9922 39.329 44.5756C39.1537 45.635 38.0865 46.3034 36.0746 46.627C33.7511 46.9974 31.0061 46.7393 28.3441 45.8999C25.4795 44.9967 22.9826 43.5112 21.3135 41.7197C20.9467 41.3254 20.6223 40.921 20.3449 40.5123ZM63.7587 59.7377C63.3921 59.1944 63.0742 58.6485 62.8076 58.1044C61.5756 55.6119 61.534 53.6613 62.6866 52.3068C64.1324 50.6012 67.3788 49.8906 72.619 50.1435C76.9602 50.3495 81.7799 51.2137 85.8398 52.5132C92.3234 54.5875 94.8794 57.0554 95.8853 58.7654C97.0483 60.7456 97.0804 62.5736 95.976 64.0534C94.0904 66.5802 89.1686 67.7863 82.1195 67.4504C77.3595 67.2225 73.7264 66.5129 70.6932 65.2161C67.6599 63.9192 65.3553 62.0889 63.7587 59.7377ZM44.102 56.8968C43.8252 56.4891 43.5965 56.0788 43.4189 55.6718C42.6102 53.8142 42.9492 52.1218 44.3768 50.9087C45.7014 49.7785 47.8532 49.163 50.4366 49.1754C52.6808 49.1862 54.5064 49.6424 56.0394 50.5805C58.3263 51.9777 59.0156 53.8221 59.6802 55.6051C59.8586 56.081 60.042 56.5719 60.2521 57.0499L60.5495 57.7147C61.4831 59.7891 62.3673 61.7481 61.1949 62.9611C60.4743 63.7079 59.132 63.9925 57.0954 63.83C54.2221 63.5957 51.0913 62.5093 48.3836 60.8072C46.5066 59.6202 45.032 58.2663 44.102 56.8968Z" fill="#6425FE" fill-opacity="0.38"/>
</svg>
