<svg width="99" height="58" viewBox="0 0 99 58" fill="none" xmlns="http://www.w3.org/2000/svg">
<path d="M73.952 30.3601C76.391 31.8191 77.4775 33.5054 77.1837 35.387C76.8899 37.2687 75.2227 39.3245 71.9451 41.806C67.1141 45.4625 61.506 47.6255 56.155 47.8962C53.0038 48.056 50.168 47.5417 47.9558 46.4087C46.0601 45.4396 44.1636 43.4692 45.8843 39.5883C46.9618 37.1581 49.2933 34.4684 52.28 32.2087C55.8848 29.4803 59.4633 28.0249 63.2181 27.7608C66.2002 27.5507 69.2008 28.1102 72.143 29.4212C72.7843 29.7085 73.3889 30.0223 73.952 30.3601ZM84.5235 19.5941C85.9484 20.4465 86.9283 21.5692 87.3364 22.8446C87.9185 24.6887 87.2209 26.5779 85.3951 28.1017C84.0925 29.182 82.6285 29.784 80.9178 29.9441C78.1396 30.2039 75.7652 29.216 73.2511 28.1713C72.9861 28.0609 72.7178 27.9487 72.443 27.8363C71.861 27.5972 71.2374 27.3688 70.6323 27.1476C68.3675 26.3179 66.0237 25.46 65.5959 23.9128C65.3082 22.8781 65.9942 21.8222 67.6821 20.6806C69.6329 19.3652 72.2308 18.442 74.9986 18.0809C77.9769 17.6922 80.8674 17.9867 83.1362 18.9075C83.635 19.1104 84.0996 19.3403 84.5235 19.5941ZM37.0512 20.4629C37.6126 20.801 38.131 21.162 38.6022 21.543C40.7701 23.2838 41.6302 25.035 41.1561 26.7492C40.5641 28.9053 37.9198 30.9183 33.0615 32.8981C29.038 34.5414 24.3033 35.7897 20.0739 36.323C13.3202 37.1753 9.96196 36.015 8.32892 34.8884C6.43953 33.5831 5.6398 31.939 6.01738 30.1315C6.66197 27.0454 10.6166 23.8768 17.1503 21.2096C21.5626 19.4095 25.1563 18.5213 28.4535 18.4186C31.7508 18.3158 34.6122 19.0039 37.0512 20.4629ZM56.0734 14.7522C56.4962 15.0052 56.8766 15.2808 57.2092 15.575C58.7256 16.9185 59.1318 18.5961 58.3487 20.298C57.624 21.8813 55.9322 23.3465 53.5844 24.4244C51.5448 25.3607 49.6971 25.7166 47.9114 25.5123C45.2487 25.2094 43.8461 23.8275 42.4918 22.4909C42.1293 22.1345 41.7561 21.7667 41.3641 21.4218L40.8141 20.9444C39.093 19.4569 37.4654 18.0533 38.0171 16.4591C38.3557 15.4781 39.4529 14.6542 41.3682 13.9429C44.0725 12.9441 47.3694 12.6093 50.5423 13.0113C52.7448 13.2963 54.6527 13.9023 56.0734 14.7522Z" fill="#6425FE" fill-opacity="0.38"/>
</svg>
