<svg width="108" height="77" viewBox="0 0 108 77" fill="none" xmlns="http://www.w3.org/2000/svg">
<path d="M30.2604 32.5189C28.1647 30.5992 27.4395 28.7289 28.1057 26.9447C28.772 25.1606 30.8186 23.4821 34.5283 21.7105C39.996 19.1003 45.9245 18.1094 51.2207 18.9204C54.3395 19.3977 57.014 20.4717 58.9531 22.0265C60.6152 23.3571 62.0766 25.6687 59.6106 29.1242C58.0663 31.288 55.2416 33.4539 51.8614 35.0667C47.7815 37.0144 43.9835 37.7203 40.2522 37.2238C37.2888 36.8299 34.462 35.6783 31.8437 33.8024C31.2732 33.392 30.744 32.963 30.2604 32.5189ZM17.7397 40.9388C16.5153 39.8172 15.7813 38.5204 15.638 37.189C15.4386 35.2656 16.502 33.5553 18.5969 32.4298C20.0902 31.6335 21.6453 31.3382 23.3533 31.5254C26.1269 31.8297 28.2542 33.275 30.5068 34.8039C30.7442 34.9653 30.9844 35.1293 31.231 35.2946C31.753 35.6459 32.3179 35.995 32.8662 36.3335C34.9179 37.6017 37.0413 38.9134 37.1491 40.515C37.2229 41.5864 36.3385 42.4828 34.4555 43.2616C32.28 44.1578 29.5495 44.5396 26.7656 44.3367C23.77 44.1185 20.9979 43.2487 18.9606 41.8904C18.5128 41.5913 18.1039 41.2726 17.7397 40.9388ZM64.4167 49.6353C63.9348 49.1912 63.4996 48.7333 63.1146 48.2653C61.3411 46.1241 60.8508 44.2356 61.66 42.6518C62.6736 40.6588 65.6687 39.2188 70.8259 38.2565C75.0976 37.456 79.9867 37.1855 84.2369 37.5137C91.024 38.0371 94.0803 39.8491 95.4534 41.2811C97.0416 42.9397 97.4943 44.711 96.761 46.4056C95.5089 49.2991 90.9978 51.6076 84.0612 52.9062C79.377 53.7821 75.6781 53.9295 72.4276 53.367C69.177 52.8045 66.5125 51.555 64.4167 49.6353ZM44.6347 51.4036C44.2714 51.0707 43.9542 50.7243 43.6876 50.3692C42.4723 48.7481 42.4118 47.0231 43.5212 45.5135C44.5495 44.1083 46.5015 43.0133 49.0181 42.4296C51.2043 41.9226 53.0859 41.9456 54.7939 42.5049C57.3413 43.3371 58.4374 44.9729 59.4952 46.5545C59.7786 46.9765 60.0702 47.4119 60.3848 47.8285L60.8276 48.4068C62.2143 50.21 63.5264 51.9124 62.6653 53.363C62.1364 54.2558 60.8959 54.8422 58.8767 55.1538C56.0268 55.5883 52.7298 55.2532 49.7026 54.2213C47.6025 53.4991 45.8555 52.5218 44.6347 51.4036Z" fill="#6425FE" fill-opacity="0.38"/>
</svg>
