<svg width="106" height="72" viewBox="0 0 106 72" fill="none" xmlns="http://www.w3.org/2000/svg">
<path d="M76.9323 40.6306C79.1341 42.4277 79.9647 44.2536 79.4013 46.0729C78.8379 47.8921 76.8903 49.6845 73.2876 51.6648C67.9777 54.5826 62.1154 55.91 56.7816 55.4023C53.6405 55.1036 50.9092 54.1838 48.8846 52.7421C47.1494 51.5085 45.5585 49.284 47.8234 45.6935C49.2418 43.4452 51.9384 41.1217 55.2211 39.3188C59.1833 37.1416 62.9349 36.2202 66.6884 36.5031C69.6695 36.7274 72.5573 37.7159 75.2784 39.4394C75.8713 39.8166 76.4241 40.2148 76.9323 40.6306ZM88.9524 31.5104C90.2388 32.5604 91.0456 33.8132 91.2645 35.1343C91.5733 37.0432 90.6092 38.8114 88.5818 40.0545C87.1364 40.9346 85.6007 41.3181 83.8848 41.2286C81.0983 41.083 78.8921 39.7614 76.556 38.3633C76.3098 38.2158 76.0606 38.0658 75.805 37.9148C75.2638 37.5938 74.6799 37.2775 74.1132 36.9709C71.9925 35.8217 69.7978 34.6332 69.5988 33.0403C69.4641 31.9749 70.2959 31.0295 72.1314 30.1446C74.2522 29.1258 76.9565 28.5889 79.7474 28.6327C82.7507 28.6798 85.5679 29.3901 87.6793 30.63C88.1435 30.9031 88.5698 31.1979 88.9524 31.5104ZM41.8555 25.4899C42.3619 25.9057 42.8226 26.3381 43.2336 26.7833C45.1263 28.8199 45.7235 30.6773 45.0059 32.3047C44.1077 34.3523 41.1996 35.9607 36.1056 37.2156C31.8865 38.2584 27.0208 38.8073 22.7588 38.7219C15.9528 38.5864 12.7983 36.9517 11.3457 35.6003C9.66548 34.035 9.11248 32.2923 9.74802 30.5587C10.8331 27.5985 15.2052 25.0365 22.0564 23.3444C26.6831 22.2028 30.3675 21.8448 33.6448 22.221C36.9222 22.5972 39.6537 23.6928 41.8555 25.4899ZM61.5044 22.5964C61.8862 22.908 62.2226 23.2358 62.509 23.5751C63.8148 25.1242 63.9735 26.8429 62.952 28.4133C62.0055 29.8749 60.1192 31.0795 57.64 31.8057C55.4862 32.4365 53.6064 32.5209 51.8692 32.0599C49.2785 31.3743 48.091 29.8037 46.9447 28.2849C46.6377 27.8798 46.3218 27.4618 45.9838 27.0637L45.5088 26.5116C44.0215 24.7904 42.6145 23.1657 43.3914 21.6683C43.8686 20.7468 45.0737 20.0906 47.0718 19.6644C49.8923 19.068 53.203 19.2146 56.2841 20.0722C58.422 20.6734 60.2219 21.5496 61.5044 22.5964Z" fill="#6425FE" fill-opacity="0.38"/>
</svg>
