<svg width="270" height="365" viewBox="0 0 270 365" fill="none" xmlns="http://www.w3.org/2000/svg">
<path d="M6.49613 229.696C6.49613 229.696 14.4493 226.632 15.7699 219.016C15.7699 219.016 11.1773 218.592 6.42116 226.081L6.49613 229.696Z" fill="#DCAF54"/>
<path d="M6.08498 231.18C6.08498 231.18 -1.28136 228.059 -2.66643 220.756C-2.66643 220.756 1.34917 220.497 6.03846 227.556L6.08498 231.18Z" fill="#DCAF54"/>
<path d="M9.68651 56.5313C9.68651 56.5313 15.2585 59.808 22.448 45.7255C22.448 45.7255 18.732 42.847 13.993 46.2276C9.2541 49.6081 9.49876 53.0538 9.68651 56.5313Z" fill="#DCAF54"/>
<path d="M6.58797 242.844C6.58797 242.844 1.11699 247.166 -6.86657 234.185C-6.86657 234.185 -3.2698 231.23 1.72048 233.776C6.71075 236.322 6.6019 239.269 6.58797 242.844Z" fill="#DCAF54"/>
<path d="M9.59825 69.8801C9.59825 69.8801 17.8609 76.4791 25.5297 63.5731C25.5297 63.5731 17.9952 56.9266 8.69401 65.7496L9.59825 69.8801Z" fill="#DCAF54"/>
<path d="M13.6815 84.9538C13.6815 84.9538 25.257 90.4689 30.7097 75.7066C30.7097 75.7066 22.1157 69.1803 12.6926 80.7517L13.6815 84.9538Z" fill="#DCAF54"/>
<path d="M21.533 97.8578C21.533 97.8578 33.764 101.974 39.9235 87.0986C39.9235 87.0986 28.6376 83.8898 20.4522 95.973L21.533 97.8578Z" fill="#DCAF54"/>
<path d="M26.6694 111.946C26.6694 111.946 39.0224 116.325 44.2476 101.853C44.2476 101.853 31.7287 99.2044 25.4687 109.984L26.6694 111.946Z" fill="#DCAF54"/>
<path d="M36.034 122.25C36.034 122.25 50.1466 128.859 55.3889 115.679C55.3889 115.679 41.6433 111.063 34.9294 120.35L36.034 122.25Z" fill="#DCAF54"/>
<path d="M43.1525 133.326C43.1525 133.326 58.4285 140.011 62.6067 125.63C62.6067 125.63 46.902 121.547 41.9844 131.385L43.1525 133.326Z" fill="#DCAF54"/>
<path d="M52.5474 143.649C52.5474 143.649 68.3826 148.62 74.1186 139.694C74.1186 139.694 57.5994 134.399 50.5658 141.185L52.5474 143.649Z" fill="#DCAF54"/>
<path d="M62.8599 152.563C62.8599 152.563 81.574 158.735 85.5377 150.509C85.5377 150.509 71.1739 145.78 60.3429 150.943L62.8599 152.563Z" fill="#DCAF54"/>
<path d="M74.7065 162.108C74.7065 162.108 90.6267 166.996 96.0364 160.376C96.0364 160.376 81.1448 154.633 71.3429 159.943L74.7065 162.108Z" fill="#DCAF54"/>
<path d="M86.5474 171.649C86.5474 171.649 102.808 174.884 106.495 170.217C106.495 170.217 92.3844 163.506 84.5658 169.185L86.5474 171.649Z" fill="#DCAF54"/>
<path d="M97.0247 180.026C97.0247 180.026 113.438 186.631 117.872 182.74C117.872 182.74 106.244 175.103 96.7249 178.644L97.0247 180.026Z" fill="#DCAF54"/>
<path d="M110.547 192.649C110.547 192.649 124.063 197.105 128.331 194.58C128.331 194.58 114.773 186.391 108.566 190.185L110.547 192.649Z" fill="#DCAF54"/>
<path d="M118.865 200.695L138.002 215.308C138.002 215.308 127.988 198.216 116.024 197.718L118.865 200.695Z" fill="#DCAF54"/>
<path d="M133.345 219.311C133.345 219.311 145.04 234.522 145.002 236.308C145.002 236.308 142.483 219.689 129.619 212.166L133.345 219.311Z" fill="#DCAF54"/>
<path d="M9.41118 255.883C9.41118 255.883 4.31243 265.553 -8.55014 256.163C-8.55014 256.163 -4.15664 246.89 8.5126 251.752L9.41118 255.883Z" fill="#DCAF54"/>
<path d="M13.971 272.032C13.971 272.032 6.76279 282.271 -5.33435 272.553C-5.33435 272.553 -0.711965 262.533 13.0621 267.917L13.971 272.032Z" fill="#DCAF54"/>
<path d="M19.3656 97.7401C19.3656 97.7401 17.6574 110.967 1.48496 108.827C1.48496 108.827 3.63334 97.1335 18.2179 95.8123L19.3656 97.7401Z" fill="#DCAF54"/>
<path d="M26.3006 110.698C26.3006 110.698 24.3587 124.216 9.27909 122.338C9.27909 122.338 12.7663 109.375 25.1566 108.772L26.3006 110.698Z" fill="#DCAF54"/>
<path d="M32.7793 121.886C32.7793 121.886 36.2667 137.653 21.1122 138.162C21.1122 138.162 20.2464 123.418 31.6306 119.958L32.7793 121.886Z" fill="#DCAF54"/>
<path d="M43.5646 134.392C43.5646 134.392 45.7407 149.359 31.0648 150.131C31.0648 150.131 31.0098 134.353 41.5893 131.931L43.5646 134.392Z" fill="#DCAF54"/>
<path d="M53.6858 142.608C53.6858 142.608 60.237 158.176 51.4796 164.972C51.4796 164.972 44.714 148.854 51.101 140.944L53.6858 142.608Z" fill="#DCAF54"/>
<path d="M64.9103 152.557C64.9103 152.557 73.7684 169.916 66.668 175.093C66.668 175.093 59.2106 162.149 62.4465 150.971L64.9103 152.557Z" fill="#DCAF54"/>
<path d="M75.609 162.65C75.609 162.65 82.0745 178.222 75.8339 184.2C75.8339 184.2 68.2564 169.903 72.8285 159.671L75.609 162.65Z" fill="#DCAF54"/>
<path d="M86.4227 171.258C86.4227 171.258 95.0911 185.663 92.0017 190.308C92.0017 190.308 81.2803 178.385 83.9 169.635L86.4227 171.258Z" fill="#DCAF54"/>
<path d="M96.1229 179.876C96.1229 179.876 105.282 195.573 102 200.307C102 200.307 93.0729 189.059 95.282 179.335L96.1229 179.876Z" fill="#DCAF54"/>
<path d="M110.181 190.481C110.181 190.481 117.549 202.605 116.002 207.308C116.002 207.308 104.777 196.569 107.118 189.699L110.181 190.481Z" fill="#DCAF54"/>
<path d="M119.6 201.252L128.002 223.308C128.002 223.308 113.913 209.33 117.319 197.406L119.6 201.252Z" fill="#DCAF54"/>
<path d="M130.569 221.359C130.569 221.359 130.893 239.827 132.002 241.308C132.002 241.308 124.018 226.199 130.152 212.766L130.569 221.359Z" fill="#DCAF54"/>
<path d="M134.993 224.307C134.993 224.307 138.575 248.661 136.001 252.307C136.001 252.307 143.8 240.156 135.834 224.848L134.993 224.307Z" fill="#DCAF54"/>
<path d="M108.501 189.582L107.96 190.423C127.178 207.944 136.762 220.179 135.161 225.767L136.002 226.308C137.703 220.399 128.218 207.547 108.501 189.582Z" fill="#444053"/>
<path d="M59.5127 149.945L58.9716 150.786C60.8448 152.339 62.3486 153.914 64.3168 155.415C81.445 168.488 97.0733 180.758 108.161 190.767L109.543 190.467C98.437 180.438 82.0098 167.67 64.8579 154.574C62.9005 153.08 61.3805 151.495 59.5127 149.945Z" fill="#444053"/>
<path d="M6.74527 22.2553C6.71108 22.439 2.68147 40.6577 7.44716 65.5178C10.2334 80.0734 15.932 94.7278 23.1099 107.706C32.0823 123.927 45.6678 139.552 61.002 152.308L61.5431 151.467C27.1207 122.837 13.21 87.9103 8.82918 65.2181C4.09605 40.5923 7.55352 22.9659 7.58618 22.7964L6.74527 22.2553Z" fill="#444053"/>
<g opacity="0.7">
<path opacity="0.7" d="M54.0553 44.81C54.0553 44.81 60.7575 40.0309 59.5892 32.6604C59.5892 32.6604 54.8192 33.3849 52.7317 41.5611L54.0553 44.81Z" fill="#DCAF54"/>
<path opacity="0.7" d="M54.0153 45.5304C54.0153 45.5304 45.8371 45.0061 41.8517 38.9303C41.8517 38.9303 45.7385 36.9661 52.6059 42.2342L54.0153 45.5304Z" fill="#DCAF54"/>
<path opacity="0.7" d="M59.4257 54.8193C59.4257 54.8193 65.913 56.278 68.2508 41.0758C68.2508 41.0758 63.9178 40.0457 60.3329 44.5124C56.7481 48.9791 58.0493 51.5885 59.4257 54.8193Z" fill="#DCAF54"/>
<path opacity="0.7" d="M57.6954 56.7661C57.6954 56.7661 53.7096 62.3959 41.7599 52.6203C41.7599 52.6203 44.0624 48.2436 49.7159 49.2528C55.3693 50.2621 56.5469 53.4822 57.6954 56.7661Z" fill="#DCAF54"/>
<path opacity="0.7" d="M65.9587 67.6404C65.9587 67.6404 75.7804 71.5072 79.5231 56.817C79.5231 56.817 70.2291 52.5394 63.9305 63.9199L65.9587 67.6404Z" fill="#DCAF54"/>
<path opacity="0.7" d="M73.5246 80.9965C73.5246 80.9965 85.6039 82.3499 87.1421 66.6877C87.1421 66.6877 78.7181 64.1812 73.0506 78.278L73.5246 80.9965Z" fill="#DCAF54"/>
<path opacity="0.7" d="M83.8648 91.2304C83.8648 91.2304 96.4647 91.409 97.3319 75.5976C97.3319 75.5976 85.4116 76.0621 81.4293 89.6839L83.8648 91.2304Z" fill="#DCAF54"/>
<path opacity="0.7" d="M93.1667 101.786C93.1667 101.786 106.699 102.317 107.483 86.6933C107.483 86.6933 94.3127 88.3697 91.5232 100.742L93.1667 101.786Z" fill="#DCAF54"/>
<path opacity="0.7" d="M103.797 110.298C103.797 110.298 119.503 112.266 120.661 97.9281C120.661 97.9281 105.265 97.7619 101.418 108.785L103.797 110.298Z" fill="#DCAF54"/>
<path opacity="0.7" d="M116.211 119.554C116.211 119.554 132.06 121.141 132.33 106.739C132.33 106.739 116.596 108.01 114.608 118.535L116.211 119.554Z" fill="#DCAF54"/>
<path opacity="0.7" d="M125.974 125.15C125.974 125.15 143.017 125.247 145.738 114.574C145.738 114.574 128.171 114.642 123.459 123.549L125.974 125.15Z" fill="#DCAF54"/>
<path opacity="0.7" d="M138.268 131.063C138.268 131.063 158.125 131.198 159.162 122.365C159.162 122.365 144.507 121.742 135.756 129.464L138.268 131.063Z" fill="#DCAF54"/>
<path opacity="0.7" d="M155.552 136.66C155.552 136.66 172.319 136.705 175.539 128.606C175.539 128.606 159.54 127.244 151.754 135.464L155.552 136.66Z" fill="#DCAF54"/>
<path opacity="0.7" d="M169.035 141.53C169.035 141.53 186.409 139.871 188.519 134.361C188.519 134.361 172.417 132.306 166.594 139.975L169.035 141.53Z" fill="#DCAF54"/>
<path opacity="0.7" d="M181.575 146.945C181.575 146.945 199.341 148.231 202.506 143.095C202.506 143.095 188.884 140.004 180.756 146.422L181.575 146.945Z" fill="#DCAF54"/>
<path opacity="0.7" d="M198.042 154.493C198.042 154.493 212.069 154.547 215.434 150.809C215.434 150.809 199.6 146.84 194.755 152.396L198.042 154.493Z" fill="#DCAF54"/>
<path opacity="0.7" d="M207.845 159.491L230.707 167.765C230.707 167.765 216.367 153.412 204.515 157.355L207.845 159.491Z" fill="#DCAF54"/>
<path opacity="0.7" d="M229.265 173.894C229.265 173.894 244.271 184.699 244.848 186.308C244.848 186.308 237.523 171.632 223.685 167.902L229.265 173.894Z" fill="#DCAF54"/>
<path opacity="0.7" d="M64.1436 67.5346C64.1436 67.5346 63.6644 78.7417 47.8453 73.0275C47.8453 73.0275 48.7262 62.8649 62.7792 64.2254L64.1436 67.5346Z" fill="#DCAF54"/>
<path opacity="0.7" d="M74.8011 82.1826C74.8011 82.1826 70.8173 94.107 55.9337 88.4663C55.9337 88.4663 57.4333 77.5061 72.6678 78.3861L74.8011 82.1826Z" fill="#DCAF54"/>
<path opacity="0.7" d="M83.9736 90.8173C83.9736 90.8173 85.3016 103.947 69.1634 106.789C69.1634 106.789 67.9695 94.9666 81.5484 89.2777L83.9736 90.8173Z" fill="#DCAF54"/>
<path opacity="0.7" d="M94.1893 101.532C94.1893 101.532 95.8018 114.648 80.7443 117.143C80.7443 117.143 80.866 104.547 92.5698 100.503L94.1893 101.532Z" fill="#DCAF54"/>
<path opacity="0.7" d="M103.656 109.769C103.656 109.769 110.737 123.775 97.2354 128.749C97.2354 128.749 91.952 114.877 101.201 108.209L103.656 109.769Z" fill="#DCAF54"/>
<path opacity="0.7" d="M117.325 119.003C117.325 119.003 123.996 133.196 110.257 138.767C110.257 138.767 105.519 123.26 114.932 117.482L117.325 119.003Z" fill="#DCAF54"/>
<path opacity="0.7" d="M128.918 123.842C128.918 123.842 139.687 136.446 133.664 145.305C133.664 145.305 122.338 132.342 125.899 123.146L128.918 123.842Z" fill="#DCAF54"/>
<path opacity="0.7" d="M141.322 129.904C141.322 129.904 155.312 143.843 149.666 151.296C149.666 151.296 138.502 141.394 138.293 129.206L141.322 129.904Z" fill="#DCAF54"/>
<path opacity="0.7" d="M156.53 135.126C156.53 135.126 167.049 148.321 162.672 156.308C162.672 156.308 151.705 144.654 153.241 133.027L156.53 135.126Z" fill="#DCAF54"/>
<path opacity="0.7" d="M169.564 141.164C169.564 141.164 182.398 152.751 180.789 158.299C180.789 158.299 167.337 150.393 167.345 140.988L169.564 141.164Z" fill="#DCAF54"/>
<path opacity="0.7" d="M182.129 146.331C182.129 146.331 194.597 158.568 192.766 164.308C192.766 164.308 181.212 156.936 180.74 146.684L182.129 146.331Z" fill="#DCAF54"/>
<path opacity="0.7" d="M197.114 152.938C197.114 152.938 207.758 162.458 207.845 167.285C207.845 167.285 194.106 159.336 194.062 152.228L197.114 152.938Z" fill="#DCAF54"/>
<path opacity="0.7" d="M207.811 160.305L223.823 179.226C223.823 179.226 205.742 169.554 205.049 157.298L207.811 160.305Z" fill="#DCAF54"/>
<path opacity="0.7" d="M226.636 176.292C226.636 176.292 232.181 193.278 233.631 194.308C233.631 194.308 221.929 182.558 223.68 168.246L226.636 176.292Z" fill="#DCAF54"/>
<path opacity="0.7" d="M230.673 178.276C230.673 178.276 241.973 200.005 240.615 204.308C240.615 204.308 244.479 190.293 232.053 177.926L230.673 178.276Z" fill="#DCAF54"/>
<path opacity="0.7" d="M195.081 151.918L194.515 152.809C218.291 163.541 231.025 172.68 231.004 178.77L231.84 179.308C231.855 172.843 219.438 162.907 195.081 151.918Z" fill="#444053"/>
<path opacity="0.7" d="M136.88 128.189L136.312 129.083C138.567 130.01 141.213 131.614 143.545 132.467C163.801 139.861 181.48 146.64 195.052 152.935L196.453 152.576C182.834 146.258 163.563 138.45 143.28 131.038C140.991 130.213 139.148 129.131 136.88 128.189Z" fill="#444053"/>
<path opacity="0.7" d="M48.447 23.3898C48.4678 23.5732 50.8527 42.4246 62.829 64.9793C69.8421 78.1694 78.452 90.2492 89.213 100.555C102.662 113.441 121.013 123.97 139.539 131.535L139.273 130.12C97.6969 113.119 74.3525 84.6692 63.3923 64.0946C51.5042 41.7973 49.857 23.2251 49.8397 23.0362L48.447 23.3898Z" fill="#444053"/>
</g>
</svg>
