<svg width="376" height="188" viewBox="0 0 376 188" fill="none" xmlns="http://www.w3.org/2000/svg">
<g opacity="0.7">
<g opacity="0.7">
<path opacity="0.7" d="M21.1368 94.0749C21.1368 94.0749 23.6855 105.184 14.0949 111.466C14.0949 111.466 10.4611 107.288 16.9682 97.1022L21.1368 94.0749Z" fill="#DCAF54"/>
<path opacity="0.7" d="M21.5707 91.9867C21.5707 91.9867 12.2813 86.3166 2.1017 88.9049C2.1017 88.9049 4.92459 94.0967 17.2898 95.0208L21.5707 91.9867Z" fill="#DCAF54"/>
<path opacity="0.7" d="M36.9056 86.5296C36.9056 86.5296 44.0369 90.7436 32.5418 108.101C32.5418 108.101 26.983 105.687 27.7575 98.0479C28.532 90.4092 32.7801 88.5774 36.9056 86.5296Z" fill="#DCAF54"/>
<path opacity="0.7" d="M38.349 84.8666C38.349 84.8666 39.9252 75.1083 18.7739 74.3248C18.7739 74.3248 17.3957 80.3607 23.9223 84.4698C30.4488 88.5788 34.0595 87.2151 38.349 84.8666Z" fill="#DCAF54"/>
<path opacity="0.7" d="M56.5636 80.9279C56.5636 80.9279 69.1766 85.8961 58.5097 105.403C58.5097 105.403 45.8652 102.054 50.7857 83.723L56.5636 80.9279Z" fill="#DCAF54"/>
<path opacity="0.7" d="M75.3635 74.5094C75.3635 74.5094 92.8783 84.9858 76.886 102.675C76.886 102.675 58.9071 95.274 67.9305 75.1882L75.3635 74.5094Z" fill="#DCAF54"/>
<path opacity="0.7" d="M99.3666 72.9701C99.3666 72.9701 113.375 84.8371 98.6026 102.548C98.6026 102.548 86.552 90.7371 95.9975 72.4264L99.3666 72.9701Z" fill="#DCAF54"/>
<path opacity="0.7" d="M117.857 69.8548C117.857 69.8548 131.669 81.365 117.472 97.6489C117.472 97.6489 105.386 84.1388 114.465 69.3092L117.857 69.8548Z" fill="#DCAF54"/>
<path opacity="0.7" d="M134.122 70.6236C134.122 70.6236 152.628 82.6119 139.289 97.4993C139.289 97.4993 123.664 84.158 130.675 70.0757L134.122 70.6236Z" fill="#DCAF54"/>
<path opacity="0.7" d="M156.619 74.5394C156.619 74.5394 175.064 87.748 159.714 102.932C159.714 102.932 144.047 86.7982 153.17 73.9899L156.619 74.5394Z" fill="#DCAF54"/>
<path opacity="0.7" d="M177.918 80.3935C177.918 80.3935 192.563 95.6773 185.62 109.536C185.62 109.536 169.133 93.358 172.949 79.6051L177.918 80.3935Z" fill="#DCAF54"/>
<path opacity="0.7" d="M195.506 85.6497C195.506 85.6497 215.739 103.688 208.732 113.853C208.732 113.853 192.908 101.021 192.152 85.1208L195.506 85.6497Z" fill="#DCAF54"/>
<path opacity="0.7" d="M214.016 93.7526C214.016 93.7526 230.958 108.629 226.29 119.94C226.29 119.94 209.017 106.741 209.251 91.1359L214.016 93.7526Z" fill="#DCAF54"/>
<path opacity="0.7" d="M232.585 100.302C232.585 100.302 248.491 117.367 245.32 124.711C245.32 124.711 227.561 112.531 229.141 99.7594L232.585 100.302Z" fill="#DCAF54"/>
<path opacity="0.7" d="M251.278 107.558C251.278 107.558 269.858 122.491 268 130.761C268 130.761 251.384 121.457 249.541 107.285L251.278 107.558Z" fill="#DCAF54"/>
<path opacity="0.7" d="M275.194 115.324C275.194 115.324 289.483 127.723 289.256 134.41C289.256 134.41 269.461 124.303 269.956 114.503L275.194 115.324Z" fill="#DCAF54"/>
<path opacity="0.7" d="M289.248 119.433L321.367 132.409C321.367 132.409 292.047 134.948 283.93 118.586L289.248 119.433Z" fill="#DCAF54"/>
<path opacity="0.7" d="M322.425 124.425C322.425 124.425 349.36 126.576 351.582 125.306C351.582 125.306 329.33 134.199 311.398 124.554L322.425 124.425Z" fill="#DCAF54"/>
<path opacity="0.7" d="M56.0269 81.2751C56.0269 81.2751 64.806 67.4825 44.6797 58.9818C44.6797 58.9818 36.1255 70.7282 50.5096 82.2663L56.0269 81.2751Z" fill="#DCAF54"/>
<path opacity="0.7" d="M77.7957 75.4324C77.7957 75.4324 86.3546 58.8974 65.0276 51.0484C65.0276 51.0484 55.3332 63.4424 72.2543 76.4204L77.7957 75.4324Z" fill="#DCAF54"/>
<path opacity="0.7" d="M96.1988 72.768C96.1988 72.768 109.03 60.4798 96.9402 43.2103C96.9402 43.2103 85.6472 54.3191 92.8381 72.2226L96.1988 72.768Z" fill="#DCAF54"/>
<path opacity="0.7" d="M117.96 70.8256C117.96 70.8256 131.034 58.0847 118.696 41.2671C118.696 41.2671 107.039 54.9508 114.595 70.2796L117.96 70.8256Z" fill="#DCAF54"/>
<path opacity="0.7" d="M136.021 72.87C136.021 72.87 156.739 64.6932 148.395 46.9718C148.395 46.9718 129.997 56.7394 132.585 72.3206L136.021 72.87Z" fill="#DCAF54"/>
<path opacity="0.7" d="M157.952 76.702C157.952 76.702 178.335 68.5231 170.158 50.7767C170.158 50.7767 150.857 62.0512 154.601 76.1661L157.952 76.702Z" fill="#DCAF54"/>
<path opacity="0.7" d="M175.297 81.0795C175.297 81.0795 198.003 77.6516 200.689 62.5986C200.689 62.5986 176.022 65.3494 170.454 78.4476L175.297 81.0795Z" fill="#DCAF54"/>
<path opacity="0.7" d="M192.263 86.1968C192.263 86.1968 220.723 84.7977 222.294 72.1C222.294 72.1 200.934 73.4457 188.764 85.6482L192.263 86.1968Z" fill="#DCAF54"/>
<path opacity="0.7" d="M214.609 93.3686C214.609 93.3686 237.934 89.9689 241.133 78.7383C241.133 78.7383 218.91 80.3223 209.36 92.5462L214.609 93.3686Z" fill="#DCAF54"/>
<path opacity="0.7" d="M233.381 102.275C233.381 102.275 256.626 102.072 260.345 95.1909C260.345 95.1909 239.274 90.6345 230.232 99.8909L233.381 102.275Z" fill="#DCAF54"/>
<path opacity="0.7" d="M250.706 108.706C250.706 108.706 275.906 107.615 279.764 100.042C279.764 100.042 259.797 98.3578 248.946 108.43L250.706 108.706Z" fill="#DCAF54"/>
<path opacity="0.7" d="M272.494 115.692C272.494 115.692 292.335 115.392 297.358 110.181C297.358 110.181 274.879 105.272 267.569 113.026L272.494 115.692Z" fill="#DCAF54"/>
<path opacity="0.7" d="M291.076 118.135L324.8 114.051C324.8 114.051 297.725 107.577 285.392 119.12L291.076 118.135Z" fill="#DCAF54"/>
<path opacity="0.7" d="M324.09 120.216C324.09 120.216 347.645 107.167 350.158 107.431C350.158 107.431 326.424 109.005 313.86 126.111L324.09 120.216Z" fill="#DCAF54"/>
<path opacity="0.7" d="M327.127 121.171C327.127 121.171 360.57 108.064 363.426 102.491C363.426 102.491 353.924 120.198 328.872 121.445L327.127 121.171Z" fill="#DCAF54"/>
<path opacity="0.7" d="M269.038 114.315V114.315C304.043 126.146 327.732 128.143 333.883 120.917V120.917C327.346 128.579 304.895 126.44 269.038 114.315Z" fill="#444053"/>
<path opacity="0.7" d="M187.263 85.7672L187.643 83.9023C190.821 85.0097 194.729 86.2245 197.915 87.4739C225.56 98.3353 251.775 106.814 271.589 112.76L271.209 114.625C251.325 108.659 225.224 100.207 197.534 89.3388C194.42 88.1007 190.469 86.8704 187.263 85.7672Z" fill="#444053"/>
<path opacity="0.7" d="M-7.47489 110.406C-7.27359 110.237 13.475 93.3008 47.8389 81.1082C67.9445 73.9863 89.2382 70.7716 110.331 70.0617C136.698 69.1682 165.293 73.6592 191.608 82.9047L189.461 84.4673C130.382 63.7405 78.8415 71.8601 47.4585 82.95C13.4374 94.9589 -5.88523 112.349 -6.08836 112.527L-7.47489 110.406Z" fill="#444053"/>
</g>
</g>
</svg>
