<svg width="20" height="20" viewBox="0 0 20 20" fill="none" xmlns="http://www.w3.org/2000/svg">
<path fill-rule="evenodd" clip-rule="evenodd" d="M14.1212 6.93365C14.327 6.76283 14.6047 6.66669 14.8944 6.66602C15.1841 6.66535 15.4624 6.7602 15.6693 6.93007C15.8762 7.09993 15.9949 7.33117 15.9998 7.57377C16.0048 7.81638 15.8955 8.05087 15.6957 8.22654L9.82705 14.3709C9.72619 14.4619 9.60445 14.5349 9.46913 14.5856C9.3338 14.6362 9.18766 14.6636 9.03944 14.6659C8.89123 14.6682 8.74398 14.6454 8.60651 14.5989C8.46903 14.5525 8.34416 14.4833 8.23934 14.3955L4.35093 11.1374C4.2426 11.0528 4.15571 10.9509 4.09545 10.8376C4.03519 10.7243 4.00278 10.602 4.00017 10.478C3.99756 10.354 4.02479 10.2309 4.08025 10.1159C4.1357 10.0009 4.21824 9.89644 4.32294 9.80875C4.42764 9.72105 4.55235 9.65192 4.68964 9.60547C4.82693 9.55903 4.97398 9.53622 5.12203 9.5384C5.27007 9.54059 5.41607 9.56773 5.55132 9.61821C5.68657 9.66868 5.80829 9.74146 5.90923 9.83219L8.98762 12.4094L14.0933 6.96073C14.1024 6.9512 14.1122 6.94215 14.1227 6.93365H14.1212Z" fill="#1448B6"/>
<rect x="0.5" y="0.5" width="19" height="19" rx="6.5" stroke="#001032"/>
</svg>
