<svg width="514" height="677" viewBox="0 0 514 677" fill="none" xmlns="http://www.w3.org/2000/svg">
<path d="M220.025 653.193C230.321 630.717 232.487 630.054 262.056 543.506C265.516 533.382 288.957 596.783 282.231 602.568C270.463 612.693 254.995 638.006 236.838 668.381C231.794 676.818 213.07 668.381 220.025 653.193Z" fill="#3C76F2" stroke="#3C76F2"/>
<path d="M334.347 307.255C273.824 435.505 292.319 570.505 327.622 666.693C337.712 676.819 346.862 667.268 346.119 661.631C336.798 492.925 337.092 413.273 383.103 314.005C387.014 305.569 339.125 297.131 334.347 307.255Z" fill="#3C76F2" stroke="#3C76F2"/>
<path d="M374.701 60.8958C383.053 64.0053 331.119 165.277 302.395 233.021C303.319 241.405 307.998 251.192 315.845 253.271C323.691 255.35 323.764 231.179 329.295 233.021C342.844 230.114 345.025 234.231 332.657 258.333C332.657 258.333 351.164 260.007 361.238 275.208C371.313 290.41 389.82 292.083 389.82 292.083C415.245 152.744 416.347 135.661 421.776 129.249C435.189 92.9001 473.213 116.732 497.433 118.899C503.572 119.448 529.376 108.999 497.433 93.8115C465.489 78.624 460.445 40.3038 421.776 40.3038C433.545 -5.25571 394.227 -6.94435 399.92 13.6335C404.964 31.8664 395.234 50.4498 393.195 41.9931C391.156 33.5365 354.526 1.49315 332.657 22.0833C318.822 35.9814 366.349 57.7863 374.701 60.8958Z" fill="#3C76F2" stroke="#3C76F2"/>
<path d="M19.9576 670.077C14.9139 671.765 4.15387 672.44 1.46387 661.64C23.9332 606.848 31.7992 578.56 41.8139 530.015C54.169 466.6 66.4974 451.922 83.8451 435.514C139.937 388.744 193.126 384.89 230.114 349.452C259.558 314.287 269.399 296.23 282.233 265.077C287.175 254.48 317.539 265.071 310.814 270.14C293.579 313.537 281.19 338.795 255.333 384.89C232.313 417.357 219.848 429.965 198.17 447.327C174.599 461.392 163.774 466.875 149.414 470.952C124.328 479.474 117.529 492.352 100.658 513.14C86.8493 536.484 77.6756 555.484 58.6264 602.577C33.865 651.057 29.7678 655.829 19.9576 670.077Z" fill="#3C76F2" stroke="#3C76F2"/>
<path d="M164.545 671.757C159.501 629.569 145.152 597.575 144.37 565.444C144.369 557.007 187.279 545.195 186.401 551.944C181.358 590.757 188.942 639.207 186.401 671.757C186.006 676.82 165.15 676.82 164.545 671.757Z" fill="#3C76F2" stroke="#3C76F2"/>
</svg>
