<?xml version="1.0" standalone="no"?>
<!DOCTYPE svg PUBLIC "-//W3C//DTD SVG 1.1//EN" "http://www.w3.org/Graphics/SVG/1.1/DTD/svg11.dtd" >
<svg xmlns="http://www.w3.org/2000/svg" xmlns:xlink="http://www.w3.org/1999/xlink" version="1.1">
<metadata>
Created by FontForge 20190801 at Thu Jul 12 18:24:52 2012
 By Jimmy Wärting
Copyright (c) 2012 by Gabriel de Souza Rodrigues. All rights reserved.
</metadata>
<defs>
<font id="ClioCBlackIt-Black" horiz-adv-x="578" >
  <font-face 
    font-family="Clio C BlackIt"
    font-weight="900"
    font-stretch="normal"
    units-per-em="1000"
    panose-1="2 0 0 0 0 0 0 0 0 0"
    ascent="750"
    descent="-250"
    x-height="498"
    cap-height="666"
    bbox="-23 -306 1035.42 977"
    underline-thickness="50"
    underline-position="-100"
    unicode-range="U+0020-FB04"
  />
<missing-glyph horiz-adv-x="197" 
 />
    <glyph glyph-name="fi" unicode="fi" horiz-adv-x="616" 
d="M484 621c7 68 14 79 87 79c71 0 80 -7 72 -79c-8 -65 -18 -82 -89 -82c-73 0 -77 17 -70 82zM71 499h66c18 163 51 189 189 189c24 0 54 -1 112 -10l-6 -80h-100c-41 0 -48 -4 -56 -99h348l-55 -499h-147l45 409h-197l-51 -448c-13 -110 -74 -148 -140 -148
c-6 0 -20 0 -66 7l4 61c50 10 62 50 69 115l44 413h-66z" />
    <glyph glyph-name="fl" unicode="fl" horiz-adv-x="612" 
d="M71 499h66c18 163 51 189 189 189c24 0 208 -1 300 -17l-60 -545c-3 -23 -4 -43 41 -51l-8 -75c-50 -8 -56 -8 -63 -8c-75 0 -127 29 -114 151l53 455h-143c-41 0 -48 -4 -56 -99h105l-8 -90h-103l-51 -448c-13 -110 -74 -148 -140 -148c-6 0 -20 0 -66 7l4 61
c50 10 62 50 69 115l44 413h-66z" />
    <glyph glyph-name="ff" unicode="ff" horiz-adv-x="751" 
d="M71 499h66c18 163 51 189 189 189c24 0 54 -1 112 -10l-6 -80h-100c-41 0 -48 -4 -56 -99h249c18 163 51 189 189 189c24 0 54 -1 112 -10l-6 -80h-100c-41 0 -48 -4 -56 -99h105l-8 -90h-103l-51 -448c-13 -110 -74 -148 -140 -148c-6 0 -20 0 -66 7l4 61
c50 10 62 50 69 115l43 413h-247l-51 -448c-13 -110 -74 -148 -140 -148c-6 0 -20 0 -66 7l4 61c50 10 62 50 69 115l44 413h-66z" />
    <glyph glyph-name="ffi" unicode="ffi" horiz-adv-x="1003" 
d="M875 629c7 68 13 79 87 79c70 0 79 -7 71 -79c-7 -65 -17 -82 -88 -82c-74 0 -77 17 -70 82zM71 499h66c18 163 51 189 189 189c24 0 54 -1 112 -10l-6 -80h-100c-41 0 -48 -4 -56 -99h249c18 163 51 189 189 189c24 0 54 -1 112 -10l-6 -80h-100c-41 0 -48 -4 -56 -99
h349l-55 -499h-146l44 409h-198l-51 -448c-13 -110 -74 -148 -140 -148c-6 0 -20 0 -66 7l4 61c50 10 62 50 69 115l43 413h-247l-51 -448c-13 -110 -74 -148 -140 -148c-6 0 -20 0 -66 7l4 61c50 10 62 50 69 115l44 413h-66z" />
    <glyph glyph-name="ffl" unicode="ffl" horiz-adv-x="1007" 
d="M71 499h66c18 163 51 189 189 189c24 0 54 -1 112 -10l-6 -80h-100c-41 0 -48 -4 -56 -99h249c18 163 51 189 189 189c24 0 241 -1 303 -11l-61 -551c-3 -23 -5 -43 41 -51l-8 -75c-50 -8 -57 -8 -63 -8c-76 0 -128 29 -114 151l50 455h-142c-41 0 -48 -4 -56 -99h105
l-8 -90h-103l-51 -448c-13 -110 -74 -148 -140 -148c-6 0 -20 0 -66 7l4 61c50 10 62 50 69 115l43 413h-247l-51 -448c-13 -110 -74 -148 -140 -148c-6 0 -20 0 -66 7l4 61c50 10 62 50 69 115l44 413h-66z" />
    <glyph glyph-name=".notdef" horiz-adv-x="197" 
 />
    <glyph glyph-name="B" unicode="B" horiz-adv-x="535" 
d="M249 0h-185l74 668h185c128 0 239 -15 221 -173l-5 -43c-6 -54 -31 -88 -66 -114c31 -32 44 -87 40 -126l-5 -40c-15 -136 -93 -172 -259 -172zM243 275l-18 -169l40 -1h8c53 0 81 19 86 73l5 35c5 51 -16 62 -47 62h-74zM316 565h-41l-19 -173h74c32 0 54 13 60 62l3 33
c8 73 -22 78 -77 78z" />
    <glyph glyph-name="C" unicode="C" horiz-adv-x="526" 
d="M241 298l-3 -25c-16 -145 15 -167 91 -167c37 0 114 4 174 9l-12 -99c-67 -14 -139 -25 -194 -25c-180 0 -251 33 -220 311c32 287 62 377 276 377c0 0 112 0 210 -15l-12 -111c-107 9 -191 8 -205 8c-79 0 -81 -44 -105 -263z" />
    <glyph glyph-name="D" unicode="D" horiz-adv-x="586" 
d="M64 0l74 670l242 -1c170 -1 233 -53 201 -338c-29 -271 -92 -331 -265 -331h-252zM372 567h-95l-50 -460h94c70 0 91 45 111 224c23 211 8 236 -60 236z" />
    <glyph glyph-name="E" unicode="E" horiz-adv-x="520" 
d="M477 0h-413l74 668h413l-13 -112h-264l-18 -160h242l-13 -113h-241l-19 -172h264z" />
    <glyph glyph-name="F" unicode="F" horiz-adv-x="501" 
d="M214 0h-150l73 667h417l-11 -110h-268l-18 -163h229l-13 -111h-228z" />
    <glyph glyph-name="G" unicode="G" horiz-adv-x="527" 
d="M290 249l11 96h226l-36 -327c-65 -15 -145 -27 -202 -27c-180 0 -243 33 -212 311c32 287 53 377 268 377c0 0 112 3 210 -12l-11 -111c-108 9 -192 5 -206 5c-79 0 -83 -44 -108 -263l-2 -25c-16 -138 10 -164 64 -168c18 -1 44 0 70 1l15 143h-87z" />
    <glyph glyph-name="H" unicode="H" horiz-adv-x="607" 
d="M544 0h-152l32 287h-177l-32 -287h-151l74 668h151l-31 -273h178l30 273h151z" />
    <glyph glyph-name="I" unicode="I" horiz-adv-x="270" 
d="M287 667l-73 -667h-150l73 667h150z" />
    <glyph glyph-name="J" unicode="J" horiz-adv-x="323" 
d="M348 669l-58 -528c-15 -125 -70 -153 -188 -150l-89 2l10 93c54 3 115 -6 123 63l57 520h145z" />
    <glyph glyph-name="K" unicode="K" horiz-adv-x="563" 
d="M213 0h-149l74 668h149l-31 -276h33l178 276h162l-213 -323l146 -345h-159l-124 285h-35z" />
    <glyph glyph-name="L" unicode="L" horiz-adv-x="477" 
d="M464 0h-400l73 667h149l-61 -556h251z" />
    <glyph glyph-name="M" unicode="M" horiz-adv-x="814" 
d="M209 0h-144l74 668h197l102 -348l180 348h210l-74 -668h-147l52 474l-189 -375h-110l-100 372z" />
    <glyph glyph-name="N" unicode="N" horiz-adv-x="655" 
d="M595 0h-168l-177 468l-51 -468h-135l74 668h185l152 -428l46 428h148z" />
    <glyph glyph-name="O" unicode="O" horiz-adv-x="585" 
d="M293 -10c-215 0 -234 72 -204 343c32 279 69 344 281 344c216 0 236 -68 205 -344c-31 -279 -67 -343 -282 -343zM305 95c88 0 100 35 122 238c23 202 20 240 -69 240s-98 -42 -120 -240c-22 -195 -21 -238 67 -238z" />
    <glyph glyph-name="P" unicode="P" horiz-adv-x="568" 
d="M216 0h-151l73 667h244c122 0 217 -35 202 -172l-8 -76c-13 -117 -85 -156 -174 -171c-22 -4 -41 -4 -160 -4zM278 563l-23 -211h91c39 0 76 8 82 67l8 75c8 61 -29 69 -67 69h-91z" />
    <glyph glyph-name="Q" unicode="Q" 
d="M569 333c-20 -182 -42 -272 -116 -314l43 -22l-55 -112l-209 108c-163 14 -176 95 -149 340c31 279 69 344 281 344c216 0 235 -68 205 -344zM300 95c88 0 99 35 121 238c23 202 21 240 -68 240c-92 0 -99 -42 -122 -240c-21 -195 -22 -238 69 -238z" />
    <glyph glyph-name="R" unicode="R" horiz-adv-x="587" 
d="M215 0h-151l73 667h260c121 0 217 -35 201 -172l-8 -76c-5 -52 -29 -93 -75 -130l16 -289h-155l-12 245c-13 -1 -28 -1 -123 -1zM277 563l-23 -211h105c39 0 76 8 82 67l8 75c7 61 -30 69 -67 69h-105z" />
    <glyph glyph-name="S" unicode="S" horiz-adv-x="511" 
d="M238 516c-9 -84 281 -129 258 -340c-15 -129 -104 -186 -215 -186c-79 0 -135 5 -216 10l11 107s133 -7 211 -7c33 0 50 19 57 65c14 108 -280 134 -259 329c15 130 103 186 216 186c115 0 164 -5 217 -9l-11 -107s-140 7 -211 7c-31 0 -53 -16 -58 -55z" />
    <glyph glyph-name="T" unicode="T" horiz-adv-x="524" 
d="M337 0h-153l62 557h-170l11 110h493l-12 -110h-170z" />
    <glyph glyph-name="U" unicode="U" horiz-adv-x="607" 
d="M317 96c90 0 102 35 125 240l36 330h149c-1 -16 -33 -313 -35 -330c-31 -281 -68 -346 -287 -346s-238 73 -208 346l36 330h151l-36 -330c-21 -197 -21 -240 69 -240z" />
    <glyph glyph-name="V" unicode="V" 
d="M76 667h145l72 -554l200 554h143l-242 -667h-226z" />
    <glyph glyph-name="W" unicode="W" horiz-adv-x="846" 
d="M232 118l168 548h171l51 -548l121 549h134l-150 -667h-232l-41 422l-134 -422h-214l-20 667h138z" />
    <glyph glyph-name="X" unicode="X" horiz-adv-x="542" 
d="M545 0h-158l-87 200l-128 -200h-160l221 337l-143 330h159l81 -186l123 186h158l-214 -328z" />
    <glyph glyph-name="Y" unicode="Y" horiz-adv-x="547" 
d="M338 0h-152l22 198l-140 470h164l72 -291l140 291h163l-247 -470z" />
    <glyph glyph-name="Z" unicode="Z" horiz-adv-x="530" 
d="M499 0h-468l9 92l340 465h-282l13 112h454l-11 -96l-334 -463h290z" />
    <glyph glyph-name="a" unicode="a" horiz-adv-x="470" 
d="M60 282c16 158 68 226 183 226c37 0 142 -12 229 -37l-48 -474h-111l-6 45c-18 -22 -69 -51 -122 -51c-109 0 -131 82 -131 173c0 32 1 62 6 118zM263 418c-45 -7 -59 -111 -62 -154c-3 -32 -17 -181 18 -181c36 0 70 34 82 47l33 284c-21 2 -46 8 -71 4z" />
    <glyph glyph-name="b" unicode="b" horiz-adv-x="480" 
d="M472 283c-22 -202 -49 -291 -231 -291c-43 0 -122 7 -185 17l74 672h142l-21 -192c32 15 65 19 82 19c121 0 157 -64 139 -225zM327 275c16 148 -12 134 -87 115l-32 -293h42c56 0 63 57 77 178z" />
    <glyph glyph-name="c" unicode="c" horiz-adv-x="465" 
d="M218 223c-13 -110 10 -126 67 -126c34 0 104 5 150 9l-11 -90c-58 -14 -137 -25 -186 -25c-135 0 -193 25 -170 235c25 216 51 284 213 284c0 0 114 -5 191 -19l-10 -99c-92 7 -156 12 -167 12c-59 0 -61 -32 -77 -181z" />
    <glyph glyph-name="d" unicode="d" horiz-adv-x="481" 
d="M71 256l3 27c21 160 63 227 185 227c27 0 43 -4 77 -17l20 187h144l-74 -680h-120l-5 40c-27 -26 -72 -46 -105 -46c-107 0 -146 77 -125 262zM220 280c-19 -173 -24 -200 76 -144l29 256c-82 31 -95 -12 -105 -112z" />
    <glyph glyph-name="e" unicode="e" horiz-adv-x="487" 
d="M483 359c0 -38 -1 -145 -154 -147l-129 -2c-3 -22 -2 -45 -2 -61c0 -66 30 -68 66 -68c17 0 78 2 165 14l-6 -82c-68 -15 -135 -22 -194 -22c-126 0 -168 44 -168 156c0 29 3 62 6 104c23 201 57 261 230 261c140 0 186 -41 186 -153zM292 424c-61 0 -70 -35 -81 -124
h124c14 0 15 30 15 40v12c0 59 -16 72 -58 72z" />
    <glyph glyph-name="f" unicode="f" horiz-adv-x="366" 
d="M71 499h66c18 163 51 189 189 189c24 0 54 -1 112 -10l-6 -80h-100c-41 0 -48 -4 -56 -99h105l-8 -90h-103l-51 -448c-13 -110 -74 -148 -140 -148c-6 0 -20 0 -66 7l4 61c50 10 62 50 69 115l44 413h-66z" />
    <glyph glyph-name="g" unicode="g" horiz-adv-x="458" 
d="M472 498l-55 -540c-11 -103 -75 -145 -181 -145c-64 0 -112 6 -180 23c0 4 25 86 26 88c49 -10 99 -19 148 -19c60 0 54 90 62 135h-12c-94 0 -216 -3 -216 142c0 73 11 165 37 236c33 89 91 98 206 98c43 -1 75 -1 165 -18zM228 387c-18 -42 -28 -139 -28 -193
c0 -57 20 -65 71 -65c21 0 19 1 26 1l35 294c-62 0 -88 -2 -104 -37z" />
    <glyph glyph-name="h" unicode="h" horiz-adv-x="506" 
d="M450 0h-145l40 361c6 58 -56 31 -103 17l-41 -378h-145l74 673h144l-22 -198c32 16 84 32 117 32c93 0 131 -44 122 -130z" />
    <glyph glyph-name="i" unicode="i" horiz-adv-x="256" 
d="M202 0h-146l55 499h146zM118 621c7 68 13 79 87 79c70 0 79 -7 71 -79c-7 -65 -17 -82 -88 -82c-74 0 -77 17 -70 82z" />
    <glyph glyph-name="j" unicode="j" horiz-adv-x="250" 
d="M-18 -172l8 73c45 8 54 30 57 54l60 545h146l-59 -531c-13 -123 -71 -148 -145 -148c-7 0 -17 0 -67 7zM115 622c7 68 14 79 87 79c71 0 80 -7 72 -79c-8 -65 -18 -82 -90 -82c-73 0 -76 17 -69 82z" />
    <glyph glyph-name="k" unicode="k" horiz-adv-x="526" 
d="M199 0h-143l74 673h143l-37 -334h45l136 230h149l-167 -283l127 -286h-153l-104 234h-45z" />
    <glyph glyph-name="l" unicode="l" horiz-adv-x="270" 
d="M256 75l-9 -75c-50 -8 -56 -8 -63 -8c-75 0 -127 29 -114 151l59 528h145l-60 -545c-3 -23 -4 -43 42 -51z" />
    <glyph glyph-name="m" unicode="m" horiz-adv-x="750" 
d="M693 0h-147l39 357c7 61 -56 35 -95 20c-13 -122 -27 -257 -40 -377h-146l40 363c6 54 -71 29 -101 9l-41 -372h-146l55 499h123l6 -42c28 15 62 51 129 52c54 1 73 -24 94 -56c27 12 71 55 147 56c92 1 133 -46 124 -132z" />
    <glyph glyph-name="n" unicode="n" horiz-adv-x="506" 
d="M449 0h-145l40 361c6 57 -72 26 -102 10l-40 -371h-146l55 499h122l7 -44c29 23 79 54 128 54c69 0 133 -35 122 -128z" />
    <glyph glyph-name="o" unicode="o" horiz-adv-x="503" 
d="M247 -9c-177 0 -197 59 -175 259c22 205 58 259 233 259c177 0 200 -58 177 -259c-21 -201 -56 -259 -235 -259zM259 91c60 0 68 28 82 159c15 136 12 162 -47 162c-57 0 -65 -30 -79 -162c-14 -131 -13 -159 44 -159z" />
    <glyph glyph-name="p" unicode="p" horiz-adv-x="484" 
d="M464 244l-2 -27c-22 -160 -63 -227 -186 -227c-27 0 -42 4 -77 7l-20 -177h-144l76 680h119l5 -34c30 18 72 40 105 40c107 0 145 -77 124 -262zM317 220c12 121 18 170 -14 170c-13 0 -34 -9 -64 -26l-28 -256c18 -3 37 -3 52 -3h-1c37 0 48 63 55 115z" />
    <glyph glyph-name="q" unicode="q" horiz-adv-x="487" 
d="M65 217c22 203 50 292 232 292c42 0 121 -7 184 -17l-74 -673h-142l19 180c-29 -4 -62 -5 -80 -5c-120 0 -157 63 -139 223zM210 225c-11 -97 -7 -120 27 -120c12 0 29 -1 59 5l32 290c-11 -1 -18 -1 -42 -1c-57 0 -63 -52 -76 -174z" />
    <glyph glyph-name="r" unicode="r" horiz-adv-x="355" 
d="M243 461c27 14 62 39 148 51l-11 -109c-51 -4 -103 -29 -139 -44l-39 -359h-146l55 500h133z" />
    <glyph glyph-name="s" unicode="s" horiz-adv-x="441" 
d="M218 376c-6 -43 218 -74 200 -235c-11 -99 -89 -144 -181 -144c-89 0 -181 13 -181 13l11 104s86 -12 156 -12c24 0 43 4 45 28c7 61 -216 73 -198 234c11 100 86 145 180 145c90 0 182 -13 182 -13l-11 -105s-106 12 -179 12c-14 0 -22 -9 -24 -27z" />
    <glyph glyph-name="t" unicode="t" horiz-adv-x="379" 
d="M283 -9c-124 0 -154 45 -154 127c0 18 1 37 3 59l25 223h-97c5 34 9 66 13 100h95c4 38 10 79 14 117h142l-13 -117h98c-3 -34 -8 -66 -12 -100h-97c-8 -75 -18 -159 -26 -235c-2 -16 -3 -32 -3 -41c0 -40 13 -36 43 -35l60 3l-10 -91c-37 -8 -63 -10 -81 -10z" />
    <glyph glyph-name="u" unicode="u" horiz-adv-x="503" 
d="M108 498h145l-41 -361c-6 -57 72 -26 102 -10l41 371h146l-56 -499h-122l-7 44c-29 -23 -78 -54 -128 -54c-69 0 -133 35 -122 128z" />
    <glyph glyph-name="v" unicode="v" horiz-adv-x="462" 
d="M308 0h-175l-74 500h140l37 -368l127 368h140z" />
    <glyph glyph-name="w" unicode="w" horiz-adv-x="691" 
d="M94 0l-12 500h136l4 -364l118 364h119l29 -364l99 364h129l-129 -500h-182l-36 267l-92 -267h-183z" />
    <glyph glyph-name="x" unicode="x" horiz-adv-x="441" 
d="M436 0h-146l-48 116l-73 -116h-151l161 248l-103 251h150l45 -124l66 124h150l-156 -251z" />
    <glyph glyph-name="y" unicode="y" horiz-adv-x="477" 
d="M58 -152l29 62c12 -4 19 -6 25 -8c9 -3 22 -8 32 3c13 14 29 48 52 95h-58l-62 500h144l26 -350l138 350h140l-239 -582c-35 -85 -80 -106 -133 -106c-28 0 -62 10 -94 36z" />
    <glyph glyph-name="z" unicode="z" horiz-adv-x="421" 
d="M40 80l216 316h-177l12 105h348l-9 -82l-214 -313h184l-12 -106h-356z" />
    <glyph glyph-name="zero" unicode="0" horiz-adv-x="494" 
d="M246 -9c-173 0 -191 65 -167 282c24 220 59 279 229 279c171 0 191 -65 167 -279c-24 -218 -59 -282 -229 -282zM259 90c52 0 60 31 78 183c17 156 13 183 -38 183c-52 0 -61 -31 -78 -183s-14 -183 38 -183z" />
    <glyph glyph-name="one" unicode="1" horiz-adv-x="325" 
d="M57 432l15 109l256 -1l-59 -540h-148l45 431z" />
    <glyph glyph-name="two" unicode="2" horiz-adv-x="427" 
d="M436 397c-9 -82 -108 -176 -194 -284h158l-12 -108h-333l11 84c130 171 215 254 220 309c4 29 -5 42 -30 42c-53 0 -105 -3 -162 -3l12 102l150 5c111 0 194 -19 180 -147z" />
    <glyph glyph-name="three" unicode="3" horiz-adv-x="444" 
d="M445 377l-6 -47c-6 -56 -31 -89 -66 -115c32 -34 45 -84 40 -123l-4 -36c-15 -133 -85 -171 -238 -171h-32c-31 0 -76 2 -110 2l11 101c43 0 88 -2 131 -2c58 0 86 18 93 74l3 32c6 53 -13 70 -45 70h-120l11 102h121c31 0 54 18 59 68l5 39c6 55 -40 68 -78 68
c-68 0 -108 -2 -131 -2l12 102l148 2c116 2 212 -12 196 -164z" />
    <glyph glyph-name="four" unicode="4" horiz-adv-x="554" 
d="M553 189l-13 -109h-83l-21 -189h-147l21 189h-285l10 83l264 377h209l-38 -351h83zM198 189h124l28 229z" />
    <glyph glyph-name="five" unicode="5" horiz-adv-x="441" 
d="M245 269c133 0 191 -5 171 -187l-4 -27c-14 -133 -94 -171 -255 -171c-91 0 -115 1 -117 1l12 99h123c60 0 89 16 95 76l4 35c7 60 -9 72 -48 72h-152l41 375h328l-13 -111h-185l-17 -162h17z" />
    <glyph glyph-name="six" unicode="6" horiz-adv-x="503" 
d="M304 385c152 0 186 -60 175 -169l-5 -43c-12 -109 -74 -184 -223 -184c-148 0 -198 68 -185 177c26 240 40 355 40 328v-1c23 114 83 166 232 166c13 0 109 -4 161 -11l-12 -105c-46 4 -147 6 -160 6c-60 -3 -72 -32 -88 -172c23 4 45 8 65 8zM322 171l6 48
c5 42 -1 59 -36 59c-18 0 -41 -3 -64 -8l-12 -106c-6 -53 13 -67 47 -67c38 0 54 22 59 74z" />
    <glyph glyph-name="seven" unicode="7" horiz-adv-x="409" 
d="M269 -109h-147l152 541h-221l12 108h383z" />
    <glyph glyph-name="eight" unicode="8" horiz-adv-x="504" 
d="M507 490l-5 -38c-6 -56 -30 -91 -67 -120c38 -33 52 -82 47 -128l-4 -37c-14 -126 -90 -177 -218 -177c-143 0 -210 39 -194 176l3 37c6 45 32 96 75 128c-31 29 -46 62 -40 120l5 38c15 144 104 172 210 174c111 0 204 -21 188 -173zM211 204l-4 -34
c-5 -49 13 -78 50 -78c46 0 73 24 79 79l4 34c6 52 -16 71 -48 71h-15c-33 0 -60 -19 -66 -72zM248 483l-3 -32c-7 -52 12 -70 43 -70h13c32 0 55 19 61 71l3 32c8 62 -11 75 -42 75c-40 0 -67 -5 -75 -76z" />
    <glyph glyph-name="nine" unicode="9" horiz-adv-x="487" 
d="M238 149c-152 0 -187 60 -174 169l4 43c12 109 74 184 223 184c147 0 198 -68 186 -177c-27 -240 -35 -302 -41 -328v1c-22 -114 -83 -166 -233 -166c-12 0 -108 4 -159 11l11 104c47 -4 147 -5 161 -5c59 3 72 32 87 172c-23 -4 -45 -8 -65 -8zM220 363l-6 -48
c-4 -42 2 -59 37 -59c17 0 40 3 64 8l12 106c5 53 -14 67 -48 67c-38 0 -54 -22 -59 -74z" />
    <glyph glyph-name="breve" unicode="&#x2d8;" horiz-adv-x="378" 
d="M404 604c-33 -35 -96 -73 -151 -73c-53 0 -106 33 -140 73l51 77c35 -33 67 -56 96 -56c28 0 68 23 114 52z" />
    <glyph glyph-name="dotaccent" unicode="&#x2d9;" horiz-adv-x="211" 
d="M108 619c6 65 15 77 85 77c67 0 77 -9 70 -77c-7 -63 -18 -79 -88 -79c-69 0 -74 15 -67 79z" />
    <glyph glyph-name="ring" unicode="&#x2da;" horiz-adv-x="274" 
d="M119 625c6 55 44 99 103 99c62 0 90 -44 84 -99c-5 -54 -43 -99 -105 -99s-89 41 -82 99zM182 625c-3 -23 7 -38 26 -38c21 0 32 15 35 38c3 24 -6 38 -27 38c-19 0 -32 -14 -34 -38z" />
    <glyph glyph-name="hungarumlaut" unicode="&#x2dd;" horiz-adv-x="427" 
d="M403 767l87 -53l-119 -185l-83 52zM248 768l89 -52l-119 -187l-83 52z" />
    <glyph glyph-name="ogonek" unicode="&#x2db;" horiz-adv-x="292" 
d="M130 -214c-50 0 -94 29 -88 86c5 46 53 92 93 128h102c-52 -49 -122 -153 -55 -135l38 10l-3 -73c-15 -5 -60 -16 -87 -16z" />
    <glyph glyph-name="caron" unicode="&#x2c7;" horiz-adv-x="387" 
d="M371 733l45 -74l-165 -134l-139 131l55 75l96 -79z" />
    <glyph glyph-name="dotlessi" unicode="&#x131;" horiz-adv-x="230" 
d="M203 0h-147l53 488h147z" />
    <glyph glyph-name="Lslash" unicode="&#x141;" horiz-adv-x="491" 
d="M55 221l-25 102l84 33l34 311h153l-28 -252l64 25l20 -102l-97 -38l-21 -192h249l-12 -108h-400l26 241z" />
    <glyph glyph-name="lslash" unicode="&#x142;" horiz-adv-x="349" 
d="M72 232l-24 98l90 34l34 306h145l-28 -249l57 22l24 -99l-94 -35l-20 -184c-2 -23 -5 -43 40 -51l-9 -75c-49 -8 -56 -8 -62 -8c-79 0 -125 29 -112 151l12 109z" />
    <glyph glyph-name="ampersand" unicode="&#x26;" horiz-adv-x="503" 
d="M338 425h140l-6 -49h41l-11 -96h-40l-30 -265c-76 -15 -137 -27 -176 -27c-150 0 -197 54 -188 178l5 38c3 39 33 92 71 126c-32 29 -47 62 -44 120l4 39c13 115 91 169 225 169c36 0 86 -7 162 -19l-10 -97c-90 8 -144 15 -162 15c-47 0 -63 -25 -68 -74l-4 -32
c-6 -52 14 -75 48 -75h38zM220 205l-4 -34c-7 -67 20 -83 58 -83c10 0 18 4 27 7l21 185h-38c-34 0 -58 -21 -64 -75z" />
    <glyph glyph-name="space" unicode=" " horiz-adv-x="190" 
 />
    <glyph glyph-name="exclam" unicode="!" horiz-adv-x="253" 
d="M80 188l56 482h144l-56 -482h-144zM67 71c7 62 15 74 81 74c63 0 72 -9 64 -74c-6 -60 -16 -74 -81 -74s-71 13 -64 74z" />
    <glyph glyph-name="quotedbl" unicode="&#x22;" horiz-adv-x="362" 
d="M202 429h-115l57 226h131zM350 429h-120l67 226h135z" />
    <glyph glyph-name="numbersign" unicode="#" horiz-adv-x="520" 
d="M400 127l-15 -129h-106l14 129h-34l-14 -129h-107l14 129h-95l9 82h95l10 86h-95l9 89h96l13 127h107l-13 -127h34l14 127h106l-14 -127h97l-10 -89h-97l-9 -86h96l-9 -82h-96zM312 295h-34l-10 -86h34z" />
    <glyph glyph-name="dollar" unicode="$" horiz-adv-x="455" 
d="M161 -80l9 84c-65 4 -115 11 -115 11l12 110s91 -13 165 -13c26 0 46 4 49 30c7 64 -229 77 -210 247c10 91 71 140 154 150l9 87h109l-9 -87c66 -4 119 -11 119 -11l-12 -111s-112 13 -189 13c-15 0 -23 -10 -25 -29c-6 -45 229 -78 210 -248
c-10 -93 -75 -140 -157 -150l-9 -83h-110z" />
    <glyph glyph-name="percent" unicode="%" horiz-adv-x="689" 
d="M529 1c-92 0 -126 18 -110 162s46 163 151 163c89 0 115 -32 100 -163c-13 -120 -38 -162 -141 -162zM554 246c-21 0 -25 -14 -32 -81l-2 -18c-6 -50 -7 -63 18 -63c20 2 24 2 33 81c8 67 5 81 -17 81zM199 346c-92 0 -126 18 -110 163c16 144 45 162 150 162
c89 0 116 -31 101 -162c-13 -120 -39 -163 -141 -163zM224 591c-22 0 -25 -13 -32 -81l-2 -18c-6 -50 -7 -62 18 -62c21 2 23 1 32 80c7 68 6 81 -16 81zM634 667l-420 -667h-93l421 667h92z" />
    <glyph glyph-name="quotesingle" unicode="'" horiz-adv-x="220" 
d="M202 429h-117l61 226h132z" />
    <glyph glyph-name="parenleft" unicode="(" horiz-adv-x="277" 
d="M253 -109l-105 -81c-82 146 -101 348 -86 484c15 139 77 342 190 483l90 -80c-84 -141 -124 -300 -135 -403c-12 -106 -17 -258 46 -403z" />
    <glyph glyph-name="parenright" unicode=")" horiz-adv-x="270" 
d="M93 -187l-90 78c91 145 122 297 134 403c11 104 7 262 -47 404l110 78c80 -141 98 -342 83 -482c-16 -139 -77 -338 -190 -481z" />
    <glyph glyph-name="asterisk" unicode="*" horiz-adv-x="422" 
d="M450 507l-109 -30l53 -92l-84 -71l-50 94l-73 -95l-72 72l72 91l-101 31l36 101l98 -41l12 115h109l-13 -115l104 39z" />
    <glyph glyph-name="plus" unicode="+" horiz-adv-x="467" 
d="M54 194l12 107h136l18 153h141l-17 -153h137l-11 -107h-138l-17 -160h-141l17 160h-137z" />
    <glyph glyph-name="comma" unicode="," horiz-adv-x="231" 
d="M75 -90l-37 67c16 10 29 22 35 27c-23 9 -24 34 -19 74c7 65 14 75 84 75c68 0 73 -11 65 -75c-7 -67 -48 -122 -128 -168z" />
    <glyph glyph-name="hyphen" unicode="-" horiz-adv-x="356" 
d="M73 213l13 128h262l-13 -128h-262z" />
    <glyph glyph-name="period" unicode="." horiz-adv-x="232" 
d="M52 76c7 65 15 76 86 76c68 0 76 -9 69 -76c-7 -63 -15 -79 -86 -79s-76 15 -69 79z" />
    <glyph glyph-name="slash" unicode="/" horiz-adv-x="389" 
d="M453 658l-298 -762h-145l295 762h148z" />
    <glyph glyph-name="colon" unicode=":" horiz-adv-x="244" 
d="M58 76c7 65 15 76 85 76c68 0 77 -9 69 -76c-7 -63 -15 -79 -86 -79c-70 0 -76 15 -68 79zM88 358c7 64 16 76 87 76c68 0 76 -10 68 -76c-7 -65 -14 -81 -86 -81c-70 0 -76 15 -69 81z" />
    <glyph glyph-name="semicolon" unicode=";" horiz-adv-x="246" 
d="M90 358c7 64 16 76 86 76c69 0 77 -10 69 -76c-7 -65 -15 -81 -86 -81c-70 0 -76 15 -69 81zM83 -90l-37 67c16 10 29 22 35 27c-23 9 -23 34 -19 74c7 65 14 75 84 75c68 0 73 -11 65 -75c-7 -67 -48 -122 -128 -168z" />
    <glyph glyph-name="less" unicode="&#x3c;" horiz-adv-x="510" 
d="M462 22l-409 188l8 71l451 186l-13 -122l-257 -100l233 -101z" />
    <glyph glyph-name="equal" unicode="=" horiz-adv-x="493" 
d="M85 266l12 107h388l-12 -107h-388zM69 119l12 108h388l-12 -108h-388z" />
    <glyph glyph-name="greater" unicode="&#x3e;" horiz-adv-x="517" 
d="M508 209l-451 -188l13 123l254 101l-232 99l13 123l411 -187z" />
    <glyph glyph-name="question" unicode="?" horiz-adv-x="433" 
d="M108 677h129c126 0 241 -7 224 -166l-3 -24c-13 -111 -71 -175 -206 -175l-13 -117h-141l25 225l124 -1c33 0 55 18 61 69l2 16c8 73 -24 71 -80 71h-133zM81 71c7 62 15 74 81 74c63 0 72 -9 65 -74c-7 -60 -16 -74 -81 -74c-66 0 -71 13 -65 74z" />
    <glyph glyph-name="at" unicode="@" horiz-adv-x="641" 
d="M80 288c26 238 71 354 323 354c217 0 264 -85 241 -290c-20 -186 -76 -240 -165 -240c-41 0 -76 27 -89 59c-17 -15 -44 -32 -80 -34c-67 -3 -96 47 -83 158c13 124 38 197 152 197c35 0 57 -3 123 -16l-35 -264c-4 -22 11 -31 20 -31c36 0 52 82 57 132
c20 177 14 241 -146 241c-169 0 -196 -68 -219 -278c-15 -142 35 -186 157 -186h94c-3 -30 -7 -59 -10 -89h-113c-181 0 -249 82 -227 287zM370 410c-32 0 -43 -29 -51 -102c-9 -74 -19 -123 63 -82l27 182c-18 2 -31 2 -39 2z" />
    <glyph glyph-name="braceleft" unicode="{" horiz-adv-x="316" 
d="M217 23c-4 -37 -5 -49 22 -49h62l-11 -104h-61c-148 0 -168 59 -158 153l19 165c6 57 -7 79 -48 115l7 56c48 35 66 59 72 115l18 167c11 96 43 149 190 149h62l-11 -101h-61c-27 0 -30 -14 -34 -48l-18 -167c-7 -60 -25 -101 -69 -144c32 -37 44 -84 38 -142z" />
    <glyph glyph-name="bar" unicode="|" horiz-adv-x="217" 
d="M260 759l-104 -946h-124l105 946h123z" />
    <glyph glyph-name="braceright" unicode="}" horiz-adv-x="325" 
d="M107 23l19 165c6 61 28 106 69 143c-33 42 -44 86 -38 143l18 167c4 34 4 48 -23 48h-61l11 101h61c148 0 169 -53 158 -149l-18 -167c-6 -57 7 -80 46 -116l-5 -54c-48 -35 -66 -58 -72 -116l-19 -165c-10 -94 -42 -153 -191 -153h-61l11 104h61c27 0 30 12 34 49z" />
    <glyph glyph-name="asciitilde" unicode="~" horiz-adv-x="470" 
d="M458 278c-34 -49 -96 -75 -135 -75c-85 0 -102 27 -123 27c-17 0 -32 0 -80 -44c-11 22 -36 59 -48 82c48 43 90 66 124 66c52 0 94 -26 130 -26c25 0 65 21 91 44z" />
    <glyph glyph-name="quoteleft" unicode="&#x2018;" horiz-adv-x="232" 
d="M218 606l34 -67c-13 -9 -28 -19 -34 -25c22 -10 24 -33 20 -74c-8 -65 -17 -74 -86 -74c-68 0 -73 10 -66 74c8 67 38 111 132 166z" />
    <glyph glyph-name="quoteright" unicode="&#x2019;" horiz-adv-x="227" 
d="M120 366l-33 68c12 8 26 18 34 25c-23 9 -24 32 -19 73c7 66 14 75 83 75s75 -11 68 -75c-7 -67 -39 -111 -133 -166z" />
    <glyph glyph-name="quotedblleft" unicode="&#x201c;" horiz-adv-x="391" 
d="M219 607l33 -67c-13 -9 -27 -18 -34 -25c23 -9 24 -32 20 -73c-8 -66 -15 -75 -85 -75c-68 0 -74 11 -67 75c8 66 38 111 133 165zM389 607l34 -67c-13 -9 -27 -18 -34 -25c23 -9 24 -32 20 -73c-8 -66 -16 -75 -85 -75c-68 0 -74 11 -67 75c8 66 38 111 132 165z" />
    <glyph glyph-name="quotedblright" unicode="&#x201d;" horiz-adv-x="395" 
d="M290 362l-34 67c12 9 27 19 35 25c-24 10 -25 33 -20 74c7 65 14 74 84 74c69 0 74 -10 67 -74c-7 -67 -38 -111 -132 -166zM119 362l-34 67c13 9 28 19 35 25c-24 10 -25 33 -20 74c7 65 15 74 84 74s74 -10 67 -74c-7 -67 -38 -111 -132 -166z" />
    <glyph glyph-name="bullet" unicode="&#x2022;" horiz-adv-x="378" 
d="M105 324c8 75 70 137 138 137c67 0 115 -62 107 -137s-70 -135 -137 -135s-116 60 -108 135z" />
    <glyph glyph-name="endash" unicode="&#x2013;" horiz-adv-x="451" 
d="M73 213l14 134h346l-15 -134h-345z" />
    <glyph glyph-name="emdash" unicode="&#x2014;" horiz-adv-x="586" 
d="M73 213l14 134h484l-14 -134h-484z" />
    <glyph glyph-name="tilde" unicode="&#x2dc;" horiz-adv-x="409" 
d="M322 542c-47 0 -75 39 -102 39c-12 0 -29 -25 -44 -47c-20 15 -39 31 -60 46c31 57 63 95 111 95c38 0 69 -38 89 -38c11 0 25 20 39 43c22 -16 42 -32 63 -48c-28 -77 -86 -90 -96 -90z" />
    <glyph glyph-name="trademark" unicode="&#x2122;" horiz-adv-x="501" 
d="M204 454h-52l19 173h-53l6 49h159l-7 -49h-53zM333 454h-52l25 222h57l28 -104l56 104h55l-25 -222h-50l12 105l-36 -68h-39l-19 68z" />
    <glyph glyph-name="bracketleft" unicode="[" horiz-adv-x="292" 
d="M270 -130h-231l100 920h232l-11 -102h-89l-78 -712h89z" />
    <glyph glyph-name="backslash" unicode="\" horiz-adv-x="391" 
d="M224 -104l-130 761h147l128 -761h-145z" />
    <glyph glyph-name="bracketright" unicode="]" horiz-adv-x="292" 
d="M235 -130h-233l11 106h89l78 712h-88l11 102h233z" />
    <glyph glyph-name="asciicircum" unicode="^" horiz-adv-x="445" 
d="M209 368h-140l174 299h120l108 -299h-138l-46 157z" />
    <glyph glyph-name="underscore" unicode="_" horiz-adv-x="533" 
d="M477 -81h-437l9 83h437z" />
    <glyph glyph-name="grave" unicode="`" horiz-adv-x="310" 
d="M129 714l99 53l73 -186l-95 -52z" />
    <glyph glyph-name="fraction" unicode="&#x2044;" horiz-adv-x="343" 
d="M418 618l-304 -666l-112 59l304 665z" />
    <glyph glyph-name="Euro" unicode="&#x20ac;" horiz-adv-x="586" 
d="M61 342l9 77h90c30 195 79 260 261 260c0 0 113 0 211 -15l-13 -111c-107 9 -191 8 -204 8c-62 0 -77 -27 -92 -142h184l-9 -77h-184l-4 -35h182l-8 -77h-181c-5 -107 26 -124 95 -124c37 0 113 4 173 9l-11 -99c-68 -14 -140 -25 -195 -25c-163 0 -236 27 -226 239h-90
l8 77h89l3 35h-88z" />
    <glyph glyph-name="florin" unicode="&#x192;" horiz-adv-x="454" 
d="M121 499h66c35 163 71 189 209 189c24 0 54 -1 112 -10l-15 -80h-100c-41 0 -48 -4 -66 -99h104l-16 -90h-104l-97 -448c-23 -110 -89 -148 -155 -148c-6 0 -19 0 -64 7l9 61c52 10 68 50 81 115l86 413h-66z" />
    <glyph glyph-name="sterling" unicode="&#xa3;" horiz-adv-x="472" 
d="M271 303l-16 -143c-2 -18 -3 -34 -12 -56h194l-10 -104h-395l11 99c50 3 61 20 69 84l13 120h-50l10 91h50l5 48c17 153 62 217 195 217c49 0 101 -10 156 -25l-9 -88c-93 19 -110 17 -123 17c-46 0 -62 -22 -70 -98l-8 -71h158l-10 -91h-158z" />
    <glyph glyph-name="currency" unicode="&#xa4;" horiz-adv-x="520" 
d="M458 596l73 -97l-65 -65c8 -30 7 -68 4 -105c-4 -35 -11 -74 -27 -106l48 -64l-91 -88l-64 76c-19 -3 -36 -5 -52 -5c-21 0 -43 2 -61 6l-91 -83l-69 97l60 60c-8 29 -6 68 -2 103c4 36 12 80 26 111l-47 62l93 93l64 -80c17 3 35 5 56 5c20 0 41 -2 58 -5zM262 329
c-7 -63 -4 -83 24 -83s34 20 42 83c7 66 4 86 -24 86s-35 -20 -42 -86z" />
    <glyph glyph-name="quotesinglbase" unicode="&#x201a;" horiz-adv-x="240" 
d="M72 -88l-33 67c11 9 26 19 34 26c-24 9 -24 32 -20 73c7 65 14 75 84 75c69 0 74 -11 67 -75c-7 -67 -38 -111 -132 -166z" />
    <glyph glyph-name="quotedblbase" unicode="&#x201e;" horiz-adv-x="390" 
d="M72 -88l-33 67c11 9 26 19 34 26c-24 9 -24 32 -20 73c7 65 14 75 84 75c69 0 74 -11 67 -75c-7 -67 -38 -111 -132 -166zM243 -88l-33 67c11 9 26 19 34 26c-24 9 -24 32 -20 73c7 65 14 75 84 75c69 0 74 -11 67 -75c-7 -67 -38 -111 -132 -166z" />
    <glyph glyph-name="ellipsis" unicode="&#x2026;" horiz-adv-x="607" 
d="M52 76c7 65 15 77 84 77c68 0 77 -10 70 -77c-7 -64 -15 -80 -87 -80c-70 0 -74 15 -67 80zM238 76c8 65 16 77 87 77c67 0 76 -10 69 -77c-7 -64 -17 -80 -86 -80c-71 0 -77 15 -70 80zM422 76c7 65 14 77 86 77c68 0 77 -10 70 -77c-7 -64 -16 -80 -88 -80
c-71 0 -75 15 -68 80z" />
    <glyph glyph-name="dagger" unicode="&#x2020;" horiz-adv-x="439" 
d="M79 501h123l16 148h146l-16 -148h122l-13 -111h-121l-43 -390h-146l42 390h-122z" />
    <glyph glyph-name="daggerdbl" unicode="&#x2021;" horiz-adv-x="479" 
d="M99 501h122l17 148h146l-16 -148h122l-13 -111h-122l-14 -132h122l-12 -111h-122l-16 -147h-147l17 147h-123l12 111h122l15 132h-123z" />
    <glyph glyph-name="circumflex" unicode="&#x2c6;" horiz-adv-x="396" 
d="M427 615l-72 -82l-89 91l-115 -91l-46 84l178 142z" />
    <glyph glyph-name="perthousand" unicode="&#x2030;" horiz-adv-x="971" 
d="M530 2c-92 0 -126 18 -110 163c16 144 46 162 151 162c89 0 115 -31 100 -162c-13 -120 -38 -163 -141 -163zM555 247c-21 0 -25 -14 -32 -81l-2 -18c-5 -50 -7 -62 18 -62c20 1 24 1 33 80c8 67 5 81 -17 81zM814 2c-92 0 -126 18 -110 163c15 144 46 162 150 162
c89 0 115 -31 101 -162c-14 -120 -39 -163 -141 -163zM839 247c-22 0 -25 -14 -33 -81l-1 -18c-6 -50 -8 -62 18 -62c19 1 24 1 33 80c7 67 4 81 -17 81zM200 348c-93 0 -126 18 -110 162s45 163 150 163c88 0 115 -32 100 -163c-13 -120 -38 -162 -140 -162zM225 593
c-22 0 -25 -14 -33 -81l-2 -18c-6 -50 -7 -63 19 -63c20 2 24 2 32 81c8 67 6 81 -16 81zM634 667l-420 -667h-93l421 667h92z" />
    <glyph glyph-name="yen.001" horiz-adv-x="513" 
d="M205 296l-131 372h147l83 -238l137 238h148l-215 -372h101l-12 -100h-366l12 100h96zM96 168h367l-11 -99h-115l-10 -69h-143l10 69h-109z" />
    <glyph glyph-name="yen" unicode="&#xa5;" horiz-adv-x="552" 
d="M229 296l-132 372h148l83 -238l136 238h148l-214 -372h101l-12 -100h-366l11 100h97zM120 168h366l-11 -99h-114l-11 -69h-143l11 69h-109z" />
    <glyph glyph-name="brokenbar" unicode="&#xa6;" horiz-adv-x="227" 
d="M271 759l-48 -426h-132l48 426h132zM166 -187h-132l47 425h132z" />
    <glyph glyph-name="section" unicode="&#xa7;" horiz-adv-x="481" 
d="M280 522c-6 -43 218 -74 200 -235c-8 -68 -47 -111 -100 -131c16 -25 25 -55 20 -92c-10 -99 -87 -144 -180 -144c-89 0 -181 13 -181 13l11 104s87 -12 157 -12c24 0 42 4 45 28c6 61 -216 73 -198 234c7 69 45 112 99 132c-16 24 -25 53 -21 91c11 100 86 145 180 145
c90 0 182 -13 182 -13l-12 -105s-105 12 -178 12c-14 0 -22 -9 -24 -27zM201 299c-2 -16 28 -31 66 -51h18c25 0 43 4 45 28c3 19 -18 33 -46 48c-20 1 -39 2 -58 2c-15 0 -24 -9 -25 -27z" />
    <glyph glyph-name="dieresis" unicode="&#xa8;" horiz-adv-x="391" 
d="M122 621c7 56 13 67 74 67c58 0 67 -10 60 -67c-6 -55 -16 -69 -75 -69c-61 0 -65 13 -59 69zM289 621c6 56 13 67 73 67c59 0 67 -10 61 -67c-6 -55 -14 -69 -77 -69c-59 0 -63 13 -57 69z" />
    <glyph glyph-name="copyright" unicode="&#xa9;" horiz-adv-x="698" 
d="M72 325c21 186 162 337 352 337c191 0 300 -151 280 -337c-20 -183 -164 -334 -355 -334c-190 0 -297 151 -277 334zM168 325c-14 -137 66 -247 192 -247c130 0 236 110 250 247c15 139 -66 249 -195 249c-126 0 -231 -110 -247 -249zM359 299l-1 -12
c-8 -72 7 -83 45 -83c18 0 52 2 81 5l-5 -49c-34 -8 -69 -13 -97 -13c-88 0 -131 16 -116 155c16 142 36 186 144 186c0 0 55 0 105 -7l-7 -56c-54 6 -90 6 -97 6c-38 0 -39 -22 -52 -132z" />
    <glyph glyph-name="ordfeminine" unicode="&#xaa;" horiz-adv-x="319" 
d="M342 583l-24 -222h-86l-3 27c-12 -16 -36 -30 -63 -30c-71 0 -88 49 -81 105c8 68 46 89 99 89c9 0 18 0 27 -1l29 -3l5 44c2 12 -1 14 -10 14c-27 0 -67 -3 -103 -7c-1 27 -2 37 -2 64c54 10 82 13 117 13c72 0 103 -17 95 -93zM229 447l4 35h-10c-24 0 -39 -3 -40 -18
s-1 -24 11 -24c6 0 23 2 35 7z" />
    <glyph glyph-name="guillemotleft" unicode="&#xab;" horiz-adv-x="496" 
d="M58 255l160 227l96 -75l-106 -152l73 -151l-114 -76zM261 255l158 225l99 -73l-105 -152l72 -150l-115 -74z" />
    <glyph glyph-name="logicalnot" unicode="&#xac;" horiz-adv-x="535" 
d="M359 188h-282l12 108h417l-28 -254h-135z" />
    <glyph glyph-name="minus" unicode="&#x2212;" horiz-adv-x="454" 
d="M77 190l13 117h337l-13 -117h-337z" />
    <glyph glyph-name="registered" unicode="&#xae;" horiz-adv-x="435" 
d="M93 483c11 107 93 194 203 194c108 0 171 -87 159 -194c-11 -108 -94 -193 -202 -193c-110 0 -172 85 -160 193zM138 482c-10 -85 46 -152 119 -152s145 67 155 152c9 84 -48 152 -121 152c-74 0 -144 -68 -153 -152zM245 381h-49l22 195h76c35 0 64 -11 60 -52l-3 -21
c-2 -18 -11 -27 -21 -38l5 -84h-49l-4 71h-29zM263 541l-7 -54h27c10 0 18 1 20 16l3 21c2 15 -6 17 -17 17h-26z" />
    <glyph glyph-name="macron" unicode="&#xaf;" horiz-adv-x="363" 
d="M112 559l11 100h252l-11 -100h-252z" />
    <glyph glyph-name="degree" unicode="&#xb0;" horiz-adv-x="324" 
d="M347 514c-9 -78 -64 -141 -145 -141c-80 0 -121 63 -112 141c8 77 65 141 144 141c81 0 121 -64 113 -141zM267 514c4 36 -8 61 -42 61c-33 0 -51 -25 -55 -61c-4 -34 9 -62 41 -62c33 0 52 28 56 62z" />
    <glyph glyph-name="plusminus" unicode="&#xb1;" horiz-adv-x="519" 
d="M83 318l11 107h141l16 153h143l-16 -153h139l-12 -107h-139l-18 -159h-143l18 159h-140zM481 112l-11 -105h-422l11 105h422z" />
    <glyph glyph-name="twosuperior" unicode="&#xb2;" horiz-adv-x="378" 
d="M392 522c-7 -62 -89 -132 -160 -214h132l-9 -82h-279l9 64c108 129 177 192 181 232c2 22 -4 32 -26 32l-135 -2l9 77l126 5c95 3 163 -15 152 -112z" />
    <glyph glyph-name="threesuperior" unicode="&#xb3;" horiz-adv-x="359" 
d="M367 533l-3 -30c-4 -35 -23 -58 -47 -74c23 -22 32 -55 29 -79l-1 -24c-10 -85 -60 -111 -170 -111h-23c-22 0 -55 1 -80 1l7 66c31 0 63 -1 95 -1c41 0 61 12 65 47l2 22c5 33 -9 45 -31 45h-88l8 66h87c22 0 38 11 41 43l4 26c3 35 -28 41 -56 41h-94l7 68l107 1
c83 0 152 -8 141 -107z" />
    <glyph glyph-name="acute" unicode="&#xb4;" horiz-adv-x="310" 
d="M251 777l86 -53l-117 -185l-84 52z" />
    <glyph glyph-name="mu" unicode="&#xb5;" horiz-adv-x="499" 
d="M36 -178l75 676h146l-41 -378c-1 -12 5 -15 16 -15c10 0 31 1 87 26l41 368h146l-56 -500h-133l2 45c-28 -24 -63 -45 -117 -52l-19 -170h-147z" />
    <glyph glyph-name="guilsinglleft" unicode="&#x2039;" horiz-adv-x="292" 
d="M58 255l159 225l98 -73l-105 -152l72 -150l-115 -74z" />
    <glyph glyph-name="guilsinglright" unicode="&#x203a;" horiz-adv-x="292" 
d="M195 480l110 -225l-159 -224l-99 74l107 150l-74 152z" />
    <glyph glyph-name="OE" unicode="&#x152;" horiz-adv-x="813" 
d="M765 0h-476c-113 3 -212 17 -216 178c-1 38 3 94 10 158c26 237 64 332 280 332h476l-13 -111h-262l-18 -161h241l-13 -113h-240l-19 -174h262zM229 138c11 -29 49 -29 72 -29h64l50 449h-64c-67 0 -95 -14 -117 -222c-13 -110 -14 -172 -5 -198z" />
    <glyph glyph-name="oe" unicode="&#x153;" horiz-adv-x="779" 
d="M246 -9c-178 0 -197 59 -176 259c23 205 59 259 233 259c62 0 106 -8 134 -26c33 21 78 29 142 29c140 0 186 -41 186 -153c0 -38 -1 -145 -154 -147l-130 -2c-2 -22 -1 -45 -1 -61c0 -66 29 -68 65 -68c17 0 79 2 166 14l-6 -82c-69 -15 -135 -22 -194 -22
c-56 0 -94 9 -121 27c-34 -19 -80 -27 -144 -27zM257 91c60 0 68 28 82 159c16 136 12 162 -47 162c-57 0 -64 -30 -79 -162c-14 -131 -13 -159 44 -159zM573 424c-60 0 -69 -35 -80 -124h123c15 0 16 30 16 40v12c0 59 -16 72 -59 72z" />
    <glyph glyph-name="cent" unicode="&#xa2;" horiz-adv-x="485" 
d="M193 -9l8 73c-98 10 -140 55 -120 234c22 197 47 271 177 283l8 75h127l-9 -79c36 -3 72 -9 101 -14l-12 -101c-91 8 -154 13 -164 13c-61 0 -66 -32 -82 -180c-13 -109 14 -128 71 -128c39 0 96 5 148 10l-10 -90c-31 -8 -73 -17 -108 -21l-9 -75h-126z" />
    <glyph glyph-name="guillemotright" unicode="&#xbb;" horiz-adv-x="489" 
d="M400 481l108 -227l-159 -227l-98 76l107 151l-74 152zM195 479l110 -225l-159 -224l-99 74l107 150l-74 152z" />
    <glyph glyph-name="paragraph" unicode="&#xb6;" horiz-adv-x="546" 
d="M76 466c18 175 39 216 207 216h272l-95 -866h-92l84 759h-21l-84 -759h-117l53 477c-175 0 -227 -3 -207 173z" />
    <glyph glyph-name="periodcentered" unicode="&#xb7;" horiz-adv-x="252" 
d="M84 310c7 65 17 77 86 77c68 0 77 -10 69 -77c-7 -64 -17 -80 -86 -80s-77 15 -69 80z" />
    <glyph glyph-name="cedilla" unicode="&#xb8;" horiz-adv-x="320" 
d="M238 0l-19 -76c49 -10 55 -33 52 -64c-7 -71 -44 -90 -99 -90c-17 0 -46 3 -87 9l17 64l60 -5c10 0 13 3 15 16c0 3 2 13 -17 13l-50 4l29 129h99z" />
    <glyph glyph-name="onesuperior" unicode="&#xb9;" horiz-adv-x="255" 
d="M80 558l12 88h178l-48 -427h-110l35 339h-67z" />
    <glyph glyph-name="ordmasculine" unicode="&#xba;" horiz-adv-x="365" 
d="M222 353c-92 0 -125 18 -109 163c17 144 45 162 150 162c89 0 115 -31 101 -162c-14 -120 -39 -163 -142 -163zM248 598c-22 0 -26 -13 -33 -81l-2 -18c-5 -50 -7 -62 19 -62c19 2 24 1 33 80c7 68 5 81 -17 81z" />
    <glyph glyph-name="onequarter" unicode="&#xbc;" horiz-adv-x="469" 
d="M387 -44l-9 -85h-47l-13 -120h-92l13 120h-187l6 62l170 243h136l-24 -220h47zM184 -44h66l17 132zM59 303h417l-11 -93h-416zM211 677l11 88h178l-47 -427h-111l35 339h-66z" />
    <glyph glyph-name="onehalf" unicode="&#xbd;" horiz-adv-x="466" 
d="M55 300l416 1l-10 -93h-416zM192 676l11 88h179l-48 -427h-111l35 339h-66zM391 50c-8 -62 -90 -132 -161 -214h133l-9 -82h-280l10 64c107 129 176 192 181 232c1 22 -5 32 -27 32l-135 -2l9 77l126 5c95 3 163 -15 153 -112z" />
    <glyph glyph-name="threequarters" unicode="&#xbe;" horiz-adv-x="466" 
d="M58 303h416l-10 -91h-416zM387 -44l-9 -85h-47l-13 -120h-92l13 120h-187l6 62l170 243h136l-24 -220h47zM184 -44h66l17 132zM448 653l-3 -30c-4 -35 -23 -58 -47 -74c23 -22 32 -55 29 -79l-2 -24c-9 -85 -59 -111 -169 -111h-23c-22 0 -55 1 -80 1l7 66
c31 0 63 -1 95 -1c41 0 61 12 65 47l2 22c4 33 -9 45 -31 45h-88l8 66h87c22 0 38 11 41 43l3 26c4 35 -28 41 -56 41h-94l8 68l107 1c83 0 152 -8 141 -107z" />
    <glyph glyph-name="questiondown" unicode="&#xbf;" horiz-adv-x="420" 
d="M373 -189h-129c-126 0 -240 7 -222 166l2 23c12 114 70 175 205 175l13 119h140l-25 -225l-123 1c-32 0 -55 -18 -60 -70l-2 -15c-8 -74 23 -73 78 -73h134zM400 430c-6 -62 -14 -74 -80 -74c-64 0 -73 10 -66 74c7 60 17 75 83 75s71 -15 63 -75z" />
    <glyph glyph-name="exclamdown" unicode="&#xa1;" horiz-adv-x="236" 
d="M28 -211l59 544h144l-59 -544h-144zM101 449c6 60 15 76 81 76c65 0 71 -17 65 -76c-8 -65 -18 -73 -81 -73c-66 0 -72 11 -65 73z" />
    <glyph glyph-name="AE" unicode="&#xc6;" horiz-adv-x="769" 
d="M728 0h-291l-50 248h-129l-106 -248h-154l285 667h517l-12 -110h-311l33 -161h237l-13 -113h-199l35 -174h170zM366 357l-10 144l-55 -144h65z" />
    <glyph glyph-name="ae" unicode="&#xe6;" horiz-adv-x="737" 
d="M727 359c0 -38 -1 -145 -154 -147l-129 -2c-3 -22 -2 -45 -2 -61c0 -66 30 -68 66 -68c17 0 78 2 165 14l-6 -82c-69 -15 -135 -22 -194 -22c-81 0 -127 18 -150 60c-70 -45 -106 -60 -144 -60c-110 0 -131 82 -131 173c0 32 1 62 6 118c16 158 67 226 183 226
c28 0 97 -8 167 -22c32 18 76 26 137 26c140 0 186 -41 186 -153zM256 418c-45 -7 -58 -111 -62 -154c-2 -32 -17 -181 18 -181c36 0 71 34 82 47l34 284c-21 2 -46 8 -72 4zM535 424c-60 0 -69 -35 -80 -124h124c14 0 15 30 15 40v12c0 59 -16 72 -59 72z" />
    <glyph glyph-name="divide" unicode="&#xf7;" horiz-adv-x="493" 
d="M65 194l14 126h408l-15 -126h-407zM337 89c-9 -74 -17 -84 -87 -84c-71 0 -75 15 -67 79c7 65 14 77 84 77c66 0 77 -7 70 -72zM375 438c-8 -74 -18 -84 -86 -84c-73 0 -77 16 -69 80c7 65 16 77 86 77c63 0 76 -9 69 -73z" />
    <glyph glyph-name="multiply" unicode="&#xd7;" horiz-adv-x="509" 
d="M428 476l73 -92l-141 -140l110 -138l-93 -91l-111 137l-140 -139l-71 93l138 138l-107 140l92 92l111 -138z" />
    <glyph glyph-name="afii10023" unicode="&#x401;" horiz-adv-x="520" 
d="M477 0h-413l74 668h413l-13 -112h-264l-18 -160h242l-13 -113h-241l-19 -172h264zM205 797c7 59 14 68 75 68s68 -8 61 -68c-5 -54 -13 -69 -76 -69c-62 0 -65 14 -60 69zM376 797c7 59 13 68 75 68c59 0 67 -8 60 -68c-5 -54 -15 -69 -75 -69c-63 0 -65 14 -60 69z" />
    <glyph glyph-name="afii10051" unicode="&#x402;" horiz-adv-x="598" 
d="M337 0h-151l61 557h-171l11 110h493l-11 -110h-170l-16 -134c44 16 90 17 96 17c99 0 128 -62 111 -209c-18 -158 -64 -242 -168 -242c-21 0 -30 4 -62 12l12 98l11 -1h12c24 0 35 6 46 100c11 100 18 132 -32 132c-10 0 -22 -1 -36 -3z" />
    <glyph glyph-name="afii10052" unicode="&#x403;" horiz-adv-x="477" 
d="M137 667h401l-12 -113h-249l-61 -553h-152zM290 726l-47 95l191 131l48 -102z" />
    <glyph glyph-name="afii10053" unicode="&#x404;" horiz-adv-x="537" 
d="M507 126l-9 -99c-82 -22 -161 -36 -224 -36c-175 0 -221 73 -190 345c30 280 105 343 276 343c51 0 137 -8 211 -28l-19 -104c-92 19 -162 25 -206 25c-57 0 -85 -40 -105 -177h252l-12 -108h-252c-15 -154 -1 -189 61 -189c28 0 139 13 217 28z" />
    <glyph glyph-name="afii10054" unicode="&#x405;" horiz-adv-x="508" 
d="M238 516c-9 -84 281 -129 258 -340c-15 -129 -104 -186 -215 -186c-79 0 -135 5 -216 10l11 107s133 -7 211 -7c33 0 50 19 57 65c14 108 -280 134 -259 329c15 130 103 186 216 186c115 0 164 -5 217 -9l-11 -107s-140 7 -211 7c-31 0 -53 -16 -58 -55z" />
    <glyph glyph-name="uni0406" unicode="&#x406;" horiz-adv-x="265" 
d="M287 667l-73 -667h-150l73 667h150z" />
    <glyph glyph-name="afii10056" unicode="&#x407;" horiz-adv-x="260" 
d="M283 667l-73 -667h-150l73 667h150zM74 800c6 58 13 67 74 67c60 0 69 -8 63 -67c-7 -56 -17 -71 -78 -71s-66 14 -59 71zM244 800c6 58 12 67 74 67c60 0 67 -8 61 -67c-6 -56 -14 -71 -77 -71c-61 0 -64 14 -58 71z" />
    <glyph glyph-name="afii10057" unicode="&#x408;" horiz-adv-x="322" 
d="M348 669l-58 -528c-15 -125 -70 -153 -188 -150l-89 2l10 93c54 3 115 -6 123 63l57 520h145z" />
    <glyph glyph-name="afii10058" unicode="&#x409;" horiz-adv-x="840" 
d="M88 130l60 537h396l-27 -244c87 0 117 -1 140 -3c94 -5 184 -37 168 -172l-8 -76c-15 -135 -116 -172 -238 -172h-259l62 554h-98l-46 -408c-13 -124 -72 -155 -150 -155c-7 0 -12 0 -62 8l9 76c49 8 51 31 53 55zM505 315l-24 -211h105c39 0 77 10 84 69l9 75
c6 60 -30 67 -70 67h-104z" />
    <glyph glyph-name="afii10059" unicode="&#x40a;" horiz-adv-x="876" 
d="M290 668l-28 -246h142l27 245h150l-27 -245h55c122 0 272 -1 253 -174l-8 -76c-15 -135 -115 -172 -238 -172h-258l34 312h-142l-34 -312h-152l74 668h152zM543 315l-24 -211h104c39 0 78 10 85 69l8 75c7 60 -28 67 -70 67h-103z" />
    <glyph glyph-name="afii10060" unicode="&#x40b;" horiz-adv-x="625" 
d="M76 565l12 110h492l-12 -110h-181l-17 -154c32 16 84 32 117 32c93 0 131 -44 122 -130l-34 -313h-145l33 297c6 58 -56 31 -103 17l-34 -314h-145l62 565h-167z" />
    <glyph glyph-name="afii10061" unicode="&#x40c;" horiz-adv-x="562" 
d="M213 0h-149l74 668h149l-31 -276h33l178 276h162l-213 -323l146 -345h-159l-124 285h-35zM354 730l-42 96l190 130l47 -102z" />
    <glyph glyph-name="afii10062" unicode="&#x40e;" horiz-adv-x="465" 
d="M445 874l30 -74c-34 -35 -97 -72 -151 -72s-107 33 -140 72l50 78c35 -33 68 -56 96 -56c29 0 69 23 115 52zM74 22l29 62c12 -4 19 -6 25 -8c10 -3 22 -8 32 3c13 14 29 48 52 95h-58l-62 500h145l25 -350l138 350h140l-239 -582c-35 -85 -80 -106 -133 -106
c-28 0 -62 10 -94 36z" />
    <glyph glyph-name="afii10145" unicode="&#x40f;" horiz-adv-x="616" 
d="M64 0l73 666h151l-61 -557h187l61 557h151l-73 -666h-168l-16 -140h-152l16 140h-169z" />
    <glyph glyph-name="afii10017" unicode="&#x410;" 
d="M145 0h-146l244 667h226l102 -667h-144l-24 169h-200zM345 554l-100 -268h142z" />
    <glyph glyph-name="afii10018" unicode="&#x411;" horiz-adv-x="571" 
d="M321 0h-257l73 667h394l-12 -108h-243l-15 -136c125 0 148 -2 170 -4c86 -11 152 -46 139 -171l-8 -76c-16 -135 -118 -172 -241 -172zM249 315l-23 -211h102c40 0 79 10 86 69l8 75c6 60 -30 67 -70 67h-103z" />
    <glyph glyph-name="afii10019" unicode="&#x412;" horiz-adv-x="534" 
d="M249 0h-185l74 668h185c128 0 239 -15 221 -173l-5 -43c-6 -54 -31 -88 -66 -114c31 -32 44 -87 40 -126l-5 -40c-15 -136 -93 -172 -259 -172zM243 275l-18 -169l40 -1c58 -2 88 16 94 73l5 35c5 51 -16 62 -47 62h-74zM316 565h-41l-19 -173h74c32 0 54 13 60 62l3 33
c8 73 -22 78 -77 78z" />
    <glyph glyph-name="afii10020" unicode="&#x413;" horiz-adv-x="472" 
d="M137 667h400l-11 -111h-252l-61 -556h-149z" />
    <glyph glyph-name="afii10021" unicode="&#x414;" horiz-adv-x="640" 
d="M211 667h414l-62 -563h63l-26 -238h-147l15 134h-307l-15 -134h-146l25 238h61c71 107 85 199 100 338zM465 563h-117c-19 -167 -20 -179 -21 -192c-9 -84 -24 -158 -86 -267h173z" />
    <glyph glyph-name="afii10022" unicode="&#x415;" horiz-adv-x="518" 
d="M477 0h-413l74 668h413l-13 -112h-264l-18 -160h242l-13 -113h-241l-19 -172h264z" />
    <glyph glyph-name="afii10024" unicode="&#x416;" horiz-adv-x="834" 
d="M489 0h-143l24 224h-54l-150 -224h-152l184 275l-132 397h146l114 -342h56l38 339h143l-38 -339h55l136 339h149l-168 -394l125 -275h-152l-101 224h-56z" />
    <glyph glyph-name="afii10025" unicode="&#x417;" horiz-adv-x="453" 
d="M457 491l-5 -47c-7 -56 -32 -89 -67 -115c33 -34 45 -84 41 -123l-5 -36c-14 -133 -84 -171 -237 -171h-32c-31 0 -76 2 -111 2l11 101c43 0 88 -2 132 -2c58 0 86 18 92 74l4 32c5 53 -14 70 -45 70h-121l12 102h121c31 0 54 18 59 68l4 39c7 55 -39 68 -77 68
c-68 0 -108 -2 -131 -2l11 102l149 2c116 0 211 -12 195 -164z" />
    <glyph glyph-name="afii10026" unicode="&#x418;" horiz-adv-x="655" 
d="M232 0h-168l74 668h147l-49 -428l247 428h186l-74 -668h-135l51 468z" />
    <glyph glyph-name="afii10027" unicode="&#x419;" horiz-adv-x="655" 
d="M527 874l31 -74c-33 -35 -97 -72 -151 -72c-53 0 -106 33 -140 72l51 78c35 -33 67 -56 96 -56c28 0 68 23 113 52zM232 0h-168l74 668h147l-49 -428l247 428h186l-74 -668h-135l51 468z" />
    <glyph glyph-name="afii10028" unicode="&#x41a;" horiz-adv-x="563" 
d="M213 0h-149l74 668h149l-31 -276h33l178 276h162l-213 -323l146 -345h-159l-124 285h-35z" />
    <glyph glyph-name="afii10029" unicode="&#x41b;" horiz-adv-x="561" 
d="M88 130l60 536h428l-73 -666h-150l61 554h-130l-46 -408c-13 -124 -72 -155 -150 -155c-11 0 -18 0 -62 8l9 76c49 8 51 31 53 55z" />
    <glyph glyph-name="afii10030" unicode="&#x41c;" horiz-adv-x="814" 
d="M209 0h-144l74 668h197l102 -348l180 348h210l-74 -668h-147l52 474l-189 -375h-110l-100 372z" />
    <glyph glyph-name="afii10031" unicode="&#x41d;" horiz-adv-x="604" 
d="M544 0h-152l32 287h-177l-32 -287h-151l74 668h151l-31 -273h178l30 273h151z" />
    <glyph glyph-name="afii10032" unicode="&#x41e;" horiz-adv-x="583" 
d="M291 -8c-178 4 -237 58 -206 343c27 248 67 343 281 343c177 0 245 -37 212 -343c-33 -288 -106 -343 -287 -343zM305 98c83 0 100 39 124 237c16 170 9 238 -72 238c-74 0 -96 -31 -119 -238c-27 -238 3 -237 67 -237z" />
    <glyph glyph-name="afii10033" unicode="&#x41f;" horiz-adv-x="552" 
d="M274 554l-62 -554h-148l73 666h429l-73 -666h-150l61 554h-130z" />
    <glyph glyph-name="afii10034" unicode="&#x420;" horiz-adv-x="570" 
d="M216 0h-151l73 667h244c122 0 217 -35 202 -172l-8 -76c-13 -117 -85 -156 -174 -171c-22 -4 -41 -4 -160 -4zM278 563l-23 -211h91c39 0 76 8 82 67l8 75c8 61 -29 69 -67 69h-91z" />
    <glyph glyph-name="afii10035" unicode="&#x421;" horiz-adv-x="526" 
d="M241 298l-3 -25c-16 -145 15 -167 91 -167c37 0 114 4 174 9l-12 -99c-67 -14 -139 -25 -194 -25c-180 0 -251 33 -220 311c32 287 62 377 276 377c0 0 112 0 210 -15l-12 -111c-107 9 -191 8 -205 8c-79 0 -81 -44 -105 -263z" />
    <glyph glyph-name="afii10036" unicode="&#x422;" horiz-adv-x="520" 
d="M337 0h-153l62 557h-170l11 110h493l-12 -110h-170z" />
    <glyph glyph-name="afii10037" unicode="&#x423;" horiz-adv-x="466" 
d="M70 17l30 62c12 -4 19 -6 24 -8c10 -3 23 -8 33 3c12 14 28 48 52 95h-59l-62 500h145l25 -350l139 350h139l-238 -582c-35 -85 -80 -106 -133 -106c-28 0 -62 10 -95 36z" />
    <glyph glyph-name="afii10038" unicode="&#x424;" horiz-adv-x="733" 
d="M292 0l9 89c-174 8 -252 46 -233 249c20 156 64 229 287 243l9 86h152l-9 -83c190 -7 247 -52 226 -246c-18 -156 -60 -231 -280 -248l-10 -90h-151zM214 337c-11 -99 6 -126 99 -133l29 263c-104 -6 -118 -39 -128 -130zM591 338c10 91 3 123 -97 129l-29 -263
c90 7 115 35 126 134z" />
    <glyph glyph-name="afii10039" unicode="&#x425;" horiz-adv-x="547" 
d="M545 0h-158l-87 200l-128 -200h-160l221 337l-143 330h159l81 -186l123 186h158l-214 -328z" />
    <glyph glyph-name="afii10040" unicode="&#x426;" horiz-adv-x="637" 
d="M64 0l73 666h149l-61 -556h188l61 556h151l-61 -556h61l-23 -211h-146l12 101h-404z" />
    <glyph glyph-name="afii10041" unicode="&#x427;" horiz-adv-x="502" 
d="M112 666h149l-31 -280c-1 -8 5 -11 9 -11c6 0 57 5 99 17l30 274h150l-73 -666h-144l30 278c-43 -13 -83 -18 -124 -18c-93 0 -135 47 -125 134z" />
    <glyph glyph-name="afii10042" unicode="&#x428;" horiz-adv-x="837" 
d="M413 667h150l-61 -558h127l61 558h150l-73 -667h-703l73 667h151l-61 -558h125z" />
    <glyph glyph-name="afii10043" unicode="&#x429;" horiz-adv-x="863" 
d="M414 667h152l-61 -557h124l61 557h151l-61 -557h62l-23 -211h-147l12 101h-620l73 667h152l-61 -557h125z" />
    <glyph glyph-name="afii10044" unicode="&#x42a;" horiz-adv-x="606" 
d="M89 667h231l-27 -244c119 0 146 -1 170 -4c89 -10 150 -70 139 -171l-8 -76c-15 -135 -117 -172 -239 -172h-257l61 557h-82zM282 315l-24 -211h105c39 0 77 10 84 69l8 75c7 60 -28 67 -69 67h-104z" />
    <glyph glyph-name="afii10045" unicode="&#x42b;" horiz-adv-x="761" 
d="M809 667l-73 -667h-147l72 667h148zM137 667h148l-26 -243l113 2c127 0 210 -44 196 -178l-8 -76c-16 -135 -117 -172 -240 -172h-256zM247 315l-24 -211h105c40 0 77 10 84 69l8 75c7 60 -28 67 -68 67h-105z" />
    <glyph glyph-name="afii10046" unicode="&#x42c;" horiz-adv-x="569" 
d="M137 667h149l-26 -241h113c127 0 210 -47 196 -178l-8 -76c-16 -135 -118 -172 -241 -172h-256zM247 315l-24 -211h105c37 0 76 10 83 69l8 75c7 60 -28 67 -68 67h-104z" />
    <glyph glyph-name="afii10092" unicode="&#x44a;" horiz-adv-x="487" 
d="M76 498h203l-19 -171c102 -2 125 -1 146 -6c48 -12 77 -49 68 -133l-6 -52c-12 -108 -93 -136 -188 -136h-202l43 392h-56zM248 222l-13 -120h53c17 0 35 3 39 34l6 52c3 31 -13 34 -32 34h-53z" />
    <glyph glyph-name="afii10093" unicode="&#x44b;" horiz-adv-x="641" 
d="M677 501l-55 -501h-143l55 501h143zM111 498h145l-18 -171c101 -2 125 -1 145 -6c49 -12 78 -49 69 -133l-7 -52c-11 -108 -92 -136 -188 -136h-201zM226 222l-14 -120h53c18 0 36 3 39 34l6 52c3 31 -12 34 -31 34h-53z" />
    <glyph glyph-name="afii10047" unicode="&#x42d;" horiz-adv-x="533" 
d="M45 27l13 101c76 -16 185 -30 210 -30c61 0 83 39 104 189h-252l11 108h252c10 140 -6 177 -64 177c-44 0 -120 -8 -210 -25l-1 104c79 20 168 28 219 28c170 0 232 -63 201 -343c-30 -272 -94 -345 -270 -345c-62 0 -137 14 -213 36z" />
    <glyph glyph-name="afii10048" unicode="&#x42e;" horiz-adv-x="776" 
d="M285 667l-29 -275h40c28 205 77 286 275 286c176 0 244 -37 211 -343c-32 -291 -106 -343 -288 -343c-162 4 -233 50 -211 292h-40l-31 -284h-148l73 667h148zM509 98c83 0 100 39 125 237c15 170 10 238 -72 238c-76 0 -98 -31 -120 -238c-27 -238 3 -237 67 -237z" />
    <glyph glyph-name="afii10049" unicode="&#x42f;" horiz-adv-x="581" 
d="M524 0h-151l26 244h-72c-18 0 -32 0 -49 1l-66 -245h-155c23 86 55 203 80 289c-38 37 -53 78 -48 130l8 76c15 137 118 172 240 172h260zM411 352l24 211h-105c-39 0 -76 -8 -83 -69l-9 -75c-6 -59 29 -67 69 -67h104z" />
    <glyph glyph-name="afii10065" unicode="&#x430;" horiz-adv-x="474" 
d="M60 282c16 158 68 226 183 226c37 0 142 -12 229 -37l-48 -474h-111l-6 45c-18 -22 -69 -51 -122 -51c-109 0 -131 82 -131 173c0 32 1 62 6 118zM263 418c-45 -7 -59 -111 -62 -154c-3 -32 -17 -181 18 -181c36 0 70 34 82 47l33 284c-21 2 -46 8 -71 4z" />
    <glyph glyph-name="afii10066" unicode="&#x431;" horiz-adv-x="489" 
d="M595 719l-13 -104c-31 -5 -113 3 -190 -26c-43 -16 -91 -49 -115 -80h19c180 0 197 -84 179 -246c-21 -197 -58 -270 -236 -270c-164 0 -184 79 -163 270c0 -5 -1 -11 -1 -15c54 493 338 451 520 471zM286 406c-42 0 -50 -37 -62 -143c-13 -121 -14 -168 28 -168
c52 0 61 50 75 168c10 98 18 142 -41 143z" />
    <glyph glyph-name="afii10067" unicode="&#x432;" horiz-adv-x="436" 
d="M206 0h-150l55 499h150c97 0 186 -12 173 -133l-2 -16c-5 -50 -13 -72 -45 -99c24 -36 26 -73 23 -104l-1 -11c-16 -109 -72 -136 -203 -136zM230 397l-10 -97h62c10 0 19 10 21 33l3 24c5 47 -29 40 -76 40zM210 205l-12 -102h49c23 0 33 15 36 38l2 24
c6 47 -29 40 -75 40z" />
    <glyph glyph-name="afii10068" unicode="&#x433;" horiz-adv-x="392" 
d="M111 499h321l-12 -108h-173l-44 -391h-147z" />
    <glyph glyph-name="afii10069" unicode="&#x434;" horiz-adv-x="508" 
d="M158 498h330l-44 -396h45l-22 -195h-140l10 93h-180l-10 -93h-140l22 195h49c39 63 50 125 60 212zM335 396h-46l-8 -75c-8 -73 -16 -136 -56 -219h77z" />
    <glyph glyph-name="afii10070" unicode="&#x435;" horiz-adv-x="485" 
d="M483 359c0 -38 -1 -145 -154 -147l-129 -2c-3 -22 -2 -45 -2 -61c0 -66 30 -68 66 -68c17 0 78 2 165 14l-6 -82c-68 -15 -135 -22 -194 -22c-126 0 -168 44 -168 156c0 29 3 62 6 104c23 201 57 261 230 261c140 0 186 -41 186 -153zM292 424c-61 0 -70 -35 -81 -124
h124c14 0 15 30 15 40v12c0 59 -16 72 -58 72z" />
    <glyph glyph-name="afii10072" unicode="&#x436;" horiz-adv-x="764" 
d="M454 0h-143l26 187h-30l-155 -187h-151l189 229l-120 269h150l97 -227h31l29 227h143l-29 -227h28l134 230h150l-167 -272l126 -229h-151l-104 187h-27z" />
    <glyph glyph-name="afii10073" unicode="&#x437;" horiz-adv-x="377" 
d="M376 366l-3 -35c-8 -43 -14 -61 -42 -82c16 -27 26 -61 23 -87l-3 -27c-12 -106 -72 -136 -195 -136c-49 0 -59 1 -117 1l10 97h92c42 0 62 3 66 41l4 25c3 36 -11 35 -34 35h-86l11 101h86c23 0 37 -2 41 33l3 30c4 35 -12 38 -35 38c-13 0 -29 -1 -115 -1l11 96l109 2
c99 0 189 -4 174 -131z" />
    <glyph glyph-name="afii10074" unicode="&#x438;" horiz-adv-x="501" 
d="M208 0h-152l55 499h145l-30 -269l138 269h135l-55 -499h-143l25 230z" />
    <glyph glyph-name="afii10075" unicode="&#x439;" horiz-adv-x="499" 
d="M468 623c-32 -35 -96 -73 -151 -73c-53 0 -106 33 -140 73c16 25 34 52 51 77c35 -33 68 -56 97 -56s67 22 113 52c10 -24 20 -49 30 -73zM208 0h-152l55 499h145l-30 -269l138 269h135l-55 -499h-143l25 230z" />
    <glyph glyph-name="afii10076" unicode="&#x43a;" horiz-adv-x="523" 
d="M198 0h-142l69 501h142l-32 -229h38l143 226h150l-176 -269l127 -229h-153l-104 186h-37z" />
    <glyph glyph-name="afii10077" unicode="&#x43b;" horiz-adv-x="459" 
d="M77 106l44 395h343l-55 -501h-145l43 393h-53l-31 -274c-11 -101 -61 -126 -127 -126c-13 0 -20 0 -64 9l8 78c35 6 36 15 37 26z" />
    <glyph glyph-name="afii10078" unicode="&#x43c;" horiz-adv-x="569" 
d="M198 3h-142l55 499h147l68 -180l105 180h149l-54 -499h-142l25 262l-79 -145h-63l-45 141z" />
    <glyph glyph-name="afii10079" unicode="&#x43d;" horiz-adv-x="486" 
d="M431 0h-145l22 202h-87l-21 -202h-144l55 499h144l-22 -191h86l22 191h145z" />
    <glyph glyph-name="afii10080" unicode="&#x43e;" horiz-adv-x="488" 
d="M240 -8c-170 0 -191 74 -170 268c17 153 42 249 227 249c180 0 196 -76 176 -249c-21 -198 -56 -268 -233 -268zM251 95c54 0 62 44 75 165c12 107 17 146 -41 146c-47 0 -54 -33 -66 -146c-14 -123 -15 -165 32 -165z" />
    <glyph glyph-name="afii10081" unicode="&#x43f;" horiz-adv-x="447" 
d="M243 392l-43 -392h-144l55 500h342l-55 -500h-146l43 392h-52z" />
    <glyph glyph-name="afii10082" unicode="&#x440;" horiz-adv-x="476" 
d="M464 244l-2 -27c-22 -160 -63 -227 -186 -227c-27 0 -42 4 -77 7l-20 -177h-144l76 680h119l5 -34c30 18 72 40 105 40c107 0 145 -77 124 -262zM317 220c12 121 18 170 -14 170c-13 0 -34 -9 -64 -26l-28 -256c18 -3 37 -3 52 -3h-1c37 0 48 63 55 115z" />
    <glyph glyph-name="afii10083" unicode="&#x441;" horiz-adv-x="457" 
d="M217 223c-13 -110 10 -126 67 -126c35 0 104 5 150 9l-11 -90c-58 -14 -137 -25 -185 -25c-136 0 -194 25 -171 235c25 216 51 284 213 284c0 0 114 -5 192 -19l-11 -99c-92 7 -156 12 -167 12c-59 0 -61 -32 -77 -181z" />
    <glyph glyph-name="afii10084" unicode="&#x442;" horiz-adv-x="434" 
d="M289 0h-147l43 394h-127l12 106h401l-12 -106h-127z" />
    <glyph glyph-name="afii10085" unicode="&#x443;" horiz-adv-x="473" 
d="M58 -152l29 62c12 -4 19 -6 25 -8c9 -3 22 -8 32 3c13 14 29 48 52 95h-58l-62 500h144l26 -350l138 350h140l-239 -582c-35 -85 -80 -106 -133 -106c-28 0 -62 10 -94 36z" />
    <glyph glyph-name="afii10086" unicode="&#x444;" horiz-adv-x="598" 
d="M573 256l-2 -18c-20 -184 -81 -212 -162 -212c-12 0 -25 1 -38 2l-24 -209h-142l24 207c-99 0 -180 -7 -156 212l2 18c18 163 69 204 181 204h20l21 189h142l-21 -191c12 1 24 2 35 2c100 0 137 -50 120 -204zM218 254c-14 -119 -9 -126 20 -128l25 226h-7
c-25 0 -31 -27 -38 -98zM430 254c3 29 16 99 -22 99l-26 -227c29 5 34 -2 48 128z" />
    <glyph glyph-name="afii10087" unicode="&#x445;" horiz-adv-x="438" 
d="M436 0h-146l-48 116l-72 -116h-151l160 248l-102 251h149l46 -115l66 115h150l-157 -251z" />
    <glyph glyph-name="afii10088" unicode="&#x446;" horiz-adv-x="511" 
d="M56 0l55 500h144l-44 -394h93l43 394h146l-43 -394h43l-20 -177h-142l8 71h-283z" />
    <glyph glyph-name="afii10089" unicode="&#x447;" horiz-adv-x="413" 
d="M91 500h144l-23 -199c-1 -20 37 -16 39 -5l23 204h143l-55 -500h-139l22 196c-23 -6 -47 -13 -70 -13c-76 0 -115 37 -107 111z" />
    <glyph glyph-name="afii10090" unicode="&#x448;" horiz-adv-x="652" 
d="M305 498h146l-43 -392h49l43 392h143l-54 -498h-533l55 498h145l-44 -392h50z" />
    <glyph glyph-name="afii10091" unicode="&#x449;" horiz-adv-x="674" 
d="M306 499h145l-43 -393h50l43 393h145l-43 -393h42l-20 -177h-141l8 71h-436l55 499h146l-43 -393h49z" />
    <glyph glyph-name="afii10094" unicode="&#x44c;" horiz-adv-x="461" 
d="M111 501h145l-19 -172c52 0 92 0 118 -6c63 -14 107 -56 99 -134l-7 -53c-11 -108 -95 -136 -191 -136h-200zM225 222l-14 -120h54c18 0 36 3 39 35l6 52c3 30 -13 33 -31 33h-54z" />
    <glyph glyph-name="afii10095" unicode="&#x44d;" horiz-adv-x="436" 
d="M41 23l13 98c65 -14 151 -23 170 -23c31 0 39 14 51 105h-180l12 106h180c6 88 -4 97 -32 97c-30 0 -91 -7 -166 -18l-1 100c67 16 139 24 176 24c136 0 186 -48 163 -260c-23 -204 -74 -261 -213 -261c-47 0 -108 13 -173 32z" />
    <glyph glyph-name="afii10096" unicode="&#x44e;" horiz-adv-x="668" 
d="M202 0h-146l55 499h146l-21 -192h29c19 126 56 202 222 202c180 0 195 -76 175 -249c-21 -198 -56 -268 -232 -268c-149 0 -186 65 -175 213h-30zM441 94c54 0 63 44 76 166l3 19c11 96 11 129 -44 129c-48 0 -56 -35 -68 -148c-14 -124 -15 -166 33 -166z" />
    <glyph glyph-name="afii10097" unicode="&#x44f;" horiz-adv-x="469" 
d="M419 0h-146l19 172h-51l-45 -172h-149l58 214c-26 27 -34 55 -29 97l5 53c13 109 93 137 190 137h203zM303 280l13 118h-55c-17 0 -33 -3 -37 -35l-5 -49c-4 -30 12 -34 29 -34h55z" />
    <glyph glyph-name="afii61352" unicode="&#x2116;" horiz-adv-x="921" 
d="M806 357c-91 0 -124 19 -109 163c17 144 45 162 150 162c89 0 115 -31 101 -162c-13 -120 -39 -163 -142 -163zM832 602c-22 0 -25 -13 -33 -81l-2 -17c-5 -51 -6 -63 20 -63c19 2 24 1 32 80c8 68 5 81 -17 81zM925 249h-263l10 87h263zM595 0h-168l-177 468l-51 -468
h-135l74 668h185l152 -428l46 428h148z" />
    <glyph glyph-name="afii10071" unicode="&#x451;" horiz-adv-x="484" 
d="M155 621c6 56 12 67 74 67c57 0 66 -10 60 -67c-6 -55 -16 -69 -76 -69c-61 0 -65 13 -58 69zM321 621c7 56 13 67 73 67s68 -10 61 -67c-6 -55 -14 -69 -76 -69c-60 0 -64 13 -58 69zM483 359c0 -38 -1 -145 -154 -147l-129 -2c-3 -22 -2 -45 -2 -61
c0 -66 30 -68 66 -68c17 0 78 2 165 14l-6 -82c-68 -15 -135 -22 -194 -22c-126 0 -168 44 -168 156c0 29 3 62 6 104c23 201 57 261 230 261c140 0 186 -41 186 -153zM292 424c-61 0 -70 -35 -81 -124h124c14 0 15 30 15 40v12c0 59 -16 72 -58 72z" />
    <glyph glyph-name="afii10099" unicode="&#x452;" horiz-adv-x="494" 
d="M68 543l9 81h44l5 49h144l-5 -49h82l-9 -81h-82l-8 -70c39 21 79 34 117 34c93 0 131 -44 122 -130l-47 -411c-13 -125 -66 -150 -144 -150c-5 0 -16 0 -67 7l9 73c45 8 56 31 58 54l46 419c3 25 -11 34 -29 34c-24 0 -57 -15 -75 -25l-41 -378h-145l60 543h-44z" />
    <glyph glyph-name="afii10100" unicode="&#x453;" horiz-adv-x="395" 
d="M111 499h321l-12 -108h-173l-44 -391h-147zM247 552l-45 93l184 128l49 -100z" />
    <glyph glyph-name="afii10101" unicode="&#x454;" horiz-adv-x="436" 
d="M407 119l-6 -96c-68 -19 -130 -32 -180 -32c-138 0 -174 56 -152 260c24 211 82 258 216 258c41 0 108 -6 170 -23l-19 -100c-74 11 -134 18 -163 18c-28 0 -40 -8 -53 -96h180l-12 -106h-179c-7 -90 -1 -105 27 -105c19 0 105 10 171 22z" />
    <glyph glyph-name="afii10102" unicode="&#x455;" horiz-adv-x="434" 
d="M218 376c-6 -43 218 -74 200 -235c-11 -99 -89 -144 -181 -144c-89 0 -181 13 -181 13l11 104s86 -12 156 -12c24 0 43 4 45 28c7 61 -216 73 -198 234c11 100 86 145 180 145c90 0 182 -13 182 -13l-11 -105s-106 12 -179 12c-14 0 -22 -9 -24 -27z" />
    <glyph glyph-name="afii10103" unicode="&#x456;" horiz-adv-x="246" 
d="M202 0h-146l55 499h146zM119 632c8 70 15 80 88 80c69 0 78 -6 70 -80c-7 -65 -16 -81 -88 -81c-73 0 -77 15 -70 81z" />
    <glyph glyph-name="afii10104" unicode="&#x457;" horiz-adv-x="246" 
d="M201 0h-147l55 499h147zM46 621c6 57 13 67 75 67c57 0 65 -9 59 -67c-6 -55 -16 -68 -75 -68c-61 0 -65 13 -59 68zM213 621c7 57 13 67 73 67s68 -9 61 -67c-6 -55 -14 -68 -76 -68c-60 0 -64 13 -58 68z" />
    <glyph glyph-name="afii10105" unicode="&#x458;" horiz-adv-x="241" 
d="M-18 -172l8 73c45 8 54 30 57 54l60 545h146l-59 -531c-13 -123 -71 -148 -145 -148c-7 0 -17 0 -67 7zM116 630c7 70 14 80 87 80c70 0 80 -6 71 -80c-7 -65 -18 -81 -89 -81c-73 0 -76 15 -69 81z" />
    <glyph glyph-name="afii10106" unicode="&#x459;" horiz-adv-x="662" 
d="M78 106l43 396h320l-19 -173c16 0 52 1 62 1c93 0 168 -21 155 -140l-6 -54c-12 -108 -93 -136 -191 -136h-202l43 394h-29l-31 -275c-11 -100 -61 -126 -127 -126c-9 0 -15 0 -64 12l8 75c36 6 36 15 38 26zM410 222l-13 -120h54c18 0 36 3 39 35l7 53
c2 29 -14 32 -33 32h-54z" />
    <glyph glyph-name="afii10107" unicode="&#x45a;" horiz-adv-x="679" 
d="M256 500l-18 -174h60l19 173h146l-19 -172c52 2 80 -1 95 -1c68 -5 130 -47 120 -137l-7 -53c-11 -108 -90 -136 -190 -136h-200l23 219h-60l-23 -219h-146l55 500h145zM432 221l-14 -118h54c17 0 34 2 37 33l7 53c2 29 -13 32 -31 32h-53z" />
    <glyph glyph-name="afii10108" unicode="&#x45b;" horiz-adv-x="498" 
d="M68 541l9 84h42l5 48h144l-5 -48h98l-9 -84h-98l-7 -63c38 16 78 29 117 29c92 0 130 -44 121 -130l-41 -377h-144l40 369c6 48 -67 29 -102 14l-43 -383h-145l60 541h-42z" />
    <glyph glyph-name="afii10109" unicode="&#x45c;" horiz-adv-x="537" 
d="M348 543l-45 94l186 127l47 -98zM198 0h-142l69 501h142l-32 -229h38l143 226h150l-176 -269l127 -229h-153l-104 186h-37z" />
    <glyph glyph-name="afii10110" unicode="&#x45e;" horiz-adv-x="473" 
d="M425 696l30 -73c-33 -35 -97 -73 -151 -73s-107 33 -140 73l50 77c35 -33 69 -56 97 -56c29 0 68 23 114 52zM58 -152l29 62c12 -4 19 -6 25 -8c9 -3 22 -8 32 3c13 14 29 48 52 95h-58l-62 500h144l26 -350l138 350h140l-239 -582c-35 -85 -80 -106 -133 -106
c-28 0 -62 10 -94 36z" />
    <glyph glyph-name="afii10193" unicode="&#x45f;" horiz-adv-x="495" 
d="M56 0l55 502h145l-44 -396h94l43 396h147l-55 -502h-122l-11 -98h-145l12 98h-119z" />
    <glyph glyph-name="A" unicode="A" 
d="M145 0h-146l244 667h226l102 -667h-144l-24 169h-200zM345 554l-100 -268h142z" />
    <glyph glyph-name="Zcaron" unicode="&#x17d;" horiz-adv-x="530" 
d="M499 0h-468l9 92l340 465h-282l13 112h454l-11 -96l-334 -463h290zM475 933l46 -74l-165 -134l-139 131l56 75l94 -79z" />
    <glyph glyph-name="zcaron" unicode="&#x17e;" horiz-adv-x="421" 
d="M40 80l216 316h-177l12 105h348l-9 -82l-214 -313h184l-12 -106h-356zM395 754l46 -74l-165 -134l-139 131l56 75l94 -79z" />
    <glyph glyph-name="Scaron" unicode="&#x160;" horiz-adv-x="511" 
d="M465 938l46 -74l-165 -134l-140 131l56 75l95 -79zM238 516c-9 -84 281 -129 258 -340c-15 -129 -104 -186 -215 -186c-79 0 -135 5 -216 10l11 107s133 -7 211 -7c33 0 50 19 57 65c14 108 -280 134 -259 329c15 130 103 186 216 186c115 0 164 -5 217 -9l-11 -107
s-140 7 -211 7c-31 0 -53 -16 -58 -55z" />
    <glyph glyph-name="scaron" unicode="&#x161;" horiz-adv-x="438" 
d="M218 376c-6 -43 218 -74 200 -235c-11 -99 -89 -144 -181 -144c-89 0 -181 13 -181 13l11 104s86 -12 156 -12c24 0 43 4 45 28c7 61 -216 73 -198 234c11 100 86 145 180 145c90 0 182 -13 182 -13l-11 -105s-106 12 -179 12c-14 0 -22 -9 -24 -27zM405 755l46 -74
l-165 -134l-139 131l55 75l95 -79z" />
    <glyph glyph-name="Ydieresis" unicode="&#x178;" horiz-adv-x="537" 
d="M338 0h-152l22 198l-140 470h164l72 -291l140 291h163l-247 -470zM204 797c7 56 14 67 75 67c58 0 66 -10 59 -67c-5 -55 -15 -69 -74 -69c-62 0 -66 13 -60 69zM371 797c6 56 14 67 74 67c59 0 66 -10 60 -67c-6 -55 -14 -69 -76 -69c-59 0 -65 13 -58 69z" />
    <glyph glyph-name="Agrave" unicode="&#xc0;" 
d="M145 0h-146l244 667h226l102 -667h-144l-24 169h-200zM345 554l-100 -268h142zM278 914l98 53l74 -186l-95 -52z" />
    <glyph glyph-name="Aacute" unicode="&#xc1;" 
d="M145 0h-146l244 667h226l102 -667h-144l-24 169h-200zM345 554l-100 -268h142zM419 973l87 -53l-118 -185l-84 52z" />
    <glyph glyph-name="Acircumflex" unicode="&#xc2;" 
d="M145 0h-146l244 667h226l102 -667h-144l-24 169h-200zM345 554l-100 -268h142zM537 806l-72 -82l-88 91l-116 -91l-45 84l177 142z" />
    <glyph glyph-name="Atilde" unicode="&#xc3;" 
d="M145 0h-146l244 667h226l102 -667h-144l-24 169h-200zM345 554l-100 -268h142zM420 731c-47 0 -75 39 -102 39c-12 0 -29 -25 -44 -47c-20 15 -39 31 -60 46c31 57 64 95 112 95c38 0 68 -38 88 -38c11 0 25 20 40 43c21 -16 41 -32 63 -48c-29 -77 -87 -90 -97 -90z" />
    <glyph glyph-name="Adieresis" unicode="&#xc4;" 
d="M145 0h-146l244 667h226l102 -667h-144l-24 169h-200zM345 554l-100 -268h142zM215 798c6 56 14 67 75 67c57 0 65 -10 59 -67c-5 -55 -15 -69 -75 -69c-61 0 -64 13 -59 69zM382 798c6 56 14 67 73 67c60 0 67 -10 61 -67c-6 -55 -14 -69 -76 -69c-59 0 -64 13 -58 69z
" />
    <glyph glyph-name="Aring" unicode="&#xc5;" 
d="M145 0h-146l244 667h226l102 -667h-144l-24 169h-200zM345 554l-100 -268h142zM275 825c7 55 44 99 104 99c62 0 90 -44 84 -99c-7 -54 -44 -99 -106 -99c-61 0 -88 41 -82 99zM338 825c-2 -23 7 -38 26 -38c20 0 33 15 36 38c2 24 -8 38 -28 38c-19 0 -31 -14 -34 -38z
" />
    <glyph glyph-name="Ccedilla" unicode="&#xc7;" horiz-adv-x="526" 
d="M241 298l-3 -25c-16 -145 15 -167 91 -167c37 0 114 4 174 9l-12 -99c-48 -10 -100 -18 -144 -22l-9 -36c50 -10 56 -33 53 -64c-8 -71 -45 -90 -99 -90c-18 0 -46 3 -86 9l15 64l61 -5c10 0 13 3 15 16c0 3 2 13 -17 13l-51 4l20 87c-144 8 -200 58 -172 310
c32 287 62 377 276 377c0 0 112 0 210 -15l-12 -111c-107 9 -191 8 -205 8c-79 0 -81 -44 -105 -263z" />
    <glyph glyph-name="Egrave" unicode="&#xc8;" horiz-adv-x="520" 
d="M477 0h-413l74 668h413l-13 -112h-264l-18 -160h242l-13 -113h-241l-19 -172h264zM260 914l98 53l74 -186l-95 -52z" />
    <glyph glyph-name="Eacute" unicode="&#xc9;" horiz-adv-x="520" 
d="M477 0h-413l74 668h413l-13 -112h-264l-18 -160h242l-13 -113h-241l-19 -172h264zM412 970l87 -53l-119 -185l-83 52z" />
    <glyph glyph-name="Ecircumflex" unicode="&#xca;" horiz-adv-x="520" 
d="M477 0h-413l74 668h413l-13 -112h-264l-18 -160h242l-13 -113h-241l-19 -172h264zM528 815l-72 -82l-89 91l-115 -91l-46 84l177 142z" />
    <glyph glyph-name="Edieresis" unicode="&#xcb;" horiz-adv-x="520" 
d="M477 0h-413l74 668h413l-13 -112h-264l-18 -160h242l-13 -113h-241l-19 -172h264zM210 798c6 56 13 67 74 67c58 0 66 -10 60 -67c-6 -55 -16 -69 -75 -69c-61 0 -65 13 -59 69zM376 798c6 56 15 67 74 67s67 -10 60 -67c-5 -55 -13 -69 -75 -69c-60 0 -64 13 -59 69z
" />
    <glyph glyph-name="Igrave" unicode="&#xcc;" horiz-adv-x="270" 
d="M108 914l98 53l74 -186l-95 -52zM287 667l-73 -667h-150l73 667h150z" />
    <glyph glyph-name="Iacute" unicode="&#xcd;" horiz-adv-x="270" 
d="M287 667l-73 -667h-150l73 667h150zM274 977l87 -53l-119 -185l-83 52z" />
    <glyph glyph-name="Icircumflex" unicode="&#xce;" horiz-adv-x="273" 
d="M385 815l-72 -82l-89 91l-115 -91l-46 84l177 142zM287 667l-73 -667h-150l73 667h150z" />
    <glyph glyph-name="Idieresis" unicode="&#xcf;" horiz-adv-x="273" 
d="M73 797c6 56 13 67 75 67c57 0 65 -10 59 -67c-5 -55 -15 -69 -75 -69c-61 0 -65 13 -59 69zM239 797c7 56 15 67 74 67c60 0 67 -10 60 -67c-5 -55 -13 -69 -75 -69c-60 0 -65 13 -59 69zM287 667l-73 -667h-150l73 667h150z" />
    <glyph glyph-name="Eth" unicode="&#xd0;" horiz-adv-x="586" 
d="M47 290l14 128h37l28 252l242 -1c170 -1 233 -53 202 -338c-30 -271 -93 -331 -266 -331h-252l32 290h-37zM360 567h-95l-16 -149h74l-14 -128h-74l-20 -183h95c69 0 90 45 110 224c24 211 8 236 -60 236z" />
    <glyph glyph-name="Ntilde" unicode="&#xd1;" horiz-adv-x="655" 
d="M465 733c-47 0 -76 39 -103 39c-12 0 -29 -25 -43 -47c-21 15 -40 31 -61 46c31 57 64 95 112 95c38 0 68 -38 88 -38c11 0 26 20 40 43l64 -48c-30 -77 -87 -90 -97 -90zM595 0h-168l-177 468l-51 -468h-135l74 668h185l152 -428l46 428h148z" />
    <glyph glyph-name="Ograve" unicode="&#xd2;" horiz-adv-x="590" 
d="M293 -10c-215 0 -234 72 -204 343c32 279 69 344 281 344c216 0 236 -68 205 -344c-31 -279 -67 -343 -282 -343zM305 95c88 0 100 35 122 238c23 202 20 240 -69 240s-98 -42 -120 -240c-22 -195 -21 -238 67 -238zM291 914l98 53l74 -186l-95 -52z" />
    <glyph glyph-name="Oacute" unicode="&#xd3;" horiz-adv-x="590" 
d="M293 -10c-215 0 -234 72 -204 343c32 279 69 344 281 344c216 0 236 -68 205 -344c-31 -279 -67 -343 -282 -343zM305 95c88 0 100 35 122 238c23 202 20 240 -69 240s-98 -42 -120 -240c-22 -195 -21 -238 67 -238zM415 968l87 -53l-119 -185l-82 52z" />
    <glyph glyph-name="Ocircumflex" unicode="&#xd4;" horiz-adv-x="590" 
d="M293 -10c-215 0 -234 72 -204 343c32 279 69 344 281 344c216 0 236 -68 205 -344c-31 -279 -67 -343 -282 -343zM305 95c88 0 100 35 122 238c23 202 20 240 -69 240s-98 -42 -120 -240c-22 -195 -21 -238 67 -238zM556 815l-72 -82l-89 91l-115 -91l-46 84l177 142z
" />
    <glyph glyph-name="Otilde" unicode="&#xd5;" horiz-adv-x="590" 
d="M293 -10c-215 0 -234 72 -204 343c32 279 69 344 281 344c216 0 236 -68 205 -344c-31 -279 -67 -343 -282 -343zM305 95c88 0 100 35 122 238c23 202 20 240 -69 240s-98 -42 -120 -240c-22 -195 -21 -238 67 -238zM447 731c-47 0 -75 39 -102 39c-12 0 -29 -25 -44 -47
c-20 15 -39 31 -60 46c31 57 64 95 112 95c38 0 68 -38 88 -38c11 0 25 20 40 43c21 -16 41 -32 63 -48c-29 -77 -87 -90 -97 -90z" />
    <glyph glyph-name="Odieresis" unicode="&#xd6;" horiz-adv-x="590" 
d="M293 -10c-215 0 -234 72 -204 343c32 279 69 344 281 344c216 0 236 -68 205 -344c-31 -279 -67 -343 -282 -343zM305 95c88 0 100 35 122 238c23 202 20 240 -69 240s-98 -42 -120 -240c-22 -195 -21 -238 67 -238zM234 795c6 56 13 67 74 67c57 0 66 -10 60 -67
c-6 -55 -15 -69 -75 -69c-61 0 -65 13 -59 69zM400 795c7 56 14 67 73 67c60 0 68 -10 62 -67c-7 -55 -14 -69 -76 -69c-59 0 -65 13 -59 69z" />
    <glyph glyph-name="Oslash" unicode="&#xd8;" horiz-adv-x="590" 
d="M515 727l-25 -63c101 -30 108 -119 85 -331c-31 -279 -67 -343 -282 -343c-25 0 -46 1 -65 3l-22 -55h-55l25 64c-104 30 -109 121 -87 331c32 279 69 344 281 344c24 0 47 -1 66 -3l21 53h58zM305 95c88 0 100 35 122 238c11 97 17 156 9 192l-167 -426
c9 -3 22 -4 36 -4zM238 333c-10 -96 -16 -155 -8 -191l165 427c-10 3 -22 4 -37 4c-89 0 -98 -42 -120 -240z" />
    <glyph glyph-name="Ugrave" unicode="&#xd9;" horiz-adv-x="605" 
d="M297 914l98 53l74 -186l-95 -52zM317 96c90 0 102 35 125 240l36 330h149c-1 -16 -33 -313 -35 -330c-31 -281 -68 -346 -287 -346s-238 73 -208 346l36 330h151l-36 -330c-21 -197 -21 -240 69 -240z" />
    <glyph glyph-name="Uacute" unicode="&#xda;" horiz-adv-x="605" 
d="M427 977l87 -53l-119 -185l-83 52zM317 96c90 0 102 35 125 240l36 330h149c-1 -16 -33 -313 -35 -330c-31 -281 -68 -346 -287 -346s-238 73 -208 346l36 330h151l-36 -330c-21 -197 -21 -240 69 -240z" />
    <glyph glyph-name="Ucircumflex" unicode="&#xdb;" horiz-adv-x="605" 
d="M570 815l-72 -82l-89 91l-116 -91l-46 84l178 142zM317 96c90 0 102 35 125 240l36 330h149c-1 -16 -33 -313 -35 -330c-31 -281 -68 -346 -287 -346s-238 73 -208 346l36 330h151l-36 -330c-21 -197 -21 -240 69 -240z" />
    <glyph glyph-name="Udieresis" unicode="&#xdc;" horiz-adv-x="605" 
d="M242 798c6 56 14 67 75 67c57 0 65 -10 59 -67c-5 -55 -15 -69 -75 -69c-61 0 -64 13 -59 69zM409 798c6 56 14 67 73 67c60 0 67 -10 61 -67c-6 -55 -14 -69 -76 -69c-59 0 -64 13 -58 69zM317 96c90 0 102 35 125 240l36 330h149c-1 -16 -33 -313 -35 -330
c-31 -281 -68 -346 -287 -346s-238 73 -208 346l36 330h151l-36 -330c-21 -197 -21 -240 69 -240z" />
    <glyph glyph-name="Yacute" unicode="&#xdd;" horiz-adv-x="552" 
d="M432 966l87 -53l-119 -185l-83 52zM338 0h-152l22 198l-140 470h164l72 -291l140 291h163l-247 -470z" />
    <glyph glyph-name="Thorn" unicode="&#xde;" horiz-adv-x="580" 
d="M63 0l75 669h151l-12 -107h102c120 0 214 -35 199 -176l-9 -78c-9 -82 -86 -155 -174 -171c-21 -4 -45 -4 -166 -4l-15 -133h-151zM263 443l-21 -188h100c38 0 72 4 77 53l9 77c6 51 -29 58 -65 58h-100z" />
    <glyph glyph-name="germandbls" unicode="&#xdf;" horiz-adv-x="535" 
d="M532 487c-4 -38 -32 -94 -70 -144c55 -36 54 -84 46 -151l-5 -51c-15 -139 -112 -145 -265 -145h-37l-3 -28c-14 -117 -69 -142 -145 -142c-11 0 -18 0 -62 8l9 78c41 6 45 23 47 41l58 531c12 110 91 180 204 180c107 0 241 -19 223 -177zM319 265h-89l-18 -162h38
c59 0 97 -2 103 46l5 49c6 56 -6 67 -39 67zM256 481l-13 -110h82c30 28 52 70 57 112c6 60 -42 66 -86 66c-15 0 -35 -14 -40 -68z" />
    <glyph glyph-name="agrave" unicode="&#xe0;" horiz-adv-x="470" 
d="M217 738l99 53l74 -186l-96 -52zM60 282c16 158 68 226 183 226c37 0 142 -12 229 -37l-48 -474h-111l-6 45c-18 -22 -69 -51 -122 -51c-109 0 -131 82 -131 173c0 32 1 62 6 118zM263 418c-45 -7 -59 -111 -62 -154c-3 -32 -17 -181 18 -181c36 0 70 34 82 47l33 284
c-21 2 -46 8 -71 4z" />
    <glyph glyph-name="aacute" unicode="&#xe1;" horiz-adv-x="470" 
d="M342 786l87 -53l-119 -185l-83 52zM60 282c16 158 68 226 183 226c37 0 142 -12 229 -37l-48 -474h-111l-6 45c-18 -22 -69 -51 -122 -51c-109 0 -131 82 -131 173c0 32 1 62 6 118zM263 418c-45 -7 -59 -111 -62 -154c-3 -32 -17 -181 18 -181c36 0 70 34 82 47l33 284
c-21 2 -46 8 -71 4z" />
    <glyph glyph-name="acircumflex" unicode="&#xe2;" horiz-adv-x="470" 
d="M466 633l-72 -82l-89 91l-115 -91l-46 84l178 142zM60 282c16 158 68 226 183 226c37 0 142 -12 229 -37l-48 -474h-111l-6 45c-18 -22 -69 -51 -122 -51c-109 0 -131 82 -131 173c0 32 1 62 6 118zM263 418c-45 -7 -59 -111 -62 -154c-3 -32 -17 -181 18 -181
c36 0 70 34 82 47l33 284c-21 2 -46 8 -71 4z" />
    <glyph glyph-name="atilde" unicode="&#xe3;" horiz-adv-x="470" 
d="M353 553c-47 0 -76 39 -103 39c-12 0 -29 -25 -43 -47c-21 15 -40 31 -60 46c30 57 64 95 111 95c38 0 69 -38 88 -38c11 0 27 20 40 43c22 -16 41 -32 63 -48c-29 -77 -86 -90 -96 -90zM60 282c16 158 68 226 183 226c37 0 142 -12 229 -37l-48 -474h-111l-6 45
c-18 -22 -69 -51 -122 -51c-109 0 -131 82 -131 173c0 32 1 62 6 118zM263 418c-45 -7 -59 -111 -62 -154c-3 -32 -17 -181 18 -181c36 0 70 34 82 47l33 284c-21 2 -46 8 -71 4z" />
    <glyph glyph-name="adieresis" unicode="&#xe4;" horiz-adv-x="470" 
d="M154 621c6 56 12 67 74 67c57 0 66 -10 60 -67c-6 -55 -16 -69 -76 -69c-61 0 -64 13 -58 69zM320 621c7 56 14 67 73 67c60 0 68 -10 61 -67c-6 -55 -14 -69 -76 -69c-59 0 -64 13 -58 69zM60 282c16 158 68 226 183 226c37 0 142 -12 229 -37l-48 -474h-111l-6 45
c-18 -22 -69 -51 -122 -51c-109 0 -131 82 -131 173c0 32 1 62 6 118zM263 418c-45 -7 -59 -111 -62 -154c-3 -32 -17 -181 18 -181c36 0 70 34 82 47l33 284c-21 2 -46 8 -71 4z" />
    <glyph glyph-name="aring" unicode="&#xe5;" horiz-adv-x="470" 
d="M222 653c6 55 44 99 104 99c62 0 89 -44 83 -99c-6 -54 -43 -99 -105 -99c-61 0 -88 41 -82 99zM285 653c-2 -23 7 -38 25 -38c21 0 34 15 36 38c3 24 -7 38 -27 38c-19 0 -31 -14 -34 -38zM60 282c16 158 68 226 183 226c37 0 142 -12 229 -37l-48 -474h-111l-6 45
c-18 -22 -69 -51 -122 -51c-109 0 -131 82 -131 173c0 32 1 62 6 118zM263 418c-45 -7 -59 -111 -62 -154c-3 -32 -17 -181 18 -181c36 0 70 34 82 47l33 284c-21 2 -46 8 -71 4z" />
    <glyph glyph-name="ccedilla" unicode="&#xe7;" horiz-adv-x="470" 
d="M218 223c-13 -110 10 -126 67 -126c34 0 104 5 150 9l-11 -90c-44 -11 -101 -20 -147 -23l-9 -37c50 -10 56 -33 52 -64c-7 -71 -44 -90 -99 -90c-17 0 -46 3 -86 9l16 64l60 -5c10 0 14 3 16 16c0 3 2 13 -17 13l-51 4l20 91c-93 10 -130 56 -111 232
c25 216 51 284 213 284c0 0 114 -5 191 -19l-10 -99c-92 7 -156 12 -167 12c-59 0 -61 -32 -77 -181z" />
    <glyph glyph-name="egrave" unicode="&#xe8;" horiz-adv-x="480" 
d="M220 732l99 53l74 -186l-94 -52zM483 359c0 -38 -1 -145 -154 -147l-129 -2c-3 -22 -2 -45 -2 -61c0 -66 30 -68 66 -68c17 0 78 2 165 14l-6 -82c-68 -15 -135 -22 -194 -22c-126 0 -168 44 -168 156c0 29 3 62 6 104c23 201 57 261 230 261c140 0 186 -41 186 -153z
M292 424c-61 0 -70 -35 -81 -124h124c14 0 15 30 15 40v12c0 59 -16 72 -58 72z" />
    <glyph glyph-name="eacute" unicode="&#xe9;" horiz-adv-x="481" 
d="M339 785l87 -53l-118 -185l-84 52zM483 359c0 -38 -1 -145 -154 -147l-129 -2c-3 -22 -2 -45 -2 -61c0 -66 30 -68 66 -68c17 0 78 2 165 14l-6 -82c-68 -15 -135 -22 -194 -22c-126 0 -168 44 -168 156c0 29 3 62 6 104c23 201 57 261 230 261c140 0 186 -41 186 -153z
M292 424c-61 0 -70 -35 -81 -124h124c14 0 15 30 15 40v12c0 59 -16 72 -58 72z" />
    <glyph glyph-name="ecircumflex" unicode="&#xea;" horiz-adv-x="481" 
d="M472 628l-72 -82l-90 91l-115 -91l-46 84l178 142zM483 359c0 -38 -1 -145 -154 -147l-129 -2c-3 -22 -2 -45 -2 -61c0 -66 30 -68 66 -68c17 0 78 2 165 14l-6 -82c-68 -15 -135 -22 -194 -22c-126 0 -168 44 -168 156c0 29 3 62 6 104c23 201 57 261 230 261
c140 0 186 -41 186 -153zM292 424c-61 0 -70 -35 -81 -124h124c14 0 15 30 15 40v12c0 59 -16 72 -58 72z" />
    <glyph glyph-name="edieresis" unicode="&#xeb;" horiz-adv-x="481" 
d="M159 621c7 56 13 67 74 67c58 0 67 -10 60 -67c-6 -55 -16 -69 -75 -69c-61 0 -65 13 -59 69zM326 621c6 56 13 67 73 67c59 0 67 -10 61 -67c-6 -55 -15 -69 -77 -69c-59 0 -64 13 -57 69zM483 359c0 -38 -1 -145 -154 -147l-129 -2c-3 -22 -2 -45 -2 -61
c0 -66 30 -68 66 -68c17 0 78 2 165 14l-6 -82c-68 -15 -135 -22 -194 -22c-126 0 -168 44 -168 156c0 29 3 62 6 104c23 201 57 261 230 261c140 0 186 -41 186 -153zM292 424c-61 0 -70 -35 -81 -124h124c14 0 15 30 15 40v12c0 59 -16 72 -58 72z" />
    <glyph glyph-name="igrave" unicode="&#xec;" horiz-adv-x="249" 
d="M85 736l98 53l74 -186l-95 -52zM202 0h-146l55 499h146z" />
    <glyph glyph-name="iacute" unicode="&#xed;" horiz-adv-x="249" 
d="M237 787l87 -53l-119 -185l-84 52zM202 0h-146l55 499h146z" />
    <glyph glyph-name="icircumflex" unicode="&#xee;" horiz-adv-x="249" 
d="M355 631l-72 -82l-89 91l-115 -91l-46 84l178 142zM202 0h-146l55 499h146z" />
    <glyph glyph-name="idieresis" unicode="&#xef;" horiz-adv-x="248" 
d="M45 621c6 56 13 67 74 67c57 0 66 -10 60 -67c-6 -55 -16 -69 -76 -69c-61 0 -64 13 -58 69zM211 621c7 56 14 67 73 67c60 0 68 -10 62 -67c-7 -55 -15 -69 -77 -69c-59 0 -64 13 -58 69zM202 0h-146l55 499h146z" />
    <glyph glyph-name="eth" unicode="&#xf0;" horiz-adv-x="481" 
d="M238 488l44 45c-20 9 -53 20 -85 29l13 111c80 -20 125 -31 157 -48c18 20 42 50 56 66l67 -67l-46 -51c38 -55 38 -134 19 -306l-5 -49c-21 -189 -55 -218 -207 -218c-156 0 -216 17 -197 192c21 185 76 204 220 204h9c18 0 36 0 54 -3c0 21 0 44 -1 61
c-14 -15 -21 -21 -32 -34zM265 288c-48 0 -60 -1 -70 -87c-10 -89 4 -95 50 -95c56 0 60 3 72 106c8 78 -16 76 -52 76z" />
    <glyph glyph-name="ntilde" unicode="&#xf1;" horiz-adv-x="500" 
d="M449 0h-145l40 361c6 57 -72 26 -102 10l-40 -371h-146l55 499h122l7 -44c29 23 79 54 128 54c69 0 133 -35 122 -128zM379 551c-47 0 -76 39 -103 39c-11 0 -29 -25 -43 -47c-21 15 -40 31 -60 46c30 57 63 95 110 95c38 0 70 -38 90 -38c10 0 25 20 39 43
c22 -16 42 -32 63 -48c-29 -77 -86 -90 -96 -90z" />
    <glyph glyph-name="ograve" unicode="&#xf2;" horiz-adv-x="499" 
d="M246 -9c-178 0 -197 59 -176 259c23 205 59 259 233 259c178 0 200 -58 178 -259s-57 -259 -235 -259zM257 91c60 0 68 28 82 159c16 136 12 162 -47 162c-57 0 -64 -30 -79 -162c-14 -131 -13 -159 44 -159zM218 736l98 53l75 -186l-96 -52z" />
    <glyph glyph-name="oacute" unicode="&#xf3;" horiz-adv-x="499" 
d="M246 -9c-178 0 -197 59 -176 259c23 205 59 259 233 259c178 0 200 -58 178 -259s-57 -259 -235 -259zM257 91c60 0 68 28 82 159c16 136 12 162 -47 162c-57 0 -64 -30 -79 -162c-14 -131 -13 -159 44 -159zM339 787l88 -53l-119 -185l-84 52z" />
    <glyph glyph-name="ocircumflex" unicode="&#xf4;" horiz-adv-x="499" 
d="M247 -9c-178 0 -198 59 -176 259c23 205 59 259 233 259c177 0 200 -58 177 -259c-21 -201 -56 -259 -234 -259zM258 91c60 0 68 28 82 159c15 136 12 162 -47 162c-57 0 -64 -30 -79 -162c-14 -131 -13 -159 44 -159zM474 632l-72 -82l-89 91l-115 -91l-46 84l178 142z
" />
    <glyph glyph-name="otilde" unicode="&#xf5;" horiz-adv-x="500" 
d="M246 -9c-178 0 -197 59 -176 259c23 205 59 259 233 259c178 0 200 -58 178 -259s-57 -259 -235 -259zM257 91c60 0 68 28 82 159c16 136 12 162 -47 162c-57 0 -64 -30 -79 -162c-14 -131 -13 -159 44 -159zM365 549c-46 0 -75 39 -102 39c-12 0 -29 -25 -43 -47
c-21 15 -40 31 -61 46c31 57 63 95 111 95c38 0 69 -38 89 -38c11 0 25 20 40 43c21 -16 41 -32 63 -48c-29 -77 -87 -90 -97 -90z" />
    <glyph glyph-name="odieresis" unicode="&#xf6;" horiz-adv-x="499" 
d="M246 -9c-178 0 -197 59 -176 259c23 205 59 259 233 259c178 0 200 -58 178 -259s-57 -259 -235 -259zM257 91c60 0 68 28 82 159c16 136 12 162 -47 162c-57 0 -64 -30 -79 -162c-14 -131 -13 -159 44 -159zM164 621c6 56 12 67 74 67c57 0 66 -10 60 -67
c-6 -55 -16 -69 -76 -69c-61 0 -65 13 -58 69zM330 621c7 56 14 67 73 67c60 0 68 -10 61 -67c-6 -55 -14 -69 -76 -69c-60 0 -64 13 -58 69z" />
    <glyph glyph-name="oslash" unicode="&#xf8;" horiz-adv-x="500" 
d="M410 552l-19 -51c96 -21 108 -90 90 -251c-22 -201 -57 -259 -235 -259c-21 0 -38 1 -54 3l-18 -47h-42l21 53c-92 22 -100 92 -83 250c23 205 59 259 233 259c16 0 32 -1 46 -2l17 45h44zM257 91c60 0 68 28 82 159c7 67 10 108 4 131l-112 -287c7 -2 16 -3 26 -3z
M213 250c-5 -53 -10 -89 -8 -113l106 273c-5 1 -11 2 -19 2c-57 0 -64 -30 -79 -162z" />
    <glyph glyph-name="ugrave" unicode="&#xf9;" horiz-adv-x="504" 
d="M108 498h145l-41 -361c-6 -57 72 -26 102 -10l41 371h146l-56 -499h-122l-7 44c-29 -23 -78 -54 -128 -54c-69 0 -133 35 -122 128zM231 736l98 53l75 -186l-95 -52z" />
    <glyph glyph-name="uacute" unicode="&#xfa;" horiz-adv-x="505" 
d="M108 498h145l-41 -361c-6 -57 72 -26 102 -10l41 371h146l-56 -499h-122l-7 44c-29 -23 -78 -54 -128 -54c-69 0 -133 35 -122 128zM348 789l88 -53l-119 -185l-83 52z" />
    <glyph glyph-name="ucircumflex" unicode="&#xfb;" horiz-adv-x="505" 
d="M108 498h145l-41 -361c-6 -57 72 -26 102 -10l41 371h146l-56 -499h-122l-7 44c-29 -23 -78 -54 -128 -54c-69 0 -133 35 -122 128zM493 632l-72 -82l-89 91l-115 -91l-46 84l178 142z" />
    <glyph glyph-name="udieresis" unicode="&#xfc;" horiz-adv-x="505" 
d="M108 498h145l-41 -361c-6 -57 72 -26 102 -10l41 371h146l-56 -499h-122l-7 44c-29 -23 -78 -54 -128 -54c-69 0 -133 35 -122 128zM171 621c6 56 13 67 74 67c57 0 66 -10 60 -67c-6 -55 -16 -69 -76 -69c-61 0 -64 13 -58 69zM337 621c7 56 14 67 73 67
c60 0 68 -10 62 -67c-7 -55 -15 -69 -77 -69c-59 0 -64 13 -58 69z" />
    <glyph glyph-name="yacute" unicode="&#xfd;" horiz-adv-x="473" 
d="M337 784l87 -53l-118 -185l-84 52zM58 -152l29 62c12 -4 19 -6 25 -8c9 -3 22 -8 32 3c13 14 29 48 52 95h-58l-62 500h144l26 -350l138 350h140l-239 -582c-35 -85 -80 -106 -133 -106c-28 0 -62 10 -94 36z" />
    <glyph glyph-name="thorn" unicode="&#xfe;" horiz-adv-x="485" 
d="M36 -180l94 861h143l-21 -192c31 15 65 19 82 19c121 0 157 -64 139 -225c-22 -202 -49 -291 -231 -291c-13 0 -28 1 -44 2l-20 -174h-142zM328 275c16 148 -12 134 -87 115l-32 -293h42c56 0 63 57 77 178z" />
    <glyph glyph-name="ydieresis" unicode="&#xff;" horiz-adv-x="473" 
d="M166 621c6 56 12 67 73 67c58 0 67 -10 61 -67c-7 -55 -17 -69 -76 -69c-61 0 -65 13 -58 69zM332 621c6 56 14 67 73 67s67 -10 61 -67c-6 -55 -14 -69 -76 -69c-60 0 -64 13 -58 69zM58 -152l29 62c12 -4 19 -6 25 -8c9 -3 22 -8 32 3c13 14 29 48 52 95h-58l-62 500
h144l26 -350l138 350h140l-239 -582c-35 -85 -80 -106 -133 -106c-28 0 -62 10 -94 36z" />
    <glyph glyph-name="Aogonek" unicode="&#x104;" horiz-adv-x="573" 
d="M445 -197c-50 0 -94 29 -88 86c5 39 39 78 74 111h-4l-24 169h-200l-58 -169h-146l244 667h226l102 -667h-36c-48 -52 -99 -134 -38 -118l38 10l-3 -73c-15 -5 -60 -16 -87 -16zM345 554l-100 -268h142z" />
    <glyph glyph-name="Lcaron" unicode="&#x13d;" horiz-adv-x="480" 
d="M464 0h-400l73 667h149l-61 -556h251zM353 487l-33 68c12 8 26 18 34 25c-23 9 -24 32 -19 73c7 66 14 75 83 75s75 -11 68 -75c-8 -67 -39 -111 -133 -166z" />
    <glyph glyph-name="Sacute" unicode="&#x15a;" horiz-adv-x="505" 
d="M381 967l87 -53l-119 -185l-84 52zM238 516c-9 -84 281 -129 258 -340c-15 -129 -104 -186 -215 -186c-79 0 -135 5 -216 10l11 107s133 -7 211 -7c33 0 50 19 57 65c14 108 -280 134 -259 329c15 130 103 186 216 186c115 0 164 -5 217 -9l-11 -107s-140 7 -211 7
c-31 0 -53 -16 -58 -55z" />
    <glyph glyph-name="Scommaaccent" unicode="&#x218;" horiz-adv-x="505" 
d="M204 -302l-32 68c12 8 26 18 33 25c-22 9 -23 32 -19 73c7 66 15 75 84 75c68 0 75 -11 67 -75c-7 -67 -38 -111 -133 -166zM238 516c-9 -84 281 -129 258 -340c-15 -129 -104 -186 -215 -186c-79 0 -135 5 -216 10l11 107s133 -7 211 -7c33 0 50 19 57 65
c14 108 -280 134 -259 329c15 130 103 186 216 186c115 0 164 -5 217 -9l-11 -107s-140 7 -211 7c-31 0 -53 -16 -58 -55z" />
    <glyph glyph-name="Tcaron" unicode="&#x164;" horiz-adv-x="521" 
d="M337 0h-153l62 557h-170l11 110h493l-12 -110h-170zM463 938l45 -74l-165 -134l-140 131l56 75l96 -79z" />
    <glyph glyph-name="Zacute" unicode="&#x179;" horiz-adv-x="530" 
d="M499 0h-468l9 92l340 465h-282l13 112h454l-11 -96l-334 -463h290zM399 968l87 -53l-119 -185l-83 52z" />
    <glyph glyph-name="Zdotaccent" unicode="&#x17b;" horiz-adv-x="530" 
d="M499 0h-468l9 92l340 465h-282l13 112h454l-11 -96l-334 -463h290zM288 807c7 65 15 77 85 77c67 0 77 -9 70 -77c-7 -63 -18 -79 -88 -79c-69 0 -74 15 -67 79z" />
    <glyph glyph-name="aogonek" unicode="&#x105;" horiz-adv-x="477" 
d="M60 282c16 158 68 226 183 226c37 0 142 -12 229 -37l-48 -474h-14c-46 -52 -92 -128 -34 -113l38 10l-3 -73c-15 -5 -60 -16 -86 -16c-51 0 -95 29 -88 86c4 40 39 80 75 112l-5 39c-18 -22 -69 -51 -122 -51c-109 0 -131 82 -131 173c0 32 1 62 6 118zM263 418
c-45 -7 -59 -111 -62 -154c-3 -32 -17 -181 18 -181c36 0 70 34 82 47l33 284c-21 2 -46 8 -71 4z" />
    <glyph glyph-name="lcaron" unicode="&#x13e;" horiz-adv-x="303" 
d="M256 75l-9 -75c-50 -8 -56 -8 -63 -8c-75 0 -127 29 -114 151l59 528h145l-60 -545c-3 -23 -4 -43 42 -51zM321 439l-32 68c12 8 26 18 33 25c-22 9 -23 32 -19 73c7 66 15 75 84 75c68 0 75 -11 67 -75c-7 -67 -38 -111 -133 -166z" />
    <glyph glyph-name="sacute" unicode="&#x15b;" horiz-adv-x="431" 
d="M218 376c-6 -43 218 -74 200 -235c-11 -99 -89 -144 -181 -144c-89 0 -181 13 -181 13l11 104s86 -12 156 -12c24 0 43 4 45 28c7 61 -216 73 -198 234c11 100 86 145 180 145c90 0 182 -13 182 -13l-11 -105s-106 12 -179 12c-14 0 -22 -9 -24 -27zM311 784l87 -53
l-118 -185l-84 52z" />
    <glyph glyph-name="scommaaccent" unicode="&#x219;" horiz-adv-x="431" 
d="M218 376c-6 -43 218 -74 200 -235c-11 -99 -89 -144 -181 -144c-89 0 -181 13 -181 13l11 104s86 -12 156 -12c24 0 43 4 45 28c7 61 -216 73 -198 234c11 100 86 145 180 145c90 0 182 -13 182 -13l-11 -105s-106 12 -179 12c-14 0 -22 -9 -24 -27zM149 -302l-32 68
c12 8 26 18 33 25c-22 9 -23 32 -19 73c8 66 15 75 84 75c68 0 75 -11 68 -75c-8 -67 -39 -111 -134 -166z" />
    <glyph glyph-name="tcaron" unicode="&#x165;" horiz-adv-x="391" 
d="M388 554l-33 68c11 8 26 18 33 25c-23 9 -24 32 -19 73c7 66 14 75 84 75c68 0 74 -11 67 -75c-7 -67 -39 -111 -132 -166zM283 -9c-124 0 -154 45 -154 127c0 18 1 37 3 59l25 223h-97c5 34 9 66 13 100h95c4 38 10 79 14 117h142l-13 -117h98c-3 -34 -8 -66 -12 -100
h-97c-8 -75 -18 -159 -26 -235c-2 -16 -3 -32 -3 -41c0 -40 13 -36 43 -35l60 3l-10 -91c-37 -8 -63 -10 -81 -10z" />
    <glyph glyph-name="zacute" unicode="&#x17a;" horiz-adv-x="419" 
d="M40 80l216 316h-177l12 105h348l-9 -82l-214 -313h184l-12 -106h-356zM317 785l86 -53l-118 -185l-83 52z" />
    <glyph glyph-name="zdotaccent" unicode="&#x17c;" horiz-adv-x="419" 
d="M40 80l216 316h-177l12 105h348l-9 -82l-214 -313h184l-12 -106h-356zM205 627c7 65 16 77 86 77c67 0 77 -9 69 -77c-6 -63 -17 -79 -86 -79c-70 0 -75 15 -69 79z" />
    <glyph glyph-name="Racute" unicode="&#x154;" horiz-adv-x="586" 
d="M407 969l87 -53l-119 -185l-83 52zM215 0h-151l73 667h260c121 0 217 -35 201 -172l-8 -76c-5 -52 -29 -93 -75 -130l16 -289h-155l-12 245c-13 -1 -28 -1 -123 -1zM277 563l-23 -211h105c39 0 76 8 82 67l8 75c7 61 -30 69 -67 69h-105z" />
    <glyph glyph-name="Abreve" unicode="&#x102;" 
d="M145 0h-146l244 667h226l102 -667h-144l-24 169h-200zM345 554l-100 -268h142zM512 804c-32 -35 -96 -73 -151 -73c-53 0 -106 33 -140 73l52 77c35 -33 67 -56 96 -56c28 0 68 23 113 52z" />
    <glyph glyph-name="Lacute" unicode="&#x139;" horiz-adv-x="477" 
d="M464 0h-400l73 667h149l-61 -556h251zM290 968l87 -53l-119 -185l-83 52z" />
    <glyph glyph-name="Cacute" unicode="&#x106;" horiz-adv-x="526" 
d="M241 298l-3 -25c-16 -145 15 -167 91 -167c37 0 114 4 174 9l-12 -99c-67 -14 -139 -25 -194 -25c-180 0 -251 33 -220 311c32 287 62 377 276 377c0 0 112 0 210 -15l-12 -111c-107 9 -191 8 -205 8c-79 0 -81 -44 -105 -263zM393 967l88 -53l-119 -185l-84 52z" />
    <glyph glyph-name="Ccaron" unicode="&#x10c;" horiz-adv-x="527" 
d="M241 298l-3 -25c-16 -145 15 -167 91 -167c37 0 114 4 174 9l-12 -99c-67 -14 -139 -25 -194 -25c-180 0 -251 33 -220 311c32 287 62 377 276 377c0 0 112 0 210 -15l-12 -111c-107 9 -191 8 -205 8c-79 0 -81 -44 -105 -263zM475 939l46 -74l-166 -134l-139 131l57 75
l94 -79z" />
    <glyph glyph-name="Eogonek" unicode="&#x118;" horiz-adv-x="518" 
d="M362 -195c-51 0 -96 29 -89 86c4 38 38 77 72 109h-281l74 668h413l-13 -112h-264l-18 -160h242l-13 -113h-241l-19 -172h264l-12 -111h-28c-48 -52 -96 -132 -37 -116l38 10l-2 -73c-16 -5 -60 -16 -86 -16z" />
    <glyph glyph-name="Ecaron" unicode="&#x11a;" horiz-adv-x="518" 
d="M477 0h-413l74 668h413l-13 -112h-264l-18 -160h242l-13 -113h-241l-19 -172h264zM470 940l46 -74l-166 -134l-139 131l56 75l95 -79z" />
    <glyph glyph-name="Dcaron" unicode="&#x10e;" horiz-adv-x="590" 
d="M64 0l74 670l242 -1c170 -1 233 -53 201 -338c-29 -271 -92 -331 -265 -331h-252zM372 567h-95l-50 -460h94c70 0 91 45 111 224c23 211 8 236 -60 236zM479 936l46 -74l-165 -134l-140 131l56 75l95 -79z" />
    <glyph glyph-name="Dcroat" unicode="&#x110;" 
d="M47 290l14 128h37l28 252l242 -1c170 -1 233 -53 202 -338c-30 -271 -93 -331 -266 -331h-252l32 290h-37zM360 567h-95l-16 -149h74l-14 -128h-74l-20 -183h95c69 0 90 45 110 224c24 211 8 236 -60 236z" />
    <glyph glyph-name="Nacute" unicode="&#x143;" horiz-adv-x="655" 
d="M466 966l87 -53l-118 -185l-84 52zM595 0h-168l-177 468l-51 -468h-135l74 668h185l152 -428l46 428h148z" />
    <glyph glyph-name="Ncaron" unicode="&#x147;" horiz-adv-x="655" 
d="M549 933l46 -74l-165 -134l-139 131l55 75l95 -79zM595 0h-168l-177 468l-51 -468h-135l74 668h185l152 -428l46 428h148z" />
    <glyph glyph-name="Ohungarumlaut" unicode="&#x150;" horiz-adv-x="590" 
d="M293 -10c-215 0 -234 72 -204 343c32 279 69 344 281 344c216 0 236 -68 205 -344c-31 -279 -67 -343 -282 -343zM305 95c88 0 100 35 122 238c23 202 20 240 -69 240s-98 -42 -120 -240c-22 -195 -21 -238 67 -238zM489 967l87 -53l-119 -185l-84 52zM334 968l89 -52
l-119 -187l-84 52z" />
    <glyph glyph-name="Rcaron" unicode="&#x158;" horiz-adv-x="586" 
d="M490 933l46 -74l-164 -134l-140 131l56 75l94 -79zM215 0h-151l73 667h260c121 0 217 -35 201 -172l-8 -76c-5 -52 -29 -93 -75 -130l16 -289h-155l-12 245c-13 -1 -28 -1 -123 -1zM277 563l-23 -211h105c39 0 76 8 82 67l8 75c7 61 -30 69 -67 69h-105z" />
    <glyph glyph-name="Uring" unicode="&#x16e;" horiz-adv-x="612" 
d="M302 825c7 55 44 99 104 99c62 0 90 -44 84 -99c-7 -54 -44 -99 -106 -99c-61 0 -88 41 -82 99zM365 825c-2 -23 7 -38 26 -38c20 0 33 15 36 38c2 24 -8 38 -28 38c-19 0 -31 -14 -34 -38zM317 96c90 0 102 35 125 240l36 330h149c-1 -16 -33 -313 -35 -330
c-31 -281 -68 -346 -287 -346s-238 73 -208 346l36 330h151l-36 -330c-21 -197 -21 -240 69 -240z" />
    <glyph glyph-name="Uhungarumlaut" unicode="&#x170;" horiz-adv-x="612" 
d="M502 967l87 -53l-118 -185l-84 52zM347 968l89 -52l-118 -187l-84 52zM317 96c90 0 102 35 125 240l36 330h149c-1 -16 -33 -313 -35 -330c-31 -281 -68 -346 -287 -346s-238 73 -208 346l36 330h151l-36 -330c-21 -197 -21 -240 69 -240z" />
    <glyph glyph-name="Tcommaaccent" unicode="&#x162;" horiz-adv-x="526" 
d="M337 0h-153l62 557h-170l11 110h493l-12 -110h-170zM185 -302l-32 68c12 8 26 18 33 25c-22 9 -23 32 -19 73c8 66 15 75 84 75c68 0 75 -11 68 -75c-8 -67 -39 -111 -134 -166z" />
    <glyph glyph-name="racute" unicode="&#x155;" horiz-adv-x="346" 
d="M243 461c27 14 62 39 148 51l-11 -109c-51 -4 -103 -29 -139 -44l-39 -359h-146l55 500h133zM247 787l88 -53l-119 -185l-84 52z" />
    <glyph glyph-name="abreve" unicode="&#x103;" horiz-adv-x="476" 
d="M449 622c-32 -35 -96 -73 -151 -73c-53 0 -106 33 -140 73l51 77c35 -33 67 -56 96 -56c28 0 68 23 114 52zM60 282c16 158 68 226 183 226c37 0 142 -12 229 -37l-48 -474h-111l-6 45c-18 -22 -69 -51 -122 -51c-109 0 -131 82 -131 173c0 32 1 62 6 118zM263 418
c-45 -7 -59 -111 -62 -154c-3 -32 -17 -181 18 -181c36 0 70 34 82 47l33 284c-21 2 -46 8 -71 4z" />
    <glyph glyph-name="lacute" unicode="&#x13a;" horiz-adv-x="250" 
d="M256 75l-9 -75c-50 -8 -56 -8 -63 -8c-75 0 -127 29 -114 151l59 528h145l-60 -545c-3 -23 -4 -43 42 -51zM257 968l88 -53l-119 -185l-83 52z" />
    <glyph glyph-name="cacute" unicode="&#x107;" horiz-adv-x="461" 
d="M218 223c-13 -110 10 -126 67 -126c34 0 104 5 150 9l-11 -90c-58 -14 -137 -25 -186 -25c-135 0 -193 25 -170 235c25 216 51 284 213 284c0 0 114 -5 191 -19l-10 -99c-92 7 -156 12 -167 12c-59 0 -61 -32 -77 -181zM346 792l86 -53l-118 -185l-84 52z" />
    <glyph glyph-name="ccaron" unicode="&#x10d;" horiz-adv-x="460" 
d="M218 223c-13 -110 10 -126 67 -126c34 0 104 5 150 9l-11 -90c-58 -14 -137 -25 -186 -25c-135 0 -193 25 -170 235c25 216 51 284 213 284c0 0 114 -5 191 -19l-10 -99c-92 7 -156 12 -167 12c-59 0 -61 -32 -77 -181zM436 756l45 -74l-164 -134l-140 131l56 75l95 -79z
" />
    <glyph glyph-name="eogonek" unicode="&#x119;" horiz-adv-x="487" 
d="M483 359c0 -38 -1 -145 -154 -147l-129 -2c-3 -22 -2 -45 -2 -61c0 -66 30 -68 66 -68c17 0 78 2 165 14l-6 -82c-3 -1 -5 -2 -8 -2c-51 -50 -116 -148 -51 -131l38 10l-2 -73c-17 -5 -61 -16 -87 -16c-50 0 -94 29 -88 86c4 38 35 75 68 107c-22 -2 -44 -3 -64 -3
c-126 0 -168 44 -168 156c0 29 3 62 6 104c23 201 57 261 230 261c140 0 186 -41 186 -153zM292 424c-61 0 -70 -35 -81 -124h124c14 0 15 30 15 40v12c0 59 -16 72 -58 72z" />
    <glyph glyph-name="ecaron" unicode="&#x11b;" horiz-adv-x="485" 
d="M422 755l46 -74l-165 -134l-139 131l56 75l94 -79zM483 359c0 -38 -1 -145 -154 -147l-129 -2c-3 -22 -2 -45 -2 -61c0 -66 30 -68 66 -68c17 0 78 2 165 14l-6 -82c-68 -15 -135 -22 -194 -22c-126 0 -168 44 -168 156c0 29 3 62 6 104c23 201 57 261 230 261
c140 0 186 -41 186 -153zM292 424c-61 0 -70 -35 -81 -124h124c14 0 15 30 15 40v12c0 59 -16 72 -58 72z" />
    <glyph glyph-name="dcaron" unicode="&#x10f;" horiz-adv-x="517" 
d="M71 256l3 27c21 160 63 227 185 227c27 0 43 -4 77 -17l20 187h144l-74 -680h-120l-5 40c-27 -26 -72 -46 -105 -46c-107 0 -146 77 -125 262zM220 280c-19 -173 -24 -200 76 -144l29 256c-82 31 -95 -12 -105 -112zM544 443l-34 68c12 8 26 18 34 25
c-23 9 -24 32 -19 73c7 66 14 75 83 75s75 -11 68 -75c-7 -67 -38 -111 -132 -166z" />
    <glyph glyph-name="dcroat" unicode="&#x111;" horiz-adv-x="472" 
d="M263 551l10 86h79l4 43h144l-4 -43h39l-10 -86h-39l-60 -551h-120l-5 40c-27 -26 -72 -46 -105 -46c-107 0 -146 77 -125 262l3 27c21 160 63 227 185 227c27 0 43 -4 77 -17l6 58h-79zM220 280c-19 -173 -24 -200 76 -144l29 256c-82 31 -95 -12 -105 -112z" />
    <glyph glyph-name="nacute" unicode="&#x144;" horiz-adv-x="502" 
d="M449 0h-145l40 361c6 57 -72 26 -102 10l-40 -371h-146l55 499h122l7 -44c29 23 79 54 128 54c69 0 133 -35 122 -128zM360 784l86 -53l-118 -185l-83 52z" />
    <glyph glyph-name="ncaron" unicode="&#x148;" horiz-adv-x="502" 
d="M449 0h-145l40 361c6 57 -72 26 -102 10l-40 -371h-146l55 499h122l7 -44c29 23 79 54 128 54c69 0 133 -35 122 -128zM436 754l45 -74l-164 -134l-140 131l56 75l95 -79z" />
    <glyph glyph-name="ohungarumlaut" unicode="&#x151;" horiz-adv-x="500" 
d="M246 -9c-178 0 -197 59 -176 259c23 205 59 259 233 259c178 0 200 -58 178 -259s-57 -259 -235 -259zM257 91c60 0 68 28 82 159c16 136 12 162 -47 162c-57 0 -64 -30 -79 -162c-14 -131 -13 -159 44 -159zM430 788l87 -53l-118 -185l-84 52zM275 789l89 -52l-118 -187
l-84 52z" />
    <glyph glyph-name="rcaron" unicode="&#x159;" horiz-adv-x="342" 
d="M231 461c27 14 62 39 149 51l-12 -109c-50 -4 -103 -29 -139 -44l-39 -359h-146l55 500h133zM355 760l46 -74l-165 -134l-140 131l57 75l94 -79z" />
    <glyph glyph-name="uring" unicode="&#x16f;" horiz-adv-x="502" 
d="M108 498h145l-41 -361c-6 -57 72 -26 102 -10l41 371h146l-56 -499h-122l-7 44c-29 -23 -78 -54 -128 -54c-69 0 -133 35 -122 128zM232 646c6 55 44 99 104 99c62 0 90 -44 83 -99c-6 -54 -43 -99 -105 -99c-61 0 -88 41 -82 99zM295 646c-3 -23 6 -38 25 -38
c21 0 34 15 36 38c3 24 -7 38 -28 38c-18 0 -30 -14 -33 -38z" />
    <glyph glyph-name="uhungarumlaut" unicode="&#x171;" horiz-adv-x="502" 
d="M108 498h145l-41 -361c-6 -57 72 -26 102 -10l41 371h146l-56 -499h-122l-7 44c-29 -23 -78 -54 -128 -54c-69 0 -133 35 -122 128zM442 787l87 -53l-119 -185l-83 52zM287 788l89 -52l-119 -187l-83 52z" />
    <glyph glyph-name="tcommaaccent" unicode="&#x163;" horiz-adv-x="383" 
d="M175 -302l-32 68c12 8 26 18 33 25c-22 9 -23 32 -19 73c8 66 15 75 84 75s75 -11 68 -75c-8 -67 -39 -111 -134 -166zM283 -9c-124 0 -154 45 -154 127c0 18 1 37 3 59l25 223h-97c5 34 9 66 13 100h95c4 38 10 79 14 117h142l-13 -117h98c-3 -34 -8 -66 -12 -100h-97
c-8 -75 -18 -159 -26 -235c-2 -16 -3 -32 -3 -41c0 -40 13 -36 43 -35l60 3l-10 -91c-37 -8 -63 -10 -81 -10z" />
    <glyph glyph-name="uni00A0" unicode="&#xa0;" horiz-adv-x="0" 
 />
    <glyph glyph-name="Hbar" unicode="&#x126;" horiz-adv-x="612" 
d="M82 463l12 100h37l12 105h151l-11 -105h177l12 105h151l-12 -105h40l-12 -100h-40l-50 -463h-151l31 287h-177l-32 -287h-151l51 463h-38zM264 395h177l7 68h-177z" />
    <glyph glyph-name="Hcircumflex" unicode="&#x124;" horiz-adv-x="605" 
d="M544 0h-152l32 287h-177l-32 -287h-151l74 668h151l-31 -273h178l30 273h151zM566 815l-72 -82l-89 91l-115 -91l-46 84l177 142z" />
    <glyph glyph-name="Idotaccent" unicode="&#x130;" horiz-adv-x="263" 
d="M279 667l-73 -667h-150l73 667h150zM142 808c7 65 15 77 85 77c67 0 77 -9 70 -77c-7 -63 -18 -79 -87 -79c-70 0 -75 15 -68 79z" />
    <glyph glyph-name="Scedilla" unicode="&#x15e;" horiz-adv-x="505" 
d="M238 516c-9 -84 281 -129 258 -340c-14 -120 -91 -177 -191 -185l-8 -35c49 -10 56 -33 52 -64c-7 -71 -44 -90 -99 -90c-17 0 -46 3 -86 9l16 64l60 -5c10 0 14 3 16 16c0 3 1 13 -18 13l-50 4l20 89c-46 2 -90 5 -143 8l11 107s133 -7 211 -7c33 0 50 19 57 65
c14 108 -280 134 -259 329c15 130 103 186 216 186c115 0 164 -5 217 -9l-11 -105s-140 5 -211 5c-31 0 -53 -16 -58 -55z" />
    <glyph glyph-name="Gbreve" unicode="&#x11e;" horiz-adv-x="537" 
d="M290 249l11 96h226l-36 -327c-65 -15 -145 -27 -202 -27c-180 0 -243 33 -212 311c32 287 53 377 268 377c0 0 112 3 210 -12l-11 -111c-108 9 -192 5 -206 5c-79 0 -83 -44 -108 -263l-2 -25c-16 -138 10 -164 64 -168c18 -1 44 0 70 1l15 143h-87zM513 804
c-32 -35 -96 -73 -151 -73c-53 0 -106 33 -140 73l52 77c35 -33 67 -56 96 -56c28 0 68 23 113 52z" />
    <glyph glyph-name="Jcircumflex" unicode="&#x134;" horiz-adv-x="322" 
d="M455 815l-72 -82l-89 91l-115 -91l-46 84l177 142zM348 669l-58 -528c-15 -125 -70 -153 -188 -150l-89 2l10 93c54 3 115 -6 123 63l57 520h145z" />
    <glyph glyph-name="hbar" unicode="&#x127;" horiz-adv-x="486" 
d="M59 549l8 77h41l5 47h144l-5 -47h67l-8 -77h-67l-8 -74c32 16 83 32 117 32c92 0 131 -44 122 -130l-41 -377h-145l39 361c7 58 -55 31 -102 17l-42 -378h-144l60 549h-41z" />
    <glyph glyph-name="hcircumflex" unicode="&#x125;" horiz-adv-x="488" 
d="M444 0h-145l39 361c7 58 -55 31 -102 17l-42 -378h-145l74 673h144l-21 -198c32 16 83 32 117 32c92 0 131 -44 122 -130zM364 810l-72 -82l-89 91l-115 -91l-46 84l178 142z" />
    <glyph glyph-name="scedilla" unicode="&#x15f;" horiz-adv-x="431" 
d="M218 376c-6 -43 218 -74 200 -235c-10 -91 -76 -136 -159 -143l-8 -38c49 -10 56 -33 52 -64c-8 -71 -44 -90 -99 -90c-17 0 -47 3 -86 9l16 64l59 -5c10 0 14 3 16 16c0 3 2 13 -16 13l-52 4l21 93c-59 3 -106 10 -106 10l11 104s86 -12 156 -12c24 0 43 4 45 28
c7 61 -216 73 -198 234c11 100 86 145 180 145c90 0 182 -13 182 -13l-11 -105s-106 12 -179 12c-14 0 -22 -9 -24 -27z" />
    <glyph glyph-name="gbreve" unicode="&#x11f;" horiz-adv-x="461" 
d="M481 619c-34 -35 -97 -73 -152 -73c-53 0 -106 33 -139 73l50 77c35 -33 68 -56 97 -56c27 0 68 23 113 52zM472 498l-55 -540c-11 -103 -75 -145 -181 -145c-64 0 -112 6 -180 23c0 4 25 86 26 88c49 -10 99 -19 148 -19c60 0 54 90 62 135h-12c-94 0 -216 -3 -216 142
c0 73 11 165 37 236c33 89 91 98 206 98c43 -1 75 -1 165 -18zM228 387c-18 -42 -28 -139 -28 -193c0 -57 20 -65 71 -65c21 0 19 1 26 1l35 294c-62 0 -88 -2 -104 -37z" />
    <glyph glyph-name="jcircumflex" unicode="&#x135;" horiz-adv-x="243" 
d="M-23 -172l8 73c45 8 54 30 56 54l61 545h145l-58 -531c-14 -123 -71 -148 -146 -148c-6 0 -16 0 -66 7zM349 632l-72 -82l-89 91l-115 -91l-46 84l178 142z" />
    <glyph glyph-name="Cdotaccent" unicode="&#x10a;" horiz-adv-x="528" 
d="M241 298l-3 -25c-16 -145 15 -167 91 -167c37 0 114 4 174 9l-12 -99c-67 -14 -139 -25 -194 -25c-180 0 -251 33 -220 311c32 287 62 377 276 377c0 0 112 0 210 -15l-12 -111c-107 9 -191 8 -205 8c-79 0 -81 -44 -105 -263zM289 810c7 65 15 77 84 77
c68 0 78 -9 71 -77c-8 -63 -18 -79 -88 -79c-69 0 -74 15 -67 79z" />
    <glyph glyph-name="Ccircumflex" unicode="&#x108;" horiz-adv-x="527" 
d="M241 298l-3 -25c-16 -145 15 -167 91 -167c37 0 114 4 174 9l-12 -99c-67 -14 -139 -25 -194 -25c-180 0 -251 33 -220 311c32 287 62 377 276 377c0 0 112 0 210 -15l-12 -111c-107 9 -191 8 -205 8c-79 0 -81 -44 -105 -263zM530 815l-72 -82l-89 91l-115 -91l-46 84
l177 142z" />
    <glyph glyph-name="Gdotaccent" unicode="&#x120;" horiz-adv-x="530" 
d="M290 249l11 96h226l-36 -327c-65 -15 -145 -27 -202 -27c-180 0 -243 33 -212 311c32 287 53 377 268 377c0 0 112 3 210 -12l-11 -111c-108 9 -192 5 -206 5c-79 0 -83 -44 -108 -263l-2 -25c-16 -138 10 -164 64 -168c18 -1 44 0 70 1l15 143h-87zM285 808
c7 65 16 77 85 77c67 0 77 -9 70 -77c-7 -63 -18 -79 -87 -79c-70 0 -75 15 -68 79z" />
    <glyph glyph-name="Gcircumflex" unicode="&#x11c;" horiz-adv-x="530" 
d="M290 249l11 96h226l-36 -327c-65 -15 -145 -27 -202 -27c-180 0 -243 33 -212 311c32 287 53 377 268 377c0 0 112 3 210 -12l-11 -111c-108 9 -192 5 -206 5c-79 0 -83 -44 -108 -263l-2 -25c-16 -138 10 -164 64 -168c18 -1 44 0 70 1l15 143h-87zM530 815l-72 -82
l-89 91l-115 -91l-46 84l177 142z" />
    <glyph glyph-name="Ubreve" unicode="&#x16c;" horiz-adv-x="607" 
d="M537 801c-32 -35 -96 -73 -151 -73c-53 0 -106 33 -139 73l50 77c35 -33 67 -56 96 -56c28 0 69 23 115 52zM317 96c90 0 102 35 125 240l36 330h149c-1 -16 -33 -313 -35 -330c-31 -281 -68 -346 -287 -346s-238 73 -208 346l36 330h151l-36 -330
c-21 -197 -21 -240 69 -240z" />
    <glyph glyph-name="Scircumflex" unicode="&#x15c;" horiz-adv-x="505" 
d="M517 811l-72 -82l-89 91l-115 -91l-46 84l178 142zM238 516c-9 -84 281 -129 258 -340c-15 -129 -104 -186 -215 -186c-79 0 -135 5 -216 10l11 107s133 -7 211 -7c33 0 50 19 57 65c14 108 -280 134 -259 329c15 130 103 186 216 186c115 0 164 -5 217 -9l-11 -107
s-140 7 -211 7c-31 0 -53 -16 -58 -55z" />
    <glyph glyph-name="cdotaccent" unicode="&#x10b;" horiz-adv-x="460" 
d="M218 223c-13 -110 10 -126 67 -126c34 0 104 5 150 9l-11 -90c-58 -14 -137 -25 -186 -25c-135 0 -193 25 -170 235c25 216 51 284 213 284c0 0 114 -5 191 -19l-10 -99c-92 7 -156 12 -167 12c-59 0 -61 -32 -77 -181zM230 628c8 65 16 77 85 77c67 0 77 -9 70 -77
c-7 -63 -18 -79 -87 -79s-75 15 -68 79z" />
    <glyph glyph-name="ccircumflex" unicode="&#x109;" horiz-adv-x="460" 
d="M218 223c-13 -110 10 -126 67 -126c34 0 104 5 150 9l-11 -90c-58 -14 -137 -25 -186 -25c-135 0 -193 25 -170 235c25 216 51 284 213 284c0 0 114 -5 191 -19l-10 -99c-92 7 -156 12 -167 12c-59 0 -61 -32 -77 -181zM470 630l-72 -82l-89 91l-116 -91l-45 84l178 142z
" />
    <glyph glyph-name="gdotaccent" unicode="&#x121;" horiz-adv-x="458" 
d="M265 626c7 65 16 77 85 77c68 0 77 -9 69 -77c-6 -63 -17 -79 -86 -79s-75 15 -68 79zM472 498l-55 -540c-11 -103 -75 -145 -181 -145c-64 0 -112 6 -180 23c0 4 25 86 26 88c49 -10 99 -19 148 -19c60 0 54 90 62 135h-12c-94 0 -216 -3 -216 142c0 73 11 165 37 236
c33 89 91 98 206 98c43 -1 75 -1 165 -18zM228 387c-18 -42 -28 -139 -28 -193c0 -57 20 -65 71 -65c21 0 19 1 26 1l35 294c-62 0 -88 -2 -104 -37z" />
    <glyph glyph-name="gcircumflex" unicode="&#x11d;" horiz-adv-x="458" 
d="M504 631l-72 -82l-89 91l-115 -91l-46 84l178 142zM472 498l-55 -540c-11 -103 -75 -145 -181 -145c-64 0 -112 6 -180 23c0 4 25 86 26 88c49 -10 99 -19 148 -19c60 0 54 90 62 135h-12c-94 0 -216 -3 -216 142c0 73 11 165 37 236c33 89 91 98 206 98
c43 -1 75 -1 165 -18zM228 387c-18 -42 -28 -139 -28 -193c0 -57 20 -65 71 -65c21 0 19 1 26 1l35 294c-62 0 -88 -2 -104 -37z" />
    <glyph glyph-name="ubreve" unicode="&#x16d;" horiz-adv-x="506" 
d="M108 498h145l-41 -361c-6 -57 72 -26 102 -10l41 371h146l-56 -499h-122l-7 44c-29 -23 -78 -54 -128 -54c-69 0 -133 35 -122 128zM471 621c-34 -35 -97 -73 -152 -73c-53 0 -106 33 -139 73l50 77c35 -33 68 -56 97 -56c28 0 68 23 114 52z" />
    <glyph glyph-name="scircumflex" unicode="&#x15d;" horiz-adv-x="432" 
d="M219 376c-6 -43 217 -74 199 -235c-10 -99 -88 -144 -180 -144c-90 0 -181 13 -181 13l10 104s87 -12 157 -12c24 0 43 4 45 28c7 61 -216 73 -198 234c11 100 86 145 180 145c90 0 182 -13 182 -13l-11 -105s-106 12 -179 12c-14 0 -23 -9 -24 -27zM444 632l-72 -82
l-89 91l-116 -91l-46 84l179 142z" />
    <glyph glyph-name="kgreenlandic" unicode="&#x138;" horiz-adv-x="526" 
d="M199 0h-143l74 673h143l-37 -334h45l136 230h149l-167 -283l127 -286h-153l-104 234h-45z" />
    <glyph glyph-name="Rcommaaccent" unicode="&#x156;" horiz-adv-x="586" 
d="M224 -302l-32 68c11 8 26 18 33 25c-23 9 -23 32 -19 73c7 66 14 75 84 75c68 0 74 -11 67 -75c-7 -67 -38 -111 -133 -166zM215 0h-151l73 667h260c121 0 217 -35 201 -172l-8 -76c-5 -52 -29 -93 -75 -130l16 -289h-155l-12 245c-13 -1 -28 -1 -123 -1zM277 563
l-23 -211h105c39 0 76 8 82 67l8 75c7 61 -30 69 -67 69h-105z" />
    <glyph glyph-name="Itilde" unicode="&#x128;" horiz-adv-x="260" 
d="M278 667l-73 -667h-150l73 667h150zM277 731c-47 0 -75 39 -102 39c-12 0 -29 -25 -44 -47c-20 15 -39 31 -60 46c31 57 64 95 112 95c37 0 68 -38 88 -38c11 0 25 20 39 43c22 -16 42 -32 63 -48c-28 -77 -86 -90 -96 -90z" />
    <glyph glyph-name="Lcommaaccent" unicode="&#x13b;" horiz-adv-x="472" 
d="M464 0h-400l73 667h149l-61 -556h251zM204 -306l-33 68c12 8 26 18 33 25c-22 9 -23 32 -19 73c8 66 16 75 85 75c68 0 74 -11 67 -75c-8 -67 -38 -111 -133 -166z" />
    <glyph glyph-name="Emacron" unicode="&#x112;" horiz-adv-x="518" 
d="M477 0h-413l74 668h413l-13 -112h-264l-18 -160h242l-13 -113h-241l-19 -172h264zM220 728l10 100h252l-10 -100h-252z" />
    <glyph glyph-name="Gcommaaccent" unicode="&#x122;" horiz-adv-x="537" 
d="M290 249l11 96h226l-36 -327c-65 -15 -145 -27 -202 -27c-180 0 -243 33 -212 311c32 287 53 377 268 377c0 0 112 3 210 -12l-11 -111c-108 9 -192 5 -206 5c-79 0 -83 -44 -108 -263l-2 -25c-16 -138 10 -164 64 -168c18 -1 44 0 70 1l15 143h-87zM234 -302l-32 68
c11 8 26 18 33 25c-23 9 -24 32 -19 73c7 66 14 75 84 75c68 0 74 -11 67 -75c-7 -67 -39 -111 -133 -166z" />
    <glyph glyph-name="Tbar" unicode="&#x166;" horiz-adv-x="521" 
d="M135 328l11 100h85l15 129h-170l11 110h493l-12 -110h-170l-15 -129h80l-10 -100h-80l-36 -328h-153l36 328h-85z" />
    <glyph glyph-name="rcommaaccent" unicode="&#x157;" horiz-adv-x="355" 
d="M253 461c27 14 62 39 148 51l-11 -109c-51 -4 -103 -29 -139 -44l-40 -359h-145l55 500h133zM60 -302l-32 68c12 8 26 18 33 25c-22 9 -23 32 -19 73c7 66 15 75 84 75c68 0 75 -11 67 -75c-7 -67 -38 -111 -133 -166z" />
    <glyph glyph-name="itilde" unicode="&#x129;" horiz-adv-x="247" 
d="M198 0h-147l55 499h147zM241 550c-47 0 -75 39 -102 39c-12 0 -29 -25 -44 -47c-20 15 -39 31 -60 46c31 57 63 95 111 95c38 0 69 -38 89 -38c11 0 25 20 39 43c22 -16 42 -32 63 -48c-28 -77 -86 -90 -96 -90z" />
    <glyph glyph-name="lcommaaccent" unicode="&#x13c;" horiz-adv-x="257" 
d="M256 75l-9 -75c-50 -8 -56 -8 -63 -8c-75 0 -127 29 -114 151l59 528h145l-60 -545c-3 -23 -4 -43 42 -51zM90 -302l-32 68c11 8 26 18 33 25c-23 9 -24 32 -19 73c7 66 14 75 84 75c68 0 74 -11 67 -75c-7 -67 -39 -111 -133 -166z" />
    <glyph glyph-name="emacron" unicode="&#x113;" horiz-adv-x="485" 
d="M175 548l10 100h252l-10 -100h-252zM483 359c0 -38 -1 -145 -154 -147l-129 -2c-3 -22 -2 -45 -2 -61c0 -66 30 -68 66 -68c17 0 78 2 165 14l-6 -82c-68 -15 -135 -22 -194 -22c-126 0 -168 44 -168 156c0 29 3 62 6 104c23 201 57 261 230 261c140 0 186 -41 186 -153z
M292 424c-61 0 -70 -35 -81 -124h124c14 0 15 30 15 40v12c0 59 -16 72 -58 72z" />
    <glyph glyph-name="gcommaaccent" unicode="&#x123;" horiz-adv-x="458" 
d="M387 790l34 -67c-12 -9 -27 -19 -34 -25c23 -10 24 -33 20 -74c-7 -65 -16 -74 -85 -74c-68 0 -74 10 -66 74c7 67 38 111 131 166zM472 498l-55 -540c-11 -103 -75 -145 -181 -145c-64 0 -112 6 -180 23c0 4 25 86 26 88c49 -10 99 -19 148 -19c60 0 54 90 62 135h-12
c-94 0 -216 -3 -216 142c0 73 11 165 37 236c33 89 91 98 206 98c43 -1 75 -1 165 -18zM228 387c-18 -42 -28 -139 -28 -193c0 -57 20 -65 71 -65c21 0 19 1 26 1l35 294c-62 0 -88 -2 -104 -37z" />
    <glyph glyph-name="tbar" unicode="&#x167;" horiz-adv-x="380" 
d="M83 243l11 100h55l6 54h-96l12 103h95l13 116h145l-13 -116h98l-12 -103h-97l-6 -54h52l-11 -100h-52l-9 -77c-9 -80 3 -76 38 -74c12 2 29 4 62 10c-3 -33 -6 -67 -10 -100c-38 -8 -64 -11 -81 -11c-153 0 -165 68 -153 187l8 65h-55z" />
    <glyph glyph-name="Eng" unicode="&#x14a;" horiz-adv-x="655" 
d="M669 668l-80 -698c-15 -125 -70 -153 -189 -150l-88 2l10 93c54 3 114 -6 123 63l1 22h-19l-177 468l-51 -468h-135l74 668h185l150 -425l48 425h148z" />
    <glyph glyph-name="eng" unicode="&#x14b;" horiz-adv-x="502" 
d="M232 -173l8 73c46 8 55 30 58 54l46 407c6 57 -72 26 -102 10l-40 -371h-146l55 499h122l7 -44c29 23 79 54 128 54c69 0 133 -35 122 -128l-45 -413c-14 -123 -72 -148 -146 -148c-7 0 -16 0 -67 7z" />
    <glyph glyph-name="Amacron" unicode="&#x100;" 
d="M145 0h-146l244 667h226l102 -667h-144l-24 169h-200zM345 554l-100 -268h142zM233 728l11 100h252l-11 -100h-252z" />
    <glyph glyph-name="Iogonek" unicode="&#x12e;" horiz-adv-x="241" 
d="M85 -196c-51 0 -94 29 -88 86c4 39 38 78 72 110h-20l72 667h151l-73 -667h-25c-48 -52 -98 -133 -38 -117l38 10l-3 -73c-15 -5 -60 -16 -86 -16z" />
    <glyph glyph-name="Edotaccent" unicode="&#x116;" horiz-adv-x="516" 
d="M477 0h-413l74 668h413l-13 -112h-264l-18 -160h242l-13 -113h-241l-19 -172h264zM279 810c7 65 15 77 85 77c67 0 77 -9 70 -77c-7 -63 -18 -79 -88 -79c-69 0 -74 15 -67 79z" />
    <glyph glyph-name="Imacron" horiz-adv-x="252" 
d="M273 667l-73 -667h-151l73 667h151zM82 728l11 100h252l-11 -100h-252z" />
    <glyph glyph-name="Ncommaaccent" unicode="&#x145;" horiz-adv-x="655" 
d="M248 -302l-32 68c12 8 26 18 33 25c-22 9 -23 32 -19 73c8 66 15 75 84 75c68 0 75 -11 68 -75c-8 -67 -39 -111 -134 -166zM595 0h-168l-177 468l-51 -468h-135l74 668h185l152 -428l46 428h148z" />
    <glyph glyph-name="Omacron" unicode="&#x14c;" horiz-adv-x="586" 
d="M293 -10c-215 0 -234 72 -204 343c32 279 69 344 281 344c216 0 236 -68 205 -344c-31 -279 -67 -343 -282 -343zM305 95c88 0 100 35 122 238c23 202 20 240 -69 240s-98 -42 -120 -240c-22 -195 -21 -238 67 -238zM253 728l11 100h252l-11 -100h-252z" />
    <glyph glyph-name="Kcommaaccent" unicode="&#x136;" horiz-adv-x="559" 
d="M213 0h-149l74 668h149l-31 -276h33l178 276h162l-213 -323l146 -345h-159l-124 285h-35zM233 -302l-32 68c11 8 26 18 33 25c-23 9 -23 32 -19 73c7 66 14 75 84 75c68 0 74 -11 67 -75c-7 -67 -38 -111 -133 -166z" />
    <glyph glyph-name="Uogonek" unicode="&#x172;" horiz-adv-x="604" 
d="M317 96c90 0 102 35 125 240l36 330h149c-1 -16 -33 -313 -35 -330c-29 -252 -61 -330 -224 -343c-46 -52 -89 -126 -31 -111l37 10l-2 -73c-16 -5 -61 -16 -87 -16c-50 0 -94 29 -88 86c4 36 33 72 65 103c-178 9 -194 90 -165 344l36 330h151l-36 -330
c-21 -197 -21 -240 69 -240z" />
    <glyph glyph-name="Utilde" unicode="&#x168;" horiz-adv-x="604" 
d="M463 742c-47 0 -77 39 -104 39c-12 0 -29 -25 -42 -47c-22 15 -41 31 -61 46c30 57 63 95 111 95c38 0 69 -38 88 -38c11 0 26 20 41 43c21 -16 41 -32 63 -48c-30 -77 -87 -90 -96 -90zM317 96c90 0 102 35 125 240l36 330h149c-1 -16 -33 -313 -35 -330
c-31 -281 -68 -346 -287 -346s-238 73 -208 346l36 330h151l-36 -330c-21 -197 -21 -240 69 -240z" />
    <glyph glyph-name="Umacron" unicode="&#x16a;" horiz-adv-x="604" 
d="M273 729l10 100h252l-10 -100h-252zM317 96c90 0 102 35 125 240l36 330h149c-1 -16 -33 -313 -35 -330c-31 -281 -68 -346 -287 -346s-238 73 -208 346l36 330h151l-36 -330c-21 -197 -21 -240 69 -240z" />
    <glyph glyph-name="amacron" unicode="&#x101;" horiz-adv-x="480" 
d="M170 550l11 100h252l-11 -100h-252zM60 282c16 158 68 226 183 226c37 0 142 -12 229 -37l-48 -474h-111l-6 45c-18 -22 -69 -51 -122 -51c-109 0 -131 82 -131 173c0 32 1 62 6 118zM263 418c-45 -7 -59 -111 -62 -154c-3 -32 -17 -181 18 -181c36 0 70 34 82 47l33 284
c-21 2 -46 8 -71 4z" />
    <glyph glyph-name="iogonek" unicode="&#x12f;" horiz-adv-x="243" 
d="M117 632c7 68 14 79 88 79c70 0 78 -7 70 -79c-7 -65 -17 -82 -88 -82c-74 0 -77 17 -70 82zM81 -196c-50 0 -94 29 -87 86c4 39 37 78 72 110h-12l55 499h147l-55 -499h-31c-48 -52 -97 -133 -38 -117l38 10l-3 -73c-15 -5 -60 -16 -86 -16z" />
    <glyph glyph-name="edotaccent" unicode="&#x117;" horiz-adv-x="485" 
d="M233 630c7 65 15 77 85 77c67 0 77 -9 70 -77c-7 -63 -18 -79 -87 -79c-70 0 -75 15 -68 79zM483 359c0 -38 -1 -145 -154 -147l-129 -2c-3 -22 -2 -45 -2 -61c0 -66 30 -68 66 -68c17 0 78 2 165 14l-6 -82c-68 -15 -135 -22 -194 -22c-126 0 -168 44 -168 156
c0 29 3 62 6 104c23 201 57 261 230 261c140 0 186 -41 186 -153zM292 424c-61 0 -70 -35 -81 -124h124c14 0 15 30 15 40v12c0 59 -16 72 -58 72z" />
    <glyph glyph-name="imacron" unicode="&#x12b;" horiz-adv-x="239" 
d="M189 0h-147l55 499h147zM55 550l11 100h252l-11 -100h-252z" />
    <glyph glyph-name="ncommaaccent" unicode="&#x146;" horiz-adv-x="505" 
d="M449 0h-145l40 361c6 57 -72 26 -102 10l-40 -371h-146l55 499h122l7 -44c29 23 79 54 128 54c69 0 133 -35 122 -128zM173 -302l-33 68c12 8 26 18 34 25c-23 9 -24 32 -19 73c7 66 14 75 83 75s75 -11 68 -75c-7 -67 -39 -111 -133 -166z" />
    <glyph glyph-name="omacron" unicode="&#x14d;" horiz-adv-x="500" 
d="M246 -9c-178 0 -197 59 -176 259c23 205 59 259 233 259c178 0 200 -58 178 -259s-57 -259 -235 -259zM257 91c60 0 68 28 82 159c16 136 12 162 -47 162c-57 0 -64 -30 -79 -162c-14 -131 -13 -159 44 -159zM182 548l11 100h252l-11 -100h-252z" />
    <glyph glyph-name="kcommaaccent" unicode="&#x137;" horiz-adv-x="526" 
d="M199 0h-143l74 673h143l-37 -334h45l136 230h149l-167 -283l127 -286h-153l-104 234h-45zM202 -302l-32 68c12 8 26 18 33 25c-22 9 -23 32 -19 73c8 66 15 75 84 75s75 -11 68 -75c-8 -67 -39 -111 -134 -166z" />
    <glyph glyph-name="uogonek" unicode="&#x173;" horiz-adv-x="505" 
d="M339 -193c-50 0 -95 29 -89 86c5 39 39 77 73 109l-7 41c-29 -23 -78 -54 -128 -54c-69 0 -133 35 -122 128l42 381h145l-41 -361c-6 -57 72 -26 102 -10l41 371h146l-56 -499h-22c-45 -52 -91 -128 -32 -113l37 10l-2 -73c-17 -5 -61 -16 -87 -16z" />
    <glyph glyph-name="utilde" unicode="&#x169;" horiz-adv-x="505" 
d="M108 498h145l-41 -361c-6 -57 72 -26 102 -10l41 371h146l-56 -499h-122l-7 44c-29 -23 -78 -54 -128 -54c-69 0 -133 35 -122 128zM385 547c-47 0 -76 39 -103 39c-12 0 -29 -25 -43 -47c-20 15 -40 31 -61 46c31 57 64 95 112 95c38 0 68 -38 88 -38c11 0 26 20 40 43
c22 -16 42 -32 63 -48c-29 -77 -86 -90 -96 -90z" />
    <glyph glyph-name="umacron" unicode="&#x16b;" horiz-adv-x="505" 
d="M108 498h145l-41 -361c-6 -57 72 -26 102 -10l41 371h146l-56 -499h-122l-7 44c-29 -23 -78 -54 -128 -54c-69 0 -133 35 -122 128zM197 549l11 100h252l-11 -100h-252z" />
    <glyph glyph-name="afii00208" unicode="&#x2015;" horiz-adv-x="589" 
d="M73 213l14 134h484l-14 -134h-484z" />
    <glyph glyph-name="uni1E02" unicode="&#x1e02;" horiz-adv-x="535" 
d="M249 0h-185l74 668h185c128 0 239 -15 221 -173l-5 -43c-6 -54 -31 -88 -66 -114c31 -32 44 -87 40 -126l-5 -40c-15 -136 -93 -172 -259 -172zM243 275l-18 -169l40 -1c58 -2 88 16 94 73l5 35c5 51 -16 62 -47 62h-74zM316 565h-41l-19 -173h74c32 0 54 13 60 62l3 33
c8 73 -22 78 -77 78zM256 808c8 65 16 77 85 77c68 0 77 -9 70 -77c-7 -63 -18 -79 -87 -79s-75 15 -68 79z" />
    <glyph glyph-name="uni1E03" unicode="&#x1e03;" horiz-adv-x="484" 
d="M472 283c-22 -202 -49 -291 -231 -291c-43 0 -122 7 -185 17l74 672h142l-21 -192c32 15 65 19 82 19c121 0 157 -64 139 -225zM327 275c16 148 -12 134 -87 115l-32 -293h42c56 0 63 57 77 178zM305 627c7 65 16 77 86 77c67 0 77 -9 69 -77c-6 -63 -17 -79 -87 -79
c-69 0 -74 15 -68 79z" />
    <glyph glyph-name="uni1E0A" unicode="&#x1e0a;" horiz-adv-x="587" 
d="M64 0l74 670l242 -1c170 -1 233 -53 201 -338c-29 -271 -92 -331 -265 -331h-252zM372 567h-95l-50 -460h94c70 0 91 45 111 224c23 211 8 236 -60 236zM270 808c7 65 15 77 85 77c67 0 77 -9 70 -77c-7 -63 -18 -79 -88 -79c-69 0 -74 15 -67 79z" />
    <glyph glyph-name="Wgrave" unicode="&#x1e80;" horiz-adv-x="843" 
d="M379 914l98 53l74 -186l-95 -52zM232 118l168 548h171l51 -548l121 549h134l-150 -667h-232l-41 422l-134 -422h-214l-20 667h138z" />
    <glyph glyph-name="Wacute" unicode="&#x1e82;" horiz-adv-x="846" 
d="M564 970l87 -53l-119 -185l-83 52zM232 118l168 548h171l51 -548l121 549h134l-150 -667h-232l-41 422l-134 -422h-214l-20 667h138z" />
    <glyph glyph-name="uni1E0B" unicode="&#x1e0b;" horiz-adv-x="479" 
d="M71 256l3 27c21 160 63 227 185 227c27 0 43 -4 77 -17l20 187h144l-74 -680h-120l-5 40c-27 -26 -72 -46 -105 -46c-107 0 -146 77 -125 262zM220 280c-19 -173 -24 -200 76 -144l29 256c-82 31 -95 -12 -105 -112zM160 629c7 65 15 77 85 77c67 0 77 -9 70 -77
c-7 -63 -18 -79 -87 -79c-70 0 -75 15 -68 79z" />
    <glyph glyph-name="Ygrave" unicode="&#x1ef2;" horiz-adv-x="535" 
d="M338 0h-152l22 198l-140 470h164l72 -291l140 291h163l-247 -470zM256 914l99 53l73 -186l-94 -52z" />
    <glyph glyph-name="uni1E1E" unicode="&#x1e1e;" horiz-adv-x="498" 
d="M214 0h-150l73 667h417l-11 -110h-268l-18 -163h229l-13 -111h-228zM271 808c7 65 15 77 84 77c68 0 78 -9 71 -77c-8 -63 -18 -79 -88 -79c-69 0 -74 15 -67 79z" />
    <glyph glyph-name="uni1E1F" unicode="&#x1e1f;" horiz-adv-x="366" 
d="M235 810c7 65 15 77 84 77c68 0 78 -9 71 -77c-8 -63 -18 -79 -88 -79c-69 0 -74 15 -67 79zM71 499h66c18 163 51 189 189 189c24 0 54 -1 112 -10l-6 -80h-100c-41 0 -48 -4 -56 -99h105l-8 -90h-103l-51 -448c-13 -110 -74 -148 -140 -148c-6 0 -20 0 -66 7l4 61
c50 10 62 50 69 115l44 413h-66z" />
    <glyph glyph-name="uni1E40" unicode="&#x1e40;" horiz-adv-x="814" 
d="M427 810c8 65 16 77 85 77c68 0 77 -9 70 -77c-7 -63 -18 -79 -87 -79s-75 15 -68 79zM209 0h-144l74 668h197l102 -348l180 348h210l-74 -668h-147l52 474l-189 -375h-110l-100 372z" />
    <glyph glyph-name="uni1E41" unicode="&#x1e41;" horiz-adv-x="758" 
d="M693 0h-147l39 357c7 61 -56 35 -95 20c-13 -122 -27 -257 -40 -377h-146l40 363c6 54 -71 29 -101 9l-41 -372h-146l55 499h123l6 -42c28 15 62 51 129 52c54 1 73 -24 94 -56c27 12 71 55 147 56c92 1 133 -46 124 -132zM382 626c8 65 17 77 86 77c67 0 77 -9 69 -77
c-6 -63 -17 -79 -86 -79s-75 15 -69 79z" />
    <glyph glyph-name="uni1E56" unicode="&#x1e56;" horiz-adv-x="567" 
d="M301 808c7 65 15 77 84 77c68 0 78 -9 70 -77c-7 -63 -18 -79 -87 -79s-75 15 -67 79zM216 0h-151l73 667h244c122 0 217 -35 202 -172l-8 -76c-13 -117 -85 -156 -174 -171c-22 -4 -41 -4 -160 -4zM278 563l-23 -211h91c39 0 76 8 82 67l8 75c8 61 -29 69 -67 69h-91z
" />
    <glyph glyph-name="wgrave" unicode="&#x1e81;" horiz-adv-x="690" 
d="M288 733l98 53l74 -186l-95 -52zM94 0l-12 500h136l4 -364l118 364h119l29 -364l99 364h129l-129 -500h-182l-36 267l-92 -267h-183z" />
    <glyph glyph-name="uni1E57" unicode="&#x1e57;" horiz-adv-x="481" 
d="M464 244l-2 -27c-22 -160 -63 -227 -186 -227c-27 0 -42 4 -77 7l-20 -177h-144l76 680h119l5 -34c30 18 72 40 105 40c107 0 145 -77 124 -262zM317 220c12 121 18 170 -14 170c-13 0 -34 -9 -64 -26l-28 -256c18 -3 37 -3 52 -3h-1c37 0 48 63 55 115zM243 628
c7 65 15 77 85 77c67 0 77 -9 70 -77c-7 -63 -18 -79 -88 -79c-69 0 -74 15 -67 79z" />
    <glyph glyph-name="wacute" unicode="&#x1e83;" horiz-adv-x="684" 
d="M476 789l87 -53l-118 -185l-83 52zM94 0l-12 500h136l4 -364l118 364h119l29 -364l99 364h129l-129 -500h-182l-36 267l-92 -267h-183z" />
    <glyph glyph-name="uni1E60" unicode="&#x1e60;" horiz-adv-x="505" 
d="M265 807c8 65 16 77 85 77c68 0 77 -9 70 -77c-7 -63 -18 -79 -87 -79s-75 15 -68 79zM238 516c-9 -84 281 -129 258 -340c-15 -129 -104 -186 -215 -186c-79 0 -135 5 -216 10l11 107s133 -7 211 -7c33 0 50 19 57 65c14 108 -280 134 -259 329c15 130 103 186 216 186
c115 0 164 -5 217 -9l-11 -107s-140 7 -211 7c-31 0 -53 -16 -58 -55z" />
    <glyph glyph-name="ygrave" unicode="&#x1ef3;" horiz-adv-x="473" 
d="M226 734l98 53l74 -186l-95 -52zM58 -152l29 62c12 -4 19 -6 25 -8c9 -3 22 -8 32 3c13 14 29 48 52 95h-58l-62 500h144l26 -350l138 350h140l-239 -582c-35 -85 -80 -106 -133 -106c-28 0 -62 10 -94 36z" />
    <glyph glyph-name="Wdieresis" unicode="&#x1e84;" horiz-adv-x="846" 
d="M346 798c7 56 14 67 75 67c58 0 66 -10 60 -67c-6 -55 -16 -69 -75 -69c-61 0 -65 13 -60 69zM513 798c6 56 14 67 74 67c59 0 66 -10 60 -67c-5 -55 -13 -69 -76 -69c-59 0 -63 13 -58 69zM232 118l168 548h171l51 -548l121 549h134l-150 -667h-232l-41 422l-134 -422
h-214l-20 667h138z" />
    <glyph glyph-name="wdieresis" unicode="&#x1e85;" horiz-adv-x="684" 
d="M265 621c7 56 13 67 74 67c58 0 67 -10 61 -67c-7 -55 -17 -69 -76 -69c-61 0 -65 13 -59 69zM432 621c6 56 13 67 73 67c59 0 67 -10 61 -67c-6 -55 -14 -69 -76 -69c-60 0 -64 13 -58 69zM94 0l-12 500h136l4 -364l118 364h119l29 -364l99 364h129l-129 -500h-182
l-36 267l-92 -267h-183z" />
    <glyph glyph-name="uni1E61" unicode="&#x1e61;" horiz-adv-x="431" 
d="M218 376c-6 -43 218 -74 200 -235c-11 -99 -89 -144 -181 -144c-89 0 -181 13 -181 13l11 104s86 -12 156 -12c24 0 43 4 45 28c7 61 -216 73 -198 234c11 100 86 145 180 145c90 0 182 -13 182 -13l-11 -105s-106 12 -179 12c-14 0 -22 -9 -24 -27zM204 628
c7 65 16 77 85 77c67 0 77 -9 70 -77c-7 -63 -18 -79 -87 -79c-70 0 -75 15 -68 79z" />
    <glyph glyph-name="Wcircumflex" unicode="&#x174;" horiz-adv-x="846" 
d="M663 815l-72 -82l-89 91l-115 -91l-46 84l177 142zM232 118l168 548h171l51 -548l121 549h134l-150 -667h-232l-41 422l-134 -422h-214l-20 667h138z" />
    <glyph glyph-name="uni1E6A" unicode="&#x1e6a;" horiz-adv-x="521" 
d="M337 0h-153l62 557h-170l11 110h493l-12 -110h-170zM273 809c7 65 15 77 84 77c68 0 78 -9 70 -77c-7 -63 -18 -79 -87 -79s-75 15 -67 79z" />
    <glyph glyph-name="Ycircumflex" unicode="&#x176;" horiz-adv-x="535" 
d="M338 0h-152l22 198l-140 470h164l72 -291l140 291h163l-247 -470zM518 815l-72 -82l-89 91l-115 -91l-46 84l177 142z" />
    <glyph glyph-name="wcircumflex" unicode="&#x175;" horiz-adv-x="684" 
d="M578 628l-72 -82l-89 91l-116 -91l-45 84l177 142zM94 0l-12 500h136l4 -364l118 364h119l29 -364l99 364h129l-129 -500h-182l-36 267l-92 -267h-183z" />
    <glyph glyph-name="uni1E6B" unicode="&#x1e6b;" horiz-adv-x="380" 
d="M192 752c7 65 15 77 84 77c68 0 78 -9 70 -77c-7 -63 -18 -79 -87 -79s-75 15 -67 79zM283 -9c-124 0 -154 45 -154 127c0 18 1 37 3 59l25 223h-97c5 34 9 66 13 100h95c4 38 10 79 14 117h142l-13 -117h98c-3 -34 -8 -66 -12 -100h-97c-8 -75 -18 -159 -26 -235
c-2 -16 -3 -32 -3 -41c0 -40 13 -36 43 -35l60 3l-10 -91c-37 -8 -63 -10 -81 -10z" />
    <glyph glyph-name="ycircumflex" unicode="&#x177;" horiz-adv-x="473" 
d="M480 630l-72 -82l-89 91l-116 -91l-46 84l179 142zM58 -152l29 62c12 -4 19 -6 25 -8c9 -3 22 -8 32 3c13 14 29 48 52 95h-58l-62 500h144l26 -350l138 350h140l-239 -582c-35 -85 -80 -106 -133 -106c-28 0 -62 10 -94 36z" />
    <glyph glyph-name="lessequal" unicode="&#x2264;" horiz-adv-x="550" 
d="M507 222l-409 188l8 71l450 186l-13 -122l-257 -100l234 -101zM62 80l14 117h428l-14 -117h-428z" />
    <glyph glyph-name="greaterequal" unicode="&#x2265;" horiz-adv-x="550" 
d="M536 410l-450 -188l14 122l255 101l-234 100l13 122l410 -186zM512 197l-13 -117h-429l14 117h428z" />
    <glyph glyph-name="ampersand.salt" horiz-adv-x="586" 
d="M584 0h-166l-24 47c-41 -37 -84 -68 -161 -68c-73 0 -202 47 -185 203c10 97 72 156 154 208c-17 30 -46 96 -41 147c12 102 94 124 187 124c38 0 64 1 187 -6l-11 -94l-176 2c-17 0 -27 -11 -28 -25c-6 -50 84 -191 124 -266l43 41l68 -101l-48 -48zM325 171l-54 97
c-35 -26 -64 -53 -67 -78c-3 -35 27 -66 44 -66c36 0 67 39 77 47z" />
    <glyph glyph-name="uni00AD" unicode="&#xad;" horiz-adv-x="0" 
 />
    </font>
</defs>
</svg>
