<svg width="159" height="249" viewBox="0 0 159 249" fill="none" xmlns="http://www.w3.org/2000/svg">
<path d="M124.503 220.576C124.503 220.576 128.324 215.489 134.115 216.066C134.115 216.066 133.643 219.55 127.271 221.514L124.503 220.576Z" fill="#DCAF54"/>
<path d="M123.955 220.972C123.955 220.972 124.501 227.31 129.726 229.89C129.726 229.89 131.163 226.683 126.797 221.647L123.955 220.972Z" fill="#DCAF54"/>
<path d="M115.736 217.636C115.736 217.636 114.343 212.58 126.05 210.239C126.05 210.239 127.238 213.4 123.873 216.299C120.509 219.198 118.265 218.581 115.736 217.636Z" fill="#DCAF54"/>
<path d="M115.034 217.846C115.034 217.846 110.868 221.04 118.794 229.975C118.794 229.975 121.646 228.173 120.713 223.829C119.78 219.485 117.619 218.633 115.034 217.846Z" fill="#DCAF54"/>
<path d="M106.242 213.111C106.242 213.111 102.716 205.228 114.373 201.999C114.373 201.999 117.8 209.051 108.946 214.341L106.242 213.111Z" fill="#DCAF54"/>
<path d="M95.4565 206.644C95.4565 206.644 93.7344 196.902 106.088 195.571C106.088 195.571 108.97 203.5 98.1107 208.167L95.4565 206.644Z" fill="#DCAF54"/>
<path d="M86.5867 199.142C86.5867 199.142 85.9918 189.244 98.2164 187.917C98.2164 187.917 98.4352 196.919 87.9277 200.529L86.5867 199.142Z" fill="#DCAF54"/>
<path d="M78.0722 191.768C78.0722 191.768 77.2997 181.554 89.1588 180.478C89.1588 180.478 88.6836 190.598 79.3431 193.098L78.0722 191.768Z" fill="#DCAF54"/>
<path d="M71.5729 184.193C71.5729 184.193 69.4767 172.132 80.5003 171.026C80.5003 171.026 81.2498 182.413 72.8981 185.58L71.5729 184.193Z" fill="#DCAF54"/>
<path d="M64.6324 174.713C64.6324 174.713 62.8933 162.425 74.3328 162.092C74.3328 162.092 74.1749 174.35 65.9128 176.04L64.6324 174.713Z" fill="#DCAF54"/>
<path d="M59.157 165.556C59.157 165.556 58.7953 152.776 66.846 150.248C66.846 150.248 67.337 163.687 60.6413 167.614L59.157 165.556Z" fill="#DCAF54"/>
<path d="M54.474 156.354C54.474 156.354 53.6159 141.117 60.4509 139.875C60.4509 139.875 61.3998 151.414 55.4691 158.42L54.474 156.354Z" fill="#DCAF54"/>
<path d="M49.6607 145.101C49.6607 145.101 49.3679 132.258 55.5751 129.521C55.5751 129.521 57.0172 141.746 50.8667 148.036L49.6607 145.101Z" fill="#DCAF54"/>
<path d="M45.0619 134.669C45.0619 134.669 45.7089 121.473 49.8271 119.706C49.8271 119.706 51.8067 131.762 46.1573 136.405L45.0619 134.669Z" fill="#DCAF54"/>
<path d="M105.91 213.164C105.91 213.164 97.4662 214.99 101.782 226.295C101.782 226.295 109.492 224.877 108.503 214.606L105.91 213.164Z" fill="#DCAF54"/>
<path d="M94.9719 206.474C94.9719 206.474 85.6464 209.769 90.5694 221.16C90.5694 221.16 98.8881 219.766 97.6005 208.015L94.9719 206.474Z" fill="#DCAF54"/>
<path d="M86.7692 199.931C86.7692 199.931 76.8938 198.987 75.1395 211.157C75.1395 211.157 84.131 211.668 88.1069 201.325L86.7692 199.931Z" fill="#DCAF54"/>
<path d="M77.9109 191.923C77.9109 191.923 67.7468 190.792 66.2334 202.614C66.2334 202.614 76.365 202.494 79.1899 193.245L77.9109 191.923Z" fill="#DCAF54"/>
<path d="M71.7687 184.397C71.7687 184.397 60.5907 179.413 56.8201 189.844C56.8201 189.844 67.6744 193.35 72.7853 186.032L71.7687 184.397Z" fill="#DCAF54"/>
<path d="M65.0034 174.271C65.0034 174.271 53.7114 169.124 50.151 179.99C50.151 179.99 61.9502 183.309 65.9119 175.862L65.0034 174.271Z" fill="#DCAF54"/>
<path d="M59.8944 164.911C59.8944 164.911 49.8044 157.055 43.0072 162.038C43.0072 162.038 53.5571 170.408 60.6755 167.326L59.8944 164.911Z" fill="#DCAF54"/>
<path d="M54.6443 156.221C54.6443 156.221 43.5511 145.741 38.1973 150.161C38.1973 150.161 46.4035 158.328 55.5743 158.312L54.6443 156.221Z" fill="#DCAF54"/>
<path d="M56.1416 158.599L55.455 158.909C54.6763 157.199 53.9111 155.432 53.1918 153.661C46.925 138.25 40.7416 124.249 35.5177 113.963L35.7464 113.31C40.9811 123.615 47.6131 137.944 53.8921 153.378C54.6085 155.14 55.3644 156.894 56.1416 158.599Z" fill="#444053"/>
<path d="M140.926 224.861C140.781 224.849 126.336 223.737 108.662 215.089C98.3127 210.028 88.831 203.36 80.5693 195.331C70.2434 185.296 61.2547 171.635 54.8379 157.541L55.7008 157.624C70.1008 189.262 92.9213 206.256 109.048 214.173C126.553 222.749 140.848 223.85 140.982 223.86L140.926 224.861Z" fill="#444053"/>
<g opacity="0.7">
<path opacity="0.7" d="M134.922 184.173C134.922 184.173 140.084 180.457 145.446 182.727C145.446 182.727 143.956 185.915 137.287 185.891L134.922 184.173Z" fill="#DCAF54"/>
<path opacity="0.7" d="M134.279 184.386C134.279 184.386 132.92 190.601 137.137 194.612C137.137 194.612 139.448 191.987 136.797 185.873L134.279 184.386Z" fill="#DCAF54"/>
<path opacity="0.7" d="M127.42 178.759C127.42 178.759 127.6 173.516 139.469 174.764C139.469 174.764 139.667 178.136 135.585 179.902C131.503 181.667 129.558 180.403 127.42 178.759Z" fill="#DCAF54"/>
<path opacity="0.7" d="M126.691 178.753C126.691 178.753 121.771 180.563 126.671 191.448C126.671 191.448 129.936 190.578 130.336 186.149C130.736 181.72 128.924 180.267 126.691 178.753Z" fill="#DCAF54"/>
<path opacity="0.7" d="M119.705 171.599C119.705 171.599 118.677 163.034 130.769 163.412C130.769 163.412 131.948 171.161 121.918 173.58L119.705 171.599Z" fill="#DCAF54"/>
<path opacity="0.7" d="M111.333 162.209C111.333 162.209 112.587 152.403 124.761 154.804C124.761 154.804 125.154 163.229 113.395 164.457L111.333 162.209Z" fill="#DCAF54"/>
<path opacity="0.7" d="M105.099 152.433C105.099 152.433 107.478 142.796 119.545 145.173C119.545 145.173 117.043 153.835 105.969 154.151L105.099 152.433Z" fill="#DCAF54"/>
<path opacity="0.7" d="M99.1637 142.857C99.1637 142.857 101.464 132.889 113.117 135.376C113.117 135.376 109.655 144.894 99.9956 144.504L99.1637 142.857Z" fill="#DCAF54"/>
<path opacity="0.7" d="M95.211 133.691C95.211 133.691 96.7975 121.553 107.662 123.781C107.662 123.781 104.988 134.87 96.0764 135.411L95.211 133.691Z" fill="#DCAF54"/>
<path opacity="0.7" d="M91.4095 122.575C91.4095 122.575 93.4049 110.325 104.421 113.414C104.421 113.414 100.626 125.065 92.2366 124.223L91.4095 122.575Z" fill="#DCAF54"/>
<path opacity="0.7" d="M88.9108 112.188C88.9108 112.188 92.3583 99.8829 100.8 99.8613C100.8 99.8613 97.272 112.856 89.7109 114.597L88.9108 112.188Z" fill="#DCAF54"/>
<path opacity="0.7" d="M87.1939 102.015C87.1939 102.015 90.9026 87.218 97.8033 88.0631C97.8033 88.0631 95.2735 99.363 87.531 104.283L87.1939 102.015Z" fill="#DCAF54"/>
<path opacity="0.7" d="M85.9229 89.8525C85.9229 89.8525 89.4705 77.5004 96.2044 76.7355C96.2044 76.7355 93.9481 88.8381 86.2056 93.0103L85.9229 89.8525Z" fill="#DCAF54"/>
<path opacity="0.7" d="M84.6406 78.5187C84.6406 78.5187 89.1797 66.1108 93.6385 65.6592C93.6385 65.6592 91.9406 77.7586 85.1655 80.5024L84.6406 78.5187Z" fill="#DCAF54"/>
<path opacity="0.7" d="M83.6453 67.9622C83.6453 67.9622 86.2082 54.6077 90.6183 53.3035C90.6183 53.3035 90.4493 64.1636 84.1351 68.9373L83.6453 67.9622Z" fill="#DCAF54"/>
<path opacity="0.7" d="M81.3945 54.1829C81.3945 54.1829 84.2263 43.4939 87.7673 41.7208C87.7673 41.7208 87.5631 54.1971 82.3329 56.7162L81.3945 54.1829Z" fill="#DCAF54"/>
<path opacity="0.7" d="M79.6261 45.1396L78.2033 26.5465C78.2033 26.5465 85.5229 40.3196 80.2496 48.3835L79.6261 45.1396Z" fill="#DCAF54"/>
<path opacity="0.7" d="M73.6537 26.855C73.6537 26.855 68.2315 13.4625 67.0293 12.7324C67.0293 12.7324 76.928 21.1611 76.4645 32.5474L73.6537 26.855Z" fill="#DCAF54"/>
<path opacity="0.7" d="M119.374 171.561C119.374 171.561 110.768 170.797 111.531 182.875C111.531 182.875 119.309 183.816 121.421 173.714L119.374 171.561Z" fill="#DCAF54"/>
<path opacity="0.7" d="M110.918 161.922C110.918 161.922 101.034 162.297 102.345 174.637C102.345 174.637 110.705 175.781 112.971 164.177L110.918 161.922Z" fill="#DCAF54"/>
<path opacity="0.7" d="M105.038 153.236C105.038 153.236 95.8924 149.396 90.5915 160.496C90.5915 160.496 99.0225 163.662 105.898 154.958L105.038 153.236Z" fill="#DCAF54"/>
<path opacity="0.7" d="M98.9682 142.954C98.9682 142.954 89.5955 138.856 84.6382 149.686C84.6382 149.686 94.3465 152.591 99.7953 144.602L98.9682 142.954Z" fill="#DCAF54"/>
<path opacity="0.7" d="M95.3457 133.946C95.3457 133.946 86.1507 125.861 79.4463 134.694C79.4463 134.694 88.7692 141.276 95.8284 135.813L95.3457 133.946Z" fill="#DCAF54"/>
<path opacity="0.7" d="M91.8977 122.263C91.8977 122.263 82.6443 113.992 76.0201 123.313C76.0201 123.313 86.3047 130.01 92.2916 124.063L91.8977 122.263Z" fill="#DCAF54"/>
<path opacity="0.7" d="M89.7996 111.804C89.7996 111.804 82.5066 101.306 74.542 104.058C74.542 104.058 82.124 115.192 89.8369 114.365L89.7996 111.804Z" fill="#DCAF54"/>
<path opacity="0.7" d="M87.3709 101.949C87.3709 101.949 79.9 88.6414 73.4756 91.2695C73.4756 91.2695 78.8832 101.509 87.6432 104.226L87.3709 101.949Z" fill="#DCAF54"/>
<path opacity="0.7" d="M86.3728 89.1355C86.3728 89.1355 78.8322 78.7305 72.2344 80.3101C72.2344 80.3101 78.4846 90.9173 87.187 92.2045L86.3728 89.1355Z" fill="#DCAF54"/>
<path opacity="0.7" d="M85.3813 78.249C85.3813 78.249 79.3873 66.4788 74.9049 66.5562C74.9049 66.5562 78.0401 78.3633 85.0914 80.2852L85.3813 78.249Z" fill="#DCAF54"/>
<path opacity="0.7" d="M83.8529 67.6924C83.8529 67.6924 77.2366 55.7887 72.6406 55.9541C72.6406 55.9541 76.1994 66.2163 83.6944 68.7671L83.8529 67.6924Z" fill="#DCAF54"/>
<path opacity="0.7" d="M82.4073 54.8892C82.4073 54.8892 77.4191 45.0194 73.5855 44.0351C73.5855 44.0351 76.3677 56.1991 82.0322 57.5849L82.4073 54.8892Z" fill="#DCAF54"/>
<path opacity="0.7" d="M79.062 44.7939L68.1979 29.6424C68.1979 29.6424 71.4325 44.9049 80.677 47.6997L79.062 44.7939Z" fill="#DCAF54"/>
<path opacity="0.7" d="M71.3584 28.2043C71.3584 28.2043 59.1386 20.4903 58.6543 19.1841C58.6543 19.1841 65.187 30.4234 76.4711 31.9908L71.3584 28.2043Z" fill="#DCAF54"/>
<path opacity="0.7" d="M70.4967 24.5498C70.4967 24.5498 56.3144 11.9952 52.834 12.1494C52.834 12.1494 64.1026 12.2055 70.7943 23.834L70.4967 24.5498Z" fill="#DCAF54"/>
<path opacity="0.7" d="M82.349 56.8311L81.8523 56.9142C78.4635 36.9583 74.24 25.2484 69.9543 23.9568L70.1012 23.4767C74.6489 24.8531 78.8801 36.388 82.349 56.8311Z" fill="#444053"/>
<path opacity="0.7" d="M88.104 104.689L87.3548 104.784C87.1229 102.917 86.9185 101.005 86.7567 99.0955C85.3614 82.5168 83.6257 67.3156 81.693 55.9407L82.1078 55.3814C84.0477 66.7959 86.1088 82.4332 87.5117 99.0357C87.6615 100.907 87.8628 102.81 88.104 104.689Z" fill="#444053"/>
<path opacity="0.7" d="M149.334 193.148C149.202 193.095 135.742 187.737 121.42 174.222C113.046 166.312 105.979 157.124 100.483 147C93.6101 134.346 89.0882 118.631 87.1598 103.266L87.9554 103.601C92.2994 138.089 109.032 161.108 122.091 173.462C136.24 186.859 149.557 192.162 149.694 192.214L149.334 193.148Z" fill="#444053"/>
</g>
</svg>
