<svg width="244" height="197" viewBox="0 0 244 197" fill="none" xmlns="http://www.w3.org/2000/svg">
<g clip-path="url(#clip0)">
<path d="M139.002 174.282C137.315 171.916 135.031 170.185 132.16 169.537C129.656 168.972 127.081 169.069 124.536 169.088L92.3535 169.337C89.5972 169.358 86.9546 171.749 87.0826 174.615C87.2097 177.456 89.3991 179.916 92.3535 179.893C101.781 179.82 111.208 179.748 120.635 179.675C122.858 179.658 125.082 179.617 127.304 179.625C127.803 179.626 128.3 179.653 128.799 179.658C128.92 179.66 129.007 179.659 129.069 179.656C129.084 179.661 129.097 179.665 129.117 179.671C129.377 179.742 129.644 179.791 129.906 179.859C129.814 179.862 130.076 180.025 130.207 180.081C130.225 180.116 130.263 180.18 130.328 180.277C130.417 180.445 130.682 180.956 130.693 180.94C131.092 181.949 131.421 182.984 131.677 184.039C132.29 186.363 132.424 186.849 132.513 189.031C132.624 191.786 134.857 194.44 137.783 194.309C140.544 194.185 143.174 191.986 143.054 189.031C142.853 184.051 141.98 178.458 139.002 174.282Z" fill="#DCAF54"/>
<path d="M94.2438 186.192C93.6393 182.524 93.0464 178.853 92.4302 175.187C91.8049 171.468 90.5279 168.062 87.6377 165.621C86.8654 164.969 86.0647 164.36 85.2606 163.753C84.9778 163.54 84.6955 163.326 84.4161 163.108C84.3994 163.095 84.3888 163.087 84.3743 163.076C84.3436 163.049 84.3067 163.018 84.2572 162.976C83.0525 161.955 81.8886 160.888 80.7798 159.755C79.7952 158.748 78.8537 157.699 77.9551 156.606C77.7305 156.333 77.5089 156.058 77.2901 155.78C77.2525 155.732 77.0498 155.47 76.9163 155.299C76.7921 155.128 76.5651 154.818 76.527 154.764C76.2714 154.402 76.0204 154.037 75.7739 153.668C74.0951 151.15 72.6414 148.488 71.4297 145.713C71.3096 145.438 71.1922 145.161 71.0778 144.883C71.047 144.798 71.0073 144.689 70.9546 144.543C70.7104 143.871 70.4667 143.199 70.2434 142.519C69.7691 141.074 69.3612 139.607 69.02 138.12C68.8512 137.385 68.6993 136.647 68.5643 135.904C68.4946 135.523 68.4295 135.14 68.3688 134.757C68.3588 134.694 68.2996 134.28 68.2648 134.046C68.239 133.812 68.1911 133.396 68.1846 133.332C68.146 132.946 68.1118 132.559 68.0819 132.172C68.0145 131.301 67.9689 130.429 67.9452 129.555C67.9046 128.002 67.9324 126.449 68.0285 124.896C68.0832 124.024 68.161 123.154 68.2569 122.285C68.2627 122.232 68.2672 122.189 68.2714 122.151C68.2772 122.112 68.2839 122.068 68.292 122.013C68.3629 121.533 68.4375 121.054 68.521 120.576C68.8372 118.762 69.2483 116.966 69.7528 115.195C69.9917 114.357 70.2512 113.526 70.5312 112.702C70.656 112.336 70.7848 111.972 70.9176 111.609C70.9089 111.632 71.307 110.614 71.3123 110.58C72.8919 106.843 75.4755 103.436 75.4791 99.1901C75.4815 96.3157 73.0531 93.5622 70.2082 93.695C68.7898 93.7485 67.4476 94.3513 66.4643 95.3764C65.4811 96.4014 64.9336 97.7687 64.9373 99.1901C64.9373 99.2546 64.937 99.3097 64.9369 99.3632C64.9103 99.4526 64.8881 99.5273 64.8682 99.5933C64.5601 100.264 64.1828 100.901 63.8447 101.554C62.9188 103.343 62.1285 105.191 61.3778 107.066C60.1488 110.119 59.2081 113.281 58.568 116.51C57.1767 123.585 57.0687 130.853 58.2492 137.966C60.2928 150.44 67.0323 162.381 76.4017 170.407C77.2148 171.103 78.0477 171.777 78.8885 172.436C79.2365 172.709 79.5873 172.977 79.9399 173.243C80.1065 173.369 80.7969 173.914 80.4932 173.65C81.1463 174.208 81.4212 174.489 81.5889 174.9C81.6132 174.995 81.6464 175.123 81.6912 175.299C81.8095 175.763 81.9218 176.225 82.015 176.696C82.8306 180.803 83.3974 184.979 84.0786 189.114C84.5469 191.954 88.039 193.803 90.5625 192.952C93.4997 191.961 94.7455 189.236 94.2438 186.192Z" fill="#DCAF54"/>
<path d="M139.536 196.846C137.322 196.852 135.196 195.978 133.625 194.417C132.054 192.855 131.166 190.733 131.155 188.517V182.496C124.86 183.201 103.304 183.038 97.1249 182.044V188.276C97.1083 190.491 96.2181 192.609 94.6482 194.17C93.0783 195.73 90.9561 196.606 88.7442 196.606C86.5323 196.606 84.4101 195.73 82.8402 194.17C81.2703 192.609 80.38 190.491 80.3635 188.276V176.04C71.9945 171.384 65.0179 164.576 60.1534 156.319C55.289 148.062 52.7131 138.655 52.6914 129.068C52.6914 112.63 60.1309 97.295 73.1024 86.9962C81.5364 80.2773 91.7835 76.2366 102.528 75.393C103.986 75.2785 105.453 75.2205 106.889 75.2205C111.947 75.2205 134.765 76.0029 140.49 77.6523L153.545 64.6806C153.737 64.4873 153.982 64.3556 154.249 64.3023C154.516 64.2491 154.792 64.2766 155.044 64.3815C155.297 64.4823 155.514 64.6575 155.666 64.8839C155.817 65.1104 155.897 65.3776 155.895 65.6504V67.7129L158.437 65.1919C158.629 64.9984 158.873 64.8665 159.14 64.8131C159.407 64.7597 159.684 64.7873 159.935 64.8922C160.188 64.9931 160.405 65.1682 160.557 65.3948C160.709 65.6214 160.789 65.8887 160.787 66.1617V89.2091C167.338 95.1228 172.33 102.563 175.323 110.871C178.315 119.179 179.215 128.098 177.942 136.837C176.669 145.577 173.263 153.867 168.025 160.973C162.788 168.079 155.881 173.781 147.916 177.575V188.517C147.905 190.733 147.017 192.855 145.446 194.417C143.875 195.978 141.749 196.852 139.536 196.846ZM131.814 181.748V188.517C131.83 190.557 132.651 192.507 134.098 193.944C135.544 195.38 137.498 196.186 139.536 196.186C141.573 196.186 143.527 195.38 144.974 193.944C146.42 192.507 147.241 190.557 147.257 188.517V177.158L147.445 177.068C156.382 172.822 163.969 166.178 169.363 157.875C176.236 147.28 179.095 134.57 177.421 122.047C175.747 109.524 169.652 98.0144 160.238 89.6018L160.128 89.5034V66.1617C160.131 66.0199 160.089 65.8807 160.01 65.763C159.931 65.6453 159.818 65.5547 159.686 65.5034C159.555 65.4472 159.41 65.432 159.27 65.4598C159.13 65.4877 159.002 65.5573 158.902 65.6594L155.236 69.295V65.6504C155.239 65.5086 155.197 65.3695 155.118 65.2518C155.039 65.134 154.926 65.0434 154.794 64.9921C154.663 64.936 154.517 64.921 154.377 64.949C154.237 64.9771 154.108 65.0469 154.008 65.1493L140.674 78.3987L140.485 78.3393C135.163 76.6712 111.985 75.8803 106.889 75.8803C105.471 75.8803 104.021 75.9376 102.58 76.0509C91.9658 76.8841 81.8432 80.8758 73.5118 87.5131C60.6988 97.6861 53.3502 112.832 53.3502 129.068C53.3721 138.57 55.9343 147.893 60.7706 156.068C65.6069 164.243 72.5409 170.973 80.8524 175.557L81.0223 175.651V188.276C81.0393 190.316 81.8603 192.266 83.3066 193.702C84.7529 195.138 86.7073 195.944 88.7442 195.944C90.7811 195.944 92.7355 195.138 94.1818 193.702C95.628 192.266 96.4491 190.316 96.4661 188.276V181.254L96.8564 181.327C102.409 182.374 125.791 182.539 131.441 181.796L131.814 181.748Z" fill="#3F3D56"/>
<path d="M116.001 27.0532C110.009 27.0555 104.252 29.3928 99.95 33.5704C95.6479 37.748 93.1379 43.4379 92.9512 49.436C92.9446 49.6702 92.9414 49.9078 92.9414 50.1453C92.9414 54.7125 94.2938 59.1771 96.8277 62.9745C99.3616 66.772 102.963 69.7318 107.177 71.4795C111.39 73.2273 116.027 73.6846 120.5 72.7936C124.973 71.9026 129.082 69.7033 132.307 66.4738C135.532 63.2443 137.729 59.1297 138.618 54.6503C139.508 50.1709 139.052 45.5279 137.306 41.3083C135.561 37.0888 132.605 33.4823 128.813 30.9449C125.021 28.4075 120.562 27.0532 116.001 27.0532ZM116.001 72.5776C110.062 72.5714 104.368 70.206 100.168 66.0004C95.9686 61.7949 93.6064 56.0928 93.6003 50.1453C93.6003 49.8385 93.6068 49.535 93.62 49.2348C93.7984 44.8406 95.2627 40.5959 97.8309 37.0285C100.399 33.461 103.958 30.7282 108.064 29.1698C112.171 27.6115 116.645 27.2963 120.929 28.2636C125.213 29.2308 129.119 31.4378 132.16 34.6101C135.202 37.7824 137.245 41.78 138.036 46.1058C138.827 50.4317 138.331 54.895 136.609 58.9406C134.887 62.9863 132.016 66.4359 128.352 68.8605C124.688 71.2851 120.393 72.5777 116.001 72.5776Z" fill="#3F3D56"/>
<path d="M135.439 50.1449C135.439 55.3069 133.391 60.2574 129.746 63.9075C126.101 67.5576 121.158 69.6082 116.003 69.6082C110.848 69.6082 105.904 67.5576 102.259 63.9075C98.6142 60.2574 96.5664 55.3069 96.5664 50.1449C96.5664 49.528 96.596 48.921 96.652 48.3206C97.1204 43.3387 99.4868 38.7289 103.26 35.4483C107.033 32.1677 111.923 30.4683 116.915 30.7031C121.906 30.9379 126.615 33.0887 130.065 36.709C133.514 40.3293 135.439 45.141 135.439 50.1449Z" fill="#DCAF54"/>
<path d="M121.787 51.4382C121.316 50.8179 120.696 50.3266 119.985 50.0098C119.108 49.6396 118.203 49.3418 117.277 49.1191V43.8211C118.7 44.0358 120.034 44.6449 121.128 45.5794L122.202 43.2867C121.585 42.7356 120.876 42.2969 120.107 41.9902C119.255 41.6448 118.361 41.4152 117.449 41.3074V38.6221H114.962V41.3337C114.001 41.4418 113.075 41.7533 112.244 42.2475C111.493 42.6924 110.861 43.3127 110.402 44.0553C109.964 44.78 109.737 45.613 109.747 46.4602C109.704 47.3782 109.969 48.2841 110.501 49.0333C110.99 49.6819 111.637 50.1951 112.379 50.5244C113.27 50.9054 114.191 51.2111 115.133 51.4382V56.5151C113.454 56.3883 111.855 55.7493 110.55 54.6842L109.477 56.9803C110.206 57.5842 111.036 58.0553 111.927 58.3724C112.905 58.7226 113.926 58.9358 114.962 59.0058V61.6679H117.449V58.9563C118.83 58.8051 120.126 58.2103 121.142 57.2607C121.589 56.831 121.942 56.313 122.179 55.7395C122.416 55.166 122.532 54.5494 122.519 53.9288C122.56 53.04 122.302 52.1631 121.787 51.4382ZM115.133 48.5582C114.527 48.3743 113.964 48.0715 113.476 47.6676C113.282 47.4953 113.13 47.2823 113.028 47.0439C112.927 46.8055 112.879 46.5476 112.889 46.2886C112.871 45.7011 113.087 45.1304 113.489 44.7019C113.934 44.2523 114.509 43.9536 115.133 43.8475V48.5582ZM118.839 55.5782C118.419 56.0098 117.871 56.2954 117.277 56.3931V52.0254C117.845 52.1779 118.376 52.4438 118.839 52.8072C119.014 52.9572 119.154 53.1448 119.247 53.3561C119.339 53.5674 119.384 53.797 119.376 54.0278C119.399 54.5939 119.207 55.1478 118.839 55.5782Z" fill="#1448B6"/>
<path d="M128.556 78.9689C121.822 78.8737 115.109 79.0448 108.417 79.4823C106.129 79.6318 104.15 80.4414 104.15 81.8021C104.15 82.9397 106.114 84.2724 108.417 84.1218C115.105 83.6845 121.818 83.5133 128.556 83.6084C134.049 83.686 134.045 79.0464 128.556 78.9689Z" fill="#DCAF54"/>
<path d="M118.601 83.3786C117.874 83.3786 100.777 83.3514 100.777 80.9866C100.777 78.6219 117.874 78.5947 118.601 78.5947C119.329 78.5947 136.425 78.6219 136.425 80.9866C136.425 83.3514 119.329 83.3786 118.601 83.3786ZM101.446 80.9866C101.914 81.7035 108.198 82.7188 118.601 82.7188C129.005 82.7188 135.289 81.7035 135.757 80.9866C135.289 80.2698 129.005 79.2545 118.601 79.2545C108.198 79.2545 101.914 80.2698 101.446 80.9866V80.9866Z" fill="#3F3D56"/>
<path d="M166.57 108.777H154.238V111.07H166.57V108.777Z" fill="#3F3D56"/>
<path d="M243.607 197H0.391112C0.287278 197 0.187803 196.959 0.114488 196.885C0.0411728 196.811 0 196.712 0 196.608C0 196.504 0.0411728 196.404 0.114488 196.33C0.187803 196.257 0.287278 196.215 0.391112 196.215H243.607C243.711 196.215 243.81 196.256 243.884 196.33C243.958 196.404 243.999 196.503 243.999 196.608C243.999 196.712 243.958 196.812 243.884 196.885C243.81 196.959 243.711 197 243.607 197Z" fill="#3F3D56"/>
</g>
<defs>
<clipPath id="clip0">
<rect width="244" height="197" fill="white"/>
</clipPath>
</defs>
</svg>
