<svg width="342" height="196" viewBox="0 0 342 196" fill="none" xmlns="http://www.w3.org/2000/svg">
<path d="M108 0L48 33C49.0306 34.7782 48.742 36.9599 49 39C49.258 41.0401 49.5554 43.0203 49 45C48.4446 46.9797 47.281 48.3935 46 50C44.719 51.6065 43.8042 53.0206 42 54C40.1958 54.9794 38.0424 55.8023 36 56C33.9576 56.1977 31.9578 55.6154 30 55C28.0422 54.3846 25.564 53.3312 24 52C22.436 50.6688 21.923 48.8366 21 47L0 59L53 157L161 98L108 0Z" fill="#F2F2F2"/>
<path d="M34 53C40.9036 53 46 46.9036 46 40C46 33.0964 40.9036 28 34 28C27.0964 28 21 33.0964 21 40C21 46.9036 27.0964 53 34 53Z" fill="#1448B6"/>
<path d="M342 59H41V196H342V59Z" fill="#DCAF54"/>
<path d="M337 64H46V188H337V64Z" fill="white"/>
<path d="M307 182H279V192H307V182Z" fill="#DCAF54"/>
<path d="M278 189H257V192H278V189Z" fill="#1448B6"/>
<path d="M70 111H181L198 119L225 133L243 99H294" stroke="#DCAF54" stroke-width="2" stroke-miterlimit="10"/>
<path d="M113 111L121 130H141" stroke="#DCAF54" stroke-width="2" stroke-miterlimit="10"/>
<path d="M144 110L172 95H192" stroke="#DCAF54" stroke-width="2" stroke-miterlimit="10"/>
<path d="M114 114C115.933 114 117 112.933 117 111C117 109.067 115.933 107 114 107C112.067 107 110 109.067 110 111C110 112.933 112.067 114 114 114Z" fill="#1448B6"/>
<path d="M146 114C147.933 114 149 112.933 149 111C149 109.067 147.933 107 146 107C144.067 107 142 109.067 142 111C142 112.933 144.067 114 146 114Z" fill="#1448B6"/>
<path d="M198 119L200 153H220" stroke="#DCAF54" stroke-width="2" stroke-miterlimit="10"/>
<path d="M236 112L214 95H235" stroke="#DCAF54" stroke-width="2" stroke-miterlimit="10"/>
<path d="M272 99L293 116H313" stroke="#DCAF54" stroke-width="2" stroke-miterlimit="10"/>
<path d="M198 123C199.933 123 201 121.933 201 120C201 118.067 199.933 116 198 116C196.067 116 194 118.067 194 120C194 121.933 196.067 123 198 123Z" fill="#1448B6"/>
<path d="M272 102C273.933 102 275 100.933 275 99C275 97.067 273.933 95 272 95C270.067 95 268 97.067 268 99C268 100.933 270.067 102 272 102Z" fill="#1448B6"/>
<path d="M237 116C238.933 116 240 114.933 240 113C240 111.067 238.933 109 237 109C235.067 109 233 111.067 233 113C233 114.933 235.067 116 237 116Z" fill="#1448B6"/>
<path d="M122 133H142" stroke="#DCAF54" stroke-width="2" stroke-miterlimit="10"/>
<path d="M306 35C309.038 35 311 32.0376 311 29C311 25.9624 309.038 24 306 24C302.962 24 300 25.9624 300 29C300 32.0376 302.962 35 306 35Z" stroke="#DCAF54" stroke-width="2" stroke-miterlimit="10"/>
<path opacity="0.1" d="M60 101L68 108L69 106L60 101Z" fill="black"/>
<path opacity="0.1" d="M76 103L70 106V108L76 103Z" fill="black"/>
</svg>
