<svg width="294" height="148" viewBox="0 0 294 148" fill="none" xmlns="http://www.w3.org/2000/svg">
<path d="M175 148L241 126C240.288 124.019 239.884 122.102 240 120C240.116 117.898 241.075 115.891 242 114C242.925 112.109 244.412 110.381 246 109C247.588 107.619 249 106.653 251 106C253 105.347 254.904 104.822 257 105C259.096 105.178 261.139 106.019 263 107C264.861 107.981 266.668 109.371 268 111C269.332 112.629 270.408 113.98 271 116L294 109L258 0L139 39L175 148Z" fill="#F2F2F2"/>
<path d="M257 134C264.18 134 270 128.18 270 121C270 113.82 264.18 108 257 108C249.82 108 244 113.82 244 121C244 128.18 249.82 134 257 134Z" fill="#1448B6"/>
<path d="M3 1C2.15077 1.00095 1.6005 1.39888 1 2C0.399504 2.60112 0.000953169 3.14989 0 4V140C0.000999209 140.85 0.399508 141.399 1 142C1.60049 142.601 2.15081 142.999 3 143H202C202.849 142.999 203.4 142.601 204 142C204.6 141.399 204.999 140.85 205 140V4C204.999 3.1499 204.6 2.60111 204 2C203.4 1.39889 202.849 1.00099 202 1H3Z" fill="#1448B6"/>
<path d="M8 6C7.15011 6.00095 6.60096 6.40267 6 7C5.39904 7.59733 5.00095 8.15525 5 9V135C5.00095 135.845 5.39904 136.403 6 137C6.60096 137.597 7.15011 137.999 8 138H198C198.85 137.999 199.399 137.597 200 137C200.601 136.403 200.999 135.845 201 135V9C200.999 8.15527 200.601 7.59732 200 7C199.399 6.40268 198.85 6.00099 198 6H8Z" fill="white"/>
<path d="M45 90H44V93H45V90Z" fill="#1448B6"/>
<path d="M45 97H44V102H45V97Z" fill="#1448B6"/>
<path d="M45 107H44V110H45V107Z" fill="#1448B6"/>
<path d="M134 51H133V54H134V51Z" fill="#1448B6"/>
<path d="M134 100H133V94H134V100ZM134 89H133V83H134V89ZM134 77H133V71H134V77ZM134 66H133V60H134V66Z" fill="#1448B6"/>
<path d="M134 106H133V109H134V106Z" fill="#1448B6"/>
<path d="M186 26H185V29H186V26Z" fill="#1448B6"/>
<path d="M186 101H185V96H186V101ZM186 91H185V86H186V91ZM186 80H185V75H186V80ZM186 70H185V65H186V70ZM186 60H185V55H186V60ZM186 49H185V44H186V49ZM186 39H185V34H186V39Z" fill="#1448B6"/>
<path d="M186 106H185V109H186V106Z" fill="#1448B6"/>
<path d="M29 110C26.7998 103.405 30.4793 96.4862 36 93C43.0258 88.5635 52.6092 90.2496 60 93C74.5516 98.4151 87.3782 110.984 104 108C107.299 107.451 110.313 105.992 113 104C115.787 101.813 117.78 99.3258 119 96C121.64 89.1214 121.59 81.2076 122 74C122.38 67.3221 123.515 59.4721 129 55C135.009 50.1006 143.772 51.4741 151 51C157.955 50.5741 164.162 47.8038 170 44C175.817 40.22 180.747 35.1285 184 29C184.767 27.5271 185.427 26.5588 186 25C186.306 24.1708 185.304 23.1777 185 24C180.147 37.1357 166.921 47.2981 153 49C145.658 49.8977 137.871 48.6811 131 52C124.531 55.1251 122.009 62.2466 121 69C119.917 76.2526 120.433 83.7885 119 91C118.286 94.595 117.431 98.2023 115 101C112.689 103.583 109.343 105.087 106 106C89.6984 110.713 76.0902 97.7329 62 92C54.6668 89.0163 45.5213 87.63 38 91C32.142 93.6248 27.2573 99.399 27 106C26.9435 107.555 27.5045 109.525 28 111C28.278 111.833 29.2805 110.841 29 110Z" fill="#DCAF54"/>
<path d="M194 110H19V24H20V109H194V110Z" fill="#3F3D56"/>
</svg>
