<svg width="132" height="188" viewBox="0 0 132 188" fill="none" xmlns="http://www.w3.org/2000/svg">
<path d="M35.4727 140.121C35.4727 140.121 38.6206 139.404 40.6834 141.522C40.6834 141.522 39.3575 142.716 36.2382 141.393L35.4727 140.121Z" fill="#DCAF54"/>
<path d="M35.1218 140.09C35.1218 140.09 33.2569 142.736 34.4398 145.451C34.4398 145.451 36.0519 144.675 36.0066 141.284L35.1218 140.09Z" fill="#DCAF54"/>
<path d="M33.0234 136.102C33.0234 136.102 34.1419 133.678 39.4624 136.608C39.4624 136.608 38.89 138.227 36.6292 138.251C34.3685 138.275 33.6912 137.293 33.0234 136.102Z" fill="#DCAF54"/>
<path d="M32.6877 135.954C32.6877 135.954 30.0239 135.83 30.1741 141.905C30.1741 141.905 31.8745 142.144 32.9357 140.143C33.9969 138.142 33.4341 137.108 32.6877 135.954Z" fill="#DCAF54"/>
<path d="M30.832 131.226C30.832 131.226 32.0244 127.004 37.6215 129.583C37.6215 129.583 36.6438 133.449 31.4688 132.601L30.832 131.226Z" fill="#DCAF54"/>
<path d="M28.7539 125.174C28.7539 125.174 31.277 120.818 36.5021 124.353C36.5021 124.353 35.0259 128.381 29.2786 126.633L28.7539 125.174Z" fill="#DCAF54"/>
<path d="M27.7656 119.348C27.7656 119.348 30.7776 115.3 35.9598 118.796C35.9598 118.796 33.0837 122.364 27.83 120.324L27.7656 119.348Z" fill="#DCAF54"/>
<path d="M26.875 113.683C26.875 113.683 29.918 109.466 34.8855 112.931C34.8855 112.931 31.3846 116.711 26.937 114.619L26.875 113.683Z" fill="#DCAF54"/>
<path d="M26.832 108.606C26.832 108.606 29.968 103.226 34.6184 106.416C34.6184 106.416 31.1795 111.09 26.8988 109.583L26.832 108.606Z" fill="#DCAF54"/>
<path d="M27.2539 102.641C27.2539 102.641 30.5926 97.2922 35.1452 100.927C35.1452 100.927 31.0672 105.643 27.3064 103.589L27.2539 102.641Z" fill="#DCAF54"/>
<path d="M28.119 97.2776C28.119 97.2776 32.1732 92.1887 36.12 93.846C36.12 93.846 31.9037 99.2429 28.0117 98.5647L28.119 97.2776Z" fill="#DCAF54"/>
<path d="M29.312 92.1667C29.312 92.1667 33.9719 85.9579 37.0316 87.7202C37.0316 87.7202 33.6189 92.5177 29.0234 93.2962L29.312 92.1667Z" fill="#DCAF54"/>
<path d="M31.1297 86.2115C31.1297 86.2115 35.2244 81.1203 38.5226 82.0946C38.5226 82.0946 35.0765 87.3219 30.6289 87.7494L31.1297 86.2115Z" fill="#DCAF54"/>
<path d="M32.7627 80.6447C32.7627 80.6447 37.3367 75.7254 39.514 76.3893C39.514 76.3893 36.3303 81.7288 32.6172 81.6787L32.7627 80.6447Z" fill="#DCAF54"/>
<path d="M34.375 75.497C34.375 75.497 38.2121 69.73 40.5325 70.0046C40.5325 70.0046 38.3123 75.0648 34.4132 76.0534L34.375 75.497Z" fill="#DCAF54"/>
<path d="M36.0425 68.5929C36.0425 68.5929 39.4742 64.1369 41.4822 64.0127C41.4822 64.0127 38.9281 69.8251 35.9805 69.9827L36.0425 68.5929Z" fill="#DCAF54"/>
<path d="M36.9988 64.0062L39.9989 55.0059C39.9989 55.0059 40.7143 62.9101 36.6602 65.6611L36.9988 64.0062Z" fill="#DCAF54"/>
<path d="M37.8055 54.2481C37.8055 54.2481 37.9104 46.8955 37.4883 46.3271C37.4883 46.3271 40.4621 52.2351 37.9986 57.4815L37.8055 54.2481Z" fill="#DCAF54"/>
<path d="M30.6767 131.137C30.6767 131.137 26.799 129.078 24.7695 134.893C24.7695 134.893 28.2275 136.871 31.2085 132.551L30.6767 131.137Z" fill="#DCAF54"/>
<path d="M28.6162 124.947C28.6162 124.947 23.9133 123.168 22.0938 129.217C22.0938 129.217 25.783 131.402 29.1313 126.409L28.6162 124.947Z" fill="#DCAF54"/>
<path d="M27.577 119.712C27.577 119.712 24.0499 116.104 19.3828 120.269C19.3828 120.269 22.7072 123.419 27.6414 120.696L27.577 119.712Z" fill="#DCAF54"/>
<path d="M26.7618 113.693C26.7618 113.693 23.1846 109.917 18.7227 114.017C18.7227 114.017 22.6957 117.296 26.8309 114.626L26.7618 113.693Z" fill="#DCAF54"/>
<path d="M26.8408 108.75C26.8408 108.75 24.1317 103.145 19.25 105.963C19.25 105.963 22.3168 110.89 26.7001 109.722L26.8408 108.75Z" fill="#DCAF54"/>
<path d="M27.5324 102.598C27.5324 102.598 24.8304 96.8909 19.8867 99.9547C19.8867 99.9547 23.3828 105.115 27.3607 103.52L27.5324 102.598Z" fill="#DCAF54"/>
<path d="M28.6123 97.2721C28.6123 97.2721 27.2673 90.908 22.9961 90.6167C22.9961 90.6167 24.3507 97.3341 28.1258 98.4684L28.6123 97.2721Z" fill="#DCAF54"/>
<path d="M29.4219 92.1723C29.4219 92.1723 28.5466 84.4567 25.0195 84.4209C25.0195 84.4209 25.5323 90.2882 29.0999 93.2923L29.4219 92.1723Z" fill="#DCAF54"/>
<path d="M31.4793 85.9657C31.4793 85.9657 29.9984 79.5993 26.5977 79.0405C26.5977 79.0405 27.4323 85.2493 31.2552 87.5705L31.4793 85.9657Z" fill="#DCAF54"/>
<path d="M33.163 80.6636C33.163 80.6636 32.686 73.9605 30.5636 73.1128C30.5636 73.1128 29.7027 79.2691 32.6264 81.5615L33.163 80.6636Z" fill="#DCAF54"/>
<path d="M34.5309 75.4133C34.5309 75.4133 33.7797 68.5239 31.5953 67.6953C31.5953 67.6953 31.2375 73.2092 34.2424 75.8861L34.5309 75.4133Z" fill="#DCAF54"/>
<path d="M36.3795 69.1231C36.3795 69.1231 35.9884 63.5089 34.3882 62.291C34.3882 62.291 33.296 68.5452 35.6641 70.3051L36.3795 69.1231Z" fill="#DCAF54"/>
<path d="M36.7937 63.7408L34.6951 54.4897C34.6951 54.4897 33.2093 62.2842 36.9773 65.422L36.7937 63.7408Z" fill="#DCAF54"/>
<path d="M36.4642 54.4274C36.4642 54.4274 32.2598 48.3905 32.2932 47.6885C32.2932 47.6885 33.1374 54.2507 38.1144 57.2142L36.4642 54.4274Z" fill="#DCAF54"/>
<path d="M36.7909 52.5427C36.7909 52.5427 32.627 43.8528 30.9648 43.2295C30.9648 43.2295 36.2328 45.4814 37.0723 52.2561L36.7909 52.5427Z" fill="#DCAF54"/>
<path d="M35.965 70.0282L35.7266 69.9685C38.0756 59.9389 38.4071 53.6155 36.6566 52.1636L36.8188 51.9678C38.6646 53.5056 38.3737 59.7526 35.965 70.0282Z" fill="#444053"/>
<path d="M29.2212 93.5883L28.8516 93.4856C29.1115 92.5638 29.3929 91.6253 29.6934 90.7012C32.3167 82.6488 34.4964 75.1792 35.8342 69.4623L36.1371 69.2832C34.7968 75.0144 32.6768 82.7587 30.0583 90.8182C29.7602 91.74 29.4788 92.6713 29.2212 93.5883Z" fill="#444053"/>
<path d="M40.4449 147.174C40.3924 147.124 35.1459 141.951 31.1156 132.789C28.7541 127.425 27.2562 121.721 26.6775 115.889C25.9621 108.598 26.9398 100.336 29.0623 92.749L29.3675 93.0642C24.598 110.093 27.8914 124.189 31.5687 132.562C35.5585 141.636 40.7454 146.758 40.7978 146.809L40.4449 147.174Z" fill="#444053"/>
<path d="M46.2188 119.901C46.2188 119.901 48.1266 119.464 49.3715 120.749C49.3715 120.749 48.5678 121.465 46.6838 120.67L46.2188 119.901Z" fill="#DCAF54"/>
<path d="M46.0115 119.885C46.0115 119.885 44.8858 121.485 45.6013 123.125C45.6013 123.125 46.5743 122.648 46.5552 120.606L46.0115 119.885Z" fill="#DCAF54"/>
<path d="M44.7422 117.47C44.7422 117.47 45.4171 116.007 48.6294 117.778C48.6294 117.778 48.2836 118.755 46.9171 118.769C45.5506 118.784 45.15 118.192 44.7422 117.47Z" fill="#DCAF54"/>
<path d="M44.5369 117.382C44.5369 117.382 42.9248 117.308 43.0154 120.978C43.0154 120.978 44.0432 121.122 44.6848 119.913C45.3263 118.705 44.9876 118.079 44.5369 117.382Z" fill="#DCAF54"/>
<path d="M43.4102 114.524C43.4102 114.524 44.1423 111.971 47.5192 113.525C47.5192 113.525 46.9301 115.863 43.8013 115.35L43.4102 114.524Z" fill="#DCAF54"/>
<path d="M42.1602 110.864C42.1602 110.864 43.684 108.238 46.8439 110.368C46.8439 110.368 45.9496 112.804 42.4773 111.746L42.1602 110.864Z" fill="#DCAF54"/>
<path d="M41.5625 107.343C41.5625 107.343 43.3845 104.895 46.5157 107.008C46.5157 107.008 44.7796 109.157 41.603 107.932L41.5625 107.343Z" fill="#DCAF54"/>
<path d="M41.0234 103.919C41.0234 103.919 42.8645 101.369 45.867 103.465C45.867 103.465 43.7516 105.751 41.0616 104.485L41.0234 103.919Z" fill="#DCAF54"/>
<path d="M41 100.848C41 100.848 42.9078 97.5981 45.7052 99.5252C45.7052 99.5252 43.6257 102.35 41.0382 101.436L41 100.848Z" fill="#DCAF54"/>
<path d="M41.2461 97.2449C41.2461 97.2449 43.2708 94.0092 46.0157 96.1989C46.0157 96.1989 43.5498 99.0502 41.2747 97.8084L41.2461 97.2449Z" fill="#DCAF54"/>
<path d="M41.7784 94.0014C41.7784 94.0014 44.2276 90.9256 46.6147 91.9286C46.6147 91.9286 44.0654 95.1906 41.7188 94.7799L41.7784 94.0014Z" fill="#DCAF54"/>
<path d="M42.4983 90.9107C42.4983 90.9107 45.3148 87.1591 47.1654 88.2218C47.1654 88.2218 45.1025 91.1232 42.3242 91.5937L42.4983 90.9107Z" fill="#DCAF54"/>
<path d="M43.5965 87.3144C43.5965 87.3144 46.0719 84.2362 48.0704 84.8261C48.0704 84.8261 45.9884 87.9854 43.3008 88.2433L43.5965 87.3144Z" fill="#DCAF54"/>
<path d="M44.5843 83.9451C44.5843 83.9451 47.3483 80.972 48.6647 81.3732C48.6647 81.3732 46.7426 84.5994 44.4961 84.5707L44.5843 83.9451Z" fill="#DCAF54"/>
<path d="M45.5586 80.8335C45.5586 80.8335 47.879 77.347 49.2813 77.5094C49.2813 77.5094 47.941 80.5684 45.5824 81.1678L45.5586 80.8335Z" fill="#DCAF54"/>
<path d="M46.5694 76.6597C46.5694 76.6597 48.6442 73.9661 49.858 73.8896C49.858 73.8896 48.3127 77.4048 46.5312 77.4931L46.5694 76.6597Z" fill="#DCAF54"/>
<path d="M47.1443 73.8843L48.9544 68.4492C48.9544 68.4492 49.3836 73.2252 46.9297 74.8968L47.1443 73.8843Z" fill="#DCAF54"/>
<path d="M47.6346 67.9862C47.6346 67.9862 47.6966 63.5421 47.4414 63.1982C47.4414 63.1982 49.2395 66.7683 47.749 69.942L47.6346 67.9862Z" fill="#DCAF54"/>
<path d="M43.3233 114.47C43.3233 114.47 40.9814 113.224 39.7461 116.739C39.7461 116.739 41.8376 117.933 43.6405 115.325L43.3233 114.47Z" fill="#DCAF54"/>
<path d="M42.0812 110.718C42.0812 110.718 39.2361 109.643 38.1367 113.299C38.1367 113.299 40.3665 114.62 42.3912 111.604L42.0812 110.718Z" fill="#DCAF54"/>
<path d="M41.4493 107.563C41.4493 107.563 39.3197 105.382 36.4961 107.897C36.4961 107.897 38.5065 109.807 41.4898 108.155L41.4493 107.563Z" fill="#DCAF54"/>
<path d="M40.9579 103.923C40.9579 103.923 38.7949 101.642 36.0977 104.121C36.0977 104.121 38.4991 106.101 40.996 104.489L40.9579 103.923Z" fill="#DCAF54"/>
<path d="M41.0048 100.927C41.0048 100.927 39.3664 97.538 36.4141 99.2407C36.4141 99.2407 38.2694 102.219 40.9189 101.514L41.0048 100.927Z" fill="#DCAF54"/>
<path d="M41.4219 97.2128C41.4219 97.2128 39.7883 93.7621 36.793 95.6152C36.793 95.6152 38.9059 98.7363 41.3122 97.7644L41.4219 97.2128Z" fill="#DCAF54"/>
<path d="M42.0756 94.0018C42.0756 94.0018 41.2624 90.1524 38.6797 89.978C38.6797 89.978 39.4977 94.0376 41.7799 94.723L42.0756 94.0018Z" fill="#DCAF54"/>
<path d="M42.5655 90.9132C42.5655 90.9132 42.0408 86.2495 39.8945 86.2256C39.8945 86.2256 40.2046 89.7742 42.3604 91.5914L42.5655 90.9132Z" fill="#DCAF54"/>
<path d="M43.8055 87.1612C43.8055 87.1612 42.9112 83.3118 40.8555 82.9727C40.8555 82.9727 41.361 86.7242 43.6719 88.1283L43.8055 87.1612Z" fill="#DCAF54"/>
<path d="M44.8249 83.957C44.8249 83.957 44.5315 79.8974 43.2557 79.3911C43.2557 79.3911 42.7334 83.114 44.5005 84.499L44.8249 83.957Z" fill="#DCAF54"/>
<path d="M45.6534 80.7804C45.6534 80.7804 45.2003 76.6157 43.8792 76.1143C43.8792 76.1143 43.6621 79.4575 45.4794 81.067L45.6534 80.7804Z" fill="#DCAF54"/>
<path d="M46.7665 76.9799C46.7665 76.9799 46.528 73.5865 45.5741 72.8486C45.5741 72.8486 44.9135 76.6312 46.3444 77.6939L46.7665 76.9799Z" fill="#DCAF54"/>
<path d="M47.0257 73.724L45.757 68.1313C45.757 68.1313 44.858 72.8452 47.1354 74.7413L47.0257 73.724Z" fill="#DCAF54"/>
<path d="M46.8216 68.0954C46.8216 68.0954 44.2818 64.4489 44.3009 64.0215C44.3009 64.0215 44.8088 67.988 47.8185 69.779L46.8216 68.0954Z" fill="#DCAF54"/>
<path d="M47.0145 66.9543C47.0145 66.9543 44.4962 61.7007 43.4922 61.3306C43.4922 61.3306 46.6783 62.6917 47.1839 66.7895L47.0145 66.9543Z" fill="#DCAF54"/>
<path d="M46.5213 77.5244L46.3711 77.4885C47.802 71.4254 47.9927 67.6022 46.9339 66.7258L47.0317 66.6064C48.1549 67.5378 47.9784 71.3156 46.5213 77.5244Z" fill="#444053"/>
<path d="M42.4429 91.7712L42.2188 91.7067C42.3761 91.1503 42.5479 90.5843 42.7291 90.0351C44.3102 85.166 45.6314 80.6502 46.4398 77.1948L46.6235 77.085C45.8126 80.5476 44.532 85.2328 42.9485 90.1067C42.7673 90.6583 42.5979 91.2148 42.4429 91.7712Z" fill="#444053"/>
<path d="M49.2264 124.166C49.1954 124.135 46.0236 121.009 43.5864 115.469C42.1598 112.226 41.2543 108.779 40.9035 105.253C40.4671 100.845 41.0633 95.8491 42.3487 91.2617L42.5323 91.4528C39.6491 101.747 41.6404 110.27 43.863 115.333C46.2764 120.825 49.41 123.913 49.4434 123.944L49.2264 124.166Z" fill="#444053"/>
<path d="M56.3986 136.107C55.7866 136.215 55.1873 136.387 54.61 136.618C41.7464 141.761 41.9611 175.432 41.9611 175.432H38.174C38.174 175.432 36.9816 160.982 31.7852 140.367C27.1038 121.819 46.3038 105.196 50.2029 102.044C50.6417 101.693 50.885 101.507 50.885 101.507C70.2233 108.623 56.3986 136.107 56.3986 136.107Z" fill="#1448B6"/>
<path opacity="0.2" d="M52.2957 102.092C51.8497 101.887 51.3895 101.691 50.9006 101.512C50.9006 101.512 50.6621 101.698 50.2185 102.049C46.3194 105.201 27.1194 121.824 31.8008 140.372C36.9973 160.987 38.1777 175.432 38.1777 175.432H40.3073C40.3073 175.432 39.1269 160.982 33.9185 140.367C29.2562 121.905 48.2702 105.344 52.2957 102.092Z" fill="white"/>
<path d="M120.204 140.372C114.996 160.987 113.822 175.432 113.822 175.432H110.028C110.028 175.432 110.267 140.243 96.4994 136.314C96.2012 136.225 95.8977 136.154 95.5907 136.102C95.5907 136.102 81.759 108.618 101.104 101.507C101.104 101.507 101.3 101.653 101.653 101.937C105.237 104.809 124.938 121.609 120.204 140.372Z" fill="#1448B6"/>
<path opacity="0.1" d="M56.3988 136.107C55.7868 136.215 55.1875 136.387 54.6102 136.618C52.2845 125.221 50.8114 113.666 50.2031 102.049C50.6419 101.698 50.8852 101.512 50.8852 101.512C70.2235 108.623 56.3988 136.107 56.3988 136.107Z" fill="black"/>
<path opacity="0.1" d="M101.657 101.941C100.868 113.524 99.1448 125.024 96.5033 136.328C96.2051 136.239 95.9016 136.168 95.5947 136.116C95.5947 136.116 81.7629 108.632 101.108 101.521C101.101 101.511 101.297 101.657 101.657 101.941Z" fill="black"/>
<path d="M94.5787 141.317C93.2433 146.593 91.678 152.006 89.8831 157.555C89.8831 157.555 81.3646 166.441 60.7886 157.555C60.7886 157.555 58.7329 151.753 56.4721 141.888C51.4951 120.198 45.5259 78.8637 58.244 36.4074C62.0313 23.6442 67.4143 11.4115 74.2651 0C74.2651 0 85.1302 12.4916 93.1049 36.4003C101.08 60.3089 106.155 95.6394 94.5787 141.317Z" fill="#E3E8F4"/>
<path d="M75.9924 87.2173C85.4267 87.2173 93.0747 79.559 93.0747 70.1121C93.0747 60.6651 85.4267 53.0068 75.9924 53.0068C66.5582 53.0068 58.9102 60.6651 58.9102 70.1121C58.9102 79.559 66.5582 87.2173 75.9924 87.2173Z" fill="#1448B6"/>
<path d="M88.1099 70.1208C88.1099 72.4181 87.4584 74.668 86.2314 76.609C85.0043 78.55 83.2521 80.1023 81.1786 81.0851C79.105 82.068 76.7954 82.4411 74.5184 82.1611C72.2414 81.8811 70.0905 80.9594 68.3161 79.5033C67.4501 78.7891 66.6861 77.959 66.0458 77.0365C65.7583 76.6244 65.497 76.1945 65.2636 75.7494C64.3551 74.0128 63.8812 72.0813 63.8828 70.1208C63.8828 70.0229 63.8828 69.9274 63.8828 69.8319C63.9449 67.2377 64.8352 64.7317 66.4231 62.681C68.0109 60.6303 70.213 59.1428 72.7066 58.4364C73.6587 58.1736 74.6385 58.0245 75.6255 57.9922H75.988C77.5794 57.9912 79.1553 58.3043 80.6258 58.9133C82.0963 59.5224 83.4325 60.4156 84.5582 61.5419C85.6839 62.6682 86.577 64.0056 87.1864 65.4776C87.7958 66.9496 88.1096 68.5274 88.1099 70.1208Z" fill="#DCAF54"/>
<path d="M93.1048 36.4003C73.7236 45.692 58.2344 36.4003 58.2344 36.4003C62.026 23.639 67.413 11.4087 74.2673 0C74.2673 0 85.1325 12.4916 93.1048 36.4003Z" fill="#1448B6"/>
<path d="M94.5771 141.316C93.6709 144.889 92.6613 148.523 91.5484 152.218C91.0206 153.98 90.4641 155.757 89.879 157.548C89.879 157.548 81.3606 166.433 60.7846 157.548C60.7846 157.548 60.1168 155.664 59.1152 152.218C58.3664 149.615 57.4339 146.126 56.4609 141.88C56.4609 141.88 64.1209 145.154 74.9932 145.154C81.7097 145.177 88.3647 143.873 94.5771 141.316Z" fill="#1448B6"/>
<path d="M91.5504 152.219C91.0225 153.981 90.4661 155.758 89.881 157.549C89.881 157.549 81.3625 166.435 60.7865 157.549C60.7865 157.549 60.1188 155.665 59.1172 152.219C59.1148 152.219 80.0867 158.26 91.5504 152.219Z" fill="#E3E8F4"/>
<path opacity="0.2" d="M72.7129 58.4207L72.6866 58.4398L63.8867 69.8163C63.8867 69.9118 63.8867 70.0073 63.8867 70.1052C63.8851 72.0656 64.359 73.9972 65.2675 75.7337L75.6366 57.9766L72.7129 58.4207Z" fill="white"/>
<path opacity="0.2" d="M75.5201 68.6881L68.3133 79.4938C67.4472 78.7796 66.6833 77.9496 66.043 77.027L74.6282 67.7998L75.5201 68.6881Z" fill="white"/>
<path opacity="0.2" d="M65.3915 157.55C65.3915 157.55 63.3358 151.745 61.075 141.883C56.0979 120.19 50.1288 78.8561 62.8469 36.3998C66.2656 24.9121 70.9738 13.8495 76.8814 3.42396C75.2669 1.15774 74.2581 0.00195312 74.2581 0.00195312C67.4063 11.4101 62.0217 23.6396 58.2323 36.3998C45.5142 78.8561 51.4834 120.19 56.4604 141.883C58.7212 151.745 60.7769 157.55 60.7769 157.55C68.9067 161.058 75.1524 161.794 79.736 161.402C75.8202 161.104 71.0649 159.998 65.3915 157.55Z" fill="white"/>
</svg>
