<svg width="168" height="176" viewBox="0 0 168 176" fill="none" xmlns="http://www.w3.org/2000/svg">
<path d="M156.565 17.667L156.297 21.2458C156.257 21.7318 155.323 33.3032 148.429 46.8266C142.514 58.4253 131.002 73.5323 109.269 82.0226C107.573 82.689 105.813 83.3109 103.988 83.8885L101.953 77.5383C107.062 75.9403 111.983 73.8009 116.631 71.1569C127.709 64.7989 136.322 55.7245 142.328 44.0474C145.515 37.8302 147.786 31.1901 149.072 24.3307H124.345V17.667H156.565Z" fill="#1448B6"/>
<path opacity="0.1" d="M106.605 82.026C128.334 73.5357 139.85 58.4326 145.761 46.8339C152.655 33.3105 153.593 21.747 153.629 21.2531L153.897 17.6743H156.658L156.389 21.2531C156.354 21.7392 155.415 33.3105 148.522 46.8339C142.606 58.4326 131.095 73.5357 109.365 82.026C107.669 82.6924 105.908 83.3157 104.081 83.8958L103.812 83.0609C104.764 82.7238 105.695 82.3788 106.605 82.026Z" fill="white"/>
<path d="M63.1001 77.5383L61.0652 83.8885C59.238 83.3083 57.4765 82.6851 55.7807 82.0187C34.0511 73.5284 22.5356 58.4253 16.6241 46.8266C9.73054 33.3032 8.79195 21.7397 8.75646 21.2458L8.48828 17.667H40.6922V24.3307H15.9615C17.2543 31.191 19.532 37.8311 22.7249 44.0474C28.7311 55.7245 37.3401 64.7989 48.4179 71.153C53.0668 73.7997 57.9894 75.9406 63.1001 77.5383Z" fill="#1448B6"/>
<path opacity="0.1" d="M58.4358 82.0265C36.7062 73.5362 25.1907 58.4331 19.2792 46.8344C12.3856 33.311 11.447 21.7475 11.4115 21.2536L11.1434 17.6748H8.38281L8.65098 21.2536C8.68647 21.7397 9.62507 33.311 16.5186 46.8344C22.4341 58.4331 33.9456 73.5362 55.6752 82.0265C57.371 82.6929 59.1325 83.3162 60.9597 83.8963L61.2279 83.0614C60.2788 82.7243 59.3481 82.3793 58.4358 82.0265Z" fill="white"/>
<path d="M119.725 138.922V174.855H45.3203V138.922L47.6865 135.786C71.7981 127.28 76.6843 105.098 77.6583 96.3217C77.8033 95.1089 77.8862 93.8896 77.9068 92.6685H87.1074C87.1279 93.8896 87.2108 95.1089 87.3558 96.3217C88.3457 105.098 93.2319 127.288 117.328 135.786L119.725 138.922Z" fill="#1448B6"/>
<path opacity="0.1" d="M119.725 138.922H45.3203V143.43H119.725V138.922Z" fill="#DCAF54"/>
<path opacity="0.1" d="M51.6302 135.786C75.7417 127.28 80.6279 105.098 81.602 96.3217C81.747 95.1089 81.8299 93.8896 81.8504 92.6685H77.9068C77.8862 93.8896 77.8033 95.1089 77.6583 96.3217C76.6685 105.098 71.7823 127.288 47.6865 135.786L45.3203 138.922V174.855H49.264V138.922L51.6302 135.786Z" fill="white"/>
<path opacity="0.1" d="M34.0195 17.667H40.6922V24.3307H34.6111C34.3718 22.1356 34.1746 19.9144 34.0195 17.667Z" fill="#DCAF54"/>
<path opacity="0.1" d="M63.1002 77.5377L61.0653 83.8878C59.2381 83.3077 57.4766 82.6845 55.7808 82.0181C52.9912 78.6321 50.5262 74.9944 48.418 71.1523C53.0669 73.7991 57.9895 75.9399 63.1002 77.5377Z" fill="#DCAF54"/>
<path opacity="0.1" d="M101.949 77.5377C107.058 75.9397 111.979 73.8002 116.628 71.1562C114.518 74.9988 112.053 78.6377 109.265 82.0259C107.569 82.6923 105.809 83.3142 103.984 83.8918L101.949 77.5377Z" fill="#DCAF54"/>
<path opacity="0.1" d="M131.024 17.6665C130.869 19.9139 130.672 22.1351 130.433 24.3302H124.355V17.6665H131.024Z" fill="#DCAF54"/>
<path opacity="0.1" d="M87.3732 96.3217C84.1705 96.9385 80.8785 96.9385 77.6758 96.3217C77.8208 95.1089 77.9037 93.8896 77.9242 92.6685H87.1248C87.1454 93.8896 87.2283 95.1089 87.3732 96.3217Z" fill="#DCAF54"/>
<path d="M34.8086 6.62891C34.9782 56.0422 56.2739 96.0009 82.5269 96.0009C108.78 96.0009 130.072 56.0422 130.245 6.62891H34.8086Z" fill="#1448B6"/>
<path opacity="0.1" d="M43.2875 6.62891H34.8086C34.9782 56.0422 56.2739 96.0009 82.5269 96.0009C83.9475 95.9983 85.3655 95.879 86.7663 95.6441C62.497 91.6146 43.4492 53.3532 43.2875 6.62891Z" fill="white"/>
<path d="M107.828 152.677H57.2188V165.613H107.828V152.677Z" fill="#DCAF54"/>
<path opacity="0.1" d="M59.5849 154.441H107.828V152.677H57.2188V165.613H59.5849V154.441Z" fill="white"/>
</svg>
