<svg width="282" height="172" viewBox="0 0 282 172" fill="none" xmlns="http://www.w3.org/2000/svg">
<path d="M140.002 39.0003C139.972 38.7663 140.11 39.209 140.002 39.0003C139.916 38.8759 140.119 38.0935 140.002 38.0003C139.812 37.8202 139.244 38.0945 139.002 38.0003C138.878 37.9513 139.133 37.9851 139.002 38.0003C138.87 38.0155 138.111 37.9244 138.002 38.0003C137.807 38.1788 138.016 38.7337 138.002 39.0003C137.949 39.3617 137.834 39.6771 138.002 40.0003C138.203 40.3567 138.712 40.7157 139.002 41.0003C139.214 41.2058 139.85 40.7447 140.002 41.0003C140.071 41.1338 139.904 41.8867 140.002 42.0003C140.051 42.0565 139.933 41.9727 140.002 42.0003C140.07 42.0279 139.928 42.0072 140.002 42.0003C140.124 41.968 140.914 42.0937 141.002 42.0003C141.12 41.8952 140.992 41.1695 141.002 41.0003C141.012 40.8311 141.054 41.1285 141.002 41.0003C140.816 40.5851 140.098 39.446 140.002 39.0003Z" fill="#DCAF54"/>
<g opacity="0.1">
<path opacity="0.1" d="M99 157V158C98.9969 159.16 99.1992 160.121 100 161C100.801 161.879 101.786 162.831 103 163C104.214 163.169 105.964 162.622 107 162C108.036 161.378 108.648 161.111 109 160L99 157Z" fill="#1448B6"/>
<path opacity="0.1" d="M88.0007 134V135C88.3448 135.269 88.5683 135.025 89.0007 135C89.4332 134.975 89.6888 134.308 90.0007 134C90.3127 133.692 90.96 133.441 91.0007 133C91.0415 132.558 91.2508 132.362 91.0007 132C90.8988 131.851 90.141 132.111 90.0007 132V131C89.6201 130.699 89.4775 130.937 89.0007 131C88.524 131.063 87.2944 131.61 87.0007 132C86.7071 132.39 86.9392 132.512 87.0007 133C87.0623 133.488 87.6201 133.699 88.0007 134Z" fill="#1448B6"/>
<path opacity="0.1" d="M94.0005 134V135C94.3803 135.299 94.9391 135.513 95.0005 136C95.0619 136.486 95.2935 136.611 95.0005 137C94.7074 137.388 93.4763 137.937 93.0005 138C92.5246 138.063 92.3803 138.299 92.0005 138V137C91.6206 136.7 91.0619 136.486 91.0005 136C90.9391 135.513 90.7074 135.388 91.0005 135C91.2935 134.611 92.5246 134.063 93.0005 134C93.4763 133.937 93.6206 133.7 94.0005 134Z" fill="#1448B6"/>
<path opacity="0.1" d="M88 134V135C88.4222 135.276 89.4694 135.026 90 135C90.5306 134.974 90.6172 134.316 91 134C91.3828 133.684 91.9499 133.453 92 133C92.0501 132.547 92.3068 132.371 92 132L88 134Z" fill="#1448B6"/>
<path opacity="0.1" d="M92 137V138C92.4222 138.276 93.4694 138.026 94 138C94.5306 137.974 94.6172 137.316 95 137C95.3828 136.684 95.9499 136.453 96 136C96.0501 135.547 96.3068 135.371 96 135L92 137Z" fill="#1448B6"/>
<path opacity="0.1" d="M82.0009 136C82.2881 136.485 83.4239 136.841 84.0009 137C84.5779 137.159 84.4692 137.259 85.0009 137L95.0009 132L83.0009 133C82.4742 133.264 82.1726 133.473 82.0009 134C81.8292 134.527 81.7185 135.515 82.0009 136Z" fill="#1448B6"/>
</g>
<g opacity="0.1">
<path opacity="0.1" d="M58.9994 156V157C58.983 157.341 59.2787 157.763 58.9994 158C58.7202 158.236 58.3862 158 57.9994 158C57.6127 158 56.2787 158.236 55.9994 158C55.7202 157.763 56.0159 157.341 55.9994 157V156C55.9909 155.821 55.928 156.167 55.9994 156C56.0709 155.833 55.8594 155.129 55.9994 155C56.1395 154.871 56.8133 155.07 56.9994 155C57.1856 154.93 57.7971 155 57.9994 155C58.2018 155 57.8133 154.93 57.9994 155C58.1856 155.07 58.8594 154.871 58.9994 155C59.1395 155.129 58.928 155.833 58.9994 156C59.008 155.821 59.0709 156.167 58.9994 156Z" fill="#1448B6"/>
<path opacity="0.1" d="M55.9996 151V150C56.016 149.653 55.7201 149.241 55.9996 149C56.2791 148.76 57.6124 149 57.9996 149C58.3867 149 58.7201 148.76 58.9996 149C59.2791 149.241 58.9831 149.653 58.9996 150V151C59 151.132 59.0431 150.874 58.9996 151C58.8967 151.31 58.3036 151.827 57.9996 152C57.6955 152.174 57.3562 152.048 56.9996 152C56.6429 151.953 56.2346 152.246 55.9996 152C55.7645 151.755 55.9981 151.324 55.9996 151Z" fill="#1448B6"/>
<path opacity="0.1" d="M58.9994 153V154C58.983 154.341 59.2787 154.763 58.9994 155C58.7202 155.236 58.3862 155 57.9994 155C57.6127 155 56.2787 155.236 55.9994 155C55.7202 154.763 56.0159 154.341 55.9994 154V153C55.9909 152.821 55.928 153.167 55.9994 153C56.0709 152.833 55.8594 152.129 55.9994 152C56.1395 151.871 56.8133 152.07 56.9994 152C57.1856 151.93 57.7971 152 57.9994 152C58.2018 152 57.8133 151.93 57.9994 152C58.1856 152.07 58.8594 151.871 58.9994 152C59.1395 152.129 58.928 152.833 58.9994 153C59.008 152.821 59.0709 153.167 58.9994 153Z" fill="#1448B6"/>
<path opacity="0.1" d="M57.9998 159C58.3969 159.001 58.7192 158.756 58.9998 159C59.2804 159.243 58.9991 159.656 58.9998 160V161C59.0084 161.175 59.0712 160.836 58.9998 161C58.9284 161.164 59.1398 161.873 58.9998 162C58.8598 162.126 58.1859 161.931 57.9998 162C57.8137 162.069 58.2021 162 57.9998 162C57.7974 162 57.1859 162.069 56.9998 162C56.8137 161.931 56.1398 162.126 55.9998 162C55.8598 161.873 56.0712 161.164 55.9998 161C55.9284 160.836 55.9912 161.175 55.9998 161V160C56.0005 159.655 55.7186 159.243 55.9998 159C56.2809 158.756 57.6022 159 57.9998 159Z" fill="#1448B6"/>
<path opacity="0.1" d="M56.0016 150C56.0002 150.387 55.7614 150.707 56.0016 151C56.2419 151.293 56.6371 151.943 57.0016 152C57.3662 152.057 57.6908 152.208 58.0016 152C58.3124 151.792 58.8965 151.371 59.0016 151L56.0016 150Z" fill="#1448B6"/>
<path opacity="0.1" d="M56.0016 153C56.0002 153.387 55.7614 153.707 56.0016 154C56.2419 154.293 56.6371 154.943 57.0016 155C57.3662 155.057 57.6908 155.208 58.0016 155C58.3124 154.792 58.8965 154.371 59.0016 154L56.0016 153Z" fill="#1448B6"/>
<path opacity="0.1" d="M56.0016 157C56.0002 157.387 55.7614 157.707 56.0016 158C56.2419 158.293 56.6371 158.943 57.0016 159C57.3662 159.057 57.6908 159.208 58.0016 159C58.3124 158.792 58.8965 158.371 59.0016 158L56.0016 157Z" fill="#1448B6"/>
<path opacity="0.1" d="M56.0016 160C56.0002 160.387 55.7614 160.707 56.0016 161C56.2419 161.293 56.6371 161.943 57.0016 162C57.3662 162.057 57.6908 162.208 58.0016 162C58.3124 161.792 58.8965 161.371 59.0016 161L56.0016 160Z" fill="#1448B6"/>
<path opacity="0.1" d="M53.0021 154C53.0869 154.071 53.8921 154.004 54.0021 154C54.1121 153.996 53.9226 154.077 54.0021 154C54.0816 153.922 53.9933 154.111 54.0021 154C54.0109 153.888 54.0684 153.089 54.0021 153C53.9772 152.963 54.037 153.028 54.0021 153C53.9554 152.963 54.059 153.016 54.0021 153C53.9451 152.984 53.0606 152.992 53.0021 153C52.9435 153.007 53.0533 152.97 53.0021 153C52.9509 153.03 53.0382 152.952 53.0021 153C52.966 153.047 53.0176 152.942 53.0021 153C52.9866 153.058 52.9946 153.94 53.0021 154C52.9728 153.948 53.0096 154.059 53.0021 154C52.9554 153.963 53.0314 154.052 53.0021 154Z" fill="#1448B6"/>
<path opacity="0.1" d="M55.0004 154C55.0488 154.036 54.9695 153.948 55.0004 154C55.0313 154.053 54.9919 153.939 55.0004 154C55.0089 154.061 55.0156 154.941 55.0004 155C54.9852 155.059 55.0369 154.951 55.0004 155C54.9639 155.049 55.0524 154.97 55.0004 155C54.9484 155.03 55.0598 154.993 55.0004 155C54.941 155.007 54.0578 155.017 54.0004 155C53.943 154.983 54.0467 155.039 54.0004 155C53.9065 154.926 54.0155 155.121 54.0004 155C53.9854 154.879 53.9278 154.096 54.0004 154C54.073 153.904 53.8826 154.015 54.0004 154C54.1182 153.985 54.9065 153.926 55.0004 154Z" fill="#1448B6"/>
<path opacity="0.1" d="M56.0004 154C56.0961 154.076 55.9849 153.877 56.0004 154C56.016 154.123 56.074 154.902 56.0004 155C55.9261 155.097 56.1207 154.985 56.0004 155C55.8802 155.015 55.0963 155.076 55.0004 155C54.9082 154.923 55.0141 155.12 55.0004 155C54.9868 154.88 54.9278 154.096 55.0004 154C55.0731 153.904 54.8826 154.017 55.0004 154C55.1183 153.983 55.9041 153.929 56.0004 154Z" fill="#1448B6"/>
<path opacity="0.1" d="M57 155C57.0489 155.036 56.9688 154.947 57 155C57.0312 155.053 56.9914 154.939 57 155C57.0086 155.061 57.0154 155.94 57 156C56.9847 156.06 57.0369 155.951 57 156C56.9631 156.049 57.0527 155.969 57 156C56.9474 156.03 57.0601 155.993 57 156C56.9399 156.007 56.0581 156.017 56 156C55.942 155.982 56.0469 156.039 56 156C55.9088 155.924 56.0135 156.119 56 156C55.9865 155.88 55.9281 155.095 56 155C56.0719 154.904 55.8834 155.017 56 155C56.1166 154.983 56.9047 154.929 57 155Z" fill="#1448B6"/>
<path opacity="0.1" d="M53.0031 154C53.1064 154.097 52.8692 154.005 53.0031 154C53.1371 153.994 53.9063 154.105 54.0031 154C54.1 153.894 53.9924 153.152 54.0031 153C54.0139 152.847 54.0839 153.122 54.0031 153L53.0031 154Z" fill="#1448B6"/>
<path opacity="0.1" d="M54.0031 155C54.1064 155.097 53.8692 155.005 54.0031 155C54.1371 154.994 54.9063 155.105 55.0031 155C55.1 154.894 54.9924 154.152 55.0031 154C55.0139 153.847 55.0839 154.122 55.0031 154L54.0031 155Z" fill="#1448B6"/>
<path opacity="0.1" d="M55 156C55.1171 156.103 55.853 156.021 56 156C56.147 155.979 55.9091 156.132 56 156C56.0709 155.89 56 155.136 56 155C56 154.864 56.0709 155.11 56 155L55 156Z" fill="#1448B6"/>
<path opacity="0.1" d="M54.0015 135C53.574 135 52.3038 135.681 52.0015 136C51.6993 136.319 52.0015 136.549 52.0015 137C52.0015 137.451 51.6993 137.681 52.0015 138C52.3038 138.319 53.574 139 54.0015 139C53.5849 139.018 53.2905 138.683 53.0015 139C52.7126 139.317 52.0015 139.56 52.0015 140C52.0015 140.44 52.7126 141.683 53.0015 142C53.2905 142.317 53.5849 141.982 54.0015 142C53.574 142 52.3038 142.681 52.0015 143C51.6993 143.319 52.0015 143.549 52.0015 144C52.0015 144.451 51.6993 144.681 52.0015 145C52.3038 145.319 53.574 146 54.0015 146C53.574 146 52.3038 145.681 52.0015 146C51.6993 146.319 52.0015 146.549 52.0015 147C52.0015 147.451 51.6993 148.681 52.0015 149C52.3038 149.319 53.574 149 54.0015 149H61.0015C61.429 149 62.6993 149.319 63.0015 149C63.3038 148.681 63.0015 147.451 63.0015 147C63.0015 146.549 63.3038 146.319 63.0015 146C62.6993 145.681 61.429 146 61.0015 146C61.429 146 62.6993 145.319 63.0015 145C63.3038 144.681 63.0015 144.451 63.0015 144C63.0015 143.549 63.3038 143.319 63.0015 143C62.6993 142.681 61.429 142 61.0015 142C61.4182 141.982 61.7126 142.317 62.0015 142C62.2905 141.683 63.0015 140.44 63.0015 140C63.0015 139.56 62.2905 139.317 62.0015 139C61.7126 138.683 61.4182 139.018 61.0015 139C61.429 139 62.6993 138.319 63.0015 138C63.3038 137.681 63.0015 137.451 63.0015 137C63.0015 136.549 63.3038 136.319 63.0015 136C62.6993 135.681 61.429 135 61.0015 135C61.429 135 62.6993 135.319 63.0015 135C63.3038 134.681 63.0015 134.451 63.0015 134C63.0015 133.549 63.3038 132.319 63.0015 132C62.6993 131.681 61.429 132 61.0015 132C61.429 132 62.6993 132.319 63.0015 132C63.3038 131.681 63.0015 130.451 63.0015 130C63.0015 129.549 63.3038 129.319 63.0015 129C62.6993 128.681 61.429 129 61.0015 129C60.7959 127.539 58.9064 126 57.0015 126C55.0966 126 54.2046 127.539 54.0015 129C53.574 129 52.3038 128.681 52.0015 129C51.6993 129.319 52.0015 129.549 52.0015 130C52.0015 130.451 51.6993 131.681 52.0015 132C52.3038 132.319 53.574 132 54.0015 132C53.574 132 52.3038 131.681 52.0015 132C51.6993 132.319 52.0015 133.549 52.0015 134C52.0015 134.451 51.6993 134.681 52.0015 135C52.3038 135.319 53.574 135 54.0015 135Z" fill="#DCAF54"/>
<path opacity="0.1" d="M52 131C52.0014 131.397 52.6783 131.719 53 132C53.3217 132.281 53.5451 131.998 54 132H62L54 129C53.5451 129.001 53.3217 128.719 53 129C52.6783 129.281 52.0014 130.602 52 131Z" fill="#1448B6"/>
<path opacity="0.1" d="M63 134C62.9986 134.397 62.3217 134.719 62 135C61.6783 135.281 61.4549 134.998 61 135H53L61 132C61.4549 132.001 61.6783 131.719 62 132C62.3217 132.281 62.9986 133.602 63 134Z" fill="#1448B6"/>
<path opacity="0.1" d="M63 141C62.9978 141.396 62.3215 141.719 62 142C61.6785 142.28 61.4547 141.998 61 142H53L61 139C61.4551 139.001 61.6784 138.718 62 139C62.3216 139.281 62.9986 140.602 63 141Z" fill="#1448B6"/>
<path opacity="0.1" d="M63 146C62.9986 146.397 62.3217 147.719 62 148C61.6783 148.281 61.4549 147.998 61 148H53L61 145C61.4549 145.001 61.6783 144.719 62 145C62.3217 145.281 62.9986 145.602 63 146Z" fill="#1448B6"/>
<path opacity="0.1" d="M52 136C52.0014 136.397 52.6783 137.719 53 138C53.3217 138.281 53.5451 137.998 54 138H62L54 135C53.5451 135.001 53.3217 134.719 53 135C52.6783 135.281 52.0014 135.602 52 136Z" fill="#1448B6"/>
<path opacity="0.1" d="M52 144C52.0014 144.397 52.6783 144.719 53 145C53.3217 145.281 53.5451 144.998 54 145H62L54 142C53.5451 142.001 53.3217 141.719 53 142C52.6783 142.281 52.0014 143.602 52 144Z" fill="#1448B6"/>
<path opacity="0.1" d="M52.0012 156L55.0012 155C54.8454 154.895 55.1033 154.154 55.0012 154C54.8992 153.846 54.0338 154.18 54.0012 154C53.9687 153.82 53.9593 153.178 54.0012 153C54.0431 152.822 54.8913 153.149 55.0012 153C54.961 152.928 54.0672 152.051 54.0012 152C53.9353 151.948 54.0828 152.023 54.0012 152C53.9197 151.976 54.0859 151.991 54.0012 152C53.9166 152.008 54.076 151.961 54.0012 152C53.6647 151.567 52.6661 151.65 52.0012 152C51.3364 152.35 50.8081 153.491 51.0012 154C51.157 154.104 50.8992 153.846 51.0012 154C51.1033 154.154 51.9687 154.82 52.0012 155C52.0338 155.18 52.0431 154.822 52.0012 155C51.9593 155.178 51.1112 155.851 51.0012 156C51.0825 156.142 51.84 155.952 52.0012 156C51.8511 156.074 52.1624 156.047 52.0012 156Z" fill="#DCAF54"/>
<path opacity="0.1" d="M51.0032 155C51.0454 155.098 50.9328 154.929 51.0032 155C51.0735 155.071 51.9155 154.967 52.0032 155C52.0908 155.033 51.9117 155.01 52.0032 155C52.0947 154.99 51.9218 155.051 52.0032 155L55.0032 153H51.0032C50.9205 153.052 51.0624 153.913 51.0032 154C50.944 154.087 51.0295 153.893 51.0032 154C50.9769 154.107 50.9924 153.889 51.0032 154C51.0139 154.111 50.9571 154.903 51.0032 155Z" fill="#1448B6"/>
<path opacity="0.1" d="M55 153C55.0781 153.168 55.0475 153.817 55 154C54.9525 154.183 55.1457 153.908 55 154L52 156L54 153C54.0726 152.953 53.9174 153.011 54 153C54.0826 152.989 54.92 152.973 55 153C54.9349 152.94 55.08 153.026 55 153C54.9599 152.916 55.0651 153.059 55 153Z" fill="#1448B6"/>
</g>
<g opacity="0.1">
<path opacity="0.1" d="M210 149C208.278 149.005 207.218 149.843 206 151C204.782 152.157 204.005 153.363 204 155V157C204 158.638 204.781 159.842 206 161C207.219 162.158 208.276 163 210 163C211.724 163 213.781 162.158 215 161C216.219 159.842 217 158.638 217 157V155C216.996 153.363 216.218 152.158 215 151C213.782 149.842 211.723 149.004 210 149Z" fill="#1448B6"/>
<path opacity="0.1" d="M217 141V143C216.992 144.547 216.041 145.831 215 147C213.959 148.169 212.572 148.774 211 149C209.428 149.226 208.344 148.825 207 148C205.656 147.175 204.467 145.479 204 144L217 141Z" fill="#1448B6"/>
<path opacity="0.1" d="M217 155V157C216.992 158.547 216.041 159.831 215 161C213.959 162.169 212.572 162.774 211 163C209.428 163.226 208.344 162.825 207 162C205.656 161.175 204.467 159.479 204 158L217 155Z" fill="#1448B6"/>
</g>
<path d="M141 172C218.872 172 282 169.314 282 166C282 162.686 218.872 160 141 160C63.1279 160 0 162.686 0 166C0 169.314 63.1279 172 141 172Z" fill="#1448B6"/>
<path opacity="0.1" d="M135 169C151.845 169 166 167.209 166 165C166 162.791 151.845 161 135 161C118.155 161 105 162.791 105 165C105 167.209 118.155 169 135 169Z" fill="#1448B6"/>
<path d="M137 166C136.057 166.186 134.924 166.264 134 166C133.075 165.736 132.707 164.658 132 164C131.293 163.342 130.337 162.909 130 162C129.662 161.091 129.895 159.966 130 159C130.698 152.759 133.059 143.092 139 128C145.887 110.501 143.38 105.549 136 93C133.617 88.9447 130.91 84.9011 128 79C120.495 63.8403 123.295 52.111 127 45C130.939 37.4309 136.371 33.4284 137 33L143 43H142C141.986 43 142.595 43.2536 143 44C140.724 45.9942 138.362 48.2841 137 51C133.775 57.529 134.935 64.7896 139 73C141.721 78.5023 143.724 83.1279 146 87C150.088 93.952 153.931 100.067 155 107C156.106 114.176 154.288 121.082 150 132C144.347 146.359 142.552 155.177 142 160C141.852 161.31 140.885 163.031 140 164C139.115 164.969 138.28 165.746 137 166Z" fill="#1448B6"/>
<path d="M110 25L135 0L160 25H143V44H127V25H110Z" fill="#DCAF54"/>
<path opacity="0.1" d="M190 165C198.837 165 206 164.105 206 163C206 161.895 198.837 161 190 161C181.163 161 174 161.895 174 163C174 164.105 181.163 165 190 165Z" fill="#1448B6"/>
<path d="M191.999 163C191.498 163.097 190.49 163.137 189.999 163C189.508 162.863 189.374 162.341 188.999 162C188.623 161.659 188.178 161.472 187.999 161C187.819 160.528 187.943 159.501 187.999 159C188.367 155.763 188.842 150.829 191.999 143C195.657 133.921 194.917 131.512 190.999 125C189.732 122.898 187.542 121.063 185.999 118C182.018 110.136 184.03 103.69 185.999 100C187.296 97.545 188.729 95.6269 190.999 94L194.999 99H193.999C193.999 99 194.787 99.6118 194.999 100C193.789 101.034 192.722 101.591 191.999 103C190.288 106.387 189.84 110.737 191.999 115C193.444 117.854 194.789 119.992 195.999 122C198.168 125.607 200.429 128.401 200.999 132C201.584 135.722 200.282 140.34 197.999 146C194.997 153.449 194.292 157.497 193.999 160C193.922 160.681 193.469 161.497 192.999 162C192.528 162.503 192.679 162.87 191.999 163Z" fill="#1448B6"/>
<path d="M177 90L190 77L203 90H194V100H186V90H177Z" fill="#DCAF54"/>
<path opacity="0.1" d="M81 165C89.8366 165 97 164.105 97 163C97 161.895 89.8366 161 81 161C72.1634 161 65 161.895 65 163C65 164.105 72.1634 165 81 165Z" fill="#1448B6"/>
<path d="M78.9992 163C79.5001 163.097 80.5081 163.137 80.9992 163C81.4904 162.863 81.6236 162.341 81.9992 162C82.3749 161.659 82.8201 161.472 82.9992 161C83.1784 160.528 83.0551 159.501 82.9992 159C82.6304 155.763 82.1557 150.829 78.9992 143C75.3411 133.921 76.0808 131.512 79.9992 125C81.2656 122.898 83.4563 121.063 84.9992 118C88.9801 110.136 86.968 103.69 84.9992 100C83.7018 97.545 82.2688 95.6269 79.9992 94L75.9992 99H76.9992C76.9992 99 76.2108 99.6118 75.9992 100C77.2094 101.034 78.2754 101.591 78.9992 103C80.7103 106.387 81.1578 110.737 78.9992 115C77.5539 117.854 76.2087 119.992 74.9992 122C72.8298 125.607 70.5687 128.401 69.9992 132C69.4135 135.722 70.716 140.34 72.9992 146C76.0011 153.449 76.7064 157.497 76.9992 160C77.0761 160.681 77.529 161.497 77.9992 162C78.4695 162.503 78.3184 162.87 78.9992 163Z" fill="#1448B6"/>
<path d="M94 90L81 77L68 90H77V100H85V90H94Z" fill="#DCAF54"/>
<path opacity="0.1" d="M136.039 78.2602C138.953 77.4003 140.913 77.1095 140.835 76.8447C140.756 76.58 138.668 76.4416 135.755 77.3015C132.841 78.1614 130.206 79.6939 130.285 79.9586C130.363 80.2234 133.126 79.12 136.039 78.2602Z" fill="#1448B6"/>
<path opacity="0.1" d="M138.039 84.2601C140.952 83.4002 142.913 83.1094 142.835 82.8447C142.756 82.58 140.668 82.4416 137.755 83.3015C134.841 84.1614 132.206 85.6939 132.285 85.9586C132.363 86.2234 135.126 85.12 138.039 84.2601Z" fill="#1448B6"/>
<path opacity="0.1" d="M141.039 88.2601C143.953 87.4003 145.913 87.1095 145.835 86.8447C145.756 86.58 143.668 86.4416 140.755 87.3015C137.841 88.1614 135.206 89.6939 135.285 89.9586C135.363 90.2234 138.126 89.12 141.039 88.2601Z" fill="#1448B6"/>
<path opacity="0.1" d="M143.039 92.2602C145.953 91.4003 147.913 91.1095 147.835 90.8448C147.756 90.58 145.668 90.4416 142.755 91.3015C139.841 92.1614 137.206 93.6939 137.285 93.9586C137.363 94.2234 140.126 93.12 143.039 92.2602Z" fill="#1448B6"/>
<path opacity="0.1" d="M224 161C224.002 161.664 224.549 162.531 225 163C225.451 163.469 225.363 163.998 226 164H238L226 159C225.364 159.001 225.451 159.533 225 160C224.549 160.467 224.005 160.337 224 161Z" fill="#1448B6"/>
<path opacity="0.1" d="M30 166C30.0036 166.797 30.4528 167.437 31 168C31.5472 168.563 32.2272 168.999 33 169H47L33 163C32.2275 163.001 31.5481 163.439 31 164C30.4519 164.561 30.0058 165.204 30 166Z" fill="#1448B6"/>
<path opacity="0.1" d="M143.998 55.9998C144.055 56.1409 144 55.8394 143.998 55.9998C143.947 55.6376 144.02 55.3402 143.998 54.9998C143.998 54.8441 143.914 54.9165 143.998 54.9998C144.082 55.0831 143.896 55.8658 143.998 55.9998Z" fill="#1448B6"/>
<path opacity="0.1" d="M142.999 55.9996C143.072 56.0879 142.968 55.8714 142.999 55.9996C143.059 56.181 143.038 56.8075 142.999 56.9996C142.947 56.9658 143.015 57.0748 142.999 56.9996C142.973 56.8792 143.047 56.1062 142.999 55.9996C142.996 56.1011 142.958 55.9056 142.999 55.9996C142.947 55.947 143.001 55.8981 142.999 55.9996Z" fill="#1448B6"/>
</svg>
