<svg width="45" height="61" viewBox="0 0 45 61" fill="none" xmlns="http://www.w3.org/2000/svg">
<path d="M30.2712 0.719678C29.5641 -0.128897 28.3029 -0.243584 27.4544 0.463518C26.6058 1.17062 26.4911 2.43175 27.1982 3.28032L30.2712 0.719678ZM40.4046 32.112L38.8085 30.9068L40.4046 32.112ZM0.280009 47.9794C-0.283655 48.9293 0.0294721 50.1563 0.979397 50.72L16.4593 59.9054C17.4092 60.4691 18.6362 60.156 19.1999 59.206C19.7636 58.2561 19.4504 57.0291 18.5005 56.4654L4.74059 48.3006L12.9054 34.5407C13.4691 33.5908 13.156 32.3638 12.206 31.8001C11.2561 31.2364 10.0291 31.5496 9.46544 32.4995L0.280009 47.9794ZM27.1982 3.28032C29.0575 5.51165 31.4071 8.08795 33.3558 10.3806C35.4022 12.7881 37.2719 15.1776 38.6583 17.5606C40.0461 19.946 40.8807 22.2099 40.9881 24.3742C41.0928 26.4824 40.5165 28.6448 38.8085 30.9068L42.0007 33.3172C44.2447 30.3453 45.1367 27.2682 44.9832 24.1758C44.8325 21.1395 43.6823 18.2418 42.1157 15.5491C40.5478 12.854 38.4936 10.2489 36.4036 7.78999C34.2158 5.21614 32.2164 3.05406 30.2712 0.719678L27.1982 3.28032ZM38.8085 30.9068C35.8185 34.8667 30.2164 38.0221 23.2857 40.6593C16.4176 43.2727 8.60834 45.2495 1.50546 47.0621L2.49454 50.9379C9.54256 49.1393 17.5864 47.1077 24.7082 44.3978C31.7675 41.7116 38.2922 38.2286 42.0007 33.3172L38.8085 30.9068Z" fill="#2C2C2C"/>
</svg>
