<svg width="390" height="425" viewBox="0 0 390 425" fill="none" xmlns="http://www.w3.org/2000/svg">
<rect y="347" width="70" height="78" fill="#B3B4B5"/>
<rect x="70" y="240" width="70" height="155" fill="#7289DA"/>
<rect x="140" y="171" width="70" height="194" fill="#6441A4"/>
<rect x="210" y="102" width="70" height="233" fill="#FF4500"/>
<rect x="280" y="41" width="70" height="264" fill="#FF0000"/>
<path d="M14.2109 416.882H19.8096V419H11.5742V406.203H14.2109V416.882ZM25.54 419.176C24.1455 419.176 23.0088 418.748 22.1299 417.893C21.2568 417.037 20.8203 415.897 20.8203 414.474V414.228C20.8203 413.272 21.0049 412.42 21.374 411.67C21.7432 410.914 22.2646 410.334 22.9385 409.93C23.6182 409.52 24.3916 409.314 25.2588 409.314C26.5596 409.314 27.582 409.725 28.3262 410.545C29.0762 411.365 29.4512 412.528 29.4512 414.034V415.071H23.3955C23.4775 415.692 23.7236 416.19 24.1338 416.565C24.5498 416.94 25.0742 417.128 25.707 417.128C26.6855 417.128 27.4502 416.773 28.001 416.064L29.249 417.462C28.8682 418.001 28.3525 418.423 27.7021 418.728C27.0518 419.026 26.3311 419.176 25.54 419.176ZM25.25 411.371C24.7461 411.371 24.3359 411.541 24.0195 411.881C23.709 412.221 23.5098 412.707 23.4219 413.34H26.9551V413.138C26.9434 412.575 26.791 412.142 26.498 411.837C26.2051 411.526 25.7891 411.371 25.25 411.371ZM34.3379 415.897L36.1045 409.49H38.7588L35.5508 419H33.125L29.917 409.49H32.5713L34.3379 415.897ZM44.1377 419.176C42.7432 419.176 41.6064 418.748 40.7275 417.893C39.8545 417.037 39.418 415.897 39.418 414.474V414.228C39.418 413.272 39.6025 412.42 39.9717 411.67C40.3408 410.914 40.8623 410.334 41.5361 409.93C42.2158 409.52 42.9893 409.314 43.8564 409.314C45.1572 409.314 46.1797 409.725 46.9238 410.545C47.6738 411.365 48.0488 412.528 48.0488 414.034V415.071H41.9932C42.0752 415.692 42.3213 416.19 42.7314 416.565C43.1475 416.94 43.6719 417.128 44.3047 417.128C45.2832 417.128 46.0479 416.773 46.5986 416.064L47.8467 417.462C47.4658 418.001 46.9502 418.423 46.2998 418.728C45.6494 419.026 44.9287 419.176 44.1377 419.176ZM43.8477 411.371C43.3438 411.371 42.9336 411.541 42.6172 411.881C42.3066 412.221 42.1074 412.707 42.0195 413.34H45.5527V413.138C45.541 412.575 45.3887 412.142 45.0957 411.837C44.8027 411.526 44.3867 411.371 43.8477 411.371ZM52.1797 419H49.6309V405.5H52.1797V419ZM59.4307 416.372C59.4307 416.062 59.2754 415.818 58.9648 415.643C58.6602 415.461 58.168 415.3 57.4883 415.159C55.2266 414.685 54.0957 413.724 54.0957 412.276C54.0957 411.433 54.4443 410.729 55.1416 410.167C55.8447 409.599 56.7617 409.314 57.8926 409.314C59.0996 409.314 60.0635 409.599 60.7842 410.167C61.5107 410.735 61.874 411.474 61.874 412.382H59.334C59.334 412.019 59.2168 411.72 58.9824 411.485C58.748 411.245 58.3818 411.125 57.8838 411.125C57.4561 411.125 57.125 411.222 56.8906 411.415C56.6562 411.608 56.5391 411.854 56.5391 412.153C56.5391 412.435 56.6709 412.663 56.9346 412.839C57.2041 413.009 57.6553 413.158 58.2881 413.287C58.9209 413.41 59.4541 413.551 59.8877 413.709C61.2295 414.201 61.9004 415.054 61.9004 416.267C61.9004 417.134 61.5283 417.837 60.7842 418.376C60.04 418.909 59.0791 419.176 57.9014 419.176C57.1045 419.176 56.3955 419.035 55.7744 418.754C55.1592 418.467 54.6758 418.077 54.3242 417.585C53.9727 417.087 53.7969 416.551 53.7969 415.977H56.2051C56.2285 416.428 56.3955 416.773 56.7061 417.014C57.0166 417.254 57.4326 417.374 57.9541 417.374C58.4404 417.374 58.8066 417.283 59.0527 417.102C59.3047 416.914 59.4307 416.671 59.4307 416.372Z" fill="white"/>
<path d="M82.1787 413.823H79.1729V419H77.4766V406.203H81.7129C83.1543 406.203 84.2617 406.531 85.0352 407.188C85.8145 407.844 86.2041 408.799 86.2041 410.053C86.2041 410.85 85.9873 411.544 85.5537 412.136C85.126 412.728 84.5283 413.17 83.7607 413.463L86.7666 418.895V419H84.9561L82.1787 413.823ZM79.1729 412.443H81.7656C82.6035 412.443 83.2686 412.227 83.7607 411.793C84.2588 411.359 84.5078 410.779 84.5078 410.053C84.5078 409.262 84.2705 408.655 83.7959 408.233C83.3271 407.812 82.6475 407.598 81.7568 407.592H79.1729V412.443ZM92.2686 419.176C90.9795 419.176 89.9307 418.754 89.1221 417.91C88.3135 417.061 87.9092 415.927 87.9092 414.509V414.21C87.9092 413.267 88.0879 412.426 88.4453 411.688C88.8086 410.943 89.3125 410.363 89.957 409.947C90.6074 409.525 91.3105 409.314 92.0664 409.314C93.3027 409.314 94.2637 409.722 94.9492 410.536C95.6348 411.351 95.9775 412.517 95.9775 414.034V414.711H89.5352C89.5586 415.648 89.8311 416.407 90.3525 416.987C90.8799 417.562 91.5479 417.849 92.3564 417.849C92.9307 417.849 93.417 417.731 93.8154 417.497C94.2139 417.263 94.5625 416.952 94.8613 416.565L95.8545 417.339C95.0576 418.563 93.8623 419.176 92.2686 419.176ZM92.0664 410.65C91.4102 410.65 90.8594 410.891 90.4141 411.371C89.9688 411.846 89.6934 412.514 89.5879 413.375H94.3516V413.252C94.3047 412.426 94.082 411.787 93.6836 411.336C93.2852 410.879 92.7461 410.65 92.0664 410.65ZM103.738 419C103.645 418.812 103.568 418.479 103.51 417.998C102.754 418.783 101.852 419.176 100.803 419.176C99.8652 419.176 99.0947 418.912 98.4912 418.385C97.8936 417.852 97.5947 417.178 97.5947 416.363C97.5947 415.373 97.9697 414.605 98.7197 414.061C99.4756 413.51 100.536 413.234 101.901 413.234H103.483V412.487C103.483 411.919 103.313 411.468 102.974 411.134C102.634 410.794 102.133 410.624 101.471 410.624C100.891 410.624 100.404 410.771 100.012 411.063C99.6191 411.356 99.4229 411.711 99.4229 412.127H97.7881C97.7881 411.652 97.9551 411.195 98.2891 410.756C98.6289 410.311 99.0859 409.959 99.6602 409.701C100.24 409.443 100.876 409.314 101.567 409.314C102.663 409.314 103.521 409.59 104.143 410.141C104.764 410.686 105.086 411.438 105.109 412.399V416.776C105.109 417.649 105.221 418.344 105.443 418.859V419H103.738ZM101.04 417.761C101.55 417.761 102.033 417.629 102.49 417.365C102.947 417.102 103.278 416.759 103.483 416.337V414.386H102.209C100.217 414.386 99.2207 414.969 99.2207 416.135C99.2207 416.645 99.3906 417.043 99.7305 417.33C100.07 417.617 100.507 417.761 101.04 417.761ZM111.473 417.849C112.053 417.849 112.56 417.673 112.993 417.321C113.427 416.97 113.667 416.53 113.714 416.003H115.252C115.223 416.548 115.035 417.066 114.689 417.559C114.344 418.051 113.881 418.443 113.301 418.736C112.727 419.029 112.117 419.176 111.473 419.176C110.178 419.176 109.146 418.745 108.379 417.884C107.617 417.017 107.236 415.833 107.236 414.333V414.061C107.236 413.135 107.406 412.312 107.746 411.591C108.086 410.87 108.572 410.311 109.205 409.912C109.844 409.514 110.597 409.314 111.464 409.314C112.53 409.314 113.415 409.634 114.118 410.272C114.827 410.911 115.205 411.74 115.252 412.76H113.714C113.667 412.145 113.433 411.641 113.011 411.248C112.595 410.85 112.079 410.65 111.464 410.65C110.638 410.65 109.996 410.949 109.539 411.547C109.088 412.139 108.862 412.997 108.862 414.122V414.43C108.862 415.525 109.088 416.369 109.539 416.961C109.99 417.553 110.635 417.849 111.473 417.849ZM118.706 410.642C119.427 409.757 120.364 409.314 121.519 409.314C123.528 409.314 124.542 410.448 124.56 412.716V419H122.934V412.707C122.928 412.021 122.77 411.515 122.459 411.187C122.154 410.858 121.677 410.694 121.026 410.694C120.499 410.694 120.036 410.835 119.638 411.116C119.239 411.397 118.929 411.767 118.706 412.224V419H117.08V405.5H118.706V410.642ZM132.997 409.49L133.05 410.686C133.776 409.771 134.726 409.314 135.897 409.314C137.907 409.314 138.921 410.448 138.938 412.716V419H137.312V412.707C137.307 412.021 137.148 411.515 136.838 411.187C136.533 410.858 136.056 410.694 135.405 410.694C134.878 410.694 134.415 410.835 134.017 411.116C133.618 411.397 133.308 411.767 133.085 412.224V419H131.459V409.49H132.997ZM145.337 419.176C144.048 419.176 142.999 418.754 142.19 417.91C141.382 417.061 140.978 415.927 140.978 414.509V414.21C140.978 413.267 141.156 412.426 141.514 411.688C141.877 410.943 142.381 410.363 143.025 409.947C143.676 409.525 144.379 409.314 145.135 409.314C146.371 409.314 147.332 409.722 148.018 410.536C148.703 411.351 149.046 412.517 149.046 414.034V414.711H142.604C142.627 415.648 142.899 416.407 143.421 416.987C143.948 417.562 144.616 417.849 145.425 417.849C145.999 417.849 146.485 417.731 146.884 417.497C147.282 417.263 147.631 416.952 147.93 416.565L148.923 417.339C148.126 418.563 146.931 419.176 145.337 419.176ZM145.135 410.65C144.479 410.65 143.928 410.891 143.482 411.371C143.037 411.846 142.762 412.514 142.656 413.375H147.42V413.252C147.373 412.426 147.15 411.787 146.752 411.336C146.354 410.879 145.814 410.65 145.135 410.65ZM159.355 416.759L161.184 409.49H162.81L160.041 419H158.723L156.411 411.793L154.161 419H152.843L150.083 409.49H151.7L153.572 416.609L155.787 409.49H157.097L159.355 416.759ZM170.702 419H169.076V405.5H170.702V419ZM177.259 419.176C175.97 419.176 174.921 418.754 174.112 417.91C173.304 417.061 172.899 415.927 172.899 414.509V414.21C172.899 413.267 173.078 412.426 173.436 411.688C173.799 410.943 174.303 410.363 174.947 409.947C175.598 409.525 176.301 409.314 177.057 409.314C178.293 409.314 179.254 409.722 179.939 410.536C180.625 411.351 180.968 412.517 180.968 414.034V414.711H174.525C174.549 415.648 174.821 416.407 175.343 416.987C175.87 417.562 176.538 417.849 177.347 417.849C177.921 417.849 178.407 417.731 178.806 417.497C179.204 417.263 179.553 416.952 179.852 416.565L180.845 417.339C180.048 418.563 178.853 419.176 177.259 419.176ZM177.057 410.65C176.4 410.65 175.85 410.891 175.404 411.371C174.959 411.846 174.684 412.514 174.578 413.375H179.342V413.252C179.295 412.426 179.072 411.787 178.674 411.336C178.275 410.879 177.736 410.65 177.057 410.65ZM185.872 416.794L188.228 409.49H189.889L186.479 419H185.239L181.794 409.49H183.455L185.872 416.794ZM195.276 419.176C193.987 419.176 192.938 418.754 192.13 417.91C191.321 417.061 190.917 415.927 190.917 414.509V414.21C190.917 413.267 191.096 412.426 191.453 411.688C191.816 410.943 192.32 410.363 192.965 409.947C193.615 409.525 194.318 409.314 195.074 409.314C196.311 409.314 197.271 409.722 197.957 410.536C198.643 411.351 198.985 412.517 198.985 414.034V414.711H192.543C192.566 415.648 192.839 416.407 193.36 416.987C193.888 417.562 194.556 417.849 195.364 417.849C195.938 417.849 196.425 417.731 196.823 417.497C197.222 417.263 197.57 416.952 197.869 416.565L198.862 417.339C198.065 418.563 196.87 419.176 195.276 419.176ZM195.074 410.65C194.418 410.65 193.867 410.891 193.422 411.371C192.977 411.846 192.701 412.514 192.596 413.375H197.359V413.252C197.312 412.426 197.09 411.787 196.691 411.336C196.293 410.879 195.754 410.65 195.074 410.65ZM202.642 419H201.016V405.5H202.642V419ZM210.789 416.478C210.789 416.038 210.622 415.698 210.288 415.458C209.96 415.212 209.383 415.001 208.557 414.825C207.736 414.649 207.083 414.438 206.597 414.192C206.116 413.946 205.759 413.653 205.524 413.313C205.296 412.974 205.182 412.569 205.182 412.101C205.182 411.321 205.51 410.662 206.166 410.123C206.828 409.584 207.672 409.314 208.697 409.314C209.775 409.314 210.648 409.593 211.316 410.149C211.99 410.706 212.327 411.418 212.327 412.285H210.692C210.692 411.84 210.502 411.456 210.121 411.134C209.746 410.812 209.271 410.65 208.697 410.65C208.105 410.65 207.643 410.779 207.309 411.037C206.975 411.295 206.808 411.632 206.808 412.048C206.808 412.44 206.963 412.736 207.273 412.936C207.584 413.135 208.144 413.325 208.952 413.507C209.767 413.688 210.426 413.905 210.93 414.157C211.434 414.409 211.806 414.714 212.046 415.071C212.292 415.423 212.415 415.854 212.415 416.363C212.415 417.213 212.075 417.896 211.396 418.411C210.716 418.921 209.834 419.176 208.75 419.176C207.988 419.176 207.314 419.041 206.729 418.771C206.143 418.502 205.683 418.127 205.349 417.646C205.021 417.16 204.856 416.636 204.856 416.073H206.482C206.512 416.618 206.729 417.052 207.133 417.374C207.543 417.69 208.082 417.849 208.75 417.849C209.365 417.849 209.857 417.726 210.227 417.479C210.602 417.228 210.789 416.894 210.789 416.478Z" fill="#121212"/>
<path d="M155.934 387.321C155.5 387.942 154.894 388.408 154.114 388.719C153.341 389.023 152.438 389.176 151.407 389.176C150.364 389.176 149.438 388.933 148.63 388.446C147.821 387.954 147.194 387.257 146.749 386.354C146.31 385.452 146.084 384.406 146.072 383.217V382.101C146.072 380.173 146.521 378.679 147.417 377.618C148.319 376.558 149.585 376.027 151.214 376.027C152.55 376.027 153.625 376.37 154.439 377.056C155.254 377.735 155.752 378.702 155.934 379.956H154.246C153.93 378.263 152.922 377.416 151.223 377.416C150.092 377.416 149.233 377.814 148.647 378.611C148.067 379.402 147.774 380.551 147.769 382.057V383.103C147.769 384.538 148.097 385.681 148.753 386.53C149.409 387.374 150.297 387.796 151.416 387.796C152.049 387.796 152.603 387.726 153.077 387.585C153.552 387.444 153.944 387.207 154.255 386.873V383.999H151.293V382.628H155.934V387.321ZM162.446 389.176C161.157 389.176 160.108 388.754 159.3 387.91C158.491 387.061 158.087 385.927 158.087 384.509V384.21C158.087 383.267 158.266 382.426 158.623 381.688C158.986 380.943 159.49 380.363 160.135 379.947C160.785 379.525 161.488 379.314 162.244 379.314C163.48 379.314 164.441 379.722 165.127 380.536C165.812 381.351 166.155 382.517 166.155 384.034V384.711H159.713C159.736 385.648 160.009 386.407 160.53 386.987C161.058 387.562 161.726 387.849 162.534 387.849C163.108 387.849 163.595 387.731 163.993 387.497C164.392 387.263 164.74 386.952 165.039 386.565L166.032 387.339C165.235 388.563 164.04 389.176 162.446 389.176ZM162.244 380.65C161.588 380.65 161.037 380.891 160.592 381.371C160.146 381.846 159.871 382.514 159.766 383.375H164.529V383.252C164.482 382.426 164.26 381.787 163.861 381.336C163.463 380.879 162.924 380.65 162.244 380.65ZM170.251 377.188V379.49H172.026V380.747H170.251V386.645C170.251 387.025 170.33 387.312 170.488 387.506C170.646 387.693 170.916 387.787 171.297 387.787C171.484 387.787 171.742 387.752 172.07 387.682V389C171.643 389.117 171.227 389.176 170.822 389.176C170.096 389.176 169.548 388.956 169.179 388.517C168.81 388.077 168.625 387.453 168.625 386.645V380.747H166.894V379.49H168.625V377.188H170.251ZM186.449 384.351C186.449 385.804 186.115 386.973 185.447 387.857C184.779 388.736 183.883 389.176 182.758 389.176C181.557 389.176 180.628 388.751 179.972 387.901L179.893 389H178.398V375.5H180.024V380.536C180.681 379.722 181.586 379.314 182.74 379.314C183.895 379.314 184.8 379.751 185.456 380.624C186.118 381.497 186.449 382.692 186.449 384.21V384.351ZM184.823 384.166C184.823 383.059 184.609 382.203 184.182 381.6C183.754 380.996 183.139 380.694 182.336 380.694C181.264 380.694 180.493 381.192 180.024 382.188V386.302C180.522 387.298 181.299 387.796 182.354 387.796C183.133 387.796 183.739 387.494 184.173 386.891C184.606 386.287 184.823 385.379 184.823 384.166ZM188.075 384.157C188.075 383.226 188.257 382.388 188.62 381.644C188.989 380.899 189.499 380.325 190.149 379.921C190.806 379.517 191.553 379.314 192.391 379.314C193.686 379.314 194.731 379.763 195.528 380.659C196.331 381.556 196.732 382.748 196.732 384.236V384.351C196.732 385.276 196.554 386.108 196.196 386.847C195.845 387.579 195.338 388.15 194.676 388.561C194.02 388.971 193.264 389.176 192.408 389.176C191.119 389.176 190.073 388.728 189.271 387.831C188.474 386.935 188.075 385.748 188.075 384.271V384.157ZM189.71 384.351C189.71 385.405 189.953 386.252 190.439 386.891C190.932 387.529 191.588 387.849 192.408 387.849C193.234 387.849 193.891 387.526 194.377 386.882C194.863 386.231 195.106 385.323 195.106 384.157C195.106 383.114 194.857 382.271 194.359 381.626C193.867 380.976 193.211 380.65 192.391 380.65C191.588 380.65 190.94 380.97 190.448 381.608C189.956 382.247 189.71 383.161 189.71 384.351ZM200.31 379.49L200.362 380.686C201.089 379.771 202.038 379.314 203.21 379.314C205.22 379.314 206.233 380.448 206.251 382.716V389H204.625V382.707C204.619 382.021 204.461 381.515 204.15 381.187C203.846 380.858 203.368 380.694 202.718 380.694C202.19 380.694 201.728 380.835 201.329 381.116C200.931 381.397 200.62 381.767 200.397 382.224V389H198.771V379.49H200.31ZM214.574 388.06C213.941 388.804 213.013 389.176 211.788 389.176C210.774 389.176 210.001 388.883 209.468 388.297C208.94 387.705 208.674 386.832 208.668 385.678V379.49H210.294V385.634C210.294 387.075 210.88 387.796 212.052 387.796C213.294 387.796 214.12 387.333 214.53 386.407V379.49H216.156V389H214.609L214.574 388.06ZM224.172 386.478C224.172 386.038 224.005 385.698 223.671 385.458C223.343 385.212 222.766 385.001 221.939 384.825C221.119 384.649 220.466 384.438 219.979 384.192C219.499 383.946 219.142 383.653 218.907 383.313C218.679 382.974 218.564 382.569 218.564 382.101C218.564 381.321 218.893 380.662 219.549 380.123C220.211 379.584 221.055 379.314 222.08 379.314C223.158 379.314 224.031 379.593 224.699 380.149C225.373 380.706 225.71 381.418 225.71 382.285H224.075C224.075 381.84 223.885 381.456 223.504 381.134C223.129 380.812 222.654 380.65 222.08 380.65C221.488 380.65 221.025 380.779 220.691 381.037C220.357 381.295 220.19 381.632 220.19 382.048C220.19 382.44 220.346 382.736 220.656 382.936C220.967 383.135 221.526 383.325 222.335 383.507C223.149 383.688 223.809 383.905 224.312 384.157C224.816 384.409 225.188 384.714 225.429 385.071C225.675 385.423 225.798 385.854 225.798 386.363C225.798 387.213 225.458 387.896 224.778 388.411C224.099 388.921 223.217 389.176 222.133 389.176C221.371 389.176 220.697 389.041 220.111 388.771C219.525 388.502 219.065 388.127 218.731 387.646C218.403 387.16 218.239 386.636 218.239 386.073H219.865C219.895 386.618 220.111 387.052 220.516 387.374C220.926 387.69 221.465 387.849 222.133 387.849C222.748 387.849 223.24 387.726 223.609 387.479C223.984 387.228 224.172 386.894 224.172 386.478Z" fill="#121212"/>
<path d="M218.296 359H216.608V346.203H218.296V359ZM222.673 349.49L222.726 350.686C223.452 349.771 224.401 349.314 225.573 349.314C227.583 349.314 228.597 350.448 228.614 352.716V359H226.988V352.707C226.982 352.021 226.824 351.515 226.514 351.187C226.209 350.858 225.731 350.694 225.081 350.694C224.554 350.694 224.091 350.835 223.692 351.116C223.294 351.397 222.983 351.767 222.761 352.224V359H221.135V349.49H222.673ZM234.881 357.849C235.461 357.849 235.968 357.673 236.401 357.321C236.835 356.97 237.075 356.53 237.122 356.003H238.66C238.631 356.548 238.443 357.066 238.098 357.559C237.752 358.051 237.289 358.443 236.709 358.736C236.135 359.029 235.525 359.176 234.881 359.176C233.586 359.176 232.555 358.745 231.787 357.884C231.025 357.017 230.645 355.833 230.645 354.333V354.061C230.645 353.135 230.814 352.312 231.154 351.591C231.494 350.87 231.98 350.311 232.613 349.912C233.252 349.514 234.005 349.314 234.872 349.314C235.938 349.314 236.823 349.634 237.526 350.272C238.235 350.911 238.613 351.74 238.66 352.76H237.122C237.075 352.145 236.841 351.641 236.419 351.248C236.003 350.85 235.487 350.65 234.872 350.65C234.046 350.65 233.404 350.949 232.947 351.547C232.496 352.139 232.271 352.997 232.271 354.122V354.43C232.271 355.525 232.496 356.369 232.947 356.961C233.398 357.553 234.043 357.849 234.881 357.849ZM245.085 350.949C244.839 350.908 244.572 350.888 244.285 350.888C243.219 350.888 242.495 351.342 242.114 352.25V359H240.488V349.49H242.07L242.097 350.589C242.63 349.739 243.386 349.314 244.364 349.314C244.681 349.314 244.921 349.355 245.085 349.438V350.949ZM250.358 359.176C249.069 359.176 248.021 358.754 247.212 357.91C246.403 357.061 245.999 355.927 245.999 354.509V354.21C245.999 353.267 246.178 352.426 246.535 351.688C246.898 350.943 247.402 350.363 248.047 349.947C248.697 349.525 249.4 349.314 250.156 349.314C251.393 349.314 252.354 349.722 253.039 350.536C253.725 351.351 254.067 352.517 254.067 354.034V354.711H247.625C247.648 355.648 247.921 356.407 248.442 356.987C248.97 357.562 249.638 357.849 250.446 357.849C251.021 357.849 251.507 357.731 251.905 357.497C252.304 357.263 252.652 356.952 252.951 356.565L253.944 357.339C253.147 358.563 251.952 359.176 250.358 359.176ZM250.156 350.65C249.5 350.65 248.949 350.891 248.504 351.371C248.059 351.846 247.783 352.514 247.678 353.375H252.441V353.252C252.395 352.426 252.172 351.787 251.773 351.336C251.375 350.879 250.836 350.65 250.156 350.65ZM261.828 359C261.734 358.812 261.658 358.479 261.6 357.998C260.844 358.783 259.941 359.176 258.893 359.176C257.955 359.176 257.185 358.912 256.581 358.385C255.983 357.852 255.685 357.178 255.685 356.363C255.685 355.373 256.06 354.605 256.81 354.061C257.565 353.51 258.626 353.234 259.991 353.234H261.573V352.487C261.573 351.919 261.403 351.468 261.063 351.134C260.724 350.794 260.223 350.624 259.561 350.624C258.98 350.624 258.494 350.771 258.102 351.063C257.709 351.356 257.513 351.711 257.513 352.127H255.878C255.878 351.652 256.045 351.195 256.379 350.756C256.719 350.311 257.176 349.959 257.75 349.701C258.33 349.443 258.966 349.314 259.657 349.314C260.753 349.314 261.611 349.59 262.232 350.141C262.854 350.686 263.176 351.438 263.199 352.399V356.776C263.199 357.649 263.311 358.344 263.533 358.859V359H261.828ZM259.13 357.761C259.64 357.761 260.123 357.629 260.58 357.365C261.037 357.102 261.368 356.759 261.573 356.337V354.386H260.299C258.307 354.386 257.311 354.969 257.311 356.135C257.311 356.645 257.48 357.043 257.82 357.33C258.16 357.617 258.597 357.761 259.13 357.761ZM271.285 356.478C271.285 356.038 271.118 355.698 270.784 355.458C270.456 355.212 269.879 355.001 269.053 354.825C268.232 354.649 267.579 354.438 267.093 354.192C266.612 353.946 266.255 353.653 266.021 353.313C265.792 352.974 265.678 352.569 265.678 352.101C265.678 351.321 266.006 350.662 266.662 350.123C267.324 349.584 268.168 349.314 269.193 349.314C270.271 349.314 271.145 349.593 271.812 350.149C272.486 350.706 272.823 351.418 272.823 352.285H271.188C271.188 351.84 270.998 351.456 270.617 351.134C270.242 350.812 269.768 350.65 269.193 350.65C268.602 350.65 268.139 350.779 267.805 351.037C267.471 351.295 267.304 351.632 267.304 352.048C267.304 352.44 267.459 352.736 267.77 352.936C268.08 353.135 268.64 353.325 269.448 353.507C270.263 353.688 270.922 353.905 271.426 354.157C271.93 354.409 272.302 354.714 272.542 355.071C272.788 355.423 272.911 355.854 272.911 356.363C272.911 357.213 272.571 357.896 271.892 358.411C271.212 358.921 270.33 359.176 269.246 359.176C268.484 359.176 267.811 359.041 267.225 358.771C266.639 358.502 266.179 358.127 265.845 357.646C265.517 357.16 265.353 356.636 265.353 356.073H266.979C267.008 356.618 267.225 357.052 267.629 357.374C268.039 357.69 268.578 357.849 269.246 357.849C269.861 357.849 270.354 357.726 270.723 357.479C271.098 357.228 271.285 356.894 271.285 356.478ZM278.976 359.176C277.687 359.176 276.638 358.754 275.829 357.91C275.021 357.061 274.616 355.927 274.616 354.509V354.21C274.616 353.267 274.795 352.426 275.152 351.688C275.516 350.943 276.02 350.363 276.664 349.947C277.314 349.525 278.018 349.314 278.773 349.314C280.01 349.314 280.971 349.722 281.656 350.536C282.342 351.351 282.685 352.517 282.685 354.034V354.711H276.242C276.266 355.648 276.538 356.407 277.06 356.987C277.587 357.562 278.255 357.849 279.063 357.849C279.638 357.849 280.124 357.731 280.522 357.497C280.921 357.263 281.27 356.952 281.568 356.565L282.562 357.339C281.765 358.563 280.569 359.176 278.976 359.176ZM278.773 350.65C278.117 350.65 277.566 350.891 277.121 351.371C276.676 351.846 276.4 352.514 276.295 353.375H281.059V353.252C281.012 352.426 280.789 351.787 280.391 351.336C279.992 350.879 279.453 350.65 278.773 350.65ZM292.15 356.618L294.365 349.49H296.105L292.282 360.468C291.69 362.05 290.75 362.841 289.461 362.841L289.153 362.814L288.547 362.7V361.382L288.986 361.417C289.537 361.417 289.965 361.306 290.27 361.083C290.58 360.86 290.835 360.453 291.034 359.861L291.395 358.895L288.002 349.49H289.777L292.15 356.618ZM296.993 354.157C296.993 353.226 297.175 352.388 297.538 351.644C297.907 350.899 298.417 350.325 299.067 349.921C299.724 349.517 300.471 349.314 301.309 349.314C302.604 349.314 303.649 349.763 304.446 350.659C305.249 351.556 305.65 352.748 305.65 354.236V354.351C305.65 355.276 305.472 356.108 305.114 356.847C304.763 357.579 304.256 358.15 303.594 358.561C302.938 358.971 302.182 359.176 301.326 359.176C300.037 359.176 298.991 358.728 298.188 357.831C297.392 356.935 296.993 355.748 296.993 354.271V354.157ZM298.628 354.351C298.628 355.405 298.871 356.252 299.357 356.891C299.85 357.529 300.506 357.849 301.326 357.849C302.152 357.849 302.809 357.526 303.295 356.882C303.781 356.231 304.024 355.323 304.024 354.157C304.024 353.114 303.775 352.271 303.277 351.626C302.785 350.976 302.129 350.65 301.309 350.65C300.506 350.65 299.858 350.97 299.366 351.608C298.874 352.247 298.628 353.161 298.628 354.351ZM313.561 358.06C312.928 358.804 311.999 359.176 310.774 359.176C309.761 359.176 308.987 358.883 308.454 358.297C307.927 357.705 307.66 356.832 307.654 355.678V349.49H309.28V355.634C309.28 357.075 309.866 357.796 311.038 357.796C312.28 357.796 313.106 357.333 313.517 356.407V349.49H315.143V359H313.596L313.561 358.06ZM322.218 350.949C321.972 350.908 321.705 350.888 321.418 350.888C320.352 350.888 319.628 351.342 319.247 352.25V359H317.621V349.49H319.203L319.229 350.589C319.763 349.739 320.519 349.314 321.497 349.314C321.813 349.314 322.054 349.355 322.218 349.438V350.949ZM327.79 354.166C327.79 352.707 328.136 351.535 328.827 350.65C329.519 349.76 330.424 349.314 331.543 349.314C332.656 349.314 333.538 349.695 334.188 350.457V345.5H335.814V359H334.32L334.241 357.98C333.591 358.777 332.686 359.176 331.525 359.176C330.424 359.176 329.524 358.725 328.827 357.822C328.136 356.92 327.79 355.742 327.79 354.289V354.166ZM329.416 354.351C329.416 355.429 329.639 356.272 330.084 356.882C330.529 357.491 331.145 357.796 331.93 357.796C332.961 357.796 333.714 357.333 334.188 356.407V352.039C333.702 351.143 332.955 350.694 331.947 350.694C331.15 350.694 330.529 351.002 330.084 351.617C329.639 352.232 329.416 353.144 329.416 354.351ZM342.292 359.176C341.003 359.176 339.954 358.754 339.146 357.91C338.337 357.061 337.933 355.927 337.933 354.509V354.21C337.933 353.267 338.111 352.426 338.469 351.688C338.832 350.943 339.336 350.363 339.98 349.947C340.631 349.525 341.334 349.314 342.09 349.314C343.326 349.314 344.287 349.722 344.973 350.536C345.658 351.351 346.001 352.517 346.001 354.034V354.711H339.559C339.582 355.648 339.854 356.407 340.376 356.987C340.903 357.562 341.571 357.849 342.38 357.849C342.954 357.849 343.44 357.731 343.839 357.497C344.237 357.263 344.586 356.952 344.885 356.565L345.878 357.339C345.081 358.563 343.886 359.176 342.292 359.176ZM342.09 350.65C341.434 350.65 340.883 350.891 340.438 351.371C339.992 351.846 339.717 352.514 339.611 353.375H344.375V353.252C344.328 352.426 344.105 351.787 343.707 351.336C343.309 350.879 342.77 350.65 342.09 350.65ZM355.924 354.351C355.924 355.798 355.593 356.964 354.931 357.849C354.269 358.733 353.372 359.176 352.241 359.176C351.087 359.176 350.179 358.81 349.517 358.077V362.656H347.891V349.49H349.376L349.455 350.545C350.117 349.725 351.037 349.314 352.215 349.314C353.357 349.314 354.26 349.745 354.922 350.606C355.59 351.468 355.924 352.666 355.924 354.201V354.351ZM354.298 354.166C354.298 353.094 354.069 352.247 353.612 351.626C353.155 351.005 352.528 350.694 351.731 350.694C350.747 350.694 350.009 351.131 349.517 352.004V356.548C350.003 357.415 350.747 357.849 351.749 357.849C352.528 357.849 353.146 357.541 353.604 356.926C354.066 356.305 354.298 355.385 354.298 354.166ZM357.567 354.157C357.567 353.226 357.749 352.388 358.112 351.644C358.481 350.899 358.991 350.325 359.642 349.921C360.298 349.517 361.045 349.314 361.883 349.314C363.178 349.314 364.224 349.763 365.021 350.659C365.823 351.556 366.225 352.748 366.225 354.236V354.351C366.225 355.276 366.046 356.108 365.688 356.847C365.337 357.579 364.83 358.15 364.168 358.561C363.512 358.971 362.756 359.176 361.9 359.176C360.611 359.176 359.565 358.728 358.763 357.831C357.966 356.935 357.567 355.748 357.567 354.271V354.157ZM359.202 354.351C359.202 355.405 359.445 356.252 359.932 356.891C360.424 357.529 361.08 357.849 361.9 357.849C362.727 357.849 363.383 357.526 363.869 356.882C364.355 356.231 364.599 355.323 364.599 354.157C364.599 353.114 364.35 352.271 363.852 351.626C363.359 350.976 362.703 350.65 361.883 350.65C361.08 350.65 360.433 350.97 359.94 351.608C359.448 352.247 359.202 353.161 359.202 354.351ZM373.801 356.478C373.801 356.038 373.634 355.698 373.3 355.458C372.972 355.212 372.395 355.001 371.568 354.825C370.748 354.649 370.095 354.438 369.608 354.192C369.128 353.946 368.771 353.653 368.536 353.313C368.308 352.974 368.193 352.569 368.193 352.101C368.193 351.321 368.521 350.662 369.178 350.123C369.84 349.584 370.684 349.314 371.709 349.314C372.787 349.314 373.66 349.593 374.328 350.149C375.002 350.706 375.339 351.418 375.339 352.285H373.704C373.704 351.84 373.514 351.456 373.133 351.134C372.758 350.812 372.283 350.65 371.709 350.65C371.117 350.65 370.654 350.779 370.32 351.037C369.986 351.295 369.819 351.632 369.819 352.048C369.819 352.44 369.975 352.736 370.285 352.936C370.596 353.135 371.155 353.325 371.964 353.507C372.778 353.688 373.438 353.905 373.941 354.157C374.445 354.409 374.817 354.714 375.058 355.071C375.304 355.423 375.427 355.854 375.427 356.363C375.427 357.213 375.087 357.896 374.407 358.411C373.728 358.921 372.846 359.176 371.762 359.176C371 359.176 370.326 359.041 369.74 358.771C369.154 358.502 368.694 358.127 368.36 357.646C368.032 357.16 367.868 356.636 367.868 356.073H369.494C369.523 356.618 369.74 357.052 370.145 357.374C370.555 357.69 371.094 357.849 371.762 357.849C372.377 357.849 372.869 357.726 373.238 357.479C373.613 357.228 373.801 356.894 373.801 356.478ZM379.312 359H377.686V349.49H379.312V359ZM377.554 346.968C377.554 346.704 377.633 346.481 377.791 346.3C377.955 346.118 378.195 346.027 378.512 346.027C378.828 346.027 379.068 346.118 379.232 346.3C379.396 346.481 379.479 346.704 379.479 346.968C379.479 347.231 379.396 347.451 379.232 347.627C379.068 347.803 378.828 347.891 378.512 347.891C378.195 347.891 377.955 347.803 377.791 347.627C377.633 347.451 377.554 347.231 377.554 346.968ZM384.128 347.188V349.49H385.903V350.747H384.128V356.645C384.128 357.025 384.207 357.312 384.365 357.506C384.523 357.693 384.793 357.787 385.174 357.787C385.361 357.787 385.619 357.752 385.947 357.682V359C385.52 359.117 385.104 359.176 384.699 359.176C383.973 359.176 383.425 358.956 383.056 358.517C382.687 358.077 382.502 357.453 382.502 356.645V350.747H380.771V349.49H382.502V347.188H384.128Z" fill="#121212"/>
<path d="M156.358 63.5918H152.245V75H150.566V63.5918H146.462V62.2031H156.358V63.5918ZM162.871 75C162.777 74.8125 162.701 74.4785 162.643 73.998C161.887 74.7832 160.984 75.1758 159.936 75.1758C158.998 75.1758 158.228 74.9121 157.624 74.3848C157.026 73.8516 156.728 73.1777 156.728 72.3633C156.728 71.373 157.103 70.6055 157.853 70.0605C158.608 69.5098 159.669 69.2344 161.034 69.2344H162.616V68.4873C162.616 67.9189 162.446 67.4678 162.106 67.1338C161.767 66.7939 161.266 66.624 160.604 66.624C160.023 66.624 159.537 66.7705 159.145 67.0635C158.752 67.3564 158.556 67.7109 158.556 68.127H156.921C156.921 67.6523 157.088 67.1953 157.422 66.7559C157.762 66.3105 158.219 65.959 158.793 65.7012C159.373 65.4434 160.009 65.3145 160.7 65.3145C161.796 65.3145 162.654 65.5898 163.275 66.1406C163.896 66.6855 164.219 67.4385 164.242 68.3994V72.7764C164.242 73.6494 164.354 74.3438 164.576 74.8594V75H162.871ZM160.173 73.7607C160.683 73.7607 161.166 73.6289 161.623 73.3652C162.08 73.1016 162.411 72.7588 162.616 72.3369V70.3857H161.342C159.35 70.3857 158.354 70.9688 158.354 72.1348C158.354 72.6445 158.523 73.043 158.863 73.3301C159.203 73.6172 159.64 73.7607 160.173 73.7607ZM169.445 70.5967L168.426 71.6602V75H166.8V61.5H168.426V69.665L169.296 68.6191L172.258 65.4902H174.235L170.535 69.4629L174.666 75H172.759L169.445 70.5967ZM179.685 75.1758C178.396 75.1758 177.347 74.7539 176.538 73.9102C175.729 73.0605 175.325 71.9268 175.325 70.5088V70.21C175.325 69.2666 175.504 68.4258 175.861 67.6875C176.225 66.9434 176.729 66.3633 177.373 65.9473C178.023 65.5254 178.727 65.3145 179.482 65.3145C180.719 65.3145 181.68 65.7217 182.365 66.5361C183.051 67.3506 183.394 68.5166 183.394 70.0342V70.7109H176.951C176.975 71.6484 177.247 72.4072 177.769 72.9873C178.296 73.5615 178.964 73.8486 179.772 73.8486C180.347 73.8486 180.833 73.7314 181.231 73.4971C181.63 73.2627 181.979 72.9521 182.277 72.5654L183.271 73.3389C182.474 74.5635 181.278 75.1758 179.685 75.1758ZM179.482 66.6504C178.826 66.6504 178.275 66.8906 177.83 67.3711C177.385 67.8457 177.109 68.5137 177.004 69.375H181.768V69.252C181.721 68.4258 181.498 67.7871 181.1 67.3359C180.701 66.8789 180.162 66.6504 179.482 66.6504ZM193.562 73.8486C194.143 73.8486 194.649 73.6729 195.083 73.3213C195.517 72.9697 195.757 72.5303 195.804 72.0029H197.342C197.312 72.5479 197.125 73.0664 196.779 73.5586C196.434 74.0508 195.971 74.4434 195.391 74.7363C194.816 75.0293 194.207 75.1758 193.562 75.1758C192.268 75.1758 191.236 74.7451 190.469 73.8838C189.707 73.0166 189.326 71.833 189.326 70.333V70.0605C189.326 69.1348 189.496 68.3115 189.836 67.5908C190.176 66.8701 190.662 66.3105 191.295 65.9121C191.934 65.5137 192.687 65.3145 193.554 65.3145C194.62 65.3145 195.505 65.6338 196.208 66.2725C196.917 66.9111 197.295 67.7402 197.342 68.7598H195.804C195.757 68.1445 195.522 67.6406 195.101 67.248C194.685 66.8496 194.169 66.6504 193.554 66.6504C192.728 66.6504 192.086 66.9492 191.629 67.5469C191.178 68.1387 190.952 68.9971 190.952 70.1221V70.4297C190.952 71.5254 191.178 72.3691 191.629 72.9609C192.08 73.5527 192.725 73.8486 193.562 73.8486ZM205.041 75C204.947 74.8125 204.871 74.4785 204.812 73.998C204.057 74.7832 203.154 75.1758 202.105 75.1758C201.168 75.1758 200.397 74.9121 199.794 74.3848C199.196 73.8516 198.897 73.1777 198.897 72.3633C198.897 71.373 199.272 70.6055 200.022 70.0605C200.778 69.5098 201.839 69.2344 203.204 69.2344H204.786V68.4873C204.786 67.9189 204.616 67.4678 204.276 67.1338C203.937 66.7939 203.436 66.624 202.773 66.624C202.193 66.624 201.707 66.7705 201.314 67.0635C200.922 67.3564 200.726 67.7109 200.726 68.127H199.091C199.091 67.6523 199.258 67.1953 199.592 66.7559C199.932 66.3105 200.389 65.959 200.963 65.7012C201.543 65.4434 202.179 65.3145 202.87 65.3145C203.966 65.3145 204.824 65.5898 205.445 66.1406C206.066 66.6855 206.389 67.4385 206.412 68.3994V72.7764C206.412 73.6494 206.523 74.3438 206.746 74.8594V75H205.041ZM202.343 73.7607C202.853 73.7607 203.336 73.6289 203.793 73.3652C204.25 73.1016 204.581 72.7588 204.786 72.3369V70.3857H203.512C201.52 70.3857 200.523 70.9688 200.523 72.1348C200.523 72.6445 200.693 73.043 201.033 73.3301C201.373 73.6172 201.81 73.7607 202.343 73.7607ZM213.558 66.9492C213.312 66.9082 213.045 66.8877 212.758 66.8877C211.691 66.8877 210.968 67.3418 210.587 68.25V75H208.961V65.4902H210.543L210.569 66.5889C211.103 65.7393 211.858 65.3145 212.837 65.3145C213.153 65.3145 213.394 65.3555 213.558 65.4375V66.9492ZM218.831 75.1758C217.542 75.1758 216.493 74.7539 215.685 73.9102C214.876 73.0605 214.472 71.9268 214.472 70.5088V70.21C214.472 69.2666 214.65 68.4258 215.008 67.6875C215.371 66.9434 215.875 66.3633 216.52 65.9473C217.17 65.5254 217.873 65.3145 218.629 65.3145C219.865 65.3145 220.826 65.7217 221.512 66.5361C222.197 67.3506 222.54 68.5166 222.54 70.0342V70.7109H216.098C216.121 71.6484 216.394 72.4072 216.915 72.9873C217.442 73.5615 218.11 73.8486 218.919 73.8486C219.493 73.8486 219.979 73.7314 220.378 73.4971C220.776 73.2627 221.125 72.9521 221.424 72.5654L222.417 73.3389C221.62 74.5635 220.425 75.1758 218.831 75.1758ZM218.629 66.6504C217.973 66.6504 217.422 66.8906 216.977 67.3711C216.531 67.8457 216.256 68.5137 216.15 69.375H220.914V69.252C220.867 68.4258 220.645 67.7871 220.246 67.3359C219.848 66.8789 219.309 66.6504 218.629 66.6504ZM228.464 70.1572C228.464 69.2256 228.646 68.3877 229.009 67.6436C229.378 66.8994 229.888 66.3252 230.538 65.9209C231.194 65.5166 231.941 65.3145 232.779 65.3145C234.074 65.3145 235.12 65.7627 235.917 66.6592C236.72 67.5557 237.121 68.748 237.121 70.2363V70.3506C237.121 71.2764 236.942 72.1084 236.585 72.8467C236.233 73.5791 235.727 74.1504 235.064 74.5605C234.408 74.9707 233.652 75.1758 232.797 75.1758C231.508 75.1758 230.462 74.7275 229.659 73.8311C228.862 72.9346 228.464 71.748 228.464 70.2715V70.1572ZM230.099 70.3506C230.099 71.4053 230.342 72.252 230.828 72.8906C231.32 73.5293 231.977 73.8486 232.797 73.8486C233.623 73.8486 234.279 73.5264 234.766 72.8818C235.252 72.2314 235.495 71.3232 235.495 70.1572C235.495 69.1143 235.246 68.2705 234.748 67.626C234.256 66.9756 233.6 66.6504 232.779 66.6504C231.977 66.6504 231.329 66.9697 230.837 67.6084C230.345 68.2471 230.099 69.1611 230.099 70.3506ZM239.96 75V66.7471H238.457V65.4902H239.96V64.5146C239.96 63.4951 240.232 62.707 240.777 62.1504C241.322 61.5938 242.093 61.3154 243.089 61.3154C243.464 61.3154 243.836 61.3652 244.205 61.4648L244.117 62.7832C243.842 62.7305 243.549 62.7041 243.238 62.7041C242.711 62.7041 242.304 62.8594 242.017 63.1699C241.729 63.4746 241.586 63.9141 241.586 64.4883V65.4902H243.616V66.7471H241.586V75H239.96ZM252.089 63.1875V65.4902H253.864V66.7471H252.089V72.6445C252.089 73.0254 252.168 73.3125 252.326 73.5059C252.484 73.6934 252.754 73.7871 253.135 73.7871C253.322 73.7871 253.58 73.752 253.908 73.6816V75C253.48 75.1172 253.064 75.1758 252.66 75.1758C251.934 75.1758 251.386 74.9561 251.017 74.5166C250.647 74.0771 250.463 73.4531 250.463 72.6445V66.7471H248.731V65.4902H250.463V63.1875H252.089ZM257.397 66.6416C258.118 65.7568 259.056 65.3145 260.21 65.3145C262.22 65.3145 263.233 66.4482 263.251 68.7158V75H261.625V68.707C261.619 68.0215 261.461 67.5146 261.15 67.1865C260.846 66.8584 260.368 66.6943 259.718 66.6943C259.19 66.6943 258.728 66.835 258.329 67.1162C257.931 67.3975 257.62 67.7666 257.397 68.2236V75H255.771V61.5H257.397V66.6416ZM269.632 75.1758C268.343 75.1758 267.294 74.7539 266.485 73.9102C265.677 73.0605 265.272 71.9268 265.272 70.5088V70.21C265.272 69.2666 265.451 68.4258 265.809 67.6875C266.172 66.9434 266.676 66.3633 267.32 65.9473C267.971 65.5254 268.674 65.3145 269.43 65.3145C270.666 65.3145 271.627 65.7217 272.312 66.5361C272.998 67.3506 273.341 68.5166 273.341 70.0342V70.7109H266.898C266.922 71.6484 267.194 72.4072 267.716 72.9873C268.243 73.5615 268.911 73.8486 269.72 73.8486C270.294 73.8486 270.78 73.7314 271.179 73.4971C271.577 73.2627 271.926 72.9521 272.225 72.5654L273.218 73.3389C272.421 74.5635 271.226 75.1758 269.632 75.1758ZM269.43 66.6504C268.773 66.6504 268.223 66.8906 267.777 67.3711C267.332 67.8457 267.057 68.5137 266.951 69.375H271.715V69.252C271.668 68.4258 271.445 67.7871 271.047 67.3359C270.648 66.8789 270.109 66.6504 269.43 66.6504ZM154.935 81.1875V83.4902H156.71V84.7471H154.935V90.6445C154.935 91.0254 155.014 91.3125 155.172 91.5059C155.33 91.6934 155.6 91.7871 155.98 91.7871C156.168 91.7871 156.426 91.752 156.754 91.6816V93C156.326 93.1172 155.91 93.1758 155.506 93.1758C154.779 93.1758 154.231 92.9561 153.862 92.5166C153.493 92.0771 153.309 91.4531 153.309 90.6445V84.7471H151.577V83.4902H153.309V81.1875H154.935ZM162.563 93.1758C161.274 93.1758 160.226 92.7539 159.417 91.9102C158.608 91.0605 158.204 89.9268 158.204 88.5088V88.21C158.204 87.2666 158.383 86.4258 158.74 85.6875C159.104 84.9434 159.607 84.3633 160.252 83.9473C160.902 83.5254 161.605 83.3145 162.361 83.3145C163.598 83.3145 164.559 83.7217 165.244 84.5361C165.93 85.3506 166.272 86.5166 166.272 88.0342V88.7109H159.83C159.854 89.6484 160.126 90.4072 160.647 90.9873C161.175 91.5615 161.843 91.8486 162.651 91.8486C163.226 91.8486 163.712 91.7314 164.11 91.4971C164.509 91.2627 164.857 90.9521 165.156 90.5654L166.149 91.3389C165.353 92.5635 164.157 93.1758 162.563 93.1758ZM162.361 84.6504C161.705 84.6504 161.154 84.8906 160.709 85.3711C160.264 85.8457 159.988 86.5137 159.883 87.375H164.646V87.252C164.6 86.4258 164.377 85.7871 163.979 85.3359C163.58 84.8789 163.041 84.6504 162.361 84.6504ZM174.033 93C173.939 92.8125 173.863 92.4785 173.805 91.998C173.049 92.7832 172.146 93.1758 171.098 93.1758C170.16 93.1758 169.39 92.9121 168.786 92.3848C168.188 91.8516 167.89 91.1777 167.89 90.3633C167.89 89.373 168.265 88.6055 169.015 88.0605C169.771 87.5098 170.831 87.2344 172.196 87.2344H173.778V86.4873C173.778 85.9189 173.608 85.4678 173.269 85.1338C172.929 84.7939 172.428 84.624 171.766 84.624C171.186 84.624 170.699 84.7705 170.307 85.0635C169.914 85.3564 169.718 85.7109 169.718 86.127H168.083C168.083 85.6523 168.25 85.1953 168.584 84.7559C168.924 84.3105 169.381 83.959 169.955 83.7012C170.535 83.4434 171.171 83.3145 171.862 83.3145C172.958 83.3145 173.816 83.5898 174.438 84.1406C175.059 84.6855 175.381 85.4385 175.404 86.3994V90.7764C175.404 91.6494 175.516 92.3438 175.738 92.8594V93H174.033ZM171.335 91.7607C171.845 91.7607 172.328 91.6289 172.785 91.3652C173.242 91.1016 173.573 90.7588 173.778 90.3369V88.3857H172.504C170.512 88.3857 169.516 88.9688 169.516 90.1348C169.516 90.6445 169.686 91.043 170.025 91.3301C170.365 91.6172 170.802 91.7607 171.335 91.7607ZM179.482 83.4902L179.526 84.5449C180.224 83.7246 181.164 83.3145 182.348 83.3145C183.678 83.3145 184.583 83.8242 185.063 84.8438C185.38 84.3867 185.79 84.0176 186.294 83.7363C186.804 83.4551 187.404 83.3145 188.096 83.3145C190.182 83.3145 191.242 84.4189 191.277 86.6279V93H189.651V86.7246C189.651 86.0449 189.496 85.5381 189.186 85.2041C188.875 84.8643 188.354 84.6943 187.621 84.6943C187.018 84.6943 186.517 84.876 186.118 85.2393C185.72 85.5967 185.488 86.0801 185.424 86.6895V93H183.789V86.7686C183.789 85.3857 183.112 84.6943 181.759 84.6943C180.692 84.6943 179.963 85.1484 179.57 86.0566V93H177.944V83.4902H179.482ZM193.817 80.4756L193.633 83.71H192.499L192.508 79.5H193.817V80.4756ZM200.805 90.4775C200.805 90.0381 200.638 89.6982 200.304 89.458C199.976 89.2119 199.398 89.001 198.572 88.8252C197.752 88.6494 197.099 88.4385 196.612 88.1924C196.132 87.9463 195.774 87.6533 195.54 87.3135C195.312 86.9736 195.197 86.5693 195.197 86.1006C195.197 85.3213 195.525 84.6621 196.182 84.123C196.844 83.584 197.688 83.3145 198.713 83.3145C199.791 83.3145 200.664 83.5928 201.332 84.1494C202.006 84.7061 202.343 85.418 202.343 86.2852H200.708C200.708 85.8398 200.518 85.4561 200.137 85.1338C199.762 84.8115 199.287 84.6504 198.713 84.6504C198.121 84.6504 197.658 84.7793 197.324 85.0371C196.99 85.2949 196.823 85.6318 196.823 86.0479C196.823 86.4404 196.979 86.7363 197.289 86.9355C197.6 87.1348 198.159 87.3252 198.968 87.5068C199.782 87.6885 200.441 87.9053 200.945 88.1572C201.449 88.4092 201.821 88.7139 202.062 89.0713C202.308 89.4229 202.431 89.8535 202.431 90.3633C202.431 91.2129 202.091 91.8955 201.411 92.4111C200.731 92.9209 199.85 93.1758 198.766 93.1758C198.004 93.1758 197.33 93.041 196.744 92.7715C196.158 92.502 195.698 92.127 195.364 91.6465C195.036 91.1602 194.872 90.6357 194.872 90.0732H196.498C196.527 90.6182 196.744 91.0518 197.148 91.374C197.559 91.6904 198.098 91.8486 198.766 91.8486C199.381 91.8486 199.873 91.7256 200.242 91.4795C200.617 91.2275 200.805 90.8936 200.805 90.4775ZM211.22 81.1875V83.4902H212.995V84.7471H211.22V90.6445C211.22 91.0254 211.299 91.3125 211.457 91.5059C211.615 91.6934 211.885 91.7871 212.266 91.7871C212.453 91.7871 212.711 91.752 213.039 91.6816V93C212.611 93.1172 212.195 93.1758 211.791 93.1758C211.064 93.1758 210.517 92.9561 210.147 92.5166C209.778 92.0771 209.594 91.4531 209.594 90.6445V84.7471H207.862V83.4902H209.594V81.1875H211.22ZM220.773 92.0596C220.141 92.8037 219.212 93.1758 217.987 93.1758C216.974 93.1758 216.2 92.8828 215.667 92.2969C215.14 91.7051 214.873 90.832 214.867 89.6777V83.4902H216.493V89.6338C216.493 91.0752 217.079 91.7959 218.251 91.7959C219.493 91.7959 220.319 91.333 220.729 90.4072V83.4902H222.355V93H220.809L220.773 92.0596ZM229.431 84.9492C229.185 84.9082 228.918 84.8877 228.631 84.8877C227.564 84.8877 226.841 85.3418 226.46 86.25V93H224.834V83.4902H226.416L226.442 84.5889C226.976 83.7393 227.731 83.3145 228.71 83.3145C229.026 83.3145 229.267 83.3555 229.431 83.4375V84.9492ZM232.472 83.4902L232.524 84.6855C233.251 83.7715 234.2 83.3145 235.372 83.3145C237.382 83.3145 238.396 84.4482 238.413 86.7158V93H236.787V86.707C236.781 86.0215 236.623 85.5146 236.312 85.1865C236.008 84.8584 235.53 84.6943 234.88 84.6943C234.353 84.6943 233.89 84.835 233.491 85.1162C233.093 85.3975 232.782 85.7666 232.56 86.2236V93H230.934V83.4902H232.472ZM240.435 88.1572C240.435 87.2256 240.616 86.3877 240.979 85.6436C241.349 84.8994 241.858 84.3252 242.509 83.9209C243.165 83.5166 243.912 83.3145 244.75 83.3145C246.045 83.3145 247.091 83.7627 247.888 84.6592C248.69 85.5557 249.092 86.748 249.092 88.2363V88.3506C249.092 89.2764 248.913 90.1084 248.556 90.8467C248.204 91.5791 247.697 92.1504 247.035 92.5605C246.379 92.9707 245.623 93.1758 244.768 93.1758C243.479 93.1758 242.433 92.7275 241.63 91.8311C240.833 90.9346 240.435 89.748 240.435 88.2715V88.1572ZM242.069 88.3506C242.069 89.4053 242.312 90.252 242.799 90.8906C243.291 91.5293 243.947 91.8486 244.768 91.8486C245.594 91.8486 246.25 91.5264 246.736 90.8818C247.223 90.2314 247.466 89.3232 247.466 88.1572C247.466 87.1143 247.217 86.2705 246.719 85.626C246.227 84.9756 245.57 84.6504 244.75 84.6504C243.947 84.6504 243.3 84.9697 242.808 85.6084C242.315 86.2471 242.069 87.1611 242.069 88.3506ZM254.128 90.7939L256.483 83.4902H258.145L254.734 93H253.495L250.05 83.4902H251.711L254.128 90.7939ZM263.532 93.1758C262.243 93.1758 261.194 92.7539 260.386 91.9102C259.577 91.0605 259.173 89.9268 259.173 88.5088V88.21C259.173 87.2666 259.352 86.4258 259.709 85.6875C260.072 84.9434 260.576 84.3633 261.221 83.9473C261.871 83.5254 262.574 83.3145 263.33 83.3145C264.566 83.3145 265.527 83.7217 266.213 84.5361C266.898 85.3506 267.241 86.5166 267.241 88.0342V88.7109H260.799C260.822 89.6484 261.095 90.4072 261.616 90.9873C262.144 91.5615 262.812 91.8486 263.62 91.8486C264.194 91.8486 264.681 91.7314 265.079 91.4971C265.478 91.2627 265.826 90.9521 266.125 90.5654L267.118 91.3389C266.321 92.5635 265.126 93.1758 263.532 93.1758ZM263.33 84.6504C262.674 84.6504 262.123 84.8906 261.678 85.3711C261.232 85.8457 260.957 86.5137 260.852 87.375H265.615V87.252C265.568 86.4258 265.346 85.7871 264.947 85.3359C264.549 84.8789 264.01 84.6504 263.33 84.6504ZM273.728 84.9492C273.481 84.9082 273.215 84.8877 272.928 84.8877C271.861 84.8877 271.138 85.3418 270.757 86.25V93H269.131V83.4902H270.713L270.739 84.5889C271.272 83.7393 272.028 83.3145 273.007 83.3145C273.323 83.3145 273.563 83.3555 273.728 83.4375V84.9492Z" fill="#121212"/>
<path d="M253.338 13.3213C252.904 13.9424 252.298 14.4082 251.519 14.7188C250.745 15.0234 249.843 15.1758 248.812 15.1758C247.769 15.1758 246.843 14.9326 246.034 14.4463C245.226 13.9541 244.599 13.2568 244.153 12.3545C243.714 11.4521 243.488 10.4062 243.477 9.2168V8.10059C243.477 6.17285 243.925 4.67871 244.821 3.61816C245.724 2.55762 246.989 2.02734 248.618 2.02734C249.954 2.02734 251.029 2.37012 251.844 3.05566C252.658 3.73535 253.156 4.70215 253.338 5.95605H251.65C251.334 4.2627 250.326 3.41602 248.627 3.41602C247.496 3.41602 246.638 3.81445 246.052 4.61133C245.472 5.40234 245.179 6.55078 245.173 8.05664V9.10254C245.173 10.5381 245.501 11.6807 246.157 12.5303C246.813 13.374 247.701 13.7959 248.82 13.7959C249.453 13.7959 250.007 13.7256 250.481 13.585C250.956 13.4443 251.349 13.207 251.659 12.873V9.99902H248.697V8.62793H253.338V13.3213ZM257.671 15H256.045V5.49023H257.671V15ZM255.913 2.96777C255.913 2.7041 255.992 2.48145 256.15 2.2998C256.314 2.11816 256.555 2.02734 256.871 2.02734C257.188 2.02734 257.428 2.11816 257.592 2.2998C257.756 2.48145 257.838 2.7041 257.838 2.96777C257.838 3.23145 257.756 3.45117 257.592 3.62695C257.428 3.80273 257.188 3.89062 256.871 3.89062C256.555 3.89062 256.314 3.80273 256.15 3.62695C255.992 3.45117 255.913 3.23145 255.913 2.96777ZM263.419 12.7939L265.774 5.49023H267.436L264.025 15H262.786L259.341 5.49023H261.002L263.419 12.7939ZM272.823 15.1758C271.534 15.1758 270.485 14.7539 269.677 13.9102C268.868 13.0605 268.464 11.9268 268.464 10.5088V10.21C268.464 9.2666 268.643 8.42578 269 7.6875C269.363 6.94336 269.867 6.36328 270.512 5.94727C271.162 5.52539 271.865 5.31445 272.621 5.31445C273.857 5.31445 274.818 5.72168 275.504 6.53613C276.189 7.35059 276.532 8.5166 276.532 10.0342V10.7109H270.09C270.113 11.6484 270.386 12.4072 270.907 12.9873C271.435 13.5615 272.103 13.8486 272.911 13.8486C273.485 13.8486 273.972 13.7314 274.37 13.4971C274.769 13.2627 275.117 12.9521 275.416 12.5654L276.409 13.3389C275.612 14.5635 274.417 15.1758 272.823 15.1758ZM272.621 6.65039C271.965 6.65039 271.414 6.89062 270.969 7.37109C270.523 7.8457 270.248 8.51367 270.143 9.375H274.906V9.25195C274.859 8.42578 274.637 7.78711 274.238 7.33594C273.84 6.87891 273.301 6.65039 272.621 6.65039ZM290.938 10.3506C290.938 11.8037 290.604 12.9727 289.936 13.8574C289.268 14.7363 288.371 15.1758 287.246 15.1758C286.045 15.1758 285.116 14.751 284.46 13.9014L284.381 15H282.887V1.5H284.513V6.53613C285.169 5.72168 286.074 5.31445 287.229 5.31445C288.383 5.31445 289.288 5.75098 289.944 6.62402C290.606 7.49707 290.938 8.69238 290.938 10.21V10.3506ZM289.312 10.166C289.312 9.05859 289.098 8.20312 288.67 7.59961C288.242 6.99609 287.627 6.69434 286.824 6.69434C285.752 6.69434 284.981 7.19238 284.513 8.18848V12.3018C285.011 13.2979 285.787 13.7959 286.842 13.7959C287.621 13.7959 288.228 13.4941 288.661 12.8906C289.095 12.2871 289.312 11.3789 289.312 10.166ZM292.563 10.1572C292.563 9.22559 292.745 8.3877 293.108 7.64355C293.478 6.89941 293.987 6.3252 294.638 5.9209C295.294 5.5166 296.041 5.31445 296.879 5.31445C298.174 5.31445 299.22 5.7627 300.017 6.65918C300.819 7.55566 301.221 8.74805 301.221 10.2363V10.3506C301.221 11.2764 301.042 12.1084 300.685 12.8467C300.333 13.5791 299.826 14.1504 299.164 14.5605C298.508 14.9707 297.752 15.1758 296.896 15.1758C295.607 15.1758 294.562 14.7275 293.759 13.8311C292.962 12.9346 292.563 11.748 292.563 10.2715V10.1572ZM294.198 10.3506C294.198 11.4053 294.441 12.252 294.928 12.8906C295.42 13.5293 296.076 13.8486 296.896 13.8486C297.723 13.8486 298.379 13.5264 298.865 12.8818C299.352 12.2314 299.595 11.3232 299.595 10.1572C299.595 9.11426 299.346 8.27051 298.848 7.62598C298.355 6.97559 297.699 6.65039 296.879 6.65039C296.076 6.65039 295.429 6.96973 294.937 7.6084C294.444 8.24707 294.198 9.16113 294.198 10.3506ZM304.798 5.49023L304.851 6.68555C305.577 5.77148 306.526 5.31445 307.698 5.31445C309.708 5.31445 310.722 6.44824 310.739 8.71582V15H309.113V8.70703C309.107 8.02148 308.949 7.51465 308.639 7.18652C308.334 6.8584 307.856 6.69434 307.206 6.69434C306.679 6.69434 306.216 6.83496 305.817 7.11621C305.419 7.39746 305.108 7.7666 304.886 8.22363V15H303.26V5.49023H304.798ZM319.062 14.0596C318.43 14.8037 317.501 15.1758 316.276 15.1758C315.263 15.1758 314.489 14.8828 313.956 14.2969C313.429 13.7051 313.162 12.832 313.156 11.6777V5.49023H314.782V11.6338C314.782 13.0752 315.368 13.7959 316.54 13.7959C317.782 13.7959 318.608 13.333 319.019 12.4072V5.49023H320.645V15H319.098L319.062 14.0596ZM328.66 12.4775C328.66 12.0381 328.493 11.6982 328.159 11.458C327.831 11.2119 327.254 11.001 326.428 10.8252C325.607 10.6494 324.954 10.4385 324.468 10.1924C323.987 9.94629 323.63 9.65332 323.396 9.31348C323.167 8.97363 323.053 8.56934 323.053 8.10059C323.053 7.32129 323.381 6.66211 324.037 6.12305C324.699 5.58398 325.543 5.31445 326.568 5.31445C327.646 5.31445 328.52 5.59277 329.188 6.14941C329.861 6.70605 330.198 7.41797 330.198 8.28516H328.563C328.563 7.83984 328.373 7.45605 327.992 7.13379C327.617 6.81152 327.143 6.65039 326.568 6.65039C325.977 6.65039 325.514 6.7793 325.18 7.03711C324.846 7.29492 324.679 7.63184 324.679 8.04785C324.679 8.44043 324.834 8.73633 325.145 8.93555C325.455 9.13477 326.015 9.3252 326.823 9.50684C327.638 9.68848 328.297 9.90527 328.801 10.1572C329.305 10.4092 329.677 10.7139 329.917 11.0713C330.163 11.4229 330.286 11.8535 330.286 12.3633C330.286 13.2129 329.946 13.8955 329.267 14.4111C328.587 14.9209 327.705 15.1758 326.621 15.1758C325.859 15.1758 325.186 15.041 324.6 14.7715C324.014 14.502 323.554 14.127 323.22 13.6465C322.892 13.1602 322.728 12.6357 322.728 12.0732H324.354C324.383 12.6182 324.6 13.0518 325.004 13.374C325.414 13.6904 325.953 13.8486 326.621 13.8486C327.236 13.8486 327.729 13.7256 328.098 13.4795C328.473 13.2275 328.66 12.8936 328.66 12.4775ZM336.351 15.1758C335.062 15.1758 334.013 14.7539 333.204 13.9102C332.396 13.0605 331.991 11.9268 331.991 10.5088V10.21C331.991 9.2666 332.17 8.42578 332.527 7.6875C332.891 6.94336 333.395 6.36328 334.039 5.94727C334.689 5.52539 335.393 5.31445 336.148 5.31445C337.385 5.31445 338.346 5.72168 339.031 6.53613C339.717 7.35059 340.06 8.5166 340.06 10.0342V10.7109H333.617C333.641 11.6484 333.913 12.4072 334.435 12.9873C334.962 13.5615 335.63 13.8486 336.438 13.8486C337.013 13.8486 337.499 13.7314 337.897 13.4971C338.296 13.2627 338.645 12.9521 338.943 12.5654L339.937 13.3389C339.14 14.5635 337.944 15.1758 336.351 15.1758ZM336.148 6.65039C335.492 6.65039 334.941 6.89062 334.496 7.37109C334.051 7.8457 333.775 8.51367 333.67 9.375H338.434V9.25195C338.387 8.42578 338.164 7.78711 337.766 7.33594C337.367 6.87891 336.828 6.65039 336.148 6.65039ZM347.486 12.4775C347.486 12.0381 347.319 11.6982 346.985 11.458C346.657 11.2119 346.08 11.001 345.254 10.8252C344.434 10.6494 343.78 10.4385 343.294 10.1924C342.813 9.94629 342.456 9.65332 342.222 9.31348C341.993 8.97363 341.879 8.56934 341.879 8.10059C341.879 7.32129 342.207 6.66211 342.863 6.12305C343.525 5.58398 344.369 5.31445 345.395 5.31445C346.473 5.31445 347.346 5.59277 348.014 6.14941C348.688 6.70605 349.024 7.41797 349.024 8.28516H347.39C347.39 7.83984 347.199 7.45605 346.818 7.13379C346.443 6.81152 345.969 6.65039 345.395 6.65039C344.803 6.65039 344.34 6.7793 344.006 7.03711C343.672 7.29492 343.505 7.63184 343.505 8.04785C343.505 8.44043 343.66 8.73633 343.971 8.93555C344.281 9.13477 344.841 9.3252 345.649 9.50684C346.464 9.68848 347.123 9.90527 347.627 10.1572C348.131 10.4092 348.503 10.7139 348.743 11.0713C348.989 11.4229 349.112 11.8535 349.112 12.3633C349.112 13.2129 348.772 13.8955 348.093 14.4111C347.413 14.9209 346.531 15.1758 345.447 15.1758C344.686 15.1758 344.012 15.041 343.426 14.7715C342.84 14.502 342.38 14.127 342.046 13.6465C341.718 13.1602 341.554 12.6357 341.554 12.0732H343.18C343.209 12.6182 343.426 13.0518 343.83 13.374C344.24 13.6904 344.779 13.8486 345.447 13.8486C346.062 13.8486 346.555 13.7256 346.924 13.4795C347.299 13.2275 347.486 12.8936 347.486 12.4775ZM226.663 21.1875V23.4902H228.438V24.7471H226.663V30.6445C226.663 31.0254 226.742 31.3125 226.9 31.5059C227.059 31.6934 227.328 31.7871 227.709 31.7871C227.896 31.7871 228.154 31.752 228.482 31.6816V33C228.055 33.1172 227.639 33.1758 227.234 33.1758C226.508 33.1758 225.96 32.9561 225.591 32.5166C225.222 32.0771 225.037 31.4531 225.037 30.6445V24.7471H223.306V23.4902H225.037V21.1875H226.663ZM229.739 28.1572C229.739 27.2256 229.921 26.3877 230.284 25.6436C230.653 24.8994 231.163 24.3252 231.813 23.9209C232.47 23.5166 233.217 23.3145 234.055 23.3145C235.35 23.3145 236.396 23.7627 237.192 24.6592C237.995 25.5557 238.396 26.748 238.396 28.2363V28.3506C238.396 29.2764 238.218 30.1084 237.86 30.8467C237.509 31.5791 237.002 32.1504 236.34 32.5605C235.684 32.9707 234.928 33.1758 234.072 33.1758C232.783 33.1758 231.737 32.7275 230.935 31.8311C230.138 30.9346 229.739 29.748 229.739 28.2715V28.1572ZM231.374 28.3506C231.374 29.4053 231.617 30.252 232.104 30.8906C232.596 31.5293 233.252 31.8486 234.072 31.8486C234.898 31.8486 235.555 31.5264 236.041 30.8818C236.527 30.2314 236.771 29.3232 236.771 28.1572C236.771 27.1143 236.521 26.2705 236.023 25.626C235.531 24.9756 234.875 24.6504 234.055 24.6504C233.252 24.6504 232.604 24.9697 232.112 25.6084C231.62 26.2471 231.374 27.1611 231.374 28.3506ZM248.012 30.6182L250.227 23.4902H251.967L248.144 34.4678C247.552 36.0498 246.611 36.8408 245.322 36.8408L245.015 36.8145L244.408 36.7002V35.3818L244.848 35.417C245.398 35.417 245.826 35.3057 246.131 35.083C246.441 34.8604 246.696 34.4531 246.896 33.8613L247.256 32.8945L243.863 23.4902H245.639L248.012 30.6182ZM252.854 28.1572C252.854 27.2256 253.036 26.3877 253.399 25.6436C253.769 24.8994 254.278 24.3252 254.929 23.9209C255.585 23.5166 256.332 23.3145 257.17 23.3145C258.465 23.3145 259.511 23.7627 260.308 24.6592C261.11 25.5557 261.512 26.748 261.512 28.2363V28.3506C261.512 29.2764 261.333 30.1084 260.976 30.8467C260.624 31.5791 260.117 32.1504 259.455 32.5605C258.799 32.9707 258.043 33.1758 257.188 33.1758C255.898 33.1758 254.853 32.7275 254.05 31.8311C253.253 30.9346 252.854 29.748 252.854 28.2715V28.1572ZM254.489 28.3506C254.489 29.4053 254.732 30.252 255.219 30.8906C255.711 31.5293 256.367 31.8486 257.188 31.8486C258.014 31.8486 258.67 31.5264 259.156 30.8818C259.643 30.2314 259.886 29.3232 259.886 28.1572C259.886 27.1143 259.637 26.2705 259.139 25.626C258.646 24.9756 257.99 24.6504 257.17 24.6504C256.367 24.6504 255.72 24.9697 255.228 25.6084C254.735 26.2471 254.489 27.1611 254.489 28.3506ZM269.422 32.0596C268.789 32.8037 267.86 33.1758 266.636 33.1758C265.622 33.1758 264.849 32.8828 264.315 32.2969C263.788 31.7051 263.521 30.832 263.516 29.6777V23.4902H265.142V29.6338C265.142 31.0752 265.728 31.7959 266.899 31.7959C268.142 31.7959 268.968 31.333 269.378 30.4072V23.4902H271.004V33H269.457L269.422 32.0596ZM278.079 24.9492C277.833 24.9082 277.566 24.8877 277.279 24.8877C276.213 24.8877 275.489 25.3418 275.108 26.25V33H273.482V23.4902H275.064L275.091 24.5889C275.624 23.7393 276.38 23.3145 277.358 23.3145C277.675 23.3145 277.915 23.3555 278.079 23.4375V24.9492ZM292.08 28.3506C292.08 29.7979 291.749 30.9639 291.087 31.8486C290.425 32.7334 289.528 33.1758 288.397 33.1758C287.243 33.1758 286.335 32.8096 285.673 32.0771V36.6562H284.047V23.4902H285.532L285.611 24.5449C286.273 23.7246 287.193 23.3145 288.371 23.3145C289.514 23.3145 290.416 23.7451 291.078 24.6064C291.746 25.4678 292.08 26.666 292.08 28.2012V28.3506ZM290.454 28.166C290.454 27.0938 290.226 26.2471 289.769 25.626C289.312 25.0049 288.685 24.6943 287.888 24.6943C286.903 24.6943 286.165 25.1309 285.673 26.0039V30.5479C286.159 31.415 286.903 31.8486 287.905 31.8486C288.685 31.8486 289.303 31.541 289.76 30.9258C290.223 30.3047 290.454 29.3848 290.454 28.166ZM300.025 33C299.932 32.8125 299.855 32.4785 299.797 31.998C299.041 32.7832 298.139 33.1758 297.09 33.1758C296.152 33.1758 295.382 32.9121 294.778 32.3848C294.181 31.8516 293.882 31.1777 293.882 30.3633C293.882 29.373 294.257 28.6055 295.007 28.0605C295.763 27.5098 296.823 27.2344 298.188 27.2344H299.771V26.4873C299.771 25.9189 299.601 25.4678 299.261 25.1338C298.921 24.7939 298.42 24.624 297.758 24.624C297.178 24.624 296.691 24.7705 296.299 25.0635C295.906 25.3564 295.71 25.7109 295.71 26.127H294.075C294.075 25.6523 294.242 25.1953 294.576 24.7559C294.916 24.3105 295.373 23.959 295.947 23.7012C296.527 23.4434 297.163 23.3145 297.854 23.3145C298.95 23.3145 299.809 23.5898 300.43 24.1406C301.051 24.6855 301.373 25.4385 301.396 26.3994V30.7764C301.396 31.6494 301.508 32.3438 301.73 32.8594V33H300.025ZM297.327 31.7607C297.837 31.7607 298.32 31.6289 298.777 31.3652C299.234 31.1016 299.565 30.7588 299.771 30.3369V28.3857H298.496C296.504 28.3857 295.508 28.9688 295.508 30.1348C295.508 30.6445 295.678 31.043 296.018 31.3301C296.357 31.6172 296.794 31.7607 297.327 31.7607ZM308.542 24.9492C308.296 24.9082 308.029 24.8877 307.742 24.8877C306.676 24.8877 305.952 25.3418 305.571 26.25V33H303.945V23.4902H305.527L305.554 24.5889C306.087 23.7393 306.843 23.3145 307.821 23.3145C308.138 23.3145 308.378 23.3555 308.542 23.4375V24.9492ZM312.69 21.1875V23.4902H314.466V24.7471H312.69V30.6445C312.69 31.0254 312.77 31.3125 312.928 31.5059C313.086 31.6934 313.355 31.7871 313.736 31.7871C313.924 31.7871 314.182 31.752 314.51 31.6816V33C314.082 33.1172 313.666 33.1758 313.262 33.1758C312.535 33.1758 311.987 32.9561 311.618 32.5166C311.249 32.0771 311.064 31.4531 311.064 30.6445V24.7471H309.333V23.4902H311.064V21.1875H312.69ZM317.911 23.4902L317.964 24.6855C318.69 23.7715 319.64 23.3145 320.812 23.3145C322.821 23.3145 323.835 24.4482 323.853 26.7158V33H322.227V26.707C322.221 26.0215 322.062 25.5146 321.752 25.1865C321.447 24.8584 320.97 24.6943 320.319 24.6943C319.792 24.6943 319.329 24.835 318.931 25.1162C318.532 25.3975 318.222 25.7666 317.999 26.2236V33H316.373V23.4902H317.911ZM330.251 33.1758C328.962 33.1758 327.913 32.7539 327.104 31.9102C326.296 31.0605 325.892 29.9268 325.892 28.5088V28.21C325.892 27.2666 326.07 26.4258 326.428 25.6875C326.791 24.9434 327.295 24.3633 327.939 23.9473C328.59 23.5254 329.293 23.3145 330.049 23.3145C331.285 23.3145 332.246 23.7217 332.932 24.5361C333.617 25.3506 333.96 26.5166 333.96 28.0342V28.7109H327.518C327.541 29.6484 327.813 30.4072 328.335 30.9873C328.862 31.5615 329.53 31.8486 330.339 31.8486C330.913 31.8486 331.399 31.7314 331.798 31.4971C332.196 31.2627 332.545 30.9521 332.844 30.5654L333.837 31.3389C333.04 32.5635 331.845 33.1758 330.251 33.1758ZM330.049 24.6504C329.393 24.6504 328.842 24.8906 328.396 25.3711C327.951 25.8457 327.676 26.5137 327.57 27.375H332.334V27.252C332.287 26.4258 332.064 25.7871 331.666 25.3359C331.268 24.8789 330.729 24.6504 330.049 24.6504ZM340.446 24.9492C340.2 24.9082 339.934 24.8877 339.646 24.8877C338.58 24.8877 337.856 25.3418 337.476 26.25V33H335.85V23.4902H337.432L337.458 24.5889C337.991 23.7393 338.747 23.3145 339.726 23.3145C340.042 23.3145 340.282 23.3555 340.446 23.4375V24.9492ZM347.486 30.4775C347.486 30.0381 347.319 29.6982 346.985 29.458C346.657 29.2119 346.08 29.001 345.254 28.8252C344.434 28.6494 343.78 28.4385 343.294 28.1924C342.813 27.9463 342.456 27.6533 342.222 27.3135C341.993 26.9736 341.879 26.5693 341.879 26.1006C341.879 25.3213 342.207 24.6621 342.863 24.123C343.525 23.584 344.369 23.3145 345.395 23.3145C346.473 23.3145 347.346 23.5928 348.014 24.1494C348.688 24.7061 349.024 25.418 349.024 26.2852H347.39C347.39 25.8398 347.199 25.4561 346.818 25.1338C346.443 24.8115 345.969 24.6504 345.395 24.6504C344.803 24.6504 344.34 24.7793 344.006 25.0371C343.672 25.2949 343.505 25.6318 343.505 26.0479C343.505 26.4404 343.66 26.7363 343.971 26.9355C344.281 27.1348 344.841 27.3252 345.649 27.5068C346.464 27.6885 347.123 27.9053 347.627 28.1572C348.131 28.4092 348.503 28.7139 348.743 29.0713C348.989 29.4229 349.112 29.8535 349.112 30.3633C349.112 31.2129 348.772 31.8955 348.093 32.4111C347.413 32.9209 346.531 33.1758 345.447 33.1758C344.686 33.1758 344.012 33.041 343.426 32.7715C342.84 32.502 342.38 32.127 342.046 31.6465C341.718 31.1602 341.554 30.6357 341.554 30.0732H343.18C343.209 30.6182 343.426 31.0518 343.83 31.374C344.24 31.6904 344.779 31.8486 345.447 31.8486C346.062 31.8486 346.555 31.7256 346.924 31.4795C347.299 31.2275 347.486 30.8936 347.486 30.4775Z" fill="#121212"/>
<path d="M80.5928 389V376.203H85.0752C86.6279 376.203 87.8057 376.502 88.6084 377.1C89.4111 377.691 89.8125 378.562 89.8125 379.71C89.8125 380.337 89.6514 380.891 89.3291 381.371C89.0068 381.846 88.5586 382.194 87.9844 382.417C88.6406 382.581 89.1562 382.912 89.5312 383.41C89.9121 383.908 90.1025 384.518 90.1025 385.238C90.1025 386.469 89.71 387.4 88.9248 388.033C88.1396 388.666 87.0205 388.988 85.5674 389H80.5928ZM83.2295 383.428V386.882H85.4883C86.1094 386.882 86.5928 386.735 86.9385 386.442C87.29 386.144 87.4658 385.733 87.4658 385.212C87.4658 384.04 86.8594 383.445 85.6465 383.428H83.2295ZM83.2295 381.564H85.1807C86.5107 381.541 87.1758 381.011 87.1758 379.974C87.1758 379.394 87.0059 378.978 86.666 378.726C86.332 378.468 85.8018 378.339 85.0752 378.339H83.2295V381.564ZM91.5264 384.157C91.5264 383.214 91.708 382.373 92.0713 381.635C92.4346 380.896 92.9561 380.325 93.6357 379.921C94.3213 379.517 95.1152 379.314 96.0176 379.314C97.3008 379.314 98.3467 379.707 99.1553 380.492C99.9697 381.277 100.424 382.344 100.518 383.691L100.535 384.342C100.535 385.801 100.128 386.973 99.3135 387.857C98.499 388.736 97.4062 389.176 96.0352 389.176C94.6641 389.176 93.5684 388.736 92.748 387.857C91.9336 386.979 91.5264 385.783 91.5264 384.271V384.157ZM94.0664 384.342C94.0664 385.244 94.2363 385.936 94.5762 386.416C94.916 386.891 95.4023 387.128 96.0352 387.128C96.6504 387.128 97.1309 386.894 97.4766 386.425C97.8223 385.95 97.9951 385.194 97.9951 384.157C97.9951 383.272 97.8223 382.587 97.4766 382.101C97.1309 381.614 96.6445 381.371 96.0176 381.371C95.3965 381.371 94.916 381.614 94.5762 382.101C94.2363 382.581 94.0664 383.328 94.0664 384.342ZM104.438 379.49L104.517 380.589C105.196 379.739 106.107 379.314 107.25 379.314C108.258 379.314 109.008 379.61 109.5 380.202C109.992 380.794 110.244 381.679 110.256 382.856V389H107.716V382.918C107.716 382.379 107.599 381.989 107.364 381.749C107.13 381.503 106.74 381.38 106.195 381.38C105.48 381.38 104.944 381.685 104.587 382.294V389H102.047V379.49H104.438ZM117.885 388.033C117.258 388.795 116.391 389.176 115.283 389.176C114.264 389.176 113.484 388.883 112.945 388.297C112.412 387.711 112.14 386.853 112.128 385.722V379.49H114.668V385.634C114.668 386.624 115.119 387.119 116.021 387.119C116.883 387.119 117.475 386.82 117.797 386.223V379.49H120.346V389H117.955L117.885 388.033ZM127.412 386.372C127.412 386.062 127.257 385.818 126.946 385.643C126.642 385.461 126.149 385.3 125.47 385.159C123.208 384.685 122.077 383.724 122.077 382.276C122.077 381.433 122.426 380.729 123.123 380.167C123.826 379.599 124.743 379.314 125.874 379.314C127.081 379.314 128.045 379.599 128.766 380.167C129.492 380.735 129.855 381.474 129.855 382.382H127.315C127.315 382.019 127.198 381.72 126.964 381.485C126.729 381.245 126.363 381.125 125.865 381.125C125.438 381.125 125.106 381.222 124.872 381.415C124.638 381.608 124.521 381.854 124.521 382.153C124.521 382.435 124.652 382.663 124.916 382.839C125.186 383.009 125.637 383.158 126.27 383.287C126.902 383.41 127.436 383.551 127.869 383.709C129.211 384.201 129.882 385.054 129.882 386.267C129.882 387.134 129.51 387.837 128.766 388.376C128.021 388.909 127.061 389.176 125.883 389.176C125.086 389.176 124.377 389.035 123.756 388.754C123.141 388.467 122.657 388.077 122.306 387.585C121.954 387.087 121.778 386.551 121.778 385.977H124.187C124.21 386.428 124.377 386.773 124.688 387.014C124.998 387.254 125.414 387.374 125.936 387.374C126.422 387.374 126.788 387.283 127.034 387.102C127.286 386.914 127.412 386.671 127.412 386.372Z" fill="white"/>
<path d="M145.196 359V346.203H149.134C150.259 346.203 151.264 346.458 152.148 346.968C153.039 347.472 153.733 348.192 154.231 349.13C154.729 350.062 154.979 351.122 154.979 352.312V352.9C154.979 354.09 154.732 355.147 154.24 356.073C153.754 356.999 153.065 357.717 152.175 358.227C151.284 358.736 150.279 358.994 149.16 359H145.196ZM147.833 348.339V356.882H149.107C150.139 356.882 150.927 356.545 151.472 355.871C152.017 355.197 152.295 354.233 152.307 352.979V352.303C152.307 351.002 152.037 350.018 151.498 349.35C150.959 348.676 150.171 348.339 149.134 348.339H147.833ZM161.113 359.176C159.719 359.176 158.582 358.748 157.703 357.893C156.83 357.037 156.394 355.897 156.394 354.474V354.228C156.394 353.272 156.578 352.42 156.947 351.67C157.316 350.914 157.838 350.334 158.512 349.93C159.191 349.52 159.965 349.314 160.832 349.314C162.133 349.314 163.155 349.725 163.899 350.545C164.649 351.365 165.024 352.528 165.024 354.034V355.071H158.969C159.051 355.692 159.297 356.19 159.707 356.565C160.123 356.94 160.647 357.128 161.28 357.128C162.259 357.128 163.023 356.773 163.574 356.064L164.822 357.462C164.441 358.001 163.926 358.423 163.275 358.728C162.625 359.026 161.904 359.176 161.113 359.176ZM160.823 351.371C160.319 351.371 159.909 351.541 159.593 351.881C159.282 352.221 159.083 352.707 158.995 353.34H162.528V353.138C162.517 352.575 162.364 352.142 162.071 351.837C161.778 351.526 161.362 351.371 160.823 351.371ZM175.035 354.333C175.035 355.798 174.701 356.973 174.033 357.857C173.371 358.736 172.475 359.176 171.344 359.176C170.383 359.176 169.606 358.842 169.015 358.174V362.656H166.475V349.49H168.83L168.918 350.422C169.533 349.684 170.336 349.314 171.326 349.314C172.498 349.314 173.409 349.748 174.06 350.615C174.71 351.482 175.035 352.678 175.035 354.201V354.333ZM172.495 354.148C172.495 353.264 172.337 352.581 172.021 352.101C171.71 351.62 171.256 351.38 170.658 351.38C169.861 351.38 169.313 351.685 169.015 352.294V356.188C169.325 356.814 169.879 357.128 170.676 357.128C171.889 357.128 172.495 356.135 172.495 354.148ZM176.222 354.157C176.222 353.214 176.403 352.373 176.767 351.635C177.13 350.896 177.651 350.325 178.331 349.921C179.017 349.517 179.811 349.314 180.713 349.314C181.996 349.314 183.042 349.707 183.851 350.492C184.665 351.277 185.119 352.344 185.213 353.691L185.23 354.342C185.23 355.801 184.823 356.973 184.009 357.857C183.194 358.736 182.102 359.176 180.73 359.176C179.359 359.176 178.264 358.736 177.443 357.857C176.629 356.979 176.222 355.783 176.222 354.271V354.157ZM178.762 354.342C178.762 355.244 178.932 355.936 179.271 356.416C179.611 356.891 180.098 357.128 180.73 357.128C181.346 357.128 181.826 356.894 182.172 356.425C182.518 355.95 182.69 355.194 182.69 354.157C182.69 353.272 182.518 352.587 182.172 352.101C181.826 351.614 181.34 351.371 180.713 351.371C180.092 351.371 179.611 351.614 179.271 352.101C178.932 352.581 178.762 353.328 178.762 354.342ZM191.945 356.372C191.945 356.062 191.79 355.818 191.479 355.643C191.175 355.461 190.683 355.3 190.003 355.159C187.741 354.685 186.61 353.724 186.61 352.276C186.61 351.433 186.959 350.729 187.656 350.167C188.359 349.599 189.276 349.314 190.407 349.314C191.614 349.314 192.578 349.599 193.299 350.167C194.025 350.735 194.389 351.474 194.389 352.382H191.849C191.849 352.019 191.731 351.72 191.497 351.485C191.263 351.245 190.896 351.125 190.398 351.125C189.971 351.125 189.64 351.222 189.405 351.415C189.171 351.608 189.054 351.854 189.054 352.153C189.054 352.435 189.186 352.663 189.449 352.839C189.719 353.009 190.17 353.158 190.803 353.287C191.436 353.41 191.969 353.551 192.402 353.709C193.744 354.201 194.415 355.054 194.415 356.267C194.415 357.134 194.043 357.837 193.299 358.376C192.555 358.909 191.594 359.176 190.416 359.176C189.619 359.176 188.91 359.035 188.289 358.754C187.674 358.467 187.19 358.077 186.839 357.585C186.487 357.087 186.312 356.551 186.312 355.977H188.72C188.743 356.428 188.91 356.773 189.221 357.014C189.531 357.254 189.947 357.374 190.469 357.374C190.955 357.374 191.321 357.283 191.567 357.102C191.819 356.914 191.945 356.671 191.945 356.372ZM198.739 359H196.19V349.49H198.739V359ZM196.041 347.029C196.041 346.648 196.167 346.335 196.419 346.089C196.677 345.843 197.025 345.72 197.465 345.72C197.898 345.72 198.244 345.843 198.502 346.089C198.76 346.335 198.889 346.648 198.889 347.029C198.889 347.416 198.757 347.732 198.493 347.979C198.235 348.225 197.893 348.348 197.465 348.348C197.037 348.348 196.691 348.225 196.428 347.979C196.17 347.732 196.041 347.416 196.041 347.029ZM203.881 347.152V349.49H205.507V351.354H203.881V356.1C203.881 356.451 203.948 356.703 204.083 356.855C204.218 357.008 204.476 357.084 204.856 357.084C205.138 357.084 205.387 357.063 205.604 357.022V358.947C205.105 359.1 204.593 359.176 204.065 359.176C202.284 359.176 201.376 358.276 201.341 356.478V351.354H199.952V349.49H201.341V347.152H203.881Z" fill="white"/>
<path d="M234.93 304.523H231.445V314H229.102V304.523H225.664V302.625H234.93V304.523ZM239.312 314.156C238.073 314.156 237.062 313.776 236.281 313.016C235.505 312.255 235.117 311.242 235.117 309.977V309.758C235.117 308.909 235.281 308.151 235.609 307.484C235.938 306.812 236.401 306.297 237 305.938C237.604 305.573 238.292 305.391 239.062 305.391C240.219 305.391 241.128 305.755 241.789 306.484C242.456 307.214 242.789 308.247 242.789 309.586V310.508H237.406C237.479 311.06 237.698 311.503 238.062 311.836C238.432 312.169 238.898 312.336 239.461 312.336C240.331 312.336 241.01 312.021 241.5 311.391L242.609 312.633C242.271 313.112 241.812 313.487 241.234 313.758C240.656 314.023 240.016 314.156 239.312 314.156ZM239.055 307.219C238.607 307.219 238.242 307.37 237.961 307.672C237.685 307.974 237.508 308.406 237.43 308.969H240.57V308.789C240.56 308.289 240.424 307.904 240.164 307.633C239.904 307.357 239.534 307.219 239.055 307.219ZM248.977 314C248.872 313.797 248.797 313.544 248.75 313.242C248.203 313.852 247.492 314.156 246.617 314.156C245.789 314.156 245.102 313.917 244.555 313.438C244.013 312.958 243.742 312.354 243.742 311.625C243.742 310.729 244.073 310.042 244.734 309.562C245.401 309.083 246.362 308.841 247.617 308.836H248.656V308.352C248.656 307.961 248.555 307.648 248.352 307.414C248.154 307.18 247.839 307.062 247.406 307.062C247.026 307.062 246.727 307.154 246.508 307.336C246.294 307.518 246.188 307.768 246.188 308.086H243.93C243.93 307.596 244.081 307.143 244.383 306.727C244.685 306.31 245.112 305.984 245.664 305.75C246.216 305.51 246.836 305.391 247.523 305.391C248.565 305.391 249.391 305.654 250 306.18C250.615 306.701 250.922 307.435 250.922 308.383V312.047C250.927 312.849 251.039 313.456 251.258 313.867V314H248.977ZM247.109 312.43C247.443 312.43 247.75 312.357 248.031 312.211C248.312 312.06 248.521 311.859 248.656 311.609V310.156H247.812C246.682 310.156 246.081 310.547 246.008 311.328L246 311.461C246 311.742 246.099 311.974 246.297 312.156C246.495 312.339 246.766 312.43 247.109 312.43ZM254.773 305.547L254.844 306.492C255.443 305.758 256.253 305.391 257.273 305.391C258.362 305.391 259.109 305.82 259.516 306.68C260.109 305.82 260.956 305.391 262.055 305.391C262.971 305.391 263.654 305.659 264.102 306.195C264.549 306.727 264.773 307.529 264.773 308.602V314H262.508V308.609C262.508 308.13 262.414 307.781 262.227 307.562C262.039 307.339 261.708 307.227 261.234 307.227C260.557 307.227 260.089 307.549 259.828 308.195L259.836 314H257.578V308.617C257.578 308.128 257.482 307.773 257.289 307.555C257.096 307.336 256.768 307.227 256.305 307.227C255.664 307.227 255.201 307.492 254.914 308.023V314H252.656V305.547H254.773ZM218.781 319.469V321.547H220.227V323.203H218.781V327.422C218.781 327.734 218.841 327.958 218.961 328.094C219.081 328.229 219.31 328.297 219.648 328.297C219.898 328.297 220.12 328.279 220.312 328.242V329.953C219.87 330.089 219.414 330.156 218.945 330.156C217.362 330.156 216.555 329.357 216.523 327.758V323.203H215.289V321.547H216.523V319.469H218.781ZM226.547 329.141C225.99 329.818 225.219 330.156 224.234 330.156C223.328 330.156 222.635 329.896 222.156 329.375C221.682 328.854 221.44 328.091 221.43 327.086V321.547H223.688V327.008C223.688 327.888 224.089 328.328 224.891 328.328C225.656 328.328 226.182 328.062 226.469 327.531V321.547H228.734V330H226.609L226.547 329.141ZM235.188 323.664C234.88 323.622 234.609 323.602 234.375 323.602C233.521 323.602 232.961 323.891 232.695 324.469V330H230.438V321.547H232.57L232.633 322.555C233.086 321.779 233.714 321.391 234.516 321.391C234.766 321.391 235 321.424 235.219 321.492L235.188 323.664ZM238.359 321.547L238.43 322.523C239.034 321.768 239.844 321.391 240.859 321.391C241.755 321.391 242.422 321.654 242.859 322.18C243.297 322.706 243.521 323.492 243.531 324.539V330H241.273V324.594C241.273 324.115 241.169 323.768 240.961 323.555C240.753 323.336 240.406 323.227 239.922 323.227C239.286 323.227 238.81 323.497 238.492 324.039V330H236.234V321.547H238.359ZM244.898 325.695C244.898 324.857 245.06 324.109 245.383 323.453C245.706 322.797 246.169 322.289 246.773 321.93C247.383 321.57 248.089 321.391 248.891 321.391C250.031 321.391 250.961 321.74 251.68 322.438C252.404 323.135 252.807 324.083 252.891 325.281L252.906 325.859C252.906 327.156 252.544 328.198 251.82 328.984C251.096 329.766 250.125 330.156 248.906 330.156C247.688 330.156 246.714 329.766 245.984 328.984C245.26 328.203 244.898 327.141 244.898 325.797V325.695ZM247.156 325.859C247.156 326.661 247.307 327.276 247.609 327.703C247.911 328.125 248.344 328.336 248.906 328.336C249.453 328.336 249.88 328.128 250.188 327.711C250.495 327.289 250.648 326.617 250.648 325.695C250.648 324.909 250.495 324.299 250.188 323.867C249.88 323.435 249.448 323.219 248.891 323.219C248.339 323.219 247.911 323.435 247.609 323.867C247.307 324.294 247.156 324.958 247.156 325.859ZM257.336 327.242L258.906 321.547H261.266L258.414 330H256.258L253.406 321.547H255.766L257.336 327.242ZM266.047 330.156C264.807 330.156 263.797 329.776 263.016 329.016C262.24 328.255 261.852 327.242 261.852 325.977V325.758C261.852 324.909 262.016 324.151 262.344 323.484C262.672 322.812 263.135 322.297 263.734 321.938C264.339 321.573 265.026 321.391 265.797 321.391C266.953 321.391 267.862 321.755 268.523 322.484C269.19 323.214 269.523 324.247 269.523 325.586V326.508H264.141C264.214 327.06 264.432 327.503 264.797 327.836C265.167 328.169 265.633 328.336 266.195 328.336C267.065 328.336 267.745 328.021 268.234 327.391L269.344 328.633C269.005 329.112 268.547 329.487 267.969 329.758C267.391 330.023 266.75 330.156 266.047 330.156ZM265.789 323.219C265.341 323.219 264.977 323.37 264.695 323.672C264.419 323.974 264.242 324.406 264.164 324.969H267.305V324.789C267.294 324.289 267.159 323.904 266.898 323.633C266.638 323.357 266.268 323.219 265.789 323.219ZM275.562 323.664C275.255 323.622 274.984 323.602 274.75 323.602C273.896 323.602 273.336 323.891 273.07 324.469V330H270.812V321.547H272.945L273.008 322.555C273.461 321.779 274.089 321.391 274.891 321.391C275.141 321.391 275.375 321.424 275.594 321.492L275.562 323.664Z" fill="white"/>
<path d="M293.305 283V271.625H297.289C298.669 271.625 299.716 271.891 300.43 272.422C301.143 272.948 301.5 273.721 301.5 274.742C301.5 275.299 301.357 275.792 301.07 276.219C300.784 276.641 300.385 276.951 299.875 277.148C300.458 277.294 300.917 277.589 301.25 278.031C301.589 278.474 301.758 279.016 301.758 279.656C301.758 280.75 301.409 281.578 300.711 282.141C300.013 282.703 299.018 282.99 297.727 283H293.305ZM295.648 278.047V281.117H297.656C298.208 281.117 298.638 280.987 298.945 280.727C299.258 280.461 299.414 280.096 299.414 279.633C299.414 278.591 298.875 278.062 297.797 278.047H295.648ZM295.648 276.391H297.383C298.565 276.37 299.156 275.898 299.156 274.977C299.156 274.461 299.005 274.091 298.703 273.867C298.406 273.638 297.935 273.523 297.289 273.523H295.648V276.391ZM303.023 278.695C303.023 277.857 303.185 277.109 303.508 276.453C303.831 275.797 304.294 275.289 304.898 274.93C305.508 274.57 306.214 274.391 307.016 274.391C308.156 274.391 309.086 274.74 309.805 275.438C310.529 276.135 310.932 277.083 311.016 278.281L311.031 278.859C311.031 280.156 310.669 281.198 309.945 281.984C309.221 282.766 308.25 283.156 307.031 283.156C305.812 283.156 304.839 282.766 304.109 281.984C303.385 281.203 303.023 280.141 303.023 278.797V278.695ZM305.281 278.859C305.281 279.661 305.432 280.276 305.734 280.703C306.036 281.125 306.469 281.336 307.031 281.336C307.578 281.336 308.005 281.128 308.312 280.711C308.62 280.289 308.773 279.617 308.773 278.695C308.773 277.909 308.62 277.299 308.312 276.867C308.005 276.435 307.573 276.219 307.016 276.219C306.464 276.219 306.036 276.435 305.734 276.867C305.432 277.294 305.281 277.958 305.281 278.859ZM314.5 274.547L314.57 275.523C315.174 274.768 315.984 274.391 317 274.391C317.896 274.391 318.562 274.654 319 275.18C319.438 275.706 319.661 276.492 319.672 277.539V283H317.414V277.594C317.414 277.115 317.31 276.768 317.102 276.555C316.893 276.336 316.547 276.227 316.062 276.227C315.427 276.227 314.951 276.497 314.633 277.039V283H312.375V274.547H314.5ZM326.453 282.141C325.896 282.818 325.125 283.156 324.141 283.156C323.234 283.156 322.542 282.896 322.062 282.375C321.589 281.854 321.346 281.091 321.336 280.086V274.547H323.594V280.008C323.594 280.888 323.995 281.328 324.797 281.328C325.562 281.328 326.089 281.062 326.375 280.531V274.547H328.641V283H326.516L326.453 282.141ZM334.922 280.664C334.922 280.388 334.784 280.172 334.508 280.016C334.237 279.854 333.799 279.711 333.195 279.586C331.185 279.164 330.18 278.31 330.18 277.023C330.18 276.273 330.49 275.648 331.109 275.148C331.734 274.643 332.549 274.391 333.555 274.391C334.628 274.391 335.484 274.643 336.125 275.148C336.771 275.654 337.094 276.31 337.094 277.117H334.836C334.836 276.794 334.732 276.529 334.523 276.32C334.315 276.107 333.99 276 333.547 276C333.167 276 332.872 276.086 332.664 276.258C332.456 276.43 332.352 276.648 332.352 276.914C332.352 277.164 332.469 277.367 332.703 277.523C332.943 277.674 333.344 277.807 333.906 277.922C334.469 278.031 334.943 278.156 335.328 278.297C336.521 278.734 337.117 279.492 337.117 280.57C337.117 281.341 336.786 281.966 336.125 282.445C335.464 282.919 334.609 283.156 333.562 283.156C332.854 283.156 332.224 283.031 331.672 282.781C331.125 282.526 330.695 282.18 330.383 281.742C330.07 281.299 329.914 280.823 329.914 280.312H332.055C332.076 280.714 332.224 281.021 332.5 281.234C332.776 281.448 333.146 281.555 333.609 281.555C334.042 281.555 334.367 281.474 334.586 281.312C334.81 281.146 334.922 280.93 334.922 280.664ZM288.703 294.711C288.703 293.393 288.997 292.344 289.586 291.562C290.18 290.781 290.99 290.391 292.016 290.391C292.839 290.391 293.518 290.698 294.055 291.312V287H296.32V299H294.281L294.172 298.102C293.609 298.805 292.885 299.156 292 299.156C291.005 299.156 290.206 298.766 289.602 297.984C289.003 297.198 288.703 296.107 288.703 294.711ZM290.961 294.875C290.961 295.667 291.099 296.273 291.375 296.695C291.651 297.117 292.052 297.328 292.578 297.328C293.276 297.328 293.768 297.034 294.055 296.445V293.109C293.773 292.521 293.286 292.227 292.594 292.227C291.505 292.227 290.961 293.109 290.961 294.875ZM301.961 299.156C300.721 299.156 299.711 298.776 298.93 298.016C298.154 297.255 297.766 296.242 297.766 294.977V294.758C297.766 293.909 297.93 293.151 298.258 292.484C298.586 291.812 299.049 291.297 299.648 290.938C300.253 290.573 300.94 290.391 301.711 290.391C302.867 290.391 303.776 290.755 304.438 291.484C305.104 292.214 305.438 293.247 305.438 294.586V295.508H300.055C300.128 296.06 300.346 296.503 300.711 296.836C301.081 297.169 301.547 297.336 302.109 297.336C302.979 297.336 303.659 297.021 304.148 296.391L305.258 297.633C304.919 298.112 304.461 298.487 303.883 298.758C303.305 299.023 302.664 299.156 301.961 299.156ZM301.703 292.219C301.255 292.219 300.891 292.37 300.609 292.672C300.333 292.974 300.156 293.406 300.078 293.969H303.219V293.789C303.208 293.289 303.073 292.904 302.812 292.633C302.552 292.357 302.182 292.219 301.703 292.219ZM314.336 294.852C314.336 296.154 314.039 297.198 313.445 297.984C312.857 298.766 312.06 299.156 311.055 299.156C310.201 299.156 309.51 298.859 308.984 298.266V302.25H306.727V290.547H308.82L308.898 291.375C309.445 290.719 310.159 290.391 311.039 290.391C312.081 290.391 312.891 290.776 313.469 291.547C314.047 292.318 314.336 293.38 314.336 294.734V294.852ZM312.078 294.688C312.078 293.901 311.938 293.294 311.656 292.867C311.38 292.44 310.977 292.227 310.445 292.227C309.737 292.227 309.25 292.497 308.984 293.039V296.5C309.26 297.057 309.753 297.336 310.461 297.336C311.539 297.336 312.078 296.453 312.078 294.688ZM315.391 294.695C315.391 293.857 315.552 293.109 315.875 292.453C316.198 291.797 316.661 291.289 317.266 290.93C317.875 290.57 318.581 290.391 319.383 290.391C320.523 290.391 321.453 290.74 322.172 291.438C322.896 292.135 323.299 293.083 323.383 294.281L323.398 294.859C323.398 296.156 323.036 297.198 322.312 297.984C321.589 298.766 320.617 299.156 319.398 299.156C318.18 299.156 317.206 298.766 316.477 297.984C315.753 297.203 315.391 296.141 315.391 294.797V294.695ZM317.648 294.859C317.648 295.661 317.799 296.276 318.102 296.703C318.404 297.125 318.836 297.336 319.398 297.336C319.945 297.336 320.372 297.128 320.68 296.711C320.987 296.289 321.141 295.617 321.141 294.695C321.141 293.909 320.987 293.299 320.68 292.867C320.372 292.435 319.94 292.219 319.383 292.219C318.831 292.219 318.404 292.435 318.102 292.867C317.799 293.294 317.648 293.958 317.648 294.859ZM329.367 296.664C329.367 296.388 329.229 296.172 328.953 296.016C328.682 295.854 328.245 295.711 327.641 295.586C325.63 295.164 324.625 294.31 324.625 293.023C324.625 292.273 324.935 291.648 325.555 291.148C326.18 290.643 326.995 290.391 328 290.391C329.073 290.391 329.93 290.643 330.57 291.148C331.216 291.654 331.539 292.31 331.539 293.117H329.281C329.281 292.794 329.177 292.529 328.969 292.32C328.76 292.107 328.435 292 327.992 292C327.612 292 327.318 292.086 327.109 292.258C326.901 292.43 326.797 292.648 326.797 292.914C326.797 293.164 326.914 293.367 327.148 293.523C327.388 293.674 327.789 293.807 328.352 293.922C328.914 294.031 329.388 294.156 329.773 294.297C330.966 294.734 331.562 295.492 331.562 296.57C331.562 297.341 331.232 297.966 330.57 298.445C329.909 298.919 329.055 299.156 328.008 299.156C327.299 299.156 326.669 299.031 326.117 298.781C325.57 298.526 325.141 298.18 324.828 297.742C324.516 297.299 324.359 296.823 324.359 296.312H326.5C326.521 296.714 326.669 297.021 326.945 297.234C327.221 297.448 327.591 297.555 328.055 297.555C328.487 297.555 328.812 297.474 329.031 297.312C329.255 297.146 329.367 296.93 329.367 296.664ZM335.406 299H333.141V290.547H335.406V299ZM333.008 288.359C333.008 288.021 333.12 287.742 333.344 287.523C333.573 287.305 333.883 287.195 334.273 287.195C334.659 287.195 334.966 287.305 335.195 287.523C335.424 287.742 335.539 288.021 335.539 288.359C335.539 288.703 335.422 288.984 335.188 289.203C334.958 289.422 334.654 289.531 334.273 289.531C333.893 289.531 333.586 289.422 333.352 289.203C333.122 288.984 333.008 288.703 333.008 288.359ZM339.977 288.469V290.547H341.422V292.203H339.977V296.422C339.977 296.734 340.036 296.958 340.156 297.094C340.276 297.229 340.505 297.297 340.844 297.297C341.094 297.297 341.315 297.279 341.508 297.242V298.953C341.065 299.089 340.609 299.156 340.141 299.156C338.557 299.156 337.75 298.357 337.719 296.758V292.203H336.484V290.547H337.719V288.469H339.977Z" fill="white"/>
<line x1="69" y1="424" x2="217" y2="424" stroke="#B3B4B5" stroke-width="2"/>
<line x1="140" y1="394" x2="231" y2="394" stroke="#7289DA" stroke-width="2"/>
<line x1="208" y1="364" x2="390" y2="364" stroke="#6441A4" stroke-width="2"/>
<line x1="142.998" y1="102.5" x2="281.002" y2="102.5" stroke="#FF4500" stroke-width="2"/>
<line x1="220" y1="42" x2="350" y2="42" stroke="#FF0000" stroke-width="2"/>
</svg>
