<svg width="458" height="205" viewBox="0 0 458 205" fill="none" xmlns="http://www.w3.org/2000/svg">
<path fill-rule="evenodd" clip-rule="evenodd" d="M247.594 124.63C247.646 124.637 247.699 124.642 247.754 124.642C249.735 124.67 251.15 124.69 251.998 124.7L243.267 139.808L235.136 125.736H239.468L243.226 132.567L247.594 124.63ZM253.27 119.104C254.725 119.104 254.856 119.55 254.659 121.357C254.456 123.184 254.214 123.603 252.772 123.603C251.33 123.603 251.206 123.131 251.402 121.357C251.612 119.53 251.855 119.104 253.27 119.104ZM222.497 119.091C222.497 119.091 223.238 119.072 223.886 119.17L223.808 119.857C223.1 119.798 222.55 119.825 222.465 119.825C221.947 119.825 221.927 120.152 221.77 121.586L221.75 121.75C221.645 122.699 221.835 122.863 222.333 122.863H222.451L222.55 122.012H222.025L222.104 121.331H223.69L223.461 123.432C223.035 123.557 222.55 123.596 222.137 123.596C220.957 123.596 220.42 123.38 220.617 121.56C220.826 119.681 221.095 119.091 222.497 119.091ZM243.633 122.476C244.111 122.476 244.17 122.535 244.117 123.007C244.072 123.452 244.013 123.563 243.515 123.563C243.017 123.563 242.984 123.459 243.03 123.007C243.082 122.555 243.135 122.476 243.633 122.476ZM249.837 119.17C250.656 119.17 251.298 119.399 251.2 120.309L251.147 120.8C251.115 121.128 250.951 121.396 250.656 121.645L250.767 123.537H249.66L249.588 121.959H248.998L248.828 123.537H247.74L248.218 119.17H249.837ZM246.423 119.17C247.249 119.17 247.891 119.399 247.786 120.309L247.734 120.8C247.662 121.409 247.157 121.835 246.561 121.933C246.442 121.956 246.337 121.959 245.849 121.959L245.598 121.959L245.427 123.537H244.34L244.818 119.17H246.423ZM243.686 119.17L243.607 119.943H242.499L242.106 123.537H241.012L241.405 119.943H240.311L240.39 119.17H243.686ZM240.338 119.163L240.246 119.949H238.542L238.437 120.918H239.997L239.912 121.71H238.346L238.228 122.758H239.931L239.853 123.537H237.074L237.559 119.163H240.338ZM235.515 119.163C236.367 119.163 237.114 119.262 236.996 120.309L236.97 120.591C236.931 120.912 236.767 121.147 236.557 121.317C236.741 121.553 236.819 121.9 236.8 122.136L236.767 122.398C236.669 123.301 236.144 123.537 235.037 123.537H233.779L234.264 119.163H235.515ZM231.683 119.163L232.108 120.99L232.967 119.163H234.14L232.515 122.28L232.384 123.537H231.283L231.42 122.28L230.51 119.163H231.683ZM230.084 119.17L230.746 123.537H229.711L229.547 122.378H228.328L227.948 123.537H226.893L228.472 119.17H230.084ZM225.904 119.17C226.723 119.17 227.365 119.399 227.267 120.309L227.215 120.8C227.182 121.128 227.018 121.396 226.723 121.645L226.835 123.537H225.727L225.655 121.959H225.065L224.895 123.537H223.807L224.286 119.17H225.904ZM219.666 113.145C220.026 114.278 220.574 115.291 221.333 116.19C221.486 116.372 221.646 116.545 221.812 116.712L221.004 118.11C220.454 118.247 220.024 118.526 219.697 118.991C219.331 119.512 219.168 120.133 219.035 121.245L219.027 121.308L219.01 121.458C218.944 122.071 218.943 122.579 219.03 123.006L213.967 123.006L219.666 113.145ZM265.522 109.203L273.5 123.006L256.12 123.006L258.222 119.367L267.19 119.367L262.815 111.796C263.12 111.566 263.433 111.313 263.777 111.035C264.449 110.492 265.032 109.878 265.522 109.203ZM253.209 119.844L253.191 119.844C252.667 119.844 252.615 120.106 252.471 121.357C252.333 122.588 252.333 122.856 252.851 122.856C253.381 122.856 253.453 122.64 253.598 121.357C253.735 120.08 253.722 119.844 253.191 119.844L253.209 119.844ZM235.469 121.769H235.044L234.926 122.817H235.135C235.469 122.817 235.653 122.706 235.692 122.352L235.719 122.129C235.751 121.828 235.633 121.769 235.469 121.769ZM229.206 119.949L228.636 121.56H229.429L229.206 119.949ZM249.739 119.903H249.234L249.083 121.2L249.601 121.2C249.825 121.198 250.021 121.147 250.06 120.8L250.119 120.316C250.171 119.949 249.948 119.903 249.739 119.903ZM246.338 119.903H245.834L245.683 121.2L246.201 121.2C246.431 121.198 246.627 121.147 246.666 120.8L246.718 120.316C246.764 119.949 246.555 119.903 246.338 119.903ZM225.806 119.903H225.301L225.151 121.2L225.668 121.2C225.892 121.198 226.088 121.147 226.127 120.8L226.186 120.316C226.238 119.949 226.016 119.903 225.806 119.903ZM235.456 119.89H235.253L235.135 120.931H235.561C235.725 120.931 235.863 120.866 235.889 120.571L235.915 120.362C235.961 119.923 235.784 119.89 235.456 119.89ZM237.158 93.9927C237.335 94.0128 237.51 94.0343 237.682 94.0573L243.544 94.0574C244.288 94.058 245.724 94.0663 247.852 94.0825H256.814C259.092 94.0825 260.945 94.471 262.448 95.5171C264.428 96.8954 265.306 99.1285 265.034 101.808L264.824 103.805C264.583 105.966 263.725 107.716 262.267 108.958C261.09 109.962 259.68 110.526 257.988 110.829L257.755 110.87C257.337 110.942 257 110.974 256.206 110.988L256.12 110.989L255.465 117.132H245.326C243.846 117.129 242.635 117.129 241.694 117.132L241.599 117.132L233.83 117.132C232.785 117.276 231.783 117.358 230.94 117.358L230.781 117.358C229.365 117.352 228.317 117.266 227.345 117.031C225.907 116.684 224.714 116.003 223.823 114.89C222.964 113.817 222.508 112.494 222.342 110.891C222.207 109.583 222.257 108.02 222.477 106.051L222.551 105.402C222.762 103.558 222.926 102.395 223.137 101.334L223.153 101.255C223.479 99.6347 223.909 98.3762 224.574 97.3023C225.388 95.9886 226.522 95.0382 227.97 94.4669C229.181 93.989 230.561 93.7876 232.263 93.781L232.309 93.7809L232.467 93.7781C233.863 93.7578 235.524 93.8082 237.158 93.9927ZM233.062 96.9168H232.824C232.524 96.9182 232.349 96.9228 232.349 96.9228C226.938 96.9228 226.409 99.1851 225.604 106.399C224.832 113.317 226.378 114.199 230.805 114.216L230.94 114.216L231.016 114.216C231.79 114.211 232.722 114.121 233.67 113.981L233.828 113.957C234.535 113.849 235.246 113.713 235.902 113.566L236.024 113.538L236.93 105.318H231.242L230.965 107.731H233.155L232.777 111.326L232.347 111.342C231.844 111.36 231.369 111.37 231.015 111.351C229.67 111.251 229.015 110.61 229.393 107.231L229.405 107.128L229.455 106.5L229.562 105.563C230.097 100.917 230.299 99.9099 232.115 99.8892L232.225 99.8884C232.433 99.8852 232.941 99.8675 233.665 99.8667L233.84 99.8668C234.256 99.8679 234.734 99.8748 235.261 99.8927L235.381 99.8969C235.952 99.9178 236.578 99.9517 237.241 100.005L237.358 100.015L237.635 97.2245L237.561 97.2133C236.994 97.129 236.41 97.0681 235.848 97.0244L235.661 97.0104L235.471 96.9973C234.509 96.9339 233.638 96.9183 233.062 96.9168ZM256.814 97.2245H250.673L248.835 113.99H252.636L253.29 107.857L254.753 107.856C256.471 107.853 256.87 107.838 257.317 107.756C258.122 107.621 258.871 107.408 259.516 107.054L259.579 107.019L259.592 107.012C260.692 106.381 261.476 105.323 261.69 103.513L261.697 103.458L261.898 101.548L261.909 101.445C262.225 98.1203 259.901 97.242 256.905 97.2247L256.814 97.2245ZM243.557 97.1993H238.805L236.943 113.99H241.599L241.724 113.99C243.377 113.983 244.678 113.828 245.665 113.423L245.738 113.392C247.132 112.793 247.884 111.672 248.111 109.726L248.118 109.667L248.244 108.661L248.248 108.621C248.335 107.643 248.007 106.288 247.237 105.494C248.096 104.857 248.715 104.029 248.886 102.73L248.892 102.679L249.024 101.548L249.037 101.43C249.417 97.6075 246.706 97.2071 243.557 97.1993ZM243.311 107.078C244.091 107.078 244.619 107.354 244.494 108.636L244.368 109.516C244.242 110.873 243.537 111.351 242.203 111.351H242.002L240.995 111.326L241.448 107.078H243.311ZM256.487 99.8386C257.443 99.8386 258.374 100.04 258.173 101.573L257.972 103.458C257.822 104.926 256.908 105.138 255.937 105.142L253.617 105.142L254.196 99.8386H256.487ZM245.223 101.749L245.148 102.578C244.997 103.81 244.443 104.137 243.638 104.137H241.775L242.254 99.7883H243.285C244.67 99.7883 245.425 99.914 245.223 101.749ZM230.876 88.3017L228.773 91.9437L219.811 91.9438L222.126 95.949C222.034 96.0736 221.946 96.2011 221.86 96.3317C221.157 97.4069 220.658 98.5955 220.28 100.034L213.5 88.3018L230.876 88.3017ZM247.053 88.2965L247.054 88.3037H255.527L255.527 88.3017L273.035 88.3018L267.219 98.3657C266.797 97.0372 266.067 95.8459 265.042 94.8547L266.724 91.9445L257.377 91.9445C257.08 91.9308 256.777 91.9234 256.467 91.9221L256.368 91.9219H244.723L244.722 91.931L244.626 91.9266C244.181 91.9072 243.703 91.8984 243.172 91.8984C241.877 91.8809 240.658 91.8691 239.514 91.8631L241.574 88.2965H247.053ZM243.735 71.5L251.864 85.5714H247.481L243.734 78.7813L239.905 85.7207L236.358 91.862C234.665 91.871 233.19 91.8965 231.932 91.9386L235.321 86.0705L235.315 86.067L243.735 71.5Z" fill="#B3B4B5"/>
<mask id="path-2-inside-1" fill="white">
<path d="M321.138 41.9736C334.448 58.3691 342.226 78.5574 343.357 99.645L301.218 101.905C300.565 89.7158 296.069 78.0467 288.376 68.5698L321.138 41.9736Z"/>
</mask>
<path d="M321.138 41.9736C334.448 58.3691 342.226 78.5574 343.357 99.645L301.218 101.905C300.565 89.7158 296.069 78.0467 288.376 68.5698L321.138 41.9736Z" fill="#7289DA" stroke="#121212" stroke-width="2" mask="url(#path-2-inside-1)"/>
<mask id="path-3-inside-2" fill="white">
<path d="M180.232 27.559C200.77 10.7792 227.133 2.84554 253.522 5.50343C279.91 8.16131 304.161 21.193 320.941 41.7316L288.262 68.43C278.563 56.5584 264.545 49.0259 249.293 47.4896C234.04 45.9533 218.802 50.539 206.93 60.238L180.232 27.559Z"/>
</mask>
<path d="M180.232 27.559C200.77 10.7792 227.133 2.84554 253.522 5.50343C279.91 8.16131 304.161 21.193 320.941 41.7316L288.262 68.43C278.563 56.5584 264.545 49.0259 249.293 47.4896C234.04 45.9533 218.802 50.539 206.93 60.238L180.232 27.559Z" fill="#9469E1" stroke="#121212" stroke-width="2" mask="url(#path-3-inside-2)"/>
<mask id="path-4-inside-3" fill="white">
<path d="M218.142 201.731C200.303 197.055 184.104 187.536 171.337 174.228C158.57 160.919 149.731 144.339 145.799 126.321C141.867 108.303 142.994 89.5484 149.056 72.1308C155.118 54.7133 165.878 39.3113 180.148 27.6277L206.881 60.2777C198.634 67.031 192.414 75.9336 188.91 86.0012C185.406 96.0687 184.755 106.909 187.028 117.324C189.301 127.739 194.409 137.322 201.789 145.015C209.168 152.707 218.531 158.209 228.843 160.912L218.142 201.731Z"/>
</mask>
<path d="M218.142 201.731C200.303 197.055 184.104 187.536 171.337 174.228C158.57 160.919 149.731 144.339 145.799 126.321C141.867 108.303 142.994 89.5484 149.056 72.1308C155.118 54.7133 165.878 39.3113 180.148 27.6277L206.881 60.2777C198.634 67.031 192.414 75.9336 188.91 86.0012C185.406 96.0687 184.755 106.909 187.028 117.324C189.301 127.739 194.409 137.322 201.789 145.015C209.168 152.707 218.531 158.209 228.843 160.912L218.142 201.731Z" fill="#F24841" stroke="#121212" stroke-width="2" mask="url(#path-4-inside-3)"/>
<mask id="path-5-inside-4" fill="white">
<path d="M343.372 99.9356C344.171 115.696 341.229 131.423 334.785 145.828C328.342 160.234 318.581 172.911 306.3 182.821C294.019 192.732 279.567 199.595 264.125 202.85C248.684 206.105 232.691 205.659 217.454 201.549L228.445 160.806C237.252 163.182 246.496 163.44 255.422 161.559C264.347 159.677 272.701 155.71 279.799 149.982C286.898 144.253 292.54 136.926 296.264 128.599C299.989 120.273 301.689 111.183 301.227 102.073L343.372 99.9356Z"/>
</mask>
<path d="M343.372 99.9356C344.171 115.696 341.229 131.423 334.785 145.828C328.342 160.234 318.581 172.911 306.3 182.821C294.019 192.732 279.567 199.595 264.125 202.85C248.684 206.105 232.691 205.659 217.454 201.549L228.445 160.806C237.252 163.182 246.496 163.44 255.422 161.559C264.347 159.677 272.701 155.71 279.799 149.982C286.898 144.253 292.54 136.926 296.264 128.599C299.989 120.273 301.689 111.183 301.227 102.073L343.372 99.9356Z" fill="#F97341" stroke="#121212" stroke-width="2" mask="url(#path-5-inside-4)"/>
<line x1="333.118" y1="61.0108" x2="346.761" y2="47.368" stroke="#121212" stroke-width="3"/>
<line x1="126.26" y1="86.0976" x2="145.261" y2="89.4479" stroke="#121212" stroke-width="3"/>
<line x1="166.948" y1="19.541" x2="185.078" y2="26.1399" stroke="#121212" stroke-width="3"/>
<line x1="319.739" y1="169.868" x2="333.382" y2="183.511" stroke="#121212" stroke-width="3"/>
<line x1="346.853" y1="47.25" x2="420.853" y2="47.25" stroke="#121212" stroke-width="3"/>
<path d="M357.732 43.168C357.153 43.168 356.621 43.0607 356.136 42.846C355.651 42.6313 355.226 42.3233 354.862 41.922C354.507 41.5113 354.227 41.012 354.022 40.424C353.826 39.8267 353.728 39.1547 353.728 38.408C353.728 37.6707 353.831 37.008 354.036 36.42C354.241 35.832 354.526 35.3327 354.89 34.922C355.254 34.5113 355.683 34.1987 356.178 33.984C356.673 33.76 357.214 33.648 357.802 33.648C358.362 33.648 358.852 33.7647 359.272 33.998C359.701 34.222 360.051 34.4833 360.322 34.782L359.692 35.538C359.449 35.2767 359.174 35.0667 358.866 34.908C358.558 34.7493 358.208 34.67 357.816 34.67C357.377 34.67 356.981 34.7587 356.626 34.936C356.271 35.104 355.968 35.3513 355.716 35.678C355.464 35.9953 355.268 36.3827 355.128 36.84C354.997 37.2973 354.932 37.8107 354.932 38.38C354.932 38.9587 354.997 39.4813 355.128 39.948C355.268 40.4053 355.459 40.7973 355.702 41.124C355.945 41.4507 356.239 41.7027 356.584 41.88C356.939 42.0573 357.335 42.146 357.774 42.146C358.222 42.146 358.614 42.0573 358.95 41.88C359.286 41.6933 359.603 41.4367 359.902 41.11L360.546 41.838C360.182 42.258 359.771 42.5847 359.314 42.818C358.857 43.0513 358.329 43.168 357.732 43.168ZM363.261 43V37.134H360.979V36.196H366.691V37.134H364.409V43H363.261ZM368.203 45.87V36.196H369.155L369.253 36.98H369.295C369.603 36.7187 369.939 36.4947 370.303 36.308C370.676 36.1213 371.063 36.028 371.465 36.028C371.903 36.028 372.291 36.112 372.627 36.28C372.963 36.4387 373.243 36.672 373.467 36.98C373.691 37.2787 373.859 37.6427 373.971 38.072C374.092 38.492 374.153 38.968 374.153 39.5C374.153 40.0787 374.073 40.5967 373.915 41.054C373.756 41.502 373.541 41.8847 373.271 42.202C373 42.5193 372.687 42.762 372.333 42.93C371.978 43.0887 371.605 43.168 371.213 43.168C370.895 43.168 370.578 43.098 370.261 42.958C369.953 42.818 369.64 42.6267 369.323 42.384L369.351 43.574V45.87H368.203ZM371.017 42.202C371.297 42.202 371.553 42.1413 371.787 42.02C372.029 41.8893 372.235 41.712 372.403 41.488C372.58 41.2547 372.715 40.97 372.809 40.634C372.911 40.298 372.963 39.92 372.963 39.5C372.963 39.1267 372.93 38.786 372.865 38.478C372.799 38.17 372.692 37.9087 372.543 37.694C372.403 37.47 372.216 37.2973 371.983 37.176C371.759 37.0547 371.488 36.994 371.171 36.994C370.881 36.994 370.587 37.0733 370.289 37.232C369.999 37.3907 369.687 37.6193 369.351 37.918V41.488C369.659 41.7493 369.957 41.936 370.247 42.048C370.536 42.1507 370.793 42.202 371.017 42.202ZM377.345 43.168C376.776 43.168 376.3 43 375.917 42.664C375.544 42.328 375.357 41.852 375.357 41.236C375.357 40.4893 375.688 39.92 376.351 39.528C377.014 39.1267 378.073 38.8467 379.529 38.688C379.529 38.4733 379.506 38.2633 379.459 38.058C379.422 37.8527 379.352 37.6707 379.249 37.512C379.146 37.3533 379.002 37.2273 378.815 37.134C378.638 37.0313 378.409 36.98 378.129 36.98C377.737 36.98 377.368 37.0547 377.023 37.204C376.678 37.3533 376.37 37.5213 376.099 37.708L375.651 36.91C375.968 36.7047 376.356 36.5087 376.813 36.322C377.27 36.126 377.774 36.028 378.325 36.028C379.156 36.028 379.758 36.2847 380.131 36.798C380.504 37.302 380.691 37.9787 380.691 38.828V43H379.739L379.641 42.188H379.599C379.272 42.4587 378.922 42.692 378.549 42.888C378.176 43.0747 377.774 43.168 377.345 43.168ZM377.681 42.244C378.008 42.244 378.316 42.1693 378.605 42.02C378.894 41.8613 379.202 41.6327 379.529 41.334V39.444C378.96 39.5187 378.479 39.6073 378.087 39.71C377.704 39.8127 377.392 39.934 377.149 40.074C376.916 40.214 376.743 40.3773 376.631 40.564C376.528 40.7413 376.477 40.9373 376.477 41.152C376.477 41.544 376.594 41.824 376.827 41.992C377.06 42.16 377.345 42.244 377.681 42.244ZM381.88 43L384.106 39.444L382.048 36.196H383.294L384.204 37.694C384.306 37.8807 384.414 38.072 384.526 38.268C384.638 38.4547 384.754 38.6413 384.876 38.828H384.932C385.034 38.6413 385.137 38.4547 385.24 38.268C385.342 38.072 385.445 37.8807 385.548 37.694L386.374 36.196H387.578L385.52 39.57L387.732 43H386.486L385.492 41.418C385.37 41.2127 385.249 41.0073 385.128 40.802C385.006 40.5967 384.88 40.396 384.75 40.2H384.694C384.572 40.396 384.456 40.5967 384.344 40.802C384.232 40.998 384.12 41.2033 384.008 41.418L383.084 43H381.88ZM391.493 43.168C391.073 43.168 390.672 43.0887 390.289 42.93C389.916 42.7713 389.585 42.5427 389.295 42.244C389.006 41.936 388.773 41.5627 388.595 41.124C388.427 40.676 388.343 40.172 388.343 39.612C388.343 39.0427 388.427 38.5387 388.595 38.1C388.773 37.652 389.006 37.274 389.295 36.966C389.585 36.658 389.916 36.4247 390.289 36.266C390.672 36.1073 391.073 36.028 391.493 36.028C391.913 36.028 392.31 36.1073 392.683 36.266C393.066 36.4247 393.402 36.658 393.691 36.966C393.981 37.274 394.209 37.652 394.377 38.1C394.555 38.5387 394.643 39.0427 394.643 39.612C394.643 40.172 394.555 40.676 394.377 41.124C394.209 41.5627 393.981 41.936 393.691 42.244C393.402 42.5427 393.066 42.7713 392.683 42.93C392.31 43.0887 391.913 43.168 391.493 43.168ZM391.493 42.216C391.783 42.216 392.049 42.1553 392.291 42.034C392.534 41.9033 392.739 41.726 392.907 41.502C393.085 41.2687 393.22 40.9933 393.313 40.676C393.407 40.3587 393.453 40.004 393.453 39.612C393.453 39.22 393.407 38.8653 393.313 38.548C393.22 38.2213 393.085 37.9413 392.907 37.708C392.739 37.4747 392.534 37.2973 392.291 37.176C392.049 37.0453 391.783 36.98 391.493 36.98C391.204 36.98 390.938 37.0453 390.695 37.176C390.453 37.2973 390.243 37.4747 390.065 37.708C389.897 37.9413 389.767 38.2213 389.673 38.548C389.58 38.8653 389.533 39.22 389.533 39.612C389.533 40.004 389.58 40.3587 389.673 40.676C389.767 40.9933 389.897 41.2687 390.065 41.502C390.243 41.726 390.453 41.9033 390.695 42.034C390.938 42.1553 391.204 42.216 391.493 42.216ZM396.435 43V36.196H399.053C399.426 36.196 399.767 36.2287 400.075 36.294C400.383 36.3593 400.644 36.462 400.859 36.602C401.083 36.7327 401.256 36.91 401.377 37.134C401.498 37.3487 401.559 37.61 401.559 37.918C401.559 38.3007 401.456 38.6133 401.251 38.856C401.055 39.0987 400.78 39.2713 400.425 39.374V39.416C400.621 39.4627 400.803 39.528 400.971 39.612C401.148 39.696 401.302 39.8033 401.433 39.934C401.564 40.0647 401.666 40.2233 401.741 40.41C401.816 40.5967 401.853 40.8113 401.853 41.054C401.853 41.39 401.783 41.6793 401.643 41.922C401.512 42.1647 401.326 42.37 401.083 42.538C400.85 42.6967 400.57 42.8133 400.243 42.888C399.916 42.9627 399.557 43 399.165 43H396.435ZM397.569 39.052H398.857C399.426 39.052 399.832 38.9633 400.075 38.786C400.318 38.5993 400.439 38.3473 400.439 38.03C400.439 37.7127 400.322 37.4653 400.089 37.288C399.856 37.1107 399.473 37.022 398.941 37.022H397.569V39.052ZM397.569 42.174H399.039C399.599 42.174 400.014 42.0713 400.285 41.866C400.565 41.6607 400.705 41.3667 400.705 40.984C400.705 40.6387 400.56 40.368 400.271 40.172C399.982 39.976 399.548 39.878 398.969 39.878H397.569V42.174ZM406.19 43.168C405.77 43.168 405.369 43.0887 404.986 42.93C404.613 42.7713 404.282 42.5427 403.992 42.244C403.703 41.936 403.47 41.5627 403.292 41.124C403.124 40.676 403.04 40.172 403.04 39.612C403.04 39.0427 403.124 38.5387 403.292 38.1C403.47 37.652 403.703 37.274 403.992 36.966C404.282 36.658 404.613 36.4247 404.986 36.266C405.369 36.1073 405.77 36.028 406.19 36.028C406.61 36.028 407.007 36.1073 407.38 36.266C407.763 36.4247 408.099 36.658 408.388 36.966C408.678 37.274 408.906 37.652 409.074 38.1C409.252 38.5387 409.34 39.0427 409.34 39.612C409.34 40.172 409.252 40.676 409.074 41.124C408.906 41.5627 408.678 41.936 408.388 42.244C408.099 42.5427 407.763 42.7713 407.38 42.93C407.007 43.0887 406.61 43.168 406.19 43.168ZM406.19 42.216C406.48 42.216 406.746 42.1553 406.988 42.034C407.231 41.9033 407.436 41.726 407.604 41.502C407.782 41.2687 407.917 40.9933 408.01 40.676C408.104 40.3587 408.15 40.004 408.15 39.612C408.15 39.22 408.104 38.8653 408.01 38.548C407.917 38.2213 407.782 37.9413 407.604 37.708C407.436 37.4747 407.231 37.2973 406.988 37.176C406.746 37.0453 406.48 36.98 406.19 36.98C405.901 36.98 405.635 37.0453 405.392 37.176C405.15 37.2973 404.94 37.4747 404.762 37.708C404.594 37.9413 404.464 38.2213 404.37 38.548C404.277 38.8653 404.23 39.22 404.23 39.612C404.23 40.004 404.277 40.3587 404.37 40.676C404.464 40.9933 404.594 41.2687 404.762 41.502C404.94 41.726 405.15 41.9033 405.392 42.034C405.635 42.1553 405.901 42.216 406.19 42.216ZM411.132 43V36.196H412.252V39.024C412.252 39.388 412.238 39.7893 412.21 40.228C412.192 40.6573 412.168 41.0913 412.14 41.53H412.196C412.327 41.3153 412.476 41.0727 412.644 40.802C412.822 40.5313 412.971 40.2887 413.092 40.074L415.668 36.196H416.746V43H415.626V40.172C415.626 39.808 415.636 39.4113 415.654 38.982C415.682 38.5433 415.71 38.1 415.738 37.652H415.682C415.552 37.8667 415.398 38.114 415.22 38.394C415.052 38.6647 414.908 38.9027 414.786 39.108L412.196 43H411.132ZM413.974 34.978C413.582 34.978 413.251 34.9173 412.98 34.796C412.71 34.6747 412.486 34.516 412.308 34.32C412.131 34.1147 412 33.886 411.916 33.634C411.832 33.3727 411.786 33.1067 411.776 32.836H412.728C412.738 33.032 412.761 33.2233 412.798 33.41C412.845 33.5873 412.915 33.7413 413.008 33.872C413.111 34.0027 413.237 34.11 413.386 34.194C413.545 34.2687 413.741 34.306 413.974 34.306C414.208 34.306 414.399 34.2687 414.548 34.194C414.707 34.11 414.833 34.0027 414.926 33.872C415.029 33.7413 415.099 33.5873 415.136 33.41C415.183 33.2233 415.211 33.032 415.22 32.836H416.172C416.154 33.1067 416.102 33.3727 416.018 33.634C415.944 33.886 415.818 34.1147 415.64 34.32C415.463 34.516 415.239 34.6747 414.968 34.796C414.698 34.9173 414.366 34.978 413.974 34.978ZM357.578 64.87V62.686L357.606 61.664C357.419 61.804 357.209 61.9207 356.976 62.014C356.752 62.1167 356.505 62.168 356.234 62.168C355.45 62.168 354.825 61.86 354.358 61.244C353.891 60.628 353.658 59.7507 353.658 58.612C353.658 58.0613 353.728 57.5667 353.868 57.128C354.008 56.68 354.195 56.302 354.428 55.994C354.671 55.686 354.946 55.448 355.254 55.28C355.562 55.112 355.889 55.028 356.234 55.028C356.505 55.028 356.747 55.0747 356.962 55.168C357.186 55.2613 357.401 55.378 357.606 55.518L357.578 54.51V52.032H358.698V54.51L358.67 55.546C358.885 55.3873 359.118 55.2613 359.37 55.168C359.631 55.0747 359.888 55.028 360.14 55.028C360.541 55.028 360.896 55.112 361.204 55.28C361.512 55.4387 361.769 55.672 361.974 55.98C362.189 56.2787 362.347 56.6427 362.45 57.072C362.562 57.492 362.618 57.968 362.618 58.5C362.618 59.0787 362.548 59.5967 362.408 60.054C362.268 60.502 362.077 60.8847 361.834 61.202C361.601 61.5193 361.325 61.762 361.008 61.93C360.691 62.0887 360.359 62.168 360.014 62.168C359.799 62.168 359.575 62.126 359.342 62.042C359.118 61.958 358.894 61.8367 358.67 61.678L358.698 62.686V64.87H357.578ZM356.486 61.202C356.691 61.202 356.883 61.1693 357.06 61.104C357.237 61.0293 357.419 60.8987 357.606 60.712V56.456C357.419 56.288 357.223 56.1713 357.018 56.106C356.822 56.0313 356.626 55.994 356.43 55.994C356.206 55.994 355.996 56.0593 355.8 56.19C355.613 56.3113 355.445 56.4887 355.296 56.722C355.156 56.946 355.044 57.2167 354.96 57.534C354.885 57.8513 354.848 58.206 354.848 58.598C354.848 59.4193 354.988 60.0587 355.268 60.516C355.557 60.9733 355.963 61.202 356.486 61.202ZM359.818 61.202C360.294 61.202 360.681 60.964 360.98 60.488C361.279 60.012 361.428 59.3493 361.428 58.5C361.428 58.1267 361.395 57.786 361.33 57.478C361.274 57.17 361.181 56.9087 361.05 56.694C360.929 56.47 360.77 56.2973 360.574 56.176C360.378 56.0547 360.14 55.994 359.86 55.994C359.673 55.994 359.482 56.0267 359.286 56.092C359.09 56.1573 358.885 56.2833 358.67 56.47V60.74C358.875 60.9267 359.076 61.0527 359.272 61.118C359.477 61.174 359.659 61.202 359.818 61.202ZM367.075 62.168C366.655 62.168 366.254 62.0887 365.871 61.93C365.498 61.7713 365.167 61.5427 364.877 61.244C364.588 60.936 364.355 60.5627 364.177 60.124C364.009 59.676 363.925 59.172 363.925 58.612C363.925 58.0427 364.009 57.5387 364.177 57.1C364.355 56.652 364.588 56.274 364.877 55.966C365.167 55.658 365.498 55.4247 365.871 55.266C366.254 55.1073 366.655 55.028 367.075 55.028C367.495 55.028 367.892 55.1073 368.265 55.266C368.648 55.4247 368.984 55.658 369.273 55.966C369.563 56.274 369.791 56.652 369.959 57.1C370.137 57.5387 370.225 58.0427 370.225 58.612C370.225 59.172 370.137 59.676 369.959 60.124C369.791 60.5627 369.563 60.936 369.273 61.244C368.984 61.5427 368.648 61.7713 368.265 61.93C367.892 62.0887 367.495 62.168 367.075 62.168ZM367.075 61.216C367.365 61.216 367.631 61.1553 367.873 61.034C368.116 60.9033 368.321 60.726 368.489 60.502C368.667 60.2687 368.802 59.9933 368.895 59.676C368.989 59.3587 369.035 59.004 369.035 58.612C369.035 58.22 368.989 57.8653 368.895 57.548C368.802 57.2213 368.667 56.9413 368.489 56.708C368.321 56.4747 368.116 56.2973 367.873 56.176C367.631 56.0453 367.365 55.98 367.075 55.98C366.786 55.98 366.52 56.0453 366.277 56.176C366.035 56.2973 365.825 56.4747 365.647 56.708C365.479 56.9413 365.349 57.2213 365.255 57.548C365.162 57.8653 365.115 58.22 365.115 58.612C365.115 59.004 365.162 59.3587 365.255 59.676C365.349 59.9933 365.479 60.2687 365.647 60.502C365.825 60.726 366.035 60.9033 366.277 61.034C366.52 61.1553 366.786 61.216 367.075 61.216ZM372.017 62V55.196H373.165V57.954H376.441V55.196H377.589V62H376.441V58.976H373.165V62H372.017ZM380.116 62V64.408H379.122L378.996 61.79V61.062H379.332C379.426 61.006 379.514 60.9313 379.598 60.838C379.692 60.7353 379.776 60.5813 379.85 60.376C379.925 60.1707 380 59.8953 380.074 59.55C380.149 59.2047 380.219 58.7567 380.284 58.206L380.648 55.196H384.876V61.062H385.87V61.79L385.758 64.408H384.764V62H380.116ZM381.292 58.43C381.218 59.102 381.115 59.648 380.984 60.068C380.863 60.488 380.723 60.8193 380.564 61.062H383.728V56.134H381.558L381.292 58.43Z" fill="#121212" fill-opacity="0.8"/>
<path d="M48.969 80V70.816H50.117V75.562C50.117 76.0473 50.0983 76.542 50.061 77.046C50.033 77.5407 50.005 78.0213 49.977 78.488H50.033L51.027 76.612L54.401 70.816H55.633V80H54.485V75.198C54.485 74.7127 54.499 74.232 54.527 73.756C54.5643 73.2707 54.597 72.7947 54.625 72.328H54.569L53.575 74.204L50.201 80H48.969ZM58.0445 80V73.196H59.1925V75.954H62.4685V73.196H63.6165V80H62.4685V76.976H59.1925V80H58.0445ZM65.9058 80V73.196H68.5238C68.8971 73.196 69.2378 73.2287 69.5458 73.294C69.8538 73.3593 70.1151 73.462 70.3298 73.602C70.5538 73.7327 70.7265 73.91 70.8478 74.134C70.9691 74.3487 71.0298 74.61 71.0298 74.918C71.0298 75.3007 70.9271 75.6133 70.7218 75.856C70.5258 76.0987 70.2505 76.2713 69.8958 76.374V76.416C70.0918 76.4627 70.2738 76.528 70.4418 76.612C70.6191 76.696 70.7731 76.8033 70.9038 76.934C71.0345 77.0647 71.1371 77.2233 71.2118 77.41C71.2865 77.5967 71.3238 77.8113 71.3238 78.054C71.3238 78.39 71.2538 78.6793 71.1138 78.922C70.9831 79.1647 70.7965 79.37 70.5538 79.538C70.3205 79.6967 70.0405 79.8133 69.7138 79.888C69.3871 79.9627 69.0278 80 68.6358 80H65.9058ZM67.0398 76.052H68.3278C68.8971 76.052 69.3031 75.9633 69.5458 75.786C69.7885 75.5993 69.9098 75.3473 69.9098 75.03C69.9098 74.7127 69.7931 74.4653 69.5598 74.288C69.3265 74.1107 68.9438 74.022 68.4118 74.022H67.0398V76.052ZM67.0398 79.174H68.5098C69.0698 79.174 69.4851 79.0713 69.7558 78.866C70.0358 78.6607 70.1758 78.3667 70.1758 77.984C70.1758 77.6387 70.0311 77.368 69.7418 77.172C69.4525 76.976 69.0185 76.878 68.4398 76.878H67.0398V79.174ZM75.7732 80.168C75.3159 80.168 74.8865 80.0887 74.4852 79.93C74.0932 79.762 73.7479 79.5287 73.4492 79.23C73.1599 78.922 72.9312 78.5487 72.7632 78.11C72.5952 77.6713 72.5112 77.172 72.5112 76.612C72.5112 76.052 72.5952 75.5527 72.7632 75.114C72.9405 74.666 73.1692 74.288 73.4492 73.98C73.7385 73.672 74.0652 73.4387 74.4292 73.28C74.7932 73.112 75.1712 73.028 75.5632 73.028C75.9925 73.028 76.3752 73.1027 76.7112 73.252C77.0565 73.4013 77.3412 73.616 77.5652 73.896C77.7985 74.176 77.9759 74.512 78.0972 74.904C78.2185 75.296 78.2792 75.7347 78.2792 76.22C78.2792 76.3413 78.2745 76.4627 78.2652 76.584C78.2652 76.696 78.2559 76.794 78.2372 76.878H73.6452C73.6919 77.606 73.9159 78.1847 74.3172 78.614C74.7279 79.034 75.2599 79.244 75.9132 79.244C76.2399 79.244 76.5385 79.1973 76.8092 79.104C77.0892 79.0013 77.3552 78.8707 77.6072 78.712L78.0132 79.468C77.7145 79.6547 77.3832 79.818 77.0192 79.958C76.6552 80.098 76.2399 80.168 75.7732 80.168ZM73.6312 76.052H77.2712C77.2712 75.3613 77.1219 74.8387 76.8232 74.484C76.5339 74.12 76.1232 73.938 75.5912 73.938C75.3485 73.938 75.1152 73.9847 74.8912 74.078C74.6765 74.1713 74.4805 74.3113 74.3032 74.498C74.1259 74.6753 73.9765 74.8947 73.8552 75.156C73.7432 75.4173 73.6685 75.716 73.6312 76.052ZM82.6485 80.168C82.2005 80.168 81.7805 80.0887 81.3885 79.93C80.9965 79.7713 80.6558 79.5427 80.3665 79.244C80.0865 78.936 79.8625 78.5627 79.6945 78.124C79.5358 77.676 79.4565 77.172 79.4565 76.612C79.4565 76.0427 79.5452 75.5387 79.7225 75.1C79.8998 74.652 80.1378 74.274 80.4365 73.966C80.7352 73.658 81.0805 73.4247 81.4725 73.266C81.8738 73.1073 82.2938 73.028 82.7325 73.028C83.1805 73.028 83.5632 73.1073 83.8805 73.266C84.1978 73.4247 84.4778 73.6113 84.7205 73.826L84.1325 74.582C83.9365 74.4047 83.7265 74.26 83.5025 74.148C83.2878 74.036 83.0452 73.98 82.7745 73.98C82.4665 73.98 82.1818 74.0453 81.9205 74.176C81.6592 74.2973 81.4352 74.4747 81.2485 74.708C81.0618 74.9413 80.9125 75.2213 80.8005 75.548C80.6978 75.8653 80.6465 76.22 80.6465 76.612C80.6465 77.004 80.6978 77.3587 80.8005 77.676C80.9032 77.9933 81.0432 78.2687 81.2205 78.502C81.4072 78.726 81.6312 78.9033 81.8925 79.034C82.1538 79.1553 82.4385 79.216 82.7465 79.216C83.0638 79.216 83.3532 79.1507 83.6145 79.02C83.8852 78.88 84.1278 78.7167 84.3425 78.53L84.8465 79.3C84.5385 79.5707 84.1978 79.7853 83.8245 79.944C83.4512 80.0933 83.0592 80.168 82.6485 80.168ZM87.7065 80V74.134H85.4245V73.196H91.1365V74.134H88.8545V80H87.7065ZM92.648 80V73.196H93.768V76.024C93.768 76.388 93.754 76.7893 93.726 77.228C93.7073 77.6573 93.684 78.0913 93.656 78.53H93.712C93.8427 78.3153 93.992 78.0727 94.16 77.802C94.3373 77.5313 94.4867 77.2887 94.608 77.074L97.184 73.196H98.262V80H97.142V77.172C97.142 76.808 97.1513 76.4113 97.17 75.982C97.198 75.5433 97.226 75.1 97.254 74.652H97.198C97.0673 74.8667 96.9133 75.114 96.736 75.394C96.568 75.6647 96.4233 75.9027 96.302 76.108L93.712 80H92.648ZM100.564 80V73.196H101.712V79.062H104.764V73.196H105.912V79.062H106.906V79.79L106.794 82.408H105.8V80H100.564ZM108.316 80V73.196H109.436V76.024C109.436 76.388 109.422 76.7893 109.394 77.228C109.375 77.6573 109.352 78.0913 109.324 78.53H109.38C109.511 78.3153 109.66 78.0727 109.828 77.802C110.005 77.5313 110.155 77.2887 110.276 77.074L112.852 73.196H113.93V80H112.81V77.172C112.81 76.808 112.819 76.4113 112.838 75.982C112.866 75.5433 112.894 75.1 112.922 74.652H112.866C112.735 74.8667 112.581 75.114 112.404 75.394C112.236 75.6647 112.091 75.9027 111.97 76.108L109.38 80H108.316ZM116.232 80V73.196H117.352V76.024C117.352 76.388 117.338 76.7893 117.31 77.228C117.291 77.6573 117.268 78.0913 117.24 78.53H117.296C117.427 78.3153 117.576 78.0727 117.744 77.802C117.921 77.5313 118.071 77.2887 118.192 77.074L120.768 73.196H121.846V80H120.726V77.172C120.726 76.808 120.735 76.4113 120.754 75.982C120.782 75.5433 120.81 75.1 120.838 74.652H120.782C120.651 74.8667 120.497 75.114 120.32 75.394C120.152 75.6647 120.007 75.9027 119.886 76.108L117.296 80H116.232ZM42.2945 99V92.196H44.9125C45.2858 92.196 45.6265 92.2287 45.9345 92.294C46.2425 92.3593 46.5038 92.462 46.7185 92.602C46.9425 92.7327 47.1152 92.91 47.2365 93.134C47.3578 93.3487 47.4185 93.61 47.4185 93.918C47.4185 94.3007 47.3158 94.6133 47.1105 94.856C46.9145 95.0987 46.6392 95.2713 46.2845 95.374V95.416C46.4805 95.4627 46.6625 95.528 46.8305 95.612C47.0078 95.696 47.1618 95.8033 47.2925 95.934C47.4232 96.0647 47.5258 96.2233 47.6005 96.41C47.6752 96.5967 47.7125 96.8113 47.7125 97.054C47.7125 97.39 47.6425 97.6793 47.5025 97.922C47.3718 98.1647 47.1852 98.37 46.9425 98.538C46.7092 98.6967 46.4292 98.8133 46.1025 98.888C45.7758 98.9627 45.4165 99 45.0245 99H42.2945ZM43.4285 95.052H44.7165C45.2858 95.052 45.6918 94.9633 45.9345 94.786C46.1772 94.5993 46.2985 94.3473 46.2985 94.03C46.2985 93.7127 46.1818 93.4653 45.9485 93.288C45.7152 93.1107 45.3325 93.022 44.8005 93.022H43.4285V95.052ZM43.4285 98.174H44.8985C45.4585 98.174 45.8738 98.0713 46.1445 97.866C46.4245 97.6607 46.5645 97.3667 46.5645 96.984C46.5645 96.6387 46.4198 96.368 46.1305 96.172C45.8412 95.976 45.4072 95.878 44.8285 95.878H43.4285V98.174ZM52.2066 101.87V92.196H53.1586L53.2566 92.98H53.2986C53.6066 92.7187 53.9426 92.4947 54.3066 92.308C54.6799 92.1213 55.0673 92.028 55.4686 92.028C55.9073 92.028 56.2946 92.112 56.6306 92.28C56.9666 92.4387 57.2466 92.672 57.4706 92.98C57.6946 93.2787 57.8626 93.6427 57.9746 94.072C58.0959 94.492 58.1566 94.968 58.1566 95.5C58.1566 96.0787 58.0773 96.5967 57.9186 97.054C57.7599 97.502 57.5453 97.8847 57.2746 98.202C57.0039 98.5193 56.6913 98.762 56.3366 98.93C55.9819 99.0887 55.6086 99.168 55.2166 99.168C54.8993 99.168 54.5819 99.098 54.2646 98.958C53.9566 98.818 53.6439 98.6267 53.3266 98.384L53.3546 99.574V101.87H52.2066ZM55.0206 98.202C55.3006 98.202 55.5573 98.1413 55.7906 98.02C56.0333 97.8893 56.2386 97.712 56.4066 97.488C56.5839 97.2547 56.7193 96.97 56.8126 96.634C56.9153 96.298 56.9666 95.92 56.9666 95.5C56.9666 95.1267 56.9339 94.786 56.8686 94.478C56.8033 94.17 56.6959 93.9087 56.5466 93.694C56.4066 93.47 56.2199 93.2973 55.9866 93.176C55.7626 93.0547 55.4919 92.994 55.1746 92.994C54.8853 92.994 54.5913 93.0733 54.2926 93.232C54.0033 93.3907 53.6906 93.6193 53.3546 93.918V97.488C53.6626 97.7493 53.9613 97.936 54.2506 98.048C54.5399 98.1507 54.7966 98.202 55.0206 98.202ZM61.3488 99.168C60.7795 99.168 60.3035 99 59.9208 98.664C59.5475 98.328 59.3608 97.852 59.3608 97.236C59.3608 96.4893 59.6921 95.92 60.3548 95.528C61.0175 95.1267 62.0768 94.8467 63.5328 94.688C63.5328 94.4733 63.5095 94.2633 63.4628 94.058C63.4255 93.8527 63.3555 93.6707 63.2528 93.512C63.1501 93.3533 63.0055 93.2273 62.8188 93.134C62.6415 93.0313 62.4128 92.98 62.1328 92.98C61.7408 92.98 61.3721 93.0547 61.0268 93.204C60.6815 93.3533 60.3735 93.5213 60.1028 93.708L59.6548 92.91C59.9721 92.7047 60.3595 92.5087 60.8168 92.322C61.2741 92.126 61.7781 92.028 62.3288 92.028C63.1595 92.028 63.7615 92.2847 64.1348 92.798C64.5081 93.302 64.6948 93.9787 64.6948 94.828V99H63.7428L63.6448 98.188H63.6028C63.2761 98.4587 62.9261 98.692 62.5528 98.888C62.1795 99.0747 61.7781 99.168 61.3488 99.168ZM61.6848 98.244C62.0115 98.244 62.3195 98.1693 62.6088 98.02C62.8981 97.8613 63.2061 97.6327 63.5328 97.334V95.444C62.9635 95.5187 62.4828 95.6073 62.0908 95.71C61.7081 95.8127 61.3955 95.934 61.1528 96.074C60.9195 96.214 60.7468 96.3773 60.6348 96.564C60.5321 96.7413 60.4808 96.9373 60.4808 97.152C60.4808 97.544 60.5975 97.824 60.8308 97.992C61.0641 98.16 61.3488 98.244 61.6848 98.244ZM68.7815 99.168C68.3055 99.168 67.8575 99.1073 67.4375 98.986C67.0175 98.8553 66.6068 98.6267 66.2055 98.3L66.6955 97.558C67.0128 97.8193 67.3348 98.0013 67.6615 98.104C67.9975 98.1973 68.3382 98.244 68.6835 98.244C68.9168 98.244 69.1362 98.216 69.3415 98.16C69.5468 98.104 69.7242 98.0247 69.8735 97.922C70.0322 97.8193 70.1535 97.6933 70.2375 97.544C70.3308 97.3853 70.3775 97.2127 70.3775 97.026C70.3775 96.634 70.2282 96.3447 69.9295 96.158C69.6308 95.9713 69.2015 95.878 68.6415 95.878H67.7035V95.052H68.4735C69.0242 95.052 69.4348 94.9587 69.7055 94.772C69.9762 94.576 70.1115 94.31 70.1115 93.974C70.1115 93.6287 69.9808 93.372 69.7195 93.204C69.4582 93.0267 69.1175 92.938 68.6975 92.938C68.3055 92.938 67.9648 92.9893 67.6755 93.092C67.3955 93.1947 67.1202 93.344 66.8495 93.54L66.3595 92.784C66.6862 92.5507 67.0408 92.3687 67.4235 92.238C67.8155 92.098 68.2588 92.028 68.7535 92.028C69.0895 92.028 69.4068 92.0653 69.7055 92.14C70.0042 92.2147 70.2655 92.3267 70.4895 92.476C70.7135 92.6253 70.8908 92.8167 71.0215 93.05C71.1615 93.2833 71.2315 93.554 71.2315 93.862C71.2315 94.1887 71.1335 94.4873 70.9375 94.758C70.7415 95.0287 70.4662 95.234 70.1115 95.374V95.43C70.5035 95.5327 70.8348 95.7193 71.1055 95.99C71.3855 96.2513 71.5255 96.6293 71.5255 97.124C71.5255 97.4413 71.4508 97.726 71.3015 97.978C71.1522 98.23 70.9515 98.4447 70.6995 98.622C70.4475 98.7993 70.1535 98.9347 69.8175 99.028C69.4908 99.1213 69.1455 99.168 68.7815 99.168ZM73.2203 101.87V92.196H74.1723L74.2703 92.98H74.3123C74.6203 92.7187 74.9563 92.4947 75.3203 92.308C75.6936 92.1213 76.0809 92.028 76.4823 92.028C76.9209 92.028 77.3083 92.112 77.6443 92.28C77.9803 92.4387 78.2603 92.672 78.4843 92.98C78.7083 93.2787 78.8763 93.6427 78.9883 94.072C79.1096 94.492 79.1703 94.968 79.1703 95.5C79.1703 96.0787 79.0909 96.5967 78.9323 97.054C78.7736 97.502 78.5589 97.8847 78.2883 98.202C78.0176 98.5193 77.7049 98.762 77.3503 98.93C76.9956 99.0887 76.6223 99.168 76.2303 99.168C75.9129 99.168 75.5956 99.098 75.2783 98.958C74.9703 98.818 74.6576 98.6267 74.3403 98.384L74.3683 99.574V101.87H73.2203ZM76.0343 98.202C76.3143 98.202 76.5709 98.1413 76.8043 98.02C77.0469 97.8893 77.2523 97.712 77.4203 97.488C77.5976 97.2547 77.7329 96.97 77.8263 96.634C77.9289 96.298 77.9803 95.92 77.9803 95.5C77.9803 95.1267 77.9476 94.786 77.8823 94.478C77.8169 94.17 77.7096 93.9087 77.5603 93.694C77.4203 93.47 77.2336 93.2973 77.0003 93.176C76.7763 93.0547 76.5056 92.994 76.1883 92.994C75.8989 92.994 75.6049 93.0733 75.3063 93.232C75.0169 93.3907 74.7043 93.6193 74.3683 93.918V97.488C74.6763 97.7493 74.9749 97.936 75.2643 98.048C75.5536 98.1507 75.8103 98.202 76.0343 98.202ZM82.3625 99.168C81.7932 99.168 81.3172 99 80.9345 98.664C80.5612 98.328 80.3745 97.852 80.3745 97.236C80.3745 96.4893 80.7058 95.92 81.3685 95.528C82.0312 95.1267 83.0905 94.8467 84.5465 94.688C84.5465 94.4733 84.5232 94.2633 84.4765 94.058C84.4392 93.8527 84.3692 93.6707 84.2665 93.512C84.1638 93.3533 84.0192 93.2273 83.8325 93.134C83.6552 93.0313 83.4265 92.98 83.1465 92.98C82.7545 92.98 82.3858 93.0547 82.0405 93.204C81.6952 93.3533 81.3872 93.5213 81.1165 93.708L80.6685 92.91C80.9858 92.7047 81.3732 92.5087 81.8305 92.322C82.2878 92.126 82.7918 92.028 83.3425 92.028C84.1732 92.028 84.7752 92.2847 85.1485 92.798C85.5218 93.302 85.7085 93.9787 85.7085 94.828V99H84.7565L84.6585 98.188H84.6165C84.2898 98.4587 83.9398 98.692 83.5665 98.888C83.1932 99.0747 82.7918 99.168 82.3625 99.168ZM82.6985 98.244C83.0252 98.244 83.3332 98.1693 83.6225 98.02C83.9118 97.8613 84.2198 97.6327 84.5465 97.334V95.444C83.9772 95.5187 83.4965 95.6073 83.1045 95.71C82.7218 95.8127 82.4092 95.934 82.1665 96.074C81.9332 96.214 81.7605 96.3773 81.6485 96.564C81.5458 96.7413 81.4945 96.9373 81.4945 97.152C81.4945 97.544 81.6112 97.824 81.8445 97.992C82.0778 98.16 82.3625 98.244 82.6985 98.244ZM90.6492 99.168C89.6318 99.168 88.8432 98.7993 88.2832 98.062C87.7232 97.3153 87.4432 96.2513 87.4432 94.87C87.4432 93.722 87.5412 92.798 87.7372 92.098C87.9425 91.398 88.2318 90.8473 88.6052 90.446C88.9785 90.0353 89.4265 89.746 89.9492 89.578C90.4812 89.4007 91.0692 89.2607 91.7132 89.158C91.8998 89.13 92.0585 89.1067 92.1892 89.088C92.3198 89.06 92.4365 89.032 92.5392 89.004C92.6512 88.976 92.7492 88.9433 92.8332 88.906C92.9265 88.8687 93.0245 88.8267 93.1272 88.78L93.3512 89.83C93.1645 89.9513 92.9545 90.0447 92.7212 90.11C92.4972 90.166 92.2405 90.2173 91.9512 90.264C91.4005 90.348 90.9245 90.4367 90.5232 90.53C90.1312 90.6233 89.7998 90.782 89.5292 91.006C89.2678 91.2207 89.0625 91.5287 88.9132 91.93C88.7638 92.3313 88.6612 92.882 88.6052 93.582C88.9038 93.2087 89.2538 92.9287 89.6552 92.742C90.0658 92.546 90.4858 92.448 90.9152 92.448C91.3165 92.448 91.6852 92.5227 92.0212 92.672C92.3572 92.812 92.6418 93.022 92.8752 93.302C93.1178 93.5727 93.3045 93.904 93.4352 94.296C93.5752 94.688 93.6452 95.1313 93.6452 95.626C93.6452 96.1673 93.5658 96.6573 93.4072 97.096C93.2485 97.5347 93.0338 97.908 92.7632 98.216C92.4925 98.524 92.1752 98.762 91.8112 98.93C91.4472 99.0887 91.0598 99.168 90.6492 99.168ZM90.6492 98.216C90.9105 98.216 91.1485 98.1553 91.3632 98.034C91.5872 97.9033 91.7785 97.726 91.9372 97.502C92.1052 97.2687 92.2312 96.9933 92.3152 96.676C92.4085 96.3587 92.4552 96.0087 92.4552 95.626C92.4552 94.926 92.2965 94.3707 91.9792 93.96C91.6618 93.54 91.2092 93.33 90.6212 93.33C90.2945 93.33 89.9538 93.4187 89.5992 93.596C89.2445 93.7733 88.8945 94.0953 88.5492 94.562V95.094C88.5492 96.0833 88.7218 96.8533 89.0672 97.404C89.4218 97.9453 89.9492 98.216 90.6492 98.216ZM98.1104 99.168C97.6904 99.168 97.2891 99.0887 96.9064 98.93C96.5331 98.7713 96.2017 98.5427 95.9124 98.244C95.6231 97.936 95.3897 97.5627 95.2124 97.124C95.0444 96.676 94.9604 96.172 94.9604 95.612C94.9604 95.0427 95.0444 94.5387 95.2124 94.1C95.3897 93.652 95.6231 93.274 95.9124 92.966C96.2017 92.658 96.5331 92.4247 96.9064 92.266C97.2891 92.1073 97.6904 92.028 98.1104 92.028C98.5304 92.028 98.9271 92.1073 99.3004 92.266C99.6831 92.4247 100.019 92.658 100.308 92.966C100.598 93.274 100.826 93.652 100.994 94.1C101.172 94.5387 101.26 95.0427 101.26 95.612C101.26 96.172 101.172 96.676 100.994 97.124C100.826 97.5627 100.598 97.936 100.308 98.244C100.019 98.5427 99.6831 98.7713 99.3004 98.93C98.9271 99.0887 98.5304 99.168 98.1104 99.168ZM98.1104 98.216C98.3997 98.216 98.6657 98.1553 98.9084 98.034C99.1511 97.9033 99.3564 97.726 99.5244 97.502C99.7017 97.2687 99.8371 96.9933 99.9304 96.676C100.024 96.3587 100.07 96.004 100.07 95.612C100.07 95.22 100.024 94.8653 99.9304 94.548C99.8371 94.2213 99.7017 93.9413 99.5244 93.708C99.3564 93.4747 99.1511 93.2973 98.9084 93.176C98.6657 93.0453 98.3997 92.98 98.1104 92.98C97.8211 92.98 97.5551 93.0453 97.3124 93.176C97.0697 93.2973 96.8597 93.4747 96.6824 93.708C96.5144 93.9413 96.3837 94.2213 96.2904 94.548C96.1971 94.8653 96.1504 95.22 96.1504 95.612C96.1504 96.004 96.1971 96.3587 96.2904 96.676C96.3837 96.9933 96.5144 97.2687 96.6824 97.502C96.8597 97.726 97.0697 97.9033 97.3124 98.034C97.5551 98.1553 97.8211 98.216 98.1104 98.216ZM104.318 99V93.134H102.036V92.196H107.748V93.134H105.466V99H104.318ZM109.259 99V92.196H110.407V94.996H111.723L112.395 93.484C112.526 93.1853 112.657 92.9427 112.787 92.756C112.918 92.5693 113.058 92.4247 113.207 92.322C113.357 92.21 113.511 92.1353 113.669 92.098C113.828 92.0513 114.001 92.028 114.187 92.028C114.337 92.028 114.467 92.0513 114.579 92.098L114.383 93.176C114.337 93.1573 114.299 93.148 114.271 93.148C114.243 93.148 114.206 93.148 114.159 93.148C114.066 93.148 113.977 93.162 113.893 93.19C113.819 93.2087 113.739 93.2507 113.655 93.316C113.581 93.3813 113.501 93.4747 113.417 93.596C113.333 93.7173 113.249 93.876 113.165 94.072L112.591 95.416L114.901 99H113.641L111.751 95.934H110.407V99H109.259ZM116.232 99V92.196H117.352V95.024C117.352 95.388 117.338 95.7893 117.31 96.228C117.291 96.6573 117.268 97.0913 117.24 97.53H117.296C117.427 97.3153 117.576 97.0727 117.744 96.802C117.921 96.5313 118.071 96.2887 118.192 96.074L120.768 92.196H121.846V99H120.726V96.172C120.726 95.808 120.735 95.4113 120.754 94.982C120.782 94.5433 120.81 94.1 120.838 93.652H120.782C120.651 93.8667 120.497 94.114 120.32 94.394C120.152 94.6647 120.007 94.9027 119.886 95.108L117.296 99H116.232Z" fill="#121212" fill-opacity="0.8"/>
<line x1="77.001" y1="19.5" x2="166.996" y2="19.5625" stroke="#121212" stroke-width="3"/>
<path d="M81.9416 14V4.816H88.4516V14H87.2896V5.796H83.1036V14H81.9416ZM90.8531 16.87V7.196H91.8051L91.9031 7.98H91.9451C92.2531 7.71867 92.5891 7.49467 92.9531 7.308C93.3264 7.12133 93.7137 7.028 94.1151 7.028C94.5537 7.028 94.9411 7.112 95.2771 7.28C95.6131 7.43867 95.8931 7.672 96.1171 7.98C96.3411 8.27867 96.5091 8.64267 96.6211 9.072C96.7424 9.492 96.8031 9.968 96.8031 10.5C96.8031 11.0787 96.7237 11.5967 96.5651 12.054C96.4064 12.502 96.1917 12.8847 95.9211 13.202C95.6504 13.5193 95.3377 13.762 94.9831 13.93C94.6284 14.0887 94.2551 14.168 93.8631 14.168C93.5457 14.168 93.2284 14.098 92.9111 13.958C92.6031 13.818 92.2904 13.6267 91.9731 13.384L92.0011 14.574V16.87H90.8531ZM93.6671 13.202C93.9471 13.202 94.2037 13.1413 94.4371 13.02C94.6797 12.8893 94.8851 12.712 95.0531 12.488C95.2304 12.2547 95.3657 11.97 95.4591 11.634C95.5617 11.298 95.6131 10.92 95.6131 10.5C95.6131 10.1267 95.5804 9.786 95.5151 9.478C95.4497 9.17 95.3424 8.90867 95.1931 8.694C95.0531 8.47 94.8664 8.29733 94.6331 8.176C94.4091 8.05467 94.1384 7.994 93.8211 7.994C93.5317 7.994 93.2377 8.07333 92.9391 8.232C92.6497 8.39067 92.3371 8.61933 92.0011 8.918V12.488C92.3091 12.7493 92.6077 12.936 92.8971 13.048C93.1864 13.1507 93.4431 13.202 93.6671 13.202ZM101.265 14.168C100.845 14.168 100.443 14.0887 100.061 13.93C99.6874 13.7713 99.356 13.5427 99.0667 13.244C98.7774 12.936 98.544 12.5627 98.3667 12.124C98.1987 11.676 98.1147 11.172 98.1147 10.612C98.1147 10.0427 98.1987 9.53867 98.3667 9.1C98.544 8.652 98.7774 8.274 99.0667 7.966C99.356 7.658 99.6874 7.42467 100.061 7.266C100.443 7.10733 100.845 7.028 101.265 7.028C101.685 7.028 102.081 7.10733 102.455 7.266C102.837 7.42467 103.173 7.658 103.463 7.966C103.752 8.274 103.981 8.652 104.149 9.1C104.326 9.53867 104.415 10.0427 104.415 10.612C104.415 11.172 104.326 11.676 104.149 12.124C103.981 12.5627 103.752 12.936 103.463 13.244C103.173 13.5427 102.837 13.7713 102.455 13.93C102.081 14.0887 101.685 14.168 101.265 14.168ZM101.265 13.216C101.554 13.216 101.82 13.1553 102.063 13.034C102.305 12.9033 102.511 12.726 102.679 12.502C102.856 12.2687 102.991 11.9933 103.085 11.676C103.178 11.3587 103.225 11.004 103.225 10.612C103.225 10.22 103.178 9.86533 103.085 9.548C102.991 9.22133 102.856 8.94133 102.679 8.708C102.511 8.47467 102.305 8.29733 102.063 8.176C101.82 8.04533 101.554 7.98 101.265 7.98C100.975 7.98 100.709 8.04533 100.467 8.176C100.224 8.29733 100.014 8.47467 99.8367 8.708C99.6687 8.94133 99.538 9.22133 99.4447 9.548C99.3514 9.86533 99.3047 10.22 99.3047 10.612C99.3047 11.004 99.3514 11.3587 99.4447 11.676C99.538 11.9933 99.6687 12.2687 99.8367 12.502C100.014 12.726 100.224 12.9033 100.467 13.034C100.709 13.1553 100.975 13.216 101.265 13.216ZM106.445 14V16.408H105.451L105.325 13.79V13.062H105.661C105.754 13.006 105.843 12.9313 105.927 12.838C106.02 12.7353 106.104 12.5813 106.179 12.376C106.253 12.1707 106.328 11.8953 106.403 11.55C106.477 11.2047 106.547 10.7567 106.613 10.206L106.977 7.196H111.205V13.062H112.199V13.79L112.087 16.408H111.093V14H106.445ZM107.621 10.43C107.546 11.102 107.443 11.648 107.313 12.068C107.191 12.488 107.051 12.8193 106.893 13.062H110.057V8.134H107.887L107.621 10.43ZM113.658 14V7.196H116.276C116.649 7.196 116.99 7.22867 117.298 7.294C117.606 7.35933 117.867 7.462 118.082 7.602C118.306 7.73267 118.478 7.91 118.6 8.134C118.721 8.34867 118.782 8.61 118.782 8.918C118.782 9.30067 118.679 9.61333 118.474 9.856C118.278 10.0987 118.002 10.2713 117.648 10.374V10.416C117.844 10.4627 118.026 10.528 118.194 10.612C118.371 10.696 118.525 10.8033 118.656 10.934C118.786 11.0647 118.889 11.2233 118.964 11.41C119.038 11.5967 119.076 11.8113 119.076 12.054C119.076 12.39 119.006 12.6793 118.866 12.922C118.735 13.1647 118.548 13.37 118.306 13.538C118.072 13.6967 117.792 13.8133 117.466 13.888C117.139 13.9627 116.78 14 116.388 14H113.658ZM114.792 10.052H116.08C116.649 10.052 117.055 9.96333 117.298 9.786C117.54 9.59933 117.662 9.34733 117.662 9.03C117.662 8.71267 117.545 8.46533 117.312 8.288C117.078 8.11067 116.696 8.022 116.164 8.022H114.792V10.052ZM114.792 13.174H116.262C116.822 13.174 117.237 13.0713 117.508 12.866C117.788 12.6607 117.928 12.3667 117.928 11.984C117.928 11.6387 117.783 11.368 117.494 11.172C117.204 10.976 116.77 10.878 116.192 10.878H114.792V13.174ZM120.767 14V7.196H121.887V10.024C121.887 10.388 121.873 10.7893 121.845 11.228C121.826 11.6573 121.803 12.0913 121.775 12.53H121.831C121.962 12.3153 122.111 12.0727 122.279 11.802C122.456 11.5313 122.606 11.2887 122.727 11.074L125.303 7.196H126.381V14H125.261V11.172C125.261 10.808 125.27 10.4113 125.289 9.982C125.317 9.54333 125.345 9.1 125.373 8.652H125.317C125.186 8.86667 125.032 9.114 124.855 9.394C124.687 9.66467 124.542 9.90267 124.421 10.108L121.831 14H120.767ZM127.717 14L129.859 10.416L129.313 9.072C129.154 8.68 128.996 8.428 128.837 8.316C128.688 8.204 128.52 8.148 128.333 8.148C128.286 8.148 128.249 8.148 128.221 8.148C128.193 8.148 128.156 8.15733 128.109 8.176L127.899 7.098C128.02 7.05133 128.156 7.028 128.305 7.028C128.678 7.028 129.01 7.13067 129.299 7.336C129.588 7.532 129.854 7.91467 130.097 8.484L130.741 9.996H131.791V7.196H132.813V9.996H133.863L134.507 8.484C134.75 7.91467 135.016 7.532 135.305 7.336C135.594 7.13067 135.926 7.028 136.299 7.028C136.448 7.028 136.579 7.05133 136.691 7.098L136.495 8.176C136.448 8.15733 136.411 8.148 136.383 8.148C136.355 8.148 136.318 8.148 136.271 8.148C136.084 8.148 135.912 8.204 135.753 8.316C135.594 8.428 135.436 8.68 135.277 9.072L134.745 10.416L136.887 14H135.641L133.933 10.934H132.813V14H131.791V10.934H130.671L128.963 14H127.717ZM140.738 14.168C140.281 14.168 139.851 14.0887 139.45 13.93C139.058 13.762 138.713 13.5287 138.414 13.23C138.125 12.922 137.896 12.5487 137.728 12.11C137.56 11.6713 137.476 11.172 137.476 10.612C137.476 10.052 137.56 9.55267 137.728 9.114C137.905 8.666 138.134 8.288 138.414 7.98C138.703 7.672 139.03 7.43867 139.394 7.28C139.758 7.112 140.136 7.028 140.528 7.028C140.957 7.028 141.34 7.10267 141.676 7.252C142.021 7.40133 142.306 7.616 142.53 7.896C142.763 8.176 142.941 8.512 143.062 8.904C143.183 9.296 143.244 9.73467 143.244 10.22C143.244 10.3413 143.239 10.4627 143.23 10.584C143.23 10.696 143.221 10.794 143.202 10.878H138.61C138.657 11.606 138.881 12.1847 139.282 12.614C139.693 13.034 140.225 13.244 140.878 13.244C141.205 13.244 141.503 13.1973 141.774 13.104C142.054 13.0013 142.32 12.8707 142.572 12.712L142.978 13.468C142.679 13.6547 142.348 13.818 141.984 13.958C141.62 14.098 141.205 14.168 140.738 14.168ZM138.596 10.052H142.236C142.236 9.36133 142.087 8.83867 141.788 8.484C141.499 8.12 141.088 7.938 140.556 7.938C140.313 7.938 140.08 7.98467 139.856 8.078C139.641 8.17133 139.445 8.31133 139.268 8.498C139.091 8.67533 138.941 8.89467 138.82 9.156C138.708 9.41733 138.633 9.716 138.596 10.052ZM144.925 14V7.196H146.073V9.954H149.349V7.196H150.497V14H149.349V10.976H146.073V14H144.925ZM152.787 14V7.196H153.907V10.024C153.907 10.388 153.893 10.7893 153.865 11.228C153.846 11.6573 153.823 12.0913 153.795 12.53H153.851C153.981 12.3153 154.131 12.0727 154.299 11.802C154.476 11.5313 154.625 11.2887 154.747 11.074L157.323 7.196H158.401V14H157.281V11.172C157.281 10.808 157.29 10.4113 157.309 9.982C157.337 9.54333 157.365 9.1 157.393 8.652H157.337C157.206 8.86667 157.052 9.114 156.875 9.394C156.707 9.66467 156.562 9.90267 156.441 10.108L153.851 14H152.787ZM163.461 14.168C163.003 14.168 162.574 14.0887 162.173 13.93C161.781 13.762 161.435 13.5287 161.137 13.23C160.847 12.922 160.619 12.5487 160.451 12.11C160.283 11.6713 160.199 11.172 160.199 10.612C160.199 10.052 160.283 9.55267 160.451 9.114C160.628 8.666 160.857 8.288 161.137 7.98C161.426 7.672 161.753 7.43867 162.117 7.28C162.481 7.112 162.859 7.028 163.251 7.028C163.68 7.028 164.063 7.10267 164.399 7.252C164.744 7.40133 165.029 7.616 165.253 7.896C165.486 8.176 165.663 8.512 165.785 8.904C165.906 9.296 165.967 9.73467 165.967 10.22C165.967 10.3413 165.962 10.4627 165.953 10.584C165.953 10.696 165.943 10.794 165.925 10.878H161.333C161.379 11.606 161.603 12.1847 162.005 12.614C162.415 13.034 162.947 13.244 163.601 13.244C163.927 13.244 164.226 13.1973 164.497 13.104C164.777 13.0013 165.043 12.8707 165.295 12.712L165.701 13.468C165.402 13.6547 165.071 13.818 164.707 13.958C164.343 14.098 163.927 14.168 163.461 14.168ZM161.319 10.052H164.959C164.959 9.36133 164.809 8.83867 164.511 8.484C164.221 8.12 163.811 7.938 163.279 7.938C163.036 7.938 162.803 7.98467 162.579 8.078C162.364 8.17133 162.168 8.31133 161.991 8.498C161.813 8.67533 161.664 8.89467 161.543 9.156C161.431 9.41733 161.356 9.716 161.319 10.052ZM98.4546 33V26.196H99.5746V29.024C99.5746 29.388 99.5606 29.7893 99.5326 30.228C99.514 30.6573 99.4906 31.0913 99.4626 31.53H99.5186C99.6493 31.3153 99.7986 31.0727 99.9666 30.802C100.144 30.5313 100.293 30.2887 100.415 30.074L102.991 26.196H104.069V33H102.949V30.172C102.949 29.808 102.958 29.4113 102.977 28.982C103.005 28.5433 103.033 28.1 103.061 27.652H103.005C102.874 27.8667 102.72 28.114 102.543 28.394C102.375 28.6647 102.23 28.9027 102.109 29.108L99.5186 33H98.4546ZM111.819 33.168C111.399 33.168 110.998 33.0887 110.615 32.93C110.242 32.7713 109.911 32.5427 109.621 32.244C109.332 31.936 109.099 31.5627 108.921 31.124C108.753 30.676 108.669 30.172 108.669 29.612C108.669 29.0427 108.753 28.5387 108.921 28.1C109.099 27.652 109.332 27.274 109.621 26.966C109.911 26.658 110.242 26.4247 110.615 26.266C110.998 26.1073 111.399 26.028 111.819 26.028C112.239 26.028 112.636 26.1073 113.009 26.266C113.392 26.4247 113.728 26.658 114.017 26.966C114.307 27.274 114.535 27.652 114.703 28.1C114.881 28.5387 114.969 29.0427 114.969 29.612C114.969 30.172 114.881 30.676 114.703 31.124C114.535 31.5627 114.307 31.936 114.017 32.244C113.728 32.5427 113.392 32.7713 113.009 32.93C112.636 33.0887 112.239 33.168 111.819 33.168ZM111.819 32.216C112.109 32.216 112.375 32.1553 112.617 32.034C112.86 31.9033 113.065 31.726 113.233 31.502C113.411 31.2687 113.546 30.9933 113.639 30.676C113.733 30.3587 113.779 30.004 113.779 29.612C113.779 29.22 113.733 28.8653 113.639 28.548C113.546 28.2213 113.411 27.9413 113.233 27.708C113.065 27.4747 112.86 27.2973 112.617 27.176C112.375 27.0453 112.109 26.98 111.819 26.98C111.53 26.98 111.264 27.0453 111.021 27.176C110.779 27.2973 110.569 27.4747 110.391 27.708C110.223 27.9413 110.093 28.2213 109.999 28.548C109.906 28.8653 109.859 29.22 109.859 29.612C109.859 30.004 109.906 30.3587 109.999 30.676C110.093 30.9933 110.223 31.2687 110.391 31.502C110.569 31.726 110.779 31.9033 111.021 32.034C111.264 32.1553 111.53 32.216 111.819 32.216ZM119.561 33.168C118.544 33.168 117.755 32.7993 117.195 32.062C116.635 31.3153 116.355 30.2513 116.355 28.87C116.355 27.722 116.453 26.798 116.649 26.098C116.855 25.398 117.144 24.8473 117.517 24.446C117.891 24.0353 118.339 23.746 118.861 23.578C119.393 23.4007 119.981 23.2607 120.625 23.158C120.812 23.13 120.971 23.1067 121.101 23.088C121.232 23.06 121.349 23.032 121.451 23.004C121.563 22.976 121.661 22.9433 121.745 22.906C121.839 22.8687 121.937 22.8267 122.039 22.78L122.263 23.83C122.077 23.9513 121.867 24.0447 121.633 24.11C121.409 24.166 121.153 24.2173 120.863 24.264C120.313 24.348 119.837 24.4367 119.435 24.53C119.043 24.6233 118.712 24.782 118.441 25.006C118.18 25.2207 117.975 25.5287 117.825 25.93C117.676 26.3313 117.573 26.882 117.517 27.582C117.816 27.2087 118.166 26.9287 118.567 26.742C118.978 26.546 119.398 26.448 119.827 26.448C120.229 26.448 120.597 26.5227 120.933 26.672C121.269 26.812 121.554 27.022 121.787 27.302C122.03 27.5727 122.217 27.904 122.347 28.296C122.487 28.688 122.557 29.1313 122.557 29.626C122.557 30.1673 122.478 30.6573 122.319 31.096C122.161 31.5347 121.946 31.908 121.675 32.216C121.405 32.524 121.087 32.762 120.723 32.93C120.359 33.0887 119.972 33.168 119.561 33.168ZM119.561 32.216C119.823 32.216 120.061 32.1553 120.275 32.034C120.499 31.9033 120.691 31.726 120.849 31.502C121.017 31.2687 121.143 30.9933 121.227 30.676C121.321 30.3587 121.367 30.0087 121.367 29.626C121.367 28.926 121.209 28.3707 120.891 27.96C120.574 27.54 120.121 27.33 119.533 27.33C119.207 27.33 118.866 27.4187 118.511 27.596C118.157 27.7733 117.807 28.0953 117.461 28.562V29.094C117.461 30.0833 117.634 30.8533 117.979 31.404C118.334 31.9453 118.861 32.216 119.561 32.216ZM124.393 35.926C124.234 35.926 124.089 35.912 123.959 35.884C123.828 35.8653 123.707 35.8327 123.595 35.786L123.819 34.876C123.893 34.8947 123.977 34.9133 124.071 34.932C124.164 34.96 124.253 34.974 124.337 34.974C124.729 34.974 125.046 34.834 125.289 34.554C125.541 34.2833 125.737 33.938 125.877 33.518L126.031 33.014L123.301 26.196H124.491L125.877 29.962C125.979 30.2607 126.087 30.578 126.199 30.914C126.32 31.2407 126.432 31.5627 126.535 31.88H126.591C126.693 31.572 126.791 31.25 126.885 30.914C126.978 30.578 127.071 30.2607 127.165 29.962L128.383 26.196H129.503L126.941 33.56C126.819 33.896 126.684 34.2087 126.535 34.498C126.385 34.7873 126.208 35.0347 126.003 35.24C125.797 35.4547 125.564 35.6227 125.303 35.744C125.041 35.8653 124.738 35.926 124.393 35.926ZM134.54 33V30.284C134.419 30.312 134.307 30.3353 134.204 30.354C134.111 30.3633 134.013 30.3773 133.91 30.396C133.817 30.4053 133.714 30.4147 133.602 30.424C133.49 30.424 133.359 30.424 133.21 30.424C132.342 30.424 131.67 30.242 131.194 29.878C130.727 29.514 130.494 28.9073 130.494 28.058V26.196H131.642V28.058C131.642 28.562 131.782 28.926 132.062 29.15C132.351 29.374 132.809 29.486 133.434 29.486C133.639 29.486 133.826 29.4767 133.994 29.458C134.162 29.4393 134.344 29.4067 134.54 29.36V26.196H135.688V33H134.54ZM140.738 33.168C140.281 33.168 139.851 33.0887 139.45 32.93C139.058 32.762 138.713 32.5287 138.414 32.23C138.125 31.922 137.896 31.5487 137.728 31.11C137.56 30.6713 137.476 30.172 137.476 29.612C137.476 29.052 137.56 28.5527 137.728 28.114C137.905 27.666 138.134 27.288 138.414 26.98C138.703 26.672 139.03 26.4387 139.394 26.28C139.758 26.112 140.136 26.028 140.528 26.028C140.957 26.028 141.34 26.1027 141.676 26.252C142.021 26.4013 142.306 26.616 142.53 26.896C142.763 27.176 142.941 27.512 143.062 27.904C143.183 28.296 143.244 28.7347 143.244 29.22C143.244 29.3413 143.239 29.4627 143.23 29.584C143.23 29.696 143.221 29.794 143.202 29.878H138.61C138.657 30.606 138.881 31.1847 139.282 31.614C139.693 32.034 140.225 32.244 140.878 32.244C141.205 32.244 141.503 32.1973 141.774 32.104C142.054 32.0013 142.32 31.8707 142.572 31.712L142.978 32.468C142.679 32.6547 142.348 32.818 141.984 32.958C141.62 33.098 141.205 33.168 140.738 33.168ZM138.596 29.052H142.236C142.236 28.3613 142.087 27.8387 141.788 27.484C141.499 27.12 141.088 26.938 140.556 26.938C140.313 26.938 140.08 26.9847 139.856 27.078C139.641 27.1713 139.445 27.3113 139.268 27.498C139.091 27.6753 138.941 27.8947 138.82 28.156C138.708 28.4173 138.633 28.716 138.596 29.052ZM144.925 33V26.196H146.073V28.954H149.349V26.196H150.497V33H149.349V29.976H146.073V33H144.925ZM152.787 33V26.196H153.907V29.024C153.907 29.388 153.893 29.7893 153.865 30.228C153.846 30.6573 153.823 31.0913 153.795 31.53H153.851C153.981 31.3153 154.131 31.0727 154.299 30.802C154.476 30.5313 154.625 30.2887 154.747 30.074L157.323 26.196H158.401V33H157.281V30.172C157.281 29.808 157.29 29.4113 157.309 28.982C157.337 28.5433 157.365 28.1 157.393 27.652H157.337C157.206 27.8667 157.052 28.114 156.875 28.394C156.707 28.6647 156.562 28.9027 156.441 29.108L153.851 33H152.787ZM163.461 33.168C163.003 33.168 162.574 33.0887 162.173 32.93C161.781 32.762 161.435 32.5287 161.137 32.23C160.847 31.922 160.619 31.5487 160.451 31.11C160.283 30.6713 160.199 30.172 160.199 29.612C160.199 29.052 160.283 28.5527 160.451 28.114C160.628 27.666 160.857 27.288 161.137 26.98C161.426 26.672 161.753 26.4387 162.117 26.28C162.481 26.112 162.859 26.028 163.251 26.028C163.68 26.028 164.063 26.1027 164.399 26.252C164.744 26.4013 165.029 26.616 165.253 26.896C165.486 27.176 165.663 27.512 165.785 27.904C165.906 28.296 165.967 28.7347 165.967 29.22C165.967 29.3413 165.962 29.4627 165.953 29.584C165.953 29.696 165.943 29.794 165.925 29.878H161.333C161.379 30.606 161.603 31.1847 162.005 31.614C162.415 32.034 162.947 32.244 163.601 32.244C163.927 32.244 164.226 32.1973 164.497 32.104C164.777 32.0013 165.043 31.8707 165.295 31.712L165.701 32.468C165.402 32.6547 165.071 32.818 164.707 32.958C164.343 33.098 163.927 33.168 163.461 33.168ZM161.319 29.052H164.959C164.959 28.3613 164.809 27.8387 164.511 27.484C164.221 27.12 163.811 26.938 163.279 26.938C163.036 26.938 162.803 26.9847 162.579 27.078C162.364 27.1713 162.168 27.3113 161.991 27.498C161.813 27.6753 161.664 27.8947 161.543 28.156C161.431 28.4173 161.356 28.716 161.319 29.052Z" fill="#121212" fill-opacity="0.8"/>
<line x1="333.353" y1="183.75" x2="447.353" y2="183.75" stroke="#121212" stroke-width="3"/>
<path d="M340.26 178V168.816H341.422V172.694H343.004L344.292 170.356C344.488 170.011 344.665 169.726 344.824 169.502C344.983 169.278 345.141 169.105 345.3 168.984C345.468 168.853 345.636 168.765 345.804 168.718C345.972 168.671 346.159 168.648 346.364 168.648C346.448 168.648 346.532 168.657 346.616 168.676C346.709 168.685 346.793 168.704 346.868 168.732L346.672 169.824C346.616 169.805 346.555 169.791 346.49 169.782C346.434 169.773 346.383 169.768 346.336 169.768C346.233 169.768 346.14 169.782 346.056 169.81C345.972 169.838 345.883 169.894 345.79 169.978C345.706 170.062 345.613 170.179 345.51 170.328C345.407 170.477 345.286 170.678 345.146 170.93L343.928 173.1L347.092 178H345.818L342.99 173.646H341.422V178H340.26ZM348.269 180.87V171.196H349.221L349.319 171.98H349.361C349.669 171.719 350.005 171.495 350.369 171.308C350.742 171.121 351.13 171.028 351.531 171.028C351.97 171.028 352.357 171.112 352.693 171.28C353.029 171.439 353.309 171.672 353.533 171.98C353.757 172.279 353.925 172.643 354.037 173.072C354.158 173.492 354.219 173.968 354.219 174.5C354.219 175.079 354.14 175.597 353.981 176.054C353.822 176.502 353.608 176.885 353.337 177.202C353.066 177.519 352.754 177.762 352.399 177.93C352.044 178.089 351.671 178.168 351.279 178.168C350.962 178.168 350.644 178.098 350.327 177.958C350.019 177.818 349.706 177.627 349.389 177.384L349.417 178.574V180.87H348.269ZM351.083 177.202C351.363 177.202 351.62 177.141 351.853 177.02C352.096 176.889 352.301 176.712 352.469 176.488C352.646 176.255 352.782 175.97 352.875 175.634C352.978 175.298 353.029 174.92 353.029 174.5C353.029 174.127 352.996 173.786 352.931 173.478C352.866 173.17 352.758 172.909 352.609 172.694C352.469 172.47 352.282 172.297 352.049 172.176C351.825 172.055 351.554 171.994 351.237 171.994C350.948 171.994 350.654 172.073 350.355 172.232C350.066 172.391 349.753 172.619 349.417 172.918V176.488C349.725 176.749 350.024 176.936 350.313 177.048C350.602 177.151 350.859 177.202 351.083 177.202ZM356.035 178V171.196H357.155V174.024C357.155 174.388 357.141 174.789 357.113 175.228C357.094 175.657 357.071 176.091 357.043 176.53H357.099C357.229 176.315 357.379 176.073 357.547 175.802C357.724 175.531 357.873 175.289 357.995 175.074L360.571 171.196H361.649V178H360.529V175.172C360.529 174.808 360.538 174.411 360.557 173.982C360.585 173.543 360.613 173.1 360.641 172.652H360.585C360.454 172.867 360.3 173.114 360.123 173.394C359.955 173.665 359.81 173.903 359.689 174.108L357.099 178H356.035ZM363.951 178V171.196H369.397V178H368.249V172.134H365.099V178H363.951ZM373.187 178V172.134H370.905V171.196H376.617V172.134H374.335V178H373.187ZM380.583 178.168C380.163 178.168 379.762 178.089 379.379 177.93C379.006 177.771 378.674 177.543 378.385 177.244C378.096 176.936 377.862 176.563 377.685 176.124C377.517 175.676 377.433 175.172 377.433 174.612C377.433 174.043 377.517 173.539 377.685 173.1C377.862 172.652 378.096 172.274 378.385 171.966C378.674 171.658 379.006 171.425 379.379 171.266C379.762 171.107 380.163 171.028 380.583 171.028C381.003 171.028 381.4 171.107 381.773 171.266C382.156 171.425 382.492 171.658 382.781 171.966C383.07 172.274 383.299 172.652 383.467 173.1C383.644 173.539 383.733 174.043 383.733 174.612C383.733 175.172 383.644 175.676 383.467 176.124C383.299 176.563 383.07 176.936 382.781 177.244C382.492 177.543 382.156 177.771 381.773 177.93C381.4 178.089 381.003 178.168 380.583 178.168ZM380.583 177.216C380.872 177.216 381.138 177.155 381.381 177.034C381.624 176.903 381.829 176.726 381.997 176.502C382.174 176.269 382.31 175.993 382.403 175.676C382.496 175.359 382.543 175.004 382.543 174.612C382.543 174.22 382.496 173.865 382.403 173.548C382.31 173.221 382.174 172.941 381.997 172.708C381.829 172.475 381.624 172.297 381.381 172.176C381.138 172.045 380.872 171.98 380.583 171.98C380.294 171.98 380.028 172.045 379.785 172.176C379.542 172.297 379.332 172.475 379.155 172.708C378.987 172.941 378.856 173.221 378.763 173.548C378.67 173.865 378.623 174.22 378.623 174.612C378.623 175.004 378.67 175.359 378.763 175.676C378.856 175.993 378.987 176.269 379.155 176.502C379.332 176.726 379.542 176.903 379.785 177.034C380.028 177.155 380.294 177.216 380.583 177.216ZM385.033 174.934V174.052H388.253V174.934H385.033ZM391.084 178V172.134H388.802V171.196H394.514V172.134H392.232V178H391.084ZM396.025 180.87V171.196H396.977L397.075 171.98H397.117C397.425 171.719 397.761 171.495 398.125 171.308C398.498 171.121 398.886 171.028 399.287 171.028C399.726 171.028 400.113 171.112 400.449 171.28C400.785 171.439 401.065 171.672 401.289 171.98C401.513 172.279 401.681 172.643 401.793 173.072C401.914 173.492 401.975 173.968 401.975 174.5C401.975 175.079 401.896 175.597 401.737 176.054C401.578 176.502 401.364 176.885 401.093 177.202C400.822 177.519 400.51 177.762 400.155 177.93C399.8 178.089 399.427 178.168 399.035 178.168C398.718 178.168 398.4 178.098 398.083 177.958C397.775 177.818 397.462 177.627 397.145 177.384L397.173 178.574V180.87H396.025ZM398.839 177.202C399.119 177.202 399.376 177.141 399.609 177.02C399.852 176.889 400.057 176.712 400.225 176.488C400.402 176.255 400.538 175.97 400.631 175.634C400.734 175.298 400.785 174.92 400.785 174.5C400.785 174.127 400.752 173.786 400.687 173.478C400.622 173.17 400.514 172.909 400.365 172.694C400.225 172.47 400.038 172.297 399.805 172.176C399.581 172.055 399.31 171.994 398.993 171.994C398.704 171.994 398.41 172.073 398.111 172.232C397.822 172.391 397.509 172.619 397.173 172.918V176.488C397.481 176.749 397.78 176.936 398.069 177.048C398.358 177.151 398.615 177.202 398.839 177.202ZM406.549 178.168C406.091 178.168 405.662 178.089 405.261 177.93C404.869 177.762 404.523 177.529 404.225 177.23C403.935 176.922 403.707 176.549 403.539 176.11C403.371 175.671 403.287 175.172 403.287 174.612C403.287 174.052 403.371 173.553 403.539 173.114C403.716 172.666 403.945 172.288 404.225 171.98C404.514 171.672 404.841 171.439 405.205 171.28C405.569 171.112 405.947 171.028 406.339 171.028C406.768 171.028 407.151 171.103 407.487 171.252C407.832 171.401 408.117 171.616 408.341 171.896C408.574 172.176 408.751 172.512 408.873 172.904C408.994 173.296 409.055 173.735 409.055 174.22C409.055 174.341 409.05 174.463 409.041 174.584C409.041 174.696 409.031 174.794 409.013 174.878H404.421C404.467 175.606 404.691 176.185 405.093 176.614C405.503 177.034 406.035 177.244 406.689 177.244C407.015 177.244 407.314 177.197 407.585 177.104C407.865 177.001 408.131 176.871 408.383 176.712L408.789 177.468C408.49 177.655 408.159 177.818 407.795 177.958C407.431 178.098 407.015 178.168 406.549 178.168ZM404.407 174.052H408.047C408.047 173.361 407.897 172.839 407.599 172.484C407.309 172.12 406.899 171.938 406.367 171.938C406.124 171.938 405.891 171.985 405.667 172.078C405.452 172.171 405.256 172.311 405.079 172.498C404.901 172.675 404.752 172.895 404.631 173.156C404.519 173.417 404.444 173.716 404.407 174.052ZM410.736 178V171.196H411.856V174.024C411.856 174.388 411.842 174.789 411.814 175.228C411.795 175.657 411.772 176.091 411.744 176.53H411.8C411.931 176.315 412.08 176.073 412.248 175.802C412.425 175.531 412.575 175.289 412.696 175.074L415.272 171.196H416.35V178H415.23V175.172C415.23 174.808 415.239 174.411 415.258 173.982C415.286 173.543 415.314 173.1 415.342 172.652H415.286C415.155 172.867 415.001 173.114 414.824 173.394C414.656 173.665 414.511 173.903 414.39 174.108L411.8 178H410.736ZM413.578 169.978C413.186 169.978 412.855 169.917 412.584 169.796C412.313 169.675 412.089 169.516 411.912 169.32C411.735 169.115 411.604 168.886 411.52 168.634C411.436 168.373 411.389 168.107 411.38 167.836H412.332C412.341 168.032 412.365 168.223 412.402 168.41C412.449 168.587 412.519 168.741 412.612 168.872C412.715 169.003 412.841 169.11 412.99 169.194C413.149 169.269 413.345 169.306 413.578 169.306C413.811 169.306 414.003 169.269 414.152 169.194C414.311 169.11 414.437 169.003 414.53 168.872C414.633 168.741 414.703 168.587 414.74 168.41C414.787 168.223 414.815 168.032 414.824 167.836H415.776C415.757 168.107 415.706 168.373 415.622 168.634C415.547 168.886 415.421 169.115 415.244 169.32C415.067 169.516 414.843 169.675 414.572 169.796C414.301 169.917 413.97 169.978 413.578 169.978ZM418.89 178V180.408H417.896L417.77 177.79V177.062H418.106C418.199 177.006 418.288 176.931 418.372 176.838C418.465 176.735 418.549 176.581 418.624 176.376C418.699 176.171 418.773 175.895 418.848 175.55C418.923 175.205 418.993 174.757 419.058 174.206L419.422 171.196H423.65V177.062H424.644V177.79L424.532 180.408H423.538V178H418.89ZM420.066 174.43C419.991 175.102 419.889 175.648 419.758 176.068C419.637 176.488 419.497 176.819 419.338 177.062H422.502V172.134H420.332L420.066 174.43ZM426.103 178V171.196H427.223V174.024C427.223 174.388 427.209 174.789 427.181 175.228C427.162 175.657 427.139 176.091 427.111 176.53H427.167C427.298 176.315 427.447 176.073 427.615 175.802C427.792 175.531 427.942 175.289 428.063 175.074L430.639 171.196H431.717V178H430.597V175.172C430.597 174.808 430.606 174.411 430.625 173.982C430.653 173.543 430.681 173.1 430.709 172.652H430.653C430.522 172.867 430.368 173.114 430.191 173.394C430.023 173.665 429.878 173.903 429.757 174.108L427.167 178H426.103ZM434.019 178V171.196H435.167V173.954H438.443V171.196H439.591V178H438.443V174.976H435.167V178H434.019ZM441.88 178V171.196H446.122V172.134H443.028V178H441.88Z" fill="#121212" fill-opacity="0.8"/>
<line x1="40.9792" y1="87.5001" x2="125.979" y2="86.32" stroke="#121212" stroke-width="3"/>
<path d="M281.454 162.477H282.808C283.452 162.477 283.93 162.315 284.24 161.993C284.551 161.671 284.706 161.243 284.706 160.71C284.706 160.194 284.551 159.793 284.24 159.506C283.936 159.219 283.514 159.075 282.975 159.075C282.488 159.075 282.081 159.21 281.753 159.479C281.425 159.743 281.261 160.089 281.261 160.517H278.721C278.721 159.849 278.899 159.251 279.257 158.724C279.62 158.19 280.124 157.774 280.769 157.476C281.419 157.177 282.134 157.027 282.913 157.027C284.267 157.027 285.327 157.353 286.095 158.003C286.862 158.647 287.246 159.538 287.246 160.675C287.246 161.261 287.067 161.8 286.71 162.292C286.353 162.784 285.884 163.162 285.304 163.426C286.024 163.684 286.561 164.07 286.912 164.586C287.27 165.102 287.448 165.711 287.448 166.414C287.448 167.551 287.032 168.462 286.2 169.147C285.374 169.833 284.278 170.176 282.913 170.176C281.636 170.176 280.59 169.839 279.775 169.165C278.967 168.491 278.562 167.601 278.562 166.493H281.103C281.103 166.974 281.281 167.366 281.639 167.671C282.002 167.976 282.447 168.128 282.975 168.128C283.578 168.128 284.05 167.97 284.39 167.653C284.735 167.331 284.908 166.906 284.908 166.379C284.908 165.102 284.205 164.463 282.799 164.463H281.454V162.477ZM297.819 164.709C297.819 166.479 297.453 167.832 296.721 168.77C295.988 169.707 294.916 170.176 293.504 170.176C292.109 170.176 291.043 169.716 290.305 168.796C289.566 167.876 289.188 166.558 289.171 164.841V162.485C289.171 160.698 289.54 159.342 290.278 158.416C291.022 157.49 292.092 157.027 293.486 157.027C294.881 157.027 295.947 157.487 296.686 158.407C297.424 159.321 297.802 160.637 297.819 162.354V164.709ZM295.279 162.125C295.279 161.064 295.133 160.294 294.84 159.813C294.553 159.327 294.102 159.084 293.486 159.084C292.889 159.084 292.446 159.315 292.159 159.778C291.878 160.235 291.729 160.953 291.711 161.932V165.043C291.711 166.086 291.852 166.862 292.133 167.372C292.42 167.876 292.877 168.128 293.504 168.128C294.125 168.128 294.573 167.885 294.849 167.398C295.124 166.912 295.268 166.168 295.279 165.166V162.125ZM299.507 159.664C299.507 158.879 299.762 158.243 300.271 157.757C300.781 157.265 301.449 157.019 302.275 157.019C303.113 157.019 303.787 157.262 304.297 157.748C304.807 158.229 305.062 158.882 305.062 159.708V160.341C305.062 161.132 304.807 161.768 304.297 162.248C303.787 162.729 303.119 162.969 302.293 162.969C301.461 162.969 300.787 162.729 300.271 162.248C299.762 161.762 299.507 161.108 299.507 160.288V159.664ZM301.194 160.341C301.194 160.692 301.294 160.977 301.493 161.193C301.698 161.404 301.965 161.51 302.293 161.51C302.621 161.51 302.882 161.401 303.075 161.185C303.269 160.968 303.365 160.678 303.365 160.314V159.664C303.365 159.312 303.269 159.028 303.075 158.812C302.882 158.595 302.615 158.486 302.275 158.486C301.953 158.486 301.692 158.595 301.493 158.812C301.294 159.022 301.194 159.318 301.194 159.699V160.341ZM305.624 166.862C305.624 166.071 305.882 165.436 306.397 164.955C306.913 164.469 307.581 164.226 308.401 164.226C309.233 164.226 309.904 164.466 310.414 164.946C310.93 165.421 311.188 166.077 311.188 166.915V167.548C311.188 168.333 310.936 168.969 310.432 169.455C309.928 169.936 309.257 170.176 308.419 170.176C307.575 170.176 306.898 169.933 306.389 169.446C305.879 168.96 305.624 168.315 305.624 167.513V166.862ZM307.312 167.548C307.312 167.87 307.417 168.146 307.628 168.374C307.839 168.603 308.103 168.717 308.419 168.717C309.134 168.717 309.491 168.321 309.491 167.53V166.862C309.491 166.511 309.392 166.229 309.192 166.019C308.993 165.802 308.729 165.693 308.401 165.693C308.073 165.693 307.81 165.802 307.61 166.019C307.411 166.229 307.312 166.52 307.312 166.889V167.548ZM302.794 169.042L301.555 168.374L307.804 158.372L309.043 159.04L302.794 169.042Z" fill="white"/>
<path d="M244.642 33H235.87V31.2598L240.01 26.8477C240.578 26.2266 240.997 25.6846 241.267 25.2217C241.542 24.7588 241.68 24.3193 241.68 23.9033C241.68 23.335 241.536 22.8896 241.249 22.5674C240.962 22.2393 240.552 22.0752 240.019 22.0752C239.444 22.0752 238.99 22.2744 238.656 22.6729C238.328 23.0654 238.164 23.584 238.164 24.2285H235.615C235.615 23.4492 235.8 22.7373 236.169 22.0928C236.544 21.4482 237.071 20.9443 237.751 20.5811C238.431 20.2119 239.201 20.0273 240.062 20.0273C241.381 20.0273 242.403 20.3438 243.13 20.9766C243.862 21.6094 244.229 22.5029 244.229 23.6572C244.229 24.29 244.064 24.9346 243.736 25.5908C243.408 26.2471 242.846 27.0117 242.049 27.8848L239.14 30.9521H244.642V33ZM246.584 26.707L247.322 20.2031H254.494V22.3213H249.405L249.089 25.0723C249.692 24.75 250.334 24.5889 251.014 24.5889C252.232 24.5889 253.188 24.9668 253.879 25.7227C254.57 26.4785 254.916 27.5361 254.916 28.8955C254.916 29.7217 254.74 30.4629 254.389 31.1191C254.043 31.7695 253.545 32.2764 252.895 32.6396C252.244 32.9971 251.477 33.1758 250.592 33.1758C249.818 33.1758 249.101 33.0205 248.438 32.71C247.776 32.3936 247.252 31.9512 246.865 31.3828C246.484 30.8145 246.282 30.167 246.259 29.4404H248.772C248.825 29.9736 249.01 30.3896 249.326 30.6885C249.648 30.9814 250.067 31.1279 250.583 31.1279C251.157 31.1279 251.6 30.9229 251.91 30.5127C252.221 30.0967 252.376 29.5107 252.376 28.7549C252.376 28.0283 252.197 27.4717 251.84 27.085C251.482 26.6982 250.976 26.5049 250.319 26.5049C249.716 26.5049 249.227 26.6631 248.852 26.9795L248.605 27.208L246.584 26.707ZM256.507 22.6641C256.507 21.8789 256.762 21.2432 257.271 20.7568C257.781 20.2646 258.449 20.0186 259.275 20.0186C260.113 20.0186 260.787 20.2617 261.297 20.748C261.807 21.2285 262.062 21.8818 262.062 22.708V23.3408C262.062 24.1318 261.807 24.7676 261.297 25.248C260.787 25.7285 260.119 25.9688 259.293 25.9688C258.461 25.9688 257.787 25.7285 257.271 25.248C256.762 24.7617 256.507 24.1084 256.507 23.2881V22.6641ZM258.194 23.3408C258.194 23.6924 258.294 23.9766 258.493 24.1934C258.698 24.4043 258.965 24.5098 259.293 24.5098C259.621 24.5098 259.882 24.4014 260.075 24.1846C260.269 23.9678 260.365 23.6777 260.365 23.3145V22.6641C260.365 22.3125 260.269 22.0283 260.075 21.8115C259.882 21.5947 259.615 21.4863 259.275 21.4863C258.953 21.4863 258.692 21.5947 258.493 21.8115C258.294 22.0225 258.194 22.3184 258.194 22.6992V23.3408ZM262.624 29.8623C262.624 29.0713 262.882 28.4355 263.397 27.9551C263.913 27.4688 264.581 27.2256 265.401 27.2256C266.233 27.2256 266.904 27.4658 267.414 27.9463C267.93 28.4209 268.188 29.0771 268.188 29.915V30.5479C268.188 31.333 267.936 31.9688 267.432 32.4551C266.928 32.9355 266.257 33.1758 265.419 33.1758C264.575 33.1758 263.898 32.9326 263.389 32.4463C262.879 31.96 262.624 31.3154 262.624 30.5127V29.8623ZM264.312 30.5479C264.312 30.8701 264.417 31.1455 264.628 31.374C264.839 31.6025 265.103 31.7168 265.419 31.7168C266.134 31.7168 266.491 31.3213 266.491 30.5303V29.8623C266.491 29.5107 266.392 29.2295 266.192 29.0186C265.993 28.8018 265.729 28.6934 265.401 28.6934C265.073 28.6934 264.81 28.8018 264.61 29.0186C264.411 29.2295 264.312 29.5195 264.312 29.8887V30.5479ZM259.794 32.042L258.555 31.374L264.804 21.3721L266.043 22.04L259.794 32.042Z" fill="white"/>
<path d="M307.04 84H304.5V74.209L301.468 75.1494V73.084L306.768 71.1855H307.04V84ZM319.819 78.709C319.819 80.4785 319.453 81.832 318.721 82.7695C317.988 83.707 316.916 84.1758 315.504 84.1758C314.109 84.1758 313.043 83.7158 312.305 82.7959C311.566 81.876 311.188 80.5576 311.171 78.8408V76.4854C311.171 74.6982 311.54 73.3418 312.278 72.416C313.022 71.4902 314.092 71.0273 315.486 71.0273C316.881 71.0273 317.947 71.4873 318.686 72.4072C319.424 73.3213 319.802 74.6367 319.819 76.3535V78.709ZM317.279 76.125C317.279 75.0645 317.133 74.2939 316.84 73.8135C316.553 73.3271 316.102 73.084 315.486 73.084C314.889 73.084 314.446 73.3154 314.159 73.7783C313.878 74.2354 313.729 74.9531 313.711 75.9316V79.043C313.711 80.0859 313.852 80.8623 314.133 81.3721C314.42 81.876 314.877 82.1279 315.504 82.1279C316.125 82.1279 316.573 81.8848 316.849 81.3984C317.124 80.9121 317.268 80.168 317.279 79.166V76.125ZM321.507 73.6641C321.507 72.8789 321.762 72.2432 322.271 71.7568C322.781 71.2646 323.449 71.0186 324.275 71.0186C325.113 71.0186 325.787 71.2617 326.297 71.748C326.807 72.2285 327.062 72.8818 327.062 73.708V74.3408C327.062 75.1318 326.807 75.7676 326.297 76.248C325.787 76.7285 325.119 76.9688 324.293 76.9688C323.461 76.9688 322.787 76.7285 322.271 76.248C321.762 75.7617 321.507 75.1084 321.507 74.2881V73.6641ZM323.194 74.3408C323.194 74.6924 323.294 74.9766 323.493 75.1934C323.698 75.4043 323.965 75.5098 324.293 75.5098C324.621 75.5098 324.882 75.4014 325.075 75.1846C325.269 74.9678 325.365 74.6777 325.365 74.3145V73.6641C325.365 73.3125 325.269 73.0283 325.075 72.8115C324.882 72.5947 324.615 72.4863 324.275 72.4863C323.953 72.4863 323.692 72.5947 323.493 72.8115C323.294 73.0225 323.194 73.3184 323.194 73.6992V74.3408ZM327.624 80.8623C327.624 80.0713 327.882 79.4355 328.397 78.9551C328.913 78.4688 329.581 78.2256 330.401 78.2256C331.233 78.2256 331.904 78.4658 332.414 78.9463C332.93 79.4209 333.188 80.0771 333.188 80.915V81.5479C333.188 82.333 332.936 82.9688 332.432 83.4551C331.928 83.9355 331.257 84.1758 330.419 84.1758C329.575 84.1758 328.898 83.9326 328.389 83.4463C327.879 82.96 327.624 82.3154 327.624 81.5127V80.8623ZM329.312 81.5479C329.312 81.8701 329.417 82.1455 329.628 82.374C329.839 82.6025 330.103 82.7168 330.419 82.7168C331.134 82.7168 331.491 82.3213 331.491 81.5303V80.8623C331.491 80.5107 331.392 80.2295 331.192 80.0186C330.993 79.8018 330.729 79.6934 330.401 79.6934C330.073 79.6934 329.81 79.8018 329.61 80.0186C329.411 80.2295 329.312 80.5195 329.312 80.8887V81.5479ZM324.794 83.042L323.555 82.374L329.804 72.3721L331.043 73.04L324.794 83.042Z" fill="white"/>
<path d="M153.454 116.477H154.808C155.452 116.477 155.93 116.315 156.24 115.993C156.551 115.671 156.706 115.243 156.706 114.71C156.706 114.194 156.551 113.793 156.24 113.506C155.936 113.219 155.514 113.075 154.975 113.075C154.488 113.075 154.081 113.21 153.753 113.479C153.425 113.743 153.261 114.089 153.261 114.517H150.721C150.721 113.849 150.899 113.251 151.257 112.724C151.62 112.19 152.124 111.774 152.769 111.476C153.419 111.177 154.134 111.027 154.913 111.027C156.267 111.027 157.327 111.353 158.095 112.003C158.862 112.647 159.246 113.538 159.246 114.675C159.246 115.261 159.067 115.8 158.71 116.292C158.353 116.784 157.884 117.162 157.304 117.426C158.024 117.684 158.561 118.07 158.912 118.586C159.27 119.102 159.448 119.711 159.448 120.414C159.448 121.551 159.032 122.462 158.2 123.147C157.374 123.833 156.278 124.176 154.913 124.176C153.636 124.176 152.59 123.839 151.775 123.165C150.967 122.491 150.562 121.601 150.562 120.493H153.103C153.103 120.974 153.281 121.366 153.639 121.671C154.002 121.976 154.447 122.128 154.975 122.128C155.578 122.128 156.05 121.97 156.39 121.653C156.735 121.331 156.908 120.906 156.908 120.379C156.908 119.102 156.205 118.463 154.799 118.463H153.454V116.477ZM161.584 117.707L162.322 111.203H169.494V113.321H164.405L164.089 116.072C164.692 115.75 165.334 115.589 166.014 115.589C167.232 115.589 168.188 115.967 168.879 116.723C169.57 117.479 169.916 118.536 169.916 119.896C169.916 120.722 169.74 121.463 169.389 122.119C169.043 122.77 168.545 123.276 167.895 123.64C167.244 123.997 166.477 124.176 165.592 124.176C164.818 124.176 164.101 124.021 163.438 123.71C162.776 123.394 162.252 122.951 161.865 122.383C161.484 121.814 161.282 121.167 161.259 120.44H163.772C163.825 120.974 164.01 121.39 164.326 121.688C164.648 121.981 165.067 122.128 165.583 122.128C166.157 122.128 166.6 121.923 166.91 121.513C167.221 121.097 167.376 120.511 167.376 119.755C167.376 119.028 167.197 118.472 166.84 118.085C166.482 117.698 165.976 117.505 165.319 117.505C164.716 117.505 164.227 117.663 163.852 117.979L163.605 118.208L161.584 117.707ZM171.507 113.664C171.507 112.879 171.762 112.243 172.271 111.757C172.781 111.265 173.449 111.019 174.275 111.019C175.113 111.019 175.787 111.262 176.297 111.748C176.807 112.229 177.062 112.882 177.062 113.708V114.341C177.062 115.132 176.807 115.768 176.297 116.248C175.787 116.729 175.119 116.969 174.293 116.969C173.461 116.969 172.787 116.729 172.271 116.248C171.762 115.762 171.507 115.108 171.507 114.288V113.664ZM173.194 114.341C173.194 114.692 173.294 114.977 173.493 115.193C173.698 115.404 173.965 115.51 174.293 115.51C174.621 115.51 174.882 115.401 175.075 115.185C175.269 114.968 175.365 114.678 175.365 114.314V113.664C175.365 113.312 175.269 113.028 175.075 112.812C174.882 112.595 174.615 112.486 174.275 112.486C173.953 112.486 173.692 112.595 173.493 112.812C173.294 113.022 173.194 113.318 173.194 113.699V114.341ZM177.624 120.862C177.624 120.071 177.882 119.436 178.397 118.955C178.913 118.469 179.581 118.226 180.401 118.226C181.233 118.226 181.904 118.466 182.414 118.946C182.93 119.421 183.188 120.077 183.188 120.915V121.548C183.188 122.333 182.936 122.969 182.432 123.455C181.928 123.936 181.257 124.176 180.419 124.176C179.575 124.176 178.898 123.933 178.389 123.446C177.879 122.96 177.624 122.315 177.624 121.513V120.862ZM179.312 121.548C179.312 121.87 179.417 122.146 179.628 122.374C179.839 122.603 180.103 122.717 180.419 122.717C181.134 122.717 181.491 122.321 181.491 121.53V120.862C181.491 120.511 181.392 120.229 181.192 120.019C180.993 119.802 180.729 119.693 180.401 119.693C180.073 119.693 179.81 119.802 179.61 120.019C179.411 120.229 179.312 120.52 179.312 120.889V121.548ZM174.794 123.042L173.555 122.374L179.804 112.372L181.043 113.04L174.794 123.042Z" fill="white"/>
</svg>
