<svg width="249" height="500" viewBox="0 0 249 500" fill="none" xmlns="http://www.w3.org/2000/svg">
<path fill-rule="evenodd" clip-rule="evenodd" d="M210.373 0H38.4615C18.1854 0 1.74825 16.4371 1.74825 36.7133L1.74825 67.0163C0.782719 67.0163 0 67.799 0 68.7646V83.9161C0 84.8816 0.782719 85.6643 1.74825 85.6643V103.147C0.782719 103.147 0 103.93 0 104.895V137.529C0 138.495 0.782719 139.277 1.74825 139.277V148.601C0.782719 148.601 0 149.384 0 150.35V182.984C0 183.949 0.782719 184.732 1.74825 184.732L1.74825 463.287C1.74825 483.563 18.1854 500 38.4615 500H210.373C230.649 500 247.086 483.563 247.086 463.287V173.077C248.052 173.077 248.834 172.294 248.834 171.329V116.55C248.834 115.585 248.052 114.802 247.086 114.802V36.7133C247.086 16.4371 230.649 0 210.373 0ZM4.662 36.7133C4.662 18.0463 19.7946 2.91375 38.4615 2.91375H210.373C229.04 2.91375 244.172 18.0463 244.172 36.7133V463.287C244.172 481.954 229.04 497.086 210.373 497.086H38.4615C19.7946 497.086 4.662 481.954 4.662 463.287V36.7133Z" fill="#AABBCC"/>
<mask id="mask0" mask-type="alpha" maskUnits="userSpaceOnUse" x="15" y="13" width="219" height="474">
<path d="M210.373 486.597H38.4614C25.5826 486.597 15.1514 476.166 15.1514 463.287V36.7133C15.1514 23.8346 25.5826 13.4033 38.4614 13.4033H210.373C223.252 13.4033 233.683 23.8346 233.683 36.7133V463.287C233.683 476.166 223.252 486.597 210.373 486.597Z" fill="white"/>
</mask>
<g mask="url(#mask0)">
<rect x="15.1514" y="13.4033" width="218.531" height="473.193" fill="url(#paint0_linear)"/>
</g>
<path fill-rule="evenodd" clip-rule="evenodd" d="M233.683 36.7131C233.683 23.8343 223.252 13.4031 210.373 13.4031H189.685C187.111 13.4031 185.023 15.4903 185.023 18.0651V18.6478C185.023 25.7574 179.312 31.4684 172.203 31.4684H76.6318C69.5222 31.4684 63.8113 25.7574 63.8113 18.6478V18.0651C63.8113 15.4903 61.724 13.4031 59.1493 13.4031H38.4616C25.5829 13.4031 15.1516 23.8343 15.1516 36.7131V463.287C15.1516 476.165 25.5829 486.597 38.4616 486.597H210.373C223.252 486.597 233.683 476.165 233.683 463.287V36.7131ZM38.4616 2.91357H210.373C229.021 2.91357 244.173 18.0651 244.173 36.7131V463.287C244.173 481.935 229.021 497.086 210.373 497.086H38.4616C19.8136 497.086 4.66211 481.935 4.66211 463.287V36.7131C4.66211 18.0651 19.8136 2.91357 38.4616 2.91357Z" fill="#333333"/>
<path opacity="0.6" fill-rule="evenodd" clip-rule="evenodd" d="M85.6641 479.021C85.6641 478.216 86.3163 477.564 87.1209 477.564H162.296C163.1 477.564 163.753 478.216 163.753 479.021C163.753 479.826 163.1 480.478 162.296 480.478H87.1209C86.3163 480.478 85.6641 479.826 85.6641 479.021Z" fill="#333333"/>
<path d="M154.72 18.6481C154.72 20.901 152.893 22.7274 150.641 22.7274C148.388 22.7274 146.561 20.901 146.561 18.6481C146.561 16.3952 148.388 14.5688 150.641 14.5688C152.893 14.5688 154.72 16.3952 154.72 18.6481Z" fill="#4F4F4F"/>
<path d="M111.305 16.8999C110.339 16.8999 109.557 17.6826 109.557 18.6481C109.557 19.6136 110.339 20.3964 111.305 20.3964H136.946C137.911 20.3964 138.694 19.6136 138.694 18.6481C138.694 17.6826 137.911 16.8999 136.946 16.8999H111.305Z" fill="#4F4F4F"/>
<path d="M49.1008 276V264.264H58.2628V276H55.6168V266.496H51.7468V276H49.1008ZM64.6544 276.216C64.0904 276.216 63.5444 276.114 63.0164 275.91C62.4884 275.694 62.0204 275.388 61.6124 274.992C61.2164 274.596 60.8984 274.11 60.6584 273.534C60.4184 272.946 60.2984 272.28 60.2984 271.536C60.2984 270.792 60.4184 270.132 60.6584 269.556C60.8984 268.968 61.2164 268.476 61.6124 268.08C62.0204 267.684 62.4884 267.384 63.0164 267.18C63.5444 266.964 64.0904 266.856 64.6544 266.856C65.2184 266.856 65.7584 266.964 66.2744 267.18C66.8024 267.384 67.2644 267.684 67.6604 268.08C68.0684 268.476 68.3924 268.968 68.6324 269.556C68.8724 270.132 68.9924 270.792 68.9924 271.536C68.9924 272.28 68.8724 272.946 68.6324 273.534C68.3924 274.11 68.0684 274.596 67.6604 274.992C67.2644 275.388 66.8024 275.694 66.2744 275.91C65.7584 276.114 65.2184 276.216 64.6544 276.216ZM64.6544 274.074C65.1944 274.074 65.6024 273.846 65.8784 273.39C66.1544 272.934 66.2924 272.316 66.2924 271.536C66.2924 270.756 66.1544 270.138 65.8784 269.682C65.6024 269.226 65.1944 268.998 64.6544 268.998C64.1024 268.998 63.6884 269.226 63.4124 269.682C63.1484 270.138 63.0164 270.756 63.0164 271.536C63.0164 272.316 63.1484 272.934 63.4124 273.39C63.6884 273.846 64.1024 274.074 64.6544 274.074ZM70.8048 276.216C70.6008 276.216 70.4148 276.198 70.2468 276.162C70.0788 276.126 69.9108 276.078 69.7428 276.018L70.1748 273.642C70.2468 273.666 70.3188 273.684 70.3908 273.696C70.4628 273.708 70.5408 273.714 70.6248 273.714C70.8648 273.714 71.0688 273.618 71.2368 273.426C71.4168 273.222 71.5368 272.874 71.5968 272.382C71.7168 271.494 71.8188 270.612 71.9028 269.736C71.9988 268.86 72.1008 267.972 72.2088 267.072H78.7968V276H76.1508V269.142H74.2968C74.2128 269.802 74.1288 270.468 74.0448 271.14C73.9728 271.8 73.8888 272.46 73.7928 273.12C73.6488 274.128 73.3308 274.896 72.8388 275.424C72.3468 275.952 71.6688 276.216 70.8048 276.216ZM82.1131 279.492C81.8371 279.492 81.6031 279.474 81.4111 279.438C81.2191 279.414 81.0331 279.372 80.8531 279.312L81.3211 277.296C81.4051 277.32 81.5011 277.344 81.6091 277.368C81.7171 277.392 81.8191 277.404 81.9151 277.404C82.3591 277.404 82.7011 277.296 82.9411 277.08C83.1811 276.864 83.3611 276.582 83.4811 276.234L83.6071 275.766L80.1691 267.072H82.8331L84.1111 270.906C84.2431 271.314 84.3631 271.728 84.4711 272.148C84.5791 272.568 84.6931 273 84.8131 273.444H84.8851C84.9811 273.024 85.0771 272.604 85.1731 272.184C85.2811 271.752 85.3891 271.326 85.4971 270.906L86.5771 267.072H89.1151L86.0191 276.09C85.8031 276.654 85.5751 277.146 85.3351 277.566C85.1071 277.998 84.8371 278.352 84.5251 278.628C84.2251 278.916 83.8771 279.132 83.4811 279.276C83.0971 279.42 82.6411 279.492 82.1131 279.492ZM95.4238 276V272.958C95.1838 273.018 94.9558 273.06 94.7398 273.084C94.5238 273.096 94.2298 273.102 93.8578 273.102C93.3298 273.102 92.8378 273.042 92.3818 272.922C91.9378 272.79 91.5538 272.586 91.2298 272.31C90.9058 272.034 90.6538 271.68 90.4738 271.248C90.2938 270.804 90.2038 270.27 90.2038 269.646V267.072H92.8498V269.646C92.8498 270.102 92.9698 270.45 93.2098 270.69C93.4618 270.918 93.8698 271.032 94.4338 271.032C94.6258 271.032 94.7938 271.026 94.9378 271.014C95.0938 270.99 95.2558 270.96 95.4238 270.924V267.072H98.0698V276H95.4238ZM100.406 276V267.072H102.962V269.556C102.962 270 102.938 270.504 102.89 271.068C102.842 271.62 102.794 272.172 102.746 272.724H102.8C102.944 272.448 103.118 272.136 103.322 271.788C103.526 271.428 103.694 271.116 103.826 270.852L106.148 267.072H108.56V276H106.004V273.516C106.004 273.06 106.028 272.556 106.076 272.004C106.124 271.452 106.178 270.9 106.238 270.348H106.166C106.022 270.624 105.848 270.942 105.644 271.302C105.452 271.662 105.284 271.968 105.14 272.22L102.818 276H100.406ZM118.518 276.216C117.09 276.216 115.992 275.712 115.224 274.704C114.468 273.684 114.09 272.256 114.09 270.42C114.09 269.076 114.228 267.978 114.504 267.126C114.78 266.262 115.164 265.572 115.656 265.056C116.16 264.54 116.754 264.162 117.438 263.922C118.134 263.67 118.896 263.49 119.724 263.382C120.264 263.31 120.684 263.238 120.984 263.166C121.296 263.094 121.59 262.992 121.866 262.86L122.37 265.164C122.13 265.344 121.818 265.488 121.434 265.596C121.062 265.692 120.678 265.77 120.282 265.83C119.658 265.914 119.13 265.998 118.698 266.082C118.278 266.166 117.93 266.298 117.654 266.478C117.378 266.658 117.168 266.916 117.024 267.252C116.88 267.576 116.778 268.032 116.718 268.62C117.03 268.26 117.408 267.99 117.852 267.81C118.296 267.618 118.764 267.522 119.256 267.522C119.724 267.522 120.162 267.612 120.57 267.792C120.99 267.96 121.356 268.218 121.668 268.566C121.992 268.902 122.244 269.328 122.424 269.844C122.604 270.36 122.694 270.96 122.694 271.644C122.694 272.328 122.586 272.952 122.37 273.516C122.166 274.08 121.878 274.566 121.506 274.974C121.134 275.37 120.69 275.676 120.174 275.892C119.67 276.108 119.118 276.216 118.518 276.216ZM118.482 274.074C118.974 274.074 119.346 273.858 119.598 273.426C119.862 272.994 119.994 272.4 119.994 271.644C119.994 270.852 119.856 270.294 119.58 269.97C119.304 269.634 118.932 269.466 118.464 269.466C118.152 269.466 117.834 269.55 117.51 269.718C117.198 269.874 116.904 270.15 116.628 270.546V271.05C116.628 272.082 116.79 272.844 117.114 273.336C117.438 273.828 117.894 274.074 118.482 274.074ZM128.428 276.216C127.864 276.216 127.318 276.114 126.79 275.91C126.262 275.694 125.794 275.388 125.386 274.992C124.99 274.596 124.672 274.11 124.432 273.534C124.192 272.946 124.072 272.28 124.072 271.536C124.072 270.792 124.192 270.132 124.432 269.556C124.672 268.968 124.99 268.476 125.386 268.08C125.794 267.684 126.262 267.384 126.79 267.18C127.318 266.964 127.864 266.856 128.428 266.856C128.992 266.856 129.532 266.964 130.048 267.18C130.576 267.384 131.038 267.684 131.434 268.08C131.842 268.476 132.166 268.968 132.406 269.556C132.646 270.132 132.766 270.792 132.766 271.536C132.766 272.28 132.646 272.946 132.406 273.534C132.166 274.11 131.842 274.596 131.434 274.992C131.038 275.388 130.576 275.694 130.048 275.91C129.532 276.114 128.992 276.216 128.428 276.216ZM128.428 274.074C128.968 274.074 129.376 273.846 129.652 273.39C129.928 272.934 130.066 272.316 130.066 271.536C130.066 270.756 129.928 270.138 129.652 269.682C129.376 269.226 128.968 268.998 128.428 268.998C127.876 268.998 127.462 269.226 127.186 269.682C126.922 270.138 126.79 270.756 126.79 271.536C126.79 272.316 126.922 272.934 127.186 273.39C127.462 273.846 127.876 274.074 128.428 274.074ZM134.578 276V267.072H137.224V270.294H140.086V267.072H142.732V276H140.086V272.598H137.224V276H134.578ZM146.045 279.492C145.769 279.492 145.535 279.474 145.343 279.438C145.151 279.414 144.965 279.372 144.785 279.312L145.253 277.296C145.337 277.32 145.433 277.344 145.541 277.368C145.649 277.392 145.751 277.404 145.847 277.404C146.291 277.404 146.633 277.296 146.873 277.08C147.113 276.864 147.293 276.582 147.413 276.234L147.539 275.766L144.101 267.072H146.765L148.043 270.906C148.175 271.314 148.295 271.728 148.403 272.148C148.511 272.568 148.625 273 148.745 273.444H148.817C148.913 273.024 149.009 272.604 149.105 272.184C149.213 271.752 149.321 271.326 149.429 270.906L150.509 267.072H153.047L149.951 276.09C149.735 276.654 149.507 277.146 149.267 277.566C149.039 277.998 148.769 278.352 148.457 278.628C148.157 278.916 147.809 279.132 147.413 279.276C147.029 279.42 146.573 279.492 146.045 279.492ZM158.189 276.216C157.565 276.216 156.983 276.114 156.443 275.91C155.915 275.694 155.453 275.388 155.057 274.992C154.661 274.596 154.349 274.11 154.121 273.534C153.893 272.946 153.779 272.28 153.779 271.536C153.779 270.792 153.905 270.132 154.157 269.556C154.409 268.968 154.745 268.476 155.165 268.08C155.597 267.684 156.095 267.384 156.659 267.18C157.223 266.964 157.811 266.856 158.423 266.856C158.975 266.856 159.461 266.946 159.881 267.126C160.313 267.306 160.697 267.534 161.033 267.81L159.791 269.52C159.371 269.172 158.969 268.998 158.585 268.998C157.937 268.998 157.427 269.226 157.055 269.682C156.683 270.138 156.497 270.756 156.497 271.536C156.497 272.316 156.683 272.934 157.055 273.39C157.439 273.846 157.919 274.074 158.495 274.074C158.783 274.074 159.059 274.014 159.323 273.894C159.599 273.762 159.857 273.606 160.097 273.426L161.141 275.154C160.697 275.538 160.217 275.814 159.701 275.982C159.185 276.138 158.681 276.216 158.189 276.216ZM166.307 276V267.072H174.299V276H171.653V269.142H168.953V276H166.307ZM176.643 279.312V267.072H178.803L178.983 267.954H179.055C179.403 267.642 179.793 267.384 180.225 267.18C180.669 266.964 181.125 266.856 181.593 266.856C182.133 266.856 182.619 266.964 183.051 267.18C183.483 267.396 183.849 267.702 184.149 268.098C184.449 268.494 184.677 268.974 184.833 269.538C185.001 270.09 185.085 270.708 185.085 271.392C185.085 272.16 184.977 272.844 184.761 273.444C184.557 274.032 184.275 274.536 183.915 274.956C183.567 275.364 183.165 275.676 182.709 275.892C182.265 276.108 181.803 276.216 181.323 276.216C180.939 276.216 180.567 276.138 180.207 275.982C179.847 275.814 179.511 275.58 179.199 275.28L179.289 276.702V279.312H176.643ZM180.711 274.056C181.167 274.056 181.557 273.852 181.881 273.444C182.205 273.024 182.367 272.352 182.367 271.428C182.367 269.82 181.851 269.016 180.819 269.016C180.303 269.016 179.793 269.286 179.289 269.826V273.48C179.529 273.696 179.769 273.846 180.009 273.93C180.249 274.014 180.483 274.056 180.711 274.056ZM186.961 276V267.072H189.517V269.556C189.517 270 189.493 270.504 189.445 271.068C189.397 271.62 189.349 272.172 189.301 272.724H189.355C189.499 272.448 189.673 272.136 189.877 271.788C190.081 271.428 190.249 271.116 190.381 270.852L192.703 267.072H195.115V276H192.559V273.516C192.559 273.06 192.583 272.556 192.631 272.004C192.679 271.452 192.733 270.9 192.793 270.348H192.721C192.577 270.624 192.403 270.942 192.199 271.302C192.007 271.662 191.839 271.968 191.695 272.22L189.373 276H186.961ZM70.0225 297.312V285.072H72.1825L72.3625 285.954H72.4345C72.7825 285.642 73.1725 285.384 73.6045 285.18C74.0485 284.964 74.5045 284.856 74.9725 284.856C75.5125 284.856 75.9985 284.964 76.4305 285.18C76.8625 285.396 77.2285 285.702 77.5285 286.098C77.8285 286.494 78.0565 286.974 78.2125 287.538C78.3805 288.09 78.4645 288.708 78.4645 289.392C78.4645 290.16 78.3565 290.844 78.1405 291.444C77.9365 292.032 77.6545 292.536 77.2945 292.956C76.9465 293.364 76.5445 293.676 76.0885 293.892C75.6445 294.108 75.1825 294.216 74.7025 294.216C74.3185 294.216 73.9465 294.138 73.5865 293.982C73.2265 293.814 72.8905 293.58 72.5785 293.28L72.6685 294.702V297.312H70.0225ZM74.0905 292.056C74.5465 292.056 74.9365 291.852 75.2605 291.444C75.5845 291.024 75.7465 290.352 75.7465 289.428C75.7465 287.82 75.2305 287.016 74.1985 287.016C73.6825 287.016 73.1725 287.286 72.6685 287.826V291.48C72.9085 291.696 73.1485 291.846 73.3885 291.93C73.6285 292.014 73.8625 292.056 74.0905 292.056ZM84.3369 294.216C83.7009 294.216 83.1069 294.114 82.5549 293.91C82.0029 293.694 81.5229 293.388 81.1149 292.992C80.7069 292.584 80.3889 292.092 80.1609 291.516C79.9329 290.94 79.8189 290.28 79.8189 289.536C79.8189 288.816 79.9389 288.168 80.1789 287.592C80.4189 287.004 80.7309 286.512 81.1149 286.116C81.5109 285.708 81.9609 285.396 82.4649 285.18C82.9689 284.964 83.4909 284.856 84.0309 284.856C84.6669 284.856 85.2189 284.964 85.6869 285.18C86.1669 285.396 86.5629 285.696 86.8749 286.08C87.1989 286.464 87.4389 286.92 87.5949 287.448C87.7509 287.964 87.8289 288.528 87.8289 289.14C87.8289 289.38 87.8169 289.608 87.7929 289.824C87.7689 290.04 87.7449 290.202 87.7209 290.31H82.3749C82.4949 290.958 82.7589 291.438 83.1669 291.75C83.5869 292.05 84.0969 292.2 84.6969 292.2C85.3329 292.2 85.9749 292.002 86.6229 291.606L87.5049 293.208C87.0489 293.52 86.5389 293.766 85.9749 293.946C85.4229 294.126 84.8769 294.216 84.3369 294.216ZM82.3569 288.564H85.5789C85.5789 288.06 85.4649 287.652 85.2369 287.34C85.0089 287.028 84.6249 286.872 84.0849 286.872C83.6649 286.872 83.2929 287.01 82.9689 287.286C82.6569 287.562 82.4529 287.988 82.3569 288.564ZM89.6573 294V285.072H95.7953V287.142H92.3033V294H89.6573ZM97.4268 294V285.072H99.9828V287.556C99.9828 288 99.9588 288.504 99.9108 289.068C99.8628 289.62 99.8148 290.172 99.7668 290.724H99.8208C99.9648 290.448 100.139 290.136 100.343 289.788C100.547 289.428 100.715 289.116 100.847 288.852L103.169 285.072H105.581V294H103.025V291.516C103.025 291.06 103.049 290.556 103.097 290.004C103.145 289.452 103.199 288.9 103.259 288.348H103.187C103.043 288.624 102.869 288.942 102.665 289.302C102.473 289.662 102.305 289.968 102.161 290.22L99.8388 294H97.4268ZM111.809 294.216C111.185 294.216 110.603 294.114 110.063 293.91C109.535 293.694 109.073 293.388 108.677 292.992C108.281 292.596 107.969 292.11 107.741 291.534C107.513 290.946 107.399 290.28 107.399 289.536C107.399 288.792 107.525 288.132 107.777 287.556C108.029 286.968 108.365 286.476 108.785 286.08C109.217 285.684 109.715 285.384 110.279 285.18C110.843 284.964 111.431 284.856 112.043 284.856C112.595 284.856 113.081 284.946 113.501 285.126C113.933 285.306 114.317 285.534 114.653 285.81L113.411 287.52C112.991 287.172 112.589 286.998 112.205 286.998C111.557 286.998 111.047 287.226 110.675 287.682C110.303 288.138 110.117 288.756 110.117 289.536C110.117 290.316 110.303 290.934 110.675 291.39C111.059 291.846 111.539 292.074 112.115 292.074C112.403 292.074 112.679 292.014 112.943 291.894C113.219 291.762 113.477 291.606 113.717 291.426L114.761 293.154C114.317 293.538 113.837 293.814 113.321 293.982C112.805 294.138 112.301 294.216 111.809 294.216ZM118.074 294V287.142H115.446V285.072H123.366V287.142H120.72V294H118.074ZM125.007 297.312V285.072H127.167L127.347 285.954H127.419C127.767 285.642 128.157 285.384 128.589 285.18C129.033 284.964 129.489 284.856 129.957 284.856C130.497 284.856 130.983 284.964 131.415 285.18C131.847 285.396 132.213 285.702 132.513 286.098C132.813 286.494 133.041 286.974 133.197 287.538C133.365 288.09 133.449 288.708 133.449 289.392C133.449 290.16 133.341 290.844 133.125 291.444C132.921 292.032 132.639 292.536 132.279 292.956C131.931 293.364 131.529 293.676 131.073 293.892C130.629 294.108 130.167 294.216 129.687 294.216C129.303 294.216 128.931 294.138 128.571 293.982C128.211 293.814 127.875 293.58 127.563 293.28L127.653 294.702V297.312H125.007ZM129.075 292.056C129.531 292.056 129.921 291.852 130.245 291.444C130.569 291.024 130.731 290.352 130.731 289.428C130.731 287.82 130.215 287.016 129.183 287.016C128.667 287.016 128.157 287.286 127.653 287.826V291.48C127.893 291.696 128.133 291.846 128.373 291.93C128.613 292.014 128.847 292.056 129.075 292.056ZM137.382 294.216C136.974 294.216 136.602 294.144 136.266 294C135.942 293.868 135.666 293.682 135.438 293.442C135.21 293.19 135.03 292.902 134.898 292.578C134.778 292.254 134.718 291.9 134.718 291.516C134.718 290.58 135.114 289.848 135.906 289.32C136.698 288.792 137.976 288.438 139.74 288.258C139.716 287.862 139.596 287.55 139.38 287.322C139.176 287.082 138.828 286.962 138.336 286.962C137.952 286.962 137.568 287.034 137.184 287.178C136.812 287.322 136.41 287.52 135.978 287.772L135.024 286.026C135.6 285.678 136.2 285.396 136.824 285.18C137.46 284.964 138.132 284.856 138.84 284.856C139.992 284.856 140.868 285.186 141.468 285.846C142.08 286.494 142.386 287.508 142.386 288.888V294H140.226L140.046 293.082H139.974C139.59 293.418 139.188 293.694 138.768 293.91C138.348 294.114 137.886 294.216 137.382 294.216ZM138.282 292.164C138.582 292.164 138.84 292.098 139.056 291.966C139.272 291.834 139.5 291.648 139.74 291.408V289.842C138.804 289.974 138.156 290.166 137.796 290.418C137.436 290.67 137.256 290.97 137.256 291.318C137.256 291.606 137.346 291.822 137.526 291.966C137.718 292.098 137.97 292.164 138.282 292.164ZM144.624 294V285.072H147.27V291.93H149.898V285.072H152.544V291.93H153.948V293.658L153.696 297.096H151.428V294H144.624ZM155.329 294V285.072H157.885V287.556C157.885 288 157.861 288.504 157.813 289.068C157.765 289.62 157.717 290.172 157.669 290.724H157.723C157.867 290.448 158.041 290.136 158.245 289.788C158.449 289.428 158.617 289.116 158.749 288.852L161.071 285.072H163.483V294H160.927V291.516C160.927 291.06 160.951 290.556 160.999 290.004C161.047 289.452 161.101 288.9 161.161 288.348H161.089C160.945 288.624 160.771 288.942 160.567 289.302C160.375 289.662 160.207 289.968 160.063 290.22L157.741 294H155.329ZM165.823 294V285.072H168.379V287.556C168.379 288 168.355 288.504 168.307 289.068C168.259 289.62 168.211 290.172 168.163 290.724H168.217C168.361 290.448 168.535 290.136 168.739 289.788C168.943 289.428 169.111 289.116 169.243 288.852L171.565 285.072H173.977V294H171.421V291.516C171.421 291.06 171.445 290.556 171.493 290.004C171.541 289.452 171.595 288.9 171.655 288.348H171.583C171.439 288.624 171.265 288.942 171.061 289.302C170.869 289.662 170.701 289.968 170.557 290.22L168.235 294H165.823Z" fill="white"/>
<path d="M71.5885 336V339.096H69.3025L69.0505 335.658V333.93H69.6085C69.7165 333.87 69.8185 333.786 69.9145 333.678C70.0105 333.558 70.1005 333.378 70.1845 333.138C70.2685 332.886 70.3465 332.562 70.4185 332.166C70.5025 331.77 70.5805 331.254 70.6525 330.618L71.0665 327.072H77.7265V333.93H79.1485V335.658L78.8965 339.096H76.6285V336H71.5885ZM72.9385 331.212C72.8785 331.8 72.7825 332.316 72.6505 332.76C72.5185 333.204 72.3685 333.594 72.2005 333.93H75.0805V329.142H73.1725L72.9385 331.212ZM84.3683 336.216C83.8043 336.216 83.2583 336.114 82.7303 335.91C82.2023 335.694 81.7343 335.388 81.3263 334.992C80.9303 334.596 80.6123 334.11 80.3723 333.534C80.1323 332.946 80.0123 332.28 80.0123 331.536C80.0123 330.792 80.1323 330.132 80.3723 329.556C80.6123 328.968 80.9303 328.476 81.3263 328.08C81.7343 327.684 82.2023 327.384 82.7303 327.18C83.2583 326.964 83.8043 326.856 84.3683 326.856C84.9323 326.856 85.4723 326.964 85.9883 327.18C86.5163 327.384 86.9783 327.684 87.3743 328.08C87.7823 328.476 88.1063 328.968 88.3463 329.556C88.5863 330.132 88.7063 330.792 88.7063 331.536C88.7063 332.28 88.5863 332.946 88.3463 333.534C88.1063 334.11 87.7823 334.596 87.3743 334.992C86.9783 335.388 86.5163 335.694 85.9883 335.91C85.4723 336.114 84.9323 336.216 84.3683 336.216ZM84.3683 334.074C84.9083 334.074 85.3163 333.846 85.5923 333.39C85.8683 332.934 86.0063 332.316 86.0063 331.536C86.0063 330.756 85.8683 330.138 85.5923 329.682C85.3163 329.226 84.9083 328.998 84.3683 328.998C83.8163 328.998 83.4023 329.226 83.1263 329.682C82.8623 330.138 82.7303 330.756 82.7303 331.536C82.7303 332.316 82.8623 332.934 83.1263 333.39C83.4023 333.846 83.8163 334.074 84.3683 334.074ZM97.3261 336.216C96.3901 336.216 95.5981 336.072 94.9501 335.784C94.3021 335.484 93.7681 335.088 93.3481 334.596L94.5721 332.922C94.9201 333.258 95.2981 333.534 95.7061 333.75C96.1261 333.966 96.5821 334.074 97.0741 334.074C97.6381 334.074 98.0881 333.96 98.4241 333.732C98.7601 333.492 98.9281 333.156 98.9281 332.724C98.9281 332.472 98.8801 332.244 98.7841 332.04C98.7001 331.836 98.5441 331.668 98.3161 331.536C98.0881 331.392 97.7761 331.284 97.3801 331.212C96.9841 331.128 96.4741 331.086 95.8501 331.086V329.214C96.3661 329.214 96.7921 329.178 97.1281 329.106C97.4761 329.034 97.7521 328.932 97.9561 328.8C98.1721 328.656 98.3221 328.494 98.4061 328.314C98.5021 328.122 98.5501 327.912 98.5501 327.684C98.5501 327.288 98.4301 326.982 98.1901 326.766C97.9501 326.538 97.6021 326.424 97.1461 326.424C96.7381 326.424 96.3661 326.514 96.0301 326.694C95.7061 326.874 95.3641 327.12 95.0041 327.432L93.6721 325.812C94.2001 325.356 94.7521 325.002 95.3281 324.75C95.9161 324.486 96.5641 324.354 97.2721 324.354C97.8601 324.354 98.3941 324.426 98.8741 324.57C99.3661 324.702 99.7801 324.906 100.116 325.182C100.464 325.446 100.734 325.77 100.926 326.154C101.118 326.538 101.214 326.982 101.214 327.486C101.214 328.086 101.046 328.596 100.71 329.016C100.386 329.424 99.9181 329.76 99.3061 330.024V330.096C99.9661 330.288 100.506 330.618 100.926 331.086C101.358 331.542 101.574 332.142 101.574 332.886C101.574 333.414 101.46 333.888 101.232 334.308C101.004 334.716 100.698 335.064 100.314 335.352C99.9301 335.628 99.4801 335.844 98.9641 336C98.4481 336.144 97.9021 336.216 97.3261 336.216ZM107.214 336.216C106.602 336.216 106.044 336.09 105.54 335.838C105.036 335.574 104.604 335.19 104.244 334.686C103.896 334.182 103.62 333.558 103.416 332.814C103.224 332.07 103.128 331.212 103.128 330.24C103.128 329.268 103.224 328.416 103.416 327.684C103.62 326.952 103.896 326.34 104.244 325.848C104.604 325.344 105.036 324.972 105.54 324.732C106.044 324.48 106.602 324.354 107.214 324.354C107.826 324.354 108.384 324.48 108.888 324.732C109.392 324.972 109.818 325.344 110.166 325.848C110.526 326.34 110.802 326.952 110.994 327.684C111.198 328.416 111.3 329.268 111.3 330.24C111.3 331.212 111.198 332.07 110.994 332.814C110.802 333.558 110.526 334.182 110.166 334.686C109.818 335.19 109.392 335.574 108.888 335.838C108.384 336.09 107.826 336.216 107.214 336.216ZM107.214 334.164C107.442 334.164 107.652 334.11 107.844 334.002C108.036 333.882 108.204 333.672 108.348 333.372C108.492 333.072 108.6 332.67 108.672 332.166C108.756 331.662 108.798 331.02 108.798 330.24C108.798 329.46 108.756 328.824 108.672 328.332C108.6 327.828 108.492 327.438 108.348 327.162C108.204 326.874 108.036 326.676 107.844 326.568C107.652 326.46 107.442 326.406 107.214 326.406C106.998 326.406 106.794 326.46 106.602 326.568C106.41 326.676 106.242 326.874 106.098 327.162C105.954 327.438 105.84 327.828 105.756 328.332C105.672 328.824 105.63 329.46 105.63 330.24C105.63 331.02 105.672 331.662 105.756 332.166C105.84 332.67 105.954 333.072 106.098 333.372C106.242 333.672 106.41 333.882 106.602 334.002C106.794 334.11 106.998 334.164 107.214 334.164ZM118.995 336.216C118.587 336.216 118.215 336.144 117.879 336C117.555 335.868 117.279 335.682 117.051 335.442C116.823 335.19 116.643 334.902 116.511 334.578C116.391 334.254 116.331 333.9 116.331 333.516C116.331 332.58 116.727 331.848 117.519 331.32C118.311 330.792 119.589 330.438 121.353 330.258C121.329 329.862 121.209 329.55 120.993 329.322C120.789 329.082 120.441 328.962 119.949 328.962C119.565 328.962 119.181 329.034 118.797 329.178C118.425 329.322 118.023 329.52 117.591 329.772L116.637 328.026C117.213 327.678 117.813 327.396 118.437 327.18C119.073 326.964 119.745 326.856 120.453 326.856C121.605 326.856 122.481 327.186 123.081 327.846C123.693 328.494 123.999 329.508 123.999 330.888V336H121.839L121.659 335.082H121.587C121.203 335.418 120.801 335.694 120.381 335.91C119.961 336.114 119.499 336.216 118.995 336.216ZM119.895 334.164C120.195 334.164 120.453 334.098 120.669 333.966C120.885 333.834 121.113 333.648 121.353 333.408V331.842C120.417 331.974 119.769 332.166 119.409 332.418C119.049 332.67 118.869 332.97 118.869 333.318C118.869 333.606 118.959 333.822 119.139 333.966C119.331 334.098 119.583 334.164 119.895 334.164ZM126.237 336V327.072H134.229V336H131.583V329.142H128.883V336H126.237ZM136.573 339.312V327.072H138.733L138.913 327.954H138.985C139.333 327.642 139.723 327.384 140.155 327.18C140.599 326.964 141.055 326.856 141.523 326.856C142.063 326.856 142.549 326.964 142.981 327.18C143.413 327.396 143.779 327.702 144.079 328.098C144.379 328.494 144.607 328.974 144.763 329.538C144.931 330.09 145.015 330.708 145.015 331.392C145.015 332.16 144.907 332.844 144.691 333.444C144.487 334.032 144.205 334.536 143.845 334.956C143.497 335.364 143.095 335.676 142.639 335.892C142.195 336.108 141.733 336.216 141.253 336.216C140.869 336.216 140.497 336.138 140.137 335.982C139.777 335.814 139.441 335.58 139.129 335.28L139.219 336.702V339.312H136.573ZM140.641 334.056C141.097 334.056 141.487 333.852 141.811 333.444C142.135 333.024 142.297 332.352 142.297 331.428C142.297 329.82 141.781 329.016 140.749 329.016C140.233 329.016 139.723 329.286 139.219 329.826V333.48C139.459 333.696 139.699 333.846 139.939 333.93C140.179 334.014 140.413 334.056 140.641 334.056ZM150.888 336.216C150.252 336.216 149.658 336.114 149.106 335.91C148.554 335.694 148.074 335.388 147.666 334.992C147.258 334.584 146.94 334.092 146.712 333.516C146.484 332.94 146.37 332.28 146.37 331.536C146.37 330.816 146.49 330.168 146.73 329.592C146.97 329.004 147.282 328.512 147.666 328.116C148.062 327.708 148.512 327.396 149.016 327.18C149.52 326.964 150.042 326.856 150.582 326.856C151.218 326.856 151.77 326.964 152.238 327.18C152.718 327.396 153.114 327.696 153.426 328.08C153.75 328.464 153.99 328.92 154.146 329.448C154.302 329.964 154.38 330.528 154.38 331.14C154.38 331.38 154.368 331.608 154.344 331.824C154.32 332.04 154.296 332.202 154.272 332.31H148.926C149.046 332.958 149.31 333.438 149.718 333.75C150.138 334.05 150.648 334.2 151.248 334.2C151.884 334.2 152.526 334.002 153.174 333.606L154.056 335.208C153.6 335.52 153.09 335.766 152.526 335.946C151.974 336.126 151.428 336.216 150.888 336.216ZM148.908 330.564H152.13C152.13 330.06 152.016 329.652 151.788 329.34C151.56 329.028 151.176 328.872 150.636 328.872C150.216 328.872 149.844 329.01 149.52 329.286C149.208 329.562 149.004 329.988 148.908 330.564ZM156.208 336.216C156.004 336.216 155.818 336.198 155.65 336.162C155.482 336.126 155.314 336.078 155.146 336.018L155.578 333.642C155.65 333.666 155.722 333.684 155.794 333.696C155.866 333.708 155.944 333.714 156.028 333.714C156.268 333.714 156.472 333.618 156.64 333.426C156.82 333.222 156.94 332.874 157 332.382C157.12 331.494 157.222 330.612 157.306 329.736C157.402 328.86 157.504 327.972 157.612 327.072H164.2V336H161.554V329.142H159.7C159.616 329.802 159.532 330.468 159.448 331.14C159.376 331.8 159.292 332.46 159.196 333.12C159.052 334.128 158.734 334.896 158.242 335.424C157.75 335.952 157.072 336.216 156.208 336.216ZM171.35 336V333.084H170.36L168.56 336H165.626L168.002 332.544C167.558 332.304 167.186 331.98 166.886 331.572C166.598 331.164 166.454 330.648 166.454 330.024C166.454 329.472 166.55 329.01 166.742 328.638C166.934 328.254 167.198 327.948 167.534 327.72C167.87 327.48 168.266 327.312 168.722 327.216C169.178 327.12 169.664 327.072 170.18 327.072H173.996V336H171.35ZM170.504 331.302H171.35V329.016H170.504C169.544 329.016 169.064 329.376 169.064 330.096C169.064 330.456 169.184 330.75 169.424 330.978C169.664 331.194 170.024 331.302 170.504 331.302Z" fill="white"/>
<path d="M112.386 92.0463C108.63 91.8909 104.827 91.6563 101.084 91.3497C100.103 91.27 99.2427 91.9994 99.1623 92.9805C99.0819 93.9613 99.812 94.8217 100.793 94.9021C102.136 95.012 103.487 95.1095 104.841 95.2007V108.943C104.841 109.927 105.639 110.725 106.623 110.725C107.607 110.725 108.405 109.927 108.405 108.943V95.4194C109.686 95.4897 110.965 95.5549 112.239 95.6076C112.264 95.6085 112.289 95.609 112.314 95.609C113.264 95.609 114.054 94.8588 114.093 93.9004C114.134 92.9174 113.37 92.087 112.386 92.0463Z" fill="white"/>
<path d="M163.686 91.2737C163.553 90.2982 162.655 89.6138 161.68 89.7467C157.953 90.2516 154.163 90.6873 150.417 91.0409C149.438 91.1335 148.718 92.0031 148.811 92.9827C148.898 93.9057 149.674 94.5973 150.583 94.5973C150.639 94.5973 150.696 94.5948 150.753 94.5894C151.99 94.4724 153.232 94.3438 154.475 94.2095V107.63C154.475 108.614 155.272 109.412 156.257 109.412C157.241 109.412 158.039 108.614 158.039 107.63V93.8021C159.416 93.6359 160.792 93.4637 162.158 93.2785C163.134 93.1466 163.818 92.2489 163.686 91.2737Z" fill="white"/>
<path d="M144.703 97.9065V97.3789C144.703 95.8421 144.101 94.4251 143.008 93.3884C141.904 92.341 140.441 91.8071 138.877 91.8924C137.397 91.9709 135.899 92.0382 134.426 92.0933C133.468 92.1286 132.71 92.9157 132.71 93.8743V102.291V109.283C132.71 110.267 133.508 111.065 134.492 111.065C135.477 111.065 136.274 110.267 136.274 109.283V104.01C137.58 104.021 138.783 104.496 139.686 105.362C140.623 106.26 141.139 107.497 141.139 108.844C141.139 109.828 141.936 110.626 142.921 110.626C143.905 110.626 144.703 109.828 144.703 108.844C144.703 106.516 143.797 104.367 142.153 102.79C142.151 102.787 142.148 102.785 142.145 102.782C143.684 101.688 144.703 99.8881 144.703 97.9065ZM141.139 97.9067C141.139 99.144 140.104 100.244 138.878 100.309H138.877C138.016 100.354 137.145 100.396 136.274 100.434V95.5859C137.205 95.5458 138.139 95.5008 139.066 95.4516C139.636 95.4202 140.168 95.6068 140.556 95.9747C140.932 96.3315 141.139 96.8302 141.139 97.3791V97.9067Z" fill="white"/>
<path d="M122.451 92.2827C120.861 92.2808 119.38 92.8799 118.266 93.9873C117.165 95.0828 116.559 96.5446 116.559 98.1037V109.421C116.559 110.405 117.357 111.203 118.341 111.203C119.325 111.203 120.123 110.405 120.123 109.421V104.1C121.416 104.117 122.713 104.129 124.008 104.129C124.26 104.129 124.51 104.127 124.761 104.126V109.467C124.761 110.451 125.559 111.249 126.544 111.249C127.528 111.249 128.326 110.451 128.326 109.467V98.1494C128.326 94.9328 125.691 92.3012 122.451 92.2827ZM124.761 100.563C123.218 100.567 121.668 100.559 120.123 100.538V98.1039C120.123 97.5004 120.356 96.936 120.78 96.5144C121.216 96.0808 121.799 95.8527 122.432 95.8471C123.716 95.8544 124.761 96.887 124.761 98.1491V100.563H124.761Z" fill="white"/>
<path d="M90.6092 97.9986L90.1348 97.9416C88.9252 97.7947 87.8642 96.5909 87.8642 95.3654C87.8639 94.857 88.0385 94.434 88.369 94.1412C88.707 93.842 89.1814 93.7116 89.7047 93.7754C91.144 93.9502 92.6065 94.1166 94.0526 94.2699C95.0321 94.3733 95.9088 93.6643 96.0124 92.6853C96.116 91.7066 95.4066 90.8291 94.4278 90.7255C93.0003 90.5743 91.5558 90.4102 90.1346 90.2373C88.5832 90.0488 87.1175 90.4885 86.0053 91.4738C84.9054 92.4486 84.2998 93.8305 84.2998 95.3656C84.2998 98.4268 86.6745 101.113 89.7057 101.48L90.1845 101.538C91.4171 101.686 92.4584 102.838 92.4584 104.054C92.4584 104.571 92.269 105.024 91.9249 105.329C91.5844 105.631 91.1173 105.764 90.6092 105.703C89.1858 105.533 87.743 105.348 86.3213 105.156C85.3451 105.024 84.4482 105.708 84.3162 106.683C84.184 107.658 84.8677 108.556 85.8432 108.688C87.2829 108.883 88.7438 109.069 90.1847 109.242C90.4123 109.269 90.638 109.283 90.8614 109.283C92.1436 109.283 93.342 108.837 94.2905 107.996C95.3913 107.019 96.023 105.582 96.023 104.054C96.023 101.023 93.645 98.3633 90.6092 97.9986Z" fill="white"/>
<path d="M183.386 77.2474C182.995 76.9087 182.478 76.7557 181.967 76.829C149.058 81.5126 115.603 82.1887 82.5318 78.8379C81.553 78.7378 80.6784 79.4522 80.579 80.4314C80.4796 81.4106 81.1933 82.2848 82.1725 82.3842C114.85 85.6952 147.897 85.1086 180.436 80.6421V114.915C142.977 120.103 105.023 120.103 67.5644 114.915V80.6421C70.3077 81.0185 73.0731 81.3698 75.8111 81.6902C76.791 81.806 77.6741 81.1047 77.788 80.1272C77.9024 79.1496 77.2026 78.2644 76.225 78.1502C72.8385 77.7544 69.4094 77.31 66.0332 76.8293C65.5209 76.7564 65.0041 76.9092 64.6141 77.2476C64.2241 77.5858 64 78.0771 64 78.5934V116.465C64 117.352 64.6527 118.104 65.5309 118.229C66.8404 118.415 68.1505 118.594 69.4612 118.768V171.407C69.4612 172.391 70.2592 173.189 71.2434 173.189H78.3768C79.3609 173.189 80.159 172.391 80.159 171.407V120.047C94.7343 121.596 109.367 122.37 124 122.37C138.632 122.37 153.265 121.596 167.84 120.047V135.888C167.84 136.872 168.637 137.67 169.622 137.67C170.606 137.67 171.404 136.872 171.404 135.888V119.652C172.594 119.515 173.784 119.373 174.973 119.225V169.624H171.404V141.829C171.404 140.845 170.606 140.047 169.622 140.047C168.637 140.047 167.84 140.845 167.84 141.829V171.407C167.84 172.391 168.637 173.189 169.622 173.189H176.755C177.74 173.189 178.538 172.391 178.538 171.407V118.768C179.849 118.595 181.159 118.416 182.469 118.229C183.347 118.104 184 117.352 184 116.465V78.5934C184 78.0771 183.776 77.5858 183.386 77.2474ZM76.5948 169.624H73.0258V119.225C74.215 119.373 75.4047 119.515 76.5948 119.652V169.624Z" fill="white"/>
<path d="M110.94 225.93C110.94 228.882 109.86 231.42 107.7 233.544C105.54 235.632 102.426 236.928 98.358 237.432V243.48H92.958V237.594C90.294 237.45 87.756 236.982 85.344 236.19C82.932 235.398 80.988 234.426 79.512 233.274L82.482 226.686C83.85 227.694 85.452 228.54 87.288 229.224C89.124 229.908 91.014 230.34 92.958 230.52V221.502C90.402 220.89 88.242 220.206 86.478 219.45C84.714 218.694 83.238 217.596 82.05 216.156C80.862 214.68 80.268 212.736 80.268 210.324C80.268 207.336 81.348 204.78 83.508 202.656C85.704 200.496 88.854 199.182 92.958 198.714V192.72H98.358V198.606C102.786 198.966 106.44 200.064 109.32 201.9L106.62 208.542C103.92 206.994 101.166 206.058 98.358 205.734V214.914C100.878 215.49 103.002 216.156 104.73 216.912C106.494 217.632 107.97 218.73 109.158 220.206C110.346 221.646 110.94 223.554 110.94 225.93ZM88.962 209.892C88.962 210.792 89.304 211.53 89.988 212.106C90.672 212.682 91.662 213.168 92.958 213.564V205.896C91.59 206.22 90.582 206.742 89.934 207.462C89.286 208.146 88.962 208.956 88.962 209.892ZM98.358 230.304C99.654 230.016 100.626 229.548 101.274 228.9C101.922 228.252 102.246 227.478 102.246 226.578C102.246 225.678 101.904 224.94 101.22 224.364C100.572 223.788 99.618 223.284 98.358 222.852V230.304ZM128.594 199.2V237H119.846V206.22H112.286V199.2H128.594ZM148.121 213.402C153.449 213.402 157.373 214.464 159.893 216.588C162.449 218.712 163.727 221.556 163.727 225.12C163.727 227.424 163.151 229.53 161.999 231.438C160.847 233.31 159.083 234.822 156.707 235.974C154.367 237.09 151.469 237.648 148.013 237.648C145.349 237.648 142.721 237.306 140.129 236.622C137.573 235.902 135.395 234.894 133.595 233.598L137.051 226.902C138.491 227.982 140.147 228.828 142.019 229.44C143.891 230.016 145.817 230.304 147.797 230.304C149.993 230.304 151.721 229.872 152.981 229.008C154.241 228.144 154.871 226.938 154.871 225.39C154.871 223.77 154.205 222.546 152.873 221.718C151.577 220.89 149.309 220.476 146.069 220.476H136.403L138.347 199.2H161.405V206.22H145.637L145.043 213.402H148.121Z" fill="white"/>
<g filter="url(#filter0_d)">
<rect x="35" y="368" width="184" height="58" rx="7" stroke="white" stroke-width="2"/>
</g>
<path d="M78.5117 404V392.438H72.3105V404H69.3516V389.908H81.4512V404H78.5117ZM89.6152 401.91C90.3704 401.91 90.9564 401.62 91.373 401.041C91.7897 400.468 91.998 399.658 91.998 398.609C91.998 397.574 91.7897 396.767 91.373 396.188C90.9499 395.608 90.3639 395.318 89.6152 395.318C88.86 395.318 88.2741 395.608 87.8574 396.188C87.4408 396.767 87.2324 397.574 87.2324 398.609C87.2324 399.658 87.4408 400.471 87.8574 401.051C88.2676 401.624 88.8535 401.91 89.6152 401.91ZM89.6152 404.234C87.9616 404.234 86.6628 403.736 85.7188 402.74C84.7812 401.744 84.3125 400.367 84.3125 398.609C84.3125 396.865 84.7878 395.494 85.7383 394.498C86.6823 393.495 87.9746 392.994 89.6152 392.994C91.2559 392.994 92.5514 393.492 93.502 394.488C94.446 395.491 94.918 396.865 94.918 398.609C94.918 400.367 94.4492 401.744 93.5117 402.74C92.5677 403.736 91.2689 404.234 89.6152 404.234ZM104.234 395.455H100.953L100.709 398.824C100.624 400.022 100.37 400.943 99.9473 401.588V401.764H104.234V395.455ZM96.168 406.783V401.764H96.998C97.6751 401.386 98.0723 400.341 98.1895 398.629L98.541 393.229H107.066V401.764H108.668V406.783H106.07V404H98.7656V406.783H96.168ZM116.891 393.053C118.258 393.053 119.332 393.544 120.113 394.527C120.895 395.51 121.285 396.871 121.285 398.609C121.285 400.341 120.898 401.702 120.123 402.691C119.348 403.674 118.287 404.166 116.939 404.166C115.331 404.166 114.247 403.561 113.688 402.35H113.512V407.369H110.67V393.229H113.424V394.996H113.6C113.893 394.391 114.329 393.915 114.908 393.57C115.488 393.225 116.148 393.053 116.891 393.053ZM115.924 401.793C116.692 401.793 117.291 401.51 117.721 400.943C118.15 400.383 118.365 399.605 118.365 398.609C118.365 397.62 118.15 396.845 117.721 396.285C117.285 395.719 116.689 395.436 115.934 395.436C115.178 395.436 114.579 395.719 114.137 396.285C113.701 396.858 113.482 397.636 113.482 398.619C113.482 399.602 113.701 400.377 114.137 400.943C114.573 401.51 115.169 401.793 115.924 401.793ZM128.639 401.91C129.394 401.91 129.98 401.62 130.396 401.041C130.813 400.468 131.021 399.658 131.021 398.609C131.021 397.574 130.813 396.767 130.396 396.188C129.973 395.608 129.387 395.318 128.639 395.318C127.883 395.318 127.298 395.608 126.881 396.188C126.464 396.767 126.256 397.574 126.256 398.609C126.256 399.658 126.464 400.471 126.881 401.051C127.291 401.624 127.877 401.91 128.639 401.91ZM128.639 404.234C126.985 404.234 125.686 403.736 124.742 402.74C123.805 401.744 123.336 400.367 123.336 398.609C123.336 396.865 123.811 395.494 124.762 394.498C125.706 393.495 126.998 392.994 128.639 392.994C130.279 392.994 131.575 393.492 132.525 394.488C133.469 395.491 133.941 396.865 133.941 398.609C133.941 400.367 133.473 401.744 132.535 402.74C131.591 403.736 130.292 404.234 128.639 404.234ZM141.383 401.91C142.151 401.91 142.747 401.643 143.17 401.109C143.6 400.569 143.814 399.804 143.814 398.814C143.814 397.87 143.6 397.135 143.17 396.607C142.747 396.08 142.151 395.816 141.383 395.816C140.615 395.816 140.019 396.08 139.596 396.607C139.166 397.135 138.951 397.87 138.951 398.814C138.951 399.804 139.163 400.569 139.586 401.109C140.009 401.643 140.608 401.91 141.383 401.91ZM138.404 395.67C139.107 394.296 140.309 393.609 142.008 393.609C143.427 393.609 144.566 394.068 145.426 394.986C146.298 395.917 146.734 397.167 146.734 398.736C146.734 400.436 146.259 401.777 145.309 402.76C144.358 403.743 143.066 404.234 141.432 404.234C139.706 404.234 138.382 403.701 137.457 402.633C136.507 401.533 136.031 399.924 136.031 397.809C136.031 395.048 136.5 393.01 137.438 391.695C138.368 390.38 139.83 389.687 141.822 389.615L143.199 389.566C143.896 389.54 144.573 389.462 145.23 389.332C145.725 389.234 145.989 389.169 146.021 389.137V391.432C145.52 391.699 144.638 391.852 143.375 391.891L142.066 391.93C140.784 391.975 139.846 392.314 139.254 392.945C138.727 393.512 138.385 394.42 138.229 395.67H138.404ZM149.273 393.229H152.115V397.359H156.422V393.229H159.264V404H156.422V399.596H152.115V404H149.273V393.229ZM166.979 395.172C166.321 395.172 165.777 395.383 165.348 395.807C164.924 396.23 164.687 396.79 164.635 397.486H169.225C169.192 396.77 168.977 396.207 168.58 395.797C168.176 395.38 167.643 395.172 166.979 395.172ZM171.93 400.934C171.715 401.956 171.171 402.76 170.299 403.346C169.42 403.938 168.323 404.234 167.008 404.234C165.367 404.234 164.088 403.743 163.17 402.76C162.252 401.783 161.793 400.419 161.793 398.668C161.793 396.917 162.255 395.533 163.18 394.518C164.104 393.502 165.367 392.994 166.969 392.994C168.557 392.994 169.794 393.473 170.68 394.43C171.572 395.387 172.018 396.721 172.018 398.434V399.303H164.625V399.449C164.645 400.25 164.876 400.882 165.318 401.344C165.755 401.812 166.344 402.047 167.086 402.047C168.238 402.047 168.971 401.676 169.283 400.934H171.93ZM179.322 395.172C178.665 395.172 178.121 395.383 177.691 395.807C177.268 396.23 177.031 396.79 176.979 397.486H181.568C181.536 396.77 181.321 396.207 180.924 395.797C180.52 395.38 179.986 395.172 179.322 395.172ZM184.273 400.934C184.059 401.956 183.515 402.76 182.643 403.346C181.764 403.938 180.667 404.234 179.352 404.234C177.711 404.234 176.432 403.743 175.514 402.76C174.596 401.783 174.137 400.419 174.137 398.668C174.137 396.917 174.599 395.533 175.523 394.518C176.448 393.502 177.711 392.994 179.312 392.994C180.901 392.994 182.138 393.473 183.023 394.43C183.915 395.387 184.361 396.721 184.361 398.434V399.303H176.969V399.449C176.988 400.25 177.219 400.882 177.662 401.344C178.098 401.812 178.688 402.047 179.43 402.047C180.582 402.047 181.314 401.676 181.627 400.934H184.273Z" fill="white"/>
<defs>
<filter id="filter0_d" x="30" y="367" width="194" height="68" filterUnits="userSpaceOnUse" color-interpolation-filters="sRGB">
<feFlood flood-opacity="0" result="BackgroundImageFix"/>
<feColorMatrix in="SourceAlpha" type="matrix" values="0 0 0 0 0 0 0 0 0 0 0 0 0 0 0 0 0 0 127 0"/>
<feOffset dy="4"/>
<feGaussianBlur stdDeviation="2"/>
<feColorMatrix type="matrix" values="0 0 0 0 0 0 0 0 0 0 0 0 0 0 0 0 0 0 0.25 0"/>
<feBlend mode="normal" in2="BackgroundImageFix" result="effect1_dropShadow"/>
<feBlend mode="normal" in="SourceGraphic" in2="effect1_dropShadow" result="shape"/>
</filter>
<linearGradient id="paint0_linear" x1="234" y1="487" x2="27" y2="13" gradientUnits="userSpaceOnUse">
<stop stop-color="#7289DA"/>
<stop offset="1" stop-color="#A091C5"/>
</linearGradient>
</defs>
</svg>
