<svg width="502" height="408" viewBox="0 0 502 408" fill="none" xmlns="http://www.w3.org/2000/svg">
<circle cx="207" cy="98" r="25" fill="#7289DA"/>
<circle cx="255" cy="25" r="24" stroke="#7289DA" stroke-width="2"/>
<circle cx="161" cy="165" r="25" fill="#7289DA"/>
<circle cx="251" cy="165" r="25" fill="#7289DA"/>
<circle cx="291" cy="238" r="25" fill="#7289DA"/>
<circle cx="207" cy="238" r="25" fill="#7289DA"/>
<circle cx="118" cy="238" r="25" fill="#7289DA"/>
<circle cx="74" cy="307" r="25" fill="#7289DA"/>
<circle cx="162" cy="307" r="25" fill="#7289DA"/>
<circle cx="250" cy="307" r="25" fill="#7289DA"/>
<circle cx="333" cy="307" r="25" fill="#7289DA"/>
<path d="M149.605 162.969H151.41C152.27 162.969 152.906 162.754 153.32 162.324C153.734 161.895 153.941 161.324 153.941 160.613C153.941 159.926 153.734 159.391 153.32 159.008C152.914 158.625 152.352 158.434 151.633 158.434C150.984 158.434 150.441 158.613 150.004 158.973C149.566 159.324 149.348 159.785 149.348 160.355H145.961C145.961 159.465 146.199 158.668 146.676 157.965C147.16 157.254 147.832 156.699 148.691 156.301C149.559 155.902 150.512 155.703 151.551 155.703C153.355 155.703 154.77 156.137 155.793 157.004C156.816 157.863 157.328 159.051 157.328 160.566C157.328 161.348 157.09 162.066 156.613 162.723C156.137 163.379 155.512 163.883 154.738 164.234C155.699 164.578 156.414 165.094 156.883 165.781C157.359 166.469 157.598 167.281 157.598 168.219C157.598 169.734 157.043 170.949 155.934 171.863C154.832 172.777 153.371 173.234 151.551 173.234C149.848 173.234 148.453 172.785 147.367 171.887C146.289 170.988 145.75 169.801 145.75 168.324H149.137C149.137 168.965 149.375 169.488 149.852 169.895C150.336 170.301 150.93 170.504 151.633 170.504C152.438 170.504 153.066 170.293 153.52 169.871C153.98 169.441 154.211 168.875 154.211 168.172C154.211 166.469 153.273 165.617 151.398 165.617H149.605V162.969ZM159.895 159.219C159.895 158.172 160.234 157.324 160.914 156.676C161.594 156.02 162.484 155.691 163.586 155.691C164.703 155.691 165.602 156.016 166.281 156.664C166.961 157.305 167.301 158.176 167.301 159.277V160.121C167.301 161.176 166.961 162.023 166.281 162.664C165.602 163.305 164.711 163.625 163.609 163.625C162.5 163.625 161.602 163.305 160.914 162.664C160.234 162.016 159.895 161.145 159.895 160.051V159.219ZM162.145 160.121C162.145 160.59 162.277 160.969 162.543 161.258C162.816 161.539 163.172 161.68 163.609 161.68C164.047 161.68 164.395 161.535 164.652 161.246C164.91 160.957 165.039 160.57 165.039 160.086V159.219C165.039 158.75 164.91 158.371 164.652 158.082C164.395 157.793 164.039 157.648 163.586 157.648C163.156 157.648 162.809 157.793 162.543 158.082C162.277 158.363 162.145 158.758 162.145 159.266V160.121ZM168.051 168.816C168.051 167.762 168.395 166.914 169.082 166.273C169.77 165.625 170.66 165.301 171.754 165.301C172.863 165.301 173.758 165.621 174.438 166.262C175.125 166.895 175.469 167.77 175.469 168.887V169.73C175.469 170.777 175.133 171.625 174.461 172.273C173.789 172.914 172.895 173.234 171.777 173.234C170.652 173.234 169.75 172.91 169.07 172.262C168.391 171.613 168.051 170.754 168.051 169.684V168.816ZM170.301 169.73C170.301 170.16 170.441 170.527 170.723 170.832C171.004 171.137 171.355 171.289 171.777 171.289C172.73 171.289 173.207 170.762 173.207 169.707V168.816C173.207 168.348 173.074 167.973 172.809 167.691C172.543 167.402 172.191 167.258 171.754 167.258C171.316 167.258 170.965 167.402 170.699 167.691C170.434 167.973 170.301 168.359 170.301 168.852V169.73ZM164.277 171.723L162.625 170.832L170.957 157.496L172.609 158.387L164.277 171.723Z" fill="white"/>
<path d="M238.605 161.969H240.41C241.27 161.969 241.906 161.754 242.32 161.324C242.734 160.895 242.941 160.324 242.941 159.613C242.941 158.926 242.734 158.391 242.32 158.008C241.914 157.625 241.352 157.434 240.633 157.434C239.984 157.434 239.441 157.613 239.004 157.973C238.566 158.324 238.348 158.785 238.348 159.355H234.961C234.961 158.465 235.199 157.668 235.676 156.965C236.16 156.254 236.832 155.699 237.691 155.301C238.559 154.902 239.512 154.703 240.551 154.703C242.355 154.703 243.77 155.137 244.793 156.004C245.816 156.863 246.328 158.051 246.328 159.566C246.328 160.348 246.09 161.066 245.613 161.723C245.137 162.379 244.512 162.883 243.738 163.234C244.699 163.578 245.414 164.094 245.883 164.781C246.359 165.469 246.598 166.281 246.598 167.219C246.598 168.734 246.043 169.949 244.934 170.863C243.832 171.777 242.371 172.234 240.551 172.234C238.848 172.234 237.453 171.785 236.367 170.887C235.289 169.988 234.75 168.801 234.75 167.324H238.137C238.137 167.965 238.375 168.488 238.852 168.895C239.336 169.301 239.93 169.504 240.633 169.504C241.438 169.504 242.066 169.293 242.52 168.871C242.98 168.441 243.211 167.875 243.211 167.172C243.211 165.469 242.273 164.617 240.398 164.617H238.605V161.969ZM248.895 158.219C248.895 157.172 249.234 156.324 249.914 155.676C250.594 155.02 251.484 154.691 252.586 154.691C253.703 154.691 254.602 155.016 255.281 155.664C255.961 156.305 256.301 157.176 256.301 158.277V159.121C256.301 160.176 255.961 161.023 255.281 161.664C254.602 162.305 253.711 162.625 252.609 162.625C251.5 162.625 250.602 162.305 249.914 161.664C249.234 161.016 248.895 160.145 248.895 159.051V158.219ZM251.145 159.121C251.145 159.59 251.277 159.969 251.543 160.258C251.816 160.539 252.172 160.68 252.609 160.68C253.047 160.68 253.395 160.535 253.652 160.246C253.91 159.957 254.039 159.57 254.039 159.086V158.219C254.039 157.75 253.91 157.371 253.652 157.082C253.395 156.793 253.039 156.648 252.586 156.648C252.156 156.648 251.809 156.793 251.543 157.082C251.277 157.363 251.145 157.758 251.145 158.266V159.121ZM257.051 167.816C257.051 166.762 257.395 165.914 258.082 165.273C258.77 164.625 259.66 164.301 260.754 164.301C261.863 164.301 262.758 164.621 263.438 165.262C264.125 165.895 264.469 166.77 264.469 167.887V168.73C264.469 169.777 264.133 170.625 263.461 171.273C262.789 171.914 261.895 172.234 260.777 172.234C259.652 172.234 258.75 171.91 258.07 171.262C257.391 170.613 257.051 169.754 257.051 168.684V167.816ZM259.301 168.73C259.301 169.16 259.441 169.527 259.723 169.832C260.004 170.137 260.355 170.289 260.777 170.289C261.73 170.289 262.207 169.762 262.207 168.707V167.816C262.207 167.348 262.074 166.973 261.809 166.691C261.543 166.402 261.191 166.258 260.754 166.258C260.316 166.258 259.965 166.402 259.699 166.691C259.434 166.973 259.301 167.359 259.301 167.852V168.73ZM253.277 170.723L251.625 169.832L259.957 156.496L261.609 157.387L253.277 170.723Z" fill="white"/>
<circle cx="377" cy="238" r="25" fill="#7289DA"/>
<path d="M372.855 245H361.16V242.68L366.68 236.797C367.438 235.969 367.996 235.246 368.355 234.629C368.723 234.012 368.906 233.426 368.906 232.871C368.906 232.113 368.715 231.52 368.332 231.09C367.949 230.652 367.402 230.434 366.691 230.434C365.926 230.434 365.32 230.699 364.875 231.23C364.438 231.754 364.219 232.445 364.219 233.305H360.82C360.82 232.266 361.066 231.316 361.559 230.457C362.059 229.598 362.762 228.926 363.668 228.441C364.574 227.949 365.602 227.703 366.75 227.703C368.508 227.703 369.871 228.125 370.84 228.969C371.816 229.812 372.305 231.004 372.305 232.543C372.305 233.387 372.086 234.246 371.648 235.121C371.211 235.996 370.461 237.016 369.398 238.18L365.52 242.27H372.855V245ZM374.895 231.219C374.895 230.172 375.234 229.324 375.914 228.676C376.594 228.02 377.484 227.691 378.586 227.691C379.703 227.691 380.602 228.016 381.281 228.664C381.961 229.305 382.301 230.176 382.301 231.277V232.121C382.301 233.176 381.961 234.023 381.281 234.664C380.602 235.305 379.711 235.625 378.609 235.625C377.5 235.625 376.602 235.305 375.914 234.664C375.234 234.016 374.895 233.145 374.895 232.051V231.219ZM377.145 232.121C377.145 232.59 377.277 232.969 377.543 233.258C377.816 233.539 378.172 233.68 378.609 233.68C379.047 233.68 379.395 233.535 379.652 233.246C379.91 232.957 380.039 232.57 380.039 232.086V231.219C380.039 230.75 379.91 230.371 379.652 230.082C379.395 229.793 379.039 229.648 378.586 229.648C378.156 229.648 377.809 229.793 377.543 230.082C377.277 230.363 377.145 230.758 377.145 231.266V232.121ZM383.051 240.816C383.051 239.762 383.395 238.914 384.082 238.273C384.77 237.625 385.66 237.301 386.754 237.301C387.863 237.301 388.758 237.621 389.438 238.262C390.125 238.895 390.469 239.77 390.469 240.887V241.73C390.469 242.777 390.133 243.625 389.461 244.273C388.789 244.914 387.895 245.234 386.777 245.234C385.652 245.234 384.75 244.91 384.07 244.262C383.391 243.613 383.051 242.754 383.051 241.684V240.816ZM385.301 241.73C385.301 242.16 385.441 242.527 385.723 242.832C386.004 243.137 386.355 243.289 386.777 243.289C387.73 243.289 388.207 242.762 388.207 241.707V240.816C388.207 240.348 388.074 239.973 387.809 239.691C387.543 239.402 387.191 239.258 386.754 239.258C386.316 239.258 385.965 239.402 385.699 239.691C385.434 239.973 385.301 240.359 385.301 240.852V241.73ZM379.277 243.723L377.625 242.832L385.957 229.496L387.609 230.387L379.277 243.723Z" fill="white"/>
<circle cx="427" cy="308" r="25" fill="#7289DA"/>
<path d="M419.387 315H416V301.945L411.957 303.199V300.445L419.023 297.914H419.387V315ZM424.895 301.219C424.895 300.172 425.234 299.324 425.914 298.676C426.594 298.02 427.484 297.691 428.586 297.691C429.703 297.691 430.602 298.016 431.281 298.664C431.961 299.305 432.301 300.176 432.301 301.277V302.121C432.301 303.176 431.961 304.023 431.281 304.664C430.602 305.305 429.711 305.625 428.609 305.625C427.5 305.625 426.602 305.305 425.914 304.664C425.234 304.016 424.895 303.145 424.895 302.051V301.219ZM427.145 302.121C427.145 302.59 427.277 302.969 427.543 303.258C427.816 303.539 428.172 303.68 428.609 303.68C429.047 303.68 429.395 303.535 429.652 303.246C429.91 302.957 430.039 302.57 430.039 302.086V301.219C430.039 300.75 429.91 300.371 429.652 300.082C429.395 299.793 429.039 299.648 428.586 299.648C428.156 299.648 427.809 299.793 427.543 300.082C427.277 300.363 427.145 300.758 427.145 301.266V302.121ZM433.051 310.816C433.051 309.762 433.395 308.914 434.082 308.273C434.77 307.625 435.66 307.301 436.754 307.301C437.863 307.301 438.758 307.621 439.438 308.262C440.125 308.895 440.469 309.77 440.469 310.887V311.73C440.469 312.777 440.133 313.625 439.461 314.273C438.789 314.914 437.895 315.234 436.777 315.234C435.652 315.234 434.75 314.91 434.07 314.262C433.391 313.613 433.051 312.754 433.051 311.684V310.816ZM435.301 311.73C435.301 312.16 435.441 312.527 435.723 312.832C436.004 313.137 436.355 313.289 436.777 313.289C437.73 313.289 438.207 312.762 438.207 311.707V310.816C438.207 310.348 438.074 309.973 437.809 309.691C437.543 309.402 437.191 309.258 436.754 309.258C436.316 309.258 435.965 309.402 435.699 309.691C435.434 309.973 435.301 310.359 435.301 310.852V311.73ZM429.277 313.723L427.625 312.832L435.957 299.496L437.609 300.387L429.277 313.723Z" fill="white"/>
<circle cx="477" cy="378" r="25" fill="#7289DA"/>
<path d="M469.387 385H466V371.945L461.957 373.199V370.445L469.023 367.914H469.387V385ZM474.895 371.219C474.895 370.172 475.234 369.324 475.914 368.676C476.594 368.02 477.484 367.691 478.586 367.691C479.703 367.691 480.602 368.016 481.281 368.664C481.961 369.305 482.301 370.176 482.301 371.277V372.121C482.301 373.176 481.961 374.023 481.281 374.664C480.602 375.305 479.711 375.625 478.609 375.625C477.5 375.625 476.602 375.305 475.914 374.664C475.234 374.016 474.895 373.145 474.895 372.051V371.219ZM477.145 372.121C477.145 372.59 477.277 372.969 477.543 373.258C477.816 373.539 478.172 373.68 478.609 373.68C479.047 373.68 479.395 373.535 479.652 373.246C479.91 372.957 480.039 372.57 480.039 372.086V371.219C480.039 370.75 479.91 370.371 479.652 370.082C479.395 369.793 479.039 369.648 478.586 369.648C478.156 369.648 477.809 369.793 477.543 370.082C477.277 370.363 477.145 370.758 477.145 371.266V372.121ZM483.051 380.816C483.051 379.762 483.395 378.914 484.082 378.273C484.77 377.625 485.66 377.301 486.754 377.301C487.863 377.301 488.758 377.621 489.438 378.262C490.125 378.895 490.469 379.77 490.469 380.887V381.73C490.469 382.777 490.133 383.625 489.461 384.273C488.789 384.914 487.895 385.234 486.777 385.234C485.652 385.234 484.75 384.91 484.07 384.262C483.391 383.613 483.051 382.754 483.051 381.684V380.816ZM485.301 381.73C485.301 382.16 485.441 382.527 485.723 382.832C486.004 383.137 486.355 383.289 486.777 383.289C487.73 383.289 488.207 382.762 488.207 381.707V380.816C488.207 380.348 488.074 379.973 487.809 379.691C487.543 379.402 487.191 379.258 486.754 379.258C486.316 379.258 485.965 379.402 485.699 379.691C485.434 379.973 485.301 380.359 485.301 380.852V381.73ZM479.277 383.723L477.625 382.832L485.957 369.496L487.609 370.387L479.277 383.723Z" fill="white"/>
<circle cx="385" cy="378" r="25" fill="#7289DA"/>
<path d="M377.387 385H374V371.945L369.957 373.199V370.445L377.023 367.914H377.387V385ZM382.895 371.219C382.895 370.172 383.234 369.324 383.914 368.676C384.594 368.02 385.484 367.691 386.586 367.691C387.703 367.691 388.602 368.016 389.281 368.664C389.961 369.305 390.301 370.176 390.301 371.277V372.121C390.301 373.176 389.961 374.023 389.281 374.664C388.602 375.305 387.711 375.625 386.609 375.625C385.5 375.625 384.602 375.305 383.914 374.664C383.234 374.016 382.895 373.145 382.895 372.051V371.219ZM385.145 372.121C385.145 372.59 385.277 372.969 385.543 373.258C385.816 373.539 386.172 373.68 386.609 373.68C387.047 373.68 387.395 373.535 387.652 373.246C387.91 372.957 388.039 372.57 388.039 372.086V371.219C388.039 370.75 387.91 370.371 387.652 370.082C387.395 369.793 387.039 369.648 386.586 369.648C386.156 369.648 385.809 369.793 385.543 370.082C385.277 370.363 385.145 370.758 385.145 371.266V372.121ZM391.051 380.816C391.051 379.762 391.395 378.914 392.082 378.273C392.77 377.625 393.66 377.301 394.754 377.301C395.863 377.301 396.758 377.621 397.438 378.262C398.125 378.895 398.469 379.77 398.469 380.887V381.73C398.469 382.777 398.133 383.625 397.461 384.273C396.789 384.914 395.895 385.234 394.777 385.234C393.652 385.234 392.75 384.91 392.07 384.262C391.391 383.613 391.051 382.754 391.051 381.684V380.816ZM393.301 381.73C393.301 382.16 393.441 382.527 393.723 382.832C394.004 383.137 394.355 383.289 394.777 383.289C395.73 383.289 396.207 382.762 396.207 381.707V380.816C396.207 380.348 396.074 379.973 395.809 379.691C395.543 379.402 395.191 379.258 394.754 379.258C394.316 379.258 393.965 379.402 393.699 379.691C393.434 379.973 393.301 380.359 393.301 380.852V381.73ZM387.277 383.723L385.625 382.832L393.957 369.496L395.609 370.387L387.277 383.723Z" fill="white"/>
<circle cx="205" cy="378" r="25" fill="#7289DA"/>
<path d="M197.387 385H194V371.945L189.957 373.199V370.445L197.023 367.914H197.387V385ZM202.895 371.219C202.895 370.172 203.234 369.324 203.914 368.676C204.594 368.02 205.484 367.691 206.586 367.691C207.703 367.691 208.602 368.016 209.281 368.664C209.961 369.305 210.301 370.176 210.301 371.277V372.121C210.301 373.176 209.961 374.023 209.281 374.664C208.602 375.305 207.711 375.625 206.609 375.625C205.5 375.625 204.602 375.305 203.914 374.664C203.234 374.016 202.895 373.145 202.895 372.051V371.219ZM205.145 372.121C205.145 372.59 205.277 372.969 205.543 373.258C205.816 373.539 206.172 373.68 206.609 373.68C207.047 373.68 207.395 373.535 207.652 373.246C207.91 372.957 208.039 372.57 208.039 372.086V371.219C208.039 370.75 207.91 370.371 207.652 370.082C207.395 369.793 207.039 369.648 206.586 369.648C206.156 369.648 205.809 369.793 205.543 370.082C205.277 370.363 205.145 370.758 205.145 371.266V372.121ZM211.051 380.816C211.051 379.762 211.395 378.914 212.082 378.273C212.77 377.625 213.66 377.301 214.754 377.301C215.863 377.301 216.758 377.621 217.438 378.262C218.125 378.895 218.469 379.77 218.469 380.887V381.73C218.469 382.777 218.133 383.625 217.461 384.273C216.789 384.914 215.895 385.234 214.777 385.234C213.652 385.234 212.75 384.91 212.07 384.262C211.391 383.613 211.051 382.754 211.051 381.684V380.816ZM213.301 381.73C213.301 382.16 213.441 382.527 213.723 382.832C214.004 383.137 214.355 383.289 214.777 383.289C215.73 383.289 216.207 382.762 216.207 381.707V380.816C216.207 380.348 216.074 379.973 215.809 379.691C215.543 379.402 215.191 379.258 214.754 379.258C214.316 379.258 213.965 379.402 213.699 379.691C213.434 379.973 213.301 380.359 213.301 380.852V381.73ZM207.277 383.723L205.625 382.832L213.957 369.496L215.609 370.387L207.277 383.723Z" fill="white"/>
<circle cx="115" cy="378" r="25" fill="#7289DA"/>
<path d="M107.387 385H104V371.945L99.957 373.199V370.445L107.023 367.914H107.387V385ZM112.895 371.219C112.895 370.172 113.234 369.324 113.914 368.676C114.594 368.02 115.484 367.691 116.586 367.691C117.703 367.691 118.602 368.016 119.281 368.664C119.961 369.305 120.301 370.176 120.301 371.277V372.121C120.301 373.176 119.961 374.023 119.281 374.664C118.602 375.305 117.711 375.625 116.609 375.625C115.5 375.625 114.602 375.305 113.914 374.664C113.234 374.016 112.895 373.145 112.895 372.051V371.219ZM115.145 372.121C115.145 372.59 115.277 372.969 115.543 373.258C115.816 373.539 116.172 373.68 116.609 373.68C117.047 373.68 117.395 373.535 117.652 373.246C117.91 372.957 118.039 372.57 118.039 372.086V371.219C118.039 370.75 117.91 370.371 117.652 370.082C117.395 369.793 117.039 369.648 116.586 369.648C116.156 369.648 115.809 369.793 115.543 370.082C115.277 370.363 115.145 370.758 115.145 371.266V372.121ZM121.051 380.816C121.051 379.762 121.395 378.914 122.082 378.273C122.77 377.625 123.66 377.301 124.754 377.301C125.863 377.301 126.758 377.621 127.438 378.262C128.125 378.895 128.469 379.77 128.469 380.887V381.73C128.469 382.777 128.133 383.625 127.461 384.273C126.789 384.914 125.895 385.234 124.777 385.234C123.652 385.234 122.75 384.91 122.07 384.262C121.391 383.613 121.051 382.754 121.051 381.684V380.816ZM123.301 381.73C123.301 382.16 123.441 382.527 123.723 382.832C124.004 383.137 124.355 383.289 124.777 383.289C125.73 383.289 126.207 382.762 126.207 381.707V380.816C126.207 380.348 126.074 379.973 125.809 379.691C125.543 379.402 125.191 379.258 124.754 379.258C124.316 379.258 123.965 379.402 123.699 379.691C123.434 379.973 123.301 380.359 123.301 380.852V381.73ZM117.277 383.723L115.625 382.832L123.957 369.496L125.609 370.387L117.277 383.723Z" fill="white"/>
<circle cx="25" cy="378" r="25" fill="#7289DA"/>
<path d="M17.3867 385H14V371.945L9.95703 373.199V370.445L17.0234 367.914H17.3867V385ZM22.8945 371.219C22.8945 370.172 23.2344 369.324 23.9141 368.676C24.5938 368.02 25.4844 367.691 26.5859 367.691C27.7031 367.691 28.6016 368.016 29.2812 368.664C29.9609 369.305 30.3008 370.176 30.3008 371.277V372.121C30.3008 373.176 29.9609 374.023 29.2812 374.664C28.6016 375.305 27.7109 375.625 26.6094 375.625C25.5 375.625 24.6016 375.305 23.9141 374.664C23.2344 374.016 22.8945 373.145 22.8945 372.051V371.219ZM25.1445 372.121C25.1445 372.59 25.2773 372.969 25.543 373.258C25.8164 373.539 26.1719 373.68 26.6094 373.68C27.0469 373.68 27.3945 373.535 27.6523 373.246C27.9102 372.957 28.0391 372.57 28.0391 372.086V371.219C28.0391 370.75 27.9102 370.371 27.6523 370.082C27.3945 369.793 27.0391 369.648 26.5859 369.648C26.1562 369.648 25.8086 369.793 25.543 370.082C25.2773 370.363 25.1445 370.758 25.1445 371.266V372.121ZM31.0508 380.816C31.0508 379.762 31.3945 378.914 32.082 378.273C32.7695 377.625 33.6602 377.301 34.7539 377.301C35.8633 377.301 36.7578 377.621 37.4375 378.262C38.125 378.895 38.4688 379.77 38.4688 380.887V381.73C38.4688 382.777 38.1328 383.625 37.4609 384.273C36.7891 384.914 35.8945 385.234 34.7773 385.234C33.6523 385.234 32.75 384.91 32.0703 384.262C31.3906 383.613 31.0508 382.754 31.0508 381.684V380.816ZM33.3008 381.73C33.3008 382.16 33.4414 382.527 33.7227 382.832C34.0039 383.137 34.3555 383.289 34.7773 383.289C35.7305 383.289 36.207 382.762 36.207 381.707V380.816C36.207 380.348 36.0742 379.973 35.8086 379.691C35.543 379.402 35.1914 379.258 34.7539 379.258C34.3164 379.258 33.9648 379.402 33.6992 379.691C33.4336 379.973 33.3008 380.359 33.3008 380.852V381.73ZM27.2773 383.723L25.625 382.832L33.957 369.496L35.6094 370.387L27.2773 383.723Z" fill="white"/>
<circle cx="341" cy="165" r="25" fill="#7289DA"/>
<path d="M328.605 161.969H330.41C331.27 161.969 331.906 161.754 332.32 161.324C332.734 160.895 332.941 160.324 332.941 159.613C332.941 158.926 332.734 158.391 332.32 158.008C331.914 157.625 331.352 157.434 330.633 157.434C329.984 157.434 329.441 157.613 329.004 157.973C328.566 158.324 328.348 158.785 328.348 159.355H324.961C324.961 158.465 325.199 157.668 325.676 156.965C326.16 156.254 326.832 155.699 327.691 155.301C328.559 154.902 329.512 154.703 330.551 154.703C332.355 154.703 333.77 155.137 334.793 156.004C335.816 156.863 336.328 158.051 336.328 159.566C336.328 160.348 336.09 161.066 335.613 161.723C335.137 162.379 334.512 162.883 333.738 163.234C334.699 163.578 335.414 164.094 335.883 164.781C336.359 165.469 336.598 166.281 336.598 167.219C336.598 168.734 336.043 169.949 334.934 170.863C333.832 171.777 332.371 172.234 330.551 172.234C328.848 172.234 327.453 171.785 326.367 170.887C325.289 169.988 324.75 168.801 324.75 167.324H328.137C328.137 167.965 328.375 168.488 328.852 168.895C329.336 169.301 329.93 169.504 330.633 169.504C331.438 169.504 332.066 169.293 332.52 168.871C332.98 168.441 333.211 167.875 333.211 167.172C333.211 165.469 332.273 164.617 330.398 164.617H328.605V161.969ZM338.895 158.219C338.895 157.172 339.234 156.324 339.914 155.676C340.594 155.02 341.484 154.691 342.586 154.691C343.703 154.691 344.602 155.016 345.281 155.664C345.961 156.305 346.301 157.176 346.301 158.277V159.121C346.301 160.176 345.961 161.023 345.281 161.664C344.602 162.305 343.711 162.625 342.609 162.625C341.5 162.625 340.602 162.305 339.914 161.664C339.234 161.016 338.895 160.145 338.895 159.051V158.219ZM341.145 159.121C341.145 159.59 341.277 159.969 341.543 160.258C341.816 160.539 342.172 160.68 342.609 160.68C343.047 160.68 343.395 160.535 343.652 160.246C343.91 159.957 344.039 159.57 344.039 159.086V158.219C344.039 157.75 343.91 157.371 343.652 157.082C343.395 156.793 343.039 156.648 342.586 156.648C342.156 156.648 341.809 156.793 341.543 157.082C341.277 157.363 341.145 157.758 341.145 158.266V159.121ZM347.051 167.816C347.051 166.762 347.395 165.914 348.082 165.273C348.77 164.625 349.66 164.301 350.754 164.301C351.863 164.301 352.758 164.621 353.438 165.262C354.125 165.895 354.469 166.77 354.469 167.887V168.73C354.469 169.777 354.133 170.625 353.461 171.273C352.789 171.914 351.895 172.234 350.777 172.234C349.652 172.234 348.75 171.91 348.07 171.262C347.391 170.613 347.051 169.754 347.051 168.684V167.816ZM349.301 168.73C349.301 169.16 349.441 169.527 349.723 169.832C350.004 170.137 350.355 170.289 350.777 170.289C351.73 170.289 352.207 169.762 352.207 168.707V167.816C352.207 167.348 352.074 166.973 351.809 166.691C351.543 166.402 351.191 166.258 350.754 166.258C350.316 166.258 349.965 166.402 349.699 166.691C349.434 166.973 349.301 167.359 349.301 167.852V168.73ZM343.277 170.723L341.625 169.832L349.957 156.496L351.609 157.387L343.277 170.723Z" fill="white"/>
<path d="M287.855 246H276.16V243.68L281.68 237.797C282.438 236.969 282.996 236.246 283.355 235.629C283.723 235.012 283.906 234.426 283.906 233.871C283.906 233.113 283.715 232.52 283.332 232.09C282.949 231.652 282.402 231.434 281.691 231.434C280.926 231.434 280.32 231.699 279.875 232.23C279.438 232.754 279.219 233.445 279.219 234.305H275.82C275.82 233.266 276.066 232.316 276.559 231.457C277.059 230.598 277.762 229.926 278.668 229.441C279.574 228.949 280.602 228.703 281.75 228.703C283.508 228.703 284.871 229.125 285.84 229.969C286.816 230.812 287.305 232.004 287.305 233.543C287.305 234.387 287.086 235.246 286.648 236.121C286.211 236.996 285.461 238.016 284.398 239.18L280.52 243.27H287.855V246ZM289.895 232.219C289.895 231.172 290.234 230.324 290.914 229.676C291.594 229.02 292.484 228.691 293.586 228.691C294.703 228.691 295.602 229.016 296.281 229.664C296.961 230.305 297.301 231.176 297.301 232.277V233.121C297.301 234.176 296.961 235.023 296.281 235.664C295.602 236.305 294.711 236.625 293.609 236.625C292.5 236.625 291.602 236.305 290.914 235.664C290.234 235.016 289.895 234.145 289.895 233.051V232.219ZM292.145 233.121C292.145 233.59 292.277 233.969 292.543 234.258C292.816 234.539 293.172 234.68 293.609 234.68C294.047 234.68 294.395 234.535 294.652 234.246C294.91 233.957 295.039 233.57 295.039 233.086V232.219C295.039 231.75 294.91 231.371 294.652 231.082C294.395 230.793 294.039 230.648 293.586 230.648C293.156 230.648 292.809 230.793 292.543 231.082C292.277 231.363 292.145 231.758 292.145 232.266V233.121ZM298.051 241.816C298.051 240.762 298.395 239.914 299.082 239.273C299.77 238.625 300.66 238.301 301.754 238.301C302.863 238.301 303.758 238.621 304.438 239.262C305.125 239.895 305.469 240.77 305.469 241.887V242.73C305.469 243.777 305.133 244.625 304.461 245.273C303.789 245.914 302.895 246.234 301.777 246.234C300.652 246.234 299.75 245.91 299.07 245.262C298.391 244.613 298.051 243.754 298.051 242.684V241.816ZM300.301 242.73C300.301 243.16 300.441 243.527 300.723 243.832C301.004 244.137 301.355 244.289 301.777 244.289C302.73 244.289 303.207 243.762 303.207 242.707V241.816C303.207 241.348 303.074 240.973 302.809 240.691C302.543 240.402 302.191 240.258 301.754 240.258C301.316 240.258 300.965 240.402 300.699 240.691C300.434 240.973 300.301 241.359 300.301 241.852V242.73ZM294.277 244.723L292.625 243.832L300.957 230.496L302.609 231.387L294.277 244.723Z" fill="white"/>
<path d="M204.855 246H193.16V243.68L198.68 237.797C199.438 236.969 199.996 236.246 200.355 235.629C200.723 235.012 200.906 234.426 200.906 233.871C200.906 233.113 200.715 232.52 200.332 232.09C199.949 231.652 199.402 231.434 198.691 231.434C197.926 231.434 197.32 231.699 196.875 232.23C196.438 232.754 196.219 233.445 196.219 234.305H192.82C192.82 233.266 193.066 232.316 193.559 231.457C194.059 230.598 194.762 229.926 195.668 229.441C196.574 228.949 197.602 228.703 198.75 228.703C200.508 228.703 201.871 229.125 202.84 229.969C203.816 230.812 204.305 232.004 204.305 233.543C204.305 234.387 204.086 235.246 203.648 236.121C203.211 236.996 202.461 238.016 201.398 239.18L197.52 243.27H204.855V246ZM206.895 232.219C206.895 231.172 207.234 230.324 207.914 229.676C208.594 229.02 209.484 228.691 210.586 228.691C211.703 228.691 212.602 229.016 213.281 229.664C213.961 230.305 214.301 231.176 214.301 232.277V233.121C214.301 234.176 213.961 235.023 213.281 235.664C212.602 236.305 211.711 236.625 210.609 236.625C209.5 236.625 208.602 236.305 207.914 235.664C207.234 235.016 206.895 234.145 206.895 233.051V232.219ZM209.145 233.121C209.145 233.59 209.277 233.969 209.543 234.258C209.816 234.539 210.172 234.68 210.609 234.68C211.047 234.68 211.395 234.535 211.652 234.246C211.91 233.957 212.039 233.57 212.039 233.086V232.219C212.039 231.75 211.91 231.371 211.652 231.082C211.395 230.793 211.039 230.648 210.586 230.648C210.156 230.648 209.809 230.793 209.543 231.082C209.277 231.363 209.145 231.758 209.145 232.266V233.121ZM215.051 241.816C215.051 240.762 215.395 239.914 216.082 239.273C216.77 238.625 217.66 238.301 218.754 238.301C219.863 238.301 220.758 238.621 221.438 239.262C222.125 239.895 222.469 240.77 222.469 241.887V242.73C222.469 243.777 222.133 244.625 221.461 245.273C220.789 245.914 219.895 246.234 218.777 246.234C217.652 246.234 216.75 245.91 216.07 245.262C215.391 244.613 215.051 243.754 215.051 242.684V241.816ZM217.301 242.73C217.301 243.16 217.441 243.527 217.723 243.832C218.004 244.137 218.355 244.289 218.777 244.289C219.73 244.289 220.207 243.762 220.207 242.707V241.816C220.207 241.348 220.074 240.973 219.809 240.691C219.543 240.402 219.191 240.258 218.754 240.258C218.316 240.258 217.965 240.402 217.699 240.691C217.434 240.973 217.301 241.359 217.301 241.852V242.73ZM211.277 244.723L209.625 243.832L217.957 230.496L219.609 231.387L211.277 244.723Z" fill="white"/>
<path d="M114.855 246H103.16V243.68L108.68 237.797C109.438 236.969 109.996 236.246 110.355 235.629C110.723 235.012 110.906 234.426 110.906 233.871C110.906 233.113 110.715 232.52 110.332 232.09C109.949 231.652 109.402 231.434 108.691 231.434C107.926 231.434 107.32 231.699 106.875 232.23C106.438 232.754 106.219 233.445 106.219 234.305H102.82C102.82 233.266 103.066 232.316 103.559 231.457C104.059 230.598 104.762 229.926 105.668 229.441C106.574 228.949 107.602 228.703 108.75 228.703C110.508 228.703 111.871 229.125 112.84 229.969C113.816 230.812 114.305 232.004 114.305 233.543C114.305 234.387 114.086 235.246 113.648 236.121C113.211 236.996 112.461 238.016 111.398 239.18L107.52 243.27H114.855V246ZM116.895 232.219C116.895 231.172 117.234 230.324 117.914 229.676C118.594 229.02 119.484 228.691 120.586 228.691C121.703 228.691 122.602 229.016 123.281 229.664C123.961 230.305 124.301 231.176 124.301 232.277V233.121C124.301 234.176 123.961 235.023 123.281 235.664C122.602 236.305 121.711 236.625 120.609 236.625C119.5 236.625 118.602 236.305 117.914 235.664C117.234 235.016 116.895 234.145 116.895 233.051V232.219ZM119.145 233.121C119.145 233.59 119.277 233.969 119.543 234.258C119.816 234.539 120.172 234.68 120.609 234.68C121.047 234.68 121.395 234.535 121.652 234.246C121.91 233.957 122.039 233.57 122.039 233.086V232.219C122.039 231.75 121.91 231.371 121.652 231.082C121.395 230.793 121.039 230.648 120.586 230.648C120.156 230.648 119.809 230.793 119.543 231.082C119.277 231.363 119.145 231.758 119.145 232.266V233.121ZM125.051 241.816C125.051 240.762 125.395 239.914 126.082 239.273C126.77 238.625 127.66 238.301 128.754 238.301C129.863 238.301 130.758 238.621 131.438 239.262C132.125 239.895 132.469 240.77 132.469 241.887V242.73C132.469 243.777 132.133 244.625 131.461 245.273C130.789 245.914 129.895 246.234 128.777 246.234C127.652 246.234 126.75 245.91 126.07 245.262C125.391 244.613 125.051 243.754 125.051 242.684V241.816ZM127.301 242.73C127.301 243.16 127.441 243.527 127.723 243.832C128.004 244.137 128.355 244.289 128.777 244.289C129.73 244.289 130.207 243.762 130.207 242.707V241.816C130.207 241.348 130.074 240.973 129.809 240.691C129.543 240.402 129.191 240.258 128.754 240.258C128.316 240.258 127.965 240.402 127.699 240.691C127.434 240.973 127.301 241.359 127.301 241.852V242.73ZM121.277 244.723L119.625 243.832L127.957 230.496L129.609 231.387L121.277 244.723Z" fill="white"/>
<path d="M67.3867 315H64V301.945L59.957 303.199V300.445L67.0234 297.914H67.3867V315ZM72.8945 301.219C72.8945 300.172 73.2344 299.324 73.9141 298.676C74.5938 298.02 75.4844 297.691 76.5859 297.691C77.7031 297.691 78.6016 298.016 79.2812 298.664C79.9609 299.305 80.3008 300.176 80.3008 301.277V302.121C80.3008 303.176 79.9609 304.023 79.2812 304.664C78.6016 305.305 77.7109 305.625 76.6094 305.625C75.5 305.625 74.6016 305.305 73.9141 304.664C73.2344 304.016 72.8945 303.145 72.8945 302.051V301.219ZM75.1445 302.121C75.1445 302.59 75.2773 302.969 75.543 303.258C75.8164 303.539 76.1719 303.68 76.6094 303.68C77.0469 303.68 77.3945 303.535 77.6523 303.246C77.9102 302.957 78.0391 302.57 78.0391 302.086V301.219C78.0391 300.75 77.9102 300.371 77.6523 300.082C77.3945 299.793 77.0391 299.648 76.5859 299.648C76.1562 299.648 75.8086 299.793 75.543 300.082C75.2773 300.363 75.1445 300.758 75.1445 301.266V302.121ZM81.0508 310.816C81.0508 309.762 81.3945 308.914 82.082 308.273C82.7695 307.625 83.6602 307.301 84.7539 307.301C85.8633 307.301 86.7578 307.621 87.4375 308.262C88.125 308.895 88.4688 309.77 88.4688 310.887V311.73C88.4688 312.777 88.1328 313.625 87.4609 314.273C86.7891 314.914 85.8945 315.234 84.7773 315.234C83.6523 315.234 82.75 314.91 82.0703 314.262C81.3906 313.613 81.0508 312.754 81.0508 311.684V310.816ZM83.3008 311.73C83.3008 312.16 83.4414 312.527 83.7227 312.832C84.0039 313.137 84.3555 313.289 84.7773 313.289C85.7305 313.289 86.207 312.762 86.207 311.707V310.816C86.207 310.348 86.0742 309.973 85.8086 309.691C85.543 309.402 85.1914 309.258 84.7539 309.258C84.3164 309.258 83.9648 309.402 83.6992 309.691C83.4336 309.973 83.3008 310.359 83.3008 310.852V311.73ZM77.2773 313.723L75.625 312.832L83.957 299.496L85.6094 300.387L77.2773 313.723Z" fill="white"/>
<path d="M155.387 315H152V301.945L147.957 303.199V300.445L155.023 297.914H155.387V315ZM160.895 301.219C160.895 300.172 161.234 299.324 161.914 298.676C162.594 298.02 163.484 297.691 164.586 297.691C165.703 297.691 166.602 298.016 167.281 298.664C167.961 299.305 168.301 300.176 168.301 301.277V302.121C168.301 303.176 167.961 304.023 167.281 304.664C166.602 305.305 165.711 305.625 164.609 305.625C163.5 305.625 162.602 305.305 161.914 304.664C161.234 304.016 160.895 303.145 160.895 302.051V301.219ZM163.145 302.121C163.145 302.59 163.277 302.969 163.543 303.258C163.816 303.539 164.172 303.68 164.609 303.68C165.047 303.68 165.395 303.535 165.652 303.246C165.91 302.957 166.039 302.57 166.039 302.086V301.219C166.039 300.75 165.91 300.371 165.652 300.082C165.395 299.793 165.039 299.648 164.586 299.648C164.156 299.648 163.809 299.793 163.543 300.082C163.277 300.363 163.145 300.758 163.145 301.266V302.121ZM169.051 310.816C169.051 309.762 169.395 308.914 170.082 308.273C170.77 307.625 171.66 307.301 172.754 307.301C173.863 307.301 174.758 307.621 175.438 308.262C176.125 308.895 176.469 309.77 176.469 310.887V311.73C176.469 312.777 176.133 313.625 175.461 314.273C174.789 314.914 173.895 315.234 172.777 315.234C171.652 315.234 170.75 314.91 170.07 314.262C169.391 313.613 169.051 312.754 169.051 311.684V310.816ZM171.301 311.73C171.301 312.16 171.441 312.527 171.723 312.832C172.004 313.137 172.355 313.289 172.777 313.289C173.73 313.289 174.207 312.762 174.207 311.707V310.816C174.207 310.348 174.074 309.973 173.809 309.691C173.543 309.402 173.191 309.258 172.754 309.258C172.316 309.258 171.965 309.402 171.699 309.691C171.434 309.973 171.301 310.359 171.301 310.852V311.73ZM165.277 313.723L163.625 312.832L171.957 299.496L173.609 300.387L165.277 313.723Z" fill="white"/>
<path d="M243.387 315H240V301.945L235.957 303.199V300.445L243.023 297.914H243.387V315ZM248.895 301.219C248.895 300.172 249.234 299.324 249.914 298.676C250.594 298.02 251.484 297.691 252.586 297.691C253.703 297.691 254.602 298.016 255.281 298.664C255.961 299.305 256.301 300.176 256.301 301.277V302.121C256.301 303.176 255.961 304.023 255.281 304.664C254.602 305.305 253.711 305.625 252.609 305.625C251.5 305.625 250.602 305.305 249.914 304.664C249.234 304.016 248.895 303.145 248.895 302.051V301.219ZM251.145 302.121C251.145 302.59 251.277 302.969 251.543 303.258C251.816 303.539 252.172 303.68 252.609 303.68C253.047 303.68 253.395 303.535 253.652 303.246C253.91 302.957 254.039 302.57 254.039 302.086V301.219C254.039 300.75 253.91 300.371 253.652 300.082C253.395 299.793 253.039 299.648 252.586 299.648C252.156 299.648 251.809 299.793 251.543 300.082C251.277 300.363 251.145 300.758 251.145 301.266V302.121ZM257.051 310.816C257.051 309.762 257.395 308.914 258.082 308.273C258.77 307.625 259.66 307.301 260.754 307.301C261.863 307.301 262.758 307.621 263.438 308.262C264.125 308.895 264.469 309.77 264.469 310.887V311.73C264.469 312.777 264.133 313.625 263.461 314.273C262.789 314.914 261.895 315.234 260.777 315.234C259.652 315.234 258.75 314.91 258.07 314.262C257.391 313.613 257.051 312.754 257.051 311.684V310.816ZM259.301 311.73C259.301 312.16 259.441 312.527 259.723 312.832C260.004 313.137 260.355 313.289 260.777 313.289C261.73 313.289 262.207 312.762 262.207 311.707V310.816C262.207 310.348 262.074 309.973 261.809 309.691C261.543 309.402 261.191 309.258 260.754 309.258C260.316 309.258 259.965 309.402 259.699 309.691C259.434 309.973 259.301 310.359 259.301 310.852V311.73ZM253.277 313.723L251.625 312.832L259.957 299.496L261.609 300.387L253.277 313.723Z" fill="white"/>
<path d="M326.387 315H323V301.945L318.957 303.199V300.445L326.023 297.914H326.387V315ZM331.895 301.219C331.895 300.172 332.234 299.324 332.914 298.676C333.594 298.02 334.484 297.691 335.586 297.691C336.703 297.691 337.602 298.016 338.281 298.664C338.961 299.305 339.301 300.176 339.301 301.277V302.121C339.301 303.176 338.961 304.023 338.281 304.664C337.602 305.305 336.711 305.625 335.609 305.625C334.5 305.625 333.602 305.305 332.914 304.664C332.234 304.016 331.895 303.145 331.895 302.051V301.219ZM334.145 302.121C334.145 302.59 334.277 302.969 334.543 303.258C334.816 303.539 335.172 303.68 335.609 303.68C336.047 303.68 336.395 303.535 336.652 303.246C336.91 302.957 337.039 302.57 337.039 302.086V301.219C337.039 300.75 336.91 300.371 336.652 300.082C336.395 299.793 336.039 299.648 335.586 299.648C335.156 299.648 334.809 299.793 334.543 300.082C334.277 300.363 334.145 300.758 334.145 301.266V302.121ZM340.051 310.816C340.051 309.762 340.395 308.914 341.082 308.273C341.77 307.625 342.66 307.301 343.754 307.301C344.863 307.301 345.758 307.621 346.438 308.262C347.125 308.895 347.469 309.77 347.469 310.887V311.73C347.469 312.777 347.133 313.625 346.461 314.273C345.789 314.914 344.895 315.234 343.777 315.234C342.652 315.234 341.75 314.91 341.07 314.262C340.391 313.613 340.051 312.754 340.051 311.684V310.816ZM342.301 311.73C342.301 312.16 342.441 312.527 342.723 312.832C343.004 313.137 343.355 313.289 343.777 313.289C344.73 313.289 345.207 312.762 345.207 311.707V310.816C345.207 310.348 345.074 309.973 344.809 309.691C344.543 309.402 344.191 309.258 343.754 309.258C343.316 309.258 342.965 309.402 342.699 309.691C342.434 309.973 342.301 310.359 342.301 310.852V311.73ZM336.277 313.723L334.625 312.832L342.957 299.496L344.609 300.387L336.277 313.723Z" fill="white"/>
<circle cx="291" cy="383" r="25" fill="#7289DA"/>
<path d="M284.387 389H281V375.945L276.957 377.199V374.445L284.023 371.914H284.387V389ZM289.895 375.219C289.895 374.172 290.234 373.324 290.914 372.676C291.594 372.02 292.484 371.691 293.586 371.691C294.703 371.691 295.602 372.016 296.281 372.664C296.961 373.305 297.301 374.176 297.301 375.277V376.121C297.301 377.176 296.961 378.023 296.281 378.664C295.602 379.305 294.711 379.625 293.609 379.625C292.5 379.625 291.602 379.305 290.914 378.664C290.234 378.016 289.895 377.145 289.895 376.051V375.219ZM292.145 376.121C292.145 376.59 292.277 376.969 292.543 377.258C292.816 377.539 293.172 377.68 293.609 377.68C294.047 377.68 294.395 377.535 294.652 377.246C294.91 376.957 295.039 376.57 295.039 376.086V375.219C295.039 374.75 294.91 374.371 294.652 374.082C294.395 373.793 294.039 373.648 293.586 373.648C293.156 373.648 292.809 373.793 292.543 374.082C292.277 374.363 292.145 374.758 292.145 375.266V376.121ZM298.051 384.816C298.051 383.762 298.395 382.914 299.082 382.273C299.77 381.625 300.66 381.301 301.754 381.301C302.863 381.301 303.758 381.621 304.438 382.262C305.125 382.895 305.469 383.77 305.469 384.887V385.73C305.469 386.777 305.133 387.625 304.461 388.273C303.789 388.914 302.895 389.234 301.777 389.234C300.652 389.234 299.75 388.91 299.07 388.262C298.391 387.613 298.051 386.754 298.051 385.684V384.816ZM300.301 385.73C300.301 386.16 300.441 386.527 300.723 386.832C301.004 387.137 301.355 387.289 301.777 387.289C302.73 387.289 303.207 386.762 303.207 385.707V384.816C303.207 384.348 303.074 383.973 302.809 383.691C302.543 383.402 302.191 383.258 301.754 383.258C301.316 383.258 300.965 383.402 300.699 383.691C300.434 383.973 300.301 384.359 300.301 384.852V385.73ZM294.277 387.723L292.625 386.832L300.957 373.496L302.609 374.387L294.277 387.723Z" fill="white"/>
<path d="M192.664 97.6094L193.648 88.9375H203.211V91.7617H196.426L196.004 95.4297C196.809 95 197.664 94.7852 198.57 94.7852C200.195 94.7852 201.469 95.2891 202.391 96.2969C203.312 97.3047 203.773 98.7148 203.773 100.527C203.773 101.629 203.539 102.617 203.07 103.492C202.609 104.359 201.945 105.035 201.078 105.52C200.211 105.996 199.188 106.234 198.008 106.234C196.977 106.234 196.02 106.027 195.137 105.613C194.254 105.191 193.555 104.602 193.039 103.844C192.531 103.086 192.262 102.223 192.23 101.254H195.582C195.652 101.965 195.898 102.52 196.32 102.918C196.75 103.309 197.309 103.504 197.996 103.504C198.762 103.504 199.352 103.23 199.766 102.684C200.18 102.129 200.387 101.348 200.387 100.34C200.387 99.3711 200.148 98.6289 199.672 98.1133C199.195 97.5977 198.52 97.3398 197.645 97.3398C196.84 97.3398 196.188 97.5508 195.688 97.9727L195.359 98.2773L192.664 97.6094ZM205.895 92.2188C205.895 91.1719 206.234 90.3242 206.914 89.6758C207.594 89.0195 208.484 88.6914 209.586 88.6914C210.703 88.6914 211.602 89.0156 212.281 89.6641C212.961 90.3047 213.301 91.1758 213.301 92.2773V93.1211C213.301 94.1758 212.961 95.0234 212.281 95.6641C211.602 96.3047 210.711 96.625 209.609 96.625C208.5 96.625 207.602 96.3047 206.914 95.6641C206.234 95.0156 205.895 94.1445 205.895 93.0508V92.2188ZM208.145 93.1211C208.145 93.5898 208.277 93.9688 208.543 94.2578C208.816 94.5391 209.172 94.6797 209.609 94.6797C210.047 94.6797 210.395 94.5352 210.652 94.2461C210.91 93.957 211.039 93.5703 211.039 93.0859V92.2188C211.039 91.75 210.91 91.3711 210.652 91.082C210.395 90.793 210.039 90.6484 209.586 90.6484C209.156 90.6484 208.809 90.793 208.543 91.082C208.277 91.3633 208.145 91.7578 208.145 92.2656V93.1211ZM214.051 101.816C214.051 100.762 214.395 99.9141 215.082 99.2734C215.77 98.625 216.66 98.3008 217.754 98.3008C218.863 98.3008 219.758 98.6211 220.438 99.2617C221.125 99.8945 221.469 100.77 221.469 101.887V102.73C221.469 103.777 221.133 104.625 220.461 105.273C219.789 105.914 218.895 106.234 217.777 106.234C216.652 106.234 215.75 105.91 215.07 105.262C214.391 104.613 214.051 103.754 214.051 102.684V101.816ZM216.301 102.73C216.301 103.16 216.441 103.527 216.723 103.832C217.004 104.137 217.355 104.289 217.777 104.289C218.73 104.289 219.207 103.762 219.207 102.707V101.816C219.207 101.348 219.074 100.973 218.809 100.691C218.543 100.402 218.191 100.258 217.754 100.258C217.316 100.258 216.965 100.402 216.699 100.691C216.434 100.973 216.301 101.359 216.301 101.852V102.73ZM210.277 104.723L208.625 103.832L216.957 90.4961L218.609 91.3867L210.277 104.723Z" fill="white"/>
<circle cx="301" cy="98" r="25" fill="#7289DA"/>
<path d="M286.664 97.6094L287.648 88.9375H297.211V91.7617H290.426L290.004 95.4297C290.809 95 291.664 94.7852 292.57 94.7852C294.195 94.7852 295.469 95.2891 296.391 96.2969C297.312 97.3047 297.773 98.7148 297.773 100.527C297.773 101.629 297.539 102.617 297.07 103.492C296.609 104.359 295.945 105.035 295.078 105.52C294.211 105.996 293.188 106.234 292.008 106.234C290.977 106.234 290.02 106.027 289.137 105.613C288.254 105.191 287.555 104.602 287.039 103.844C286.531 103.086 286.262 102.223 286.23 101.254H289.582C289.652 101.965 289.898 102.52 290.32 102.918C290.75 103.309 291.309 103.504 291.996 103.504C292.762 103.504 293.352 103.23 293.766 102.684C294.18 102.129 294.387 101.348 294.387 100.34C294.387 99.3711 294.148 98.6289 293.672 98.1133C293.195 97.5977 292.52 97.3398 291.645 97.3398C290.84 97.3398 290.188 97.5508 289.688 97.9727L289.359 98.2773L286.664 97.6094ZM299.895 92.2188C299.895 91.1719 300.234 90.3242 300.914 89.6758C301.594 89.0195 302.484 88.6914 303.586 88.6914C304.703 88.6914 305.602 89.0156 306.281 89.6641C306.961 90.3047 307.301 91.1758 307.301 92.2773V93.1211C307.301 94.1758 306.961 95.0234 306.281 95.6641C305.602 96.3047 304.711 96.625 303.609 96.625C302.5 96.625 301.602 96.3047 300.914 95.6641C300.234 95.0156 299.895 94.1445 299.895 93.0508V92.2188ZM302.145 93.1211C302.145 93.5898 302.277 93.9688 302.543 94.2578C302.816 94.5391 303.172 94.6797 303.609 94.6797C304.047 94.6797 304.395 94.5352 304.652 94.2461C304.91 93.957 305.039 93.5703 305.039 93.0859V92.2188C305.039 91.75 304.91 91.3711 304.652 91.082C304.395 90.793 304.039 90.6484 303.586 90.6484C303.156 90.6484 302.809 90.793 302.543 91.082C302.277 91.3633 302.145 91.7578 302.145 92.2656V93.1211ZM308.051 101.816C308.051 100.762 308.395 99.9141 309.082 99.2734C309.77 98.625 310.66 98.3008 311.754 98.3008C312.863 98.3008 313.758 98.6211 314.438 99.2617C315.125 99.8945 315.469 100.77 315.469 101.887V102.73C315.469 103.777 315.133 104.625 314.461 105.273C313.789 105.914 312.895 106.234 311.777 106.234C310.652 106.234 309.75 105.91 309.07 105.262C308.391 104.613 308.051 103.754 308.051 102.684V101.816ZM310.301 102.73C310.301 103.16 310.441 103.527 310.723 103.832C311.004 104.137 311.355 104.289 311.777 104.289C312.73 104.289 313.207 103.762 313.207 102.707V101.816C313.207 101.348 313.074 100.973 312.809 100.691C312.543 100.402 312.191 100.258 311.754 100.258C311.316 100.258 310.965 100.402 310.699 100.691C310.434 100.973 310.301 101.359 310.301 101.852V102.73ZM304.277 104.723L302.625 103.832L310.957 90.4961L312.609 91.3867L304.277 104.723Z" fill="white"/>
</svg>
