<?xml version="1.0"?>
<svg xmlns="http://www.w3.org/2000/svg" id="outline" viewBox="0 0 512 512" width="512" height="512" fill="#06bd62"><title>investment-growth-money-profit-bag</title><path d="M24,480H280a7.99977,7.99977,0,0,0,8-8V451.31348a35.07927,35.07927,0,0,0-10.34326-24.97022L272,420.68652V296A80.09427,80.09427,0,0,0,195.77771,216.096l2.73645-6.84156A132.03708,132.03708,0,0,0,208,160a7.99977,7.99977,0,0,0-8-8H104a7.99977,7.99977,0,0,0-8,8,132.03708,132.03708,0,0,0,9.48584,49.25439l2.73645,6.84156A80.09427,80.09427,0,0,0,32,296V412.68652a19.18508,19.18508,0,0,1-5.65674,13.65625A35.08124,35.08124,0,0,0,16,451.31348V472A7.99977,7.99977,0,0,0,24,480ZM191.72852,168a116.02731,116.02731,0,0,1-8.06983,35.312L178.58368,216H125.41632l-5.075-12.688A116.02731,116.02731,0,0,1,112.27148,168ZM32,451.31348a19.18621,19.18621,0,0,1,5.65674-13.65674A35.08178,35.08178,0,0,0,48,412.68652V296a64.0727,64.0727,0,0,1,64-64h80a64.0727,64.0727,0,0,1,64,64V416H224v16h36.6864l5.65686,5.65723A19.18424,19.18424,0,0,1,272,451.31348V464H32Z"/><path d="M155.544,344h-16a12,12,0,0,1,0-24h32V304h-16V288h-16v16a28,28,0,0,0,0,56h16a12,12,0,0,1,0,24h-40v16h24v12.74854h16V400a28,28,0,0,0,0-56Z"/><path d="M488,272H456V192h16a7.99977,7.99977,0,0,0,8-8V88a7.99977,7.99977,0,0,0-8-8h-.02185A39.79083,39.79083,0,0,0,480,56V40a7.99977,7.99977,0,0,0-8-8H408a7.99977,7.99977,0,0,0-8,8V56a24.02687,24.02687,0,0,1-24,24H248a7.99977,7.99977,0,0,0-8,8v88H224a7.99977,7.99977,0,0,0-8,8v24h16V192h64v16H248v16h48v16H272v16h24v16h-8v16h48v16H304v16h32v16H304v16h32v16H280v16h40v16H304v16h16v16H304v16h16v16H296v16H472a7.99977,7.99977,0,0,0,8-8V384h8a7.99977,7.99977,0,0,0,8-8V280A7.99977,7.99977,0,0,0,488,272Zm-8,32H416V288h64ZM400,416h64v16H400Zm16-96h64v16H416Zm-40-48V256h64v16Zm64-32H376V224h64Zm0-32H376V192h64ZM464,96v16H400V96Zm-64,32h64v16H400Zm0,48V160h64v16ZM416,56V48h48v8a24.02687,24.02687,0,0,1-24,24H407.97815A39.79083,39.79083,0,0,0,416,56ZM384,96v80H336V96ZM256,96h64v16H272v16h48v16H272v16h48v16H256Zm56,96h48v80H312Zm40,96h48v80H352Zm-16,96h48v80H336Zm64,80V448h64v16Zm64-64H400V384h64Zm-48-32V352h64v16Z"/></svg>
