<svg width="90" height="90" viewBox="0 0 90 90" fill="none" xmlns="http://www.w3.org/2000/svg">
<path d="M0 18L22.5 0H90V70.5L68 90H0V18Z" fill="#7289DA"/>
<g filter="url(#filter0_d)">
<g clip-path="url(#clip0)">
<path d="M31.1495 50.9334L29.1928 58.0834C28.8083 59.5241 29.0111 61.0586 29.7568 62.35C30.4385 63.5669 31.5813 64.4583 32.9275 64.8234C35.766 65.5813 38.6841 63.9061 39.4608 61.0727L39.8935 59.494C39.9741 59.2035 40.2387 59.0025 40.5402 59.0027H49.4615C49.7631 59.0027 50.0278 59.2035 50.1088 59.494L50.5408 61.0727C51.317 63.9066 54.2356 65.5821 57.0742 64.8234C58.4207 64.4585 59.5637 63.5671 60.2455 62.35C60.9912 61.0586 61.1941 59.5241 60.8095 58.0834L58.8508 50.9334C58.4917 49.6401 57.6561 48.5308 56.5122 47.8287L60.3075 28.966C60.4522 28.2447 59.9873 27.5418 59.2668 27.3927L47.4995 25.0267C46.7781 24.8797 46.074 25.3453 45.9268 26.0667L45.0002 30.6747L44.0735 26.0667C43.9263 25.3459 43.2232 24.8805 42.5022 25.0267L30.7335 27.3934C30.0127 27.5405 29.5473 28.2437 29.6935 28.9647L33.4875 47.826C32.3435 48.5292 31.5082 49.6394 31.1495 50.9334ZM54.8942 47.1587L54.8195 46.86C54.7942 46.7587 54.7528 46.6654 54.7195 46.5687C55.0096 46.3646 55.2843 46.1395 55.5415 45.8954L55.2668 47.2547C55.1448 47.2167 55.0202 47.1847 54.8942 47.1554V47.1587ZM33.6342 41.7787C33.0724 39.0489 34.4643 36.2917 36.9942 35.1227C39.5242 33.9537 42.526 34.6806 44.2408 36.8775C45.9556 39.0745 45.9319 42.163 44.1835 44.3334H38.1835C37.2991 44.3367 36.4523 44.6914 35.8295 45.3194C34.6934 44.4422 33.9135 43.1832 33.6342 41.7754V41.7787ZM56.3675 41.7787C56.0727 43.2389 55.2444 44.5369 54.0442 45.4194C53.4142 44.7279 52.5222 44.3337 51.5868 44.3334H47.7462L47.3648 42.4354C48.1947 42.7676 49.1352 42.6677 49.8768 42.1687C50.469 41.7739 50.8757 41.156 51.0042 40.456C51.0691 40.1084 51.2718 39.8018 51.5662 39.606C51.8677 39.4038 52.2367 39.3281 52.5935 39.3954C53.0619 39.4826 53.4481 39.8132 53.6067 40.2625C53.7653 40.7117 53.6722 41.2115 53.3624 41.5735C53.0526 41.9354 52.5732 42.1046 52.1048 42.0174C51.7467 41.9583 51.4072 42.1966 51.3409 42.5534C51.2746 42.9103 51.5061 43.2546 51.8615 43.328C52.8047 43.5182 53.7772 43.1855 54.4063 42.4575C55.0354 41.7294 55.2235 40.719 54.8986 39.8133C54.5736 38.9077 53.786 38.2473 52.8375 38.0854C52.1369 37.9517 51.4119 38.1008 50.8208 38.5C50.2292 38.8949 49.8228 39.5125 49.6942 40.212C49.6291 40.5597 49.4265 40.8664 49.1322 41.0627C48.8308 41.2653 48.4616 41.3407 48.1048 41.2727C47.3808 41.1379 46.9031 40.4417 47.0378 39.7177C47.1726 38.9936 47.8688 38.5159 48.5928 38.6507C48.8292 38.6995 49.0735 38.6167 49.2316 38.4343C49.3896 38.2519 49.4367 37.9983 49.3547 37.7712C49.2727 37.5442 49.0743 37.3793 48.8362 37.34C47.9841 37.1818 47.1077 37.4416 46.4795 38.0387L46.1622 36.458C48.0014 34.523 50.8996 34.0397 53.2671 35.2734C55.6347 36.507 56.8991 39.1593 56.3668 41.7754L56.3675 41.7787ZM46.3862 44.3334H45.8002C45.957 44.0724 46.0972 43.8019 46.2202 43.5234L46.3862 44.3334ZM36.3122 46.9647C36.5973 46.1802 37.3455 45.6602 38.1802 45.6667H40.3335V47H36.2988L36.3122 46.9647ZM41.6668 45.6667H48.3335V47H41.6668V45.6667ZM49.6668 45.6667H51.5868C52.4327 45.6679 53.186 46.2021 53.4668 47H49.6668V45.6667ZM58.7375 30.008L57.4302 29.7454L57.6928 28.4387L59.0002 28.702L58.7375 30.008ZM47.2355 26.3334L48.5428 26.6L48.2802 27.9067L46.9722 27.644L47.2355 26.3334ZM46.7088 28.948L48.0168 29.2107C48.1046 29.2285 48.194 29.2374 48.2835 29.2374C48.9172 29.2355 49.462 28.7879 49.5868 28.1667L49.8502 26.86L56.3835 28.1754L56.1208 29.4827C56.0512 29.8296 56.1223 30.19 56.3185 30.4845C56.5147 30.7789 56.8199 30.9834 57.1668 31.0527L58.4742 31.3154L57.2002 37.658C56.2892 35.5523 54.4413 33.9974 52.2108 33.4599C49.9803 32.9225 47.6269 33.465 45.8568 34.9247L45.6815 34.058L46.7088 28.948ZM44.5675 35.288C42.8422 33.6278 40.4126 32.9188 38.0652 33.3904C35.7177 33.862 33.7505 35.4543 32.8002 37.652L31.5248 31.3187L32.8335 31.0554C33.1803 30.9856 33.4851 30.7809 33.6809 30.4863C33.8767 30.1917 33.9474 29.8314 33.8775 29.4847L33.6108 28.176L40.1442 26.8607L40.4108 28.1694C40.5357 28.7908 41.0809 29.2385 41.7148 29.24C41.8044 29.2401 41.8937 29.2311 41.9815 29.2134L43.2902 28.95L44.5675 35.288ZM42.7662 26.3334L43.0295 27.642L41.7208 27.9087L41.4542 26.6L42.7662 26.3334ZM32.3075 28.4367L32.5702 29.7454L31.2615 30.0087L31.0002 28.7L32.3075 28.4367ZM34.4602 45.9034C34.6611 46.0929 34.8726 46.2709 35.0935 46.4367C35.0842 46.46 35.0708 46.4814 35.0622 46.5034L34.7855 47.244C34.7682 47.2494 34.7502 47.2527 34.7328 47.258L34.4602 45.9034ZM36.3055 48.34C36.3315 48.3436 36.3579 48.3413 36.3828 48.3334H53.6168C53.6416 48.336 53.6666 48.3373 53.6915 48.3374H53.6948C55.4999 48.3372 57.0832 49.5417 57.5648 51.2814L59.5208 58.4347C59.8124 59.5317 59.6568 60.6996 59.0882 61.682C58.5833 62.5899 57.7349 63.2569 56.7335 63.5334C56.3954 63.6222 56.0471 63.667 55.6975 63.6667C53.8925 63.6635 52.3111 62.4573 51.8308 60.7174L51.3995 59.1387C51.1591 58.2691 50.3684 57.6666 49.4662 57.6654H40.5388C39.6365 57.6661 38.8456 58.2689 38.6055 59.1387L38.1735 60.7174C37.693 62.458 36.1106 63.6644 34.3048 63.6667C33.9552 63.667 33.607 63.6222 33.2688 63.5334C32.267 63.2584 31.4178 62.5919 30.9128 61.684C30.3438 60.7015 30.1877 59.5334 30.4788 58.436L32.4348 51.2827C32.9164 49.5425 34.4999 48.3376 36.3055 48.3374V48.34Z" fill="white"/>
<path d="M35.0002 54.3333H36.3335V55.6667C36.3335 56.0349 36.632 56.3333 37.0002 56.3333C37.3684 56.3333 37.6668 56.0349 37.6668 55.6667V54.3333H39.0002C39.3684 54.3333 39.6668 54.0349 39.6668 53.6667C39.6668 53.2985 39.3684 53 39.0002 53H37.6668V51.6667C37.6668 51.2985 37.3684 51 37.0002 51C36.632 51 36.3335 51.2985 36.3335 51.6667V53H35.0002C34.632 53 34.3335 53.2985 34.3335 53.6667C34.3335 54.0349 34.632 54.3333 35.0002 54.3333Z" fill="white"/>
<path d="M53.0002 52.3333C53.3683 52.3333 53.6668 52.0349 53.6668 51.6667C53.6668 51.2985 53.3683 51 53.0002 51C52.632 51 52.3335 51.2985 52.3335 51.6667C52.3335 52.0349 52.632 52.3333 53.0002 52.3333Z" fill="white"/>
<path d="M55.0002 54.3333C55.3683 54.3333 55.6668 54.0349 55.6668 53.6667C55.6668 53.2985 55.3683 53 55.0002 53C54.632 53 54.3335 53.2985 54.3335 53.6667C54.3335 54.0349 54.632 54.3333 55.0002 54.3333Z" fill="white"/>
<path d="M53.0002 56.3333C53.3683 56.3333 53.6668 56.0349 53.6668 55.6667C53.6668 55.2985 53.3683 55 53.0002 55C52.632 55 52.3335 55.2985 52.3335 55.6667C52.3335 56.0349 52.632 56.3333 53.0002 56.3333Z" fill="white"/>
<path d="M51.0002 54.3333C51.3683 54.3333 51.6668 54.0349 51.6668 53.6667C51.6668 53.2985 51.3683 53 51.0002 53C50.632 53 50.3335 53.2985 50.3335 53.6667C50.3335 54.0349 50.632 54.3333 51.0002 54.3333Z" fill="white"/>
<path d="M47.0002 52.3333C47.3683 52.3333 47.6668 52.0349 47.6668 51.6667C47.6668 51.2985 47.3683 51 47.0002 51C46.632 51 46.3335 51.2985 46.3335 51.6667C46.3335 52.0349 46.632 52.3333 47.0002 52.3333Z" fill="white"/>
<path d="M43.0002 52.3333C43.3684 52.3333 43.6668 52.0349 43.6668 51.6667C43.6668 51.2985 43.3684 51 43.0002 51C42.632 51 42.3335 51.2985 42.3335 51.6667C42.3335 52.0349 42.632 52.3333 43.0002 52.3333Z" fill="white"/>
<path d="M37.5122 43.1827C37.6611 43.1826 37.8097 43.169 37.9562 43.142C39.3588 42.8421 40.2548 41.4644 39.9602 40.0607C39.8913 39.7123 39.9581 39.3508 40.1468 39.05C40.3108 38.7782 40.5833 38.5897 40.8954 38.5321C41.2075 38.4745 41.5293 38.5533 41.7795 38.7487C42.0618 38.9629 42.2524 39.2762 42.3128 39.6253C42.4736 40.3046 42.0572 40.9867 41.3795 41.154C41.1452 41.1972 40.9519 41.3622 40.8722 41.5866C40.7925 41.8111 40.8386 42.061 40.9932 42.2423C41.1477 42.4235 41.3872 42.5086 41.6215 42.4653C43.0244 42.1654 43.9205 40.7873 43.6255 39.3833C43.5043 38.7017 43.1282 38.0917 42.5735 37.6773C42.0261 37.2616 41.3288 37.0958 40.6529 37.2206C39.9769 37.3455 39.3849 37.7495 39.0222 38.3333C38.6521 38.9186 38.5187 39.6226 38.6488 40.3027C38.81 40.982 38.3934 41.6643 37.7155 41.8313C37.4035 41.8858 37.0829 41.8072 36.8315 41.6147C36.251 41.1665 36.1008 40.3533 36.4828 39.7273C36.6485 39.457 36.9202 39.2688 37.2315 39.2087C37.4705 39.1704 37.6699 39.0056 37.7526 38.7781C37.8353 38.5507 37.7882 38.2962 37.6295 38.1134C37.4709 37.9307 37.2257 37.8482 36.9888 37.898C36.3133 38.0237 35.7216 38.4275 35.3582 39.0107C34.5998 40.2269 34.8945 41.8207 36.0375 42.6853C36.4623 43.0062 36.9797 43.1808 37.5122 43.1827Z" fill="white"/>
</g>
</g>
<defs>
<filter id="filter0_d" x="25" y="25" width="41" height="40" filterUnits="userSpaceOnUse" color-interpolation-filters="sRGB">
<feFlood flood-opacity="0" result="BackgroundImageFix"/>
<feColorMatrix in="SourceAlpha" type="matrix" values="0 0 0 0 0 0 0 0 0 0 0 0 0 0 0 0 0 0 127 0"/>
<feOffset dx="1"/>
<feColorMatrix type="matrix" values="0 0 0 0 1 0 0 0 0 1 0 0 0 0 1 0 0 0 1 0"/>
<feBlend mode="normal" in2="BackgroundImageFix" result="effect1_dropShadow"/>
<feBlend mode="normal" in="SourceGraphic" in2="effect1_dropShadow" result="shape"/>
</filter>
<clipPath id="clip0">
<rect x="25" y="25" width="40" height="40" fill="white"/>
</clipPath>
</defs>
</svg>
