<svg width="90" height="90" viewBox="0 0 90 90" fill="none" xmlns="http://www.w3.org/2000/svg">
<path d="M0 18L22.5 0H90V70.5L68 90H0V18Z" fill="#FF4500"/>
<g filter="url(#filter0_d)">
<g clip-path="url(#clip0)">
<path d="M61.1561 63.4375H59.4426V38.5575C59.4426 37.3994 58.5004 36.4573 57.3424 36.4573H53.5124C52.3544 36.4573 51.4123 37.3995 51.4123 38.5575V63.4375H47.0613V49.8301C47.0613 48.672 46.1192 47.7299 44.9612 47.7299H41.1312C39.9731 47.7299 39.031 48.6721 39.031 49.8301V63.4375H34.6801V56.3903C34.6801 55.2323 33.7379 54.2901 32.5799 54.2901H28.7498C27.5918 54.2901 26.6497 55.2323 26.6497 56.3903V63.4375H24.8437C24.4123 63.4375 24.0625 63.7873 24.0625 64.2187C24.0625 64.6502 24.4123 65 24.8437 65H61.1561C61.5876 65 61.9373 64.6502 61.9373 64.2187C61.9373 63.7873 61.5876 63.4375 61.1561 63.4375ZM33.1174 63.4375H28.2121V56.3903C28.2121 56.0938 28.4533 55.8526 28.7498 55.8526H32.5798C32.8762 55.8526 33.1174 56.0938 33.1174 56.3903V63.4375ZM45.4987 63.4375H40.5934V49.8301C40.5934 49.5336 40.8346 49.2924 41.1311 49.2924H44.9611C45.2575 49.2924 45.4987 49.5336 45.4987 49.8301V63.4375ZM57.8801 63.4375H52.9748V38.5575C52.9748 38.261 53.2159 38.0198 53.5124 38.0198H57.3424C57.6389 38.0198 57.8801 38.261 57.8801 38.5575V63.4375Z" fill="white"/>
<path d="M59.4411 25.8216C59.452 25.6084 59.377 25.3916 59.2142 25.2287C59.0514 25.0659 58.8346 24.9909 58.6214 25.0019C58.6088 25.0013 58.5964 25 58.5836 25H53.857C53.4255 25 53.0758 25.3498 53.0758 25.7812C53.0758 26.2127 53.4255 26.5625 53.857 26.5625H56.7755L49.0523 34.2858L46.1398 31.3733C45.9933 31.2268 45.7946 31.1445 45.5874 31.1445C45.3802 31.1445 45.1815 31.2268 45.035 31.3733L30.9905 45.4178C30.6854 45.7229 30.6854 46.2176 30.9905 46.5227C31.1431 46.6752 31.343 46.7514 31.5429 46.7514C31.7429 46.7514 31.9429 46.6752 32.0954 46.5226L45.5874 33.0305L48.4999 35.943C48.805 36.248 49.2997 36.248 49.6048 35.943L57.8804 27.6674V30.3088C57.8804 30.7403 58.2302 31.0901 58.6617 31.0901C59.0932 31.0901 59.4429 30.7403 59.4429 30.3088V25.8594C59.4429 25.8466 59.4416 25.8342 59.4411 25.8216Z" fill="white"/>
<path d="M28.9092 49.4774C29.3407 49.4774 29.6904 49.1276 29.6904 48.6961C29.6904 48.2646 29.3407 47.9149 28.9092 47.9149C28.4777 47.9149 28.1279 48.2646 28.1279 48.6961C28.1279 49.1276 28.4777 49.4774 28.9092 49.4774Z" fill="white"/>
</g>
</g>
<defs>
<filter id="filter0_d" x="23" y="25" width="41" height="40" filterUnits="userSpaceOnUse" color-interpolation-filters="sRGB">
<feFlood flood-opacity="0" result="BackgroundImageFix"/>
<feColorMatrix in="SourceAlpha" type="matrix" values="0 0 0 0 0 0 0 0 0 0 0 0 0 0 0 0 0 0 127 0"/>
<feOffset dx="1"/>
<feColorMatrix type="matrix" values="0 0 0 0 1 0 0 0 0 1 0 0 0 0 1 0 0 0 1 0"/>
<feBlend mode="normal" in2="BackgroundImageFix" result="effect1_dropShadow"/>
<feBlend mode="normal" in="SourceGraphic" in2="effect1_dropShadow" result="shape"/>
</filter>
<clipPath id="clip0">
<rect x="23" y="25" width="40" height="40" fill="white"/>
</clipPath>
</defs>
</svg>
