<svg width="90" height="90" viewBox="0 0 90 90" fill="none" xmlns="http://www.w3.org/2000/svg">
<path d="M0 18L22.5 0H90V70.5L68 90H0V18Z" fill="#FF0000"/>
<g filter="url(#filter0_d)">
<path d="M40.7821 53.0314C40.631 53.0314 40.4788 52.9795 40.3546 52.8737L36.0813 49.235C35.9339 49.1093 35.8491 48.9258 35.8491 48.732C35.8491 48.5385 35.9342 48.355 36.0813 48.2293L40.3546 44.5906C40.6321 44.354 41.0489 44.3876 41.2854 44.665C41.5217 44.9429 41.4885 45.3597 41.2106 45.5959L37.5281 48.732L41.2106 51.868C41.4885 52.1046 41.5217 52.5214 41.2854 52.7989C41.1546 52.9526 40.9689 53.0314 40.7821 53.0314Z" fill="white"/>
<path d="M49.2178 53.0314C49.031 53.0314 48.8453 52.9526 48.7148 52.7989C48.4782 52.5214 48.5118 52.1046 48.7893 51.868L52.4718 48.732L48.7893 45.5959C48.5118 45.3597 48.4782 44.9429 48.7148 44.665C48.951 44.3876 49.3682 44.354 49.6453 44.5906L53.9186 48.2293C54.066 48.355 54.1508 48.5385 54.1508 48.732C54.1508 48.9258 54.066 49.1093 53.9186 49.235L49.6453 52.8737C49.5211 52.9795 49.3689 53.0314 49.2178 53.0314Z" fill="white"/>
<path d="M43.4876 55.7606C43.4423 55.7606 43.3966 55.7558 43.3505 55.7462C42.9938 55.6711 42.7653 55.3206 42.8405 54.9639L45.5037 42.3191C45.5789 41.9624 45.929 41.7339 46.2861 41.809C46.6428 41.8842 46.8713 42.2343 46.7961 42.5914L44.1329 55.2362C44.0673 55.5472 43.7931 55.7606 43.4876 55.7606Z" fill="white"/>
<path d="M60.566 62.6496H29.434C26.9892 62.6496 25 60.6608 25 58.2157V31.7925C25 29.3478 26.9892 27.3585 29.434 27.3585H60.566C63.0108 27.3585 65 29.3478 65 31.7925V58.2157C65 60.6608 63.0108 62.6496 60.566 62.6496ZM29.434 28.6793C27.7174 28.6793 26.3208 30.0759 26.3208 31.7925V58.2157C26.3208 59.9322 27.7174 61.3289 29.434 61.3289H60.566C62.2826 61.3289 63.6792 59.9322 63.6792 58.2157V31.7925C63.6792 30.0759 62.2826 28.6793 60.566 28.6793H29.434Z" fill="white"/>
<path d="M64.3396 37.933H25.6604C25.2955 37.933 25 37.6375 25 37.2726C25 36.9082 25.2955 36.6122 25.6604 36.6122H64.3396C64.7045 36.6122 65 36.9082 65 37.2726C65 37.6375 64.7045 37.933 64.3396 37.933Z" fill="white"/>
<path d="M36.2832 34.773C35.1312 34.773 34.1934 33.8351 34.1934 32.6832C34.1934 31.5308 35.1312 30.5933 36.2832 30.5933C37.4355 30.5933 38.373 31.5308 38.373 32.6832C38.373 33.8351 37.4355 34.773 36.2832 34.773ZM36.2832 31.9141C35.8594 31.9141 35.5141 32.259 35.5141 32.6832C35.5141 33.1073 35.8594 33.4523 36.2832 33.4523C36.7074 33.4523 37.0523 33.1073 37.0523 32.6832C37.0523 32.259 36.7074 31.9141 36.2832 31.9141Z" fill="white"/>
<path d="M29.8623 34.7527C28.71 34.7527 27.7725 33.8152 27.7725 32.6629C27.7725 31.5106 28.71 30.5731 29.8623 30.5731C31.0146 30.5731 31.9521 31.5106 31.9521 32.6629C31.9521 33.8152 31.0146 34.7527 29.8623 34.7527ZM29.8623 31.8938C29.4385 31.8938 29.0932 32.2391 29.0932 32.6629C29.0932 33.0871 29.4385 33.432 29.8623 33.432C30.2865 33.432 30.6314 33.0871 30.6314 32.6629C30.6314 32.2391 30.2865 31.8938 29.8623 31.8938Z" fill="white"/>
<path d="M42.7042 34.7929C41.5522 34.7929 40.6147 33.8554 40.6147 32.7031C40.6147 31.5511 41.5522 30.6136 42.7042 30.6136C43.8566 30.6136 44.7941 31.5511 44.7941 32.7031C44.7941 33.8554 43.8566 34.7929 42.7042 34.7929ZM42.7042 31.934C42.2804 31.934 41.9355 32.2789 41.9355 32.7031C41.9355 33.1272 42.2804 33.4722 42.7042 33.4722C43.1284 33.4722 43.4733 33.1272 43.4733 32.7031C43.4733 32.2789 43.1284 31.934 42.7042 31.934Z" fill="white"/>
</g>
<defs>
<filter id="filter0_d" x="25" y="25" width="41" height="40" filterUnits="userSpaceOnUse" color-interpolation-filters="sRGB">
<feFlood flood-opacity="0" result="BackgroundImageFix"/>
<feColorMatrix in="SourceAlpha" type="matrix" values="0 0 0 0 0 0 0 0 0 0 0 0 0 0 0 0 0 0 127 0"/>
<feOffset dx="1"/>
<feColorMatrix type="matrix" values="0 0 0 0 1 0 0 0 0 1 0 0 0 0 1 0 0 0 1 0"/>
<feBlend mode="normal" in2="BackgroundImageFix" result="effect1_dropShadow"/>
<feBlend mode="normal" in="SourceGraphic" in2="effect1_dropShadow" result="shape"/>
</filter>
</defs>
</svg>
