<svg width="90" height="90" viewBox="0 0 90 90" fill="none" xmlns="http://www.w3.org/2000/svg">
<path d="M0 18L22.5 0H90V70.5L68 90H0V18Z" fill="#6441A4"/>
<g filter="url(#filter0_d)">
<path d="M42.5 57.625C38.7731 57.625 35 58.6988 35 60.75V63.25C35 65.3012 38.7731 66.375 42.5 66.375C46.2269 66.375 50 65.3012 50 63.25V60.75C50 58.6988 46.2269 57.625 42.5 57.625ZM42.5 65.125C38.7425 65.125 36.25 63.9963 36.25 63.25V62.5506C37.6656 63.4231 40.0894 63.875 42.5 63.875C44.9106 63.875 47.3344 63.4231 48.75 62.5506V63.25C48.75 63.9963 46.2575 65.125 42.5 65.125ZM42.5 62.625C38.7425 62.625 36.25 61.4962 36.25 60.75C36.25 60.0038 38.7425 58.875 42.5 58.875C46.2575 58.875 48.75 60.0038 48.75 60.75C48.75 61.4962 46.2575 62.625 42.5 62.625Z" fill="white"/>
<path d="M56.875 52.625C53.1481 52.625 49.375 53.6988 49.375 55.75V58.25C49.375 60.3012 53.1481 61.375 56.875 61.375C60.6019 61.375 64.375 60.3012 64.375 58.25V55.75C64.375 53.6988 60.6019 52.625 56.875 52.625ZM56.875 53.875C60.6325 53.875 63.125 55.0038 63.125 55.75C63.125 56.4962 60.6325 57.625 56.875 57.625C53.1175 57.625 50.625 56.4962 50.625 55.75C50.625 55.0038 53.1175 53.875 56.875 53.875ZM56.875 60.125C53.1175 60.125 50.625 58.9963 50.625 58.25V57.5506C52.0406 58.4231 54.4644 58.875 56.875 58.875C59.2856 58.875 61.7094 58.4231 63.125 57.5506V58.25C63.125 58.9963 60.6325 60.125 56.875 60.125Z" fill="white"/>
<path d="M40.625 55.125V36.375C40.625 34.3238 36.8519 33.25 33.125 33.25C29.3981 33.25 25.625 34.3238 25.625 36.375V55.125C25.625 57.1763 29.3981 58.25 33.125 58.25C36.8519 58.25 40.625 57.1763 40.625 55.125ZM33.125 34.5C36.8825 34.5 39.375 35.6288 39.375 36.375C39.375 37.1212 36.8825 38.25 33.125 38.25C29.3675 38.25 26.875 37.1212 26.875 36.375C26.875 35.6288 29.3675 34.5 33.125 34.5ZM26.875 38.1756C28.2906 39.0481 30.7144 39.5 33.125 39.5C35.5356 39.5 37.9594 39.0481 39.375 38.1756V40.125C39.375 40.8713 36.8825 42 33.125 42C29.3675 42 26.875 40.8713 26.875 40.125V38.1756ZM26.875 41.9256C28.2906 42.7981 30.7144 43.25 33.125 43.25C35.5356 43.25 37.9594 42.7981 39.375 41.9256V43.875C39.375 44.6213 36.8825 45.75 33.125 45.75C29.3675 45.75 26.875 44.6213 26.875 43.875V41.9256ZM26.875 45.6756C28.2906 46.5481 30.7144 47 33.125 47C35.5356 47 37.9594 46.5481 39.375 45.6756V47.625C39.375 48.3713 36.8825 49.5 33.125 49.5C29.3675 49.5 26.875 48.3713 26.875 47.625V45.6756ZM26.875 49.4256C28.2906 50.2981 30.7144 50.75 33.125 50.75C35.5356 50.75 37.9594 50.2981 39.375 49.4256V51.375C39.375 52.1213 36.8825 53.25 33.125 53.25C29.3675 53.25 26.875 52.1213 26.875 51.375V49.4256ZM33.125 57C29.3675 57 26.875 55.8713 26.875 55.125V53.1756C28.2906 54.0481 30.7144 54.5 33.125 54.5C35.5356 54.5 37.9594 54.0481 39.375 53.1756V55.125C39.375 55.8713 36.8825 57 33.125 57Z" fill="white"/>
<path d="M49.375 52.625C53.1019 52.625 56.875 51.5513 56.875 49.5V30.75C56.875 28.6988 53.1019 27.625 49.375 27.625C45.6481 27.625 41.875 28.6988 41.875 30.75V49.5C41.875 51.5513 45.6481 52.625 49.375 52.625ZM49.375 51.375C45.6175 51.375 43.125 50.2463 43.125 49.5V47.5506C44.5406 48.4231 46.9644 48.875 49.375 48.875C51.7856 48.875 54.2094 48.4231 55.625 47.5506V49.5C55.625 50.2463 53.1325 51.375 49.375 51.375ZM49.375 28.875C53.1325 28.875 55.625 30.0038 55.625 30.75C55.625 31.4962 53.1325 32.625 49.375 32.625C45.6175 32.625 43.125 31.4962 43.125 30.75C43.125 30.0038 45.6175 28.875 49.375 28.875ZM43.125 32.5506C44.5406 33.4231 46.9644 33.875 49.375 33.875C51.7856 33.875 54.2094 33.4231 55.625 32.5506V34.5C55.625 35.2463 53.1325 36.375 49.375 36.375C45.6175 36.375 43.125 35.2463 43.125 34.5V32.5506ZM43.125 36.3006C44.5406 37.1731 46.9644 37.625 49.375 37.625C51.7856 37.625 54.2094 37.1731 55.625 36.3006V38.25C55.625 38.9963 53.1325 40.125 49.375 40.125C45.6175 40.125 43.125 38.9963 43.125 38.25V36.3006ZM43.125 40.0506C44.5406 40.9231 46.9644 41.375 49.375 41.375C51.7856 41.375 54.2094 40.9231 55.625 40.0506V42C55.625 42.7463 53.1325 43.875 49.375 43.875C45.6175 43.875 43.125 42.7463 43.125 42V40.0506ZM43.125 43.8006C44.5406 44.6731 46.9644 45.125 49.375 45.125C51.7856 45.125 54.2094 44.6731 55.625 43.8006V45.75C55.625 46.4963 53.1325 47.625 49.375 47.625C45.6175 47.625 43.125 46.4963 43.125 45.75V43.8006Z" fill="white"/>
</g>
<defs>
<filter id="filter0_d" x="25" y="27" width="41" height="40" filterUnits="userSpaceOnUse" color-interpolation-filters="sRGB">
<feFlood flood-opacity="0" result="BackgroundImageFix"/>
<feColorMatrix in="SourceAlpha" type="matrix" values="0 0 0 0 0 0 0 0 0 0 0 0 0 0 0 0 0 0 127 0"/>
<feOffset dx="1"/>
<feColorMatrix type="matrix" values="0 0 0 0 1 0 0 0 0 1 0 0 0 0 1 0 0 0 1 0"/>
<feBlend mode="normal" in2="BackgroundImageFix" result="effect1_dropShadow"/>
<feBlend mode="normal" in="SourceGraphic" in2="effect1_dropShadow" result="shape"/>
</filter>
</defs>
</svg>
