<svg width="746" height="409" viewBox="0 0 746 409" fill="none" xmlns="http://www.w3.org/2000/svg">
<path d="M566.271 150.5H781.825C784.676 150.512 787.407 151.649 789.421 153.662C791.436 155.676 792.57 158.404 792.577 161.249V297.174C792.57 300.02 791.434 302.747 789.418 304.76C787.401 306.773 784.668 307.907 781.815 307.914H751.943H751.333L751.453 308.512C752.842 315.424 751.885 320.399 749.733 323.992C747.576 327.591 744.18 329.871 740.568 331.307C736.955 332.744 733.157 333.324 730.251 333.543C729.651 333.588 729.091 333.618 728.578 333.637C730.673 332.656 732.243 331.137 733.404 329.32C735.076 326.705 735.892 323.485 736.249 320.389C736.607 317.288 736.507 314.273 736.32 312.038C736.226 310.919 736.11 309.993 736.017 309.345C735.97 309.021 735.93 308.766 735.901 308.592C735.886 308.505 735.874 308.438 735.866 308.392L735.857 308.34L735.854 308.326L735.853 308.322L735.853 308.321C735.853 308.321 735.853 308.321 735.362 308.414L735.853 308.321L735.776 307.914H735.362H566.271C563.418 307.907 560.683 306.773 558.665 304.76C556.647 302.748 555.509 300.021 555.5 297.174V161.249C555.509 158.401 556.647 155.673 558.665 153.659C560.682 151.645 563.417 150.509 566.271 150.5Z" fill="white" stroke="#EBF1FE"/>
<g opacity="0.2">
<path opacity="0.2" d="M572.015 185.047H750.91C753.762 185.047 756.075 187.355 756.075 190.202V191.403C756.075 194.25 753.762 196.558 750.91 196.558H572.015C569.162 196.558 566.849 194.25 566.849 191.403V190.202C566.849 187.355 569.162 185.047 572.015 185.047Z" fill="#1448B6"/>
<path opacity="0.2" d="M572.015 236.494H750.91C753.762 236.494 756.075 238.802 756.075 241.65V242.85C756.075 245.697 753.762 248.005 750.91 248.005H572.015C569.162 248.005 566.849 245.697 566.849 242.85V241.65C566.849 238.802 569.162 236.494 572.015 236.494Z" fill="#1448B6"/>
<path opacity="0.2" d="M602.553 262.217H750.91C753.762 262.217 756.075 264.525 756.075 267.372V268.573C756.075 271.42 753.762 273.728 750.91 273.728H602.553C599.7 273.728 597.387 271.42 597.387 268.573V267.372C597.387 264.525 599.7 262.217 602.553 262.217Z" fill="#1448B6"/>
<path opacity="0.2" d="M679.191 210.77H750.91C753.762 210.77 756.075 213.078 756.075 215.925V217.125C756.075 219.973 753.762 222.281 750.91 222.281H679.191C676.338 222.281 674.025 219.973 674.025 217.125V215.925C674.025 213.078 676.338 210.77 679.191 210.77Z" fill="#1448B6"/>
</g>
<path d="M227.232 0.720703H11.6783C8.82687 0.732432 6.09602 1.86934 4.08163 3.88304C2.06703 5.89695 0.932648 8.62426 0.925781 11.4696V147.394C0.932678 150.24 2.06847 152.968 4.08511 154.981C6.10178 156.993 8.83521 158.127 11.6876 158.134H41.5599H42.1704L42.0501 158.733C40.661 165.644 41.6182 170.62 43.7703 174.212C45.9265 177.812 49.3225 180.091 52.9347 181.528C56.548 182.964 60.3464 183.545 63.2519 183.764C63.8515 183.809 64.4123 183.839 64.9244 183.858C62.8298 182.877 61.2596 181.357 60.099 179.541C58.4272 176.925 57.6107 173.706 57.2538 170.61C56.8963 167.509 56.9958 164.494 57.1832 162.259C57.2771 161.14 57.3932 160.213 57.486 159.566C57.5325 159.242 57.5731 158.987 57.6023 158.813C57.6169 158.726 57.6286 158.659 57.6368 158.613L57.6463 158.561L57.6488 158.547L57.6495 158.543L57.6497 158.542C57.6498 158.542 57.6498 158.541 58.1411 158.634L57.6498 158.541L57.7267 158.134H58.1411H227.232C230.085 158.127 232.82 156.994 234.838 154.981C236.856 152.969 237.994 150.241 238.003 147.395V11.4692C237.994 8.62175 236.856 5.89336 234.838 3.87957C232.82 1.86575 230.086 0.730079 227.232 0.720703Z" fill="white" stroke="#EBF1FE"/>
<g opacity="0.2">
<path opacity="0.2" d="M37.3231 36.3008H201.605C204.458 36.3008 206.771 38.609 206.771 41.4564V41.7655C206.771 44.6128 204.458 46.9211 201.605 46.9211H37.3231C34.4702 46.9211 32.1574 44.6128 32.1574 41.7655V41.4564C32.1574 38.609 34.4702 36.3008 37.3231 36.3008Z" fill="#1448B6"/>
<path opacity="0.2" d="M67.8527 83.7734H201.605C204.458 83.7734 206.771 86.0817 206.771 88.929V89.2382C206.771 92.0855 204.458 94.3937 201.605 94.3937H67.8527C64.9998 94.3937 62.687 92.0855 62.687 89.2382V88.929C62.687 86.0817 64.9998 83.7734 67.8527 83.7734Z" fill="#1448B6"/>
<path opacity="0.2" d="M108.212 60.041H201.605C204.458 60.041 206.771 62.3492 206.771 65.1966V65.5057C206.771 68.3531 204.458 70.6613 201.605 70.6613H108.212C105.359 70.6613 103.047 68.3531 103.047 65.5057V65.1966C103.047 62.3492 105.359 60.041 108.212 60.041Z" fill="#1448B6"/>
</g>
<path d="M402.183 232.867H168.553C165.45 232.877 162.477 234.111 160.284 236.3C158.09 238.49 156.853 241.457 156.844 244.553V391.852C156.853 394.948 158.09 397.915 160.284 400.105C162.477 402.294 165.451 403.529 168.554 403.538H200.968H201.578L201.458 404.136C199.95 411.635 200.987 417.038 203.325 420.943C205.668 424.854 209.356 427.329 213.276 428.889C217.197 430.448 221.318 431.078 224.469 431.316C225.204 431.371 225.886 431.405 226.498 431.425C224.14 430.368 222.385 428.689 221.096 426.671C219.291 423.843 218.408 420.361 218.022 417.009C217.636 413.652 217.744 410.388 217.946 407.968C218.048 406.757 218.174 405.754 218.274 405.053C218.325 404.702 218.368 404.427 218.4 404.238C218.404 404.216 218.407 404.194 218.411 404.174C218.422 404.111 218.431 404.06 218.437 404.022L218.448 403.966L218.45 403.951L218.451 403.947L218.451 403.946C218.451 403.945 218.451 403.945 218.943 404.038L218.451 403.945L218.528 403.538H218.943H402.182C405.285 403.529 408.258 402.294 410.452 400.105C412.646 397.915 413.882 394.949 413.892 391.853V244.552C413.882 241.456 412.646 238.49 410.452 236.3C408.258 234.111 405.285 232.877 402.183 232.867Z" fill="white" stroke="#EBF1FE"/>
<g opacity="0.2">
<path opacity="0.2" d="M195.94 322.912H374.835C377.688 322.912 380.001 325.22 380.001 328.068V329.268C380.001 332.115 377.688 334.423 374.835 334.423H195.94C193.087 334.423 190.775 332.115 190.775 329.268V328.068C190.775 325.22 193.087 322.912 195.94 322.912Z" fill="#1448B6"/>
<path opacity="0.2" d="M303.117 297.189H374.835C377.688 297.189 380.001 299.498 380.001 302.345V303.545C380.001 306.393 377.688 308.701 374.835 308.701H303.117C300.264 308.701 297.951 306.393 297.951 303.545V302.345C297.951 299.498 300.264 297.189 303.117 297.189Z" fill="#1448B6"/>
</g>
</svg>
