<svg width="758" height="578" viewBox="0 0 758 578" fill="none" xmlns="http://www.w3.org/2000/svg">
<g clip-path="url(#clip0)">
<path fill-rule="evenodd" clip-rule="evenodd" d="M297.876 218.036C286.427 229.852 271.636 238.666 253.915 243.033L266.483 241.004C211.157 251.855 167.167 284.374 146.273 330.577C119.528 405.859 134.745 549.241 410.656 521.297C755.546 486.366 697.514 162.121 680.536 147.664C651.08 128.762 638.838 94.6024 637.226 65.8763C515.976 17.2185 370.169 136.719 305.126 209.706C302.884 212.571 300.4 215.431 297.876 218.036Z" fill="#EBF1FE"/>
<path d="M637.226 65.8763C638.838 94.6024 651.08 128.762 680.536 147.664C676.471 99.9965 649.97 73.344 637.226 65.8763Z" fill="#EBF1FE"/>
<path opacity="0.1" d="M415 441C326.911 441 256 438.142 256 434C256 429.858 326.911 426 415 426C503.089 426 575 429.858 575 434C575 438.142 503.089 441 415 441Z" fill="#1448B6"/>
<path d="M421 403C500.685 403 566 338.679 566 259C566 179.321 500.706 114 421 114C341.294 114 277 179.328 277 259C277 338.672 341.343 403 421 403ZM421 115C499.913 115 565 180.1 565 259C565 337.9 499.934 402 421 402C342.066 402 278 337.9 278 259C278 180.1 342.115 115 421 115Z" fill="white"/>
<path d="M421 371C482.752 371 533 320.754 533 259C533 197.246 482.752 147 421 147C359.248 147 309 197.246 309 259C309 320.754 359.248 371 421 371ZM421 148C481.988 148 532 198.018 532 259C532 319.982 481.988 370 421 370C360.012 370 310 319.982 310 259C310 198.018 360.04 148 421 148Z" fill="white"/>
<path d="M419.83 337C435.09 337 451.045 332.507 463.733 324.029C476.422 315.551 485.832 303.204 491.672 289.106C497.512 275.007 499.638 259.172 496.661 244.205C493.684 229.238 485.5 216.081 474.709 205.291C463.919 194.5 450.762 186.316 435.795 183.339C420.828 180.362 404.993 182.488 390.894 188.328C376.796 194.168 364.449 203.578 355.971 216.267C347.493 228.955 343 244.91 343 260.17C343.024 280.625 351.485 299.586 365.949 314.051C380.414 328.515 399.375 336.976 419.83 337ZM419.83 183.339C434.813 183.339 450.278 187.987 462.736 196.311C475.193 204.634 484.94 216.394 490.674 230.236C496.408 244.078 497.588 259.444 494.665 274.139C491.742 288.833 484.306 302.459 473.711 313.053C463.117 323.647 449.492 331.084 434.797 334.007C420.103 336.93 404.736 335.749 390.894 330.015C377.052 324.282 365.293 314.535 356.969 302.077C348.645 289.62 343.998 275.152 343.998 260.17C344.022 240.086 352.746 220.49 366.947 206.289C381.148 192.087 399.747 183.363 419.83 183.339Z" fill="white"/>
<path opacity="0.1" d="M635 527C602.415 527 576 523.247 576 518C576 512.753 602.415 508 635 508C667.585 508 694 512.753 694 518C694 523.247 667.585 527 635 527Z" fill="#1448B6"/>
<g opacity="0.1">
<path opacity="0.1" d="M531 249H712C714.495 249.007 716.236 250.239 718 252C719.764 253.761 720.993 255.508 721 257.999V371.987C720.993 374.477 719.764 377.225 718 378.986C716.236 380.747 714.495 380.978 712 380.986H570C570 380.986 566.97 400.893 579 402.983C579 402.983 551.292 404.407 556 380.986H531C528.505 380.978 526.764 380.747 525 378.986C523.236 377.225 522.007 374.477 522 371.987V257.999C522.007 255.508 523.236 253.761 525 252C526.764 250.239 528.505 249.007 531 249Z" fill="black"/>
<g opacity="0.2">
<path opacity="0.2" d="M552 279H690C692.201 279 694 280.774 694 283V284C694 286.226 692.201 288 690 288H552C549.799 288 548 286.226 548 284V283C548 280.774 549.799 279 552 279Z" fill="black"/>
<path opacity="0.2" d="M552 318H690C692.201 318 694 319.774 694 322V323C694 325.226 692.201 327 690 327H552C549.799 327 548 325.226 548 323V322C548 319.774 549.799 318 552 318Z" fill="black"/>
<path opacity="0.2" d="M576 338H690C692.193 338 694 339.774 694 342V343C694 345.226 692.193 347 690 347H576C573.807 347 572 345.226 572 343V342C572 339.774 573.807 338 576 338Z" fill="black"/>
<path opacity="0.2" d="M635 299H690C692.191 299 694 300.774 694 303V304C694 306.226 692.191 308 690 308H635C632.809 308 631 306.226 631 304V303C631 300.774 632.809 299 635 299Z" fill="black"/>
</g>
</g>
<path d="M529 248H710C712.495 248.007 714.236 249.238 716 251C717.764 252.761 718.993 254.508 719 256.999V370.987C718.993 373.478 717.764 376.225 716 377.986C714.236 379.747 712.495 379.978 710 379.986H568C568 379.986 564.963 399.9 577 401.983C577 401.983 549.292 403.402 554 379.986H529C526.506 379.978 524.763 379.747 523 377.986C521.237 376.225 520.006 373.477 520 370.987V256.999C520.006 254.509 521.237 252.761 523 251C524.763 249.238 526.506 248.007 529 248Z" fill="white"/>
<g opacity="0.2">
<path opacity="0.2" d="M550 278H688C690.201 278 692 279.774 692 282V283C692 285.226 690.201 287 688 287H550C547.799 287 546 285.226 546 283V282C546 279.774 547.799 278 550 278Z" fill="#1448B6"/>
<path opacity="0.2" d="M550 318H688C690.201 318 692 319.774 692 322V323C692 325.226 690.201 327 688 327H550C547.799 327 546 325.226 546 323V322C546 319.774 547.799 318 550 318Z" fill="#1448B6"/>
<path opacity="0.2" d="M574 338H688C690.193 338 692 339.774 692 342V343C692 345.226 690.193 347 688 347H574C571.807 347 570 345.226 570 343V342C570 339.774 571.807 338 574 338Z" fill="#1448B6"/>
<path opacity="0.2" d="M633 298H688C690.191 298 692 299.774 692 302V303C692 305.226 690.191 307 688 307H633C630.809 307 629 305.226 629 303V302C629 299.774 630.809 298 633 298Z" fill="#1448B6"/>
</g>
<path d="M595.632 246.787L605.734 267.865C605.734 267.865 606.791 272.137 607.755 272.884C608.719 273.631 613.816 285.933 613.816 285.933L623.918 302.996L624.928 304L628.969 302.996L632 291.955V288.944V287.94C632 287.94 625.411 281.448 623.918 280.914C623.918 280.914 622.127 280.33 619.877 274.891C617.628 269.453 615.837 268.869 615.837 268.869L614.826 264.854L602.704 244.779C602.704 244.779 592.449 230.044 589.571 236.749C586.693 243.455 595.632 246.787 595.632 246.787Z" fill="#FFD2C6"/>
<path d="M637.076 396.999C637.11 397.359 636.889 397.69 637.076 397.999C638.223 399.674 644.99 433.995 644.99 433.995C644.473 436.307 646.018 440.898 646.969 442.993C647.92 445.089 649.937 455.992 649.937 455.992C649.937 455.992 650.559 479.323 651.915 482.988C653.272 486.654 651.915 494.987 651.915 494.987C652.048 498.603 649.245 502.037 647.958 503.986C647.86 504.112 648.035 504.88 647.958 504.986C647.539 505.588 646.969 504.986 646.969 504.986C646.618 505.689 646.592 506.493 645.98 506.985C645.889 507.062 646.085 507.908 645.98 507.985C644.204 509.182 642.138 509.543 640.044 509.985H639.055C638.216 510.174 638.066 509.985 638.066 509.985L637.076 512.985L643.012 513.984L653.894 514.984C653.894 514.984 666.611 515.543 663.786 509.985C663.588 509.605 662.938 509.39 662.797 508.985C662.692 508.719 662.881 508.266 662.797 507.985C661.098 502.645 661.808 495.987 661.808 495.987L664.776 477.989C668.74 460.383 661.808 439.994 661.808 439.994C661.808 439.994 662.182 438.975 660.819 434.994C659.455 431.013 660.819 421.996 660.819 421.996C660.819 421.996 661.825 410.556 662.797 404.998C663.168 402.665 662.917 400.358 662.797 397.999C662.752 396.614 663.004 395.369 662.797 394L638.066 391C638.066 391 636.811 394.777 637.076 396.999Z" fill="#FFD2C6"/>
<path opacity="0.1" d="M638 512.996L643.911 513.995L653.762 514.995C653.762 514.995 666.339 515.364 663.613 509.997C663.422 509.631 662.764 509.388 662.628 508.998C662.527 508.74 662.709 509.268 662.628 508.998C660.549 509.062 658.658 509.247 656.717 509.997C653.296 511.351 649.821 507.998 649.821 507.998L648.836 504H647.851C647.446 504.582 647.851 505 647.851 505C647.454 505.782 646.596 506.492 645.881 506.999L647.851 510.997C647.851 510.997 645.753 511.529 642.926 511.996C642.38 512.144 641.451 511.269 640.955 510.997C640.46 510.724 640.139 510.538 639.97 509.997C639.16 510.18 638.985 509.997 638.985 509.997L638 512.996Z" fill="black"/>
<path d="M633.036 515.939C633.446 517.829 644.938 518.922 644.938 518.922C644.938 518.922 651.098 518.391 652.872 519.916C654.647 521.441 660.602 520.911 660.807 520.911C661.011 520.911 663.695 521.028 664.774 515.939C665.818 510.976 662.913 510.014 662.79 509.972C660.588 510.003 658.894 510.147 656.84 510.966C653.379 512.372 649.897 508.978 649.897 508.978L648.905 505C648.496 505.605 647.913 505.994 647.913 505.994C647.514 506.811 646.656 507.457 645.93 507.983L647.913 511.961C647.913 511.961 645.814 512.47 642.954 512.955C640.668 513.335 640.081 511.74 639.979 510.966C639.972 510.861 639.972 510.077 639.979 509.972C639.979 509.972 638.203 510.334 636.012 510.966C635.024 511.257 634.564 512.053 634.028 512.955C633.492 513.858 632.838 514.901 633.036 515.939Z" fill="#1448B6"/>
<path d="M608.443 421.912C608.736 423.596 609.457 427.918 609.457 427.918C608.432 431.568 611.485 439.93 611.485 439.93L612.499 444.935C611.914 451.277 616.556 466.958 616.556 466.958C616.556 466.958 620.161 480.792 621.626 486.978C622.5 490.411 621.962 494.702 620.612 497.989C620.539 498.158 620.612 497.989 620.612 497.989C620.612 498.109 620.649 497.876 620.612 497.989C620.575 498.102 619.656 498.828 619.598 498.99C619.262 499.853 619.216 500.299 618.584 500.992C618.343 501.269 617.851 501.754 617.57 501.993C616.195 503.164 614.206 504.344 612.499 504.996H611.485C610.726 505.272 610.244 505.803 609.457 505.997C609.371 506.02 608.532 505.983 608.443 505.997L609.457 509L618.584 506.998L628.724 503.995L633.795 500.992C633.795 500.992 632.883 500.505 632.781 499.991C632.781 499.991 632.781 500.019 632.781 499.991C632.737 499.773 632.847 499.286 632.781 498.99C631.909 494.692 630.771 482.913 631.767 473.965C633.004 462.868 627.868 447.584 626.696 443.934C626.002 441.849 625.569 440.115 625.682 437.928C627.586 435.251 627.71 423.914 627.71 423.914C627.71 423.914 631.909 417.206 634.809 409.9C635.765 407.514 636.406 405.417 636.837 402.893C637.175 401.113 636.892 398.695 636.837 396.887C636.837 396.887 613.049 376.891 610.471 396.887C610.384 397.592 609.538 398.255 609.457 398.889C607.202 417.166 608.165 420.285 608.443 421.912Z" fill="#FFD2C6"/>
<path opacity="0.1" d="M611.027 506L612.024 509L619.002 507L628.972 504L633.956 501C633.956 501 634.055 500.509 633.956 500C633.956 500 633.956 500.028 633.956 500C633.914 499.784 634.02 500.293 633.956 500L632.959 499C631.545 498.87 630.3 499.503 628.972 500C627.355 500.606 625.42 501.293 624.984 501C624.233 500.681 622.809 500.956 621.993 501L620.996 498C620.675 498.854 620.608 499.316 619.999 500C619.754 500.288 619.286 500.75 619.002 501V502V503C617.893 503.704 616.275 504.618 615.015 505C614.687 505.081 614.346 505.081 614.018 505C613.289 505.273 611.782 505.809 611.027 506C611.124 505.985 610.932 506.027 611.027 506Z" fill="black"/>
<path d="M614.039 512.791C616.092 512.222 621.202 511.103 622.002 511.806C622.803 512.51 629.966 511.806 629.966 511.806C630.686 511.794 631.336 511.174 631.957 510.821C632.578 510.469 632.592 510.437 632.952 509.836C634.344 507.698 633.948 500.97 633.948 500.97H632.952L631.957 499.985C630.556 499.856 629.29 500.489 627.975 500.97C626.374 501.547 624.425 502.23 623.993 501.955C623.25 501.645 621.815 501.909 621.007 501.955L620.011 499C619.692 499.821 619.617 500.311 619.016 500.97C618.773 501.247 618.302 501.715 618.02 501.955V503.926C616.921 504.6 616.281 505.529 615.034 505.896C614.733 506.014 614.349 505.99 614.039 505.896C613.728 505.801 613.219 505.174 613.043 504.911C612.987 504.826 613.071 505.008 613.043 504.911C612.981 505.025 612.222 505.299 610.057 505.896C607.704 505.768 605.128 506.766 604.084 509.836C603.04 512.906 612.027 513.355 614.039 512.791Z" fill="#1448B6"/>
<path opacity="0.1" d="M638.035 396.944C638.487 397.08 638.648 397.806 639.031 397.935C640.015 398.251 640.994 397.807 642.017 397.935C648.467 398.889 659.547 399.148 662.919 398.925C662.875 397.508 663.121 395.374 662.919 393.972L639.031 391C639.031 391 637.776 394.67 638.035 396.944Z" fill="black"/>
<path d="M617 390.996C617 390.996 625.907 392.417 633.009 393.996C635.381 394.52 637.394 395.458 639.013 395.996C640.018 396.301 640.973 395.863 642.014 395.996C649.926 397.122 664.027 396.996 664.027 396.996C667.885 384.289 659.024 367.999 659.024 367.999C659.227 366.724 658.024 362.999 658.024 362.999L656.022 358H624.004L623.003 360V363.999L618.001 387.997L617 390.996Z" fill="#1448B6"/>
<path opacity="0.1" d="M612.024 398.976L615.996 400.988C620.029 402.976 632.63 402.963 636.847 403C637.163 401.154 636.899 399.846 636.847 397.97C636.847 397.97 614.435 376.224 612.024 396.964C611.942 397.702 612.1 398.318 612.024 398.976Z" fill="black"/>
<path d="M611.05 397H612.051L616.052 399C620.246 400.938 632.995 400.979 637.056 401H638.057C639.937 400.937 641.057 399.463 641.057 399C641.057 398.747 641.89 397.067 642.058 396C642.197 395.143 642.058 395 642.058 395C642.058 395 650.803 390.943 655.061 388C658.256 385.816 656.683 369.802 656.061 362C655.844 359.31 656.061 358 656.061 358L623.053 360H619.052L616.052 361H615.051C615.051 361 612.96 374.848 612.051 376C611.142 377.152 611.939 380.788 612.051 383C612.055 383.945 611.85 385.077 612.051 386C612.051 386 610.729 389.823 611.05 392C611.195 393.536 611.486 395.521 611.05 397Z" fill="#1448B6"/>
<path d="M646 282C638.544 282 633 276.456 633 269C633 261.544 638.544 255 646 255C653.456 255 660 261.544 660 269C660 276.456 653.456 282 646 282Z" fill="#FFD2C6"/>
<path d="M653 274.118C653 274.118 651.365 287.175 654 290.062C656.635 292.949 664 298.035 664 298.035L662 307.003L650 308L636 293.052L639 290.062C639 290.062 642.006 281.124 640 277.107C637.994 273.09 653 274.118 653 274.118Z" fill="#FFD2C6"/>
<path opacity="0.1" d="M624 303L625 304L629 303L632 292.003V288.004L631 287.004C631 287.004 625.793 286.705 626 291.003C626.207 294.777 624.508 301.563 624 303Z" fill="black"/>
<path opacity="0.1" d="M616 361.886C616 361.886 619.198 363.382 623 363.83C626.802 364.277 631.2 363.804 633 362.858C636.02 361.243 652.305 361.722 657 361.886C657.335 361.886 657.791 361.855 658 361.886L657 358H624V359.943H619L617 360.915C616.561 361.893 616 361.886 616 361.886Z" fill="black"/>
<path d="M631.999 287.001C631.999 287.001 626.788 286.808 627 291.016C627.211 295.223 625 303.059 625 303.059L626 305.067C626 305.067 627.156 310.614 626 312.092C624.843 313.569 620.574 314.041 623 326.143C623 326.143 624.262 335.238 623 338.186C621.737 341.134 620.897 348.285 619 351.233C617.103 354.181 615 360.266 615 360.266C615 360.266 628.417 363.373 631.999 361.269C635.582 359.165 657.999 360.266 657.999 360.266C657.999 360.266 657.893 356.666 657.999 356.251C658.095 355.791 658.089 355.709 657.999 355.247C657.908 354.786 657.263 353.63 656.999 353.24C656.293 352.241 655.364 350.696 655.999 349.226C656.633 347.755 654.835 345.484 655.999 343.204C657.162 340.924 658.281 341.439 657.999 340.193C657.717 338.948 658.159 337.227 658.999 336.179C659.838 335.13 665.998 324.135 665.998 324.135L666.998 318.114C666.998 318.114 674.132 312.611 673.998 310.085C673.864 307.559 670.998 305.067 670.998 305.067L663.998 298.041C663.998 298.041 659.793 301.533 655.999 300.048C652.204 298.564 643.999 292.019 643.999 292.019C643.999 292.019 641.211 290.163 640.999 289.009C640.788 287.855 638.999 289.009 638.999 289.009C638.999 289.009 636.528 287.498 635.999 288.005C635.47 288.512 632.999 289.009 632.999 289.009L631.999 287.001Z" fill="#DCAF54"/>
<path d="M672.037 309L674.05 310.994C674.05 310.994 676.522 314.632 677.068 321.958C677.614 329.284 680.087 339.9 680.087 339.9L684.111 347.875C684.111 347.875 692.205 362.787 693.167 366.814C694.129 370.841 698.198 377.778 698.198 377.778C698.198 377.778 712.643 391.402 702.223 393.727C691.803 396.052 692.161 382.762 692.161 382.762C692.161 382.762 689.537 380.554 689.142 378.775C688.747 376.996 676.062 353.855 676.062 353.855C676.062 353.855 671.068 348.127 672.037 344.884C672.037 344.884 666 330.402 666 326.942C666.114 324.064 666.479 321.802 667.006 318.968L666 310.994L672.037 309Z" fill="#FFD2C6"/>
<path opacity="0.1" d="M641 338C641 338 651.766 343.666 653.756 343.957C655.746 344.248 644.925 342.964 644.925 342.964L641 338Z" fill="black"/>
<path opacity="0.1" d="M633 342C633 342 646.886 345.907 653 345.07C652.971 345.07 637.807 348.566 633 342Z" fill="black"/>
<path opacity="0.1" d="M632.058 344C632.058 344 644.647 352.697 652 351.268C652 351.268 634.723 354.334 632.058 352.307L640.035 350.23C640.035 350.23 631.203 345.708 632.058 344Z" fill="black"/>
<path opacity="0.1" d="M647.062 244.296C650.587 243.601 654.224 244.078 657.045 246.286C659.135 247.925 660.688 251.063 663.035 252.258C664.278 252.779 665.733 252.881 667.029 253.253C669.314 254.184 670.803 256.088 672.02 258.229C673.237 260.371 674.391 262.764 674.017 265.196C673.648 267.279 672.494 269.14 672.02 271.168C671.17 274.792 672.092 278.512 673.019 282.116C675.588 292.131 678.872 301.993 684 310.978C684.409 311.534 685.033 312.281 684.999 312.969C684.876 313.431 684.335 313.621 684 313.964C679.187 319.519 671.39 321.676 664.034 321.926C661.324 322.017 658.401 322.243 656.047 320.931C654.512 320.052 653.065 318.398 652.054 316.95C649.486 313.457 648.825 309.331 649.059 305.007C649.261 301.535 649.957 297.426 649.059 294.059C648.963 293.588 649.374 293.426 649.059 293.064C648.264 292.258 646.208 292.2 645.065 292.068C642.007 291.714 640.436 289.138 640.074 286.097C639.711 283.055 640.06 279.206 640.074 276.144C640.09 272.089 639.454 268.488 637.079 265.196C636.062 263.807 634.425 261.963 634.084 260.22C633.652 258.033 634.98 257 636.08 255.243C637.787 252.549 638.474 249.337 641.072 247.281C642.801 245.986 644.934 244.68 647.062 244.296Z" fill="black"/>
<path d="M647.062 243.297C650.582 242.602 654.222 243.072 657.045 245.287C659.136 246.919 660.686 250.064 663.035 251.259C664.276 251.778 665.734 251.886 667.028 252.254C669.316 253.184 670.801 255.089 672.02 257.23C673.239 259.371 674.389 261.763 674.017 264.197C673.647 266.28 672.501 268.134 672.02 270.168C671.17 273.792 672.098 277.512 673.018 281.115C675.583 291.129 678.876 300.991 684 309.977C684.409 310.53 685.038 311.282 684.998 311.968C684.881 312.432 684.339 312.623 684 312.963C679.176 318.517 671.394 320.675 664.033 320.925C661.322 321.022 658.403 321.235 656.047 319.929C654.511 319.048 653.065 317.399 652.054 315.949C649.498 312.46 648.825 308.318 649.059 304.006C649.261 300.534 649.965 296.433 649.059 293.058C648.965 292.588 649.372 292.426 649.059 292.063C648.264 291.258 646.215 291.165 645.065 291.068C642.005 290.714 640.436 288.144 640.074 285.096C639.711 282.048 640.053 278.213 640.074 275.144C640.1 271.078 639.46 267.499 637.079 264.197C636.061 262.808 634.425 260.97 634.084 259.22C633.652 257.033 634.979 256.008 636.08 254.244C637.788 251.55 638.465 248.331 641.072 246.282C642.8 244.982 644.931 243.681 647.062 243.297Z" fill="#985C7E"/>
<path opacity="0.1" d="M652 375C652 375 649.37 387.573 645 391L652 375Z" fill="black"/>
<g opacity="0.1">
<path opacity="0.1" d="M673.949 266C674.088 265.665 673.782 265.33 673.949 265C673.809 265.335 674.116 265.67 673.949 266Z" fill="black"/>
<path opacity="0.1" d="M636.049 256C636.016 256.394 635.979 256.61 636.049 256.999C636.397 258.763 638.026 260.584 639.042 261.993C641.417 265.296 642.053 268.909 642.035 272.98C642.035 276.063 641.673 278.908 642.035 281.97C642.396 285.031 643.967 288.592 647.023 288.961C648.15 289.094 649.229 289.179 650.015 289.96C650.331 290.324 650.918 290.487 651.013 290.959C651.897 294.348 651.208 297.454 651.013 300.947C650.778 305.278 651.457 310.428 654.006 313.932C655.018 315.387 656.464 316.041 657.996 316.929C660.384 318.219 663.263 318.011 665.977 317.928C673.202 317.684 681.1 316.312 685.93 310.936C686.058 311.254 685.981 311.595 685.93 311.935C685.812 312.401 685.27 312.592 684.932 312.933C680.116 318.512 672.329 320.673 664.98 320.924C662.272 321.022 659.351 321.236 656.999 319.925C655.467 319.038 654.02 317.385 653.008 315.93C650.457 312.426 649.782 308.275 650.015 303.944C650.217 300.457 650.92 297.345 650.015 293.956C649.922 293.484 650.328 292.323 650.015 291.958C649.222 291.149 647.173 292.056 646.025 291.958C642.97 291.602 641.399 288.028 641.037 284.966C640.675 281.905 641.016 279.059 641.037 275.977C641.054 271.907 640.414 267.296 638.044 263.991C637.028 262.596 635.392 261.753 635.051 259.995C634.832 258.717 635.346 257.089 636.049 256Z" fill="black"/>
</g>
<path opacity="0.1" d="M163 375C132.9 375 109 370.971 109 366C109 361.029 132.9 357 163 357C193.1 357 218 361.029 218 366C218 370.971 193.1 375 163 375Z" fill="#1448B6"/>
<path d="M99.997 189.912C97.7538 182.463 99.997 174.934 99.997 174.934V167.945C99.997 167.945 97.6057 153.795 109.013 144.98L116.025 137.99C116.025 137.99 120.812 134.228 122.036 133.997C122.269 133.946 122.8 134.016 123.038 133.997C123.687 132.893 123.587 132.197 124.04 131.001C123.55 131.063 123.505 131.159 123.038 131.001C122.57 130.843 122.385 130.348 122.036 130.003C121.763 129.692 121.182 129.389 121.034 129.004C120.595 128.03 120.408 127.046 120.032 126.009C119.705 125.166 119.639 123.686 119.031 123.013C119.109 123.139 118.96 123.886 119.031 124.012C117.962 122.694 117.023 121.412 116.025 120.018C115.824 119.744 115.19 119.315 115.024 119.019C113.608 116.805 113.423 114.609 113.02 112.03C112.826 111.149 112.854 109.921 113.02 109.034C113.212 108.445 113.711 107.575 114.022 107.037C115.664 103.674 115.389 99.7364 118.029 97.0526C120.003 95.0414 123.213 94.4005 126.043 94.0571C128.874 93.7138 131.637 93.5247 134.057 92.0601C134.736 91.5528 135.265 91.3584 136.061 91.0617C136.463 90.9236 136.664 90.9146 137.063 91.0617C137.462 91.2087 137.851 91.6952 138.064 92.0601C138.114 92.2738 137.923 91.8914 138.064 92.0601C138.191 92.1326 138.92 92.0516 139.066 92.0601C139.212 92.0687 138.932 92.1174 139.066 92.0601L143.073 91.0617V92.0601C142.953 92.0601 143.179 91.8569 143.073 92.0601V93.0586C144.237 93.0374 146.005 92.502 147.08 92.0601C147.084 92.1208 147.084 92.998 147.08 93.0586C147.151 94.1097 145.445 94.0676 145.077 95.0556C144.928 95.4872 144.928 96.621 145.077 97.0526C145.234 97.4533 145.769 97.7498 146.079 98.0511C147.416 99.3544 148.55 99.2211 150.086 100.048C150.218 100.103 150.991 99.9426 151.087 100.048C151.184 100.153 151.045 99.9119 151.087 100.048C151.146 100.15 151.114 100.932 151.087 101.047C151.028 101.205 151.23 100.955 151.087 101.047C150.64 101.403 149.605 101.806 149.084 102.045H150.086C152.028 104.004 153.316 106.399 154.093 109.034C154.869 111.67 154.667 114.336 154.093 117.022C153.518 119.708 152.876 122.913 151.087 125.01C149.298 127.108 146.653 127.994 144.075 129.004C144.018 129.291 144.117 129.687 144.075 130.003C144.075 130.003 144.075 129.975 144.075 130.003V131.001L149.084 132.998C149.846 132.993 150.446 132.408 151.087 132C151.729 131.591 151.768 131.686 152.089 131.001C153.264 128.591 158.1 131.001 158.1 131.001C158.1 131.001 170.438 129.687 175.13 132C175.13 132 183.084 129.214 184.146 129.004C185.207 128.794 186.401 127.795 187.151 128.006C187.901 128.216 188.624 125.868 189.155 126.009C189.685 126.149 190.419 125.431 192.16 125.01C193.901 124.59 194.271 124.905 196.167 123.013C198.064 121.121 213.197 114.027 213.197 114.027L220.21 108.036L228.224 102.045V103.043C228.266 102.868 228.174 102.234 228.224 102.045C228.958 99.1159 230.12 95.8697 231.229 93.0586C231.71 91.9234 231.601 91.3033 232.231 92.0601C232.627 92.5156 233.187 90.7359 234.234 90.0632C234.45 89.9144 234.977 90.1054 235.236 90.0632C235.496 90.0209 235.986 89.9906 236.238 90.0632C236.49 90.1357 236.042 89.89 236.238 90.0632C236.434 90.2364 237.138 90.8217 237.24 91.0617C243.05 100.08 244.615 100.741 241.247 104.042C238.254 106.985 236.683 109.269 234.234 110.033V111.031C234.288 111.042 234.181 111.042 234.234 111.031L220.21 127.007C220.21 127.007 210.221 136.158 203.18 138.989C196.138 141.82 196.167 142.983 196.167 142.983C196.167 142.983 175.429 153.157 172.125 152.968C168.82 152.779 168.734 175.362 170.121 178.928C171.508 182.495 174.128 207.884 174.128 207.884C174.128 207.884 176.357 214.092 174.128 217.869C174.128 217.869 173.682 225.125 174.128 226.856C176.074 229.82 178.684 234.657 179.137 239.836C179.137 240.109 179.109 240.568 179.137 240.834C179.279 240.998 178.946 240.73 179.137 240.834C179.137 240.834 179.427 240.932 179.137 240.834C179.349 242.986 179.41 244.788 180.139 246.825C181.272 249.732 182.125 252.696 182.142 255.812V272.786L184.146 282.771C184.146 282.771 185.851 290.934 184.146 292.756C183.422 293.666 183.019 294.599 183.144 295.751C183.216 297.086 181.919 298.652 181.141 299.745C180.844 300.066 181.263 300.326 181.141 300.743C181.018 301.161 181.064 301.313 181.141 301.742C181.707 303.557 180.139 323.709 180.139 323.709C180.139 323.709 180.574 328.414 181.141 328.701C181.707 328.988 180.139 334.692 180.139 334.692C180.139 334.692 185.611 340.157 184.146 342.68L183.144 344.677V345.675C183.587 345.422 184.642 344.6 185.148 344.677C186.955 346.513 189.107 348.104 191.158 349.669C193.755 351.526 200.174 354.662 200.174 354.662H206.185C206.185 354.662 208.68 354.563 207.187 358.656C205.693 362.748 192.16 361.651 192.16 361.651L185.148 360.653C185.148 360.653 171.1 360.523 167.116 359.654C165.446 359.283 165.006 358.554 165.112 357.657C165.301 356.806 165.554 356.333 166.114 355.66C166.144 355.618 166.078 354.699 166.114 354.662V352.665C160.205 349.294 167.116 342.68 167.116 342.68C167.116 342.68 165.448 336.493 164.11 334.692C162.773 332.891 162.107 305.736 162.107 305.736C162.107 305.736 161.262 297.009 163.109 294.753C163.14 294.025 163.459 292.398 163.109 291.757C162.759 291.117 161.738 291.13 161.105 290.759C159.789 289.869 156.212 277.968 153.091 267.793L151.087 279.775C151.087 279.775 151.366 285.083 150.086 286.765C149.848 287.08 150.176 287.38 150.086 287.763C149.995 288.147 150.013 288.375 150.086 288.762C150.398 290.379 149.586 292.184 149.084 293.754C148.941 294.424 148.605 295.303 148.082 295.751C146.943 296.312 147.505 298.326 147.08 298.747C146.656 299.167 144.217 298.21 144.075 299.745C143.994 301.096 143.994 302.388 144.075 303.739L143.073 328.701C143.073 328.701 143.785 330.239 144.075 335.69C144.195 338.045 144.617 339.919 145.077 340.683C145.332 341.094 146.117 341.2 146.079 341.681C146.04 342.162 145.394 343.312 145.077 343.678L146.079 344.677C146.496 344.999 146.962 345.165 147.08 345.675C147.199 346.186 147.314 346.204 147.08 346.674C147.42 346.967 146.963 348.24 147.08 348.671C147.197 349.101 147.225 349.247 147.08 349.669C147.029 349.805 147.152 349.543 147.08 349.669C147.878 349.794 148.499 350.117 149.084 350.668C150.133 352.098 151.654 353.612 153.091 354.662C155.18 356.241 157.203 357.854 159.102 359.654C159.995 360.879 160.711 362.039 162.107 362.65C162.447 362.786 162.748 362.581 163.109 362.65C165.939 363.217 165.38 366.188 163.109 366.643C160.837 367.099 152.947 370 147.08 368.64C147.08 368.64 145.628 368.931 143.073 367.642C140.519 366.353 135.059 364.647 135.059 364.647C135.059 364.647 131.477 364.909 131.052 363.648C130.938 363.249 131.06 363.064 131.052 362.65C131.044 361.711 130.898 360.581 131.052 359.654C131.13 359.178 131.969 358 132.054 357.657C132.33 356.606 132.836 355.236 133.055 354.662C133.018 354.615 132.083 354.713 132.054 354.662C130.837 352.622 133.055 347.672 133.055 347.672C132.385 346.632 131.983 345.497 131.052 344.677C129.913 343.843 127.045 322.71 127.045 322.71C127.045 322.71 126.598 317.231 125.041 314.722C123.484 312.214 127.045 296.75 127.045 296.75C127.045 296.75 128.62 293.011 128.047 291.757C127.473 290.503 129.048 285.766 129.048 285.766V280.774C129.05 280.116 128.834 279.4 129.048 278.777C129.487 277.48 130.758 274.608 130.05 272.786C129.052 270.27 126.043 254.813 126.043 254.813C126.043 254.813 128.64 248.283 126.043 242.831C125.834 242.395 125.303 241.242 125.041 240.834C123.117 237.835 123.091 233.141 124.04 228.853C124.188 228.187 124.886 227.465 125.041 226.856C125.112 226.596 124.978 226.102 125.041 225.857C125.041 225.857 125.133 225.552 125.041 224.859C123.989 224.656 122.919 224.463 122.036 223.86C121.153 223.257 120.598 221.767 120.032 220.865C120.032 220.865 112.77 213.921 107.009 210.88C101.249 207.839 100.999 202.892 100.999 202.892C101.855 201.42 99.997 195.903 99.997 195.903V189.912ZM119.031 198.898L125.041 205.887C125.043 205.873 125.043 205.901 125.041 205.887C126.641 203.687 123.038 198.898 123.038 198.898L118.029 187.915C118.071 189.372 118.585 190.308 119.031 190.91C120.446 192.802 116.025 195.903 116.025 195.903C118.155 195.882 119.031 198.898 119.031 198.898Z" fill="url(#paint0_linear)"/>
<path d="M226 106.999L229.001 113C230.083 112.915 231.973 112.336 233.001 112C234.632 111.529 235.715 111.07 237.002 109.999C238.289 108.929 239.286 107.481 240.003 105.999C243.052 99.5254 238.354 95.2244 236.002 93.996C233.65 92.7676 230.763 91.9731 229.001 95.9965C227.891 98.7485 227.739 101.134 227 103.998C226.612 105.53 226 106.999 226 106.999Z" fill="#CC818C"/>
<path d="M121 140.11L126.073 148.161C126.073 148.161 151.273 160.287 146.366 146.148C144.221 139.922 143.951 136.216 144.337 133.065C144.337 133.065 144.337 132.087 144.337 132.059C144.838 128.119 146.366 127.027 146.366 127.027C146.366 127.027 122.354 114.398 126.073 123.001C126.831 124.79 127.263 127.109 127.088 129.039C126.779 131.82 125.511 133.688 124.044 136.084C123.171 137.6 122.163 138.795 121 140.11Z" fill="#CC818C"/>
<path d="M128.061 296.94C128.061 296.94 124.569 312.425 126.072 314.925C127.575 317.425 127.067 322.918 127.067 322.918C127.067 322.918 129.939 344.067 131.045 344.9C131.952 345.721 132.385 346.86 133.035 347.898C133.035 347.898 131.851 352.861 133.035 354.892C133.213 355.206 132.703 355.751 133.035 355.891C134.886 356.676 142.074 353.031 145.965 350.895C146.455 350.632 146.788 350.428 146.959 349.896C147.104 349.479 147.072 349.324 146.959 348.897C146.846 348.47 147.291 347.188 146.959 346.899C147.188 346.429 147.075 346.409 146.959 345.899C146.844 345.39 146.373 345.224 145.965 344.9L144.97 343.901C145.279 343.536 145.927 342.381 145.965 341.903C146.002 341.425 145.218 341.313 144.97 340.904C144.525 340.147 144.094 338.225 143.975 335.908C143.697 330.488 142.981 328.913 142.981 328.913L143.975 303.934C143.9 302.593 143.9 301.278 143.975 299.937C144.115 298.411 146.549 299.358 146.959 298.938C147.37 298.518 146.854 296.501 147.954 295.94C148.464 295.496 148.809 295.606 148.948 294.941C149.436 293.381 150.243 291.553 149.943 289.945C149.872 289.561 149.856 289.327 149.943 288.946C150.031 288.565 149.712 287.262 149.943 286.948C151.189 285.281 150.938 279.953 150.938 279.953L152.927 267.963C155.961 278.068 159.61 290.062 160.884 290.944C161.5 291.315 162.533 292.307 162.873 292.943C163.214 293.579 162.905 294.219 162.873 294.941C161.078 297.161 161.879 306.931 161.879 306.931C161.879 306.931 161.579 333.102 162.873 334.908C164.168 336.715 166.852 342.902 166.852 342.902C166.852 342.902 160.039 349.554 165.857 352.894C171.793 356.227 183.76 346.899 183.76 346.899L182.766 344.9H181.771L183.76 342.902C185.187 340.402 179.782 334.908 179.782 334.908C179.782 334.908 180.332 329.193 179.782 328.913C179.232 328.633 179.782 323.917 179.782 323.917C179.782 323.917 180.332 304.734 179.782 302.935C179.7 302.512 179.668 301.352 179.782 300.936C179.895 300.521 180.492 300.259 180.776 299.937C181.529 298.85 181.837 298.263 181.771 296.94C181.649 295.797 182.064 293.849 182.766 292.943C184.422 291.136 182.766 283.95 182.766 283.95L181.771 273.958V256.972C181.772 253.833 180.887 250.915 179.782 247.98C178.948 245.595 177.956 243.508 177.792 240.985C177.34 235.719 174.712 229.917 172.819 226.997C171.817 225.456 170.83 224.998 170.83 224.998L127.067 223C127.067 223 125.774 225.244 125.078 227.996C124.924 228.598 125.217 229.329 125.078 229.994C124.152 234.266 123.206 239.001 125.078 241.984C125.34 242.385 125.871 242.549 126.072 242.984C128.598 248.397 127.067 255.973 127.067 255.973C127.067 255.973 129.083 271.444 130.051 273.958C130.747 275.73 130.482 277.666 130.051 278.954C129.846 279.573 129.059 280.3 129.056 280.953V286.948C129.056 286.948 128.506 290.69 129.056 291.944C129.606 293.197 128.061 296.94 128.061 296.94Z" fill="#444053"/>
<path opacity="0.1" d="M126.069 243C126.324 243.409 126.851 243.562 127.055 244H130.014C129.78 242.692 131 230 131 230H126.069C125.146 234.363 124.216 240.008 126.069 243Z" fill="black"/>
<path d="M125.072 243C125.331 243.406 125.858 243.559 126.057 244H129.014C128.774 242.692 130 230 130 230H125.072C124.136 234.335 123.221 239.973 125.072 243Z" fill="#444053"/>
<path opacity="0.05" d="M125.072 243C125.331 243.406 125.858 243.559 126.057 244H129.014C128.774 242.692 130 230 130 230H125.072C124.136 234.335 123.221 239.973 125.072 243Z" fill="black"/>
<path opacity="0.1" d="M132 354.929C132.186 355.218 132.654 355.778 133 355.907C134.929 356.628 141.945 352.983 146 351.018C146.511 350.776 146.822 350.53 147 350.041C144.693 349.667 143 351.996 143 351.996C142.615 351.781 142.449 352.061 142 351.996C141.551 351.931 141.442 351.901 141 351.996C140.558 352.092 139.366 351.755 139 351.996C138.634 352.237 138.231 352.625 138 352.974C136.02 355.55 132 354.929 132 354.929C132.123 354.614 132 354.929 132 354.929Z" fill="black"/>
<path d="M131.203 364.769C131.628 365.986 135.191 365.748 135.191 365.748C135.191 365.748 140.647 367.468 143.169 368.685C145.691 369.902 147.157 369.664 147.157 369.664C152.959 370.957 160.866 368.13 163.111 367.706C165.357 367.282 165.888 364.33 163.111 363.79C162.754 363.72 162.45 363.925 162.114 363.79C160.728 363.194 160 362.047 159.123 360.852C157.245 359.109 155.203 357.493 153.14 355.957C151.716 354.941 150.187 353.426 149.151 352.04C145.85 349.223 143.169 353.019 143.169 353.019C142.792 352.791 142.61 353.089 142.171 353.019C141.733 352.95 141.606 352.918 141.174 353.019C140.742 353.121 140.534 352.764 140.177 353.019C139.82 353.275 139.406 353.629 139.18 353.999C137.246 356.733 133.197 355.957 133.197 355.957C133.197 355.957 131.585 357.575 131.203 358.894C131.118 359.229 131.281 360.387 131.203 360.852C130.925 362.197 130.939 363.422 131.203 364.769Z" fill="#1448B6"/>
<path d="M142 355.901C142 356.123 141.32 355.901 141.099 355.901C141.099 355.68 140.877 355 141.099 355C141.32 355 142 355.68 142 355.901Z" fill="#575988"/>
<path d="M144.099 359C143.877 359 144.099 358.32 144.099 358.099C144.32 358.099 145 357.877 145 358.099C145 358.32 144.32 359 144.099 359Z" fill="#575988"/>
<path d="M147.901 361.901C147.68 361.901 147 362.123 147 361.901C147 361.68 147.68 361 147.901 361C148.123 361 147.901 361.68 147.901 361.901Z" fill="#575988"/>
<path d="M147 359.901C147 360.123 146.32 359.901 146.099 359.901C146.099 359.68 145.877 359 146.099 359C146.32 359 147 359.68 147 359.901Z" fill="#575988"/>
<path d="M142.099 357C141.877 357 142.099 356.32 142.099 356.099C142.32 356.099 143 355.877 143 356.099C143 356.32 142.32 357 142.099 357Z" fill="#575988"/>
<path d="M131.203 363.866C131.628 364.995 135.192 364.833 135.192 364.833C135.192 364.833 140.646 366.603 143.168 367.732C145.691 368.861 147.157 368.699 147.157 368.699C152.961 369.897 160.864 367.159 163.111 366.766C165.357 366.372 165.889 363.401 163.111 362.9C162.754 362.835 162.449 363.025 162.113 362.9C159.66 363.648 157.723 364.739 155.134 364.833C149.408 365.048 144.166 364.833 144.166 364.833L138.183 362.9C137.086 362.302 136.461 361.139 135.192 360.967C133.914 360.735 132.262 360.68 131.203 360C130.916 361.246 130.949 362.615 131.203 363.866Z" fill="#DCE6F2"/>
<path opacity="0.5" d="M146 367.973C146.331 367.972 146.676 368.034 147 367.973C145.795 368.145 144.109 367.445 143 366.978C142.471 366.785 142.514 366.23 142 365.984C141.486 365.738 140.637 366.203 140 365.984L139 364.989C138.674 364.89 138.311 365.115 138 364.989C137.819 364.923 138.174 365.062 138 364.989C137.578 364.785 137.463 364.1 137 363.995C136.761 363.953 136.243 364.01 136 363.995C135.782 363.981 135.216 364.03 135 363.995C134.568 363.898 134.395 364.181 134 363.995C133.575 363.796 133.464 363.102 133 363H132C131.662 362.993 131.263 363.196 131 363C131.327 363.261 131.567 363.975 132 363.995C132.432 364.091 133.605 363.809 134 363.995C134.425 364.193 134.536 364.888 135 364.989C135.239 365.033 135.757 364.98 136 364.989C136.226 365.005 135.777 364.952 136 364.989C136.428 365.089 137.611 364.798 138 364.989C138.333 365.115 138.667 365.884 139 365.984H140C140.623 366.196 141.399 366.726 142 366.978C142.601 367.231 142.457 366.772 143 366.978C143.881 367.33 145.04 367.942 146 367.973Z" fill="#575988"/>
<path opacity="0.1" d="M145 299C145 299 141.976 294.925 137 295C132.024 295.075 130 294 130 294C130 294 132.795 295.753 135 296C137.205 296.247 145 299 145 299Z" fill="black"/>
<path opacity="0.1" d="M143 300C143 300 140.514 298.094 139 298.029C137.486 297.964 136 298.029 136 298.029C136.709 298.487 137.169 298.786 138 299.014C139.293 299.34 143 300 143 300Z" fill="black"/>
<path opacity="0.1" d="M142 301C142 301 138.035 301.232 138 302L142 301Z" fill="black"/>
<path opacity="0.1" d="M179 242C178.781 242.033 175.243 238.388 174.979 237C174.769 236.125 173.814 235.493 172.968 235C172.968 235 170.79 235.364 172.968 238C175.146 240.635 179 242 179 242Z" fill="black"/>
<path opacity="0.1" d="M125.342 123.036C126.107 124.951 127.457 125.165 127.31 127.023C128.203 128.019 129.134 129.331 130.261 130.013C132.642 131.509 135.165 134 138.13 134C140.114 134.004 142.187 133.771 144.033 133.003C144.502 129.033 146 127.023 146 127.023C146 127.023 121.867 114.365 125.342 123.036Z" fill="black"/>
<path d="M122 114.857C122 118.062 123.193 122.103 124.973 124.768C126.754 127.433 128.95 129.488 131.911 130.715C134.872 131.941 138.678 132.331 141.822 131.706C144.965 131.08 147.484 129.017 149.75 126.75C152.017 124.484 154.08 121.965 154.706 118.822C155.331 115.678 154.941 111.872 153.715 108.911C152.488 105.95 150.433 103.754 147.768 101.973C145.103 100.193 141.062 99 137.857 99C135.729 98.9991 133.877 99.177 131.911 99.9911C129.944 100.805 128.46 102.45 126.955 103.955C125.45 105.46 123.805 106.944 122.991 108.911C122.177 110.877 121.999 112.729 122 114.857Z" fill="#CC818C"/>
<path opacity="0.1" d="M121 140.026L126.073 148.052C126.073 148.052 151.273 160.422 146.366 146.045C144.221 139.716 143.951 135.204 144.337 132C144.034 133.062 144.372 133.906 144.337 135.01C144.258 137.213 143.727 140.114 138.249 141.029C129.116 142.567 124.902 137.136 124.044 136.013C123.167 137.56 122.168 138.686 121 140.026Z" fill="black"/>
<path opacity="0.1" d="M226 107L229 113C230.101 112.915 231.954 112.337 233 112C231.581 112.512 227 104 227 104C226.605 105.486 226 107 226 107Z" fill="black"/>
<path opacity="0.1" d="M126 227.963C136.761 232.546 173.999 227.963 173.999 227.963C173.883 227.576 174.009 227.374 173.999 226.971C172.987 225.455 171.999 224.985 171.999 224.985L127 223C127 223 126.71 225.255 126 227.963Z" fill="black"/>
<path d="M144.115 131.98L149.109 133.979C149.857 133.97 150.478 134.386 151.106 133.979C151.734 133.572 152.79 132.66 153.103 131.98C154.247 129.583 158.097 131.98 158.097 131.98C158.097 131.98 170.487 130.681 175.075 132.979C175.075 132.979 183.053 130.185 184.063 129.982C185.073 129.778 186.33 128.772 187.059 128.982C187.789 129.193 188.538 127.878 189.057 127.983C189.576 128.088 189.385 127.397 191.054 126.984C192.724 126.57 194.168 126.864 196.048 124.985C197.928 123.107 213.026 114.992 213.026 114.992L220.017 109.996L227.008 104C227.008 104 231.646 112.513 233 111.994L219.018 128.982C219.018 128.982 208.929 137.164 202.04 139.975C195.151 142.785 196.048 143.972 196.048 143.972C196.048 143.972 175.313 155.167 172.079 154.964C168.845 154.761 168.721 176.4 170.081 179.946C171.442 183.493 174.076 208.926 174.076 208.926C174.076 208.926 176.279 214.163 174.076 217.919C174.076 217.919 173.55 225.553 174.076 226.913C174.076 226.913 136.745 231.609 126.138 226.913C126.138 226.913 124.574 209.121 126.138 206.927C127.703 204.733 124.141 199.932 124.141 199.932L118.149 184.943L101.171 168.954C101.171 168.954 98.9983 154.738 110.159 145.97L117.15 139.975C117.15 139.975 121.936 136.202 123.142 135.977C124.349 135.753 123.142 135.977 123.142 135.977C123.142 135.977 128.232 142.614 138.123 140.974C143.496 140.07 144.038 137.144 144.115 134.978C144.148 133.904 143.822 133.014 144.115 131.98Z" fill="#67647E"/>
<path opacity="0.1" d="M123 189C123 189 146.337 189.923 151 197C151 197 145.405 194.194 140 195C134.595 195.806 123 189 123 189Z" fill="black"/>
<path opacity="0.1" d="M149 213.998C149 213.998 138.237 214.129 136.006 211.999C133.775 209.869 134.007 209 134.007 209L149 213.998Z" fill="black"/>
<path opacity="0.1" d="M121.002 167C121.002 167 131.212 178.17 119 183L121.002 167Z" fill="black"/>
<path opacity="0.1" d="M176 146C176 146 172.667 152.561 171 153L176 146Z" fill="black"/>
<path opacity="0.1" d="M187 143C187 143 178.578 150.292 177 151C177 151 185.74 143 187 143Z" fill="black"/>
<path opacity="0.1" d="M153 136C153 136 161.834 147.806 156.017 155C156.064 155 159.378 146.473 153 136Z" fill="black"/>
<path d="M134 227.067L135.998 229.087H136.997L139.993 232.116C140.203 232.271 139.79 231.975 139.993 232.116C151.532 240.448 153.977 228.077 153.977 228.077C153.977 228.077 159.243 231.813 159.97 229.087C160.698 226.361 147.826 221.808 145.986 222.019C145.819 222.037 146.154 222.037 145.986 222.019C145.077 221.866 143.792 221.467 142.99 221.01C142.801 220.911 143.172 221.115 142.99 221.01C142.347 220.649 141.593 220.428 140.992 220L134 227.067Z" fill="#CC818C"/>
<path opacity="0.1" d="M120 116.14C120 118.972 120.552 121.599 122 124.06C123.448 126.522 125.482 128.552 128 130C128.233 129.618 128.824 129.419 129 129.01C129.607 127.629 129.393 126.418 130 125.05C130.686 123.556 131.797 121.249 133 120.1C133.191 119.878 133.722 120.208 134 120.1C134.274 120.065 134.734 120.029 135 120.1C135.266 120.171 135.784 119.934 136 120.1C136.715 120.572 137.157 120.9 138 121.09C138.422 121.182 138.586 121.211 139 121.09C139.414 120.969 139.701 121.393 140 121.09C140.657 120.33 141.193 119.094 141 118.12C140.593 115.993 140 113.352 140 111.19C140 109.029 140.057 107.311 142 106.241C143.715 105.301 146.092 104.779 148 104.261C148.295 104.185 148.72 104.378 149 104.261C146.653 101.936 143.289 99.9733 140 99.3107C136.711 98.6481 134.112 99.0762 131 100.301C127.888 101.525 124.876 103.546 123 106.241C121.124 108.935 120.001 112.892 120 116.14Z" fill="black"/>
<path d="M149.953 102.081C150.256 102.243 151.04 102.741 150.948 103.078C150.892 103.237 151.089 102.986 150.948 103.078C150.175 103.705 148.923 103.812 147.963 104.075C146.087 104.582 143.679 105.106 141.993 106.07C140.088 107.16 139.995 108.854 140.002 111.056C140.009 113.257 140.611 115.877 140.997 118.036C141.18 119.035 140.656 120.226 140.002 121.027C139.707 121.334 139.415 120.904 139.007 121.027C138.6 121.151 138.428 122.117 138.012 122.025C137.185 121.833 136.723 121.505 136.022 121.027C135.81 120.857 135.289 120.103 135.027 120.03C134.765 119.958 134.301 119.993 134.032 120.03C133.746 120.135 133.24 120.8 133.037 121.027C131.851 122.198 130.723 123.491 130.051 125.016C129.447 126.423 129.647 127.605 129.056 129.005C128.531 130.444 127.368 131.183 126.071 131.996C125.416 132.392 124.842 133.074 124.081 132.994C123.32 132.914 122.649 132.52 122.09 131.996C121.121 130.927 120.564 129.379 120.1 128.008C119.271 125.637 117.568 124.071 116.12 122.025C114.489 119.725 113.549 116.832 113.135 114.047C112.942 113.168 112.969 111.94 113.135 111.056C113.326 110.471 113.831 110.596 114.13 110.058C115.746 106.711 115.531 101.769 118.11 99.0895C120.05 97.085 123.302 96.4356 126.071 96.098C128.84 95.7604 131.656 95.5595 134.032 94.1036C134.697 93.5996 135.242 93.4049 136.022 93.1065C136.417 92.9691 136.626 92.96 137.017 93.1065C137.408 93.2529 137.804 93.7409 138.012 94.1036C138.061 94.3181 138.867 93.9343 139.007 94.1036C139.13 94.1746 138.866 95.0923 139.007 95.1008C139.149 95.1094 138.877 95.1565 139.007 95.1008L142.988 94.1036V95.1008C144.326 95.154 145.732 95.6173 146.968 95.1008C147.038 96.1488 145.343 96.1175 144.978 97.0952C144.845 97.5439 144.854 98.6382 144.978 99.0895C145.102 99.5408 145.629 99.7694 145.973 100.087C147.337 101.416 148.449 101.258 149.953 102.081Z" fill="#585268"/>
<path opacity="0.1" d="M165 352.184V353.215C171.12 356.784 184 347.031 184 347.031L183 346C182.785 346.251 182.099 346.71 182 347.031C181.901 347.351 181.966 347.727 182 348.061H180L176 351.153C176 351.153 168.267 352.754 166 352.184H165Z" fill="black"/>
<path d="M166.975 360.903C170.794 361.752 183.836 361.892 183.836 361.892L191.771 362.881C191.771 362.881 205.218 363.911 206.649 359.913C208.081 355.916 204.666 355.956 204.666 355.956H199.706C199.706 355.956 192.279 352.826 189.788 351.01C187.821 349.476 186.564 347.858 184.828 346.064C184.828 346.064 182.803 345.447 182.845 348.043H179.869L176.893 351.999C176.893 351.999 169.149 352.524 166.975 351.999H165.983V355.956C165.508 356.571 163.561 360.136 166.975 360.903Z" fill="#1448B6"/>
<path d="M180.901 350.901C180.68 350.901 180 351.123 180 350.901C180 350.68 180.68 350 180.901 350C181.123 350 180.901 350.68 180.901 350.901Z" fill="#575988"/>
<path d="M191 354.901C191 355.123 190.32 354.901 190.099 354.901C190.099 354.68 189.877 354 190.099 354C190.32 354 191 354.68 191 354.901Z" fill="#575988"/>
<path d="M195.901 356.901C195.68 356.901 195 357.123 195 356.901C195 356.68 195.68 356 195.901 356C196.123 356 195.901 356.68 195.901 356.901Z" fill="#575988"/>
<path d="M187.901 353.901C187.68 353.901 187 354.123 187 353.901C187 353.68 187.68 353 187.901 353C188.123 353 187.901 353.68 187.901 353.901Z" fill="#575988"/>
<path d="M194 355.901C194 356.123 193.32 355.901 193.099 355.901C193.099 355.68 192.877 355 193.099 355C193.32 355 194 355.68 194 355.901Z" fill="#575988"/>
<path d="M186 352.901C186 353.123 185.32 352.901 185.099 352.901C185.099 352.68 184.877 352 185.099 352C185.32 352 186 352.68 186 352.901Z" fill="#575988"/>
<path d="M182.901 351.901C182.68 351.901 182 352.123 182 351.901C182 351.68 182.68 351 182.901 351C183.123 351 182.901 351.68 182.901 351.901Z" fill="#575988"/>
<path d="M166.975 360.909C170.794 361.76 183.836 361.891 183.836 361.891L191.771 362.872C191.771 362.872 205.218 363.935 206.649 359.927C208.081 355.919 204.666 356 204.666 356C203.847 357.066 202.941 357.908 199.706 357.964L189.788 358.945L179.869 357.964C179.869 357.964 171.443 358.268 169.95 357.964C168.721 357.629 167.135 356.546 165.983 356C165.508 356.623 163.561 360.14 166.975 360.909Z" fill="#DCE6F2"/>
<path opacity="0.5" d="M191 361.895C191.52 361.898 192.496 362.033 193 361.895V360.921C191.712 361.223 190.258 361.346 189 360.921C188.537 360.794 188.484 361.072 188 360.921C185.825 360.127 183.285 359.694 181 359.948C176.818 360.186 172.145 359.613 168 358.974C167.016 358.904 165.757 358.678 165 358C165.82 358.746 166.928 359.863 168 359.948C172.18 360.587 176.783 360.187 181 359.948C182.382 359.84 183.626 359.755 185 359.948C185.842 360.117 186.183 360.645 187 360.921C187.463 361.072 188.523 361.767 189 361.895C189.845 362.134 190.126 361.889 191 361.895Z" fill="#575988"/>
<path opacity="0.1" d="M133 227L136 229L142 221C141.322 220.64 140.634 220.426 140 220L133 227Z" fill="black"/>
<path d="M105.991 163L100.99 170V177C100.99 177 98.7623 183.608 100.99 191V198C100.99 198 102.837 203.544 101.99 205C101.99 205 102.276 209.976 107.992 213C113.707 216.024 120.995 223 120.995 223C120.995 223 123.434 227.043 129.997 226L135.998 229L143 220L132.998 215C132.998 215 130.011 209.79 127.996 210L119.995 201C119.995 201 119.108 198 116.994 198C116.994 198 121.368 194.876 119.995 193C118.621 191.124 119.995 183 119.995 183L105.991 163Z" fill="#67647E"/>
<path opacity="0.1" d="M115 193.259C115 193.259 104.395 193.081 103.113 196.245C101.831 199.408 111.838 191.499 115 193.259Z" fill="black"/>
<path opacity="0.1" d="M136.081 229C136.078 229.184 136.05 229.819 136.081 230C136.206 230.842 136.452 231.427 137.072 232C137.691 232.573 139.208 232.954 140.044 233C141.006 233 141.345 232.692 142.025 232C142.705 231.308 143.015 229.979 143.015 229C143.013 228.591 143.146 228.387 143.015 228C144.729 226.593 145.038 224.259 144.997 223C144.098 222.847 142.818 222.456 142.025 222C141.577 223.309 141.775 224.837 141.034 226C140.759 225.93 140.328 226 140.044 226C139.567 225.999 138.503 225.815 138.062 226C137.622 226.185 137.409 226.657 137.072 227C136.734 227.343 136.264 227.552 136.081 228C135.898 228.448 136.081 228.515 136.081 229Z" fill="black"/>
<path d="M141.955 221C141.955 221 144.888 221.526 144.888 221.957C144.888 222.388 145.705 227.051 142.933 228.653C140.161 230.256 140 225.783 140 225.783C140 225.783 142.171 222.232 141.955 221Z" fill="#575988"/>
<path d="M139 232C137.067 232 136 230.933 136 229C136 227.067 137.067 225 139 225C140.933 225 143 227.067 143 229C143 230.933 140.933 232 139 232Z" fill="#E4AAB4"/>
<path d="M140 232C138.343 232 137 230.657 137 229C137 227.343 138.343 226 140 226C141.657 226 143 227.343 143 229C143 230.657 141.657 232 140 232Z" fill="#DCE6F2"/>
<path opacity="0.1" d="M153.927 230C153.927 230 146.007 236.183 136 232.035V235.087C136 235.087 142.9 239.935 148.947 237.122C154.995 234.31 153.927 230 153.927 230Z" fill="black"/>
<path opacity="0.1" d="M153.927 229C153.927 229 145.986 235.212 136 231.034V234.086C136 234.086 142.9 238.938 148.947 236.12C154.995 233.302 153.927 229 153.927 229Z" fill="black"/>
<path d="M153.927 229C153.927 229 145.986 235.212 136 231.034V234.086C136 234.086 142.9 238.938 148.947 236.12C154.995 233.302 153.927 229 153.927 229Z" fill="#444053"/>
<path opacity="0.05" d="M153.93 229C153.93 229 146.012 235.196 136 231.037V234.091C136 234.091 142.92 238.927 148.95 236.128C154.979 233.329 153.93 229 153.93 229Z" fill="black"/>
<path opacity="0.1" d="M178 346C178 346 167.392 347.643 165.736 348C164.08 348.357 165.736 349 165.736 349C165.736 349 175.85 347.53 178 346Z" fill="black"/>
<path opacity="0.1" d="M179 340C178.824 340 171.566 338.156 170 335L179 340Z" fill="black"/>
<path opacity="0.1" d="M169 300.004C169 300.004 165.883 304.114 164.311 303.998C162.739 303.881 167.568 299.849 169 300.004Z" fill="black"/>
<path opacity="0.1" d="M167 306C167 306 165.788 308.61 164 307.867L167 306Z" fill="black"/>
<path opacity="0.05" d="M160 249.017L152.317 269C152.317 269 151.156 255.855 153.277 252.014C153.879 250.919 155.098 250.595 156.159 250.016C157.219 249.437 158.813 248.898 160 249.017Z" fill="black"/>
<g opacity="0.1">
<path opacity="0.1" d="M142 94.9712L143 94V94.9712C142.703 95.0165 142.298 95.002 142 94.9712Z" fill="black"/>
<path opacity="0.1" d="M146.035 99C145.773 98.6961 145.168 98.4382 145.074 98.0056C144.979 97.573 144.972 96.4472 145.074 96.0169C145.184 95.6839 145.847 95.2939 146.035 95.0225C146.485 94.915 146.572 95.2388 146.997 95.0225C147.051 96.0299 146.315 97.0592 146.035 98.0056C145.911 98.4423 145.914 98.5618 146.035 99Z" fill="black"/>
<path opacity="0.1" d="M125.993 130.721C127.261 129.926 128.472 129.155 128.988 127.752C129.573 126.38 129.395 125.146 129.986 123.794C130.642 122.308 131.82 119.985 132.981 118.847C133.175 118.621 133.7 118.949 133.979 118.847C134.243 118.81 134.721 118.776 134.978 118.847C135.234 118.917 134.77 118.68 134.978 118.847C135.667 119.313 136.163 119.644 136.974 119.836C137.381 119.923 138.572 119.956 138.971 119.836C139.369 119.716 139.679 120.133 139.969 119.836C140.602 119.081 140.155 117.835 139.969 116.868C139.57 114.755 138.978 112.088 138.971 109.941C138.964 107.794 140.095 106.022 141.965 104.993C143.616 104.053 145.155 103.529 146.957 103.014C147.897 102.759 149.196 102.638 149.952 102.025C150.105 102.087 149.807 101.946 149.952 102.025C150.247 102.183 151.032 102.692 150.95 103.014C150.891 103.17 151.088 102.92 150.95 103.014C150.192 103.623 148.894 104.737 147.955 104.993C146.119 105.494 144.614 105.043 142.964 105.983C141.093 107.039 139.969 109.807 139.969 111.92C139.969 114.033 140.589 115.751 140.967 117.857C141.153 118.824 141.6 120.05 140.967 120.826C140.679 121.126 140.368 121.695 139.969 121.815C139.57 121.935 138.379 121.906 137.972 121.815C137.162 121.626 136.666 121.289 135.976 120.826C135.768 120.66 135.234 119.908 134.978 119.836C134.721 119.764 134.243 119.803 133.979 119.836C133.713 119.946 134.165 120.606 133.979 120.826C132.821 121.966 131.644 123.299 130.984 124.784C130.393 126.156 130.571 127.383 129.986 128.742C129.48 130.16 128.267 131.896 126.991 132.7C125.691 133.386 124.023 132.829 122.998 131.71C122.733 131.41 122.139 131.096 122 130.721C122.56 131.139 123.298 131.676 123.997 131.71C124.695 131.745 125.395 131.082 125.993 130.721Z" fill="black"/>
<path opacity="0.1" d="M120 126C118.938 124.593 117.998 123.482 117 122C116.802 121.706 116.168 121.314 116 121C117.283 122.714 119.045 124.099 120 126Z" fill="black"/>
</g>
<g opacity="0.1">
<path opacity="0.1" d="M182 106H348C350.307 106.006 352.368 107.376 354 108.999C355.632 110.623 356.993 112.702 357 114.998V218.979C356.993 221.275 355.632 224.354 354 225.978C352.368 227.601 350.307 227.972 348 227.977H218C218 227.977 213.868 246.053 225 247.973C225 247.973 200.649 249.571 205 227.977H182C179.694 227.972 177.631 227.601 176 225.978C174.369 224.354 173.006 221.275 173 218.979V114.998C173.006 112.704 174.371 110.623 176 108.999C177.629 107.376 179.695 106.007 182 106Z" fill="black"/>
<g opacity="0.2">
<path opacity="0.2" d="M201 134H328C330.206 134 332 135.855 332 138C332 140.145 330.206 142 328 142H201C198.794 142 197 140.145 197 138C197 135.855 198.794 134 201 134Z" fill="black"/>
<path opacity="0.2" d="M225 171H328C330.198 171 332 172.855 332 175C332 177.145 330.198 179 328 179H225C222.802 179 221 177.145 221 175C221 172.855 222.802 171 225 171Z" fill="black"/>
<path opacity="0.2" d="M256 152H328C330.2 152 332 153.855 332 156C332 158.145 330.2 160 328 160H256C253.8 160 252 158.145 252 156C252 153.855 253.8 152 256 152Z" fill="black"/>
</g>
</g>
<path d="M180 104H346C348.308 104.007 350.368 105.375 352 106.999C353.632 108.624 354.993 110.701 355 112.998V216.979C354.993 219.275 353.632 222.355 352 223.978C350.368 225.601 348.307 225.972 346 225.977H216C216 225.977 211.868 244.053 223 245.974C223 245.974 198.649 247.57 203 225.977H180C177.694 225.972 175.631 225.601 174 223.978C172.369 222.354 171.006 219.275 171 216.979V112.998C171.006 110.703 172.371 108.624 174 106.999C175.629 105.375 177.694 104.009 180 104Z" fill="white"/>
<g opacity="0.2">
<path opacity="0.2" d="M199 132H326C328.206 132 330 133.855 330 136C330 138.145 328.206 140 326 140H199C196.794 140 195 138.145 195 136C195 133.855 196.794 132 199 132Z" fill="#1448B6"/>
<path opacity="0.2" d="M223 169H326C328.198 169 330 170.855 330 173C330 175.145 328.198 177 326 177H223C220.802 177 219 175.145 219 173C219 170.855 220.802 169 223 169Z" fill="#1448B6"/>
<path opacity="0.2" d="M254 150H326C328.2 150 330 151.855 330 154C330 156.145 328.2 158 326 158H254C251.8 158 250 156.145 250 154C250 151.855 251.8 150 254 150Z" fill="#1448B6"/>
</g>
<path d="M702.928 448C702.928 448 700.317 451.157 703.904 456C707.491 460.843 710.956 464.993 709.759 468C709.759 468 703.431 459.124 699.025 459C694.619 458.876 698.082 453.408 702.928 448Z" fill="#1448B6"/>
<path opacity="0.1" d="M703.09 448C702.889 448.309 703.202 448.643 703.09 448.998C698.986 454.029 697.182 458.856 701.121 458.979C704.792 459.089 708.922 466.228 709.98 467.962C709.98 468.093 710.026 467.832 709.98 467.962C709.98 467.962 704.34 459.103 700.137 458.979C695.935 458.856 698.467 453.387 703.09 448Z" fill="black"/>
<path d="M698.083 452.011C698.083 453.209 698.73 454 698.917 454C699.104 454 698.917 453.231 698.917 452.011C698.917 450.791 698.27 451.016 698.083 451.016C697.896 451.016 698.083 450.813 698.083 452.011Z" fill="#DCAF54"/>
<path d="M697.028 454.118C698.154 454.628 698.909 455.108 698.995 454.979C699.081 454.85 698.131 453.761 697.028 453.257C695.925 452.753 696.138 453.122 696.044 453.257C695.95 453.393 695.901 453.614 697.028 454.118Z" fill="#DCAF54"/>
<path d="M716.072 448C716.072 448 718.683 451.157 715.096 456C711.509 460.843 708.044 464.993 709.241 468C709.241 468 715.569 459.124 719.975 459C724.381 458.876 720.918 453.408 716.072 448Z" fill="#1448B6"/>
<path opacity="0.1" d="M716.907 448C717.108 448.309 716.794 448.643 716.907 448.998C721.014 454.029 722.819 458.856 718.876 458.979C715.202 459.089 711.073 466.228 710.015 467.962C710.048 468.093 709.969 467.832 710.015 467.962C710.015 467.962 715.655 459.103 719.861 458.979C724.067 458.856 721.534 453.387 716.907 448Z" fill="black"/>
<path d="M720.9 452.011C720.9 453.209 721.125 454 720.9 454C720.676 454 720 453.231 720 452.011C720 450.791 720.676 451.016 720.9 451.016C721.125 451.016 720.9 450.813 720.9 452.011Z" fill="#DCAF54"/>
<path d="M721.972 454.118C720.847 454.628 720.091 455.108 720.005 454.979C719.919 454.85 720.87 453.761 721.972 453.257C723.073 452.753 722.861 453.122 722.955 453.257C723.049 453.393 723.104 453.614 721.972 454.118Z" fill="#DCAF54"/>
<path opacity="0.1" d="M710 493C695.641 493 684 491.209 684 489C684 486.791 695.641 485 710 485C724.359 485 736 486.791 736 489C736 491.209 724.359 493 710 493Z" fill="#1448B6"/>
<path d="M696.003 464V465V466V467L697.002 468V469V470L699.002 486C699.177 487.461 701.107 489 704 489H714.998C717.89 489 719.814 487.461 719.996 486L721.996 470V469V468L722.995 467V466V465V464C723.094 463.175 721.604 462 719.996 462H699.002C697.345 461.993 695.932 463.175 696.003 464Z" fill="#65617D"/>
<path d="M696 465V466H723V465H696Z" fill="#9D9CB5"/>
<path d="M697 467V468H723V467H697Z" fill="#9D9CB5"/>
<path d="M696 469V470H722V469H696Z" fill="#9D9CB5"/>
<g opacity="0.1">
<path opacity="0.1" d="M237 316H418C420.495 316.007 422.236 317.238 424 319C425.764 320.761 426.993 322.508 427 324.999V438.987C426.993 441.478 425.764 444.225 424 445.986C422.236 447.747 420.495 447.978 418 447.986H276C276 447.986 272.97 467.9 285 469.983C285 469.983 257.292 471.402 262 447.986H237C234.505 447.978 232.764 447.747 231 445.986C229.236 444.225 228.007 441.478 228 438.987V324.999C228.007 322.508 229.236 320.761 231 319C232.764 317.238 234.505 316.007 237 316Z" fill="black"/>
<g opacity="0.2">
<path opacity="0.2" d="M258 386H396C398.201 386 400 387.774 400 390V391C400 393.226 398.201 395 396 395H258C255.799 395 254 393.226 254 391V390C254 387.774 255.799 386 258 386Z" fill="black"/>
<path opacity="0.2" d="M341 366H396C398.191 366 400 367.774 400 370V371C400 373.226 398.191 375 396 375H341C338.809 375 337 373.226 337 371V370C337 367.774 338.809 366 341 366Z" fill="black"/>
</g>
</g>
<path d="M239 315H420C422.495 315.007 424.236 316.239 426 318C427.764 319.761 428.993 321.508 429 323.999V437.987C428.993 440.477 427.764 443.225 426 444.986C424.236 446.747 422.495 446.978 420 446.986H278C278 446.986 274.972 466.893 287 468.983C287 468.983 259.293 470.407 264 446.986H239C236.505 446.978 234.764 446.747 233 444.986C231.236 443.225 230.007 440.477 230 437.987V323.999C230.007 321.508 231.236 319.761 233 318C234.764 316.239 236.505 315.007 239 315V315Z" fill="white"/>
<g opacity="0.2">
<path opacity="0.2" d="M260 385H398C400.201 385 402 386.774 402 389V390C402 392.226 400.201 394 398 394H260C257.799 394 256 392.226 256 390V389C256 386.774 257.799 385 260 385Z" fill="#1448B6"/>
<path opacity="0.2" d="M343 365H398C400.191 365 402 366.774 402 369V370C402 372.226 400.191 374 398 374H343C340.809 374 339 372.226 339 370V369C339 366.774 340.809 365 343 365Z" fill="#1448B6"/>
</g>
<path d="M79.9625 329.132C79.9625 329.433 80.0469 330 79.9625 330C79.8216 329.827 79.9184 329.317 79.9625 329.132C79.8781 329.132 79.9625 328.835 79.9625 329.132C79.9625 328.835 80.0469 329.132 79.9625 329.132Z" fill="#DCAF54"/>
<path d="M80.8681 330.895C80.5793 331.1 80.0234 330.95 80.0006 330.895C79.9778 330.841 80.5831 330.309 80.8681 330.105C81.1531 329.9 80.8453 330.05 80.8681 330.105C80.8909 330.159 81.1531 330.691 80.8681 330.895Z" fill="#DCAF54"/>
</g>
<defs>
<linearGradient  x1="170.998" y1="369.053" x2="170.998" y2="89.991" gradientUnits="userSpaceOnUse">
<stop stop-color="#808080" stop-opacity="0.25"/>
<stop offset="0.54" stop-color="#808080" stop-opacity="0.12"/>
<stop offset="1" stop-color="#808080" stop-opacity="0.1"/>
</linearGradient>
<clipPath id="clip0">
<rect width="758" height="578" fill="white" transform="matrix(-1 0 0 1 758 0)"/>
</clipPath>
</defs>
</svg>
