<svg width="479" height="474" viewBox="0 0 479 474" fill="none" xmlns="http://www.w3.org/2000/svg">
<path fill-rule="evenodd" clip-rule="evenodd" d="M425.689 160.867C445.926 211.18 429.993 268.07 405.913 315.243C380.237 365.54 343.448 410.577 291.096 426.214C236.054 442.655 192.815 421.133 142.834 389.582C91.6797 357.29 43.7785 308.491 37.3927 246.567C31.4056 188.507 76.3782 143.316 113.038 100.717C141.522 67.6176 159.763 50.152 202.216 44.3885C241.247 39.0896 276.041 61.1264 311.817 79.7227C354.568 101.944 407.105 114.665 425.689 160.867Z" fill="#F8FBFF"/>
<path d="M328.902 245.237C328.902 294.943 288.608 335.237 238.902 335.237C189.197 335.237 148.902 294.943 148.902 245.237C148.902 195.532 189.197 155.237 238.902 155.237C288.608 155.237 328.902 195.532 328.902 245.237ZM177.173 245.237C177.173 279.33 204.81 306.967 238.902 306.967C272.995 306.967 300.632 279.33 300.632 245.237C300.632 211.145 272.995 183.508 238.902 183.508C204.81 183.508 177.173 211.145 177.173 245.237Z" fill="#1448B6"/>
<ellipse cx="239.402" cy="245.737" rx="29.5" ry="29.5" fill="#DCAF54"/>
<path d="M237.462 244.501L287.855 200.237L293.902 207.279C283.585 216.136 261.073 232.372 242.501 249.53C238.955 252.091 235.527 247.061 237.462 244.501Z" fill="#001032"/>
<path fill-rule="evenodd" clip-rule="evenodd" d="M302.902 159.237L279.902 185.237V213.237H306.902L334.902 185.237H311.902L294.902 198.237L305.902 181.237L302.902 159.237Z" fill="#DCAF54"/>
<circle cx="239.402" cy="245.737" r="144.144" stroke="#1448B6" stroke-width="0.71179"/>
</svg>