<svg width="124" height="108" viewBox="0 0 124 108" fill="none" xmlns="http://www.w3.org/2000/svg">
<path d="M77.6549 0C77.6549 0 83.4249 7.37476 74.6568 19C65.8887 30.6252 58.7421 40.7528 61.6648 48C61.6648 48 74.8896 26.3078 85.65 26C96.4104 25.6922 89.4974 12.9655 77.6549 0Z" fill="#1448B6"/>
<path opacity="0.1" d="M77.9449 0C78.4539 0.739776 78.6645 1.14165 78.939 2C89.086 14.1017 94.6502 25.7223 84.9037 26C75.8213 26.2678 64.6467 42.8438 62.0392 47C62.1258 47.3361 61.9176 47.6753 62.0392 48C62.0392 48 75.5067 26.3075 85.8978 26C96.2889 25.6925 89.381 12.9547 77.9449 0Z" fill="black"/>
<path d="M87.9174 10.0762C87.9174 12.8437 87.2683 15 87.0826 15C86.8968 15 87.0826 12.8437 87.0826 10.0762C87.0826 7.30882 87.7317 8.10673 87.9174 8.10673C88.1032 8.10673 87.9174 7.30882 87.9174 10.0762Z" fill="#DCAF54"/>
<path d="M92.705 12.8357C90.6576 14.3492 88.1624 15.2987 88.0088 14.9145C87.8552 14.5303 89.7354 13.3564 91.7658 11.7962C93.7961 10.2361 93.4822 11.3771 93.6443 11.7962C93.8063 12.2154 94.7439 11.3105 92.705 12.8357Z" fill="#DCAF54"/>
<path d="M46.3455 0C46.3455 0 40.5852 7.37476 49.3437 19C58.1022 30.6252 65.2586 40.7528 62.3358 48C62.3358 48 49.1114 26.3078 38.3504 26C27.5894 25.6922 34.5024 12.9655 46.3455 0Z" fill="#1448B6"/>
<path opacity="0.1" d="M46.0551 0C45.5461 0.739776 45.3355 1.14165 45.061 2C34.914 14.1017 29.3498 25.7223 39.0963 26C48.1787 26.2678 59.3435 42.8438 61.9608 47C61.8742 47.3361 62.0824 47.6753 61.9608 48C61.9608 48 48.4933 26.3075 38.1022 26C27.7111 25.6925 34.619 12.9547 46.0551 0Z" fill="black"/>
<path d="M35.0826 10.0762C35.0826 12.8437 35.7317 15 35.9174 15C36.1032 15 35.9174 12.8437 35.9174 10.0762C35.9174 7.30882 35.2683 8.10673 35.0826 8.10673C34.8968 8.10673 35.0826 7.30882 35.0826 10.0762Z" fill="#DCAF54"/>
<path d="M31.2949 12.8357C33.3422 14.3492 35.8377 15.2987 35.9912 14.9145C36.1447 14.5303 34.2644 13.3564 32.2342 11.7962C30.204 10.2361 30.5092 11.3771 30.3557 11.7962C30.2021 12.2154 29.2477 11.3105 31.2949 12.8357Z" fill="#DCAF54"/>
<path opacity="0.1" d="M62 108C96.2417 108 124 104.247 124 99C124 93.7533 96.2417 89 62 89C27.7584 89 0 93.7533 0 99C0 104.247 27.7584 108 62 108Z" fill="#1448B6"/>
<path d="M93.987 39V41L92.9874 44V46V49V51L91.9878 54L86.9898 93C86.5591 96.4576 80.8458 99 73.9949 99H50.0043C43.1433 99 37.4301 96.4576 37.0094 93L32.0114 54L31.0118 51V49V46V44L30.0121 41V39C29.7718 37.0072 33.1332 35 37.0094 35H86.9898C90.8259 35 94.2374 37.0371 93.987 39Z" fill="#65617D"/>
</svg>
